<svg role="img" aria-labelledby="title-ipad_drive_thru-svg" xmlns="http://www.w3.org/2000/svg" viewBox="0 0 1366 1024"
     font-family="-apple-system,BlinkMacSystemFont,'SF Pro Display','Segoe UI',sans-serif">

  <!-- ═══════════════════════════════════════════════════════ -->
  <!-- DEFINITIONS: Gradients, Shadows, Patterns              -->
  <!-- ═══════════════════════════════════════════════════════ -->
  <title id="title-ipad_drive_thru-svg">Synalux POS — drive thru</title>
  <desc>Synalux POS mockup screen for drive thru. All UI elements admin-configurable.</desc>
  <defs>
    <!-- Background gradient -->
    <linearGradient id="bgGrad" x1="0" y1="0" x2="0" y2="1">
      <stop offset="0%" stop-color="#0C0E1A"/>
      <stop offset="100%" stop-color="#080A14"/>
    </linearGradient>

    <!-- Header bar gradient -->
    <linearGradient id="headerGrad" x1="0" y1="0" x2="0" y2="1">
      <stop offset="0%" stop-color="#1A1D2E"/>
      <stop offset="100%" stop-color="#161930"/>
    </linearGradient>

    <!-- Card gradient -->
    <linearGradient id="cardGrad" x1="0" y1="0" x2="0" y2="1">
      <stop offset="0%" stop-color="#1A1D2E"/>
      <stop offset="100%" stop-color="#161930"/>
    </linearGradient>

    <!-- Lane header gradients -->
    <linearGradient id="laneOrderGrad" x1="0" y1="0" x2="1" y2="1">
      <stop offset="0%" stop-color="#F59E0B" stop-opacity="0.15"/>
      <stop offset="100%" stop-color="#F59E0B" stop-opacity="0.05"/>
    </linearGradient>
    <linearGradient id="lanePayGrad" x1="0" y1="0" x2="1" y2="1">
      <stop offset="0%" stop-color="#60A5FA" stop-opacity="0.15"/>
      <stop offset="100%" stop-color="#60A5FA" stop-opacity="0.05"/>
    </linearGradient>
    <linearGradient id="lanePickupGrad" x1="0" y1="0" x2="1" y2="1">
      <stop offset="0%" stop-color="#22C55E" stop-opacity="0.15"/>
      <stop offset="100%" stop-color="#22C55E" stop-opacity="0.05"/>
    </linearGradient>

    <!-- Amber button gradient -->
    <linearGradient id="amberBtnGrad" x1="0" y1="0" x2="0" y2="1">
      <stop offset="0%" stop-color="#FBBF24"/>
      <stop offset="100%" stop-color="#F59E0B"/>
    </linearGradient>
    <!-- Green button gradient -->
    <linearGradient id="greenBtnGrad" x1="0" y1="0" x2="0" y2="1">
      <stop offset="0%" stop-color="#4ADE80"/>
      <stop offset="100%" stop-color="#22C55E"/>
    </linearGradient>
    <!-- Blue button gradient -->
    <linearGradient id="blueBtnGrad" x1="0" y1="0" x2="0" y2="1">
      <stop offset="0%" stop-color="#93C5FD"/>
      <stop offset="100%" stop-color="#60A5FA"/>
    </linearGradient>
    <!-- Red button gradient -->
    <linearGradient id="redBtnGrad" x1="0" y1="0" x2="0" y2="1">
      <stop offset="0%" stop-color="#F87171"/>
      <stop offset="100%" stop-color="#EF4444"/>
    </linearGradient>

    <!-- Bottom bar gradient -->
    <linearGradient id="bottomBarGrad" x1="0" y1="0" x2="0" y2="1">
      <stop offset="0%" stop-color="#161930"/>
      <stop offset="100%" stop-color="#0C0E1A"/>
    </linearGradient>

    <!-- KDS panel gradient -->
    <linearGradient id="kdsGrad" x1="0" y1="0" x2="0" y2="1">
      <stop offset="0%" stop-color="#1E1235"/>
      <stop offset="100%" stop-color="#161930"/>
    </linearGradient>

    <!-- Drop shadows -->
    <filter id="cardShadow" x="-4%" y="-4%" width="108%" height="116%">
      <feDropShadow dx="0" dy="2" stdDeviation="4" flood-color="#000000" flood-opacity="0.35"/>
    </filter>
    <filter id="headerShadow" x="-1%" y="-10%" width="102%" height="140%">
      <feDropShadow dx="0" dy="1" stdDeviation="2" flood-color="#000000" flood-opacity="0.5"/>
    </filter>
    <filter id="btnShadow" x="-5%" y="-10%" width="110%" height="130%">
      <feDropShadow dx="0" dy="2" stdDeviation="3" flood-color="#000000" flood-opacity="0.4"/>
    </filter>
    <filter id="glowAmber" x="-20%" y="-20%" width="140%" height="140%">
      <feDropShadow dx="0" dy="0" stdDeviation="6" flood-color="#F59E0B" flood-opacity="0.3"/>
    </filter>
    <filter id="glowGreen" x="-20%" y="-20%" width="140%" height="140%">
      <feDropShadow dx="0" dy="0" stdDeviation="6" flood-color="#22C55E" flood-opacity="0.3"/>
    </filter>
    <filter id="glowRed" x="-20%" y="-20%" width="140%" height="140%">
      <feDropShadow dx="0" dy="0" stdDeviation="6" flood-color="#EF4444" flood-opacity="0.3"/>
    </filter>
    <filter id="glowBlue" x="-20%" y="-20%" width="140%" height="140%">
      <feDropShadow dx="0" dy="0" stdDeviation="6" flood-color="#60A5FA" flood-opacity="0.3"/>
    </filter>

    <!-- ═══════════════════════════════════════════════════════ -->
    <!-- REUSABLE SYMBOLS                                       -->
    <!-- ═══════════════════════════════════════════════════════ -->

    <!-- Admin gear icon for configurable elements -->
    <symbol id="adminGear" viewBox="0 0 14 14">
      <circle cx="7" cy="7" r="2.5" fill="none" stroke="#F59E0B" stroke-width="0.8" opacity="0.3"/>
      <path d="M7 1v1.5M7 11.5V13M1 7h1.5M11.5 7H13M2.8 2.8l1 1M10.2 10.2l1 1M2.8 11.2l1-1M10.2 3.8l1-1" stroke="#F59E0B" stroke-width="0.6" stroke-linecap="round" opacity="0.3"/>
    </symbol>

    <!-- Vehicle icon tile (reused for every vehicle card) -->
    <symbol id="vehicleIcon" viewBox="0 0 36 36">
      <rect x="0" y="0" width="36" height="36" rx="8" opacity="0.15"/>
      <text x="18" y="24" font-size="18" text-anchor="middle">&#x1F697;</text>
    </symbol>

    <!-- Timing badge (ON TIME / CAUTION / OVERDUE) -->
    <symbol id="timingBadge" viewBox="0 0 62 22">
      <rect x="0" y="0" width="62" height="22" rx="11" opacity="0.15"/>
    </symbol>

    <!-- Advance button -->
    <symbol id="advanceBtn" viewBox="0 0 152 36">
      <rect x="0" y="0" width="152" height="36" rx="8" fill="url(#amberBtnGrad)" filter="url(#btnShadow)"/>
    </symbol>

    <!-- KDS stat pill -->
    <symbol id="kdsStatPill" viewBox="0 0 160 28">
      <rect x="0" y="0" width="160" height="28" rx="6" opacity="0.1" stroke-width="0.5"/>
    </symbol>

    <!-- Bottom stat card -->
    <symbol id="bottomStatCard" viewBox="0 0 220 50">
      <rect x="0" y="0" width="220" height="50" rx="10" fill="url(#cardGrad)" stroke="#1E2235" stroke-width="1" filter="url(#cardShadow)"/>
    </symbol>
  </defs>

  <!-- ═══════════════════════════════════════════════════════ -->
  <!-- BACKGROUND                                             -->
  <!-- ═══════════════════════════════════════════════════════ -->
  <rect width="1366" height="1024" fill="url(#bgGrad)"/>

  <!-- ═══════════════════════════════════════════════════════ -->
  <!-- TOP HEADER BAR                                         -->
  <!-- ═══════════════════════════════════════════════════════ -->
  <rect x="0" y="0" width="1366" height="56" fill="url(#headerGrad)" filter="url(#headerShadow)"/>
  <rect x="0" y="56" width="1366" height="1" fill="#1E2235"/>

  <!-- Brand -->
  <text x="20" y="24" fill="#F59E0B" font-size="15" font-weight="700">Synalux POS</text>
  <rect x="20" y="32" width="120" height="20" rx="10" fill="#F59E0B" opacity="0.12"/>
  <text x="80" y="46" fill="#F59E0B" font-size="10" font-weight="700" text-anchor="middle" letter-spacing="1">DRIVE-THRU</text>

  <!-- Center title -->
  <text x="683" y="24" fill="#94A3B8" font-size="11" text-anchor="middle" letter-spacing="0.5">LANE MANAGEMENT</text>
  <text x="683" y="44" fill="#E2E8F0" font-size="16" font-weight="700" text-anchor="middle">3-Lane Drive-Through Control</text>

  <!-- Right status cluster -->
  <rect x="1130" y="12" width="100" height="20" rx="10" fill="#22C55E" opacity="0.12"/>
  <circle cx="1144" cy="22" r="4" fill="#22C55E"/>
  <text x="1154" y="26" fill="#22C55E" font-size="10" font-weight="600">KDS Linked</text>

  <text x="1280" y="22" fill="#94A3B8" font-size="11" text-anchor="middle">Wed 12:34 PM</text>
  <text x="1280" y="42" fill="#E2E8F0" font-size="13" font-weight="600" text-anchor="middle">Shift: 3h 22m</text>

  <!-- Active cars badge -->
  <rect x="1340" y="14" width="18" height="18" rx="9" fill="#EF4444" filter="url(#glowRed)"/>
  <text x="1349" y="27" fill="#FFFFFF" font-size="10" font-weight="800" text-anchor="middle">8</text>


  <!-- ═══════════════════════════════════════════════════════ -->
  <!-- LANE STATS BAR (y=64)                                  -->
  <!-- Admin: timing_targets, kds_integration (configurable)  -->
  <!-- ═══════════════════════════════════════════════════════ -->
  <rect x="12" y="64" width="1342" height="52" rx="10" fill="url(#cardGrad)" stroke="#1E2235" stroke-width="1" filter="url(#cardShadow)"/>
  <use href="#adminGear" x="1330" y="70" width="14" height="14"/>

  <!-- Stat: Total in Queue -->
  <text x="36" y="84" fill="#475569" font-size="9" font-weight="600" letter-spacing="1">TOTAL IN QUEUE</text>
  <text x="36" y="104" fill="#E2E8F0" font-size="20" font-weight="800">8</text>
  <text x="58" y="104" fill="#64748B" font-size="12">vehicles</text>

  <!-- Divider -->
  <rect x="160" y="74" width="1" height="32" fill="#2A2E45" rx="1"/>

  <!-- Stat: Avg Total Time -->
  <!-- Admin: avg_time_target (configurable) -->
  <text x="180" y="84" fill="#475569" font-size="9" font-weight="600" letter-spacing="1">AVG TOTAL TIME</text>
  <text x="180" y="104" fill="#F59E0B" font-size="20" font-weight="800">4:12</text>
  <text x="230" y="104" fill="#64748B" font-size="12">/ 3:30 target</text>

  <!-- Divider -->
  <rect x="350" y="74" width="1" height="32" fill="#2A2E45" rx="1"/>

  <!-- Stat: Cars Served -->
  <text x="370" y="84" fill="#475569" font-size="9" font-weight="600" letter-spacing="1">SERVED TODAY</text>
  <text x="370" y="104" fill="#E2E8F0" font-size="20" font-weight="800">127</text>

  <!-- Divider -->
  <rect x="470" y="74" width="1" height="32" fill="#2A2E45" rx="1"/>

  <!-- Stat: Revenue -->
  <text x="490" y="84" fill="#475569" font-size="9" font-weight="600" letter-spacing="1">REVENUE</text>
  <text x="490" y="104" fill="#22C55E" font-size="20" font-weight="800">$3,840</text>

  <!-- Divider -->
  <rect x="610" y="74" width="1" height="32" fill="#2A2E45" rx="1"/>

  <!-- Stat: On Target % -->
  <text x="630" y="84" fill="#475569" font-size="9" font-weight="600" letter-spacing="1">ON-TARGET</text>
  <text x="630" y="104" fill="#22C55E" font-size="20" font-weight="800">78%</text>

  <!-- Divider -->
  <rect x="720" y="74" width="1" height="32" fill="#2A2E45" rx="1"/>

  <!-- Stat: Best Hour -->
  <text x="740" y="84" fill="#475569" font-size="9" font-weight="600" letter-spacing="1">BEST HOUR</text>
  <text x="740" y="104" fill="#F59E0B" font-size="16" font-weight="800">12 PM</text>
  <text x="810" y="104" fill="#64748B" font-size="12">(34 cars)</text>

  <!-- Hourly mini chart -->
  <text x="960" y="84" fill="#475569" font-size="9" font-weight="600" letter-spacing="1">HOURLY THROUGHPUT</text>
  <rect x="960" y="98" width="16" height="8" rx="2" fill="#2A2E45"/>
  <rect x="980" y="95" width="16" height="11" rx="2" fill="#2A2E45"/>
  <rect x="1000" y="91" width="16" height="15" rx="2" fill="#60A5FA"/>
  <rect x="1020" y="83" width="16" height="23" rx="2" fill="#F59E0B"/>
  <rect x="1040" y="89" width="16" height="17" rx="2" fill="#60A5FA"/>
  <rect x="1060" y="93" width="16" height="13" rx="2" fill="#60A5FA"/>
  <rect x="1080" y="96" width="16" height="10" rx="2" fill="#2A2E45"/>
  <rect x="1100" y="98" width="16" height="8" rx="2" fill="#2A2E45"/>
  <rect x="1120" y="97" width="16" height="9" rx="2" fill="#22C55E"/>


  <!-- ═══════════════════════════════════════════════════════ -->
  <!-- LANE 1: ORDER (Amber) x=12, w=410                     -->
  <!-- ═══════════════════════════════════════════════════════ -->

  <!-- Lane header -->
  <rect x="12" y="124" width="410" height="56" rx="10" fill="url(#laneOrderGrad)" stroke="#F59E0B" stroke-width="1.5" stroke-opacity="0.4" filter="url(#cardShadow)"/>
  <rect x="12" y="124" width="6" height="56" rx="3" fill="#F59E0B"/>
  <text x="32" y="148" fill="#F59E0B" font-size="13" font-weight="800" letter-spacing="1">ORDER LANE</text>
  <text x="32" y="168" fill="#94A3B8" font-size="11">Speaker box / menu board</text>
  <!-- Lane avg stat -->
  <rect x="320" y="134" width="92" height="36" rx="8" fill="#F59E0B" opacity="0.1"/>
  <text x="366" y="150" fill="#475569" font-size="8" font-weight="600" text-anchor="middle" letter-spacing="0.5">AVG TIME</text>
  <text x="366" y="166" fill="#F59E0B" font-size="15" font-weight="800" text-anchor="middle">1:48</text>

  <!-- Vehicle Card 1 - green (under 3 min) -->
  <rect x="12" y="188" width="410" height="130" rx="10" fill="url(#cardGrad)" stroke="#22C55E" stroke-width="1.5" filter="url(#cardShadow)"/>
  <rect x="12" y="188" width="5" height="130" rx="2.5" fill="#22C55E"/>
  <!-- Vehicle header -->
  <g fill="#22C55E"><use href="#vehicleIcon" x="28" y="198" width="36" height="36"/></g>
  <text x="76" y="213" fill="#E2E8F0" font-size="14" font-weight="700">Vehicle #1</text>
  <text x="76" y="228" fill="#94A3B8" font-size="11">Ordering now</text>
  <!-- Timer -->
  <text x="310" y="218" fill="#22C55E" font-size="26" font-weight="800" text-anchor="middle" filter="url(#glowGreen)">1:23</text>
  <!-- Status badge -->
  <g fill="#22C55E"><use href="#timingBadge" x="350" y="204" width="62" height="22"/></g>
  <text x="381" y="219" fill="#4ADE80" font-size="9" font-weight="700" text-anchor="middle">ON TIME</text>
  <!-- Order summary -->
  <rect x="28" y="240" width="384" height="1" fill="#1E2235"/>
  <text x="28" y="258" fill="#CBD5E1" font-size="12">2x Classic Burger, 1x Large Fries, 1x Coke</text>
  <text x="28" y="276" fill="#64748B" font-size="11">Subtotal: <tspan fill="#CBD5E1" font-weight="600">$29.50</tspan></text>
  <!-- Advance button -->
  <use href="#advanceBtn" x="260" y="262" width="152" height="36"/>
  <text x="336" y="285" fill="#0C0E1A" font-size="12" font-weight="800" text-anchor="middle">ADVANCE TO PAY &#x2192;</text>

  <!-- Vehicle Card 2 - green -->
  <rect x="12" y="326" width="410" height="110" rx="10" fill="url(#cardGrad)" stroke="#22C55E" stroke-width="1" filter="url(#cardShadow)"/>
  <rect x="12" y="326" width="5" height="110" rx="2.5" fill="#22C55E"/>
  <g fill="#22C55E"><use href="#vehicleIcon" x="28" y="336" width="36" height="36"/></g>
  <text x="76" y="351" fill="#E2E8F0" font-size="14" font-weight="700">Vehicle #2</text>
  <text x="76" y="366" fill="#94A3B8" font-size="11">At speaker</text>
  <text x="310" y="356" fill="#22C55E" font-size="26" font-weight="800" text-anchor="middle">0:34</text>
  <g fill="#22C55E"><use href="#timingBadge" x="350" y="342" width="62" height="22"/></g>
  <text x="381" y="357" fill="#4ADE80" font-size="9" font-weight="700" text-anchor="middle">ON TIME</text>
  <rect x="28" y="378" width="384" height="1" fill="#1E2235"/>
  <text x="28" y="396" fill="#CBD5E1" font-size="12">1x Veggie Burger, 1x Water</text>
  <text x="28" y="414" fill="#64748B" font-size="11">Subtotal: <tspan fill="#CBD5E1" font-weight="600">$13.00</tspan></text>
  <use href="#advanceBtn" x="260" y="400" width="152" height="36" opacity="0.5"/>
  <text x="336" y="423" fill="#0C0E1A" font-size="12" font-weight="800" text-anchor="middle" opacity="0.5">ADVANCE TO PAY &#x2192;</text>

  <!-- Vehicle Card 3 - incoming (gray) -->
  <rect x="12" y="444" width="410" height="72" rx="10" fill="url(#cardGrad)" stroke="#2A2E45" stroke-width="1" filter="url(#cardShadow)"/>
  <rect x="12" y="444" width="5" height="72" rx="2.5" fill="#475569"/>
  <g fill="#475569"><use href="#vehicleIcon" x="28" y="454" width="36" height="36"/></g>
  <text x="76" y="469" fill="#64748B" font-size="14" font-weight="700">Vehicle #3</text>
  <text x="76" y="484" fill="#475569" font-size="11">Approaching speaker</text>
  <rect x="340" y="458" width="72" height="22" rx="11" fill="#475569" opacity="0.12"/>
  <text x="376" y="473" fill="#64748B" font-size="9" font-weight="700" text-anchor="middle">INCOMING</text>


  <!-- ═══════════════════════════════════════════════════════ -->
  <!-- LANE 2: PAY (Blue) x=434, w=410                       -->
  <!-- ═══════════════════════════════════════════════════════ -->

  <!-- Lane divider line -->
  <rect x="430" y="124" width="1" height="530" fill="#1E2235"/>

  <!-- Lane header -->
  <rect x="434" y="124" width="410" height="56" rx="10" fill="url(#lanePayGrad)" stroke="#60A5FA" stroke-width="1.5" stroke-opacity="0.4" filter="url(#cardShadow)"/>
  <rect x="434" y="124" width="6" height="56" rx="3" fill="#60A5FA"/>
  <text x="454" y="148" fill="#60A5FA" font-size="13" font-weight="800" letter-spacing="1">PAY LANE</text>
  <text x="454" y="168" fill="#94A3B8" font-size="11">Payment window</text>
  <rect x="742" y="134" width="92" height="36" rx="8" fill="#60A5FA" opacity="0.1"/>
  <text x="788" y="150" fill="#475569" font-size="8" font-weight="600" text-anchor="middle" letter-spacing="0.5">AVG TIME</text>
  <text x="788" y="166" fill="#60A5FA" font-size="15" font-weight="800" text-anchor="middle">1:12</text>

  <!-- Vehicle Card 4 - amber (3-5 min total elapsed) -->
  <rect x="434" y="188" width="410" height="130" rx="10" fill="url(#cardGrad)" stroke="#F59E0B" stroke-width="1.5" filter="url(#cardShadow)"/>
  <rect x="434" y="188" width="5" height="130" rx="2.5" fill="#F59E0B"/>
  <g fill="#F59E0B"><use href="#vehicleIcon" x="450" y="198" width="36" height="36"/></g>
  <text x="498" y="213" fill="#E2E8F0" font-size="14" font-weight="700">Vehicle #4</text>
  <text x="498" y="228" fill="#94A3B8" font-size="11">Awaiting card tap</text>
  <text x="732" y="218" fill="#F59E0B" font-size="26" font-weight="800" text-anchor="middle" filter="url(#glowAmber)">3:45</text>
  <g fill="#F59E0B"><use href="#timingBadge" x="772" y="204" width="62" height="22"/></g>
  <text x="803" y="219" fill="#F59E0B" font-size="9" font-weight="700" text-anchor="middle">CAUTION</text>
  <rect x="450" y="240" width="384" height="1" fill="#1E2235"/>
  <text x="450" y="258" fill="#CBD5E1" font-size="12">1x BBQ Bacon Burger, 2x Fries, 1x Milkshake</text>
  <text x="450" y="276" fill="#64748B" font-size="11">Total: <tspan fill="#E2E8F0" font-weight="700">$32.40</tspan>  |  Tip: <tspan fill="#22C55E" font-weight="600">$5.00</tspan></text>
  <!-- Charge button -->
  <rect x="610" y="262" width="110" height="36" rx="8" fill="url(#greenBtnGrad)" filter="url(#btnShadow)"/>
  <text x="665" y="285" fill="#0C0E1A" font-size="12" font-weight="800" text-anchor="middle">CHARGE</text>
  <!-- Advance button -->
  <rect x="726" y="262" width="108" height="36" rx="8" fill="url(#blueBtnGrad)" filter="url(#btnShadow)"/>
  <text x="780" y="285" fill="#0C0E1A" font-size="11" font-weight="800" text-anchor="middle">TO PICKUP &#x2192;</text>

  <!-- Vehicle Card 5 - green -->
  <rect x="434" y="326" width="410" height="110" rx="10" fill="url(#cardGrad)" stroke="#22C55E" stroke-width="1" filter="url(#cardShadow)"/>
  <rect x="434" y="326" width="5" height="110" rx="2.5" fill="#22C55E"/>
  <g fill="#22C55E"><use href="#vehicleIcon" x="450" y="336" width="36" height="36"/></g>
  <text x="498" y="351" fill="#E2E8F0" font-size="14" font-weight="700">Vehicle #5</text>
  <text x="498" y="366" fill="#94A3B8" font-size="11">Card processing</text>
  <text x="732" y="356" fill="#22C55E" font-size="26" font-weight="800" text-anchor="middle">0:52</text>
  <g fill="#22C55E"><use href="#timingBadge" x="772" y="342" width="62" height="22"/></g>
  <text x="803" y="357" fill="#4ADE80" font-size="9" font-weight="700" text-anchor="middle">ON TIME</text>
  <rect x="450" y="378" width="384" height="1" fill="#1E2235"/>
  <text x="450" y="396" fill="#CBD5E1" font-size="12">1x Double Stack, 1x Pepsi</text>
  <text x="450" y="414" fill="#64748B" font-size="11">Total: <tspan fill="#E2E8F0" font-weight="700">$18.00</tspan></text>
  <rect x="726" y="400" width="108" height="36" rx="8" fill="url(#blueBtnGrad)" filter="url(#btnShadow)" opacity="0.5"/>
  <text x="780" y="423" fill="#0C0E1A" font-size="11" font-weight="800" text-anchor="middle" opacity="0.5">TO PICKUP &#x2192;</text>


  <!-- ═══════════════════════════════════════════════════════ -->
  <!-- LANE 3: PICKUP (Green) x=856, w=410                   -->
  <!-- ═══════════════════════════════════════════════════════ -->

  <!-- Lane divider line -->
  <rect x="852" y="124" width="1" height="530" fill="#1E2235"/>

  <!-- Lane header -->
  <rect x="856" y="124" width="498" height="56" rx="10" fill="url(#lanePickupGrad)" stroke="#22C55E" stroke-width="1.5" stroke-opacity="0.4" filter="url(#cardShadow)"/>
  <rect x="856" y="124" width="6" height="56" rx="3" fill="#22C55E"/>
  <text x="876" y="148" fill="#22C55E" font-size="13" font-weight="800" letter-spacing="1">PICKUP LANE</text>
  <text x="876" y="168" fill="#94A3B8" font-size="11">Handoff window</text>
  <rect x="1252" y="134" width="92" height="36" rx="8" fill="#22C55E" opacity="0.1"/>
  <text x="1298" y="150" fill="#475569" font-size="8" font-weight="600" text-anchor="middle" letter-spacing="0.5">AVG TIME</text>
  <text x="1298" y="166" fill="#22C55E" font-size="15" font-weight="800" text-anchor="middle">1:05</text>

  <!-- Vehicle Card 6 - RED (over 5 min total) -->
  <rect x="856" y="188" width="498" height="140" rx="10" fill="url(#cardGrad)" stroke="#EF4444" stroke-width="2" filter="url(#cardShadow)"/>
  <rect x="856" y="188" width="5" height="140" rx="2.5" fill="#EF4444"/>
  <g fill="#EF4444"><use href="#vehicleIcon" x="872" y="198" width="36" height="36"/></g>
  <text x="920" y="213" fill="#E2E8F0" font-size="14" font-weight="700">Vehicle #6</text>
  <text x="920" y="228" fill="#94A3B8" font-size="11">Waiting for food</text>
  <text x="1140" y="218" fill="#EF4444" font-size="28" font-weight="800" text-anchor="middle" filter="url(#glowRed)">5:42</text>
  <!-- OVERDUE badge -->
  <rect x="1186" y="200" width="80" height="24" rx="12" fill="#EF4444" opacity="0.2"/>
  <rect x="1186" y="200" width="80" height="24" rx="12" fill="none" stroke="#EF4444" stroke-width="1"/>
  <text x="1226" y="216" fill="#EF4444" font-size="10" font-weight="800" text-anchor="middle">OVERDUE</text>
  <!-- Alert icon -->
  <rect x="1274" y="202" width="20" height="20" rx="10" fill="#EF4444" filter="url(#glowRed)"/>
  <text x="1284" y="216" fill="#FFFFFF" font-size="12" font-weight="800" text-anchor="middle">!</text>

  <rect x="872" y="240" width="472" height="1" fill="#1E2235"/>
  <text x="872" y="258" fill="#CBD5E1" font-size="12">3x Chicken Wrap, 2x Lg Fries, 1x Shake, 2x Cookie</text>
  <text x="872" y="276" fill="#64748B" font-size="11">Total: <tspan fill="#E2E8F0" font-weight="700">$48.60</tspan>  |  Paid: <tspan fill="#22C55E" font-weight="600">Card ****4821</tspan></text>
  <!-- KDS status inline -->
  <rect x="872" y="286" width="200" height="24" rx="6" fill="#F59E0B" opacity="0.1"/>
  <text x="882" y="303" fill="#F59E0B" font-size="10" font-weight="700">KDS: 1 item remaining (Grill)</text>
  <!-- Mark Delivered button -->
  <rect x="1178" y="286" width="166" height="36" rx="8" fill="url(#greenBtnGrad)" filter="url(#btnShadow)"/>
  <text x="1261" y="309" fill="#0C0E1A" font-size="12" font-weight="800" text-anchor="middle">MARK DELIVERED</text>

  <!-- Vehicle Card 7 - amber -->
  <rect x="856" y="336" width="498" height="110" rx="10" fill="url(#cardGrad)" stroke="#F59E0B" stroke-width="1" filter="url(#cardShadow)"/>
  <rect x="856" y="336" width="5" height="110" rx="2.5" fill="#F59E0B"/>
  <g fill="#F59E0B"><use href="#vehicleIcon" x="872" y="346" width="36" height="36"/></g>
  <text x="920" y="361" fill="#E2E8F0" font-size="14" font-weight="700">Vehicle #7</text>
  <text x="920" y="376" fill="#94A3B8" font-size="11">Waiting for food</text>
  <text x="1140" y="366" fill="#F59E0B" font-size="26" font-weight="800" text-anchor="middle" filter="url(#glowAmber)">4:18</text>
  <g fill="#F59E0B"><use href="#timingBadge" x="1186" y="352" width="62" height="22"/></g>
  <text x="1217" y="367" fill="#F59E0B" font-size="9" font-weight="700" text-anchor="middle">CAUTION</text>
  <rect x="872" y="388" width="472" height="1" fill="#1E2235"/>
  <text x="872" y="406" fill="#CBD5E1" font-size="12">2x Mushroom Swiss, 1x Onion Rings</text>
  <text x="872" y="424" fill="#64748B" font-size="11">Total: <tspan fill="#E2E8F0" font-weight="700">$31.20</tspan>  |  Paid: <tspan fill="#22C55E" font-weight="600">Apple Pay</tspan></text>
  <rect x="1178" y="400" width="166" height="36" rx="8" fill="url(#greenBtnGrad)" filter="url(#btnShadow)" opacity="0.5"/>
  <text x="1261" y="423" fill="#0C0E1A" font-size="12" font-weight="800" text-anchor="middle" opacity="0.5">MARK DELIVERED</text>

  <!-- Vehicle Card 8 - green -->
  <rect x="856" y="454" width="498" height="72" rx="10" fill="url(#cardGrad)" stroke="#22C55E" stroke-width="1" filter="url(#cardShadow)"/>
  <rect x="856" y="454" width="5" height="72" rx="2.5" fill="#22C55E"/>
  <g fill="#22C55E"><use href="#vehicleIcon" x="872" y="464" width="36" height="36"/></g>
  <text x="920" y="479" fill="#E2E8F0" font-size="14" font-weight="700">Vehicle #8</text>
  <text x="920" y="494" fill="#94A3B8" font-size="11">Just arrived at window</text>
  <text x="1140" y="486" fill="#22C55E" font-size="26" font-weight="800" text-anchor="middle">0:15</text>
  <rect x="1264" y="468" width="80" height="22" rx="11" fill="#22C55E" opacity="0.15"/>
  <text x="1304" y="483" fill="#4ADE80" font-size="9" font-weight="700" text-anchor="middle">ON TIME</text>


  <!-- ═══════════════════════════════════════════════════════ -->
  <!-- TIMING LEGEND BAR                                      -->
  <!-- Admin: timing_thresholds (green <3m, amber 3-5m, red >5m) -->
  <!-- ═══════════════════════════════════════════════════════ -->
  <rect x="12" y="538" width="840" height="36" rx="8" fill="url(#cardGrad)" stroke="#1E2235" stroke-width="1" filter="url(#cardShadow)"/>
  <text x="28" y="561" fill="#475569" font-size="9" font-weight="700" letter-spacing="1">TIMING:</text>
  <use href="#adminGear" x="84" y="549" width="14" height="14"/>
  <!-- Green -->
  <rect x="102" y="549" width="10" height="10" rx="5" fill="#22C55E"/>
  <text x="118" y="560" fill="#94A3B8" font-size="11">&lt; 3 min</text>
  <!-- Amber -->
  <rect x="182" y="549" width="10" height="10" rx="5" fill="#F59E0B"/>
  <text x="198" y="560" fill="#94A3B8" font-size="11">3 - 5 min</text>
  <!-- Red -->
  <rect x="272" y="549" width="10" height="10" rx="5" fill="#EF4444"/>
  <text x="288" y="560" fill="#94A3B8" font-size="11">&gt; 5 min (overdue)</text>

  <!-- Auto advance toggle -->
  <!-- Admin: auto_advance_enabled (configurable) -->
  <rect x="460" y="544" width="16" height="16" rx="4" fill="#22C55E" opacity="0.2" stroke="#22C55E" stroke-width="1"/>
  <text x="470" y="555" fill="#22C55E" font-size="10" font-weight="800" text-anchor="middle">&#x2713;</text>
  <text x="484" y="560" fill="#94A3B8" font-size="11">Auto-advance after payment</text>
  <use href="#adminGear" x="650" y="549" width="14" height="14"/>

  <!-- KDS sync status -->
  <rect x="690" y="544" width="8" height="8" rx="4" fill="#22C55E"/>
  <text x="704" y="560" fill="#94A3B8" font-size="11">KDS synced <tspan fill="#22C55E" font-weight="600">live</tspan></text>


  <!-- ═══════════════════════════════════════════════════════ -->
  <!-- KDS INTEGRATION PANEL (bottom section)                 -->
  <!-- ═══════════════════════════════════════════════════════ -->

  <rect x="12" y="584" width="1342" height="44" rx="10" fill="url(#kdsGrad)" stroke="#2A2E45" stroke-width="1" filter="url(#cardShadow)"/>
  <rect x="12" y="584" width="6" height="44" rx="3" fill="#A78BFA"/>
  <text x="32" y="603" fill="#A78BFA" font-size="11" font-weight="700" letter-spacing="0.5">KDS KITCHEN AWARENESS</text>
  <text x="32" y="620" fill="#64748B" font-size="10">Live feed from kitchen display system</text>

  <!-- KDS station 1 -->
  <g>
    <use href="#kdsStatPill" x="280" y="592" width="160" height="28" stroke="#22C55E" fill="#22C55E"/>
    <circle cx="294" cy="606" r="4" fill="#22C55E"/>
    <text x="306" y="610" fill="#22C55E" font-size="10" font-weight="600">Grill: 2 orders</text>
    <text x="430" y="610" fill="#64748B" font-size="10" text-anchor="end">~3 min</text>
  </g>

  <!-- KDS station 2 -->
  <g>
    <use href="#kdsStatPill" x="450" y="592" width="160" height="28" stroke="#22C55E" fill="#22C55E"/>
    <circle cx="464" cy="606" r="4" fill="#22C55E"/>
    <text x="476" y="610" fill="#22C55E" font-size="10" font-weight="600">Fryer: 1 order</text>
    <text x="600" y="610" fill="#64748B" font-size="10" text-anchor="end">~2 min</text>
  </g>

  <!-- KDS station 3 -->
  <g>
    <use href="#kdsStatPill" x="620" y="592" width="160" height="28" stroke="#F59E0B" fill="#F59E0B"/>
    <circle cx="634" cy="606" r="4" fill="#F59E0B"/>
    <text x="646" y="610" fill="#F59E0B" font-size="10" font-weight="600">Drinks: 3 orders</text>
    <text x="770" y="610" fill="#64748B" font-size="10" text-anchor="end">~1 min</text>
  </g>

  <!-- KDS station 4 -->
  <g>
    <use href="#kdsStatPill" x="790" y="592" width="160" height="28" stroke="#22C55E" fill="#22C55E"/>
    <circle cx="804" cy="606" r="4" fill="#22C55E"/>
    <text x="816" y="610" fill="#22C55E" font-size="10" font-weight="600">Assembly: idle</text>
  </g>

  <!-- KDS overall ETA -->
  <rect x="1080" y="592" width="264" height="28" rx="6" fill="#A78BFA" opacity="0.08"/>
  <text x="1100" y="610" fill="#A78BFA" font-size="10" font-weight="700">Next order ready in:</text>
  <text x="1280" y="610" fill="#E2E8F0" font-size="14" font-weight="800" text-anchor="middle">~2:30</text>


  <!-- ═══════════════════════════════════════════════════════ -->
  <!-- LANE TIME ANALYSIS (below KDS)                         -->
  <!-- ═══════════════════════════════════════════════════════ -->

  <rect x="12" y="638" width="440" height="160" rx="10" fill="url(#cardGrad)" stroke="#1E2235" stroke-width="1" filter="url(#cardShadow)"/>
  <text x="28" y="660" fill="#E2E8F0" font-size="12" font-weight="700">Average Lane Times (Today)</text>

  <!-- Order lane bar -->
  <text x="28" y="688" fill="#94A3B8" font-size="11">Order</text>
  <rect x="90" y="676" width="200" height="16" rx="4" fill="#1E2235"/>
  <rect x="90" y="676" width="120" height="16" rx="4" fill="#F59E0B" opacity="0.7"/>
  <text x="220" y="688" fill="#F59E0B" font-size="11" font-weight="700">1:48</text>

  <!-- Pay lane bar -->
  <text x="28" y="716" fill="#94A3B8" font-size="11">Pay</text>
  <rect x="90" y="704" width="200" height="16" rx="4" fill="#1E2235"/>
  <rect x="90" y="704" width="80" height="16" rx="4" fill="#60A5FA" opacity="0.7"/>
  <text x="180" y="716" fill="#60A5FA" font-size="11" font-weight="700">1:12</text>

  <!-- Pickup lane bar -->
  <text x="28" y="744" fill="#94A3B8" font-size="11">Pickup</text>
  <rect x="90" y="732" width="200" height="16" rx="4" fill="#1E2235"/>
  <rect x="90" y="732" width="72" height="16" rx="4" fill="#22C55E" opacity="0.7"/>
  <text x="172" y="744" fill="#22C55E" font-size="11" font-weight="700">1:05</text>

  <!-- Total / target -->
  <rect x="28" y="760" width="404" height="1" fill="#1E2235"/>
  <text x="28" y="784" fill="#64748B" font-size="11">Total avg: <tspan fill="#F59E0B" font-weight="700">4:12</tspan></text>
  <text x="200" y="784" fill="#64748B" font-size="11">Target: <tspan fill="#22C55E" font-weight="700">3:30</tspan></text>
  <rect x="320" y="772" width="112" height="20" rx="10" fill="#EF4444" opacity="0.12"/>
  <text x="376" y="786" fill="#EF4444" font-size="10" font-weight="700" text-anchor="middle">+0:42 over target</text>


  <!-- ═══════════════════════════════════════════════════════ -->
  <!-- RECENT COMPLETED VEHICLES                              -->
  <!-- ═══════════════════════════════════════════════════════ -->

  <rect x="464" y="638" width="468" height="160" rx="10" fill="url(#cardGrad)" stroke="#1E2235" stroke-width="1" filter="url(#cardShadow)"/>
  <text x="480" y="660" fill="#E2E8F0" font-size="12" font-weight="700">Recent Completed</text>

  <!-- Row headers -->
  <text x="480" y="680" fill="#475569" font-size="9" font-weight="600" letter-spacing="0.5">VEHICLE</text>
  <text x="580" y="680" fill="#475569" font-size="9" font-weight="600" letter-spacing="0.5">ORDER</text>
  <text x="680" y="680" fill="#475569" font-size="9" font-weight="600" letter-spacing="0.5">PAY</text>
  <text x="750" y="680" fill="#475569" font-size="9" font-weight="600" letter-spacing="0.5">PICKUP</text>
  <text x="830" y="680" fill="#475569" font-size="9" font-weight="600" letter-spacing="0.5">TOTAL</text>
  <text x="900" y="680" fill="#475569" font-size="9" font-weight="600" letter-spacing="0.5">STATUS</text>

  <!-- Completed row 1 -->
  <text x="480" y="700" fill="#94A3B8" font-size="11">#125</text>
  <text x="580" y="700" fill="#22C55E" font-size="11">1:30</text>
  <text x="680" y="700" fill="#22C55E" font-size="11">0:45</text>
  <text x="750" y="700" fill="#22C55E" font-size="11">0:50</text>
  <text x="830" y="700" fill="#22C55E" font-size="11" font-weight="700">3:05</text>
  <rect x="893" y="690" width="28" height="14" rx="7" fill="#22C55E" opacity="0.15"/>
  <text x="907" y="700" fill="#22C55E" font-size="8" font-weight="700" text-anchor="middle">OK</text>

  <!-- Completed row 2 -->
  <text x="480" y="720" fill="#94A3B8" font-size="11">#124</text>
  <text x="580" y="720" fill="#22C55E" font-size="11">2:10</text>
  <text x="680" y="720" fill="#22C55E" font-size="11">1:00</text>
  <text x="750" y="720" fill="#F59E0B" font-size="11">1:20</text>
  <text x="830" y="720" fill="#F59E0B" font-size="11" font-weight="700">4:30</text>
  <rect x="893" y="710" width="28" height="14" rx="7" fill="#F59E0B" opacity="0.15"/>
  <text x="907" y="720" fill="#F59E0B" font-size="8" font-weight="700" text-anchor="middle">LATE</text>

  <!-- Completed row 3 -->
  <text x="480" y="740" fill="#94A3B8" font-size="11">#123</text>
  <text x="580" y="740" fill="#22C55E" font-size="11">1:45</text>
  <text x="680" y="740" fill="#22C55E" font-size="11">0:55</text>
  <text x="750" y="740" fill="#22C55E" font-size="11">0:40</text>
  <text x="830" y="740" fill="#22C55E" font-size="11" font-weight="700">3:20</text>
  <rect x="893" y="730" width="28" height="14" rx="7" fill="#22C55E" opacity="0.15"/>
  <text x="907" y="740" fill="#22C55E" font-size="8" font-weight="700" text-anchor="middle">OK</text>

  <!-- Completed row 4 -->
  <text x="480" y="760" fill="#94A3B8" font-size="11">#122</text>
  <text x="580" y="760" fill="#F59E0B" font-size="11">2:30</text>
  <text x="680" y="760" fill="#22C55E" font-size="11">1:15</text>
  <text x="750" y="760" fill="#EF4444" font-size="11">2:00</text>
  <text x="830" y="760" fill="#EF4444" font-size="11" font-weight="700">5:45</text>
  <rect x="893" y="750" width="48" height="14" rx="7" fill="#EF4444" opacity="0.15"/>
  <text x="917" y="760" fill="#EF4444" font-size="8" font-weight="700" text-anchor="middle">OVERDUE</text>

  <!-- Completed row 5 -->
  <text x="480" y="780" fill="#94A3B8" font-size="11">#121</text>
  <text x="580" y="780" fill="#22C55E" font-size="11">1:20</text>
  <text x="680" y="780" fill="#22C55E" font-size="11">0:50</text>
  <text x="750" y="780" fill="#22C55E" font-size="11">0:55</text>
  <text x="830" y="780" fill="#22C55E" font-size="11" font-weight="700">3:05</text>
  <rect x="893" y="770" width="28" height="14" rx="7" fill="#22C55E" opacity="0.15"/>
  <text x="907" y="780" fill="#22C55E" font-size="8" font-weight="700" text-anchor="middle">OK</text>


  <!-- ═══════════════════════════════════════════════════════ -->
  <!-- QUICK ACTIONS PANEL                                    -->
  <!-- ═══════════════════════════════════════════════════════ -->

  <rect x="944" y="638" width="410" height="160" rx="10" fill="url(#cardGrad)" stroke="#1E2235" stroke-width="1" filter="url(#cardShadow)"/>
  <text x="960" y="660" fill="#E2E8F0" font-size="12" font-weight="700">Quick Actions</text>

  <!-- Button grid -->
  <rect x="960" y="672" width="184" height="38" rx="8" fill="#2A2E45" stroke="#2A2E45" stroke-width="1"/>
  <text x="1052" y="696" fill="#CBD5E1" font-size="11" font-weight="600" text-anchor="middle">Add Vehicle to Queue</text>

  <rect x="1154" y="672" width="184" height="38" rx="8" fill="#2A2E45" stroke="#2A2E45" stroke-width="1"/>
  <text x="1246" y="696" fill="#CBD5E1" font-size="11" font-weight="600" text-anchor="middle">Remove from Lane</text>

  <rect x="960" y="718" width="184" height="38" rx="8" fill="#2A2E45" stroke="#2A2E45" stroke-width="1"/>
  <text x="1052" y="742" fill="#CBD5E1" font-size="11" font-weight="600" text-anchor="middle">Announce Wait Time</text>

  <rect x="1154" y="718" width="184" height="38" rx="8" fill="#2A2E45" stroke="#2A2E45" stroke-width="1"/>
  <text x="1246" y="742" fill="#CBD5E1" font-size="11" font-weight="600" text-anchor="middle">Switch Lanes</text>

  <rect x="960" y="764" width="378" height="26" rx="6" fill="#A78BFA" opacity="0.08"/>
  <text x="1149" y="781" fill="#A78BFA" font-size="10" font-weight="600" text-anchor="middle">Open Full KDS View</text>


  <!-- ═══════════════════════════════════════════════════════ -->
  <!-- BOTTOM STATUS BAR                                      -->
  <!-- ═══════════════════════════════════════════════════════ -->
  <rect x="0" y="808" width="1366" height="1" fill="#1E2235"/>
  <rect x="0" y="809" width="1366" height="215" fill="url(#bottomBarGrad)"/>

  <!-- Lane performance gauges -->
  <rect x="12" y="818" width="1342" height="80" rx="10" fill="url(#cardGrad)" stroke="#1E2235" stroke-width="1" filter="url(#cardShadow)"/>
  <text x="28" y="840" fill="#E2E8F0" font-size="12" font-weight="700">Lane Performance Gauges</text>

  <!-- Order lane gauge -->
  <text x="60" y="870" fill="#F59E0B" font-size="10" font-weight="600" text-anchor="middle">ORDER</text>
  <rect x="110" y="862" width="300" height="10" rx="5" fill="#1E2235"/>
  <rect x="110" y="862" width="180" height="10" rx="5" fill="#F59E0B" opacity="0.7"/>
  <text x="296" y="874" fill="#F59E0B" font-size="10" font-weight="700">1:48 avg</text>
  <text x="390" y="874" fill="#64748B" font-size="10">3 vehicles</text>

  <!-- Pay lane gauge -->
  <text x="510" y="870" fill="#60A5FA" font-size="10" font-weight="600" text-anchor="middle">PAY</text>
  <rect x="550" y="862" width="300" height="10" rx="5" fill="#1E2235"/>
  <rect x="550" y="862" width="120" height="10" rx="5" fill="#60A5FA" opacity="0.7"/>
  <text x="676" y="874" fill="#60A5FA" font-size="10" font-weight="700">1:12 avg</text>
  <text x="810" y="874" fill="#64748B" font-size="10">2 vehicles</text>

  <!-- Pickup lane gauge -->
  <text x="930" y="870" fill="#22C55E" font-size="10" font-weight="600" text-anchor="middle">PICKUP</text>
  <rect x="980" y="862" width="300" height="10" rx="5" fill="#1E2235"/>
  <rect x="980" y="862" width="105" height="10" rx="5" fill="#22C55E" opacity="0.7"/>
  <text x="1091" y="874" fill="#22C55E" font-size="10" font-weight="700">1:05 avg</text>
  <text x="1240" y="874" fill="#64748B" font-size="10">3 vehicles</text>


  <!-- ═══════════════════════════════════════════════════════ -->
  <!-- BOTTOM STATS ROW                                       -->
  <!-- ═══════════════════════════════════════════════════════ -->

  <!-- Peak hour indicator -->
  <use href="#bottomStatCard" x="12" y="908" width="220" height="50"/>
  <text x="28" y="928" fill="#475569" font-size="9" font-weight="600" letter-spacing="1">PEAK HOUR</text>
  <text x="28" y="948" fill="#F59E0B" font-size="16" font-weight="800">12:00 PM</text>
  <text x="130" y="948" fill="#64748B" font-size="12">34 cars / hr</text>

  <!-- Current hour throughput -->
  <use href="#bottomStatCard" x="244" y="908" width="220" height="50"/>
  <text x="260" y="928" fill="#475569" font-size="9" font-weight="600" letter-spacing="1">CURRENT HOUR</text>
  <text x="260" y="948" fill="#E2E8F0" font-size="16" font-weight="800">22 cars</text>
  <text x="352" y="948" fill="#64748B" font-size="12">12:34 PM</text>

  <!-- Average ticket -->
  <rect x="476" y="908" width="200" height="50" rx="10" fill="url(#cardGrad)" stroke="#1E2235" stroke-width="1" filter="url(#cardShadow)"/>
  <text x="492" y="928" fill="#475569" font-size="9" font-weight="600" letter-spacing="1">AVG TICKET</text>
  <text x="492" y="948" fill="#E2E8F0" font-size="16" font-weight="800">$30.24</text>

  <!-- On-target rate -->
  <rect x="688" y="908" width="200" height="50" rx="10" fill="url(#cardGrad)" stroke="#1E2235" stroke-width="1" filter="url(#cardShadow)"/>
  <text x="704" y="928" fill="#475569" font-size="9" font-weight="600" letter-spacing="1">ON-TARGET RATE</text>
  <text x="704" y="948" fill="#22C55E" font-size="16" font-weight="800">78%</text>
  <text x="748" y="948" fill="#64748B" font-size="12">(99/127)</text>

  <!-- Customer display status -->
  <use href="#bottomStatCard" x="900" y="908" width="220" height="50"/>
  <text x="916" y="928" fill="#475569" font-size="9" font-weight="600" letter-spacing="1">CUSTOMER DISPLAY</text>
  <circle cx="924" cy="946" r="4" fill="#22C55E"/>
  <text x="936" y="950" fill="#22C55E" font-size="12" font-weight="600">HDMI Connected</text>

  <!-- Printer / receipt -->
  <rect x="1132" y="908" width="222" height="50" rx="10" fill="url(#cardGrad)" stroke="#1E2235" stroke-width="1" filter="url(#cardShadow)"/>
  <text x="1148" y="928" fill="#475569" font-size="9" font-weight="600" letter-spacing="1">RECEIPT PRINTER</text>
  <circle cx="1156" cy="946" r="4" fill="#22C55E"/>
  <text x="1168" y="950" fill="#22C55E" font-size="12" font-weight="600">Online</text>
  <text x="1220" y="950" fill="#64748B" font-size="11">| Paper: 82%</text>


  <!-- ═══════════════════════════════════════════════════════ -->
  <!-- BOTTOM EDGE TRIM                                       -->
  <!-- ═══════════════════════════════════════════════════════ -->
  <rect x="0" y="968" width="1366" height="56" fill="#0C0E1A"/>
  <rect x="0" y="968" width="1366" height="1" fill="#1E2235"/>

  <!-- Footer branding -->
  <text x="28" y="1000" fill="#475569" font-size="10">Synalux POS v3.2</text>
  <text x="683" y="1000" fill="#475569" font-size="10" text-anchor="middle">Drive-Thru Lane Management</text>
  <text x="1338" y="1000" fill="#475569" font-size="10" text-anchor="end">iPad Pro 12.9" Landscape</text>

</svg>
