<svg role="img" aria-labelledby="title-ipad_01_register-svg" xmlns="http://www.w3.org/2000/svg" viewBox="0 0 1366 1024" font-family="-apple-system,BlinkMacSystemFont,'SF Pro Display','Segoe UI',sans-serif">
  <title id="title-ipad_01_register-svg">Synalux POS — 01 register</title>
  <desc>Synalux POS mockup screen for 01 register. All UI elements admin-configurable.</desc>
  <defs>
    <!-- ═══ Shared gradients ═══ -->
    <linearGradient id="headerGrad" x1="0" y1="0" x2="0" y2="1">
      <stop offset="0%" stop-color="#1E2235"/><stop offset="100%" stop-color="#181B2E"/>
    </linearGradient>
    <linearGradient id="fireBtnGrad" x1="0" y1="0" x2="0" y2="1">
      <stop offset="0%" stop-color="#34D399"/><stop offset="100%" stop-color="#16A34A"/>
    </linearGradient>
    <linearGradient id="amberBtnGrad" x1="0" y1="0" x2="0" y2="1">
      <stop offset="0%" stop-color="#FBBF24"/><stop offset="100%" stop-color="#F59E0B"/>
    </linearGradient>

    <!-- ═══ Shared filters ═══ -->
    <filter id="cardShadow"><feDropShadow dx="0" dy="2" stdDeviation="4" flood-color="#000" flood-opacity="0.3"/></filter>
    <filter id="glow"><feDropShadow dx="0" dy="0" stdDeviation="3" flood-color="#F59E0B" flood-opacity="0.15"/></filter>

    <!-- ═══ REUSABLE SYMBOLS ═══ -->

    <!-- Product card template: use with x/y transform; overlay text for name/price/emoji -->
    <symbol id="productCard" viewBox="0 0 168 156">
      <rect width="168" height="156" rx="10" fill="#1A1D2E"/>
      <rect width="168" height="90" rx="10" fill="#1A1A24"/>
      <rect y="80" width="168" height="10" fill="#1A1D2E"/>
    </symbol>

    <!-- Selected product card (with amber border) -->
    <symbol id="productCardSelected" viewBox="0 0 168 156">
      <rect width="168" height="156" rx="10" fill="#1A1D2E" filter="url(#cardShadow)"/>
      <rect width="168" height="156" rx="10" fill="none" stroke="#F59E0B" stroke-width="1.5"/>
      <rect width="168" height="90" rx="10" fill="#2A2010"/>
      <rect y="80" width="168" height="10" fill="#1A1D2E"/>
    </symbol>

    <!-- 86'd product card -->
    <symbol id="productCard86" viewBox="0 0 168 156">
      <rect width="168" height="156" rx="10" fill="#13151F" opacity="0.5"/>
      <rect width="168" height="90" rx="10" fill="#13151F" opacity="0.3"/>
      <rect y="80" width="168" height="10" fill="#13151F" opacity="0.3"/>
    </symbol>

    <!-- Category item (inactive) -->
    <symbol id="catItem" viewBox="0 0 174 42">
      <rect width="174" height="42" rx="8" fill="none"/>
    </symbol>

    <!-- Category item (active) -->
    <symbol id="catItemActive" viewBox="0 0 174 42">
      <rect width="174" height="42" rx="8" fill="#F59E0B" filter="url(#glow)"/>
    </symbol>

    <!-- Order line item card -->
    <symbol id="orderLine" viewBox="0 0 444 52">
      <rect width="444" height="52" rx="8" fill="#161930"/>
      <rect x="6" y="8" width="24" height="18" rx="4" fill="#1E2235"/>
    </symbol>

    <!-- Order line item card (with mods, taller) -->
    <symbol id="orderLineTall" viewBox="0 0 444 68">
      <rect width="444" height="68" rx="8" fill="#161930"/>
      <rect x="6" y="8" width="24" height="18" rx="4" fill="#1E2235"/>
    </symbol>

    <!-- Action button -->
    <symbol id="actionBtn" viewBox="0 0 106 38">
      <rect width="106" height="38" rx="7" fill="#1A1D2E" stroke="#2A2E45" stroke-width="1"/>
    </symbol>

    <!-- Payment tile -->
    <symbol id="payTile" viewBox="0 0 106 50">
      <rect width="106" height="50" rx="8" fill="#1A1D2E" stroke="#2A2E45" stroke-width="1"/>
    </symbol>

    <!-- Numpad key -->
    <symbol id="numKey" viewBox="0 0 160 50">
      <rect width="160" height="50" rx="8" fill="#1A1D2E"/>
    </symbol>

    <!-- Open tab card -->
    <symbol id="tabCard" viewBox="0 0 174 44">
      <rect width="174" height="44" rx="8" fill="#161930" stroke="#1E2235" stroke-width="1"/>
    </symbol>

    <!-- Admin-edit pencil icon (shows element is admin-configurable) -->
    <symbol id="editIcon" viewBox="0 0 12 12">
      <path d="M8.5 1.5l2 2L4 10H2V8z" fill="none" stroke="#475569" stroke-width="1" stroke-linecap="round" stroke-linejoin="round"/>
    </symbol>

    <!-- Settings gear icon (links to admin settings) -->
    <symbol id="settingsIcon" viewBox="0 0 14 14">
      <circle cx="7" cy="7" r="2.5" fill="none" stroke="#475569" stroke-width="1"/>
      <path d="M7 1v1.5M7 11.5V13M1 7h1.5M11.5 7H13M2.8 2.8l1 1M10.2 10.2l1 1M2.8 11.2l1-1M10.2 3.8l1-1" stroke="#475569" stroke-width="0.8" stroke-linecap="round"/>
    </symbol>

    <!-- Active order tile -->
    <symbol id="orderTile" viewBox="0 0 104 64">
      <rect width="104" height="64" rx="8"/>
    </symbol>

    <!-- Filter pill (active) -->
    <symbol id="filterActive" viewBox="0 0 64 24">
      <rect width="64" height="24" rx="5" fill="#F59E0B"/>
    </symbol>

    <!-- Filter pill (inactive) -->
    <symbol id="filterInactive" viewBox="0 0 64 24">
      <rect width="64" height="24" rx="5" fill="#1A1D2E"/>
    </symbol>
  </defs>

  <!-- ═══════════════════ BACKGROUND ═══════════════════ -->
  <rect width="1366" height="1024" fill="#0C0E1A"/>

  <!-- ═══════════════════ TOP NAV BAR ═══════════════════ -->
  <rect x="0" y="0" width="1366" height="52" fill="url(#headerGrad)"/>
  <rect x="0" y="52" width="1366" height="1" fill="#2A2E45" opacity="0.7"/>

  <!-- Live status -->
  <circle cx="18" cy="26" r="5" fill="#22C55E"/>
  <circle cx="18" cy="26" r="5" fill="#22C55E" opacity="0.4">
    <animate attributeName="r" values="5;8;5" dur="2s" repeatCount="indefinite"/>
    <animate attributeName="opacity" values="0.4;0;0.4" dur="2s" repeatCount="indefinite"/>
  </circle>
  <text x="30" y="30" fill="#4ADE80" font-size="10" font-weight="700" letter-spacing="0.5">LIVE</text>

  <!-- Brand (admin: Settings > Venue > Branding) -->
  <text x="62" y="31" fill="#F59E0B" font-size="16" font-weight="800" letter-spacing="-0.3">synalux</text>
  <text x="131" y="31" fill="#64748B" font-size="16" font-weight="400">POS</text>

  <!-- Center info (auto: assigned register + logged-in server) -->
  <text x="480" y="21" fill="#64748B" font-size="10" font-weight="500" letter-spacing="0.5">REGISTER 1</text>
  <text x="480" y="38" fill="#E2E8F0" font-size="13" font-weight="600">John S.</text>
  <text x="545" y="38" fill="#475569" font-size="13">·</text>
  <text x="556" y="38" fill="#94A3B8" font-size="13">Table 4</text>
  <text x="607" y="38" fill="#475569" font-size="13">·</text>
  <!-- Order type switcher (admin: Settings > Order Types — 4 configurable types) -->
  <rect x="618" y="25" width="56" height="18" rx="4" fill="#1A2D10" stroke="#22C55E" stroke-width="1"/>
  <text x="646" y="38" fill="#4ADE80" font-size="10" font-weight="600" text-anchor="middle">Dine-In</text>
  <rect x="678" y="25" width="56" height="18" rx="4" fill="#1A1D2E"/>
  <text x="706" y="38" fill="#64748B" font-size="10" text-anchor="middle">Takeout</text>
  <rect x="738" y="25" width="56" height="18" rx="4" fill="#1A1D2E"/>
  <text x="766" y="38" fill="#64748B" font-size="10" text-anchor="middle">Delivery</text>
  <rect x="798" y="25" width="56" height="18" rx="4" fill="#1A1D2E"/>
  <text x="826" y="38" fill="#64748B" font-size="10" text-anchor="middle">Bar Tab</text>

  <!-- Clock -->
  <text x="1240" y="21" fill="#64748B" font-size="10" font-weight="500" letter-spacing="0.5">WEDNESDAY</text>
  <text x="1240" y="38" fill="#E2E8F0" font-size="15" font-weight="700">2:05 PM</text>

  <!-- Nav icons -->
  <rect x="1308" y="14" width="24" height="24" rx="6" fill="#1E2235"/>
  <use href="#settingsIcon" x="1313" y="19" width="14" height="14"/>
  <rect x="1338" y="14" width="24" height="24" rx="6" fill="#1E2235"/>
  <circle cx="1356" cy="20" r="4" fill="#EF4444"/>

  <!-- ═══════════════════ LEFT PANEL — CATEGORIES (190px) ═══════════════════ -->
  <!-- All categories from: Settings > Menu Builder > Categories -->
  <rect x="0" y="53" width="190" height="971" fill="#111425"/>
  <rect x="190" y="53" width="1" height="971" fill="#1E2235"/>

  <!-- Section header with admin link -->
  <text x="16" y="80" fill="#475569" font-size="9" font-weight="700" letter-spacing="1.5">MENU</text>
  <use href="#editIcon" x="50" y="71" width="12" height="12" opacity="0.5"/>

  <!-- Categories (from DB: pos_categories, ordered by sort_order) -->
  <use href="#catItemActive" x="8" y="92" width="174" height="42"/>
  <text x="48" y="118" fill="#0C0E1A" font-size="13" font-weight="700">Burgers</text>
  <rect x="152" y="103" width="22" height="16" rx="4" fill="#0C0E1A" opacity="0.2"/>
  <text x="163" y="114" fill="#0C0E1A" font-size="9" font-weight="700" text-anchor="middle">12</text>

  <use href="#catItem" x="8" y="140" width="174" height="42"/>
  <text x="48" y="166" fill="#94A3B8" font-size="13" font-weight="500">Sides</text>

  <use href="#catItem" x="8" y="186" width="174" height="42"/>
  <text x="48" y="212" fill="#94A3B8" font-size="13" font-weight="500">Drinks</text>

  <use href="#catItem" x="8" y="232" width="174" height="42"/>
  <text x="48" y="258" fill="#94A3B8" font-size="13" font-weight="500">Desserts</text>

  <use href="#catItem" x="8" y="278" width="174" height="42"/>
  <text x="48" y="304" fill="#94A3B8" font-size="13" font-weight="500">Specials</text>

  <use href="#catItem" x="8" y="324" width="174" height="42"/>
  <text x="48" y="350" fill="#94A3B8" font-size="13" font-weight="500">Combos</text>

  <use href="#catItem" x="8" y="370" width="174" height="42"/>
  <text x="48" y="396" fill="#94A3B8" font-size="13" font-weight="500">Alcohol</text>
  <!-- Age-gate badge (admin: Settings > Compliance > Age Verification) -->
  <rect x="150" y="383" width="8" height="8" rx="4" fill="#F59E0B"/>

  <use href="#catItem" x="8" y="416" width="174" height="42"/>
  <text x="48" y="442" fill="#94A3B8" font-size="13" font-weight="500">Kids</text>

  <use href="#catItem" x="8" y="462" width="174" height="42"/>
  <text x="48" y="488" fill="#94A3B8" font-size="13" font-weight="500">Mexican</text>

  <!-- Divider -->
  <rect x="20" y="518" width="150" height="1" fill="#1E2235"/>

  <!-- Search -->
  <rect x="8" y="530" width="174" height="38" rx="8" fill="#161930" stroke="#1E2235" stroke-width="1"/>
  <text x="42" y="553" fill="#475569" font-size="12">Search menu...</text>

  <rect x="20" y="582" width="150" height="1" fill="#1E2235"/>

  <!-- Open tabs (from DB: pos_orders WHERE status='open') -->
  <text x="16" y="608" fill="#475569" font-size="9" font-weight="700" letter-spacing="1.5">OPEN TABS</text>

  <use href="#tabCard" x="8" y="618" width="174" height="44"/>
  <circle cx="22" cy="640" r="3" fill="#22C55E"/>
  <text x="32" y="636" fill="#CBD5E1" font-size="12" font-weight="500">Maria R.</text>
  <text x="32" y="652" fill="#475569" font-size="10">T6 · 12m ago</text>
  <text x="172" y="644" fill="#F59E0B" font-size="13" font-weight="700" text-anchor="end">$34</text>

  <use href="#tabCard" x="8" y="668" width="174" height="44"/>
  <circle cx="22" cy="690" r="3" fill="#F59E0B"/>
  <text x="32" y="686" fill="#CBD5E1" font-size="12" font-weight="500">Bar #7</text>
  <text x="32" y="702" fill="#475569" font-size="10">Bar · 28m ago</text>
  <text x="172" y="694" fill="#F59E0B" font-size="13" font-weight="700" text-anchor="end">$18</text>

  <use href="#tabCard" x="8" y="718" width="174" height="44"/>
  <circle cx="22" cy="740" r="3" fill="#60A5FA"/>
  <text x="32" y="736" fill="#CBD5E1" font-size="12" font-weight="500">Takeout #12</text>
  <text x="32" y="752" fill="#475569" font-size="10">Pickup · 5m</text>
  <text x="172" y="744" fill="#F59E0B" font-size="13" font-weight="700" text-anchor="end">$52</text>

  <!-- + New Tab -->
  <rect x="8" y="784" width="174" height="42" rx="8" fill="#0F2A4A" stroke="#1E3A5F" stroke-width="1"/>
  <text x="95" y="810" fill="#60A5FA" font-size="13" font-weight="600" text-anchor="middle">+ New Tab</text>

  <!-- Bottom nav (admin: Settings > Revenue Centers — tabs configurable) -->
  <rect x="0" y="960" width="190" height="64" fill="#0C0E1A"/>
  <rect x="0" y="960" width="190" height="1" fill="#1E2235"/>
  <rect x="14" y="972" width="50" height="40" rx="8" fill="#1A1D2E"/>
  <text x="39" y="998" fill="#F59E0B" font-size="11" font-weight="600" text-anchor="middle">Register</text>
  <text x="95" y="998" fill="#475569" font-size="11" text-anchor="middle">Tables</text>
  <text x="151" y="998" fill="#475569" font-size="11" text-anchor="middle">KDS</text>

  <!-- ═══════════════════ CENTER — PRODUCT GRID ═══════════════════ -->
  <!-- Items from DB: pos_menu_items WHERE category_id = :selected, ordered by sort_order -->
  <rect x="191" y="53" width="710" height="711" fill="#0C0E1A"/>
  <rect x="900" y="53" width="1" height="971" fill="#1E2235"/>

  <!-- Filter bar (admin: Settings > Menu Builder > Filter Tabs) -->
  <rect x="199" y="60" width="694" height="34" rx="6" fill="#151830"/>
  <use href="#filterActive" x="206" y="65" width="44" height="24"/>
  <text x="228" y="81" fill="#0C0E1A" font-size="11" font-weight="700" text-anchor="middle">All</text>
  <text x="276" y="81" fill="#64748B" font-size="11">Popular</text>
  <text x="338" y="81" fill="#64748B" font-size="11">Available</text>
  <text x="416" y="81" fill="#EF4444" font-size="11">86'd (1)</text>
  <use href="#editIcon" x="462" y="75" width="10" height="10" opacity="0.4"/>

  <!-- Grid/List toggle -->
  <rect x="830" y="65" width="24" height="24" rx="5" fill="#1E2235"/>
  <text x="842" y="82" fill="#F59E0B" font-size="14" text-anchor="middle">&#8862;</text>
  <text x="870" y="82" fill="#475569" font-size="14" text-anchor="middle">&#9776;</text>

  <!-- Product cards — each from DB row: name, price, emoji, category_id, available, sort_order -->
  <!-- Row 1 -->
  <use href="#productCardSelected" x="199" y="102" width="168" height="156"/>
  <text x="283" y="160" font-size="40" text-anchor="middle">&#127828;</text>
  <text x="283" y="216" fill="#E2E8F0" font-size="12" font-weight="600" text-anchor="middle">Classic Burger</text>
  <text x="283" y="234" fill="#F59E0B" font-size="13" font-weight="700" text-anchor="middle">$12.00</text>
  <rect x="211" y="246" width="144" height="3" rx="1.5" fill="#1E2235"/>
  <rect x="211" y="246" width="120" height="3" rx="1.5" fill="#22C55E"/>

  <use href="#productCard" x="375" y="102" width="168" height="156"/>
  <text x="459" y="160" font-size="40" text-anchor="middle">&#127839;</text>
  <text x="459" y="216" fill="#E2E8F0" font-size="12" font-weight="600" text-anchor="middle">Large Fries</text>
  <text x="459" y="234" fill="#F59E0B" font-size="13" font-weight="700" text-anchor="middle">$4.50</text>

  <use href="#productCard" x="551" y="102" width="168" height="156"/>
  <text x="635" y="160" font-size="40" text-anchor="middle">&#127790;</text>
  <text x="635" y="216" fill="#E2E8F0" font-size="12" font-weight="600" text-anchor="middle">Fish Taco</text>
  <text x="635" y="234" fill="#F59E0B" font-size="13" font-weight="700" text-anchor="middle">$9.00</text>

  <use href="#productCard" x="727" y="102" width="168" height="156"/>
  <text x="811" y="160" font-size="40" text-anchor="middle">&#129367;</text>
  <text x="811" y="216" fill="#E2E8F0" font-size="12" font-weight="600" text-anchor="middle">Caesar Salad</text>
  <text x="811" y="234" fill="#F59E0B" font-size="13" font-weight="700" text-anchor="middle">$8.00</text>

  <!-- Row 2 -->
  <use href="#productCard" x="199" y="266" width="168" height="156"/>
  <text x="283" y="324" font-size="40" text-anchor="middle">&#129380;</text>
  <text x="283" y="380" fill="#E2E8F0" font-size="12" font-weight="600" text-anchor="middle">Soft Drink</text>
  <text x="283" y="398" fill="#F59E0B" font-size="13" font-weight="700" text-anchor="middle">$3.00</text>

  <use href="#productCard" x="375" y="266" width="168" height="156"/>
  <text x="459" y="324" font-size="40" text-anchor="middle">&#127866;</text>
  <text x="459" y="380" fill="#E2E8F0" font-size="12" font-weight="600" text-anchor="middle">Draft Beer</text>
  <text x="459" y="398" fill="#F59E0B" font-size="13" font-weight="700" text-anchor="middle">$6.00</text>
  <!-- Age verification badge (admin: per-item flag + Settings > Compliance) -->
  <rect x="517" y="268" width="24" height="14" rx="3" fill="#F59E0B"/>
  <text x="529" y="279" fill="#0C0E1A" font-size="8" font-weight="800" text-anchor="middle">21+</text>

  <use href="#productCard" x="551" y="266" width="168" height="156"/>
  <text x="635" y="324" font-size="40" text-anchor="middle">&#9749;</text>
  <text x="635" y="380" fill="#E2E8F0" font-size="12" font-weight="600" text-anchor="middle">Coffee</text>
  <text x="635" y="398" fill="#F59E0B" font-size="13" font-weight="700" text-anchor="middle">$3.50</text>

  <!-- 86'd item (admin: toggle via Menu Builder or KDS 86 button) -->
  <use href="#productCard86" x="727" y="266" width="168" height="156"/>
  <text x="811" y="324" font-size="40" text-anchor="middle" opacity="0.3">&#127856;</text>
  <text x="811" y="380" fill="#475569" font-size="12" font-weight="600" text-anchor="middle">Cheesecake</text>
  <rect x="785" y="388" width="52" height="16" rx="4" fill="#7F1D1D"/>
  <text x="811" y="400" fill="#FCA5A5" font-size="9" font-weight="700" text-anchor="middle">86'd</text>

  <!-- Row 3 -->
  <use href="#productCard" x="199" y="430" width="168" height="156"/>
  <text x="283" y="488" font-size="40" text-anchor="middle">&#129385;</text>
  <text x="283" y="544" fill="#E2E8F0" font-size="12" font-weight="600" text-anchor="middle">BBQ Ribs</text>
  <text x="283" y="562" fill="#F59E0B" font-size="13" font-weight="700" text-anchor="middle">$24.00</text>

  <use href="#productCard" x="375" y="430" width="168" height="156"/>
  <text x="459" y="488" font-size="40" text-anchor="middle">&#128031;</text>
  <text x="459" y="544" fill="#E2E8F0" font-size="12" font-weight="600" text-anchor="middle">Fish &amp; Chips</text>
  <text x="459" y="562" fill="#F59E0B" font-size="13" font-weight="700" text-anchor="middle">$16.00</text>

  <use href="#productCard" x="551" y="430" width="168" height="156"/>
  <text x="635" y="488" font-size="40" text-anchor="middle">&#129361;</text>
  <text x="635" y="544" fill="#E2E8F0" font-size="12" font-weight="600" text-anchor="middle">Avo Toast</text>
  <text x="635" y="562" fill="#F59E0B" font-size="13" font-weight="700" text-anchor="middle">$11.00</text>

  <use href="#productCard" x="727" y="430" width="168" height="156"/>
  <text x="811" y="488" font-size="40" text-anchor="middle">&#129744;</text>
  <text x="811" y="544" fill="#E2E8F0" font-size="12" font-weight="600" text-anchor="middle">Berry Smoothie</text>
  <text x="811" y="562" fill="#F59E0B" font-size="13" font-weight="700" text-anchor="middle">$6.50</text>

  <!-- Row 4 -->
  <use href="#productCard" x="199" y="594" width="168" height="156"/>
  <text x="283" y="652" font-size="40" text-anchor="middle">&#129472;</text>
  <text x="283" y="708" fill="#E2E8F0" font-size="12" font-weight="600" text-anchor="middle">Cheese Sticks</text>
  <text x="283" y="726" fill="#F59E0B" font-size="13" font-weight="700" text-anchor="middle">$8.50</text>

  <use href="#productCard" x="375" y="594" width="168" height="156"/>
  <text x="459" y="652" font-size="40" text-anchor="middle">&#127790;</text>
  <text x="459" y="708" fill="#E2E8F0" font-size="12" font-weight="600" text-anchor="middle">Quesadilla</text>
  <text x="459" y="726" fill="#F59E0B" font-size="13" font-weight="700" text-anchor="middle">$10.00</text>

  <use href="#productCard" x="551" y="594" width="168" height="156"/>
  <text x="635" y="652" font-size="40" text-anchor="middle">&#127836;</text>
  <text x="635" y="708" fill="#E2E8F0" font-size="12" font-weight="600" text-anchor="middle">Ramen</text>
  <text x="635" y="726" fill="#F59E0B" font-size="13" font-weight="700" text-anchor="middle">$14.00</text>

  <use href="#productCard" x="727" y="594" width="168" height="156"/>
  <text x="811" y="652" font-size="40" text-anchor="middle">&#129382;</text>
  <text x="811" y="708" fill="#E2E8F0" font-size="12" font-weight="600" text-anchor="middle">Veggie Plate</text>
  <text x="811" y="726" fill="#F59E0B" font-size="13" font-weight="700" text-anchor="middle">$9.50</text>

  <!-- ═══ Numpad & Quick Actions ═══ -->
  <rect x="191" y="764" width="710" height="260" fill="#111425"/>
  <rect x="191" y="764" width="710" height="1" fill="#1E2235"/>

  <!-- Qty selector -->
  <text x="210" y="790" fill="#475569" font-size="9" font-weight="700" letter-spacing="1.5">QTY</text>
  <rect x="240" y="776" width="32" height="24" rx="5" fill="#1E2235"/>
  <text x="256" y="793" fill="#94A3B8" font-size="14" text-anchor="middle">-</text>
  <rect x="278" y="774" width="48" height="28" rx="6" fill="#1A1D2E" stroke="#2A2E45" stroke-width="1"/>
  <text x="302" y="793" fill="#E2E8F0" font-size="15" font-weight="700" text-anchor="middle">1</text>
  <rect x="332" y="776" width="32" height="24" rx="5" fill="#1E2235"/>
  <text x="348" y="793" fill="#94A3B8" font-size="14" text-anchor="middle">+</text>

  <!-- Quick-action buttons (admin: Settings > Register > Quick Actions) -->
  <rect x="386" y="774" width="100" height="28" rx="6" fill="#1E2235"/>
  <text x="436" y="793" fill="#64748B" font-size="11" font-weight="500" text-anchor="middle">Scan</text>
  <rect x="494" y="774" width="100" height="28" rx="6" fill="#1E2235"/>
  <text x="544" y="793" fill="#64748B" font-size="11" font-weight="500" text-anchor="middle">$ Open Price</text>
  <rect x="602" y="774" width="100" height="28" rx="6" fill="#1E2235"/>
  <text x="652" y="793" fill="#64748B" font-size="11" font-weight="500" text-anchor="middle">Weight</text>
  <use href="#editIcon" x="878" y="778" width="10" height="10" opacity="0.3"/>

  <!-- Numpad (reusable symbol instances) -->
  <use href="#numKey" x="199" y="812" width="160" height="50"/>
  <text x="279" y="843" fill="#E2E8F0" font-size="20" font-weight="500" text-anchor="middle">1</text>
  <use href="#numKey" x="367" y="812" width="160" height="50"/>
  <text x="447" y="843" fill="#E2E8F0" font-size="20" font-weight="500" text-anchor="middle">2</text>
  <use href="#numKey" x="535" y="812" width="160" height="50"/>
  <text x="615" y="843" fill="#E2E8F0" font-size="20" font-weight="500" text-anchor="middle">3</text>
  <rect x="703" y="812" width="190" height="50" rx="8" fill="#7F1D1D"/>
  <text x="798" y="843" fill="#FCA5A5" font-size="20" font-weight="700" text-anchor="middle">&#9003;</text>

  <use href="#numKey" x="199" y="870" width="160" height="50"/>
  <text x="279" y="901" fill="#E2E8F0" font-size="20" font-weight="500" text-anchor="middle">4</text>
  <use href="#numKey" x="367" y="870" width="160" height="50"/>
  <text x="447" y="901" fill="#E2E8F0" font-size="20" font-weight="500" text-anchor="middle">5</text>
  <use href="#numKey" x="535" y="870" width="160" height="50"/>
  <text x="615" y="901" fill="#E2E8F0" font-size="20" font-weight="500" text-anchor="middle">6</text>
  <use href="#numKey" x="703" y="870" width="190" height="50"/>
  <text x="798" y="901" fill="#64748B" font-size="12" text-anchor="middle">Clear</text>

  <use href="#numKey" x="199" y="928" width="160" height="50"/>
  <text x="279" y="959" fill="#E2E8F0" font-size="20" font-weight="500" text-anchor="middle">7</text>
  <use href="#numKey" x="367" y="928" width="160" height="50"/>
  <text x="447" y="959" fill="#E2E8F0" font-size="20" font-weight="500" text-anchor="middle">8</text>
  <use href="#numKey" x="535" y="928" width="160" height="50"/>
  <text x="615" y="959" fill="#E2E8F0" font-size="20" font-weight="500" text-anchor="middle">9</text>
  <rect x="703" y="928" width="190" height="50" rx="8" fill="url(#amberBtnGrad)"/>
  <text x="798" y="959" fill="#0C0E1A" font-size="14" font-weight="700" text-anchor="middle">Add to Order</text>

  <use href="#numKey" x="199" y="986" width="328" height="28"/>
  <text x="363" y="1005" fill="#E2E8F0" font-size="16" font-weight="500" text-anchor="middle">0</text>
  <use href="#numKey" x="535" y="986" width="160" height="28"/>
  <text x="615" y="1005" fill="#E2E8F0" font-size="16" font-weight="500" text-anchor="middle">.</text>

  <!-- ═══════════════════ RIGHT PANEL — ORDER TICKET ═══════════════════ -->
  <rect x="901" y="53" width="465" height="971" fill="#111425"/>

  <!-- Order header -->
  <rect x="912" y="62" width="146" height="28" rx="6" fill="#0F2A4A"/>
  <text x="918" y="80" fill="#60A5FA" font-size="11" font-weight="600">Table 4 · Dine-In · 2</text>

  <!-- Seat badges (from order: seat assignments) -->
  <rect x="1066" y="62" width="58" height="28" rx="6" fill="#1A2D10"/>
  <text x="1095" y="80" fill="#4ADE80" font-size="10" font-weight="600" text-anchor="middle">Seat 1</text>
  <rect x="1130" y="62" width="58" height="28" rx="6" fill="#2D1A10"/>
  <text x="1159" y="80" fill="#F59E0B" font-size="10" font-weight="600" text-anchor="middle">Seat 2</text>
  <rect x="1194" y="62" width="58" height="28" rx="6" fill="#1A1D2E" stroke="#2A2E45" stroke-width="1"/>
  <text x="1223" y="80" fill="#64748B" font-size="10" font-weight="600" text-anchor="middle">+ Seat</text>

  <!-- Course fire (admin: Settings > Kitchen > Course Firing enabled/disabled) -->
  <rect x="1260" y="62" width="92" height="28" rx="6" fill="#1A1D2E" stroke="#2A2E45" stroke-width="1"/>
  <text x="1306" y="80" fill="#94A3B8" font-size="10" font-weight="500" text-anchor="middle">Course Fire</text>

  <rect x="912" y="98" width="444" height="1" fill="#1E2235"/>

  <!-- Seat 1 label -->
  <text x="918" y="116" fill="#4ADE80" font-size="9" font-weight="700" letter-spacing="1">SEAT 1</text>
  <rect x="958" y="108" width="398" height="1" fill="#1E2235" opacity="0.5"/>

  <!-- Order items (from DB: pos_order_items joined to pos_menu_items) -->
  <!-- Item 1 -->
  <use href="#orderLineTall" x="912" y="124" width="444" height="68"/>
  <text x="930" y="146" fill="#94A3B8" font-size="10" font-weight="600" text-anchor="middle">1x</text>
  <text x="950" y="146" fill="#E2E8F0" font-size="13" font-weight="600">Classic Burger</text>
  <text x="1348" y="146" fill="#F59E0B" font-size="13" font-weight="700" text-anchor="end">$12.00</text>
  <!-- Modifiers (from DB: pos_modifier_groups + pos_modifiers, admin-configured) -->
  <text x="950" y="164" fill="#64748B" font-size="10">No onions · Gluten-free bun (+$1.50)</text>
  <!-- KDS routing (admin: Settings > Printers &amp; KDS > Routing Rules) -->
  <text x="950" y="180" fill="#22C55E" font-size="9" font-weight="500">&#8594; Grill</text>
  <text x="1300" y="180" fill="#3B82F6" font-size="10" text-anchor="end">Edit</text>
  <text x="1348" y="180" fill="#EF4444" font-size="10" text-anchor="end">Void</text>

  <!-- Item 2 -->
  <use href="#orderLine" x="912" y="198" width="444" height="52"/>
  <text x="930" y="220" fill="#94A3B8" font-size="10" font-weight="600" text-anchor="middle">1x</text>
  <text x="950" y="220" fill="#E2E8F0" font-size="13" font-weight="600">Large Fries</text>
  <text x="1348" y="220" fill="#F59E0B" font-size="13" font-weight="700" text-anchor="end">$4.50</text>
  <text x="950" y="238" fill="#22C55E" font-size="9" font-weight="500">&#8594; Fry</text>
  <text x="1300" y="238" fill="#3B82F6" font-size="10" text-anchor="end">Edit</text>
  <text x="1348" y="238" fill="#EF4444" font-size="10" text-anchor="end">Void</text>

  <!-- Item 3 -->
  <use href="#orderLine" x="912" y="256" width="444" height="52"/>
  <text x="930" y="278" fill="#94A3B8" font-size="10" font-weight="600" text-anchor="middle">1x</text>
  <text x="950" y="278" fill="#E2E8F0" font-size="13" font-weight="600">Soft Drink</text>
  <text x="1020" y="278" fill="#64748B" font-size="11">— Pepsi</text>
  <text x="1348" y="278" fill="#F59E0B" font-size="13" font-weight="700" text-anchor="end">$3.00</text>
  <text x="950" y="296" fill="#22C55E" font-size="9" font-weight="500">&#8594; Bar</text>
  <text x="1300" y="296" fill="#3B82F6" font-size="10" text-anchor="end">Edit</text>
  <text x="1348" y="296" fill="#EF4444" font-size="10" text-anchor="end">Void</text>

  <!-- Seat 2 -->
  <text x="918" y="326" fill="#F59E0B" font-size="9" font-weight="700" letter-spacing="1">SEAT 2</text>
  <rect x="958" y="320" width="398" height="1" fill="#1E2235" opacity="0.5"/>

  <!-- Item 4 -->
  <use href="#orderLine" x="912" y="336" width="444" height="52"/>
  <text x="930" y="358" fill="#94A3B8" font-size="10" font-weight="600" text-anchor="middle">1x</text>
  <text x="950" y="358" fill="#E2E8F0" font-size="13" font-weight="600">Caesar Salad</text>
  <text x="1348" y="358" fill="#F59E0B" font-size="13" font-weight="700" text-anchor="end">$8.00</text>
  <text x="950" y="376" fill="#22C55E" font-size="9">&#8594; Cold</text>
  <text x="1300" y="376" fill="#3B82F6" font-size="10" text-anchor="end">Edit</text>
  <text x="1348" y="376" fill="#EF4444" font-size="10" text-anchor="end">Void</text>

  <!-- Item 5 -->
  <use href="#orderLine" x="912" y="394" width="444" height="52"/>
  <text x="930" y="416" fill="#94A3B8" font-size="10" font-weight="600" text-anchor="middle">1x</text>
  <text x="950" y="416" fill="#E2E8F0" font-size="13" font-weight="600">Draft Beer</text>
  <text x="1348" y="416" fill="#F59E0B" font-size="13" font-weight="700" text-anchor="end">$6.00</text>
  <text x="950" y="434" fill="#F59E0B" font-size="9">Age verified</text>
  <text x="1300" y="434" fill="#3B82F6" font-size="10" text-anchor="end">Edit</text>
  <text x="1348" y="434" fill="#EF4444" font-size="10" text-anchor="end">Void</text>

  <!-- Order note -->
  <rect x="912" y="456" width="444" height="32" rx="6" fill="#161930" stroke="#1E2235" stroke-width="1"/>
  <text x="930" y="476" fill="#475569" font-size="11">Add order note...</text>

  <!-- ═══ Totals ═══ -->
  <rect x="912" y="498" width="444" height="1" fill="#1E2235"/>

  <text x="918" y="522" fill="#94A3B8" font-size="12">Subtotal</text>
  <text x="1348" y="522" fill="#CBD5E1" font-size="12" text-anchor="end">$33.50</text>

  <!-- Discount (admin: Settings > Discounts — name, %, RBAC-gated) -->
  <rect x="918" y="530" width="430" height="22" rx="4" fill="#0A2010"/>
  <text x="924" y="546" fill="#4ADE80" font-size="11">Staff Discount (10%)</text>
  <text x="1342" y="546" fill="#4ADE80" font-size="11" font-weight="600" text-anchor="end">-$3.35</text>
  <use href="#editIcon" x="1060" y="537" width="10" height="10" opacity="0.3"/>

  <!-- Tax (admin: Settings > Taxes — rate, name, per-item or per-order) -->
  <text x="918" y="572" fill="#94A3B8" font-size="12">Tax (8.5%)</text>
  <!-- Tax-exempt toggle (admin: Settings > Tax Exempt — per-order toggle) -->
  <rect x="990" y="562" width="48" height="16" rx="8" fill="#1E2235" stroke="#2A2E45" stroke-width="0.5"/>
  <circle cx="1012" cy="570" r="5" fill="#475569"/>
  <text x="1044" y="572" fill="#475569" font-size="8">Exempt</text>
  <text x="1348" y="572" fill="#CBD5E1" font-size="12" text-anchor="end">$2.56</text>
  <use href="#editIcon" x="1100" y="563" width="10" height="10" opacity="0.3"/>

  <rect x="912" y="584" width="444" height="1" fill="#2A2E45"/>

  <!-- Total -->
  <text x="918" y="606" fill="#E2E8F0" font-size="16" font-weight="700">Total</text>
  <text x="1348" y="608" fill="#F59E0B" font-size="22" font-weight="800" text-anchor="end">$32.71</text>

  <!-- ═══ Action Buttons (admin: Settings > Register > Action Buttons) ═══ -->
  <use href="#actionBtn" x="912" y="626" width="106" height="38"/>
  <text x="965" y="650" fill="#94A3B8" font-size="11" text-anchor="middle">Split</text>
  <use href="#actionBtn" x="1024" y="626" width="106" height="38"/>
  <text x="1077" y="650" fill="#94A3B8" font-size="11" text-anchor="middle">Transfer</text>
  <use href="#actionBtn" x="1136" y="626" width="106" height="38"/>
  <text x="1189" y="650" fill="#94A3B8" font-size="11" text-anchor="middle">Discount</text>
  <use href="#actionBtn" x="1248" y="626" width="108" height="38"/>
  <text x="1302" y="650" fill="#94A3B8" font-size="11" text-anchor="middle">Hold</text>

  <rect x="912" y="672" width="218" height="38" rx="7" fill="#1A1D2E" stroke="#2A2E45" stroke-width="1"/>
  <text x="1021" y="696" fill="#94A3B8" font-size="11" text-anchor="middle">Send to Kitchen</text>
  <rect x="1136" y="672" width="220" height="38" rx="7" fill="#1A1D2E" stroke="#2A2E45" stroke-width="1"/>
  <text x="1246" y="696" fill="#94A3B8" font-size="11" text-anchor="middle">Print Check</text>

  <!-- Fire & Charge -->
  <rect x="912" y="720" width="444" height="52" rx="10" fill="url(#fireBtnGrad)"/>
  <text x="1134" y="752" fill="white" font-size="16" font-weight="700" text-anchor="middle">Fire &amp; Charge — $32.71</text>

  <!-- ═══ Quick Charge (admin: Settings > Payments — enabled methods) ═══ -->
  <rect x="912" y="784" width="444" height="1" fill="#1E2235"/>
  <text x="918" y="806" fill="#475569" font-size="9" font-weight="700" letter-spacing="1.5">QUICK CHARGE</text>
  <use href="#editIcon" x="1000" y="797" width="10" height="10" opacity="0.3"/>

  <!-- Payment tiles (admin: Settings > Payments — each method toggled on/off) -->
  <use href="#payTile" x="912" y="814" width="106" height="50"/>
  <text x="965" y="836" fill="#F59E0B" font-size="16" text-anchor="middle">&#128179;</text>
  <text x="965" y="854" fill="#94A3B8" font-size="10" text-anchor="middle">Card</text>

  <use href="#payTile" x="1024" y="814" width="106" height="50"/>
  <text x="1077" y="836" fill="#4ADE80" font-size="16" text-anchor="middle">&#128181;</text>
  <text x="1077" y="854" fill="#94A3B8" font-size="10" text-anchor="middle">Cash</text>

  <use href="#payTile" x="1136" y="814" width="106" height="50"/>
  <text x="1189" y="836" fill="#60A5FA" font-size="16" text-anchor="middle">&#128241;</text>
  <text x="1189" y="854" fill="#94A3B8" font-size="10" text-anchor="middle">Mobile</text>

  <use href="#payTile" x="1248" y="814" width="108" height="50"/>
  <text x="1302" y="836" fill="#A78BFA" font-size="16" text-anchor="middle">&#127873;</text>
  <text x="1302" y="854" fill="#94A3B8" font-size="10" text-anchor="middle">Gift Card</text>

  <!-- ═══ Active Orders (from DB: live query pos_orders) ═══ -->
  <rect x="901" y="878" width="465" height="146" fill="#0C0E1A"/>
  <rect x="901" y="878" width="465" height="1" fill="#1E2235"/>
  <text x="918" y="900" fill="#475569" font-size="9" font-weight="700" letter-spacing="1.5">ACTIVE ORDERS</text>
  <text x="1340" y="900" fill="#64748B" font-size="9" text-anchor="end">4 open · $157.21</text>

  <!-- Tiles (each from a live order row) -->
  <rect x="912" y="910" width="104" height="64" rx="8" fill="#1A2D10" stroke="#22C55E" stroke-width="1"/>
  <text x="964" y="928" fill="#4ADE80" font-size="10" font-weight="700" text-anchor="middle">T4</text>
  <text x="964" y="944" fill="#94A3B8" font-size="9" text-anchor="middle">2 guests</text>
  <text x="964" y="960" fill="#F59E0B" font-size="12" font-weight="700" text-anchor="middle">$32.71</text>

  <rect x="1022" y="910" width="104" height="64" rx="8" fill="#2D1A10"/>
  <text x="1074" y="928" fill="#F59E0B" font-size="10" font-weight="700" text-anchor="middle">T7</text>
  <text x="1074" y="944" fill="#94A3B8" font-size="9" text-anchor="middle">4 guests</text>
  <text x="1074" y="960" fill="#F59E0B" font-size="12" font-weight="700" text-anchor="middle">$54.00</text>

  <rect x="1132" y="910" width="104" height="64" rx="8" fill="#1A1D2E"/>
  <text x="1184" y="928" fill="#94A3B8" font-size="10" font-weight="700" text-anchor="middle">Bar</text>
  <text x="1184" y="944" fill="#64748B" font-size="9" text-anchor="middle">Tab</text>
  <text x="1184" y="960" fill="#F59E0B" font-size="12" font-weight="700" text-anchor="middle">$18.50</text>

  <rect x="1242" y="910" width="104" height="64" rx="8" fill="#102A2A"/>
  <text x="1294" y="928" fill="#22D3EE" font-size="10" font-weight="700" text-anchor="middle">TO#12</text>
  <text x="1294" y="944" fill="#64748B" font-size="9" text-anchor="middle">Pickup 5m</text>
  <text x="1294" y="960" fill="#F59E0B" font-size="12" font-weight="700" text-anchor="middle">$52.00</text>

  <!-- Bottom stats (from DB: aggregated session data) -->
  <rect x="912" y="984" width="444" height="30" rx="6" fill="#161930"/>
  <text x="924" y="1004" fill="#475569" font-size="9">Today</text>
  <text x="960" y="1004" fill="#94A3B8" font-size="10" font-weight="600">$1,847</text>
  <text x="1020" y="1004" fill="#475569" font-size="9">|</text>
  <text x="1034" y="1004" fill="#475569" font-size="9">Checks</text>
  <text x="1074" y="1004" fill="#94A3B8" font-size="10" font-weight="600">28</text>
  <text x="1100" y="1004" fill="#475569" font-size="9">|</text>
  <text x="1114" y="1004" fill="#475569" font-size="9">Avg</text>
  <text x="1140" y="1004" fill="#94A3B8" font-size="10" font-weight="600">$65.96</text>
  <text x="1200" y="1004" fill="#475569" font-size="9">|</text>
  <text x="1214" y="1004" fill="#475569" font-size="9">Tips</text>
  <text x="1240" y="1004" fill="#4ADE80" font-size="10" font-weight="600">$312</text>
</svg>