<svg role="img" aria-labelledby="title-ipad_allergen_filter-svg" xmlns="http://www.w3.org/2000/svg" viewBox="0 0 1366 1024" font-family="system-ui,-apple-system,BlinkMacSystemFont,sans-serif">
  <title>Synalux POS — Allergen Filter</title>
  <desc>Synalux POS allergen filter screen. All UI elements admin-configurable.</desc>

  <!-- ═══════════════════════════════════════════════════════════ -->
  <!-- BACKGROUND — dark iPad frame                               -->
  <!-- ═══════════════════════════════════════════════════════════ -->
  <rect width="1366" height="1024" fill="#0C0E1A"/>

  <!-- ═══════════════════════════════════════════════════════════ -->
  <!-- DIVIDER LINES between panels                               -->
  <!-- ═══════════════════════════════════════════════════════════ -->
  <rect x="500" y="0" width="1" height="1024" fill="#2D3148"/>
  <rect x="900" y="0" width="1" height="1024" fill="#2D3148"/>

  <!-- ═══════════════════════════════════════════════════════════ -->
  <!-- LEFT PANEL (0–500px) — Customer Allergen Profile           -->
  <!-- Light theme card representing customer-facing kiosk view   -->
  <!-- ═══════════════════════════════════════════════════════════ -->

  <!-- Light background -->
  <rect x="0" y="0" width="500" height="1024" fill="#F8FAFC"/>

  <!-- Kiosk top bar -->
  <rect x="0" y="0" width="500" height="52" fill="#1E293B"/>
  <text x="20" y="22" fill="#94A3B8" font-size="10" font-weight="600">CUSTOMER KIOSK / QR ORDER</text>
  <text x="20" y="40" fill="#F1F5F9" font-size="13" font-weight="700">Allergen &amp; Dietary Preferences</text>
  <!-- shield icon area -->
  <rect x="454" y="10" width="32" height="32" rx="16" fill="#10B981" fill-opacity="0.15"/>
  <text x="470" y="31" fill="#10B981" font-size="16" text-anchor="middle">🛡</text>

  <!-- Card body -->
  <rect x="12" y="60" width="476" height="952" rx="12" fill="#FFFFFF" stroke="#E2E8F0" stroke-width="1"/>

  <!-- Card header text -->
  <text x="30" y="88" fill="#0F172A" font-size="15" font-weight="700">🛡 Dietary &amp; Allergen Preferences</text>
  <text x="30" y="106" fill="#475569" font-size="11">Select your restrictions and we'll hide unsafe items:</text>

  <!-- Section label: Big-9 Allergens -->
  <rect x="22" y="116" width="464" height="1" fill="#E2E8F0"/>
  <text x="30" y="132" fill="#64748B" font-size="10" font-weight="700" letter-spacing="0.5">BIG-9 ALLERGENS (FDA)</text>

  <!-- ── Row 1: Milk | Eggs | Fish ── -->

  <!-- Milk — SELECTED (dark fill) -->
  <rect x="22" y="138" width="144" height="52" rx="8" fill="#1E293B" stroke="#1E293B" stroke-width="1.5"/>
  <text x="34" y="158" fill="#FFFFFF" font-size="16">🥛</text>
  <text x="56" y="158" fill="#FFFFFF" font-size="12" font-weight="700">Milk</text>
  <!-- checkmark -->
  <circle cx="152" cy="145" r="9" fill="#10B981"/>
  <text x="152" y="149" fill="#FFFFFF" font-size="10" font-weight="700" text-anchor="middle">✓</text>
  <text x="34" y="176" fill="#94A3B8" font-size="9">Dairy-free</text>

  <!-- Eggs — unselected -->
  <rect x="174" y="138" width="144" height="52" rx="8" fill="#FFFFFF" stroke="#CBD5E1" stroke-width="1.5"/>
  <text x="186" y="158" fill="#374151" font-size="16">🥚</text>
  <text x="208" y="158" fill="#374151" font-size="12" font-weight="700">Eggs</text>
  <text x="186" y="176" fill="#94A3B8" font-size="9">Egg-free</text>

  <!-- Fish — unselected -->
  <rect x="326" y="138" width="144" height="52" rx="8" fill="#FFFFFF" stroke="#CBD5E1" stroke-width="1.5"/>
  <text x="338" y="158" fill="#374151" font-size="16">🐟</text>
  <text x="360" y="158" fill="#374151" font-size="12" font-weight="700">Fish</text>
  <text x="338" y="176" fill="#94A3B8" font-size="9">Fish-free</text>

  <!-- ── Row 2: Shellfish | Tree Nuts | Peanuts ── -->

  <!-- Shellfish — unselected -->
  <rect x="22" y="196" width="144" height="52" rx="8" fill="#FFFFFF" stroke="#CBD5E1" stroke-width="1.5"/>
  <text x="34" y="216" fill="#374151" font-size="16">🦐</text>
  <text x="56" y="216" fill="#374151" font-size="12" font-weight="700">Shellfish</text>
  <text x="34" y="234" fill="#94A3B8" font-size="9">Shellfish-free</text>

  <!-- Tree Nuts — unselected -->
  <rect x="174" y="196" width="144" height="52" rx="8" fill="#FFFFFF" stroke="#CBD5E1" stroke-width="1.5"/>
  <text x="186" y="216" fill="#374151" font-size="16">🌳</text>
  <text x="208" y="216" fill="#374151" font-size="12" font-weight="700">Tree Nuts</text>
  <text x="186" y="234" fill="#94A3B8" font-size="9">Tree nut-free</text>

  <!-- Peanuts — unselected -->
  <rect x="326" y="196" width="144" height="52" rx="8" fill="#FFFFFF" stroke="#CBD5E1" stroke-width="1.5"/>
  <text x="338" y="216" fill="#374151" font-size="16">🥜</text>
  <text x="360" y="216" fill="#374151" font-size="12" font-weight="700">Peanuts</text>
  <text x="338" y="234" fill="#94A3B8" font-size="9">Peanut-free</text>

  <!-- ── Row 3: Gluten/Wheat | Soy | Sesame ── -->

  <!-- Gluten/Wheat — SELECTED -->
  <rect x="22" y="254" width="144" height="52" rx="8" fill="#1E293B" stroke="#1E293B" stroke-width="1.5"/>
  <text x="34" y="274" fill="#FFFFFF" font-size="16">🌾</text>
  <text x="56" y="274" fill="#FFFFFF" font-size="11" font-weight="700">Gluten/Wheat</text>
  <circle cx="152" cy="261" r="9" fill="#10B981"/>
  <text x="152" y="265" fill="#FFFFFF" font-size="10" font-weight="700" text-anchor="middle">✓</text>
  <text x="34" y="292" fill="#94A3B8" font-size="9">Gluten-free</text>

  <!-- Soy — unselected -->
  <rect x="174" y="254" width="144" height="52" rx="8" fill="#FFFFFF" stroke="#CBD5E1" stroke-width="1.5"/>
  <text x="186" y="274" fill="#374151" font-size="16">🫘</text>
  <text x="208" y="274" fill="#374151" font-size="12" font-weight="700">Soy</text>
  <text x="186" y="292" fill="#94A3B8" font-size="9">Soy-free</text>

  <!-- Sesame — unselected -->
  <rect x="326" y="254" width="144" height="52" rx="8" fill="#FFFFFF" stroke="#CBD5E1" stroke-width="1.5"/>
  <text x="338" y="274" fill="#374151" font-size="16">🌱</text>
  <text x="360" y="274" fill="#374151" font-size="12" font-weight="700">Sesame</text>
  <text x="338" y="292" fill="#94A3B8" font-size="9">Sesame-free</text>

  <!-- Section divider -->
  <rect x="22" y="314" width="464" height="1" fill="#E2E8F0"/>
  <text x="30" y="330" fill="#64748B" font-size="10" font-weight="700" letter-spacing="0.5">DIETARY PREFERENCES</text>

  <!-- Dietary row: Vegetarian | Vegan | Halal | Kosher -->

  <!-- Vegetarian — SELECTED -->
  <rect x="22" y="336" width="104" height="40" rx="8" fill="#064E3B" stroke="#10B981" stroke-width="1.5"/>
  <text x="74" y="352" fill="#FFFFFF" font-size="12" text-anchor="middle">🥦</text>
  <text x="74" y="367" fill="#6EE7B7" font-size="10" font-weight="700" text-anchor="middle">Vegetarian</text>

  <!-- Vegan -->
  <rect x="132" y="336" width="84" height="40" rx="8" fill="#FFFFFF" stroke="#CBD5E1" stroke-width="1.5"/>
  <text x="174" y="352" fill="#374151" font-size="12" text-anchor="middle">🌿</text>
  <text x="174" y="367" fill="#475569" font-size="10" font-weight="600" text-anchor="middle">Vegan</text>

  <!-- Halal -->
  <rect x="222" y="336" width="84" height="40" rx="8" fill="#FFFFFF" stroke="#CBD5E1" stroke-width="1.5"/>
  <text x="264" y="352" fill="#374151" font-size="12" text-anchor="middle">🍖</text>
  <text x="264" y="367" fill="#475569" font-size="10" font-weight="600" text-anchor="middle">Halal</text>

  <!-- Kosher -->
  <rect x="312" y="336" width="84" height="40" rx="8" fill="#FFFFFF" stroke="#CBD5E1" stroke-width="1.5"/>
  <text x="354" y="352" fill="#374151" font-size="12" text-anchor="middle">✡</text>
  <text x="354" y="367" fill="#475569" font-size="10" font-weight="600" text-anchor="middle">Kosher</text>

  <!-- Active filter summary -->
  <rect x="22" y="386" width="464" height="36" rx="8" fill="#EFF6FF" stroke="#BFDBFE" stroke-width="1"/>
  <text x="34" y="400" fill="#1D4ED8" font-size="11" font-weight="700">Showing:</text>
  <text x="94" y="400" fill="#1E40AF" font-size="11">items safe for Milk-free + Gluten-free + Vegetarian</text>
  <text x="34" y="415" fill="#3B82F6" font-size="10">3 filters active — 24 of 67 menu items shown</text>

  <!-- Warning banner -->
  <rect x="22" y="430" width="464" height="44" rx="8" fill="#FEF3C7" stroke="#FCD34D" stroke-width="1"/>
  <text x="34" y="447" fill="#92400E" font-size="11" font-weight="700">⚠ Allergy Warning</text>
  <text x="34" y="462" fill="#78350F" font-size="10">Always inform staff of severe allergies — we cannot guarantee</text>
  <text x="34" y="474" fill="#78350F" font-size="10">zero cross-contamination in our kitchen.</text>

  <!-- Apply Filter button -->
  <rect x="22" y="484" width="280" height="44" rx="10" fill="#10B981"/>
  <text x="162" y="511" fill="#FFFFFF" font-size="14" font-weight="700" text-anchor="middle">Apply Filter</text>

  <!-- Skip link -->
  <text x="340" y="511" fill="#94A3B8" font-size="12">Skip — show all items</text>
  <line x1="316" y1="513" x2="480" y2="513" stroke="#CBD5E1" stroke-width="0.5"/>

  <!-- ═══════════════════════════════════════════════════════════ -->
  <!-- CENTER PANEL (501–900px) — Filtered Menu Results           -->
  <!-- Light theme — customer-facing menu                         -->
  <!-- ═══════════════════════════════════════════════════════════ -->

  <rect x="501" y="0" width="399" height="1024" fill="#F8FAFC"/>

  <!-- Panel header -->
  <rect x="501" y="0" width="399" height="52" fill="#1E293B"/>
  <text x="516" y="22" fill="#94A3B8" font-size="10" font-weight="600">FILTERED MENU</text>
  <text x="516" y="40" fill="#F1F5F9" font-size="13" font-weight="700">Menu Results</text>
  <!-- Cart badge -->
  <rect x="766" y="8" width="120" height="36" rx="18" fill="#F59E0B"/>
  <text x="826" y="30" fill="#1C1917" font-size="12" font-weight="700" text-anchor="middle">🛒 2 items · $20.50</text>

  <!-- Match summary -->
  <rect x="513" y="60" width="375" height="32" rx="6" fill="#DCFCE7" stroke="#86EFAC" stroke-width="1"/>
  <text x="521" y="74" fill="#166534" font-size="11" font-weight="700">✅ 24 of 67 items match your preferences</text>
  <text x="521" y="86" fill="#15803D" font-size="10">Showing Milk-free + Gluten-free + Vegetarian only</text>

  <!-- Category tabs -->
  <rect x="501" y="100" width="399" height="36" fill="#FFFFFF" stroke="#E2E8F0" stroke-width="0"/>
  <rect x="501" y="136" width="399" height="1" fill="#E2E8F0"/>

  <!-- All tab -->
  <rect x="509" y="104" width="38" height="28" rx="6" fill="none"/>
  <text x="528" y="122" fill="#64748B" font-size="11" text-anchor="middle">All</text>

  <!-- Burgers tab — ACTIVE -->
  <rect x="551" y="104" width="76" height="28" rx="6" fill="#1E293B"/>
  <text x="589" y="122" fill="#FFFFFF" font-size="11" font-weight="700" text-anchor="middle">Burgers (5)</text>

  <!-- Salads tab -->
  <rect x="631" y="104" width="68" height="28" rx="6" fill="none"/>
  <text x="665" y="122" fill="#64748B" font-size="11" text-anchor="middle">Salads (8)</text>

  <!-- Sides tab -->
  <rect x="703" y="104" width="58" height="28" rx="6" fill="none"/>
  <text x="732" y="122" fill="#64748B" font-size="11" text-anchor="middle">Sides (4)</text>

  <!-- Drinks tab -->
  <rect x="765" y="104" width="64" height="28" rx="6" fill="none"/>
  <text x="797" y="122" fill="#64748B" font-size="11" text-anchor="middle">Drinks (7)</text>

  <!-- ── Item 1: Veggie Burger ── -->
  <rect x="513" y="144" width="375" height="90" rx="10" fill="#FFFFFF" stroke="#E2E8F0" stroke-width="1"/>
  <!-- Food image placeholder -->
  <rect x="521" y="152" width="64" height="74" rx="8" fill="#FEF9C3"/>
  <text x="553" y="196" fill="#92400E" font-size="28" text-anchor="middle">🍔</text>
  <!-- Item info -->
  <text x="596" y="166" fill="#0F172A" font-size="13" font-weight="700">Veggie Burger</text>
  <text x="596" y="181" fill="#10B981" font-size="12" font-weight="700">$11.00</text>
  <text x="596" y="194" fill="#64748B" font-size="9">420 cal</text>
  <!-- Tags -->
  <rect x="596" y="200" width="62" height="16" rx="4" fill="#DCFCE7"/>
  <text x="627" y="211" fill="#166534" font-size="8" font-weight="700" text-anchor="middle">✅ Milk-free</text>
  <rect x="663" y="200" width="68" height="16" rx="4" fill="#DCFCE7"/>
  <text x="697" y="211" fill="#166534" font-size="8" font-weight="700" text-anchor="middle">✅ Gluten-free</text>
  <rect x="736" y="200" width="66" height="16" rx="4" fill="#DCFCE7"/>
  <text x="769" y="211" fill="#166534" font-size="8" font-weight="700" text-anchor="middle">✅ Vegetarian</text>
  <!-- Add button -->
  <rect x="832" y="154" width="48" height="28" rx="8" fill="#10B981"/>
  <text x="856" y="172" fill="#FFFFFF" font-size="12" font-weight="700" text-anchor="middle">+Add</text>

  <!-- ── Item 2: Garden Salad ── -->
  <rect x="513" y="242" width="375" height="90" rx="10" fill="#FFFFFF" stroke="#E2E8F0" stroke-width="1"/>
  <rect x="521" y="250" width="64" height="74" rx="8" fill="#DCFCE7"/>
  <text x="553" y="294" fill="#166534" font-size="28" text-anchor="middle">🥗</text>
  <text x="596" y="264" fill="#0F172A" font-size="13" font-weight="700">Garden Salad</text>
  <text x="596" y="279" fill="#10B981" font-size="12" font-weight="700">$9.00</text>
  <text x="596" y="292" fill="#64748B" font-size="9">180 cal</text>
  <rect x="596" y="298" width="62" height="16" rx="4" fill="#DCFCE7"/>
  <text x="627" y="309" fill="#166534" font-size="8" font-weight="700" text-anchor="middle">✅ Milk-free</text>
  <rect x="663" y="298" width="68" height="16" rx="4" fill="#DCFCE7"/>
  <text x="697" y="309" fill="#166534" font-size="8" font-weight="700" text-anchor="middle">✅ Gluten-free</text>
  <rect x="736" y="298" width="66" height="16" rx="4" fill="#DCFCE7"/>
  <text x="769" y="309" fill="#166534" font-size="8" font-weight="700" text-anchor="middle">✅ Vegetarian</text>
  <rect x="832" y="252" width="48" height="28" rx="8" fill="#10B981"/>
  <text x="856" y="270" fill="#FFFFFF" font-size="12" font-weight="700" text-anchor="middle">+Add</text>

  <!-- ── Item 3: Sweet Potato Fries ── -->
  <rect x="513" y="340" width="375" height="90" rx="10" fill="#FFFFFF" stroke="#E2E8F0" stroke-width="1"/>
  <rect x="521" y="348" width="64" height="74" rx="8" fill="#FEF3C7"/>
  <text x="553" y="392" fill="#D97706" font-size="28" text-anchor="middle">🍟</text>
  <text x="596" y="362" fill="#0F172A" font-size="13" font-weight="700">Sweet Potato Fries</text>
  <text x="596" y="377" fill="#10B981" font-size="12" font-weight="700">$5.50</text>
  <text x="596" y="390" fill="#64748B" font-size="9">380 cal</text>
  <rect x="596" y="396" width="62" height="16" rx="4" fill="#DCFCE7"/>
  <text x="627" y="407" fill="#166534" font-size="8" font-weight="700" text-anchor="middle">✅ Milk-free</text>
  <rect x="663" y="396" width="68" height="16" rx="4" fill="#DCFCE7"/>
  <text x="697" y="407" fill="#166534" font-size="8" font-weight="700" text-anchor="middle">✅ Gluten-free</text>
  <rect x="736" y="396" width="66" height="16" rx="4" fill="#DCFCE7"/>
  <text x="769" y="407" fill="#166534" font-size="8" font-weight="700" text-anchor="middle">✅ Vegetarian</text>
  <rect x="832" y="350" width="48" height="28" rx="8" fill="#10B981"/>
  <text x="856" y="368" fill="#FFFFFF" font-size="12" font-weight="700" text-anchor="middle">+Add</text>

  <!-- ── Filtered/Removed item: Classic Burger ── -->
  <rect x="513" y="438" width="375" height="80" rx="10" fill="#F1F5F9" stroke="#CBD5E1" stroke-width="1" opacity="0.7"/>
  <rect x="521" y="446" width="64" height="64" rx="8" fill="#E2E8F0"/>
  <text x="553" y="485" fill="#94A3B8" font-size="28" text-anchor="middle">🍔</text>
  <!-- Strikethrough name -->
  <text x="596" y="462" fill="#94A3B8" font-size="13" font-weight="700" text-decoration="line-through">Classic Burger</text>
  <line x1="596" y1="460" x2="730" y2="460" stroke="#94A3B8" stroke-width="1.5"/>
  <text x="596" y="477" fill="#64748B" font-size="10">$12.00 · 680 cal</text>
  <!-- Allergen warning tags -->
  <rect x="596" y="482" width="82" height="16" rx="4" fill="#FEE2E2"/>
  <text x="637" y="493" fill="#991B1B" font-size="8" font-weight="700" text-anchor="middle">❌ Contains Gluten</text>
  <rect x="682" y="482" width="74" height="16" rx="4" fill="#FEE2E2"/>
  <text x="719" y="493" fill="#991B1B" font-size="8" font-weight="700" text-anchor="middle">❌ Contains Dairy</text>
  <!-- Filtered badge -->
  <rect x="832" y="450" width="48" height="22" rx="6" fill="#E2E8F0"/>
  <text x="856" y="464" fill="#64748B" font-size="9" font-weight="600" text-anchor="middle">Hidden</text>

  <!-- Filtered count note -->
  <rect x="513" y="526" width="375" height="28" rx="6" fill="#F8FAFC" stroke="#E2E8F0" stroke-width="1"/>
  <text x="700" y="544" fill="#94A3B8" font-size="10" text-anchor="middle">43 items hidden by your allergen filters · Tap "Skip" to show all</text>

  <!-- ═══════════════════════════════════════════════════════════ -->
  <!-- RIGHT PANEL (901–1366px) — Staff / Back-office View        -->
  <!-- Dark theme — allergen management + compliance              -->
  <!-- ═══════════════════════════════════════════════════════════ -->

  <rect x="901" y="0" width="465" height="1024" fill="#0C0E1A"/>

  <!-- Panel header -->
  <rect x="901" y="0" width="465" height="64" fill="#13162A"/>
  <rect x="901" y="64" width="465" height="1" fill="#2D3148"/>
  <text x="916" y="22" fill="#F59E0B" font-size="11" font-weight="700">Synalux POS — Back Office</text>
  <text x="916" y="44" fill="#F1F5F9" font-size="16" font-weight="700">Allergen Filter — Live Stats</text>
  <text x="916" y="59" fill="#94A3B8" font-size="11">Real-time filter usage &amp; compliance dashboard</text>

  <!-- Today's usage card -->
  <rect x="913" y="72" width="441" height="76" rx="8" fill="#1A1D2E" stroke="#2D3148" stroke-width="1"/>
  <text x="928" y="92" fill="#94A3B8" font-size="10" font-weight="700">TODAY'S FILTER USAGE</text>
  <text x="928" y="118" fill="#F59E0B" font-size="32" font-weight="800">47</text>
  <text x="928" y="136" fill="#94A3B8" font-size="11">customers used allergen filter today</text>
  <!-- Trend -->
  <rect x="1240" y="82" width="106" height="28" rx="6" fill="#064E3B"/>
  <text x="1293" y="100" fill="#10B981" font-size="11" font-weight="700" text-anchor="middle">▲ +12 vs yesterday</text>

  <!-- Top Restrictions -->
  <text x="916" y="168" fill="#64748B" font-size="10" font-weight="700" letter-spacing="0.5">TOP RESTRICTIONS TODAY</text>

  <!-- Gluten-free bar -->
  <rect x="913" y="174" width="441" height="32" rx="6" fill="#1A1D2E" stroke="#2D3148" stroke-width="1"/>
  <text x="924" y="194" fill="#F1F5F9" font-size="11" font-weight="600">Gluten-free</text>
  <rect x="1020" y="180" width="180" height="12" rx="4" fill="#2D3148"/>
  <rect x="1020" y="180" width="125" height="12" rx="4" fill="#6366F1"/>
  <text x="1210" y="192" fill="#94A3B8" font-size="11" font-weight="700">23</text>
  <text x="1235" y="192" fill="#64748B" font-size="10">customers</text>

  <!-- Dairy-free bar -->
  <rect x="913" y="212" width="441" height="32" rx="6" fill="#1A1D2E" stroke="#2D3148" stroke-width="1"/>
  <text x="924" y="232" fill="#F1F5F9" font-size="11" font-weight="600">Dairy-free</text>
  <rect x="1020" y="218" width="180" height="12" rx="4" fill="#2D3148"/>
  <rect x="1020" y="218" width="98" height="12" rx="4" fill="#8B5CF6"/>
  <text x="1210" y="230" fill="#94A3B8" font-size="11" font-weight="700">18</text>
  <text x="1235" y="230" fill="#64748B" font-size="10">customers</text>

  <!-- Nut-free bar -->
  <rect x="913" y="250" width="441" height="32" rx="6" fill="#1A1D2E" stroke="#2D3148" stroke-width="1"/>
  <text x="924" y="270" fill="#F1F5F9" font-size="11" font-weight="600">Nut-free</text>
  <rect x="1020" y="256" width="180" height="12" rx="4" fill="#2D3148"/>
  <rect x="1020" y="256" width="65" height="12" rx="4" fill="#F59E0B"/>
  <text x="1210" y="268" fill="#94A3B8" font-size="11" font-weight="700">12</text>
  <text x="1235" y="268" fill="#64748B" font-size="10">customers</text>

  <!-- Vegan bar -->
  <rect x="913" y="288" width="441" height="32" rx="6" fill="#1A1D2E" stroke="#2D3148" stroke-width="1"/>
  <text x="924" y="308" fill="#F1F5F9" font-size="11" font-weight="600">Vegan</text>
  <rect x="1020" y="294" width="180" height="12" rx="4" fill="#2D3148"/>
  <rect x="1020" y="294" width="43" height="12" rx="4" fill="#10B981"/>
  <text x="1210" y="306" fill="#94A3B8" font-size="11" font-weight="700">8</text>
  <text x="1235" y="306" fill="#64748B" font-size="10">customers</text>

  <!-- Compliance notices -->
  <rect x="913" y="330" width="441" height="1" fill="#2D3148"/>
  <text x="916" y="348" fill="#64748B" font-size="10" font-weight="700" letter-spacing="0.5">REGULATORY COMPLIANCE</text>

  <!-- FDA notice -->
  <rect x="913" y="354" width="441" height="56" rx="8" fill="#1E1B4B" stroke="#4338CA" stroke-width="1"/>
  <rect x="921" y="362" width="24" height="24" rx="4" fill="#4338CA"/>
  <text x="933" y="378" fill="#FFFFFF" font-size="10" font-weight="700" text-anchor="middle">US</text>
  <text x="952" y="371" fill="#818CF8" font-size="10" font-weight="700">FDA Allergen Labeling + Consumer Protection Act</text>
  <text x="952" y="385" fill="#A5B4FC" font-size="10">Big-9 allergens required on all menu labeling.</text>
  <text x="952" y="399" fill="#A5B4FC" font-size="10">Currently displaying: ✅ All Big-9 allergens configured</text>

  <!-- EU notice -->
  <rect x="913" y="416" width="441" height="56" rx="8" fill="#1C2B1A" stroke="#16A34A" stroke-width="1"/>
  <rect x="921" y="424" width="24" height="24" rx="4" fill="#16A34A"/>
  <text x="933" y="440" fill="#FFFFFF" font-size="10" font-weight="700" text-anchor="middle">EU</text>
  <text x="952" y="433" fill="#86EFAC" font-size="10" font-weight="700">EU Regulation 1169/2011 — 14 Declared Allergens</text>
  <text x="952" y="447" fill="#A7F3D0" font-size="10">Required if serving EU online orders or EU customers.</text>
  <text x="952" y="461" fill="#A7F3D0" font-size="10">⚠ 5 EU allergens not yet configured (Lupin, Molluscs…)</text>

  <!-- Items flagged -->
  <rect x="913" y="482" width="441" height="1" fill="#2D3148"/>
  <text x="916" y="500" fill="#64748B" font-size="10" font-weight="700" letter-spacing="0.5">ITEMS FLAGGED MOST OFTEN</text>

  <!-- Classic Burger flag -->
  <rect x="913" y="506" width="441" height="44" rx="8" fill="#1A1D2E" stroke="#2D3148" stroke-width="1"/>
  <text x="924" y="522" fill="#F1F5F9" font-size="12" font-weight="700">Classic Burger</text>
  <rect x="924" y="527" width="68" height="16" rx="4" fill="#450A0A"/>
  <text x="958" y="538" fill="#FCA5A5" font-size="9" font-weight="700" text-anchor="middle">Gluten + Dairy</text>
  <rect x="998" y="527" width="44" height="16" rx="4" fill="#450A0A"/>
  <text x="1020" y="538" fill="#FCA5A5" font-size="9" font-weight="700" text-anchor="middle">Egg</text>
  <text x="1310" y="522" fill="#F59E0B" font-size="11" font-weight="700" text-anchor="middle">Filtered 23×</text>
  <text x="1310" y="538" fill="#64748B" font-size="9" text-anchor="middle">today</text>

  <!-- Mac &amp; Cheese flag -->
  <rect x="913" y="556" width="441" height="44" rx="8" fill="#1A1D2E" stroke="#2D3148" stroke-width="1"/>
  <text x="924" y="572" fill="#F1F5F9" font-size="12" font-weight="700">Mac &amp; Cheese</text>
  <rect x="924" y="577" width="68" height="16" rx="4" fill="#450A0A"/>
  <text x="958" y="588" fill="#FCA5A5" font-size="9" font-weight="700" text-anchor="middle">Gluten + Dairy</text>
  <rect x="998" y="577" width="44" height="16" rx="4" fill="#450A0A"/>
  <text x="1020" y="588" fill="#FCA5A5" font-size="9" font-weight="700" text-anchor="middle">Egg</text>
  <text x="1310" y="572" fill="#F59E0B" font-size="11" font-weight="700" text-anchor="middle">Filtered 17×</text>
  <text x="1310" y="588" fill="#64748B" font-size="9" text-anchor="middle">today</text>

  <!-- Cross-contamination toggle -->
  <rect x="913" y="610" width="441" height="1" fill="#2D3148"/>
  <text x="916" y="628" fill="#64748B" font-size="10" font-weight="700" letter-spacing="0.5">CROSS-CONTAMINATION ADVISORY</text>

  <rect x="913" y="634" width="441" height="44" rx="8" fill="#1A1D2E" stroke="#2D3148" stroke-width="1"/>
  <text x="924" y="654" fill="#F1F5F9" font-size="12">Show 'may contain' warnings to customers</text>
  <text x="924" y="669" fill="#64748B" font-size="10">Cross-contamination advisory on item cards</text>
  <!-- Toggle pill — OFF state -->
  <rect x="1288" y="644" width="48" height="24" rx="12" fill="#374151"/>
  <circle cx="1300" cy="656" r="10" fill="#64748B"/>
  <text x="1322" y="661" fill="#64748B" font-size="9" font-weight="700">OFF</text>

  <!-- Manage link -->
  <rect x="913" y="688" width="441" height="1" fill="#2D3148"/>
  <rect x="913" y="698" width="441" height="44" rx="8" fill="#0C0E1A" stroke="#2D3148" stroke-width="1"/>
  <text x="924" y="718" fill="#F59E0B" font-size="12" font-weight="700">Manage item allergens →</text>
  <text x="924" y="733" fill="#64748B" font-size="10">Edit allergen tags in Nutritional Settings</text>

  <!-- Quick actions -->
  <text x="916" y="762" fill="#64748B" font-size="10" font-weight="700" letter-spacing="0.5">QUICK ACTIONS</text>

  <rect x="913" y="768" width="212" height="40" rx="8" fill="#1A1D2E" stroke="#2D3148" stroke-width="1"/>
  <text x="1019" y="792" fill="#F1F5F9" font-size="11" font-weight="600" text-anchor="middle">📋 Export Filter Report</text>

  <rect x="1133" y="768" width="221" height="40" rx="8" fill="#1A1D2E" stroke="#2D3148" stroke-width="1"/>
  <text x="1243" y="792" fill="#F1F5F9" font-size="11" font-weight="600" text-anchor="middle">⚙ Allergen Settings</text>

  <!-- Footer status bar -->
  <rect x="901" y="960" width="465" height="64" fill="#13162A" stroke="#2D3148" stroke-width="0"/>
  <rect x="901" y="960" width="465" height="1" fill="#2D3148"/>
  <circle cx="922" cy="985" r="5" fill="#10B981"/>
  <text x="933" y="989" fill="#10B981" font-size="11" font-weight="700">Allergen Filter: Active</text>
  <text x="933" y="1003" fill="#64748B" font-size="10">Last sync: just now · FDA Big-9 configured · EU partial</text>
  <text x="1200" y="985" fill="#94A3B8" font-size="10" text-anchor="middle">Synalux POS v3.2</text>
  <text x="1200" y="1000" fill="#64748B" font-size="9" text-anchor="middle">allergens.synalux.io</text>

</svg>
