<svg role="img" aria-labelledby="title-ipad_split_check-svg" xmlns="http://www.w3.org/2000/svg" viewBox="0 0 1366 1024" font-family="-apple-system,BlinkMacSystemFont,'SF Pro Display','Segoe UI',sans-serif">
  <title id="title-ipad_split_check-svg">Synalux POS — split check</title>
  <desc>Synalux POS mockup screen for split check. All UI elements admin-configurable.</desc>
  <defs>
    <!-- Background gradient -->
    <linearGradient id="bgGrad" x1="0" y1="0" x2="1" y2="1">
      <stop offset="0%" stop-color="#080A14"/>
      <stop offset="100%" stop-color="#0C0E1A"/>
    </linearGradient>
    <!-- Modal gradient -->
    <linearGradient id="modalGrad" x1="0" y1="0" x2="0" y2="1">
      <stop offset="0%" stop-color="#161930"/>
      <stop offset="100%" stop-color="#131528"/>
    </linearGradient>
    <!-- Header gradient -->
    <linearGradient id="headerGrad" x1="0" y1="0" x2="1" y2="0">
      <stop offset="0%" stop-color="#1A1D2E"/>
      <stop offset="100%" stop-color="#1E2138"/>
    </linearGradient>
    <!-- Amber button gradient -->
    <linearGradient id="amberBtnGrad" x1="0" y1="0" x2="0" y2="1">
      <stop offset="0%" stop-color="#FBBF24"/>
      <stop offset="100%" stop-color="#F59E0B"/>
    </linearGradient>
    <!-- Green button gradient -->
    <linearGradient id="greenBtnGrad" x1="0" y1="0" x2="0" y2="1">
      <stop offset="0%" stop-color="#4ADE80"/>
      <stop offset="100%" stop-color="#22C55E"/>
    </linearGradient>
    <!-- Blue button gradient -->
    <linearGradient id="blueBtnGrad" x1="0" y1="0" x2="0" y2="1">
      <stop offset="0%" stop-color="#93C5FD"/>
      <stop offset="100%" stop-color="#60A5FA"/>
    </linearGradient>
    <!-- Panel card gradient -->
    <linearGradient id="panelGrad" x1="0" y1="0" x2="0" y2="1">
      <stop offset="0%" stop-color="#161930"/>
      <stop offset="100%" stop-color="#12142A"/>
    </linearGradient>
    <!-- Left panel gradient -->
    <linearGradient id="leftPanelGrad" x1="0" y1="0" x2="0" y2="1">
      <stop offset="0%" stop-color="#0E1020"/>
      <stop offset="100%" stop-color="#0B0D18"/>
    </linearGradient>
    <!-- Paid badge gradient -->
    <linearGradient id="paidGrad" x1="0" y1="0" x2="1" y2="0">
      <stop offset="0%" stop-color="#166534"/>
      <stop offset="100%" stop-color="#15803D"/>
    </linearGradient>
    <!-- Unpaid badge gradient -->
    <linearGradient id="unpaidGrad" x1="0" y1="0" x2="1" y2="0">
      <stop offset="0%" stop-color="#78350F"/>
      <stop offset="100%" stop-color="#92400E"/>
    </linearGradient>
    <!-- Processing badge gradient -->
    <linearGradient id="processingGrad" x1="0" y1="0" x2="1" y2="0">
      <stop offset="0%" stop-color="#1E3A5F"/>
      <stop offset="100%" stop-color="#1E40AF"/>
    </linearGradient>
    <!-- Drop shadows -->
    <filter id="modalShadow" x="-5%" y="-5%" width="110%" height="115%">
      <feDropShadow dx="0" dy="8" stdDeviation="24" flood-color="#000000" flood-opacity="0.6"/>
    </filter>
    <filter id="cardShadow" x="-8%" y="-8%" width="116%" height="120%">
      <feDropShadow dx="0" dy="4" stdDeviation="8" flood-color="#000000" flood-opacity="0.4"/>
    </filter>
    <filter id="btnShadow" x="-10%" y="-20%" width="120%" height="150%">
      <feDropShadow dx="0" dy="2" stdDeviation="4" flood-color="#000000" flood-opacity="0.3"/>
    </filter>
    <filter id="glowAmber" x="-20%" y="-20%" width="140%" height="140%">
      <feDropShadow dx="0" dy="0" stdDeviation="6" flood-color="#F59E0B" flood-opacity="0.25"/>
    </filter>
    <filter id="glowGreen" x="-20%" y="-20%" width="140%" height="140%">
      <feDropShadow dx="0" dy="0" stdDeviation="6" flood-color="#22C55E" flood-opacity="0.25"/>
    </filter>
    <filter id="glowBlue" x="-20%" y="-20%" width="140%" height="140%">
      <feDropShadow dx="0" dy="0" stdDeviation="6" flood-color="#60A5FA" flood-opacity="0.2"/>
    </filter>
    <!-- Seat color header backgrounds -->
    <linearGradient id="seatAmberBg" x1="0" y1="0" x2="1" y2="0">
      <stop offset="0%" stop-color="#2D1A00"/>
      <stop offset="100%" stop-color="#3D2200"/>
    </linearGradient>
    <linearGradient id="seatBlueBg" x1="0" y1="0" x2="1" y2="0">
      <stop offset="0%" stop-color="#0C1929"/>
      <stop offset="100%" stop-color="#102540"/>
    </linearGradient>
    <linearGradient id="seatGreenBg" x1="0" y1="0" x2="1" y2="0">
      <stop offset="0%" stop-color="#0A2014"/>
      <stop offset="100%" stop-color="#0D2B18"/>
    </linearGradient>
    <linearGradient id="seatPurpleBg" x1="0" y1="0" x2="1" y2="0">
      <stop offset="0%" stop-color="#180D28"/>
      <stop offset="100%" stop-color="#1F1035"/>
    </linearGradient>
    <linearGradient id="seatOrangeBg" x1="0" y1="0" x2="1" y2="0">
      <stop offset="0%" stop-color="#2D1400"/>
      <stop offset="100%" stop-color="#3D1C00"/>
    </linearGradient>

    <!-- ============================================================ -->
    <!-- REUSABLE SYMBOLS                                              -->
    <!-- ============================================================ -->

    <!-- Admin gear icon for configurable elements -->
    <symbol id="adminGear" viewBox="0 0 14 14">
      <circle cx="7" cy="7" r="2.5" fill="none" stroke="#F59E0B" stroke-width="0.8" opacity="0.3"/>
      <path d="M7 1v1.5M7 11.5V13M1 7h1.5M11.5 7H13M2.8 2.8l1 1M10.2 10.2l1 1M2.8 11.2l1-1M10.2 3.8l1-1" stroke="#F59E0B" stroke-width="0.6" stroke-linecap="round" opacity="0.3"/>
    </symbol>

    <!-- Payment status badge: PAID -->
    <symbol id="badgePaid" viewBox="0 0 224 32">
      <rect x="0" y="0" width="224" height="32" rx="8" fill="url(#paidGrad)"/>
    </symbol>

    <!-- Payment status badge: UNPAID -->
    <symbol id="badgeUnpaid" viewBox="0 0 224 22">
      <rect x="0" y="0" width="224" height="22" rx="6" fill="url(#unpaidGrad)"/>
    </symbol>

    <!-- Payment status badge: PROCESSING -->
    <symbol id="badgeProcessing" viewBox="0 0 224 32">
      <rect x="0" y="0" width="224" height="32" rx="8" fill="url(#processingGrad)"/>
    </symbol>

    <!-- Portion card shell (248x306 for full, 248x276 for compact) -->
    <symbol id="portionCardFull" viewBox="0 0 248 306">
      <rect x="0" y="0" width="248" height="306" rx="12" fill="#0C0E1A"/>
    </symbol>

    <symbol id="portionCardCompact" viewBox="0 0 248 276">
      <rect x="0" y="0" width="248" height="276" rx="12" fill="#0C0E1A"/>
    </symbol>

    <!-- Item row divider -->
    <symbol id="itemDivider" viewBox="0 0 340 1">
      <rect x="0" y="0" width="340" height="1" fill="#1E2235"/>
    </symbol>

    <!-- Split option button (unselected) -->
    <symbol id="splitOptionBtn" viewBox="0 0 90 56">
      <rect x="0" y="0" width="90" height="56" rx="10" fill="#1E2235" stroke="#2A2E45" stroke-width="1"/>
    </symbol>

    <!-- Split option button (wide, unselected) -->
    <symbol id="splitOptionBtnWide" viewBox="0 0 140 56">
      <rect x="0" y="0" width="140" height="56" rx="10" fill="#1E2235" stroke="#2A2E45" stroke-width="1"/>
    </symbol>

    <!-- Seat assignment row -->
    <symbol id="seatAssignRow" viewBox="0 0 302 38">
      <rect x="0" y="0" width="302" height="38" rx="8" fill="#0C0E1A" stroke="#1E2235" stroke-width="1"/>
    </symbol>

    <!-- Charge button (green) -->
    <symbol id="chargeBtn" viewBox="0 0 224 36">
      <rect x="0" y="0" width="224" height="36" rx="8" fill="url(#greenBtnGrad)"/>
    </symbol>

    <!-- Bottom bar action button -->
    <symbol id="bottomBarBtn" viewBox="0 0 200 40">
      <rect x="0" y="0" width="200" height="40" rx="8" fill="#1E2235" stroke="#2A2E45" stroke-width="1"/>
    </symbol>

    <!-- Receipt action button (small) -->
    <symbol id="receiptActionBtn" viewBox="0 0 108 26">
      <rect x="0" y="0" width="108" height="26" rx="6" fill="#1A1D2E" stroke="#1E2235" stroke-width="1"/>
    </symbol>

    <!-- Tip preset button -->
    <symbol id="tipPresetBtn" viewBox="0 0 52 28">
      <rect x="0" y="0" width="52" height="28" rx="6" fill="#1E2235" stroke="#2A2E45" stroke-width="1"/>
    </symbol>
  </defs>

  <!-- ======================== BACKGROUND ======================== -->
  <!-- Register background (dimmed) -->
  <rect width="1366" height="1024" fill="url(#bgGrad)"/>
  <!-- Simulated register content behind overlay -->
  <rect x="0" y="0" width="1366" height="56" fill="#161930" opacity="0.4"/>
  <rect x="20" y="70" width="340" height="900" rx="12" fill="#161930" opacity="0.25"/>
  <rect x="380" y="70" width="600" height="900" rx="12" fill="#161930" opacity="0.15"/>
  <rect x="1000" y="70" width="346" height="900" rx="12" fill="#161930" opacity="0.2"/>
  <!-- Dark overlay -->
  <rect width="1366" height="1024" fill="#000000" opacity="0.6"/>

  <!-- ======================== MODAL ======================== -->
  <rect x="40" y="20" width="1286" height="984" rx="20" fill="url(#modalGrad)" filter="url(#modalShadow)"/>
  <rect x="40" y="20" width="1286" height="984" rx="20" fill="none" stroke="#1E2235" stroke-width="1"/>

  <!-- ======================== MODAL HEADER ======================== -->
  <rect x="40" y="20" width="1286" height="64" rx="20" fill="url(#headerGrad)"/>
  <rect x="40" y="64" width="1286" height="20" fill="url(#headerGrad)"/>
  <rect x="40" y="84" width="1286" height="1" fill="#1E2235"/>

  <!-- Title -->
  <text x="80" y="58" fill="#E2E8F0" font-size="20" font-weight="700">Split Check</text>
  <text x="206" y="58" fill="#475569" font-size="20" font-weight="300">|</text>
  <text x="222" y="58" fill="#94A3B8" font-size="15">Table 7</text>
  <text x="296" y="58" fill="#475569" font-size="13">7 items  ·  $54.00 total</text>

  <!-- Time + Server -->
  <text x="1180" y="58" fill="#64748B" font-size="12" text-anchor="end">2:35 PM</text>
  <text x="1194" y="58" fill="#475569" font-size="12">|</text>
  <circle cx="1218" cy="53" r="9" fill="#4ADE80"/>
  <text x="1218" y="57" fill="#0C0E1A" font-size="8" font-weight="700" text-anchor="middle">JS</text>

  <!-- Close button -->
  <rect x="1276" y="36" width="36" height="36" rx="8" fill="#1E2235" stroke="#2A2E45" stroke-width="1"/>
  <line x1="1287" y1="47" x2="1299" y2="59" stroke="#64748B" stroke-width="2" stroke-linecap="round"/>
  <line x1="1299" y1="47" x2="1287" y2="59" stroke="#64748B" stroke-width="2" stroke-linecap="round"/>

  <!-- ====================================================================== -->
  <!-- LEFT PANEL: Full Order                                                  -->
  <!-- ====================================================================== -->
  <rect x="56" y="96" width="370" height="890" rx="14" fill="url(#leftPanelGrad)" filter="url(#cardShadow)"/>
  <rect x="56" y="96" width="370" height="890" rx="14" fill="none" stroke="#1E2235" stroke-width="1"/>

  <!-- Panel header -->
  <rect x="56" y="96" width="370" height="44" rx="14" fill="#1A1D2E"/>
  <rect x="56" y="126" width="370" height="14" fill="#1A1D2E"/>
  <text x="76" y="124" fill="#64748B" font-size="11" font-weight="700" letter-spacing="1.2">FULL ORDER</text>
  <text x="406" y="124" fill="#475569" font-size="11" text-anchor="end">7 items</text>

  <!-- Item 1 -->
  <text x="76" y="168" fill="#64748B" font-size="12">1x</text>
  <text x="98" y="168" fill="#E2E8F0" font-size="13" font-weight="500">Fish &amp; Chips</text>
  <text x="406" y="168" fill="#E2E8F0" font-size="13" font-weight="600" text-anchor="end">$16.00</text>
  <text x="98" y="184" fill="#475569" font-size="11">w/ tartar sauce, coleslaw</text>
  <use href="#itemDivider" x="76" y="194" width="340" height="1"/>

  <!-- Item 2 -->
  <text x="76" y="214" fill="#64748B" font-size="12">1x</text>
  <text x="98" y="214" fill="#E2E8F0" font-size="13" font-weight="500">Classic Burger</text>
  <text x="406" y="214" fill="#E2E8F0" font-size="13" font-weight="600" text-anchor="end">$12.00</text>
  <text x="98" y="230" fill="#475569" font-size="11">medium, lettuce &amp; tomato</text>
  <use href="#itemDivider" x="76" y="240" width="340" height="1"/>

  <!-- Item 3 -->
  <text x="76" y="260" fill="#64748B" font-size="12">1x</text>
  <text x="98" y="260" fill="#E2E8F0" font-size="13" font-weight="500">Caesar Salad</text>
  <text x="406" y="260" fill="#E2E8F0" font-size="13" font-weight="600" text-anchor="end">$8.00</text>
  <text x="98" y="276" fill="#475569" font-size="11">add croutons</text>
  <use href="#itemDivider" x="76" y="286" width="340" height="1"/>

  <!-- Item 4 -->
  <text x="76" y="306" fill="#64748B" font-size="12">1x</text>
  <text x="98" y="306" fill="#E2E8F0" font-size="13" font-weight="500">Draft Beer</text>
  <text x="406" y="306" fill="#E2E8F0" font-size="13" font-weight="600" text-anchor="end">$6.00</text>
  <text x="98" y="322" fill="#475569" font-size="11">pint, house lager</text>
  <use href="#itemDivider" x="76" y="332" width="340" height="1"/>

  <!-- Item 5 -->
  <text x="76" y="352" fill="#64748B" font-size="12">1x</text>
  <text x="98" y="352" fill="#E2E8F0" font-size="13" font-weight="500">Large Fries</text>
  <text x="406" y="352" fill="#E2E8F0" font-size="13" font-weight="600" text-anchor="end">$4.50</text>
  <text x="98" y="368" fill="#475569" font-size="11">shared side</text>
  <use href="#itemDivider" x="76" y="380" width="340" height="1"/>

  <!-- Item 6 -->
  <text x="76" y="400" fill="#64748B" font-size="12">1x</text>
  <text x="98" y="400" fill="#E2E8F0" font-size="13" font-weight="500">Coffee</text>
  <text x="406" y="400" fill="#E2E8F0" font-size="13" font-weight="600" text-anchor="end">$3.50</text>
  <use href="#itemDivider" x="76" y="414" width="340" height="1"/>

  <!-- Item 7 -->
  <text x="76" y="434" fill="#64748B" font-size="12">1x</text>
  <text x="98" y="434" fill="#E2E8F0" font-size="13" font-weight="500">Sparkling Water</text>
  <text x="406" y="434" fill="#E2E8F0" font-size="13" font-weight="600" text-anchor="end">$4.00</text>

  <!-- Subtotals area -->
  <rect x="76" y="460" width="340" height="2" fill="#2A2E45"/>

  <text x="76" y="486" fill="#94A3B8" font-size="13">Subtotal</text>
  <text x="406" y="486" fill="#CBD5E1" font-size="13" font-weight="600" text-anchor="end">$54.00</text>

  <!-- Admin: Tax rate — configurable: tax percentage per jurisdiction -->
  <text x="76" y="508" fill="#94A3B8" font-size="13">Tax (8.5%)</text>
  <text x="406" y="508" fill="#CBD5E1" font-size="13" font-weight="600" text-anchor="end">$4.59</text>
  <use href="#adminGear" x="152" y="496" width="14" height="14"/>

  <!-- Admin: Suggested tip — configurable: default tip percentage -->
  <text x="76" y="530" fill="#94A3B8" font-size="13">Suggested Tip (20%)</text>
  <text x="406" y="530" fill="#CBD5E1" font-size="13" font-weight="600" text-anchor="end">$10.80</text>
  <use href="#adminGear" x="218" y="518" width="14" height="14"/>

  <rect x="76" y="544" width="340" height="2" fill="#2A2E45"/>

  <text x="76" y="572" fill="#E2E8F0" font-size="18" font-weight="700">Grand Total</text>
  <text x="406" y="572" fill="#F59E0B" font-size="22" font-weight="700" text-anchor="end" filter="url(#glowAmber)">$69.39</text>

  <!-- Guests info -->
  <rect x="68" y="598" width="348" height="48" rx="10" fill="#1A1D2E" stroke="#1E2235" stroke-width="1"/>
  <text x="88" y="620" fill="#94A3B8" font-size="12">Guests</text>
  <circle cx="142" cy="616" r="11" fill="#F59E0B"/>
  <text x="142" y="620" fill="#0C0E1A" font-size="10" font-weight="700" text-anchor="middle">M</text>
  <circle cx="166" cy="616" r="11" fill="#3B82F6"/>
  <text x="166" y="620" fill="white" font-size="10" font-weight="700" text-anchor="middle">J</text>
  <circle cx="190" cy="616" r="11" fill="#22C55E"/>
  <text x="190" y="620" fill="white" font-size="10" font-weight="700" text-anchor="middle">S</text>
  <circle cx="214" cy="616" r="11" fill="#A855F7"/>
  <text x="214" y="620" fill="white" font-size="10" font-weight="700" text-anchor="middle">L</text>
  <text x="240" y="626" fill="#64748B" font-size="12">4 guests  ·  Table 7</text>

  <!-- Admin: Tip presets — configurable: tip percentage options -->
  <rect x="68" y="658" width="348" height="44" rx="10" fill="#1A1D2E" stroke="#1E2235" stroke-width="1"/>
  <text x="88" y="685" fill="#94A3B8" font-size="12">Tip</text>
  <use href="#adminGear" x="108" y="672" width="14" height="14"/>
  <use href="#tipPresetBtn" x="130" y="666" width="52" height="28"/>
  <text x="156" y="685" fill="#64748B" font-size="12" text-anchor="middle">15%</text>
  <rect x="188" y="666" width="52" height="28" rx="6" fill="#F59E0B"/>
  <text x="214" y="685" fill="#0C0E1A" font-size="12" font-weight="700" text-anchor="middle">20%</text>
  <use href="#tipPresetBtn" x="246" y="666" width="52" height="28"/>
  <text x="272" y="685" fill="#64748B" font-size="12" text-anchor="middle">25%</text>
  <rect x="304" y="666" width="76" height="28" rx="6" fill="#1E2235" stroke="#2A2E45" stroke-width="1"/>
  <text x="342" y="685" fill="#64748B" font-size="12" text-anchor="middle">Custom</text>

  <!-- ====================================================================== -->
  <!-- CENTER PANEL: Split Options                                              -->
  <!-- ====================================================================== -->
  <rect x="440" y="96" width="330" height="890" rx="14" fill="url(#panelGrad)" filter="url(#cardShadow)"/>
  <rect x="440" y="96" width="330" height="890" rx="14" fill="none" stroke="#1E2235" stroke-width="1"/>

  <!-- Panel header -->
  <rect x="440" y="96" width="330" height="44" rx="14" fill="#1A1D2E"/>
  <rect x="440" y="126" width="330" height="14" fill="#1A1D2E"/>
  <text x="460" y="124" fill="#64748B" font-size="11" font-weight="700" letter-spacing="1.2">SPLIT OPTIONS</text>

  <!-- Admin: Split mode tabs — configurable: available split modes -->
  <!-- Split mode tabs -->
  <rect x="454" y="152" width="302" height="40" rx="10" fill="#0C0E1A" stroke="#1E2235" stroke-width="1"/>
  <use href="#adminGear" x="440" y="152" width="14" height="14"/>
  <!-- Active tab: Even Split -->
  <rect x="458" y="156" width="96" height="32" rx="8" fill="url(#amberBtnGrad)" filter="url(#btnShadow)"/>
  <text x="506" y="177" fill="#0C0E1A" font-size="12" font-weight="700" text-anchor="middle">Even Split</text>
  <!-- Tab: By Seat -->
  <text x="600" y="177" fill="#64748B" font-size="12" font-weight="500" text-anchor="middle">By Seat</text>
  <!-- Tab: Custom -->
  <text x="706" y="177" fill="#64748B" font-size="12" font-weight="500" text-anchor="middle">Custom $</text>

  <!-- Even Split section title -->
  <text x="460" y="220" fill="#E2E8F0" font-size="14" font-weight="600">Split Evenly</text>
  <text x="460" y="238" fill="#475569" font-size="12">Divide the total equally among guests</text>

  <!-- Admin: Split options — configurable: max split ways -->
  <!-- Number grid: 2-12 ways -->
  <use href="#splitOptionBtn" x="454" y="254" width="90" height="56"/>
  <text x="499" y="278" fill="#CBD5E1" font-size="18" font-weight="700" text-anchor="middle">2</text>
  <text x="499" y="298" fill="#475569" font-size="10" text-anchor="middle">$34.70 ea</text>

  <use href="#splitOptionBtn" x="554" y="254" width="90" height="56"/>
  <text x="599" y="278" fill="#CBD5E1" font-size="18" font-weight="700" text-anchor="middle">3</text>
  <text x="599" y="298" fill="#475569" font-size="10" text-anchor="middle">$23.13 ea</text>

  <!-- 4-way: SELECTED -->
  <rect x="654" y="254" width="90" height="56" rx="10" fill="#F59E0B" filter="url(#glowAmber)"/>
  <text x="699" y="278" fill="#0C0E1A" font-size="18" font-weight="700" text-anchor="middle">4</text>
  <text x="699" y="298" fill="#0C0E1A" font-size="10" font-weight="600" text-anchor="middle">$17.35 ea</text>
  <use href="#adminGear" x="730" y="242" width="14" height="14"/>

  <use href="#splitOptionBtn" x="454" y="320" width="90" height="56"/>
  <text x="499" y="344" fill="#CBD5E1" font-size="18" font-weight="700" text-anchor="middle">5</text>
  <text x="499" y="364" fill="#475569" font-size="10" text-anchor="middle">$13.88 ea</text>

  <use href="#splitOptionBtn" x="554" y="320" width="90" height="56"/>
  <text x="599" y="344" fill="#CBD5E1" font-size="18" font-weight="700" text-anchor="middle">6</text>
  <text x="599" y="364" fill="#475569" font-size="10" text-anchor="middle">$11.57 ea</text>

  <use href="#splitOptionBtn" x="654" y="320" width="90" height="56"/>
  <text x="699" y="344" fill="#CBD5E1" font-size="18" font-weight="700" text-anchor="middle">7</text>
  <text x="699" y="364" fill="#475569" font-size="10" text-anchor="middle">$9.91 ea</text>

  <use href="#splitOptionBtn" x="454" y="386" width="90" height="56"/>
  <text x="499" y="410" fill="#CBD5E1" font-size="18" font-weight="700" text-anchor="middle">8</text>
  <text x="499" y="430" fill="#475569" font-size="10" text-anchor="middle">$8.67 ea</text>

  <use href="#splitOptionBtn" x="554" y="386" width="90" height="56"/>
  <text x="599" y="410" fill="#CBD5E1" font-size="18" font-weight="700" text-anchor="middle">9</text>
  <text x="599" y="430" fill="#475569" font-size="10" text-anchor="middle">$7.71 ea</text>

  <use href="#splitOptionBtn" x="654" y="386" width="90" height="56"/>
  <text x="699" y="410" fill="#CBD5E1" font-size="18" font-weight="700" text-anchor="middle">10</text>
  <text x="699" y="430" fill="#475569" font-size="10" text-anchor="middle">$6.94 ea</text>

  <use href="#splitOptionBtnWide" x="454" y="452" width="140" height="56"/>
  <text x="524" y="476" fill="#CBD5E1" font-size="18" font-weight="700" text-anchor="middle">11</text>
  <text x="524" y="496" fill="#475569" font-size="10" text-anchor="middle">$6.31 ea</text>

  <use href="#splitOptionBtnWide" x="604" y="452" width="140" height="56"/>
  <text x="674" y="476" fill="#CBD5E1" font-size="18" font-weight="700" text-anchor="middle">12</text>
  <text x="674" y="496" fill="#475569" font-size="10" text-anchor="middle">$5.78 ea</text>

  <!-- Divider -->
  <rect x="460" y="524" width="290" height="1" fill="#1E2235"/>

  <!-- Selected split preview -->
  <text x="460" y="550" fill="#F59E0B" font-size="13" font-weight="700">Selected: 4-Way Even Split</text>

  <rect x="454" y="562" width="302" height="64" rx="10" fill="#0C0E1A" stroke="#F59E0B" stroke-width="1"/>
  <text x="605" y="586" fill="#E2E8F0" font-size="22" font-weight="700" text-anchor="middle">$17.35</text>
  <text x="605" y="608" fill="#94A3B8" font-size="12" text-anchor="middle">per person (incl. tax + 20% tip)</text>

  <!-- Divider -->
  <rect x="460" y="640" width="290" height="1" fill="#1E2235"/>

  <!-- By Seat preview -->
  <text x="460" y="668" fill="#64748B" font-size="11" font-weight="700" letter-spacing="1">BY SEAT PREVIEW</text>
  <text x="460" y="688" fill="#475569" font-size="12">Assign items to individual guests</text>

  <!-- Seat assignment rows using symbol -->
  <use href="#seatAssignRow" x="454" y="700" width="302" height="38"/>
  <circle cx="478" cy="719" r="10" fill="#F59E0B"/>
  <text x="478" y="723" fill="#0C0E1A" font-size="9" font-weight="700" text-anchor="middle">M</text>
  <text x="496" y="724" fill="#CBD5E1" font-size="12">Maria — drag items to assign</text>

  <use href="#seatAssignRow" x="454" y="744" width="302" height="38"/>
  <circle cx="478" cy="763" r="10" fill="#3B82F6"/>
  <text x="478" y="767" fill="white" font-size="9" font-weight="700" text-anchor="middle">J</text>
  <text x="496" y="768" fill="#CBD5E1" font-size="12">James — drag items to assign</text>

  <use href="#seatAssignRow" x="454" y="788" width="302" height="38"/>
  <circle cx="478" cy="807" r="10" fill="#22C55E"/>
  <text x="478" y="811" fill="white" font-size="9" font-weight="700" text-anchor="middle">S</text>
  <text x="496" y="812" fill="#CBD5E1" font-size="12">Sarah — drag items to assign</text>

  <use href="#seatAssignRow" x="454" y="832" width="302" height="38"/>
  <circle cx="478" cy="851" r="10" fill="#A855F7"/>
  <text x="478" y="855" fill="white" font-size="9" font-weight="700" text-anchor="middle">L</text>
  <text x="496" y="856" fill="#CBD5E1" font-size="12">Lisa — drag items to assign</text>

  <!-- Divider -->
  <rect x="460" y="884" width="290" height="1" fill="#1E2235"/>

  <!-- Custom amounts link -->
  <text x="460" y="910" fill="#64748B" font-size="11" font-weight="700" letter-spacing="1">CUSTOM AMOUNTS</text>
  <text x="460" y="930" fill="#475569" font-size="12">Enter specific dollar amounts per guest</text>

  <!-- Apply Split button -->
  <rect x="454" y="948" width="302" height="44" rx="10" fill="url(#amberBtnGrad)" filter="url(#btnShadow)"/>
  <text x="605" y="975" fill="#0C0E1A" font-size="14" font-weight="700" text-anchor="middle">Apply 4-Way Split</text>

  <!-- ====================================================================== -->
  <!-- RIGHT PANEL: Split Preview — Each Portion                               -->
  <!-- ====================================================================== -->
  <rect x="784" y="96" width="530" height="890" rx="14" fill="url(#panelGrad)" filter="url(#cardShadow)"/>
  <rect x="784" y="96" width="530" height="890" rx="14" fill="none" stroke="#1E2235" stroke-width="1"/>

  <!-- Panel header -->
  <rect x="784" y="96" width="530" height="44" rx="14" fill="#1A1D2E"/>
  <rect x="784" y="126" width="530" height="14" fill="#1A1D2E"/>
  <text x="804" y="124" fill="#64748B" font-size="11" font-weight="700" letter-spacing="1.2">SPLIT PREVIEW</text>
  <text x="1294" y="124" fill="#475569" font-size="11" text-anchor="end">4 portions</text>

  <!-- ===== Portion 1: Maria — PAID ===== -->
  <rect x="798" y="150" width="248" height="306" rx="12" fill="#0C0E1A" stroke="#22C55E" stroke-width="1.5" filter="url(#cardShadow)"/>
  <!-- Header -->
  <rect x="798" y="150" width="248" height="46" rx="12" fill="url(#seatGreenBg)"/>
  <rect x="798" y="184" width="248" height="12" fill="url(#seatGreenBg)"/>
  <circle cx="822" cy="173" r="14" fill="#22C55E"/>
  <text x="822" y="177" fill="white" font-size="11" font-weight="700" text-anchor="middle">M</text>
  <text x="844" y="170" fill="#22C55E" font-size="14" font-weight="700">Maria</text>
  <text x="844" y="186" fill="#64748B" font-size="11">Portion 1 of 4</text>

  <!-- Items -->
  <text x="812" y="218" fill="#CBD5E1" font-size="12">Even split (1/4)</text>
  <text x="1032" y="218" fill="#CBD5E1" font-size="12" text-anchor="end">$13.50</text>
  <text x="812" y="236" fill="#64748B" font-size="11">7 items shared equally</text>

  <rect x="812" y="252" width="224" height="1" fill="#1E2235"/>

  <text x="812" y="270" fill="#94A3B8" font-size="11">Subtotal</text>
  <text x="1032" y="270" fill="#CBD5E1" font-size="11" text-anchor="end">$13.50</text>
  <text x="812" y="286" fill="#94A3B8" font-size="11">Tax</text>
  <text x="1032" y="286" fill="#CBD5E1" font-size="11" text-anchor="end">$1.15</text>
  <text x="812" y="302" fill="#94A3B8" font-size="11">Tip (20%)</text>
  <text x="1032" y="302" fill="#CBD5E1" font-size="11" text-anchor="end">$2.70</text>

  <rect x="812" y="310" width="224" height="1" fill="#2A2E45"/>

  <text x="812" y="330" fill="#E2E8F0" font-size="14" font-weight="700">Total</text>
  <text x="1032" y="330" fill="#F59E0B" font-size="16" font-weight="700" text-anchor="end">$17.35</text>

  <!-- Payment status: PAID -->
  <use href="#badgePaid" x="812" y="342" width="224" height="32"/>
  <text x="924" y="363" fill="#4ADE80" font-size="12" font-weight="700" text-anchor="middle">PAID  ·  Visa ****4821</text>

  <!-- Receipt actions -->
  <text x="924" y="392" fill="#22C55E" font-size="11" text-anchor="middle">SMS Receipt Sent</text>
  <use href="#receiptActionBtn" x="812" y="400" width="108" height="26"/>
  <text x="866" y="417" fill="#64748B" font-size="10" text-anchor="middle">Print</text>
  <use href="#receiptActionBtn" x="928" y="400" width="108" height="26"/>
  <text x="982" y="417" fill="#64748B" font-size="10" text-anchor="middle">Email</text>

  <!-- ===== Portion 2: James — PROCESSING ===== -->
  <rect x="1060" y="150" width="248" height="306" rx="12" fill="#0C0E1A" stroke="#60A5FA" stroke-width="1.5" filter="url(#cardShadow)"/>
  <!-- Header -->
  <rect x="1060" y="150" width="248" height="46" rx="12" fill="url(#seatBlueBg)"/>
  <rect x="1060" y="184" width="248" height="12" fill="url(#seatBlueBg)"/>
  <circle cx="1084" cy="173" r="14" fill="#3B82F6"/>
  <text x="1084" y="177" fill="white" font-size="11" font-weight="700" text-anchor="middle">J</text>
  <text x="1106" y="170" fill="#60A5FA" font-size="14" font-weight="700">James</text>
  <text x="1106" y="186" fill="#64748B" font-size="11">Portion 2 of 4</text>

  <!-- Items -->
  <text x="1074" y="218" fill="#CBD5E1" font-size="12">Even split (1/4)</text>
  <text x="1294" y="218" fill="#CBD5E1" font-size="12" text-anchor="end">$13.50</text>
  <text x="1074" y="236" fill="#64748B" font-size="11">7 items shared equally</text>

  <rect x="1074" y="252" width="224" height="1" fill="#1E2235"/>

  <text x="1074" y="270" fill="#94A3B8" font-size="11">Subtotal</text>
  <text x="1294" y="270" fill="#CBD5E1" font-size="11" text-anchor="end">$13.50</text>
  <text x="1074" y="286" fill="#94A3B8" font-size="11">Tax</text>
  <text x="1294" y="286" fill="#CBD5E1" font-size="11" text-anchor="end">$1.15</text>
  <text x="1074" y="302" fill="#94A3B8" font-size="11">Tip (20%)</text>
  <text x="1294" y="302" fill="#CBD5E1" font-size="11" text-anchor="end">$2.70</text>

  <rect x="1074" y="310" width="224" height="1" fill="#2A2E45"/>

  <text x="1074" y="330" fill="#E2E8F0" font-size="14" font-weight="700">Total</text>
  <text x="1294" y="330" fill="#F59E0B" font-size="16" font-weight="700" text-anchor="end">$17.35</text>

  <!-- Payment status: PROCESSING -->
  <use href="#badgeProcessing" x="1074" y="342" width="224" height="32"/>
  <text x="1186" y="363" fill="#60A5FA" font-size="12" font-weight="700" text-anchor="middle">PROCESSING...</text>

  <!-- Spinner dots -->
  <circle cx="1156" cy="396" r="3" fill="#60A5FA" opacity="0.4"/>
  <circle cx="1172" cy="396" r="3" fill="#60A5FA" opacity="0.7"/>
  <circle cx="1188" cy="396" r="3" fill="#60A5FA" opacity="1"/>
  <circle cx="1204" cy="396" r="3" fill="#60A5FA" opacity="0.7"/>
  <circle cx="1220" cy="396" r="3" fill="#60A5FA" opacity="0.4"/>
  <text x="1186" y="420" fill="#475569" font-size="11" text-anchor="middle">Apple Pay — Tap pending</text>

  <!-- ===== Portion 3: Sarah — UNPAID ===== -->
  <rect x="798" y="470" width="248" height="276" rx="12" fill="#0C0E1A" stroke="#2A2E45" stroke-width="1" filter="url(#cardShadow)"/>
  <!-- Header -->
  <rect x="798" y="470" width="248" height="46" rx="12" fill="#1A1D2E"/>
  <rect x="798" y="504" width="248" height="12" fill="#1A1D2E"/>
  <circle cx="822" cy="493" r="14" fill="#22C55E"/>
  <text x="822" y="497" fill="white" font-size="11" font-weight="700" text-anchor="middle">S</text>
  <text x="844" y="490" fill="#CBD5E1" font-size="14" font-weight="600">Sarah</text>
  <text x="844" y="506" fill="#64748B" font-size="11">Portion 3 of 4</text>

  <!-- Items -->
  <text x="812" y="536" fill="#CBD5E1" font-size="12">Even split (1/4)</text>
  <text x="1032" y="536" fill="#CBD5E1" font-size="12" text-anchor="end">$13.50</text>
  <text x="812" y="554" fill="#64748B" font-size="11">7 items shared equally</text>

  <rect x="812" y="568" width="224" height="1" fill="#1E2235"/>

  <text x="812" y="586" fill="#94A3B8" font-size="11">Subtotal</text>
  <text x="1032" y="586" fill="#CBD5E1" font-size="11" text-anchor="end">$13.50</text>
  <text x="812" y="602" fill="#94A3B8" font-size="11">Tax</text>
  <text x="1032" y="602" fill="#CBD5E1" font-size="11" text-anchor="end">$1.15</text>
  <text x="812" y="618" fill="#94A3B8" font-size="11">Tip (20%)</text>
  <text x="1032" y="618" fill="#CBD5E1" font-size="11" text-anchor="end">$2.70</text>

  <rect x="812" y="626" width="224" height="1" fill="#2A2E45"/>

  <text x="812" y="646" fill="#E2E8F0" font-size="14" font-weight="700">Total</text>
  <text x="1032" y="646" fill="#F59E0B" font-size="16" font-weight="700" text-anchor="end">$17.35</text>

  <!-- Payment status: UNPAID — Charge button -->
  <use href="#chargeBtn" x="812" y="658" width="224" height="36" filter="url(#btnShadow)"/>
  <text x="924" y="681" fill="white" font-size="13" font-weight="700" text-anchor="middle">Charge $17.35</text>

  <!-- Unpaid badge -->
  <use href="#badgeUnpaid" x="812" y="702" width="224" height="22"/>
  <text x="924" y="717" fill="#F59E0B" font-size="10" font-weight="600" text-anchor="middle">UNPAID</text>

  <!-- ===== Portion 4: Lisa — UNPAID ===== -->
  <rect x="1060" y="470" width="248" height="276" rx="12" fill="#0C0E1A" stroke="#2A2E45" stroke-width="1" filter="url(#cardShadow)"/>
  <!-- Header -->
  <rect x="1060" y="470" width="248" height="46" rx="12" fill="url(#seatPurpleBg)"/>
  <rect x="1060" y="504" width="248" height="12" fill="url(#seatPurpleBg)"/>
  <circle cx="1084" cy="493" r="14" fill="#A855F7"/>
  <text x="1084" y="497" fill="white" font-size="11" font-weight="700" text-anchor="middle">L</text>
  <text x="1106" y="490" fill="#A855F7" font-size="14" font-weight="700">Lisa</text>
  <text x="1106" y="506" fill="#64748B" font-size="11">Portion 4 of 4</text>

  <!-- Items -->
  <text x="1074" y="536" fill="#CBD5E1" font-size="12">Even split (1/4)</text>
  <text x="1294" y="536" fill="#CBD5E1" font-size="12" text-anchor="end">$13.50</text>
  <text x="1074" y="554" fill="#64748B" font-size="11">7 items shared equally</text>

  <rect x="1074" y="568" width="224" height="1" fill="#1E2235"/>

  <text x="1074" y="586" fill="#94A3B8" font-size="11">Subtotal</text>
  <text x="1294" y="586" fill="#CBD5E1" font-size="11" text-anchor="end">$13.50</text>
  <text x="1074" y="602" fill="#94A3B8" font-size="11">Tax</text>
  <text x="1294" y="602" fill="#CBD5E1" font-size="11" text-anchor="end">$1.14</text>
  <text x="1074" y="618" fill="#94A3B8" font-size="11">Tip (20%)</text>
  <text x="1294" y="618" fill="#CBD5E1" font-size="11" text-anchor="end">$2.70</text>

  <rect x="1074" y="626" width="224" height="1" fill="#2A2E45"/>

  <text x="1074" y="646" fill="#E2E8F0" font-size="14" font-weight="700">Total</text>
  <text x="1294" y="646" fill="#F59E0B" font-size="16" font-weight="700" text-anchor="end">$17.34</text>

  <!-- Payment status: UNPAID — Charge button -->
  <use href="#chargeBtn" x="1074" y="658" width="224" height="36" filter="url(#btnShadow)"/>
  <text x="1186" y="681" fill="white" font-size="13" font-weight="700" text-anchor="middle">Charge $17.34</text>

  <!-- Unpaid badge -->
  <use href="#badgeUnpaid" x="1074" y="702" width="224" height="22"/>
  <text x="1186" y="717" fill="#F59E0B" font-size="10" font-weight="600" text-anchor="middle">UNPAID</text>

  <!-- ===== Summary bar at bottom of right panel ===== -->
  <rect x="798" y="760" width="510" height="1" fill="#2A2E45"/>

  <!-- Collection progress -->
  <text x="812" y="786" fill="#64748B" font-size="11" font-weight="700" letter-spacing="1">COLLECTION PROGRESS</text>

  <!-- Progress bar background -->
  <rect x="812" y="796" width="482" height="8" rx="4" fill="#1E2235"/>
  <!-- Progress bar fill (1 of 4 paid = 25%) -->
  <rect x="812" y="796" width="120" height="8" rx="4" fill="#22C55E" filter="url(#glowGreen)"/>
  <!-- Processing portion -->
  <rect x="932" y="796" width="121" height="8" rx="4" fill="#3B82F6" opacity="0.6"/>

  <!-- Stats row -->
  <text x="812" y="826" fill="#94A3B8" font-size="12">Collected</text>
  <text x="940" y="826" fill="#22C55E" font-size="14" font-weight="700">$17.35</text>
  <text x="1010" y="826" fill="#94A3B8" font-size="12">Processing</text>
  <text x="1120" y="826" fill="#60A5FA" font-size="14" font-weight="700">$17.35</text>
  <text x="1190" y="826" fill="#94A3B8" font-size="12">Remaining</text>
  <text x="1294" y="826" fill="#F59E0B" font-size="14" font-weight="700" text-anchor="end">$34.69</text>

  <!-- Total line -->
  <rect x="812" y="840" width="482" height="1" fill="#1E2235"/>
  <text x="812" y="866" fill="#E2E8F0" font-size="16" font-weight="700">Grand Total</text>
  <text x="1294" y="866" fill="#F59E0B" font-size="22" font-weight="700" text-anchor="end" filter="url(#glowAmber)">$69.39</text>

  <!-- Action buttons -->
  <!-- Admin: Action buttons — configurable: receipt options, recombine policy -->
  <rect x="812" y="882" width="154" height="40" rx="8" fill="#1E2235" stroke="#2A2E45" stroke-width="1"/>
  <text x="889" y="907" fill="#64748B" font-size="12" font-weight="500" text-anchor="middle">Print All</text>

  <rect x="976" y="882" width="154" height="40" rx="8" fill="#1E2235" stroke="#2A2E45" stroke-width="1"/>
  <text x="1053" y="907" fill="#64748B" font-size="12" font-weight="500" text-anchor="middle">Recombine</text>

  <rect x="1140" y="882" width="154" height="40" rx="8" fill="url(#greenBtnGrad)" filter="url(#btnShadow)"/>
  <text x="1217" y="907" fill="white" font-size="12" font-weight="700" text-anchor="middle">Charge All</text>
  <use href="#adminGear" x="1280" y="884" width="14" height="14"/>

  <!-- ======================== BOTTOM BAR ======================== -->
  <rect x="40" y="940" width="1286" height="64" rx="0" fill="#1A1D2E"/>
  <rect x="40" y="984" width="1286" height="20" rx="20" fill="#1A1D2E"/>
  <rect x="40" y="940" width="1286" height="1" fill="#1E2235"/>

  <!-- Bottom bar content -->
  <use href="#bottomBarBtn" x="60" y="952" width="200" height="40"/>
  <text x="160" y="977" fill="#94A3B8" font-size="13" text-anchor="middle">Cancel Split</text>

  <use href="#bottomBarBtn" x="274" y="952" width="200" height="40"/>
  <text x="374" y="977" fill="#94A3B8" font-size="13" text-anchor="middle">Reassign Items</text>

  <use href="#bottomBarBtn" x="488" y="952" width="200" height="40"/>
  <text x="588" y="977" fill="#94A3B8" font-size="13" text-anchor="middle">Add Guest</text>

  <!-- Admin: Charge next button — configurable: auto-advance behavior -->
  <rect x="988" y="952" width="326" height="40" rx="8" fill="url(#greenBtnGrad)" filter="url(#btnShadow)"/>
  <text x="1151" y="977" fill="white" font-size="14" font-weight="700" text-anchor="middle">Charge Next Unpaid  &#x2192;  $17.35</text>
  <use href="#adminGear" x="1300" y="954" width="14" height="14"/>

  <!-- Screen label -->
  <text x="683" y="1018" fill="#1E2235" font-size="10" text-anchor="middle">Synalux POS  ·  Split Check  ·  F08 Order Ops  ·  F09 Payment Ops  ·  iPad Landscape 1366x1024</text>
</svg>