<svg role="img" aria-labelledby="title-ipad_refund-svg" xmlns="http://www.w3.org/2000/svg" viewBox="0 0 1366 1024"
     font-family="-apple-system,BlinkMacSystemFont,'SF Pro Display','Segoe UI',sans-serif">

  <!-- ═══════════════════════════════════════════════════════════════ -->
  <!-- DEFINITIONS: Gradients, Shadows, Filters                       -->
  <!-- ═══════════════════════════════════════════════════════════════ -->
  <title id="title-ipad_refund-svg">Synalux POS — refund</title>
  <desc>Synalux POS mockup screen for refund. All UI elements admin-configurable.</desc>
  <defs>
    <linearGradient id="bgGrad" x1="0" y1="0" x2="0" y2="1">
      <stop offset="0%" stop-color="#0C0E1A"/>
      <stop offset="100%" stop-color="#0A0C16"/>
    </linearGradient>
    <linearGradient id="cardGrad" x1="0" y1="0" x2="0" y2="1">
      <stop offset="0%" stop-color="#1A1D2E"/>
      <stop offset="100%" stop-color="#161930"/>
    </linearGradient>
    <linearGradient id="navGrad" x1="0" y1="0" x2="0" y2="1">
      <stop offset="0%" stop-color="#1E2135"/>
      <stop offset="100%" stop-color="#161930"/>
    </linearGradient>
    <linearGradient id="amberHeaderGrad" x1="0" y1="0" x2="1" y2="0">
      <stop offset="0%" stop-color="#F59E0B"/>
      <stop offset="100%" stop-color="#D97706"/>
    </linearGradient>
    <linearGradient id="redBtnGrad" x1="0" y1="0" x2="0" y2="1">
      <stop offset="0%" stop-color="#EF4444"/>
      <stop offset="100%" stop-color="#DC2626"/>
    </linearGradient>
    <linearGradient id="authHeaderGrad" x1="0" y1="0" x2="0" y2="1">
      <stop offset="0%" stop-color="#2D2410"/>
      <stop offset="100%" stop-color="#1F1A0A"/>
    </linearGradient>
    <linearGradient id="greenBadgeGrad" x1="0" y1="0" x2="0" y2="1">
      <stop offset="0%" stop-color="#0F2B1F"/>
      <stop offset="100%" stop-color="#0A1F15"/>
    </linearGradient>
    <linearGradient id="amberBadgeGrad" x1="0" y1="0" x2="0" y2="1">
      <stop offset="0%" stop-color="#2D1F05"/>
      <stop offset="100%" stop-color="#1F1503"/>
    </linearGradient>
    <linearGradient id="sectionHeaderGrad" x1="0" y1="0" x2="0" y2="1">
      <stop offset="0%" stop-color="#252840"/>
      <stop offset="100%" stop-color="#1E2038"/>
    </linearGradient>
    <linearGradient id="logoGrad" x1="0" y1="0" x2="1" y2="1">
      <stop offset="0%" stop-color="#F59E0B"/>
      <stop offset="100%" stop-color="#D97706"/>
    </linearGradient>
    <linearGradient id="receiptGrad" x1="0" y1="0" x2="0" y2="1">
      <stop offset="0%" stop-color="#1A1D2E"/>
      <stop offset="100%" stop-color="#151828"/>
    </linearGradient>
    <linearGradient id="flowPanelGrad" x1="0" y1="0" x2="0" y2="1">
      <stop offset="0%" stop-color="#1A1D2E"/>
      <stop offset="100%" stop-color="#141725"/>
    </linearGradient>

    <filter id="cardShadow" x="-4%" y="-4%" width="108%" height="112%">
      <feDropShadow dx="0" dy="2" stdDeviation="6" flood-color="#000000" flood-opacity="0.35"/>
    </filter>
    <filter id="btnShadow" x="-6%" y="-10%" width="112%" height="130%">
      <feDropShadow dx="0" dy="3" stdDeviation="8" flood-color="#EF4444" flood-opacity="0.4"/>
    </filter>
    <filter id="amberGlow" x="-8%" y="-8%" width="116%" height="116%">
      <feDropShadow dx="0" dy="1" stdDeviation="4" flood-color="#F59E0B" flood-opacity="0.3"/>
    </filter>
    <filter id="subtleShadow" x="-2%" y="-2%" width="104%" height="108%">
      <feDropShadow dx="0" dy="1" stdDeviation="3" flood-color="#000000" flood-opacity="0.25"/>
    </filter>

    <!-- ═══════════════════════════════════════════════════════════════ -->
    <!-- REUSABLE SYMBOLS                                               -->
    <!-- ═══════════════════════════════════════════════════════════════ -->

    <!-- Admin gear icon -->
    <symbol id="adminGear" viewBox="0 0 14 14">
      <circle cx="7" cy="7" r="2.5" fill="none" stroke="#F59E0B" stroke-width="0.8" opacity="0.3"/>
      <path d="M7 1v1.5M7 11.5V13M1 7h1.5M11.5 7H13M2.8 2.8l1 1M10.2 10.2l1 1M2.8 11.2l1-1M10.2 3.8l1-1" stroke="#F59E0B" stroke-width="0.6" stroke-linecap="round" opacity="0.3"/>
    </symbol>

    <!-- Checked item checkbox -->
    <symbol id="checkedBox" viewBox="0 0 18 18">
      <rect x="0" y="0" width="18" height="18" rx="4" fill="#F59E0B"/>
      <path d="M4,9 L7,12 L14,5" fill="none" stroke="#0C0E1A" stroke-width="2" stroke-linecap="round" stroke-linejoin="round"/>
    </symbol>

    <!-- Unchecked item checkbox -->
    <symbol id="uncheckedBox" viewBox="0 0 18 18">
      <rect x="0" y="0" width="18" height="18" rx="4" fill="none" stroke="#475569" stroke-width="1.5"/>
    </symbol>

    <!-- Reason code option pill -->
    <symbol id="reasonOption" viewBox="0 0 442 32">
      <rect x="0" y="0" width="442" height="32" rx="6" fill="#0C0E1A" stroke="#F59E0B" stroke-width="1.5"/>
    </symbol>

    <!-- Action button base -->
    <symbol id="actionBtn" viewBox="0 0 300 44">
      <rect x="0" y="0" width="300" height="44" rx="10"/>
    </symbol>

    <!-- Order lookup field -->
    <symbol id="lookupField" viewBox="0 0 190 30">
      <rect x="0" y="0" width="190" height="30" rx="6" fill="#0C0E1A" stroke="#2A2E45" stroke-width="1"/>
    </symbol>
  </defs>

  <!-- ═══════════════════════════════════════════════════════════════ -->
  <!-- BACKGROUND                                                      -->
  <!-- ═══════════════════════════════════════════════════════════════ -->
  <rect width="1366" height="1024" fill="url(#bgGrad)"/>

  <!-- ═══════════════════════════════════════════════════════════════ -->
  <!-- TOP NAV BAR (h=56)                                              -->
  <!-- ═══════════════════════════════════════════════════════════════ -->
  <rect x="0" y="0" width="1366" height="56" fill="url(#navGrad)"/>
  <rect x="0" y="55" width="1366" height="1" fill="#1E2235" opacity="0.8"/>

  <!-- Logo -->
  <rect x="16" y="12" width="32" height="32" rx="8" fill="url(#logoGrad)" filter="url(#subtleShadow)"/>
  <text x="32" y="34" fill="#0C0E1A" font-size="16" font-weight="800" text-anchor="middle">S</text>
  <text x="56" y="31" fill="#E2E8F0" font-size="15" font-weight="700">Synalux</text>
  <text x="116" y="31" fill="#64748B" font-size="15" font-weight="400">POS</text>

  <!-- Nav tabs -->
  <rect x="200" y="10" width="90" height="36" rx="8" fill="none"/>
  <text x="245" y="33" fill="#64748B" font-size="13" font-weight="500" text-anchor="middle">Register</text>

  <rect x="298" y="10" width="80" height="36" rx="8" fill="none"/>
  <text x="338" y="33" fill="#64748B" font-size="13" font-weight="500" text-anchor="middle">Tables</text>

  <rect x="386" y="10" width="80" height="36" rx="8" fill="none"/>
  <text x="426" y="33" fill="#64748B" font-size="13" font-weight="500" text-anchor="middle">Reports</text>

  <!-- Active: Refunds -->
  <rect x="474" y="10" width="90" height="36" rx="8" fill="#F59E0B" filter="url(#amberGlow)"/>
  <text x="519" y="33" fill="#0C0E1A" font-size="13" font-weight="700" text-anchor="middle">Refunds</text>

  <!-- Right side nav -->
  <text x="1090" y="33" fill="#E2E8F0" font-size="13" font-weight="600">Dmitri (Owner)</text>
  <text x="1230" y="33" fill="#94A3B8" font-size="13">3:00 PM</text>
  <path d="M1320,30 Q1329,20 1338,30" fill="none" stroke="#22C55E" stroke-width="2" stroke-linecap="round"/>
  <path d="M1323,34 Q1329,28 1335,34" fill="none" stroke="#22C55E" stroke-width="1.5" stroke-linecap="round"/>
  <circle cx="1329" cy="38" r="2" fill="#22C55E"/>
  <text x="1345" y="36" fill="#22C55E" font-size="10" font-weight="600">Online</text>

  <!-- ═══════════════════════════════════════════════════════════════ -->
  <!-- HEADER STRIP (amber accent bar, h=48)                          -->
  <!-- Admin: refund_auth_threshold, audit_trail_enabled               -->
  <!-- ═══════════════════════════════════════════════════════════════ -->
  <rect x="0" y="56" width="1366" height="48" fill="url(#amberHeaderGrad)"/>
  <text x="683" y="76" fill="#0C0E1A" font-size="14" font-weight="700" text-anchor="middle">Refund — Post-Settlement</text>
  <text x="683" y="95" fill="#78350F" font-size="11" font-weight="600" text-anchor="middle">Manager authorization required for Wrong Item refunds  |  Audit trail enabled</text>
  <use href="#adminGear" x="940" y="78" width="14" height="14"/>

  <!-- ═══════════════════════════════════════════════════════════════ -->
  <!-- THREE COLUMN LAYOUT starts at y=104                             -->
  <!-- ═══════════════════════════════════════════════════════════════ -->

  <!-- Column dividers -->
  <rect x="454" y="104" width="1" height="920" fill="#1E2235"/>
  <rect x="940" y="104" width="1" height="920" fill="#1E2235"/>

  <!-- ═══════════════════════════════════════════════════════════════ -->
  <!-- LEFT COLUMN: Order Lookup + Item Selection                      -->
  <!-- ═══════════════════════════════════════════════════════════════ -->

  <text x="16" y="130" fill="#E2E8F0" font-size="14" font-weight="700">Original Order Lookup</text>

  <!-- Lookup card -->
  <rect x="12" y="140" width="430" height="120" rx="10" fill="url(#cardGrad)" stroke="#1E2235" stroke-width="1" filter="url(#subtleShadow)"/>

  <!-- Receipt # field -->
  <text x="24" y="162" fill="#94A3B8" font-size="11" font-weight="600">RECEIPT #</text>
  <use href="#lookupField" x="24" y="167" width="190" height="30"/>
  <text x="34" y="187" fill="#E2E8F0" font-size="12" font-weight="600">#0839</text>
  <rect x="168" y="175" width="40" height="16" rx="4" fill="#22C55E" opacity="0.15"/>
  <text x="188" y="186" fill="#22C55E" font-size="9" font-weight="700" text-anchor="middle">Found</text>

  <!-- Date field -->
  <text x="230" y="162" fill="#94A3B8" font-size="11" font-weight="600">DATE</text>
  <rect x="230" y="167" width="100" height="30" rx="6" fill="#0C0E1A" stroke="#2A2E45" stroke-width="1"/>
  <text x="240" y="187" fill="#CBD5E1" font-size="12">May 29</text>

  <!-- Card last 4 -->
  <text x="346" y="162" fill="#94A3B8" font-size="11" font-weight="600">CARD LAST 4</text>
  <rect x="346" y="167" width="84" height="30" rx="6" fill="#0C0E1A" stroke="#2A2E45" stroke-width="1"/>
  <text x="356" y="187" fill="#CBD5E1" font-size="12">4521</text>

  <!-- Found order summary -->
  <rect x="24" y="205" width="406" height="1" fill="#1E2235"/>
  <text x="24" y="222" fill="#94A3B8" font-size="11">Table 2  |  Closed May 29, 2:30 PM  |  Visa ....4521</text>
  <text x="24" y="238" fill="#CBD5E1" font-size="11">Original total: <tspan font-weight="700" fill="#E2E8F0">$21.70</tspan>  |  Payment: <tspan font-weight="700" fill="#E2E8F0">$25.70</tspan> (incl. $4.00 tip)</text>
  <text x="24" y="252" fill="#64748B" font-size="10">Stripe PI: pi_3Nk8Uc...9f2b  |  Settled</text>

  <!-- SELECT ITEMS SECTION -->
  <text x="16" y="282" fill="#E2E8F0" font-size="14" font-weight="700">Select Items to Refund</text>
  <text x="16" y="296" fill="#94A3B8" font-size="11">Tap items to include in partial refund</text>

  <!-- Item 1: Classic Burger (CHECKED) -->
  <rect x="12" y="304" width="430" height="56" rx="8" fill="url(#cardGrad)" stroke="#F59E0B" stroke-width="1.5" filter="url(#subtleShadow)"/>
  <use href="#checkedBox" x="24" y="318" width="18" height="18"/>
  <text x="50" y="331" fill="#E2E8F0" font-size="13" font-weight="600">Classic Burger</text>
  <text x="434" y="331" fill="#E2E8F0" font-size="13" font-weight="600" text-anchor="end">$12.00</text>
  <text x="50" y="349" fill="#94A3B8" font-size="10">Refund:</text>
  <rect x="88" y="339" width="68" height="18" rx="4" fill="#0C0E1A" stroke="#2A2E45" stroke-width="1"/>
  <text x="122" y="352" fill="#F59E0B" font-size="11" font-weight="700" text-anchor="middle">$12.00</text>

  <!-- Item 2: Caesar Salad (CHECKED) -->
  <rect x="12" y="370" width="430" height="56" rx="8" fill="url(#cardGrad)" stroke="#F59E0B" stroke-width="1.5" filter="url(#subtleShadow)"/>
  <use href="#checkedBox" x="24" y="384" width="18" height="18"/>
  <text x="50" y="397" fill="#E2E8F0" font-size="13" font-weight="600">Caesar Salad</text>
  <text x="434" y="397" fill="#E2E8F0" font-size="13" font-weight="600" text-anchor="end">$8.00</text>
  <text x="50" y="415" fill="#94A3B8" font-size="10">Refund:</text>
  <rect x="88" y="405" width="68" height="18" rx="4" fill="#0C0E1A" stroke="#2A2E45" stroke-width="1"/>
  <text x="122" y="418" fill="#F59E0B" font-size="11" font-weight="700" text-anchor="middle">$8.00</text>

  <!-- Divider -->
  <rect x="12" y="434" width="430" height="1" fill="#1E2235"/>

  <!-- TIP REFUND -->
  <text x="16" y="454" fill="#94A3B8" font-size="11" font-weight="700" letter-spacing="0.5">TIP REFUND</text>
  <rect x="12" y="462" width="430" height="36" rx="8" fill="url(#cardGrad)" stroke="#1E2235" stroke-width="1"/>
  <use href="#uncheckedBox" x="24" y="472" width="18" height="18"/>
  <text x="50" y="485" fill="#94A3B8" font-size="12">Include tip refund</text>
  <text x="300" y="485" fill="#64748B" font-size="12">$4.00</text>
  <text x="340" y="485" fill="#475569" font-size="10">(manager decision)</text>

  <!-- Divider -->
  <rect x="12" y="506" width="430" height="1" fill="#1E2235"/>

  <!-- TAX AUTO-CALC -->
  <!-- Admin: tax_rate (configurable per jurisdiction) -->
  <text x="16" y="526" fill="#94A3B8" font-size="11" font-weight="700" letter-spacing="0.5">TAX (AUTO-CALCULATED)</text>
  <use href="#adminGear" x="186" y="514" width="14" height="14"/>
  <rect x="12" y="534" width="430" height="60" rx="8" fill="url(#cardGrad)" stroke="#1E2235" stroke-width="1"/>
  <text x="24" y="554" fill="#94A3B8" font-size="12">Selected items subtotal:</text>
  <text x="434" y="554" fill="#E2E8F0" font-size="12" text-anchor="end">$20.00</text>
  <text x="24" y="572" fill="#94A3B8" font-size="12">Tax (8.5%):</text>
  <text x="434" y="572" fill="#E2E8F0" font-size="12" text-anchor="end">$1.70</text>
  <text x="24" y="590" fill="#E2E8F0" font-size="12" font-weight="700">Total refund amount:</text>
  <text x="434" y="590" fill="#22C55E" font-size="14" font-weight="800" text-anchor="end">$21.70</text>

  <!-- Partial refund note -->
  <rect x="12" y="602" width="430" height="44" rx="8" fill="#161930" stroke="#F59E0B" stroke-width="1"/>
  <text x="24" y="621" fill="#F59E0B" font-size="11" font-weight="700">Full Refund</text>
  <text x="24" y="637" fill="#94A3B8" font-size="10">All items selected for refund. Total: $21.70 returned to card ****4521.</text>

  <!-- VOID vs REFUND explanation -->
  <rect x="12" y="654" width="210" height="40" rx="6" fill="#161930" stroke="#8B5CF6" stroke-width="1"/>
  <text x="24" y="671" fill="#8B5CF6" font-size="10" font-weight="700">REFUND (post-settlement)</text>
  <text x="24" y="685" fill="#475569" font-size="9">Card settled. 3-7 day return.</text>

  <rect x="232" y="654" width="210" height="40" rx="6" fill="#161930" stroke="#1E2235" stroke-width="1"/>
  <text x="244" y="671" fill="#475569" font-size="10" font-weight="700">VOID (pre-settlement)</text>
  <text x="244" y="685" fill="#475569" font-size="9">Cancels capture. Instant.</text>

  <!-- REOPEN CLOSED CHECK -->
  <rect x="12" y="702" width="430" height="40" rx="8" fill="url(#cardGrad)" stroke="#60A5FA" stroke-width="1.5" filter="url(#subtleShadow)"/>
  <use href="#uncheckedBox" x="24" y="713" width="18" height="18"/>
  <text x="50" y="727" fill="#60A5FA" font-size="12" font-weight="600">Reopen closed check after refund</text>
  <text x="434" y="727" fill="#475569" font-size="10" text-anchor="end">Allows additional modifications</text>

  <!-- ═══════════════════════════════════════════════════════════════ -->
  <!-- MIDDLE COLUMN: Refund Summary + Authorization                   -->
  <!-- ═══════════════════════════════════════════════════════════════ -->

  <text x="470" y="130" fill="#E2E8F0" font-size="14" font-weight="700">Refund Summary</text>
  <text x="470" y="146" fill="#94A3B8" font-size="11">Review before processing</text>

  <!-- RECEIPT CARD -->
  <rect x="462" y="156" width="466" height="280" rx="12" fill="url(#receiptGrad)" stroke="#1E2235" stroke-width="1" filter="url(#cardShadow)"/>

  <rect x="462" y="156" width="466" height="40" rx="12" fill="url(#sectionHeaderGrad)"/>
  <rect x="462" y="180" width="466" height="16" fill="url(#sectionHeaderGrad)"/>
  <text x="695" y="182" fill="#E2E8F0" font-size="13" font-weight="700" text-anchor="middle">REFUND — Receipt #0839</text>

  <text x="695" y="214" fill="#94A3B8" font-size="11" text-anchor="middle">May 29, 2026 | Table 2 | Server: John S.</text>

  <rect x="474" y="224" width="442" height="1" fill="#1E2235"/>

  <text x="480" y="244" fill="#E2E8F0" font-size="12">Classic Burger x 1</text>
  <text x="910" y="244" fill="#E2E8F0" font-size="12" text-anchor="end">$12.00</text>

  <text x="480" y="262" fill="#E2E8F0" font-size="12">Caesar Salad x 1</text>
  <text x="910" y="262" fill="#E2E8F0" font-size="12" text-anchor="end">$8.00</text>

  <rect x="474" y="272" width="442" height="1" fill="#1E2235"/>

  <text x="480" y="292" fill="#94A3B8" font-size="12">Subtotal</text>
  <text x="910" y="292" fill="#CBD5E1" font-size="12" text-anchor="end">$20.00</text>

  <text x="480" y="310" fill="#94A3B8" font-size="12">Tax (8.5%)</text>
  <text x="910" y="310" fill="#CBD5E1" font-size="12" text-anchor="end">$1.70</text>

  <text x="480" y="328" fill="#94A3B8" font-size="12">Tip</text>
  <text x="910" y="328" fill="#475569" font-size="12" text-anchor="end">$0.00</text>

  <rect x="474" y="338" width="442" height="2" fill="#2A2E45"/>

  <text x="480" y="362" fill="#E2E8F0" font-size="16" font-weight="700">TOTAL REFUND</text>
  <text x="910" y="366" fill="#22C55E" font-size="22" font-weight="800" text-anchor="end">$21.70</text>

  <rect x="474" y="378" width="442" height="1" fill="#1E2235"/>

  <text x="480" y="397" fill="#94A3B8" font-size="11">Refund to:</text>
  <text x="560" y="397" fill="#E2E8F0" font-size="11" font-weight="600">Visa .... 4521 (original card)</text>

  <text x="480" y="413" fill="#94A3B8" font-size="11">Timeline:</text>
  <text x="560" y="413" fill="#F59E0B" font-size="11">3-7 business days</text>

  <text x="480" y="429" fill="#94A3B8" font-size="11">Processor:</text>
  <text x="560" y="429" fill="#CBD5E1" font-size="11">Stripe refunds.create()</text>

  <!-- REASON CODE DROPDOWN -->
  <!-- Admin: reason_codes (configurable list) -->
  <rect x="462" y="446" width="466" height="112" rx="10" fill="url(#cardGrad)" stroke="#1E2235" stroke-width="1" filter="url(#subtleShadow)"/>

  <text x="474" y="468" fill="#94A3B8" font-size="11" font-weight="700" letter-spacing="0.5">REASON CODE (REQUIRED)</text>
  <use href="#adminGear" x="640" y="456" width="14" height="14"/>

  <use href="#reasonOption" x="474" y="474" width="442" height="32"/>
  <text x="486" y="495" fill="#E2E8F0" font-size="12">Wrong Item Delivered</text>
  <text x="908" y="495" fill="#94A3B8" font-size="14" text-anchor="end">&#9662;</text>

  <text x="474" y="524" fill="#475569" font-size="10">Wrong Item | Quality Issue | Duplicate Charge | Customer Dissatisfied | Billing Error | Other</text>

  <text x="474" y="542" fill="#94A3B8" font-size="11" font-weight="600">INTERNAL NOTE</text>
  <rect x="474" y="548" width="442" height="26" rx="6" fill="#0C0E1A" stroke="#2A2E45" stroke-width="1"/>
  <text x="486" y="566" fill="#CBD5E1" font-size="11">Wrong item delivered to T2, full refund authorized</text>

  <!-- REFUND METHOD -->
  <rect x="462" y="584" width="466" height="86" rx="10" fill="url(#cardGrad)" stroke="#1E2235" stroke-width="1" filter="url(#subtleShadow)"/>
  <text x="474" y="604" fill="#94A3B8" font-size="11" font-weight="700" letter-spacing="0.5">REFUND METHOD</text>

  <!-- Radio: Original card (selected) -->
  <circle cx="484" cy="622" r="7" fill="none" stroke="#F59E0B" stroke-width="2"/>
  <circle cx="484" cy="622" r="4" fill="#F59E0B"/>
  <text x="498" y="626" fill="#E2E8F0" font-size="12" font-weight="600">Original card (recommended)</text>

  <!-- Radio: Cash -->
  <circle cx="484" cy="644" r="7" fill="none" stroke="#475569" stroke-width="1.5"/>
  <text x="498" y="648" fill="#94A3B8" font-size="12">Cash (requires cash in drawer)</text>

  <!-- Radio: Store credit -->
  <circle cx="700" cy="622" r="7" fill="none" stroke="#475569" stroke-width="1.5"/>
  <text x="714" y="626" fill="#94A3B8" font-size="12">Store credit / gift card</text>

  <!-- AUTHORIZATION PANEL -->
  <!-- Admin: auth_threshold, auth_pin_length (configurable) -->
  <rect x="462" y="680" width="466" height="195" rx="10" fill="url(#cardGrad)" stroke="#F59E0B" stroke-width="2" filter="url(#amberGlow)"/>
  <use href="#adminGear" x="910" y="684" width="14" height="14"/>

  <rect x="462" y="680" width="466" height="38" rx="10" fill="url(#authHeaderGrad)"/>
  <rect x="462" y="704" width="466" height="14" fill="url(#authHeaderGrad)"/>
  <rect x="634" y="689" width="12" height="10" rx="2" fill="#F59E0B"/>
  <path d="M636,695 L636,691 Q636,685 642,685 Q648,685 648,691 L648,695" fill="none" stroke="#F59E0B" stroke-width="1.5" stroke-linecap="round"/>
  <rect x="634" y="695" width="16" height="12" rx="2" fill="#F59E0B"/>
  <circle cx="642" cy="701" r="2" fill="#0C0E1A"/>
  <text x="658" y="704" fill="#F59E0B" font-size="13" font-weight="700">Manager Authorization Required</text>

  <text x="695" y="732" fill="#94A3B8" font-size="11" text-anchor="middle">Wrong Item refunds require manager PIN regardless of amount</text>
  <text x="695" y="748" fill="#E2E8F0" font-size="11" font-weight="600" text-anchor="middle">This refund: $21.70 — authorization required</text>

  <text x="474" y="768" fill="#94A3B8" font-size="10" font-weight="700" letter-spacing="0.5">MANAGER PIN</text>
  <rect x="474" y="774" width="180" height="34" rx="6" fill="#0C0E1A" stroke="#F59E0B" stroke-width="1.5"/>
  <circle cx="498" cy="791" r="5" fill="#F59E0B"/>
  <circle cx="520" cy="791" r="5" fill="#F59E0B"/>
  <circle cx="542" cy="791" r="5" fill="#F59E0B"/>
  <circle cx="564" cy="791" r="5" fill="#F59E0B"/>
  <text x="588" y="795" fill="#475569" font-size="10">4-digit PIN</text>

  <rect x="670" y="778" width="140" height="24" rx="6" fill="#22C55E" opacity="0.15"/>
  <text x="740" y="794" fill="#22C55E" font-size="11" font-weight="700" text-anchor="middle">Authorized (Sara R.)</text>

  <text x="474" y="826" fill="#475569" font-size="9">Audit: staff_id + reason + refund_id + amount logged to pos_audit_log (tamper-evident, immutable)</text>

  <!-- PROCESS REFUND BUTTON -->
  <g>
    <use href="#actionBtn" x="462" y="885" width="300" height="44" fill="url(#redBtnGrad)" filter="url(#btnShadow)"/>
    <rect x="462" y="885" width="300" height="44" rx="10" fill="url(#redBtnGrad)" filter="url(#btnShadow)"/>
    <text x="612" y="912" fill="#FFFFFF" font-size="14" font-weight="700" text-anchor="middle">Process Refund — $21.70</text>
  </g>

  <text x="612" y="935" fill="#EF4444" font-size="10" font-weight="600" text-anchor="middle">This action cannot be undone</text>

  <!-- CANCEL BUTTON -->
  <rect x="774" y="885" width="154" height="44" rx="10" fill="url(#cardGrad)" stroke="#2A2E45" stroke-width="1.5"/>
  <text x="851" y="912" fill="#94A3B8" font-size="14" font-weight="600" text-anchor="middle">Cancel</text>

  <!-- ═══════════════════════════════════════════════════════════════ -->
  <!-- RIGHT COLUMN: Recent Refunds + Status Flow                     -->
  <!-- ═══════════════════════════════════════════════════════════════ -->

  <text x="956" y="130" fill="#E2E8F0" font-size="14" font-weight="700">Recent Refunds — Today</text>
  <text x="1354" y="130" fill="#94A3B8" font-size="11" text-anchor="end">3 refunds</text>

  <!-- Refund card 1: Settled -->
  <rect x="948" y="140" width="406" height="70" rx="8" fill="url(#cardGrad)" stroke="#22C55E" stroke-width="1" filter="url(#subtleShadow)"/>
  <text x="960" y="160" fill="#94A3B8" font-size="10">1:15 PM</text>
  <text x="1010" y="160" fill="#E2E8F0" font-size="12" font-weight="600">Receipt #0801</text>
  <text x="1346" y="160" fill="#22C55E" font-size="13" font-weight="700" text-anchor="end">$12.00</text>
  <text x="960" y="176" fill="#64748B" font-size="10">Reason: Food Quality | Visa ....9821</text>
  <rect x="1266" y="168" width="80" height="18" rx="9" fill="url(#greenBadgeGrad)"/>
  <text x="1306" y="180" fill="#4ADE80" font-size="9" font-weight="700" text-anchor="middle">Settled</text>
  <text x="960" y="200" fill="#475569" font-size="9">Stripe: re_3Nk8Uc...7d2a | Auth: Sara R.</text>

  <!-- Refund card 2: Settled (cash) -->
  <rect x="948" y="218" width="406" height="70" rx="8" fill="url(#cardGrad)" stroke="#22C55E" stroke-width="1" filter="url(#subtleShadow)"/>
  <text x="960" y="238" fill="#94A3B8" font-size="10">11:30 AM</text>
  <text x="1010" y="238" fill="#E2E8F0" font-size="12" font-weight="600">Receipt #0782</text>
  <text x="1346" y="238" fill="#22C55E" font-size="13" font-weight="700" text-anchor="end">$9.00</text>
  <text x="960" y="254" fill="#64748B" font-size="10">Reason: Billing Error | Cash refund (paid out)</text>
  <rect x="1266" y="246" width="80" height="18" rx="9" fill="url(#greenBadgeGrad)"/>
  <text x="1306" y="258" fill="#4ADE80" font-size="9" font-weight="700" text-anchor="middle">Settled</text>
  <text x="960" y="278" fill="#475569" font-size="9">pos_cash_events: paid_out | Auth: Sara R. (Mgr)</text>

  <!-- Refund card 3: Pending -->
  <rect x="948" y="296" width="406" height="70" rx="8" fill="url(#cardGrad)" stroke="#F59E0B" stroke-width="1" filter="url(#subtleShadow)"/>
  <text x="960" y="316" fill="#94A3B8" font-size="10">10:15 AM</text>
  <text x="1010" y="316" fill="#E2E8F0" font-size="12" font-weight="600">Receipt #0770</text>
  <text x="1346" y="316" fill="#F59E0B" font-size="13" font-weight="700" text-anchor="end">$27.50</text>
  <text x="960" y="332" fill="#64748B" font-size="10">Reason: Wrong Item | Visa ....4521</text>
  <rect x="1256" y="324" width="90" height="18" rx="9" fill="url(#amberBadgeGrad)"/>
  <text x="1301" y="336" fill="#F59E0B" font-size="9" font-weight="700" text-anchor="middle">Pending</text>
  <text x="960" y="356" fill="#475569" font-size="9">Stripe: re_3Nk2Ab...1c9f | ~5 days remain</text>

  <!-- Daily total -->
  <rect x="948" y="374" width="406" height="36" rx="8" fill="url(#cardGrad)" stroke="#2A2E45" stroke-width="1"/>
  <text x="960" y="396" fill="#94A3B8" font-size="11">Today's refunds (3):</text>
  <text x="1346" y="396" fill="#EF4444" font-size="13" font-weight="700" text-anchor="end">-$48.50</text>
  <text x="1230" y="396" fill="#475569" font-size="9">Z-report deduction</text>

  <text x="956" y="428" fill="#60A5FA" font-size="11" font-weight="600">View Full Refund History</text>

  <!-- POST-REFUND FLOW -->
  <rect x="948" y="444" width="406" height="302" rx="10" fill="url(#flowPanelGrad)" stroke="#F59E0B" stroke-width="1.5" filter="url(#cardShadow)"/>

  <rect x="948" y="444" width="406" height="34" rx="10" fill="url(#authHeaderGrad)"/>
  <rect x="948" y="464" width="406" height="14" fill="url(#authHeaderGrad)"/>
  <text x="1151" y="467" fill="#F59E0B" font-size="12" font-weight="700" text-anchor="middle">After Refund Processed</text>

  <circle cx="968" cy="496" r="5" fill="#F59E0B"/>
  <text x="982" y="500" fill="#E2E8F0" font-size="11" font-weight="600">Stripe Refund API called</text>
  <text x="982" y="513" fill="#475569" font-size="10">refund_id stored in pos_refunds</text>

  <rect x="968" y="519" width="1" height="8" fill="#2A2E45"/>

  <circle cx="968" cy="533" r="5" fill="#8B5CF6"/>
  <text x="982" y="537" fill="#E2E8F0" font-size="11" font-weight="600">Database updated</text>
  <text x="982" y="550" fill="#475569" font-size="10">pos_payments.refund_amount incremented</text>

  <rect x="968" y="556" width="1" height="8" fill="#2A2E45"/>

  <circle cx="968" cy="570" r="5" fill="#22C55E"/>
  <text x="982" y="574" fill="#E2E8F0" font-size="11" font-weight="600">Receipt emailed to customer</text>
  <text x="982" y="587" fill="#475569" font-size="10">"Your refund of $21.70 has been processed"</text>

  <rect x="968" y="593" width="1" height="8" fill="#2A2E45"/>

  <circle cx="968" cy="607" r="5" fill="#F59E0B"/>
  <text x="982" y="611" fill="#E2E8F0" font-size="11" font-weight="600">Z-report updated</text>
  <text x="982" y="624" fill="#475569" font-size="10">Deducted from gross sales</text>

  <rect x="968" y="630" width="1" height="8" fill="#2A2E45"/>

  <circle cx="968" cy="644" r="5" fill="#EF4444"/>
  <text x="982" y="648" fill="#E2E8F0" font-size="11" font-weight="600">Manager notified</text>
  <text x="982" y="661" fill="#475569" font-size="10">Push: "Refund $21.70 by John S. (auth: Sara R.)"</text>

  <rect x="968" y="667" width="1" height="8" fill="#2A2E45"/>

  <circle cx="968" cy="681" r="5" fill="#60A5FA"/>
  <text x="982" y="685" fill="#E2E8F0" font-size="11" font-weight="600">Stripe webhook pending</text>
  <text x="982" y="698" fill="#475569" font-size="10">refund.updated: pending -> settled</text>

  <rect x="960" y="714" width="382" height="1" fill="#1E2235"/>
  <rect x="960" y="722" width="56" height="16" rx="8" fill="url(#greenBadgeGrad)"/>
  <text x="988" y="734" fill="#4ADE80" font-size="9" font-weight="700" text-anchor="middle">settled</text>
  <rect x="1024" y="722" width="56" height="16" rx="8" fill="url(#amberBadgeGrad)"/>
  <text x="1052" y="734" fill="#F59E0B" font-size="9" font-weight="700" text-anchor="middle">pending</text>
  <rect x="1088" y="722" width="50" height="16" rx="8" fill="#2D1010"/>
  <text x="1113" y="734" fill="#EF4444" font-size="9" font-weight="700" text-anchor="middle">failed</text>

  <!-- ═══════════════════════════════════════════════════════════════ -->
  <!-- WORKFLOW INTEGRATION BAR                                        -->
  <!-- ═══════════════════════════════════════════════════════════════ -->
  <rect x="8" y="878" width="930" height="138" rx="10" fill="url(#cardGrad)" stroke="#1E2235" stroke-width="1" filter="url(#subtleShadow)"/>

  <rect x="8" y="878" width="930" height="32" rx="10" fill="url(#authHeaderGrad)"/>
  <rect x="8" y="898" width="930" height="12" fill="url(#authHeaderGrad)"/>
  <text x="473" y="899" fill="#F59E0B" font-size="12" font-weight="700" text-anchor="middle">Refund Workflow — Void vs Refund</text>

  <text x="20" y="926" fill="#8B5CF6" font-size="11" font-weight="700">VOID (pre-settlement)</text>
  <text x="20" y="940" fill="#94A3B8" font-size="10">Cancels PaymentIntent before capture. Instant reversal.</text>
  <text x="20" y="954" fill="#475569" font-size="10">pos_payments.status = voided | No Stripe refund_id</text>

  <rect x="473" y="916" width="1" height="92" fill="#1E2235"/>

  <text x="485" y="926" fill="#F59E0B" font-size="11" font-weight="700">REFUND (post-settlement)</text>
  <text x="485" y="940" fill="#94A3B8" font-size="10">stripe.refunds.create(pi_id, amount_cents). Partial supported.</text>
  <text x="485" y="954" fill="#475569" font-size="10">pos_refunds: id, payment_id, amount, reason, stripe_refund_id, staff_id</text>

  <rect x="20" y="964" width="906" height="1" fill="#1E2235"/>
  <text x="20" y="978" fill="#475569" font-size="9">Both: pos_audit_log (staff_id, action, amount, reason, timestamp) | Cash refund: pos_cash_events (type=paid_out)</text>
  <text x="20" y="992" fill="#475569" font-size="9">Stripe webhook refund.updated -> pos_refunds.status | Z-report: gross - refunds = net | refund_count + refund_total for reconciliation</text>
  <text x="20" y="1006" fill="#64748B" font-size="9">Synalux POS v2.4</text>

  <!-- Refund policies -->
  <!-- Admin: max_refund_pct, manager_pin_threshold, daily_refund_alert, auto_void_window -->
  <rect x="948" y="756" width="406" height="108" rx="10" fill="url(#cardGrad)" stroke="#1E2235" stroke-width="1" filter="url(#subtleShadow)"/>
  <rect x="948" y="756" width="406" height="30" rx="10" fill="url(#sectionHeaderGrad)"/>
  <rect x="948" y="774" width="406" height="12" fill="url(#sectionHeaderGrad)"/>
  <text x="1151" y="776" fill="#CBD5E1" font-size="11" font-weight="700" text-anchor="middle">Refund Policies</text>
  <use href="#adminGear" x="1336" y="760" width="14" height="14"/>

  <text x="960" y="802" fill="#94A3B8" font-size="10">Max refund per transaction:</text>
  <text x="1340" y="802" fill="#E2E8F0" font-size="10" font-weight="600" text-anchor="end">100% of original</text>
  <text x="960" y="818" fill="#94A3B8" font-size="10">Manager PIN threshold:</text>
  <text x="1340" y="818" fill="#F59E0B" font-size="10" font-weight="600" text-anchor="end">$25.00</text>
  <text x="960" y="834" fill="#94A3B8" font-size="10">Daily refund alert:</text>
  <text x="1340" y="834" fill="#EF4444" font-size="10" font-weight="600" text-anchor="end">$200.00</text>
  <text x="960" y="850" fill="#94A3B8" font-size="10">Auto-void window:</text>
  <text x="1340" y="850" fill="#22C55E" font-size="10" font-weight="600" text-anchor="end">Same business day</text>

</svg>
