<svg role="img" aria-labelledby="title-ipad_03_kds-svg" xmlns="http://www.w3.org/2000/svg" xmlns:xlink="http://www.w3.org/1999/xlink" viewBox="0 0 1366 1024" font-family="-apple-system,BlinkMacSystemFont,'SF Pro Display','Segoe UI',sans-serif">
  <title id="title-ipad_03_kds-svg">Synalux POS — 03 kds</title>
  <desc>Synalux POS mockup screen for 03 kds. All UI elements admin-configurable.</desc>
  <defs>
    <linearGradient id="headerGrad" x1="0" y1="0" x2="0" y2="1">
      <stop offset="0%" stop-color="#151820"/>
      <stop offset="100%" stop-color="#111318"/>
    </linearGradient>
    <linearGradient id="bumpGrad" x1="0" y1="0" x2="0" y2="1">
      <stop offset="0%" stop-color="#34D399"/>
      <stop offset="100%" stop-color="#16A34A"/>
    </linearGradient>
    <filter id="ticketShadow">
      <feDropShadow dx="0" dy="2" stdDeviation="4" flood-color="#000" flood-opacity="0.4"/>
    </filter>
    <filter id="alertGlow">
      <feDropShadow dx="0" dy="0" stdDeviation="5" flood-color="#EF4444" flood-opacity="0.3"/>
    </filter>

    <!-- ═══════════ SYMBOL DEFINITIONS ═══════════ -->

    <!-- Admin gear icon — admin: Settings > General -->
    <symbol id="adminGear" viewBox="0 0 14 14">
      <circle cx="7" cy="7" r="2.5" fill="none" stroke="#F59E0B" stroke-width="0.8" opacity="0.3"/>
      <path d="M7 1v1.5M7 11.5V13M1 7h1.5M11.5 7H13M2.8 2.8l1 1M10.2 10.2l1 1M2.8 11.2l1-1M10.2 3.8l1-1" stroke="#F59E0B" stroke-width="0.6" stroke-linecap="round" opacity="0.3"/>
    </symbol>

    <!-- Station tab (inactive) — admin: Settings > KDS > Stations -->
    <symbol id="stationTab" viewBox="0 0 70 28">
      <rect width="70" height="28" rx="6" fill="#1A1D2E"/>
    </symbol>

    <!-- Timer chip — admin: Settings > KDS > Timer Thresholds -->
    <symbol id="timerChip" viewBox="0 0 82 28">
      <rect width="82" height="28" rx="6"/>
    </symbol>

    <!-- Order number badge — admin: Settings > KDS > Order Numbering -->
    <symbol id="orderBadge" viewBox="0 0 50 18">
      <rect width="50" height="18" rx="4" fill="#1E2235"/>
    </symbol>

    <!-- Station tag — admin: Settings > KDS > Stations -->
    <symbol id="stationTag" viewBox="0 0 48 18">
      <rect width="48" height="18" rx="4"/>
    </symbol>

    <!-- Bump button — admin: Settings > KDS > Bump Actions -->
    <symbol id="bumpBtn" viewBox="0 0 154 36">
      <rect width="154" height="36" rx="7" fill="url(#bumpGrad)"/>
    </symbol>

    <!-- Bump button (wide) — admin: Settings > KDS > Bump Actions -->
    <symbol id="bumpBtnWide" viewBox="0 0 144 32">
      <rect width="144" height="32" rx="6" fill="url(#bumpGrad)"/>
    </symbol>

    <!-- Void button — admin: Settings > KDS > Void Permission -->
    <symbol id="voidBtn" viewBox="0 0 68 32">
      <rect width="68" height="32" rx="6" fill="#1A0808"/>
    </symbol>

    <!-- Recall button — admin: Settings > KDS > Recall Permission -->
    <symbol id="recallBtn" viewBox="0 0 72 32">
      <rect width="72" height="32" rx="6" fill="#0F2A4A"/>
    </symbol>

    <!-- All-day count card — admin: Settings > KDS > All-Day Count -->
    <symbol id="alldayCard" viewBox="0 0 140 46">
      <rect width="140" height="46" rx="6" fill="#161930"/>
    </symbol>

    <!-- All-day count card wide — admin: Settings > KDS > All-Day Count -->
    <symbol id="alldayCardWide" viewBox="0 0 160 46">
      <rect width="160" height="46" rx="6" fill="#161930"/>
    </symbol>

    <!-- Order type badge — admin: Settings > Order Types -->
    <symbol id="orderTypeBadge" viewBox="0 0 52 14">
      <rect width="52" height="14" rx="3"/>
    </symbol>

    <!-- Ready ticket container — admin: Settings > KDS > Expo View -->
    <symbol id="readyTicket" viewBox="0 0 340 200">
      <rect width="340" height="200" rx="10" fill="#0A1A0D" stroke="#22C55E" stroke-width="1"/>
      <rect y="0" width="340" height="38" rx="10" fill="#0D2B12"/>
      <rect y="28" width="340" height="10" fill="#0D2B12"/>
    </symbol>

    <!-- Announce button — admin: Settings > KDS > Expo Actions -->
    <symbol id="announceBtn" viewBox="0 0 308 44">
      <rect width="308" height="44" rx="8" fill="#22C55E"/>
    </symbol>

    <!-- Speed bar segment — admin: Settings > KDS > Speed of Service -->
    <symbol id="speedBar" viewBox="0 0 60 12">
      <rect width="60" height="12" rx="2"/>
    </symbol>

    <!-- Order type legend swatch — admin: Settings > Order Types -->
    <symbol id="orderTypeSwatch" viewBox="0 0 8 8">
      <rect width="8" height="8" rx="2"/>
    </symbol>

    <!-- Ready timer — admin: Settings > KDS > Expo View -->
    <symbol id="readyTimer" viewBox="0 0 38 20">
      <rect width="38" height="20" rx="4" fill="#0A2010"/>
    </symbol>

  </defs>

  <!-- ═══════════ BACKGROUND ═══════════ -->
  <rect width="1366" height="1024" fill="#080A0F"/>

  <!-- ═══════════ HEADER ═══════════ -->
  <rect x="0" y="0" width="1366" height="50" fill="url(#headerGrad)"/>
  <rect x="0" y="50" width="1366" height="1" fill="#1E2235"/>

  <text x="16" y="20" fill="#F59E0B" font-size="14" font-weight="800" letter-spacing="-0.3">synalux</text>
  <text x="78" y="20" fill="#475569" font-size="14" font-weight="400">POS</text>
  <rect x="16" y="26" width="80" height="18" rx="4" fill="#0A2010"/>
  <text x="56" y="39" fill="#4ADE80" font-size="9" font-weight="700" letter-spacing="0.5" text-anchor="middle">KITCHEN</text>

  <text x="683" y="20" fill="#64748B" font-size="10" font-weight="500" letter-spacing="0.5">KITCHEN DISPLAY SYSTEM</text>
  <text x="683" y="38" fill="#E2E8F0" font-size="13" font-weight="600" text-anchor="middle">Grill · Fryer · Salads · Expo</text>

  <text x="1240" y="20" fill="#64748B" font-size="10">Wed 2:22 PM</text>
  <text x="1240" y="38" fill="#4ADE80" font-size="10" font-weight="500">4 stations active</text>

  <rect x="1320" y="10" width="36" height="30" rx="6" fill="#1A1D2E"/>
  <text x="1338" y="30" fill="#64748B" font-size="10" text-anchor="middle">&#9881;</text>

  <!-- ═══════════ STATION TABS ═══════════ -->
  <!-- admin: Settings > KDS > Stations -->
  <rect x="0" y="51" width="1366" height="40" fill="#0D1018"/>
  <rect x="0" y="91" width="1366" height="1" fill="#1E2235"/>

  <!-- Active station tab -->
  <rect x="10" y="57" width="96" height="28" rx="6" fill="#F59E0B"/>
  <text x="58" y="76" fill="#0C0E1A" font-size="11" font-weight="700" text-anchor="middle">All Stations</text>

  <!-- Inactive station tabs -->
  <use xlink:href="#stationTab" x="114" y="57" width="70" height="28"/>
  <text x="149" y="76" fill="#94A3B8" font-size="11" font-weight="500" text-anchor="middle">Grill</text>

  <use xlink:href="#stationTab" x="192" y="57" width="70" height="28"/>
  <text x="227" y="76" fill="#94A3B8" font-size="11" font-weight="500" text-anchor="middle">Fryer</text>

  <use xlink:href="#stationTab" x="270" y="57" width="76" height="28"/>
  <text x="308" y="76" fill="#94A3B8" font-size="11" font-weight="500" text-anchor="middle">Salads</text>

  <use xlink:href="#stationTab" x="354" y="57" width="70" height="28"/>
  <text x="389" y="76" fill="#94A3B8" font-size="11" font-weight="500" text-anchor="middle">Expo</text>

  <use xlink:href="#stationTab" x="432" y="57" width="60" height="28"/>
  <text x="462" y="76" fill="#94A3B8" font-size="11" font-weight="500" text-anchor="middle">Bar</text>

  <!-- Missing stations from README: Prep, Cold -->
  <use xlink:href="#stationTab" x="500" y="57" width="60" height="28"/>
  <text x="530" y="76" fill="#94A3B8" font-size="11" font-weight="500" text-anchor="middle">Prep</text>
  <use xlink:href="#stationTab" x="568" y="57" width="60" height="28"/>
  <text x="598" y="76" fill="#94A3B8" font-size="11" font-weight="500" text-anchor="middle">Cold</text>

  <!-- admin: Settings > KDS > Stations -->
  <use xlink:href="#adminGear" x="600" y="60" width="10" height="10"/>

  <!-- Stats -->
  <text x="620" y="76" fill="#475569" font-size="10">Avg ticket: </text>
  <text x="680" y="76" fill="#94A3B8" font-size="10" font-weight="600">14 min</text>
  <text x="730" y="76" fill="#475569" font-size="10">Open: </text>
  <text x="760" y="76" fill="#F59E0B" font-size="10" font-weight="600">12</text>
  <text x="790" y="76" fill="#475569" font-size="10">Fired today: </text>
  <text x="850" y="76" fill="#94A3B8" font-size="10" font-weight="600">47</text>

  <!-- View toggle — admin: Settings > KDS > Layout -->
  <use xlink:href="#stationTab" x="1170" y="57" width="70" height="28"/>
  <text x="1205" y="76" fill="#64748B" font-size="10" font-weight="500" text-anchor="middle">4-col</text>
  <rect x="1248" y="57" width="106" height="28" rx="6" fill="#1A1D2E"/>
  <text x="1301" y="76" fill="#64748B" font-size="10" font-weight="500" text-anchor="middle">Sort: Oldest</text>
  <!-- admin: Settings > KDS > Layout -->
  <use xlink:href="#adminGear" x="1346" y="60" width="10" height="10"/>

  <!-- ═══════════ TICKET GRID — 4 COLUMNS ═══════════ -->

  <!-- ===== TICKET 1 — New (1 min) GREEN ===== -->
  <!-- Order-type color: blue=dine-in, orange=takeout, purple=delivery (admin: Settings > Order Types) -->
  <rect x="10" y="100" width="326" height="370" rx="10" fill="#111318" stroke="#22C55E" stroke-width="1" filter="url(#ticketShadow)"/>
  <!-- Blue left-edge = Dine-In order type -->
  <rect x="10" y="100" width="4" height="370" rx="2" fill="#3B82F6"/>

  <!-- Timer header -->
  <rect x="14" y="100" width="322" height="44" rx="10" fill="#0A2010"/>
  <rect x="14" y="134" width="322" height="10" fill="#0A2010"/>
  <text x="26" y="122" fill="#22C55E" font-size="16" font-weight="800">T2</text>
  <!-- Order type badge (blue = dine-in) — admin: Settings > Order Types -->
  <use xlink:href="#orderTypeBadge" x="80" y="108" width="52" height="14" fill="#1E3A5F"/>
  <text x="106" y="119" fill="#60A5FA" font-size="8" font-weight="700" text-anchor="middle">DINE-IN</text>
  <text x="140" y="118" fill="#22C55E" font-size="11" font-weight="600">4 guests</text>
  <text x="80" y="134" fill="#4ADE80" font-size="10">John S. · Seats 1-4</text>
  <!-- Timer chip — admin: Settings > KDS > Timer Thresholds -->
  <use xlink:href="#timerChip" x="244" y="108" width="82" height="28" fill="#0D2B12" stroke="#22C55E" stroke-width="0.5"/>
  <text x="285" y="127" fill="#22C55E" font-size="16" font-weight="700" text-anchor="middle">1:02</text>

  <!-- Order # — admin: Settings > KDS > Order Numbering -->
  <use xlink:href="#orderBadge" x="26" y="152" width="50" height="18"/>
  <text x="51" y="165" fill="#64748B" font-size="9" font-weight="600" text-anchor="middle">#0847</text>

  <!-- Items -->
  <text x="26" y="192" fill="#E2E8F0" font-size="13" font-weight="600">2x Classic Burger</text>
  <text x="40" y="208" fill="#64748B" font-size="11">No onions</text>
  <text x="40" y="224" fill="#64748B" font-size="11">S1: Well done · S2: Medium</text>

  <text x="26" y="250" fill="#E2E8F0" font-size="13" font-weight="600">1x BBQ Ribs</text>
  <text x="40" y="266" fill="#64748B" font-size="11">Extra sauce · S3</text>

  <text x="26" y="292" fill="#E2E8F0" font-size="13" font-weight="600">1x Caesar Salad</text>
  <text x="40" y="308" fill="#64748B" font-size="11">No croutons · S4</text>
  <rect x="40" y="314" width="110" height="16" rx="3" fill="#1A0606"/>
  <text x="46" y="326" fill="#FCA5A5" font-size="9" font-weight="700">NUT ALLERGY</text>

  <!-- Station tags — admin: Settings > KDS > Stations -->
  <use xlink:href="#stationTag" x="26" y="340" width="48" height="18" fill="#2A1A00"/>
  <text x="50" y="353" fill="#F59E0B" font-size="9" font-weight="600" text-anchor="middle">GRILL</text>
  <use xlink:href="#stationTag" x="80" y="340" width="48" height="18" fill="#0A1A2D"/>
  <text x="104" y="353" fill="#60A5FA" font-size="9" font-weight="600" text-anchor="middle">SALAD</text>
  <use xlink:href="#stationTag" x="134" y="340" width="40" height="18" fill="#0A2010"/>
  <text x="154" y="353" fill="#4ADE80" font-size="9" font-weight="600" text-anchor="middle">FRY</text>

  <!-- Action row: Void + Recall + Bump (admin: Settings > KDS > Bump Actions) -->
  <use xlink:href="#voidBtn" x="26" y="366" width="68" height="32"/>
  <text x="60" y="387" fill="#FCA5A5" font-size="10" font-weight="600" text-anchor="middle">Void</text>
  <use xlink:href="#recallBtn" x="100" y="366" width="72" height="32"/>
  <text x="136" y="387" fill="#60A5FA" font-size="10" font-weight="600" text-anchor="middle">Recall</text>
  <use xlink:href="#bumpBtnWide" x="178" y="366" width="144" height="32"/>
  <text x="250" y="387" fill="white" font-size="11" font-weight="700" text-anchor="middle">BUMP (F1)</text>
  <!-- admin: Settings > KDS > Bump Actions -->
  <use xlink:href="#adminGear" x="316" y="370" width="10" height="10"/>

  <!-- All-day count with toggle (admin: Settings > KDS > All-Day Count default on/off) -->
  <rect x="26" y="406" width="296" height="44" rx="6" fill="#111318" stroke="#1E2235" stroke-width="1"/>
  <text x="38" y="425" fill="#475569" font-size="8" font-weight="700" letter-spacing="1">ALL-DAY</text>
  <!-- Toggle (admin: Settings > KDS > All-Day Count default on/off) -->
  <rect x="288" y="412" width="28" height="14" rx="7" fill="#F59E0B"/>
  <circle cx="310" cy="419" r="5" fill="#0C0E1A"/>
  <text x="38" y="452" fill="#94A3B8" font-size="10">Burger: 8</text>
  <text x="110" y="452" fill="#94A3B8" font-size="10">Ribs: 3</text>
  <text x="170" y="452" fill="#94A3B8" font-size="10">Salad: 5</text>
  <text x="238" y="452" fill="#94A3B8" font-size="10">Fries: 11</text>
  <!-- admin: Settings > KDS > All-Day Count -->
  <use xlink:href="#adminGear" x="318" y="408" width="10" height="10"/>

  <!-- ===== TICKET 2 — Warning (9 min) AMBER ===== -->
  <rect x="346" y="100" width="326" height="370" rx="10" fill="#111318" stroke="#F59E0B" stroke-width="1.5" filter="url(#ticketShadow)"/>
  <!-- Blue left-edge = Dine-In -->
  <rect x="346" y="100" width="4" height="370" rx="2" fill="#3B82F6"/>

  <rect x="350" y="100" width="322" height="44" rx="10" fill="#1A1200"/>
  <rect x="350" y="134" width="322" height="10" fill="#1A1200"/>
  <text x="362" y="122" fill="#F59E0B" font-size="16" font-weight="800">T7</text>
  <use xlink:href="#orderTypeBadge" x="416" y="108" width="52" height="14" fill="#1E3A5F"/>
  <text x="442" y="119" fill="#60A5FA" font-size="8" font-weight="700" text-anchor="middle">DINE-IN</text>
  <text x="476" y="118" fill="#F59E0B" font-size="11" font-weight="600">4 guests</text>
  <text x="416" y="134" fill="#FBBF24" font-size="10">Sara R.</text>
  <!-- Timer chip — admin: Settings > KDS > Timer Thresholds -->
  <use xlink:href="#timerChip" x="580" y="108" width="82" height="28" fill="#2A1A00" stroke="#F59E0B" stroke-width="0.5"/>
  <text x="621" y="127" fill="#F59E0B" font-size="16" font-weight="700" text-anchor="middle">9:14</text>

  <!-- Order # -->
  <use xlink:href="#orderBadge" x="362" y="152" width="50" height="18"/>
  <text x="387" y="165" fill="#64748B" font-size="9" font-weight="600" text-anchor="middle">#0839</text>

  <text x="362" y="192" fill="#E2E8F0" font-size="13" font-weight="600">1x Fish &amp; Chips</text>
  <text x="376" y="208" fill="#64748B" font-size="11">Tartar on side</text>

  <text x="362" y="234" fill="#E2E8F0" font-size="13" font-weight="600">2x Draft Beer</text>
  <text x="376" y="250" fill="#475569" font-size="11">&#8594; Bar station</text>

  <text x="362" y="276" fill="#E2E8F0" font-size="13" font-weight="600">2x Chicken Burger</text>
  <text x="376" y="292" fill="#64748B" font-size="11">S3: No lettuce · S4: Extra pickles</text>

  <text x="362" y="316" fill="#E2E8F0" font-size="13" font-weight="600">2x Large Fries</text>

  <!-- Progress indicators -->
  <text x="362" y="336" fill="#475569" font-size="9" font-weight="600" letter-spacing="0.5">PROGRESS</text>
  <rect x="362" y="342" width="56" height="16" rx="4" fill="#0A2010"/>
  <text x="390" y="354" fill="#4ADE80" font-size="8" font-weight="700" text-anchor="middle">FRY &#10003;</text>
  <rect x="424" y="342" width="80" height="16" rx="4" fill="#2A1A00"/>
  <text x="464" y="354" fill="#F59E0B" font-size="8" font-weight="700" text-anchor="middle">GRILL 6m</text>

  <!-- Action buttons — admin: Settings > KDS > Bump Actions -->
  <rect x="362" y="368" width="140" height="36" rx="7" fill="#2A1A00" stroke="#F59E0B" stroke-width="0.5"/>
  <text x="432" y="391" fill="#FBBF24" font-size="11" font-weight="600" text-anchor="middle">Running Late</text>
  <use xlink:href="#bumpBtn" x="508" y="368" width="154" height="36"/>
  <text x="585" y="391" fill="white" font-size="11" font-weight="700" text-anchor="middle">BUMP</text>

  <!-- ===== TICKET 3 — Critical (17 min) ORANGE ===== -->
  <rect x="682" y="100" width="326" height="390" rx="10" fill="#111318" stroke="#F97316" stroke-width="2" filter="url(#ticketShadow)"/>
  <!-- Blue left-edge = Dine-In -->
  <rect x="682" y="100" width="4" height="390" rx="2" fill="#3B82F6"/>

  <rect x="682" y="104" width="326" height="44" rx="0" fill="#1A0E00"/>
  <text x="698" y="126" fill="#F97316" font-size="16" font-weight="800">T4</text>
  <use xlink:href="#orderTypeBadge" x="752" y="112" width="52" height="14" fill="#1E3A5F"/>
  <text x="778" y="123" fill="#60A5FA" font-size="8" font-weight="700" text-anchor="middle">DINE-IN</text>
  <text x="812" y="122" fill="#F97316" font-size="11" font-weight="600">5 guests</text>
  <text x="752" y="138" fill="#FB923C" font-size="10">Mike R.</text>
  <!-- Timer chip — admin: Settings > KDS > Timer Thresholds -->
  <use xlink:href="#timerChip" x="916" y="112" width="82" height="28" fill="#2A1000" stroke="#F97316" stroke-width="0.5"/>
  <text x="957" y="131" fill="#F97316" font-size="16" font-weight="700" text-anchor="middle">17:33</text>

  <!-- Order # -->
  <use xlink:href="#orderBadge" x="698" y="156" width="50" height="18"/>
  <text x="723" y="169" fill="#64748B" font-size="9" font-weight="600" text-anchor="middle">#0831</text>

  <text x="698" y="196" fill="#E2E8F0" font-size="13" font-weight="600">3x Classic Burger</text>
  <text x="712" y="212" fill="#64748B" font-size="11">S1: Gluten-free bun</text>
  <rect x="712" y="218" width="120" height="16" rx="3" fill="#2D0808"/>
  <text x="718" y="230" fill="#FCA5A5" font-size="9" font-weight="700">CELIAC — verify GF!</text>
  <text x="712" y="250" fill="#64748B" font-size="11">S2: Vegan patty · S3: Well done</text>

  <text x="698" y="274" fill="#E2E8F0" font-size="13" font-weight="600">2x BBQ Ribs — Full rack</text>
  <text x="712" y="290" fill="#64748B" font-size="11">Seats 4 &amp; 5</text>

  <text x="698" y="316" fill="#E2E8F0" font-size="13" font-weight="600">5x Sides (mixed)</text>
  <text x="712" y="332" fill="#64748B" font-size="11">2x Fries · 2x O.Rings · 1x Salad</text>

  <!-- Rush alert -->
  <rect x="698" y="350" width="296" height="32" rx="6" fill="#2D0808" stroke="#EF4444" stroke-width="0.5"/>
  <text x="846" y="371" fill="#FCA5A5" font-size="11" font-weight="700" text-anchor="middle">RUSH — Guest waiting 17+ min</text>

  <!-- Actions — admin: Settings > KDS > Bump Actions -->
  <rect x="698" y="390" width="140" height="34" rx="7" fill="#2A1000"/>
  <text x="768" y="412" fill="#FB923C" font-size="11" font-weight="600" text-anchor="middle">Alert Manager</text>
  <rect x="844" y="390" width="150" height="34" rx="7" fill="url(#bumpGrad)"/>
  <text x="919" y="412" fill="white" font-size="11" font-weight="700" text-anchor="middle">BUMP</text>

  <!-- ===== TICKET 4 — Alert (23 min) RED ===== -->
  <rect x="1018" y="100" width="338" height="390" rx="10" fill="#111318" stroke="#EF4444" stroke-width="2" filter="url(#alertGlow)"/>
  <!-- Orange left-edge = Takeout -->
  <rect x="1018" y="100" width="4" height="390" rx="2" fill="#F97316"/>
  <rect x="1018" y="100" width="338" height="4" rx="2" fill="#EF4444">
    <animate attributeName="opacity" values="1;0.4;1" dur="1.5s" repeatCount="indefinite"/>
  </rect>

  <rect x="1018" y="104" width="338" height="44" rx="0" fill="#1A0404"/>
  <text x="1034" y="126" fill="#EF4444" font-size="16" font-weight="800">TO #12</text>
  <use xlink:href="#orderTypeBadge" x="1120" y="112" width="52" height="14" fill="#2A1000"/>
  <text x="1146" y="123" fill="#FB923C" font-size="8" font-weight="700" text-anchor="middle">TAKEOUT</text>
  <text x="1180" y="122" fill="#FCA5A5" font-size="11" font-weight="600">2 guests</text>
  <text x="1120" y="138" fill="#F87171" font-size="10">Lisa W.</text>
  <!-- Timer chip — admin: Settings > KDS > Timer Thresholds -->
  <use xlink:href="#timerChip" x="1264" y="112" width="82" height="28" fill="#2D0808" stroke="#EF4444" stroke-width="0.5"/>
  <text x="1305" y="131" fill="#EF4444" font-size="16" font-weight="700" text-anchor="middle">23:07</text>

  <!-- Order # -->
  <use xlink:href="#orderBadge" x="1034" y="156" width="50" height="18"/>
  <text x="1059" y="169" fill="#64748B" font-size="9" font-weight="600" text-anchor="middle">#0824</text>

  <!-- Done items (struck through) -->
  <text x="1034" y="196" fill="#4ADE80" font-size="13" font-weight="500" text-decoration="line-through">2x Quesadilla</text>
  <text x="1304" y="196" fill="#4ADE80" font-size="10" font-weight="600" text-anchor="end">DONE</text>
  <text x="1048" y="212" fill="#475569" font-size="10">Expo pickup</text>

  <text x="1034" y="236" fill="#4ADE80" font-size="13" font-weight="500" text-decoration="line-through">1x Cheese Sticks</text>
  <text x="1304" y="236" fill="#4ADE80" font-size="10" font-weight="600" text-anchor="end">DONE</text>
  <text x="1048" y="252" fill="#475569" font-size="10">Expo pickup</text>

  <!-- Pending item -->
  <rect x="1034" y="266" width="308" height="44" rx="6" fill="#1A0808"/>
  <circle cx="1048" cy="282" r="5" fill="#EF4444">
    <animate attributeName="r" values="5;7;5" dur="1.5s" repeatCount="indefinite"/>
    <animate attributeName="opacity" values="1;0.5;1" dur="1.5s" repeatCount="indefinite"/>
  </circle>
  <text x="1060" y="282" fill="#EF4444" font-size="13" font-weight="700">1x Avo Toast</text>
  <text x="1060" y="300" fill="#F87171" font-size="10">In progress · 8 min wait</text>
  <text x="1304" y="282" fill="#EF4444" font-size="10" font-weight="600" text-anchor="end">WAITING</text>

  <!-- Manager paged alert -->
  <rect x="1034" y="322" width="308" height="30" rx="6" fill="#2D0808" stroke="#EF4444" stroke-width="0.5"/>
  <text x="1188" y="342" fill="#FCA5A5" font-size="10" font-weight="700" text-anchor="middle">23 MIN — Manager Paged</text>

  <!-- Actions — admin: Settings > KDS > Bump Actions -->
  <rect x="1034" y="362" width="148" height="32" rx="6" fill="#1A0808"/>
  <text x="1108" y="383" fill="#F87171" font-size="10" font-weight="600" text-anchor="middle">Void + Comp</text>
  <rect x="1188" y="362" width="154" height="32" rx="6" fill="url(#bumpGrad)"/>
  <text x="1265" y="383" fill="white" font-size="10" font-weight="700" text-anchor="middle">ALL DONE</text>

  <!-- ═══════════ EXPO / READY ROW ═══════════ -->
  <!-- admin: Settings > KDS > Expo View -->
  <rect x="0" y="500" width="1366" height="1" fill="#1E2235"/>
  <text x="16" y="524" fill="#475569" font-size="9" font-weight="700" letter-spacing="1.5">READY FOR PICKUP (EXPO)</text>
  <text x="280" y="524" fill="#4ADE80" font-size="9" font-weight="600">2 ready</text>
  <!-- admin: Settings > KDS > Expo View -->
  <use xlink:href="#adminGear" x="310" y="516" width="10" height="10"/>

  <!-- Ready ticket 1 -->
  <use xlink:href="#readyTicket" x="10" y="536" width="340" height="200"/>
  <text x="26" y="558" fill="#22C55E" font-size="14" font-weight="700">T5 READY</text>
  <text x="210" y="558" fill="#4ADE80" font-size="10">Completed 12:34</text>
  <use xlink:href="#readyTimer" x="302" y="543" width="38" height="20"/>
  <text x="321" y="557" fill="#4ADE80" font-size="10" font-weight="600" text-anchor="middle">8:21</text>

  <text x="26" y="596" fill="#CBD5E1" font-size="12">1x Fish &amp; Chips</text>
  <text x="26" y="616" fill="#CBD5E1" font-size="12">2x Draft Beer</text>
  <text x="26" y="636" fill="#CBD5E1" font-size="12">1x Caesar Salad</text>
  <text x="26" y="660" fill="#475569" font-size="10">Expo: Mike</text>

  <use xlink:href="#announceBtn" x="26" y="676" width="308" height="44"/>
  <text x="180" y="704" fill="white" font-size="13" font-weight="700" text-anchor="middle">Announce + Clear</text>

  <!-- Ready ticket 2 -->
  <use xlink:href="#readyTicket" x="360" y="536" width="340" height="200"/>
  <text x="376" y="558" fill="#22C55E" font-size="14" font-weight="700">TO #12 READY</text>
  <text x="540" y="558" fill="#4ADE80" font-size="10">Completed 12:28</text>
  <use xlink:href="#readyTimer" x="652" y="543" width="38" height="20"/>
  <text x="671" y="557" fill="#4ADE80" font-size="10" font-weight="600" text-anchor="middle">11:05</text>

  <text x="376" y="596" fill="#CBD5E1" font-size="12">1x Classic Burger</text>
  <text x="376" y="616" fill="#CBD5E1" font-size="12">1x Large Fries</text>
  <text x="376" y="636" fill="#CBD5E1" font-size="12">1x Soft Drink (no ice)</text>
  <text x="376" y="660" fill="#475569" font-size="10">Bag #12 · Customer: Chen</text>

  <use xlink:href="#announceBtn" x="376" y="676" width="308" height="44"/>
  <text x="530" y="704" fill="white" font-size="13" font-weight="700" text-anchor="middle">Bag + Ready for Pickup</text>

  <!-- ═══════════ ALL-DAY COUNTS ═══════════ -->
  <!-- admin: Settings > KDS > All-Day Count -->
  <rect x="720" y="536" width="636" height="200" rx="10" fill="#111318" stroke="#1E2235" stroke-width="1"/>
  <text x="736" y="558" fill="#475569" font-size="9" font-weight="700" letter-spacing="1.5">ALL-DAY COUNT</text>
  <text x="1300" y="558" fill="#64748B" font-size="9" text-anchor="end">Total pending per item</text>
  <!-- admin: Settings > KDS > All-Day Count -->
  <use xlink:href="#adminGear" x="1340" y="548" width="10" height="10"/>

  <!-- All-day grid -->
  <use xlink:href="#alldayCard" x="736" y="570" width="140" height="46"/>
  <text x="806" y="590" fill="#E2E8F0" font-size="18" font-weight="700" text-anchor="middle">8</text>
  <text x="806" y="608" fill="#64748B" font-size="10" text-anchor="middle">Classic Burger</text>

  <use xlink:href="#alldayCard" x="884" y="570" width="140" height="46"/>
  <text x="954" y="590" fill="#E2E8F0" font-size="18" font-weight="700" text-anchor="middle">11</text>
  <text x="954" y="608" fill="#64748B" font-size="10" text-anchor="middle">Large Fries</text>

  <use xlink:href="#alldayCard" x="1032" y="570" width="140" height="46"/>
  <text x="1102" y="590" fill="#E2E8F0" font-size="18" font-weight="700" text-anchor="middle">5</text>
  <text x="1102" y="608" fill="#64748B" font-size="10" text-anchor="middle">Caesar Salad</text>

  <use xlink:href="#alldayCardWide" x="1180" y="570" width="160" height="46"/>
  <text x="1260" y="590" fill="#E2E8F0" font-size="18" font-weight="700" text-anchor="middle">3</text>
  <text x="1260" y="608" fill="#64748B" font-size="10" text-anchor="middle">BBQ Ribs</text>

  <use xlink:href="#alldayCard" x="736" y="624" width="140" height="46"/>
  <text x="806" y="644" fill="#E2E8F0" font-size="18" font-weight="700" text-anchor="middle">4</text>
  <text x="806" y="662" fill="#64748B" font-size="10" text-anchor="middle">Fish &amp; Chips</text>

  <use xlink:href="#alldayCard" x="884" y="624" width="140" height="46"/>
  <text x="954" y="644" fill="#E2E8F0" font-size="18" font-weight="700" text-anchor="middle">7</text>
  <text x="954" y="662" fill="#64748B" font-size="10" text-anchor="middle">Draft Beer</text>

  <use xlink:href="#alldayCard" x="1032" y="624" width="140" height="46"/>
  <text x="1102" y="644" fill="#E2E8F0" font-size="18" font-weight="700" text-anchor="middle">2</text>
  <text x="1102" y="662" fill="#64748B" font-size="10" text-anchor="middle">Chicken Burger</text>

  <use xlink:href="#alldayCardWide" x="1180" y="624" width="160" height="46"/>
  <text x="1260" y="644" fill="#E2E8F0" font-size="18" font-weight="700" text-anchor="middle">1</text>
  <text x="1260" y="662" fill="#64748B" font-size="10" text-anchor="middle">Cheese Sticks</text>

  <!-- Speed graph (simple bar chart) — admin: Settings > KDS > Speed of Service -->
  <rect x="736" y="680" width="604" height="46" rx="6" fill="#111318"/>
  <text x="744" y="696" fill="#475569" font-size="8" font-weight="700" letter-spacing="1">SPEED OF SERVICE</text>
  <use xlink:href="#speedBar" x="744" y="704" width="60" height="12" fill="#22C55E"/>
  <text x="810" y="714" fill="#475569" font-size="9">&lt;8m: 24</text>
  <use xlink:href="#speedBar" x="860" y="704" width="80" height="12" fill="#F59E0B"/>
  <text x="946" y="714" fill="#475569" font-size="9">8-15m: 16</text>
  <use xlink:href="#speedBar" x="1000" y="704" width="40" height="12" fill="#F97316"/>
  <text x="1046" y="714" fill="#475569" font-size="9">15-22m: 5</text>
  <use xlink:href="#speedBar" x="1106" y="704" width="20" height="12" fill="#EF4444"/>
  <text x="1132" y="714" fill="#475569" font-size="9">&gt;22m: 2</text>
  <!-- admin: Settings > KDS > Speed of Service -->
  <use xlink:href="#adminGear" x="1330" y="690" width="10" height="10"/>

  <!-- ═══════════ FOOTER ═══════════ -->
  <rect x="0" y="990" width="1366" height="34" fill="#0D1018"/>
  <rect x="0" y="990" width="1366" height="1" fill="#1E2235"/>

  <text x="40" y="1012" fill="#64748B" font-size="10">Open:</text>
  <text x="70" y="1012" fill="#F59E0B" font-size="10" font-weight="600">12</text>
  <text x="120" y="1012" fill="#64748B" font-size="10">Avg:</text>
  <text x="145" y="1012" fill="#4ADE80" font-size="10" font-weight="600">14:22</text>
  <text x="210" y="1012" fill="#64748B" font-size="10">Warning:</text>
  <text x="260" y="1012" fill="#F59E0B" font-size="10" font-weight="600">3</text>
  <text x="300" y="1012" fill="#64748B" font-size="10">Critical:</text>
  <text x="348" y="1012" fill="#EF4444" font-size="10" font-weight="600">2</text>
  <text x="400" y="1012" fill="#64748B" font-size="10">Bumped:</text>
  <text x="448" y="1012" fill="#94A3B8" font-size="10" font-weight="600">47</text>
  <text x="683" y="1012" fill="#94A3B8" font-size="10" text-anchor="middle">All stations nominal · Offline capable</text>
  <!-- Bump bar status (admin: Settings > KDS > Bump Bar) -->
  <rect x="960" y="998" width="100" height="18" rx="4" fill="#0A2010"/>
  <text x="1010" y="1011" fill="#4ADE80" font-size="9" font-weight="600" text-anchor="middle">Bump Bar: OK</text>
  <!-- admin: Settings > KDS > Bump Bar -->
  <use xlink:href="#adminGear" x="1062" y="1000" width="10" height="10"/>

  <!-- Order type legend — admin: Settings > Order Types -->
  <use xlink:href="#orderTypeSwatch" x="1080" y="1000" width="8" height="8" fill="#3B82F6"/>
  <text x="1092" y="1009" fill="#475569" font-size="8">Dine</text>
  <use xlink:href="#orderTypeSwatch" x="1120" y="1000" width="8" height="8" fill="#F97316"/>
  <text x="1132" y="1009" fill="#475569" font-size="8">Take</text>
  <use xlink:href="#orderTypeSwatch" x="1156" y="1000" width="8" height="8" fill="#8B5CF6"/>
  <text x="1168" y="1009" fill="#475569" font-size="8">Deliv</text>
  <text x="1300" y="1012" fill="#475569" font-size="10" text-anchor="middle">Target: &#8804;12 min</text>
  <!-- admin: Settings > KDS > Timer Thresholds -->
  <use xlink:href="#adminGear" x="1350" y="1004" width="10" height="10"/>

  <!-- Screen label -->
  <text x="683" y="1022" fill="#0D1018" font-size="8" text-anchor="middle">Synalux POS — Kitchen Display System (iPad Landscape 1366x1024)</text>
</svg>