<svg xmlns="http://www.w3.org/2000/svg" viewBox="0 0 1366 1024" font-family="system-ui,-apple-system,sans-serif">
  <rect width="1366" height="1024" fill="#0F1117"/>

  <!-- Header -->
  <rect x="0" y="0" width="1366" height="56" fill="#1A1D2E"/>
  <text x="20" y="24" font-size="11" fill="#8B92A5">← Back to Floor Plans</text>
  <text x="20" y="44" font-size="18" font-weight="700" fill="#FFFFFF">Floor Plan Editor — Multi-Room</text>
  <text x="450" y="34" font-size="12" fill="#8B92A5">Drag tables to position · Click to edit seats/name · Changes auto-save to pos_tables / pos_rooms</text>
  <!-- Header actions -->
  <rect x="1080" y="12" width="80" height="32" rx="6" fill="#1E2240" stroke="#374151" stroke-width="1"/>
  <text x="1102" y="32" font-size="12" fill="#D1D5DB">Preview</text>
  <rect x="1168" y="12" width="80" height="32" rx="6" fill="#10B981"/>
  <text x="1185" y="32" font-size="12" font-weight="600" fill="#FFFFFF">Save</text>
  <rect x="1256" y="12" width="90" height="32" rx="6" fill="#1E2240" stroke="#374151" stroke-width="1"/>
  <text x="1268" y="32" font-size="12" fill="#D1D5DB">Discard</text>

  <!-- Room tabs -->
  <rect x="0" y="56" width="1366" height="44" fill="#13162A"/>
  <rect x="8" y="62" width="130" height="32" rx="6" fill="#1E2240"/>
  <text x="40" y="82" font-size="12" font-weight="600" fill="#F59E0B">Main Dining</text>
  <rect x="146" y="62" width="90" height="32" rx="6" fill="none"/>
  <text x="166" y="82" font-size="12" fill="#8B92A5">Patio</text>
  <rect x="244" y="62" width="60" height="32" rx="6" fill="none"/>
  <text x="258" y="82" font-size="12" fill="#8B92A5">Bar</text>
  <rect x="312" y="62" width="120" height="32" rx="6" fill="none"/>
  <text x="326" y="82" font-size="12" fill="#8B92A5">Private Room</text>
  <rect x="440" y="68" width="100" height="20" rx="4" fill="#1E2240" stroke="#374151" stroke-width="1"/>
  <text x="452" y="82" font-size="11" fill="#F59E0B">+ Add Room</text>

  <!-- ===== Left Tools Panel ===== -->
  <rect x="0" y="100" width="180" height="924" fill="#13162A"/>
  <text x="16" y="128" font-size="11" font-weight="600" fill="#8B92A5">ADD TABLE</text>

  <!-- Table shapes -->
  <rect x="12" y="136" width="156" height="72" rx="6" fill="#1A1D2E"/>
  <!-- Round table tool -->
  <circle cx="48" cy="168" r="20" fill="#2D2F44" stroke="#F59E0B" stroke-width="1" stroke-dasharray="4"/>
  <text x="44" y="172" font-size="10" fill="#F59E0B">2</text>
  <text x="76" y="162" font-size="11" fill="#D1D5DB">Round</text>
  <text x="76" y="178" font-size="10" fill="#6B7280">2–10 seats</text>
  <text x="76" y="192" font-size="9" fill="#4B5563">drag to canvas</text>

  <rect x="12" y="216" width="156" height="72" rx="6" fill="#1A1D2E"/>
  <!-- Rect table tool -->
  <rect x="24" y="232" width="42" height="28" rx="3" fill="#2D2F44" stroke="#F59E0B" stroke-width="1" stroke-dasharray="4"/>
  <text x="36" y="251" font-size="10" fill="#F59E0B">4</text>
  <text x="76" y="244" font-size="11" fill="#D1D5DB">Rectangular</text>
  <text x="76" y="260" font-size="10" fill="#6B7280">2–12 seats</text>
  <text x="76" y="274" font-size="9" fill="#4B5563">drag to canvas</text>

  <rect x="12" y="296" width="156" height="72" rx="6" fill="#1A1D2E"/>
  <!-- L-shaped -->
  <rect x="24" y="310" width="24" height="40" rx="2" fill="#2D2F44" stroke="#F59E0B" stroke-width="1" stroke-dasharray="4"/>
  <rect x="24" y="334" width="42" height="16" rx="2" fill="#2D2F44" stroke="#F59E0B" stroke-width="1" stroke-dasharray="4"/>
  <text x="76" y="324" font-size="11" fill="#D1D5DB">L-Shaped</text>
  <text x="76" y="340" font-size="10" fill="#6B7280">4–16 seats</text>
  <text x="76" y="354" font-size="9" fill="#4B5563">drag to canvas</text>

  <rect x="12" y="376" width="156" height="72" rx="6" fill="#1A1D2E"/>
  <!-- Bar stool row -->
  <circle cx="30" cy="408" r="6" fill="#2D2F44" stroke="#F59E0B" stroke-width="1" stroke-dasharray="3"/>
  <circle cx="48" cy="408" r="6" fill="#2D2F44" stroke="#F59E0B" stroke-width="1" stroke-dasharray="3"/>
  <circle cx="66" cy="408" r="6" fill="#2D2F44" stroke="#F59E0B" stroke-width="1" stroke-dasharray="3"/>
  <text x="76" y="404" font-size="11" fill="#D1D5DB">Bar Stools</text>
  <text x="76" y="420" font-size="10" fill="#6B7280">row of 2–10</text>
  <text x="76" y="434" font-size="9" fill="#4B5563">drag to canvas</text>

  <!-- Separator -->
  <rect x="16" y="460" width="148" height="1" fill="#374151"/>
  <text x="16" y="480" font-size="11" font-weight="600" fill="#8B92A5">DECOR / ZONES</text>
  <rect x="12" y="488" width="72" height="36" rx="4" fill="#1A1D2E"/>
  <text x="30" y="510" font-size="20">🌿</text>
  <text x="22" y="522" font-size="8" fill="#6B7280">Plants</text>
  <rect x="92" y="488" width="76" height="36" rx="4" fill="#1A1D2E"/>
  <text x="104" y="510" font-size="20">🚪</text>
  <text x="100" y="522" font-size="8" fill="#6B7280">Door/Exit</text>
  <rect x="12" y="532" width="72" height="36" rx="4" fill="#1A1D2E"/>
  <text x="30" y="554" font-size="20">🏧</text>
  <text x="24" y="566" font-size="8" fill="#6B7280">Bar/Counter</text>
  <rect x="92" y="532" width="76" height="36" rx="4" fill="#1A1D2E"/>
  <text x="110" y="554" font-size="20">🌡</text>
  <text x="100" y="566" font-size="8" fill="#6B7280">Wait Station</text>

  <!-- Separator -->
  <rect x="16" y="580" width="148" height="1" fill="#374151"/>
  <text x="16" y="600" font-size="11" font-weight="600" fill="#8B92A5">GRID &amp; SNAP</text>
  <rect x="12" y="608" width="156" height="36" rx="6" fill="#0F1117" stroke="#374151" stroke-width="1"/>
  <text x="28" y="626" font-size="11" fill="#D1D5DB">Grid: 20px</text>
  <rect x="128" y="614" width="34" height="20" rx="10" fill="#10B981"/>
  <circle cx="152" cy="624" r="8" fill="#FFFFFF"/>
  <text x="12" y="660" font-size="10" fill="#6B7280">Snap to grid: ON</text>
  <rect x="12" y="668" width="156" height="28" rx="6" fill="#0F1117" stroke="#374151" stroke-width="1"/>
  <text x="28" y="686" font-size="11" fill="#D1D5DB">Show seat numbers</text>
  <rect x="140" y="674" width="22" height="16" rx="8" fill="#10B981"/>
  <circle cx="152" cy="682" r="6" fill="#FFFFFF"/>

  <!-- Legend -->
  <rect x="16" y="710" width="148" height="1" fill="#374151"/>
  <text x="16" y="730" font-size="11" font-weight="600" fill="#8B92A5">LEGEND</text>
  <circle cx="26" cy="748" r="8" fill="#10B981" opacity="0.3"/>
  <text x="40" y="753" font-size="10" fill="#8B92A5">Available</text>
  <circle cx="26" cy="768" r="8" fill="#F59E0B" opacity="0.3"/>
  <text x="40" y="773" font-size="10" fill="#8B92A5">Occupied (live)</text>
  <circle cx="26" cy="788" r="8" fill="#EF4444" opacity="0.3"/>
  <text x="40" y="793" font-size="10" fill="#8B92A5">Alert / needs attn.</text>
  <circle cx="26" cy="808" r="8" fill="#7C3AED" opacity="0.3"/>
  <text x="40" y="813" font-size="10" fill="#8B92A5">Reserved</text>
  <circle cx="26" cy="828" r="8" fill="#2563EB" opacity="0.3" stroke="#2563EB" stroke-width="1" stroke-dasharray="3"/>
  <text x="40" y="833" font-size="10" fill="#8B92A5">Dirty / cleaning</text>

  <!-- ===== Center: Canvas ===== -->
  <rect x="180" y="100" width="860" height="924" fill="#0D0F1A"/>
  <!-- Grid lines -->
  <g stroke="#1A1D2E" stroke-width="0.5" opacity="0.6">
    <line x1="180" y1="120" x2="1040" y2="120"/>
    <line x1="180" y1="140" x2="1040" y2="140"/>
    <line x1="180" y1="160" x2="1040" y2="160"/>
    <line x1="180" y1="180" x2="1040" y2="180"/>
    <line x1="180" y1="200" x2="1040" y2="200"/>
    <line x1="180" y1="220" x2="1040" y2="220"/>
    <line x1="180" y1="240" x2="1040" y2="240"/>
    <line x1="180" y1="260" x2="1040" y2="260"/>
    <line x1="180" y1="280" x2="1040" y2="280"/>
    <line x1="180" y1="300" x2="1040" y2="300"/>
    <line x1="180" y1="320" x2="1040" y2="320"/>
    <line x1="180" y1="340" x2="1040" y2="340"/>
    <line x1="180" y1="360" x2="1040" y2="360"/>
    <line x1="180" y1="380" x2="1040" y2="380"/>
    <line x1="180" y1="400" x2="1040" y2="400"/>
    <line x1="180" y1="420" x2="1040" y2="420"/>
    <line x1="180" y1="440" x2="1040" y2="440"/>
    <line x1="180" y1="460" x2="1040" y2="460"/>
    <line x1="180" y1="480" x2="1040" y2="480"/>
    <line x1="180" y1="500" x2="1040" y2="500"/>
    <line x1="180" y1="520" x2="1040" y2="520"/>
    <line x1="180" y1="540" x2="1040" y2="540"/>
    <line x1="180" y1="560" x2="1040" y2="560"/>
    <line x1="180" y1="580" x2="1040" y2="580"/>
    <line x1="200" y1="100" x2="200" y2="1024"/>
    <line x1="220" y1="100" x2="220" y2="1024"/>
    <line x1="240" y1="100" x2="240" y2="1024"/>
    <line x1="260" y1="100" x2="260" y2="1024"/>
    <line x1="280" y1="100" x2="280" y2="1024"/>
    <line x1="300" y1="100" x2="300" y2="1024"/>
    <line x1="320" y1="100" x2="320" y2="1024"/>
    <line x1="340" y1="100" x2="340" y2="1024"/>
    <line x1="360" y1="100" x2="360" y2="1024"/>
    <line x1="380" y1="100" x2="380" y2="1024"/>
    <line x1="400" y1="100" x2="400" y2="1024"/>
    <line x1="420" y1="100" x2="420" y2="1024"/>
    <line x1="440" y1="100" x2="440" y2="1024"/>
    <line x1="460" y1="100" x2="460" y2="1024"/>
    <line x1="480" y1="100" x2="480" y2="1024"/>
    <line x1="500" y1="100" x2="500" y2="1024"/>
    <line x1="520" y1="100" x2="520" y2="1024"/>
    <line x1="540" y1="100" x2="540" y2="1024"/>
    <line x1="560" y1="100" x2="560" y2="1024"/>
    <line x1="580" y1="100" x2="580" y2="1024"/>
    <line x1="600" y1="100" x2="600" y2="1024"/>
    <line x1="620" y1="100" x2="620" y2="1024"/>
    <line x1="640" y1="100" x2="640" y2="1024"/>
    <line x1="660" y1="100" x2="660" y2="1024"/>
    <line x1="680" y1="100" x2="680" y2="1024"/>
    <line x1="700" y1="100" x2="700" y2="1024"/>
    <line x1="720" y1="100" x2="720" y2="1024"/>
    <line x1="740" y1="100" x2="740" y2="1024"/>
    <line x1="760" y1="100" x2="760" y2="1024"/>
    <line x1="780" y1="100" x2="780" y2="1024"/>
    <line x1="800" y1="100" x2="800" y2="1024"/>
    <line x1="820" y1="100" x2="820" y2="1024"/>
    <line x1="840" y1="100" x2="840" y2="1024"/>
    <line x1="860" y1="100" x2="860" y2="1024"/>
    <line x1="880" y1="100" x2="880" y2="1024"/>
    <line x1="900" y1="100" x2="900" y2="1024"/>
    <line x1="920" y1="100" x2="920" y2="1024"/>
    <line x1="940" y1="100" x2="940" y2="1024"/>
    <line x1="960" y1="100" x2="960" y2="1024"/>
    <line x1="980" y1="100" x2="980" y2="1024"/>
    <line x1="1000" y1="100" x2="1000" y2="1024"/>
    <line x1="1020" y1="100" x2="1020" y2="1024"/>
  </g>

  <!-- Room boundary label -->
  <text x="196" y="120" font-size="10" fill="#374151">Main Dining Room</text>

  <!-- Decor: Bar counter -->
  <rect x="196" y="126" width="160" height="30" rx="4" fill="#1E2240" stroke="#4B5563" stroke-width="1"/>
  <text x="220" y="146" font-size="11" fill="#6B7280">🏧 Bar / Counter</text>

  <!-- Decor: plants -->
  <text x="690" y="126" font-size="18">🌿</text>
  <text x="780" y="126" font-size="18">🌿</text>
  <text x="870" y="126" font-size="18">🌿</text>

  <!-- Exit door -->
  <rect x="970" y="100" width="70" height="16" rx="0" fill="#4B5563"/>
  <text x="975" y="113" font-size="9" fill="#9CA3AF">🚪 EXIT</text>

  <!-- TABLE 1 — Round, 4 seats, selected (editing) amber glow -->
  <circle cx="290" cy="220" r="36" fill="#1E2240" stroke="#F59E0B" stroke-width="2"/>
  <!-- seat dots around circle -->
  <circle cx="290" cy="180" r="7" fill="#2D3748" stroke="#6B7280" stroke-width="1"/>
  <text x="287" y="184" font-size="7" fill="#9CA3AF">1</text>
  <circle cx="326" cy="220" r="7" fill="#2D3748" stroke="#6B7280" stroke-width="1"/>
  <text x="323" y="224" font-size="7" fill="#9CA3AF">2</text>
  <circle cx="290" cy="256" r="7" fill="#2D3748" stroke="#6B7280" stroke-width="1"/>
  <text x="287" y="260" font-size="7" fill="#9CA3AF">3</text>
  <circle cx="254" cy="220" r="7" fill="#2D3748" stroke="#6B7280" stroke-width="1"/>
  <text x="251" y="224" font-size="7" fill="#9CA3AF">4</text>
  <text x="282" y="218" font-size="10" font-weight="700" fill="#F59E0B">T1</text>
  <text x="276" y="232" font-size="8" fill="#8B92A5">4 seats</text>
  <!-- Move handle indicator -->
  <text x="308" y="194" font-size="10" fill="#F59E0B">✥</text>

  <!-- TABLE 2 — Round 2 seats -->
  <circle cx="420" cy="200" r="28" fill="#1A1D2E" stroke="#10B981" stroke-width="1.5"/>
  <circle cx="420" cy="168" r="7" fill="#2D3748" stroke="#6B7280" stroke-width="1"/>
  <text x="417" y="172" font-size="7" fill="#9CA3AF">1</text>
  <circle cx="420" cy="232" r="7" fill="#2D3748" stroke="#6B7280" stroke-width="1"/>
  <text x="417" y="236" font-size="7" fill="#9CA3AF">2</text>
  <text x="413" y="198" font-size="10" font-weight="700" fill="#10B981">T2</text>
  <text x="409" y="210" font-size="8" fill="#8B92A5">2 seats</text>

  <!-- TABLE 3 — Rect 4 seats -->
  <rect x="490" y="162" width="80" height="56" rx="4" fill="#1A1D2E" stroke="#10B981" stroke-width="1.5"/>
  <!-- seats top/bottom -->
  <circle cx="510" cy="157" r="7" fill="#2D3748" stroke="#6B7280" stroke-width="1"/>
  <text x="507" y="161" font-size="7" fill="#9CA3AF">1</text>
  <circle cx="550" cy="157" r="7" fill="#2D3748" stroke="#6B7280" stroke-width="1"/>
  <text x="547" y="161" font-size="7" fill="#9CA3AF">2</text>
  <circle cx="510" cy="224" r="7" fill="#2D3748" stroke="#6B7280" stroke-width="1"/>
  <text x="507" y="228" font-size="7" fill="#9CA3AF">3</text>
  <circle cx="550" cy="224" r="7" fill="#2D3748" stroke="#6B7280" stroke-width="1"/>
  <text x="547" y="228" font-size="7" fill="#9CA3AF">4</text>
  <text x="516" y="187" font-size="10" font-weight="700" fill="#10B981">T3</text>
  <text x="510" y="201" font-size="8" fill="#8B92A5">4 seats</text>

  <!-- TABLE 4 — Rect 6 seats occupied -->
  <rect x="620" y="152" width="100" height="66" rx="4" fill="#1E2240" stroke="#F59E0B" stroke-width="1.5"/>
  <circle cx="640" cy="145" r="7" fill="#2D3748" stroke="#6B7280" stroke-width="1"/>
  <circle cx="670" cy="145" r="7" fill="#2D3748" stroke="#6B7280" stroke-width="1"/>
  <circle cx="700" cy="145" r="7" fill="#2D3748" stroke="#6B7280" stroke-width="1"/>
  <circle cx="640" cy="225" r="7" fill="#2D3748" stroke="#6B7280" stroke-width="1"/>
  <circle cx="670" cy="225" r="7" fill="#2D3748" stroke="#6B7280" stroke-width="1"/>
  <circle cx="700" cy="225" r="7" fill="#2D3748" stroke="#6B7280" stroke-width="1"/>
  <text x="648" y="183" font-size="10" font-weight="700" fill="#F59E0B">T4</text>
  <text x="640" y="197" font-size="8" fill="#8B92A5">6 seats</text>
  <text x="638" y="209" font-size="7" fill="#F59E0B">Occupied</text>

  <!-- TABLE 5 — Round 8 seats, large -->
  <circle cx="860" cy="220" r="52" fill="#1A1D2E" stroke="#10B981" stroke-width="1.5"/>
  <!-- 8 seats around circle -->
  <circle cx="860" cy="162" r="8" fill="#2D3748" stroke="#6B7280" stroke-width="1"/>
  <text x="857" y="166" font-size="7" fill="#9CA3AF">1</text>
  <circle cx="897" cy="177" r="8" fill="#2D3748" stroke="#6B7280" stroke-width="1"/>
  <text x="894" y="181" font-size="7" fill="#9CA3AF">2</text>
  <circle cx="912" cy="220" r="8" fill="#2D3748" stroke="#6B7280" stroke-width="1"/>
  <text x="909" y="224" font-size="7" fill="#9CA3AF">3</text>
  <circle cx="897" cy="263" r="8" fill="#2D3748" stroke="#6B7280" stroke-width="1"/>
  <text x="894" y="267" font-size="7" fill="#9CA3AF">4</text>
  <circle cx="860" cy="278" r="8" fill="#2D3748" stroke="#6B7280" stroke-width="1"/>
  <text x="857" y="282" font-size="7" fill="#9CA3AF">5</text>
  <circle cx="823" cy="263" r="8" fill="#2D3748" stroke="#6B7280" stroke-width="1"/>
  <text x="820" y="267" font-size="7" fill="#9CA3AF">6</text>
  <circle cx="808" cy="220" r="8" fill="#2D3748" stroke="#6B7280" stroke-width="1"/>
  <text x="805" y="224" font-size="7" fill="#9CA3AF">7</text>
  <circle cx="823" cy="177" r="8" fill="#2D3748" stroke="#6B7280" stroke-width="1"/>
  <text x="820" y="181" font-size="7" fill="#9CA3AF">8</text>
  <text x="851" y="218" font-size="12" font-weight="700" fill="#10B981">T5</text>
  <text x="845" y="232" font-size="8" fill="#8B92A5">8 seats</text>

  <!-- Row 2 of tables -->
  <!-- T6 -->
  <rect x="200" y="340" width="80" height="56" rx="4" fill="#1A1D2E" stroke="#10B981" stroke-width="1.5"/>
  <circle cx="220" cy="333" r="7" fill="#2D3748" stroke="#6B7280" stroke-width="1"/>
  <circle cx="260" cy="333" r="7" fill="#2D3748" stroke="#6B7280" stroke-width="1"/>
  <circle cx="220" cy="403" r="7" fill="#2D3748" stroke="#6B7280" stroke-width="1"/>
  <circle cx="260" cy="403" r="7" fill="#2D3748" stroke="#6B7280" stroke-width="1"/>
  <text x="226" y="367" font-size="10" font-weight="700" fill="#10B981">T6</text>
  <text x="220" y="381" font-size="8" fill="#8B92A5">4 seats</text>

  <!-- T7 reserved -->
  <circle cx="380" cy="380" r="36" fill="#1E2240" stroke="#7C3AED" stroke-width="1.5"/>
  <circle cx="380" cy="340" r="7" fill="#2D3748" stroke="#6B7280" stroke-width="1"/>
  <circle cx="416" cy="380" r="7" fill="#2D3748" stroke="#6B7280" stroke-width="1"/>
  <circle cx="380" cy="416" r="7" fill="#2D3748" stroke="#6B7280" stroke-width="1"/>
  <circle cx="344" cy="380" r="7" fill="#2D3748" stroke="#6B7280" stroke-width="1"/>
  <text x="372" y="378" font-size="10" font-weight="700" fill="#7C3AED">T7</text>
  <text x="364" y="391" font-size="8" fill="#7C3AED">Reserved</text>

  <!-- T8 alert red -->
  <rect x="490" y="320" width="100" height="66" rx="4" fill="#1E2240" stroke="#EF4444" stroke-width="2"/>
  <text x="516" y="353" font-size="10" font-weight="700" fill="#EF4444">T8</text>
  <text x="504" y="367" font-size="8" fill="#EF4444">CHECK REQ.</text>
  <text x="504" y="379" font-size="7" fill="#8B92A5">6 seats · 72min</text>

  <!-- T9 -->
  <circle cx="680" cy="380" r="28" fill="#1A1D2E" stroke="#10B981" stroke-width="1.5"/>
  <text x="673" y="378" font-size="10" font-weight="700" fill="#10B981">T9</text>
  <text x="666" y="390" font-size="8" fill="#8B92A5">2 seats</text>

  <!-- T10 dirty/cleaning -->
  <rect x="780" y="320" width="100" height="66" rx="4" fill="#1A1D2E" stroke="#2563EB" stroke-width="2" stroke-dasharray="5"/>
  <text x="808" y="353" font-size="10" font-weight="700" fill="#2563EB">T10</text>
  <text x="800" y="367" font-size="8" fill="#2563EB">Cleaning</text>
  <text x="800" y="379" font-size="7" fill="#8B92A5">4 seats</text>

  <!-- Ghost table being dragged (drag indicator) -->
  <circle cx="600" cy="500" r="36" fill="#F59E0B" opacity="0.2" stroke="#F59E0B" stroke-width="2" stroke-dasharray="6"/>
  <text x="590" y="498" font-size="10" font-weight="700" fill="#F59E0B" opacity="0.8">NEW</text>
  <text x="582" y="512" font-size="9" fill="#F59E0B" opacity="0.8">Drop here…</text>

  <!-- ===== Right: Table Edit Panel ===== -->
  <rect x="1040" y="100" width="326" height="924" fill="#1A1D2E"/>
  <text x="1056" y="128" font-size="14" font-weight="600" fill="#FFFFFF">Edit Table</text>
  <text x="1056" y="144" font-size="10" fill="#8B92A5">pos_tables.id = T1</text>

  <!-- Table name -->
  <text x="1056" y="172" font-size="10" fill="#8B92A5">TABLE NAME (name_i18n)</text>
  <rect x="1056" y="178" width="294" height="32" rx="6" fill="#0F1117" stroke="#F59E0B" stroke-width="1"/>
  <text x="1070" y="199" font-size="13" font-weight="600" fill="#FFFFFF">Table 1</text>

  <!-- Seat count -->
  <text x="1056" y="232" font-size="10" fill="#8B92A5">SEAT COUNT</text>
  <rect x="1056" y="238" width="80" height="36" rx="6" fill="#0F1117" stroke="#374151" stroke-width="1"/>
  <text x="1074" y="261" font-size="18" font-weight="700" fill="#F59E0B">4</text>
  <rect x="1144" y="238" width="32" height="36" rx="6" fill="#1E2240" stroke="#374151" stroke-width="1"/>
  <text x="1152" y="261" font-size="18" fill="#F59E0B">−</text>
  <rect x="1184" y="238" width="32" height="36" rx="6" fill="#1E2240" stroke="#374151" stroke-width="1"/>
  <text x="1192" y="261" font-size="18" fill="#F59E0B">+</text>
  <text x="1228" y="261" font-size="10" fill="#6B7280">max 20</text>

  <!-- Shape -->
  <text x="1056" y="298" font-size="10" fill="#8B92A5">SHAPE</text>
  <rect x="1056" y="304" width="90" height="32" rx="6" fill="#F59E0B"/>
  <text x="1076" y="324" font-size="12" font-weight="600" fill="#000">Round</text>
  <rect x="1154" y="304" width="96" height="32" rx="6" fill="#1E2240" stroke="#374151" stroke-width="1"/>
  <text x="1174" y="324" font-size="12" fill="#6B7280">Rectangle</text>
  <rect x="1258" y="304" width="72" height="32" rx="6" fill="#1E2240" stroke="#374151" stroke-width="1"/>
  <text x="1272" y="324" font-size="12" fill="#6B7280">L-Shape</text>

  <!-- Revenue center assignment -->
  <text x="1056" y="360" font-size="10" fill="#8B92A5">REVENUE CENTER</text>
  <rect x="1056" y="366" width="294" height="32" rx="6" fill="#0F1117" stroke="#374151" stroke-width="1"/>
  <text x="1070" y="387" font-size="12" fill="#FFFFFF">Main Dining (RC-001)</text>
  <text x="1318" y="387" font-size="16" fill="#6B7280">▾</text>

  <!-- Server assignment -->
  <text x="1056" y="422" font-size="10" fill="#8B92A5">DEFAULT SERVER</text>
  <rect x="1056" y="428" width="294" height="32" rx="6" fill="#0F1117" stroke="#374151" stroke-width="1"/>
  <text x="1070" y="449" font-size="12" fill="#FFFFFF">Carlos Ruiz</text>
  <text x="1318" y="449" font-size="16" fill="#6B7280">▾</text>

  <!-- Position coordinates -->
  <text x="1056" y="486" font-size="10" fill="#8B92A5">POSITION (px on canvas)</text>
  <rect x="1056" y="492" width="136" height="28" rx="6" fill="#0F1117" stroke="#374151" stroke-width="1"/>
  <text x="1066" y="511" font-size="11" fill="#6B7280">X:</text>
  <text x="1082" y="511" font-size="11" fill="#FFFFFF">290</text>
  <rect x="1200" y="492" width="150" height="28" rx="6" fill="#0F1117" stroke="#374151" stroke-width="1"/>
  <text x="1210" y="511" font-size="11" fill="#6B7280">Y:</text>
  <text x="1226" y="511" font-size="11" fill="#FFFFFF">220</text>

  <!-- Seat label config -->
  <text x="1056" y="546" font-size="10" fill="#8B92A5">SEAT LABELS (pos_tables.seat_config jsonb)</text>
  <rect x="1056" y="552" width="294" height="100" rx="6" fill="#0F1117" stroke="#374151" stroke-width="1"/>
  <text x="1070" y="574" font-size="11" fill="#6B7280">S1:</text>
  <rect x="1098" y="560" width="120" height="22" rx="4" fill="#1A1D2E" stroke="#374151" stroke-width="1"/>
  <text x="1108" y="576" font-size="11" fill="#D1D5DB">Window Seat</text>
  <text x="1070" y="596" font-size="11" fill="#6B7280">S2:</text>
  <rect x="1098" y="584" width="120" height="22" rx="4" fill="#1A1D2E" stroke="#374151" stroke-width="1"/>
  <text x="1108" y="600" font-size="11" fill="#D1D5DB">Seat 2</text>
  <text x="1070" y="618" font-size="11" fill="#6B7280">S3:</text>
  <rect x="1098" y="608" width="120" height="22" rx="4" fill="#1A1D2E" stroke="#374151" stroke-width="1"/>
  <text x="1108" y="624" font-size="11" fill="#D1D5DB">Seat 3</text>
  <text x="1070" y="640" font-size="11" fill="#6B7280">S4:</text>
  <rect x="1098" y="630" width="120" height="22" rx="4" fill="#1A1D2E" stroke="#374151" stroke-width="1"/>
  <text x="1108" y="646" font-size="11" fill="#D1D5DB">Seat 4</text>

  <!-- Live mode note -->
  <rect x="1056" y="666" width="294" height="60" rx="6" fill="#1E3A5F" stroke="#3B82F6" stroke-width="1"/>
  <text x="1072" y="688" font-size="11" font-weight="600" fill="#93C5FD">Live Operation</text>
  <text x="1072" y="704" font-size="10" fill="#D1D5DB">Layout changes take effect immediately.</text>
  <text x="1072" y="718" font-size="10" fill="#D1D5DB">Active orders are not affected by moves.</text>

  <!-- Delete table -->
  <rect x="1056" y="740" width="294" height="36" rx="6" fill="#7F1D1D"/>
  <text x="1162" y="763" font-size="13" font-weight="600" fill="#FCA5A5">Delete Table</text>

  <!-- Save button -->
  <rect x="1056" y="786" width="294" height="40" rx="6" fill="#F59E0B"/>
  <text x="1162" y="811" font-size="14" font-weight="700" fill="#000000">Save Layout</text>

  <text x="683" y="1014" font-size="11" text-anchor="middle" fill="#4B5563">Synalux POS · Floor Plan Editor · pos_tables + pos_rooms — drag &amp; drop · multi-room · no hardcodes</text>
</svg>
