<svg role="img" aria-labelledby="title-ipad_02_tables-svg" xmlns="http://www.w3.org/2000/svg" xmlns:xlink="http://www.w3.org/1999/xlink" viewBox="0 0 1366 1024" font-family="-apple-system,BlinkMacSystemFont,'SF Pro Display','Segoe UI',sans-serif">
  <title id="title-ipad_02_tables-svg">Synalux POS — 02 taUles</title>
  <desc>Synalux POS mockup screen for 02 taUles. All UI elements admin-configurable.</desc>
  <defs>
    <linearGradient id="headerGrad" x1="0" y1="0" x2="0" y2="1">
      <stop offset="0%" stop-color="#1E2235"/>
      <stop offset="100%" stop-color="#181B2E"/>
    </linearGradient>
    <linearGradient id="seatBtnGrad" x1="0" y1="0" x2="0" y2="1">
      <stop offset="0%" stop-color="#34D399"/>
      <stop offset="100%" stop-color="#16A34A"/>
    </linearGradient>
    <pattern id="grid" width="40" height="40" patternUnits="userSpaceOnUse">
      <path d="M 40 0 L 0 0 0 40" fill="none" stroke="#161930" stroke-width="0.5"/>
    </pattern>
    <filter id="tableShadow">
      <feDropShadow dx="0" dy="2" stdDeviation="6" flood-color="#000" flood-opacity="0.35"/>
    </filter>
    <filter id="alertPulse">
      <feDropShadow dx="0" dy="0" stdDeviation="6" flood-color="#EF4444" flood-opacity="0.3"/>
    </filter>
    <filter id="selectedGlow">
      <feDropShadow dx="0" dy="0" stdDeviation="8" flood-color="#F59E0B" flood-opacity="0.25"/>
    </filter>

    <!-- ═══════════ SYMBOL DEFINITIONS ═══════════ -->

    <!-- Admin gear icon — admin: Settings > General -->
    <symbol id="adminGear" viewBox="0 0 14 14">
      <circle cx="7" cy="7" r="2.5" fill="none" stroke="#F59E0B" stroke-width="0.8" opacity="0.3"/>
      <path d="M7 1v1.5M7 11.5V13M1 7h1.5M11.5 7H13M2.8 2.8l1 1M10.2 10.2l1 1M2.8 11.2l1-1M10.2 3.8l1-1" stroke="#F59E0B" stroke-width="0.6" stroke-linecap="round" opacity="0.3"/>
    </symbol>

    <!-- Horizontal chair (top/bottom of table) — admin: Settings > Floor Plan > Table Shapes -->
    <symbol id="chairH" viewBox="0 0 44 8">
      <rect width="44" height="8" rx="4"/>
    </symbol>

    <!-- Vertical chair (left/right of table) — admin: Settings > Floor Plan > Table Shapes -->
    <symbol id="chairV" viewBox="0 0 8 44">
      <rect width="8" height="44" rx="4"/>
    </symbol>

    <!-- Narrow horizontal chair (28w) — admin: Settings > Floor Plan > Table Shapes -->
    <symbol id="chairHNarrow" viewBox="0 0 28 8">
      <rect width="28" height="8" rx="4"/>
    </symbol>

    <!-- Short vertical chair (28h) — admin: Settings > Floor Plan > Table Shapes -->
    <symbol id="chairVShort" viewBox="0 0 8 28">
      <rect width="8" height="28" rx="4"/>
    </symbol>

    <!-- Short vertical chair (36h) — admin: Settings > Floor Plan > Table Shapes -->
    <symbol id="chairV36" viewBox="0 0 8 36">
      <rect width="8" height="36" rx="4"/>
    </symbol>

    <!-- Small horizontal chair (32w) — admin: Settings > Floor Plan > Table Shapes -->
    <symbol id="chairH32" viewBox="0 0 32 8">
      <rect width="32" height="8" rx="4"/>
    </symbol>

    <!-- Section tab (inactive) — admin: Settings > Floor Plan > Sections -->
    <symbol id="sectionTab" viewBox="0 0 100 28">
      <rect width="100" height="28" rx="6" fill="#1A1D2E"/>
    </symbol>

    <!-- Action button (neutral) — admin: Settings > Table Actions -->
    <symbol id="actionBtn" viewBox="0 0 146 40">
      <rect width="146" height="40" rx="7" fill="#1A1D2E" stroke="#2A2E45" stroke-width="1"/>
    </symbol>

    <!-- Small action button — admin: Settings > Table Actions -->
    <symbol id="actionBtnSm" viewBox="0 0 96 36">
      <rect width="96" height="36" rx="6" fill="#1A1D2E" stroke="#2A2E45" stroke-width="1"/>
    </symbol>

    <!-- Stat card — admin: Settings > Floor Plan > Summary Stats -->
    <symbol id="statCard" viewBox="0 0 146 62">
      <rect width="146" height="62" rx="8" fill="#161930"/>
    </symbol>

    <!-- Waitlist card — admin: Settings > Waitlist -->
    <symbol id="waitlistCard" viewBox="0 0 300 52">
      <rect width="300" height="52" rx="8" fill="#161930"/>
    </symbol>

    <!-- Seat Now button — admin: Settings > Waitlist > Quick Seat -->
    <symbol id="seatNowBtn" viewBox="0 0 68 22">
      <rect width="68" height="22" rx="5" fill="url(#seatBtnGrad)"/>
    </symbol>

    <!-- Reservation card — admin: Settings > Reservations -->
    <symbol id="reservationCard" viewBox="0 0 300 42">
      <rect width="300" height="42" rx="8" fill="#161930"/>
    </symbol>

    <!-- Legend dot — admin: Settings > Floor Plan > Status Colors -->
    <symbol id="legendDot" viewBox="0 0 10 10">
      <circle cx="5" cy="5" r="5"/>
    </symbol>

    <!-- Left nav item — admin: Settings > Navigation -->
    <symbol id="navItem" viewBox="0 0 60 54">
      <rect width="60" height="54" rx="8" fill="none"/>
    </symbol>

    <!-- Wide action button — admin: Settings > Table Actions -->
    <symbol id="actionBtnWide" viewBox="0 0 300 38">
      <rect width="300" height="38" rx="7"/>
    </symbol>

  </defs>

  <!-- ═══════════ BACKGROUND ═══════════ -->
  <rect width="1366" height="1024" fill="#0C0E1A"/>

  <!-- ═══════════ TOP NAV BAR ═══════════ -->
  <rect x="0" y="0" width="1366" height="52" fill="url(#headerGrad)"/>
  <rect x="0" y="52" width="1366" height="1" fill="#2A2E45" opacity="0.7"/>

  <circle cx="18" cy="26" r="5" fill="#22C55E"/>
  <circle cx="18" cy="26" r="5" fill="#22C55E" opacity="0.4">
    <animate attributeName="r" values="5;8;5" dur="2s" repeatCount="indefinite"/>
    <animate attributeName="opacity" values="0.4;0;0.4" dur="2s" repeatCount="indefinite"/>
  </circle>
  <text x="30" y="30" fill="#4ADE80" font-size="10" font-weight="700" letter-spacing="0.5">LIVE</text>
  <text x="62" y="31" fill="#F59E0B" font-size="16" font-weight="800" letter-spacing="-0.3">synalux</text>
  <text x="131" y="31" fill="#64748B" font-size="16" font-weight="400">POS</text>

  <text x="540" y="21" fill="#64748B" font-size="10" font-weight="500" letter-spacing="0.5">TABLE MANAGEMENT</text>
  <text x="540" y="38" fill="#E2E8F0" font-size="13" font-weight="600">Main Dining Room</text>

  <text x="1240" y="21" fill="#64748B" font-size="10" font-weight="500" letter-spacing="0.5">WEDNESDAY</text>
  <text x="1240" y="38" fill="#E2E8F0" font-size="15" font-weight="700" letter-spacing="-0.3">2:10 PM</text>

  <rect x="1308" y="14" width="24" height="24" rx="6" fill="#1E2235"/>
  <text x="1320" y="31" fill="#64748B" font-size="13" text-anchor="middle">&#9881;</text>
  <rect x="1338" y="14" width="24" height="24" rx="6" fill="#1E2235"/>
  <text x="1350" y="31" fill="#64748B" font-size="13" text-anchor="middle">&#128276;</text>

  <!-- ═══════════ LEFT NAV ═══════════ -->
  <rect x="0" y="53" width="72" height="971" fill="#111425"/>
  <rect x="72" y="53" width="1" height="971" fill="#1E2235"/>

  <!-- Register — admin: Settings > Navigation -->
  <use xlink:href="#navItem" x="6" y="62" width="60" height="54"/>
  <text x="36" y="86" fill="#64748B" font-size="18" text-anchor="middle">&#128421;</text>
  <text x="36" y="106" fill="#475569" font-size="8" font-weight="500" text-anchor="middle">Register</text>

  <!-- Tables (active) — admin: Settings > Navigation -->
  <rect x="6" y="122" width="60" height="54" rx="8" fill="#F59E0B"/>
  <text x="36" y="146" fill="#0C0E1A" font-size="18" text-anchor="middle">&#128506;</text>
  <text x="36" y="166" fill="#0C0E1A" font-size="8" font-weight="700" text-anchor="middle">Tables</text>

  <!-- KDS — admin: Settings > Navigation -->
  <use xlink:href="#navItem" x="6" y="182" width="60" height="54"/>
  <text x="36" y="206" fill="#64748B" font-size="18" text-anchor="middle">&#129489;&#8205;&#127859;</text>
  <text x="36" y="226" fill="#475569" font-size="8" font-weight="500" text-anchor="middle">Kitchen</text>

  <!-- Reports — admin: Settings > Navigation -->
  <use xlink:href="#navItem" x="6" y="242" width="60" height="54"/>
  <text x="36" y="266" fill="#64748B" font-size="18" text-anchor="middle">&#128202;</text>
  <text x="36" y="286" fill="#475569" font-size="8" font-weight="500" text-anchor="middle">Reports</text>

  <!-- Staff — admin: Settings > Navigation -->
  <use xlink:href="#navItem" x="6" y="302" width="60" height="54"/>
  <text x="36" y="326" fill="#64748B" font-size="18" text-anchor="middle">&#128101;</text>
  <text x="36" y="346" fill="#475569" font-size="8" font-weight="500" text-anchor="middle">Staff</text>

  <!-- Settings — admin: Settings > Navigation -->
  <use xlink:href="#navItem" x="6" y="362" width="60" height="54"/>
  <text x="36" y="386" fill="#64748B" font-size="18" text-anchor="middle">&#9881;</text>
  <text x="36" y="406" fill="#475569" font-size="8" font-weight="500" text-anchor="middle">Settings</text>

  <!-- ═══════════ FLOOR SECTION TABS ═══════════ -->
  <!-- admin: Settings > Floor Plan > Sections -->
  <rect x="73" y="53" width="1293" height="44" fill="#111425"/>
  <rect x="73" y="97" width="1293" height="1" fill="#1E2235"/>

  <!-- Active tab -->
  <rect x="84" y="60" width="130" height="28" rx="6" fill="#F59E0B"/>
  <text x="149" y="79" fill="#0C0E1A" font-size="11" font-weight="700" text-anchor="middle">Main Dining (18)</text>
  <!-- admin: Settings > Floor Plan > Sections -->
  <use xlink:href="#adminGear" x="200" y="62" width="10" height="10"/>

  <!-- Inactive tabs -->
  <use xlink:href="#sectionTab" x="222" y="60" width="100" height="28"/>
  <text x="272" y="79" fill="#94A3B8" font-size="11" font-weight="500" text-anchor="middle">Patio (8)</text>

  <use xlink:href="#sectionTab" x="330" y="60" width="80" height="28"/>
  <text x="370" y="79" fill="#94A3B8" font-size="11" font-weight="500" text-anchor="middle">Bar (6)</text>

  <use xlink:href="#sectionTab" x="418" y="60" width="110" height="28"/>
  <text x="473" y="79" fill="#94A3B8" font-size="11" font-weight="500" text-anchor="middle">Private (4)</text>

  <!-- + Add Section (admin: Settings > Floor Plan > Sections) -->
  <rect x="536" y="60" width="32" height="28" rx="6" fill="#1A1D2E" stroke="#2A2E45" stroke-width="0.5"/>
  <text x="552" y="79" fill="#475569" font-size="14" font-weight="400" text-anchor="middle">+</text>

  <!-- Legend — admin: Settings > Floor Plan > Status Colors -->
  <use xlink:href="#legendDot" x="675" y="69" width="10" height="10" fill="#22C55E"/>
  <text x="692" y="78" fill="#64748B" font-size="10">Open</text>
  <use xlink:href="#legendDot" x="735" y="69" width="10" height="10" fill="#F59E0B"/>
  <text x="752" y="78" fill="#64748B" font-size="10">Seated</text>
  <use xlink:href="#legendDot" x="805" y="69" width="10" height="10" fill="#EF4444"/>
  <text x="822" y="78" fill="#64748B" font-size="10">Alert</text>
  <use xlink:href="#legendDot" x="863" y="69" width="10" height="10" fill="#8B5CF6"/>
  <text x="880" y="78" fill="#64748B" font-size="10">Reserved</text>
  <use xlink:href="#legendDot" x="945" y="69" width="10" height="10" fill="#3B82F6"/>
  <text x="962" y="78" fill="#64748B" font-size="10">Dirty</text>
  <!-- admin: Settings > Floor Plan > Status Colors -->
  <use xlink:href="#adminGear" x="992" y="69" width="10" height="10"/>

  <!-- ═══════════ FLOOR PLAN CANVAS ═══════════ -->
  <rect x="73" y="98" width="960" height="926" fill="#0A0C16"/>
  <rect x="73" y="98" width="960" height="926" fill="url(#grid)"/>

  <!-- Room outline -->
  <rect x="90" y="115" width="926" height="890" fill="none" stroke="#1E2235" stroke-width="1.5" rx="4" stroke-dasharray="none"/>

  <!-- Entrance / Kitchen labels -->
  <rect x="480" y="115" width="100" height="18" rx="4" fill="#111425"/>
  <text x="530" y="129" fill="#475569" font-size="9" font-weight="600" letter-spacing="1" text-anchor="middle">ENTRANCE</text>
  <rect x="480" y="987" width="100" height="18" rx="4" fill="#111425"/>
  <text x="530" y="1001" fill="#475569" font-size="9" font-weight="600" letter-spacing="1" text-anchor="middle">KITCHEN</text>

  <!-- ═══════════ TABLES ═══════════ -->
  <!-- admin: Settings > Floor Plan > Table Shapes, Capacities, Timers -->

  <!-- T1 — Open, round 2-top -->
  <circle cx="190" cy="220" r="42" fill="#0A1A0D" stroke="#22C55E" stroke-width="1.5" filter="url(#tableShadow)"/>
  <text x="190" y="212" fill="#22C55E" font-size="14" font-weight="700" text-anchor="middle">T1</text>
  <text x="190" y="228" fill="#475569" font-size="10" text-anchor="middle">2-top</text>
  <text x="190" y="244" fill="#22C55E" font-size="10" font-weight="500" text-anchor="middle">Open</text>
  <use xlink:href="#chairH" x="168" y="175" width="44" height="8" fill="#0D2B12"/>
  <use xlink:href="#chairH" x="168" y="267" width="44" height="8" fill="#0D2B12"/>
  <use xlink:href="#adminGear" x="220" y="178" width="10" height="10"/>

  <!-- T2 — Seated, round 4-top (new) -->
  <circle cx="360" cy="220" r="48" fill="#1A1000" stroke="#F59E0B" stroke-width="1.5" filter="url(#tableShadow)"/>
  <text x="360" y="208" fill="#F59E0B" font-size="14" font-weight="700" text-anchor="middle">T2</text>
  <text x="360" y="224" fill="#94A3B8" font-size="10" text-anchor="middle">4-top · 3</text>
  <text x="360" y="240" fill="#F59E0B" font-size="12" font-weight="700" text-anchor="middle">$47.50</text>
  <text x="360" y="254" fill="#4ADE80" font-size="9" font-weight="500" text-anchor="middle">Just seated</text>
  <use xlink:href="#chairH" x="338" y="170" width="44" height="8" fill="#2A1A00"/>
  <use xlink:href="#chairH" x="338" y="272" width="44" height="8" fill="#2A1A00"/>
  <use xlink:href="#chairV" x="309" y="198" width="8" height="44" fill="#2A1A00"/>
  <use xlink:href="#chairV" x="411" y="198" width="8" height="44" fill="#2A1A00"/>

  <!-- T3 — Open, rect 6-top -->
  <rect x="510" y="170" width="130" height="96" rx="10" fill="#0A1A0D" stroke="#22C55E" stroke-width="1.5" filter="url(#tableShadow)"/>
  <text x="575" y="203" fill="#22C55E" font-size="14" font-weight="700" text-anchor="middle">T3</text>
  <text x="575" y="219" fill="#475569" font-size="10" text-anchor="middle">6-top</text>
  <text x="575" y="235" fill="#22C55E" font-size="10" font-weight="500" text-anchor="middle">Open</text>
  <use xlink:href="#chairH32" x="525" y="159" width="32" height="8" fill="#0D2B12"/>
  <use xlink:href="#chairH32" x="603" y="159" width="32" height="8" fill="#0D2B12"/>
  <use xlink:href="#chairH32" x="525" y="269" width="32" height="8" fill="#0D2B12"/>
  <use xlink:href="#chairH32" x="603" y="269" width="32" height="8" fill="#0D2B12"/>
  <use xlink:href="#chairV36" x="498" y="200" width="8" height="36" fill="#0D2B12"/>
  <use xlink:href="#chairV36" x="644" y="200" width="8" height="36" fill="#0D2B12"/>

  <!-- T4 — Selected (current), rect 4-top -->
  <rect x="730" y="170" width="110" height="96" rx="10" fill="#1A1000" stroke="#F59E0B" stroke-width="2" filter="url(#selectedGlow)"/>
  <rect x="726" y="166" width="118" height="104" rx="13" fill="none" stroke="#F59E0B" stroke-width="1" opacity="0.3"/>
  <text x="785" y="204" fill="#F59E0B" font-size="14" font-weight="700" text-anchor="middle">T4</text>
  <text x="785" y="220" fill="#94A3B8" font-size="10" text-anchor="middle">4-top · 2</text>
  <text x="785" y="236" fill="#F59E0B" font-size="12" font-weight="700" text-anchor="middle">$32.71</text>
  <text x="785" y="250" fill="#475569" font-size="9" text-anchor="middle">5 min</text>
  <use xlink:href="#chairH32" x="750" y="159" width="32" height="8" fill="#2A1A00"/>
  <use xlink:href="#chairH32" x="788" y="159" width="32" height="8" fill="#2A1A00"/>
  <use xlink:href="#chairH32" x="750" y="269" width="32" height="8" fill="#2A1A00"/>
  <use xlink:href="#chairH32" x="788" y="269" width="32" height="8" fill="#2A1A00"/>
  <!-- ACTIVE badge -->
  <rect x="756" y="155" width="58" height="16" rx="4" fill="#F59E0B"/>
  <text x="785" y="166" fill="#0C0E1A" font-size="8" font-weight="800" text-anchor="middle">ACTIVE</text>

  <!-- T5 — Reserved, round 2-top -->
  <circle cx="190" cy="430" r="42" fill="#120A20" stroke="#8B5CF6" stroke-width="1.5" filter="url(#tableShadow)"/>
  <text x="190" y="422" fill="#8B5CF6" font-size="14" font-weight="700" text-anchor="middle">T5</text>
  <text x="190" y="438" fill="#475569" font-size="10" text-anchor="middle">2-top</text>
  <text x="190" y="454" fill="#A78BFA" font-size="10" font-weight="500" text-anchor="middle">7:00 PM</text>
  <rect x="160" y="388" width="60" height="14" rx="4" fill="#2D1A4D"/>
  <text x="190" y="399" fill="#A78BFA" font-size="8" font-weight="700" text-anchor="middle">RESERVED</text>

  <!-- T6 — Open, rect 8-top -->
  <rect x="290" y="370" width="140" height="110" rx="10" fill="#0A1A0D" stroke="#22C55E" stroke-width="1.5" filter="url(#tableShadow)"/>
  <text x="360" y="416" fill="#22C55E" font-size="14" font-weight="700" text-anchor="middle">T6</text>
  <text x="360" y="432" fill="#475569" font-size="10" text-anchor="middle">8-top</text>
  <text x="360" y="448" fill="#22C55E" font-size="10" font-weight="500" text-anchor="middle">Open</text>
  <use xlink:href="#chairHNarrow" x="310" y="360" width="28" height="8" fill="#0D2B12"/>
  <use xlink:href="#chairHNarrow" x="346" y="360" width="28" height="8" fill="#0D2B12"/>
  <use xlink:href="#chairHNarrow" x="382" y="360" width="28" height="8" fill="#0D2B12"/>
  <use xlink:href="#chairHNarrow" x="310" y="482" width="28" height="8" fill="#0D2B12"/>
  <use xlink:href="#chairHNarrow" x="346" y="482" width="28" height="8" fill="#0D2B12"/>
  <use xlink:href="#chairHNarrow" x="382" y="482" width="28" height="8" fill="#0D2B12"/>
  <use xlink:href="#chairVShort" x="280" y="400" width="8" height="28" fill="#0D2B12"/>
  <use xlink:href="#chairVShort" x="432" y="400" width="8" height="28" fill="#0D2B12"/>

  <!-- T7 — About to be seated, round 4-top -->
  <circle cx="560" cy="430" r="48" fill="#0A1A0D" stroke="#22C55E" stroke-width="1.5" filter="url(#tableShadow)">
    <animate attributeName="stroke-opacity" values="1;0.4;1" dur="1.5s" repeatCount="indefinite"/>
  </circle>
  <text x="560" y="418" fill="#22C55E" font-size="14" font-weight="700" text-anchor="middle">T7</text>
  <text x="560" y="434" fill="#94A3B8" font-size="10" text-anchor="middle">4-top · 4</text>
  <text x="560" y="450" fill="#4ADE80" font-size="10" font-weight="500" text-anchor="middle">Seating...</text>
  <use xlink:href="#chairH" x="538" y="380" width="44" height="8" fill="#0D2B12"/>
  <use xlink:href="#chairH" x="538" y="482" width="44" height="8" fill="#0D2B12"/>
  <use xlink:href="#chairV" x="509" y="408" width="8" height="44" fill="#0D2B12"/>
  <use xlink:href="#chairV" x="611" y="408" width="8" height="44" fill="#0D2B12"/>

  <!-- T8 — Dirty/Cleaning, rect -->
  <rect x="720" y="380" width="110" height="90" rx="10" fill="#080D1A" stroke="#3B82F6" stroke-width="1.5" stroke-dasharray="5,3" filter="url(#tableShadow)"/>
  <text x="775" y="416" fill="#3B82F6" font-size="14" font-weight="700" text-anchor="middle">T8</text>
  <text x="775" y="432" fill="#475569" font-size="10" text-anchor="middle">4-top</text>
  <text x="775" y="450" fill="#60A5FA" font-size="10" font-weight="500" text-anchor="middle">Cleaning</text>

  <!-- T9 — Open, round 2-top -->
  <circle cx="190" cy="640" r="38" fill="#0A1A0D" stroke="#22C55E" stroke-width="1.5" filter="url(#tableShadow)"/>
  <text x="190" y="632" fill="#22C55E" font-size="13" font-weight="700" text-anchor="middle">T9</text>
  <text x="190" y="648" fill="#475569" font-size="10" text-anchor="middle">2-top</text>
  <text x="190" y="662" fill="#22C55E" font-size="10" font-weight="500" text-anchor="middle">Open</text>

  <!-- T10 — Open, round 4-top -->
  <circle cx="340" cy="640" r="44" fill="#0A1A0D" stroke="#22C55E" stroke-width="1.5" filter="url(#tableShadow)"/>
  <text x="340" y="628" fill="#22C55E" font-size="13" font-weight="700" text-anchor="middle">T10</text>
  <text x="340" y="644" fill="#475569" font-size="10" text-anchor="middle">4-top</text>
  <text x="340" y="660" fill="#22C55E" font-size="10" font-weight="500" text-anchor="middle">Open</text>

  <!-- T11 — Open, rect 6-top -->
  <rect x="440" y="600" width="120" height="84" rx="10" fill="#0A1A0D" stroke="#22C55E" stroke-width="1.5" filter="url(#tableShadow)"/>
  <text x="500" y="636" fill="#22C55E" font-size="13" font-weight="700" text-anchor="middle">T11</text>
  <text x="500" y="652" fill="#475569" font-size="10" text-anchor="middle">6-top</text>
  <text x="500" y="668" fill="#22C55E" font-size="10" font-weight="500" text-anchor="middle">Open</text>

  <!-- T12 — Open, round 4-top -->
  <circle cx="660" cy="640" r="44" fill="#0A1A0D" stroke="#22C55E" stroke-width="1.5" filter="url(#tableShadow)"/>
  <text x="660" y="628" fill="#22C55E" font-size="13" font-weight="700" text-anchor="middle">T12</text>
  <text x="660" y="644" fill="#475569" font-size="10" text-anchor="middle">4-top</text>
  <text x="660" y="660" fill="#22C55E" font-size="10" font-weight="500" text-anchor="middle">Open</text>

  <!-- T13 — Open, round 2-top -->
  <circle cx="820" cy="640" r="38" fill="#0A1A0D" stroke="#22C55E" stroke-width="1.5" filter="url(#tableShadow)"/>
  <text x="820" y="632" fill="#22C55E" font-size="13" font-weight="700" text-anchor="middle">T13</text>
  <text x="820" y="648" fill="#475569" font-size="10" text-anchor="middle">2-top</text>
  <text x="820" y="662" fill="#22C55E" font-size="10" font-weight="500" text-anchor="middle">Open</text>

  <!-- T14 — Open -->
  <circle cx="190" cy="840" r="38" fill="#0A1A0D" stroke="#22C55E" stroke-width="1.5" filter="url(#tableShadow)"/>
  <text x="190" y="832" fill="#22C55E" font-size="13" font-weight="700" text-anchor="middle">T14</text>
  <text x="190" y="848" fill="#475569" font-size="10" text-anchor="middle">2-top</text>
  <text x="190" y="862" fill="#22C55E" font-size="10" font-weight="500" text-anchor="middle">Open</text>

  <!-- T15 — Open, rect 6-top -->
  <rect x="280" y="798" width="120" height="84" rx="10" fill="#0A1A0D" stroke="#22C55E" stroke-width="1.5" filter="url(#tableShadow)"/>
  <text x="340" y="832" fill="#22C55E" font-size="13" font-weight="700" text-anchor="middle">T15</text>
  <text x="340" y="848" fill="#475569" font-size="10" text-anchor="middle">6-top</text>
  <text x="340" y="864" fill="#22C55E" font-size="10" font-weight="500" text-anchor="middle">Open</text>

  <!-- T16 — Open -->
  <circle cx="500" cy="840" r="42" fill="#0A1A0D" stroke="#22C55E" stroke-width="1.5" filter="url(#tableShadow)"/>
  <text x="500" y="832" fill="#22C55E" font-size="13" font-weight="700" text-anchor="middle">T16</text>
  <text x="500" y="848" fill="#475569" font-size="10" text-anchor="middle">4-top</text>
  <text x="500" y="862" fill="#22C55E" font-size="10" font-weight="500" text-anchor="middle">Open</text>

  <!-- T17 — Open -->
  <circle cx="660" cy="840" r="38" fill="#0A1A0D" stroke="#22C55E" stroke-width="1.5" filter="url(#tableShadow)"/>
  <text x="660" y="832" fill="#22C55E" font-size="13" font-weight="700" text-anchor="middle">T17</text>
  <text x="660" y="848" fill="#475569" font-size="10" text-anchor="middle">2-top</text>
  <text x="660" y="862" fill="#22C55E" font-size="10" font-weight="500" text-anchor="middle">Open</text>

  <!-- T18 — Open -->
  <circle cx="820" cy="840" r="42" fill="#0A1A0D" stroke="#22C55E" stroke-width="1.5" filter="url(#tableShadow)"/>
  <text x="820" y="828" fill="#22C55E" font-size="13" font-weight="700" text-anchor="middle">T18</text>
  <text x="820" y="844" fill="#475569" font-size="10" text-anchor="middle">4-top</text>
  <text x="820" y="860" fill="#22C55E" font-size="10" font-weight="500" text-anchor="middle">Open</text>

  <!-- ═══════════ RIGHT PANEL — TABLE DETAIL ═══════════ -->
  <rect x="1033" y="98" width="333" height="926" fill="#111425"/>
  <rect x="1033" y="98" width="1" height="926" fill="#1E2235"/>

  <!-- Selected Table header -->
  <text x="1050" y="126" fill="#475569" font-size="9" font-weight="700" letter-spacing="1.5">SELECTED TABLE</text>

  <!-- Table detail card — admin: Settings > Table Detail Panel -->
  <rect x="1050" y="138" width="300" height="140" rx="10" fill="#161930"/>
  <rect x="1050" y="138" width="300" height="6" rx="10" fill="#F59E0B"/>
  <text x="1200" y="170" fill="#E2E8F0" font-size="20" font-weight="700" text-anchor="middle">Table 4</text>
  <text x="1200" y="190" fill="#F59E0B" font-size="12" font-weight="500" text-anchor="middle">Seated · Dine-In · 2 guests</text>
  <text x="1200" y="210" fill="#94A3B8" font-size="11" text-anchor="middle">5 min seated · John S.</text>
  <text x="1200" y="236" fill="#E2E8F0" font-size="18" font-weight="700" text-anchor="middle">$32.71</text>
  <text x="1200" y="254" fill="#4ADE80" font-size="10" font-weight="500" text-anchor="middle">Order sent · Preparing</text>
  <rect x="1050" y="268" width="300" height="6" rx="3" fill="#1E2235"/>
  <rect x="1050" y="268" width="90" height="6" rx="3" fill="#22C55E" opacity="0.5"/>
  <!-- admin: Settings > Table Detail Panel -->
  <use xlink:href="#adminGear" x="1340" y="138" width="10" height="10"/>

  <!-- Action buttons — admin: Settings > Table Actions -->
  <rect x="1050" y="288" width="146" height="40" rx="7" fill="#0F2A4A" stroke="#1E3A5F" stroke-width="1"/>
  <text x="1123" y="313" fill="#60A5FA" font-size="12" font-weight="600" text-anchor="middle">View Order</text>

  <rect x="1202" y="288" width="148" height="40" rx="7" fill="#0A2010" stroke="#164A2A" stroke-width="1"/>
  <text x="1276" y="313" fill="#4ADE80" font-size="12" font-weight="600" text-anchor="middle">Charge Table</text>

  <use xlink:href="#actionBtn" x="1050" y="334" width="146" height="40"/>
  <text x="1123" y="359" fill="#94A3B8" font-size="12" font-weight="500" text-anchor="middle">Transfer</text>

  <rect x="1202" y="334" width="148" height="40" rx="7" fill="#1A1D2E" stroke="#2A2E45" stroke-width="1"/>
  <text x="1276" y="359" fill="#94A3B8" font-size="12" font-weight="500" text-anchor="middle">Print Check</text>

  <!-- admin: Settings > Table Actions -->
  <use xlink:href="#adminGear" x="1340" y="290" width="10" height="10"/>

  <!-- Merge / Split-back / Reopen — admin: Settings > Table Actions > Advanced -->
  <use xlink:href="#actionBtnSm" x="1050" y="380" width="96" height="36"/>
  <text x="1098" y="403" fill="#94A3B8" font-size="10" font-weight="500" text-anchor="middle">Merge</text>
  <use xlink:href="#actionBtnSm" x="1152" y="380" width="96" height="36"/>
  <text x="1200" y="403" fill="#94A3B8" font-size="10" font-weight="500" text-anchor="middle">Split Back</text>
  <use xlink:href="#actionBtnSm" x="1254" y="380" width="96" height="36"/>
  <text x="1302" y="403" fill="#94A3B8" font-size="10" font-weight="500" text-anchor="middle">Reopen</text>

  <!-- Mark Ready to Pay — admin: Settings > Table Actions > Ready to Pay -->
  <rect x="1050" y="424" width="300" height="36" rx="7" fill="#1A0808" stroke="#3D1010" stroke-width="1"/>
  <text x="1200" y="447" fill="#FCA5A5" font-size="11" font-weight="600" text-anchor="middle">Mark Ready to Pay</text>
  <use xlink:href="#adminGear" x="1340" y="430" width="10" height="10"/>

  <!-- Divider -->
  <rect x="1050" y="472" width="300" height="1" fill="#1E2235"/>

  <!-- Floor Summary — admin: Settings > Floor Plan > Summary Stats -->
  <text x="1050" y="456" fill="#475569" font-size="9" font-weight="700" letter-spacing="1.5">FLOOR SUMMARY</text>
  <!-- admin: Settings > Floor Plan > Summary Stats -->
  <use xlink:href="#adminGear" x="1340" y="462" width="10" height="10"/>

  <use xlink:href="#statCard" x="1050" y="466" width="146" height="62"/>
  <text x="1123" y="492" fill="#F59E0B" font-size="20" font-weight="700" text-anchor="middle">2</text>
  <text x="1123" y="510" fill="#64748B" font-size="10" text-anchor="middle">Occupied / 18</text>

  <use xlink:href="#statCard" x="1202" y="466" width="148" height="62"/>
  <text x="1276" y="492" fill="#4ADE80" font-size="20" font-weight="700" text-anchor="middle">$80</text>
  <text x="1276" y="510" fill="#64748B" font-size="10" text-anchor="middle">Open Checks</text>

  <use xlink:href="#statCard" x="1050" y="534" width="146" height="62"/>
  <text x="1123" y="560" fill="#EF4444" font-size="20" font-weight="700" text-anchor="middle">0</text>
  <text x="1123" y="578" fill="#64748B" font-size="10" text-anchor="middle">Alerts</text>

  <use xlink:href="#statCard" x="1202" y="534" width="148" height="62"/>
  <text x="1276" y="560" fill="#3B82F6" font-size="20" font-weight="700" text-anchor="middle">1</text>
  <text x="1276" y="578" fill="#64748B" font-size="10" text-anchor="middle">Cleaning</text>

  <!-- Divider -->
  <rect x="1050" y="608" width="300" height="1" fill="#1E2235"/>

  <!-- Waitlist — admin: Settings > Waitlist -->
  <text x="1050" y="632" fill="#475569" font-size="9" font-weight="700" letter-spacing="1.5">WAITLIST (2)</text>
  <!-- admin: Settings > Waitlist -->
  <use xlink:href="#adminGear" x="1340" y="623" width="10" height="10"/>

  <use xlink:href="#waitlistCard" x="1050" y="642" width="300" height="52"/>
  <circle cx="1066" cy="662" r="4" fill="#F59E0B"/>
  <text x="1078" y="658" fill="#E2E8F0" font-size="12" font-weight="600">Garcia party</text>
  <text x="1340" y="658" fill="#F59E0B" font-size="12" font-weight="600" text-anchor="end">4 guests</text>
  <text x="1078" y="676" fill="#475569" font-size="10">Waiting 8 min · Called 2x</text>
  <use xlink:href="#seatNowBtn" x="1274" y="666" width="68" height="22"/>
  <text x="1308" y="681" fill="white" font-size="9" font-weight="700" text-anchor="middle">Seat Now</text>

  <use xlink:href="#waitlistCard" x="1050" y="700" width="300" height="52"/>
  <circle cx="1066" cy="720" r="4" fill="#22C55E"/>
  <text x="1078" y="716" fill="#E2E8F0" font-size="12" font-weight="600">Thompson party</text>
  <text x="1340" y="716" fill="#F59E0B" font-size="12" font-weight="600" text-anchor="end">6 guests</text>
  <text x="1078" y="734" fill="#475569" font-size="10">Waiting 3 min</text>
  <use xlink:href="#seatNowBtn" x="1274" y="724" width="68" height="22"/>
  <text x="1308" y="739" fill="white" font-size="9" font-weight="700" text-anchor="middle">Seat Now</text>

  <!-- Add to Waitlist — admin: Settings > Waitlist -->
  <use xlink:href="#actionBtnWide" x="1050" y="760" width="300" height="38" fill="#0F2A4A" stroke="#1E3A5F" stroke-width="1"/>
  <text x="1200" y="784" fill="#60A5FA" font-size="12" font-weight="600" text-anchor="middle">+ Add to Waitlist</text>

  <!-- Divider -->
  <rect x="1050" y="810" width="300" height="1" fill="#1E2235"/>

  <!-- Upcoming Reservations — admin: Settings > Reservations -->
  <text x="1050" y="834" fill="#475569" font-size="9" font-weight="700" letter-spacing="1.5">UPCOMING</text>
  <!-- admin: Settings > Reservations -->
  <use xlink:href="#adminGear" x="1340" y="825" width="10" height="10"/>

  <use xlink:href="#reservationCard" x="1050" y="844" width="300" height="42"/>
  <circle cx="1066" cy="865" r="4" fill="#8B5CF6"/>
  <text x="1078" y="861" fill="#A78BFA" font-size="11" font-weight="600">7:00 PM</text>
  <text x="1140" y="861" fill="#94A3B8" font-size="11">— Patel, 2 guests (T5)</text>
  <text x="1078" y="878" fill="#475569" font-size="10">OpenTable</text>

  <!-- QR Table link button — admin: Settings > QR Ordering -->
  <rect x="1050" y="946" width="300" height="38" rx="7" fill="#1A1D2E" stroke="#2A2E45" stroke-width="1"/>
  <text x="1200" y="970" fill="#94A3B8" font-size="11" font-weight="500" text-anchor="middle">Copy QR Table Link</text>
  <!-- admin: Settings > QR Ordering -->
  <use xlink:href="#adminGear" x="1340" y="952" width="10" height="10"/>

  <!-- Screen label -->
  <text x="550" y="1018" fill="#111425" font-size="9" text-anchor="middle">Synalux POS — Table Management (iPad Landscape 1366x1024)</text>
</svg>