<svg xmlns="http://www.w3.org/2000/svg" viewBox="0 0 1366 1024" font-family="system-ui,-apple-system,BlinkMacSystemFont,sans-serif">

  <!-- ═══════════════════════════════════════════════════════════
       BACKGROUND
       ═══════════════════════════════════════════════════════════ -->
  <rect width="1366" height="1024" fill="#0F1117"/>

  <!-- Panel dividers -->
  <rect x="420" y="0" width="1" height="1024" fill="#2D3148"/>
  <rect x="946" y="0" width="1" height="1024" fill="#2D3148"/>

  <!-- ═══════════════════════════════════════════════════════════
       LEFT PANEL — Order Items with SNAP Eligibility (w=420)
       ═══════════════════════════════════════════════════════════ -->

  <!-- Left panel background -->
  <rect x="0" y="0" width="420" height="1024" fill="#0F1117"/>

  <!-- Header card -->
  <rect x="12" y="12" width="396" height="82" rx="10" fill="#1A1D2E" stroke="#2D3148" stroke-width="1"/>

  <!-- EBT icon badge -->
  <rect x="24" y="22" width="44" height="28" rx="5" fill="#10B981" opacity="0.18"/>
  <text x="46" y="41" fill="#10B981" font-size="13" font-weight="700" text-anchor="middle">EBT</text>

  <text x="78" y="37" fill="#F1F5F9" font-size="17" font-weight="700">Order Total: $47.82</text>
  <text x="78" y="57" fill="#94A3B8" font-size="12">EBT Eligible:</text>
  <text x="156" y="57" fill="#10B981" font-size="12" font-weight="600">$31.45</text>
  <text x="195" y="57" fill="#94A3B8" font-size="12">  |  Ineligible:</text>
  <text x="285" y="57" fill="#EF4444" font-size="12" font-weight="600">$16.37</text>

  <!-- Progress bar: eligible portion -->
  <rect x="24" y="78" width="384" height="6" rx="3" fill="#1E2235"/>
  <rect x="24" y="78" width="252" height="6" rx="3" fill="#10B981" opacity="0.7"/>
  <!-- ineligible portion -->
  <rect x="276" y="78" width="132" height="6" rx="3" fill="#EF4444" opacity="0.5"/>

  <!-- Section label -->
  <text x="24" y="115" fill="#64748B" font-size="10" font-weight="700" letter-spacing="1.2">SNAP ELIGIBILITY BREAKDOWN</text>

  <!-- ─── Item rows ─── -->

  <!-- Row helper: card bg alternating -->
  <rect x="12" y="122" width="396" height="48" rx="6" fill="#1A1D2E"/>
  <!-- Whole Milk -->
  <text x="24" y="143" fill="#F1F5F9" font-size="13" font-weight="500">Whole Milk 1gal</text>
  <text x="395" y="143" fill="#F1F5F9" font-size="13" text-anchor="end">$4.29</text>
  <rect x="24" y="150" width="72" height="16" rx="4" fill="#10B981" opacity="0.18"/>
  <text x="60" y="162" fill="#10B981" font-size="10" font-weight="700" text-anchor="middle">SNAP ✓</text>

  <rect x="12" y="172" width="396" height="48" rx="6" fill="#0F1117"/>
  <!-- Bread -->
  <text x="24" y="193" fill="#F1F5F9" font-size="13" font-weight="500">Bread (Wheat)</text>
  <text x="395" y="193" fill="#F1F5F9" font-size="13" text-anchor="end">$3.49</text>
  <rect x="24" y="200" width="72" height="16" rx="4" fill="#10B981" opacity="0.18"/>
  <text x="60" y="212" fill="#10B981" font-size="10" font-weight="700" text-anchor="middle">SNAP ✓</text>

  <rect x="12" y="222" width="396" height="48" rx="6" fill="#1A1D2E"/>
  <!-- Cheese -->
  <text x="24" y="243" fill="#F1F5F9" font-size="13" font-weight="500">Cheese Slices</text>
  <text x="395" y="243" fill="#F1F5F9" font-size="13" text-anchor="end">$5.99</text>
  <rect x="24" y="250" width="72" height="16" rx="4" fill="#10B981" opacity="0.18"/>
  <text x="60" y="262" fill="#10B981" font-size="10" font-weight="700" text-anchor="middle">SNAP ✓</text>

  <rect x="12" y="272" width="396" height="48" rx="6" fill="#0F1117"/>
  <!-- Apples -->
  <text x="24" y="293" fill="#F1F5F9" font-size="13" font-weight="500">Apples 3lb</text>
  <text x="395" y="293" fill="#F1F5F9" font-size="13" text-anchor="end">$4.99</text>
  <rect x="24" y="300" width="72" height="16" rx="4" fill="#10B981" opacity="0.18"/>
  <text x="60" y="312" fill="#10B981" font-size="10" font-weight="700" text-anchor="middle">SNAP ✓</text>

  <rect x="12" y="322" width="396" height="48" rx="6" fill="#1A1D2E"/>
  <!-- Orange Juice -->
  <text x="24" y="343" fill="#F1F5F9" font-size="13" font-weight="500">Orange Juice</text>
  <text x="395" y="343" fill="#F1F5F9" font-size="13" text-anchor="end">$3.79</text>
  <rect x="24" y="350" width="72" height="16" rx="4" fill="#10B981" opacity="0.18"/>
  <text x="60" y="362" fill="#10B981" font-size="10" font-weight="700" text-anchor="middle">SNAP ✓</text>

  <!-- Divider: ineligible items -->
  <rect x="12" y="372" width="396" height="1" fill="#2D3148"/>
  <rect x="24" y="378" width="160" height="14" rx="3" fill="#F97316" opacity="0.12"/>
  <text x="104" y="389" fill="#F97316" font-size="10" font-weight="700" text-anchor="middle">INELIGIBLE ITEMS BELOW</text>

  <rect x="12" y="396" width="396" height="52" rx="6" fill="#0F1117"/>
  <!-- Energy Drink -->
  <text x="24" y="418" fill="#94A3B8" font-size="13" font-weight="500">Energy Drink</text>
  <text x="395" y="418" fill="#94A3B8" font-size="13" text-anchor="end">$3.49</text>
  <rect x="24" y="424" width="140" height="16" rx="4" fill="#F59E0B" opacity="0.15"/>
  <text x="94" y="436" fill="#F59E0B" font-size="10" font-weight="700" text-anchor="middle">SNAP ✗ (supplement)</text>

  <rect x="12" y="450" width="396" height="52" rx="6" fill="#1A1D2E"/>
  <!-- Hot Rotisserie -->
  <text x="24" y="472" fill="#94A3B8" font-size="13" font-weight="500">Hot Rotisserie Chicken</text>
  <text x="395" y="472" fill="#94A3B8" font-size="13" text-anchor="end">$8.99</text>
  <rect x="24" y="478" width="130" height="16" rx="4" fill="#EF4444" opacity="0.15"/>
  <text x="89" y="490" fill="#EF4444" font-size="10" font-weight="700" text-anchor="middle">SNAP ✗ (hot food)</text>

  <rect x="12" y="504" width="396" height="52" rx="6" fill="#0F1117"/>
  <!-- Beer -->
  <text x="24" y="526" fill="#94A3B8" font-size="13" font-weight="500">Beer 6-pack</text>
  <text x="395" y="526" fill="#94A3B8" font-size="13" text-anchor="end">$9.99</text>
  <rect x="24" y="532" width="112" height="16" rx="4" fill="#EF4444" opacity="0.15"/>
  <text x="80" y="544" fill="#EF4444" font-size="10" font-weight="700" text-anchor="middle">SNAP ✗ (alcohol)</text>

  <!-- Separator -->
  <rect x="12" y="560" width="396" height="1" fill="#2D3148"/>

  <!-- Totals recap -->
  <rect x="12" y="564" width="396" height="80" rx="8" fill="#1A1D2E" stroke="#2D3148" stroke-width="1"/>
  <text x="24" y="585" fill="#94A3B8" font-size="12">EBT Subtotal</text>
  <text x="396" y="585" fill="#10B981" font-size="13" font-weight="600" text-anchor="end">$31.45</text>
  <text x="24" y="605" fill="#94A3B8" font-size="12">Non-EBT Subtotal</text>
  <text x="396" y="605" fill="#EF4444" font-size="13" font-weight="600" text-anchor="end">$16.37</text>
  <rect x="24" y="613" width="384" height="1" fill="#2D3148"/>
  <text x="24" y="631" fill="#F1F5F9" font-size="13" font-weight="700">Order Total</text>
  <text x="396" y="631" fill="#F1F5F9" font-size="15" font-weight="700" text-anchor="end">$47.82</text>

  <!-- USDA FNS info card -->
  <rect x="12" y="658" width="396" height="54" rx="8" fill="#1A1D2E" stroke="#2D3148" stroke-width="1"/>
  <!-- USDA shield icon (simplified) -->
  <rect x="24" y="668" width="30" height="34" rx="4" fill="#10B981" opacity="0.15"/>
  <text x="39" y="681" fill="#10B981" font-size="9" font-weight="700" text-anchor="middle">USDA</text>
  <text x="39" y="693" fill="#10B981" font-size="9" font-weight="700" text-anchor="middle">FNS</text>
  <text x="62" y="681" fill="#94A3B8" font-size="11">USDA FNS Merchant ID:</text>
  <text x="62" y="695" fill="#F1F5F9" font-size="12" font-weight="600">1234567890</text>
  <text x="200" y="695" fill="#64748B" font-size="11">  ·  Authorized since 2023</text>

  <!-- SNAP rules info -->
  <rect x="12" y="724" width="396" height="58" rx="8" fill="#1E2235" stroke="#2D3148" stroke-width="1"/>
  <text x="24" y="742" fill="#64748B" font-size="10" font-weight="700" letter-spacing="0.8">SNAP ELIGIBILITY RULES</text>
  <text x="24" y="757" fill="#64748B" font-size="10">✓ Eligible: grocery food for home prep</text>
  <text x="24" y="770" fill="#64748B" font-size="10">✗ Ineligible: hot foods, alcohol, supplements, non-food</text>

  <!-- ═══════════════════════════════════════════════════════════
       CENTER PANEL — EBT PIN Entry (x=420, w=526)
       ═══════════════════════════════════════════════════════════ -->

  <rect x="421" y="0" width="525" height="1024" fill="#0F1117"/>

  <!-- Panel header -->
  <rect x="433" y="12" width="501" height="70" rx="10" fill="#1A1D2E" stroke="#2D3148" stroke-width="1"/>

  <!-- EBT card icon (stylized) -->
  <rect x="447" y="22" width="54" height="36" rx="5" fill="#10B981" opacity="0.2" stroke="#10B981" stroke-width="1.5"/>
  <rect x="447" y="30" width="54" height="6" fill="#10B981" opacity="0.4"/>
  <rect x="453" y="42" width="18" height="10" rx="2" fill="#F59E0B" opacity="0.7"/>

  <text x="514" y="40" fill="#F1F5F9" font-size="20" font-weight="700">EBT / SNAP Payment</text>
  <text x="514" y="60" fill="#94A3B8" font-size="12">Government SNAP benefits · Powered by Forage</text>

  <!-- Amount display card -->
  <rect x="433" y="96" width="501" height="110" rx="10" fill="#1A1D2E" stroke="#2D3148" stroke-width="1"/>

  <text x="683" y="125" fill="#64748B" font-size="11" font-weight="700" letter-spacing="1" text-anchor="middle">EBT AMOUNT TO CHARGE</text>
  <text x="683" y="168" fill="#10B981" font-size="52" font-weight="700" text-anchor="middle">$31.45</text>

  <rect x="447" y="176" width="473" height="1" fill="#2D3148"/>
  <text x="530" y="194" fill="#64748B" font-size="12">Est. Remaining Balance After:</text>
  <text x="780" y="194" fill="#94A3B8" font-size="14" font-weight="600" text-anchor="end">$148.22</text>
  <text x="790" y="194" fill="#64748B" font-size="10">(estimated)</text>

  <!-- Card instruction -->
  <rect x="433" y="220" width="501" height="50" rx="10" fill="#1A1D2E" stroke="#10B981" stroke-width="1.5" stroke-dasharray="6,3"/>
  <!-- card insert icon -->
  <rect x="455" y="235" width="36" height="24" rx="4" fill="none" stroke="#10B981" stroke-width="2"/>
  <rect x="455" y="241" width="36" height="6" fill="#10B981" opacity="0.3"/>
  <!-- arrow -->
  <line x1="496" y1="247" x2="510" y2="247" stroke="#10B981" stroke-width="2"/>
  <polyline points="506,243 510,247 506,251" fill="none" stroke="#10B981" stroke-width="2"/>

  <text x="526" y="243" fill="#10B981" font-size="13" font-weight="600">Insert / Tap EBT Card</text>
  <text x="526" y="259" fill="#64748B" font-size="11">Customer must enter PIN on terminal below</text>

  <!-- PIN display -->
  <text x="683" y="298" fill="#64748B" font-size="11" font-weight="700" letter-spacing="1.2" text-anchor="middle">CUSTOMER PIN ENTRY</text>

  <rect x="555" y="306" width="256" height="52" rx="8" fill="#13162A" stroke="#2D3148" stroke-width="1.5"/>
  <!-- PIN dots -->
  <circle cx="601" cy="332" r="10" fill="#2D3148"/>
  <circle cx="637" cy="332" r="10" fill="#2D3148"/>
  <circle cx="673" cy="332" r="10" fill="#2D3148"/>
  <circle cx="709" cy="332" r="10" fill="#2D3148"/>
  <!-- Cursor blink indicator -->
  <rect x="723" y="320" width="3" height="24" rx="1" fill="#10B981" opacity="0.8"/>

  <text x="820" y="338" fill="#64748B" font-size="20">⌫</text>

  <!-- PIN Pad grid -->
  <!-- Row 1: 1, 2, 3 -->
  <rect x="490" y="372" width="80" height="64" rx="10" fill="#1A1D2E" stroke="#2D3148" stroke-width="1.5"/>
  <rect x="490" y="372" width="80" height="64" rx="10" fill="none" stroke="#3D4168" stroke-width="0.5"/>
  <text x="530" y="408" fill="#F1F5F9" font-size="22" font-weight="600" text-anchor="middle">1</text>
  <text x="530" y="424" fill="#64748B" font-size="9" text-anchor="middle">· · ·</text>

  <rect x="582" y="372" width="80" height="64" rx="10" fill="#1A1D2E" stroke="#2D3148" stroke-width="1.5"/>
  <text x="622" y="408" fill="#F1F5F9" font-size="22" font-weight="600" text-anchor="middle">2</text>
  <text x="622" y="424" fill="#64748B" font-size="9" text-anchor="middle">A B C</text>

  <rect x="674" y="372" width="80" height="64" rx="10" fill="#1A1D2E" stroke="#2D3148" stroke-width="1.5"/>
  <text x="714" y="408" fill="#F1F5F9" font-size="22" font-weight="600" text-anchor="middle">3</text>
  <text x="714" y="424" fill="#64748B" font-size="9" text-anchor="middle">D E F</text>

  <rect x="766" y="372" width="80" height="64" rx="10" fill="#1A1D2E" stroke="#2D3148" stroke-width="1.5"/>
  <text x="806" y="408" fill="#F1F5F9" font-size="22" font-weight="600" text-anchor="middle">4</text>
  <text x="806" y="424" fill="#64748B" font-size="9" text-anchor="middle">G H I</text>

  <!-- Row 2: 5, 6, 7, 8 -->
  <rect x="490" y="448" width="80" height="64" rx="10" fill="#1A1D2E" stroke="#2D3148" stroke-width="1.5"/>
  <text x="530" y="484" fill="#F1F5F9" font-size="22" font-weight="600" text-anchor="middle">5</text>
  <text x="530" y="500" fill="#64748B" font-size="9" text-anchor="middle">J K L</text>

  <rect x="582" y="448" width="80" height="64" rx="10" fill="#1A1D2E" stroke="#2D3148" stroke-width="1.5"/>
  <text x="622" y="484" fill="#F1F5F9" font-size="22" font-weight="600" text-anchor="middle">6</text>
  <text x="622" y="500" fill="#64748B" font-size="9" text-anchor="middle">M N O</text>

  <rect x="674" y="448" width="80" height="64" rx="10" fill="#1A1D2E" stroke="#2D3148" stroke-width="1.5"/>
  <text x="714" y="484" fill="#F1F5F9" font-size="22" font-weight="600" text-anchor="middle">7</text>
  <text x="714" y="500" fill="#64748B" font-size="9" text-anchor="middle">P Q R S</text>

  <rect x="766" y="448" width="80" height="64" rx="10" fill="#1A1D2E" stroke="#2D3148" stroke-width="1.5"/>
  <text x="806" y="484" fill="#F1F5F9" font-size="22" font-weight="600" text-anchor="middle">8</text>
  <text x="806" y="500" fill="#64748B" font-size="9" text-anchor="middle">T U V</text>

  <!-- Row 3: 9, 0, Clear, Enter -->
  <rect x="490" y="524" width="80" height="64" rx="10" fill="#1A1D2E" stroke="#2D3148" stroke-width="1.5"/>
  <text x="530" y="560" fill="#F1F5F9" font-size="22" font-weight="600" text-anchor="middle">9</text>
  <text x="530" y="576" fill="#64748B" font-size="9" text-anchor="middle">W X Y Z</text>

  <rect x="582" y="524" width="80" height="64" rx="10" fill="#1A1D2E" stroke="#2D3148" stroke-width="1.5"/>
  <text x="622" y="563" fill="#F1F5F9" font-size="22" font-weight="600" text-anchor="middle">0</text>

  <rect x="674" y="524" width="80" height="64" rx="10" fill="#1E2235" stroke="#2D3148" stroke-width="1.5"/>
  <text x="714" y="563" fill="#94A3B8" font-size="13" font-weight="600" text-anchor="middle">CLEAR</text>

  <rect x="766" y="524" width="80" height="64" rx="10" fill="#10B981" opacity="0.9"/>
  <text x="806" y="552" fill="#0F1117" font-size="12" font-weight="700" text-anchor="middle">ENTER</text>
  <text x="806" y="568" fill="#0F1117" font-size="11" text-anchor="middle">↵</text>

  <!-- Network status bar -->
  <rect x="433" y="605" width="501" height="40" rx="8" fill="#1A1D2E" stroke="#F59E0B" stroke-width="1.5"/>
  <!-- Animated-look pulse dot -->
  <circle cx="453" cy="625" r="6" fill="#F59E0B" opacity="0.9"/>
  <circle cx="453" cy="625" r="10" fill="#F59E0B" opacity="0.2"/>
  <text x="470" y="630" fill="#F59E0B" font-size="12" font-weight="600">Connecting to EBT Network (Forage)...</text>
  <!-- Signal bars -->
  <rect x="888" y="619" width="5" height="12" rx="1" fill="#F59E0B" opacity="0.3"/>
  <rect x="896" y="615" width="5" height="16" rx="1" fill="#F59E0B" opacity="0.5"/>
  <rect x="904" y="611" width="5" height="20" rx="1" fill="#F59E0B" opacity="0.8"/>
  <rect x="912" y="607" width="5" height="24" rx="1" fill="#F59E0B"/>
  <text x="924" y="630" fill="#64748B" font-size="10">LTE</text>

  <!-- Warning banner -->
  <rect x="433" y="658" width="501" height="42" rx="8" fill="#F97316" opacity="0.1" stroke="#F97316" stroke-width="1.5"/>
  <text x="453" y="674" fill="#F97316" font-size="11" font-weight="700">⚠  EBT requires live network connection</text>
  <text x="453" y="690" fill="#F97316" font-size="11">Offline processing is not available for EBT/SNAP transactions.</text>

  <!-- Forage processor row -->
  <rect x="433" y="712" width="501" height="38" rx="8" fill="#1A1D2E" stroke="#2D3148" stroke-width="1"/>
  <!-- Forage logo placeholder -->
  <rect x="449" y="722" width="52" height="18" rx="4" fill="#8B5CF6" opacity="0.25"/>
  <text x="475" y="735" fill="#8B5CF6" font-size="10" font-weight="700" text-anchor="middle">FORAGE</text>
  <text x="510" y="731" fill="#64748B" font-size="11">Powered by Forage  ·  USDA FNS Authorized Processor</text>
  <!-- Checkmark badge -->
  <circle cx="900" cy="731" r="10" fill="#10B981" opacity="0.15"/>
  <text x="900" y="735" fill="#10B981" font-size="11" text-anchor="middle">✓</text>

  <!-- Cancel / Help row -->
  <rect x="433" y="764" width="240" height="44" rx="8" fill="#1E2235" stroke="#2D3148" stroke-width="1"/>
  <text x="553" y="791" fill="#94A3B8" font-size="13" font-weight="600" text-anchor="middle">Cancel Transaction</text>

  <rect x="685" y="764" width="249" height="44" rx="8" fill="#1E2235" stroke="#2D3148" stroke-width="1"/>
  <text x="809" y="791" fill="#64748B" font-size="13" text-anchor="middle">? Need Help</text>

  <!-- PIN security note -->
  <text x="683" y="830" fill="#64748B" font-size="11" text-anchor="middle">🔒  PIN is encrypted end-to-end · Never stored · PCI-DSS Compliant</text>

  <!-- SNAP benefit usage guide -->
  <rect x="433" y="842" width="501" height="80" rx="8" fill="#1A1D2E" stroke="#2D3148" stroke-width="1"/>
  <text x="447" y="860" fill="#64748B" font-size="10" font-weight="700" letter-spacing="1">FORAGE EBT NETWORK STATUS</text>
  <rect x="447" y="868" width="473" height="1" fill="#2D3148"/>

  <text x="447" y="882" fill="#64748B" font-size="11">Issuing State:</text>
  <text x="535" y="882" fill="#94A3B8" font-size="11" font-weight="500">Detected from card BIN</text>
  <text x="447" y="897" fill="#64748B" font-size="11">Network:</text>
  <text x="500" y="897" fill="#94A3B8" font-size="11" font-weight="500">Forage eWIC / SNAP Gateway</text>
  <text x="447" y="912" fill="#64748B" font-size="11">Timeout:</text>
  <text x="500" y="912" fill="#94A3B8" font-size="11" font-weight="500">30s · Auto-void on expiry</text>

  <!-- ═══════════════════════════════════════════════════════════
       RIGHT PANEL — Split Tender Summary (x=946, w=420)
       ═══════════════════════════════════════════════════════════ -->

  <rect x="947" y="0" width="419" height="1024" fill="#0F1117"/>

  <!-- Header -->
  <rect x="959" y="12" width="395" height="56" rx="10" fill="#1A1D2E" stroke="#2D3148" stroke-width="1"/>
  <text x="971" y="38" fill="#F1F5F9" font-size="18" font-weight="700">Split Tender</text>
  <text x="971" y="56" fill="#94A3B8" font-size="12">2 payment methods · $47.82 total</text>

  <!-- Progress total bar -->
  <rect x="959" y="74" width="395" height="8" rx="4" fill="#1E2235"/>
  <!-- EBT portion -->
  <rect x="959" y="74" width="259" height="8" rx="4" fill="#10B981" opacity="0.7"/>
  <!-- Remaining portion -->
  <rect x="1218" y="74" width="136" height="8" rx="4" fill="#F59E0B" opacity="0.5"/>

  <text x="959" y="92" fill="#10B981" font-size="10">$31.45 EBT</text>
  <text x="1218" y="92" fill="#F59E0B" font-size="10">$16.37 Card</text>

  <!-- ── Payment Card 1: EBT/SNAP — APPROVED ── -->
  <rect x="959" y="100" width="395" height="118" rx="10" fill="#1A1D2E" stroke="#10B981" stroke-width="2"/>

  <!-- Approved badge -->
  <rect x="959" y="100" width="395" height="36" rx="10" fill="#10B981" opacity="0.15"/>
  <rect x="959" y="118" width="395" height="18" fill="#10B981" opacity="0.15"/>
  <text x="971" y="124" fill="#10B981" font-size="12" font-weight="700">✓  APPROVED</text>
  <text x="1340" y="124" fill="#10B981" font-size="12" font-weight="700" text-anchor="end">EBT / SNAP</text>

  <rect x="971" y="140" width="54" height="34" rx="5" fill="#10B981" opacity="0.2" stroke="#10B981" stroke-width="1.5"/>
  <text x="998" y="153" fill="#10B981" font-size="9" font-weight="700" text-anchor="middle">SNAP</text>
  <text x="998" y="165" fill="#10B981" font-size="9" font-weight="700" text-anchor="middle">EBT</text>

  <text x="1035" y="153" fill="#F1F5F9" font-size="14" font-weight="600">EBT / SNAP Card</text>
  <text x="1035" y="170" fill="#94A3B8" font-size="12">Auth Code: FNS-8821-XK</text>

  <text x="1340" y="160" fill="#10B981" font-size="26" font-weight="700" text-anchor="end">$31.45</text>

  <rect x="971" y="182" width="371" height="1" fill="#2D3148"/>
  <text x="971" y="198" fill="#64748B" font-size="11">Response: APPROVED · Issuer Auth · 0.8s</text>
  <text x="1340" y="198" fill="#10B981" font-size="11" text-anchor="end">✓ Settled</text>

  <!-- ── Payment Card 2: Credit Card — PENDING ── -->
  <rect x="959" y="232" width="395" height="108" rx="10" fill="#1A1D2E" stroke="#F59E0B" stroke-width="2" stroke-dasharray="6,3"/>

  <rect x="959" y="232" width="395" height="36" rx="10" fill="#F59E0B" opacity="0.08"/>
  <rect x="959" y="250" width="395" height="18" fill="#F59E0B" opacity="0.08"/>
  <text x="971" y="256" fill="#F59E0B" font-size="12" font-weight="700">◌  PENDING</text>
  <text x="1340" y="256" fill="#F59E0B" font-size="12" font-weight="700" text-anchor="end">Credit Card</text>

  <!-- Visa card visual -->
  <rect x="971" y="272" width="54" height="34" rx="5" fill="#1E3A8A" opacity="0.8" stroke="#3B82F6" stroke-width="1"/>
  <text x="998" y="293" fill="#FFFFFF" font-size="10" font-weight="700" text-anchor="middle">VISA</text>

  <text x="1035" y="283" fill="#94A3B8" font-size="14" font-weight="600">Visa ••••4521</text>
  <text x="1035" y="299" fill="#64748B" font-size="11">Awaiting card swipe / tap / insert</text>

  <text x="1340" y="293" fill="#F1F5F9" font-size="22" font-weight="700" text-anchor="end">$16.37</text>

  <rect x="971" y="308" width="371" height="1" fill="#2D3148"/>
  <text x="971" y="326" fill="#64748B" font-size="11">Customer owes this amount after EBT</text>

  <!-- Totals summary -->
  <rect x="959" y="354" width="395" height="90" rx="10" fill="#1A1D2E" stroke="#2D3148" stroke-width="1"/>
  <text x="971" y="374" fill="#64748B" font-size="10" font-weight="700" letter-spacing="1">TRANSACTION SUMMARY</text>
  <rect x="971" y="380" width="371" height="1" fill="#2D3148"/>
  <text x="971" y="396" fill="#94A3B8" font-size="12">EBT / SNAP</text>
  <text x="1340" y="396" fill="#10B981" font-size="12" font-weight="600" text-anchor="end">−$31.45</text>
  <text x="971" y="414" fill="#94A3B8" font-size="12">Credit Card (remaining)</text>
  <text x="1340" y="414" fill="#F59E0B" font-size="12" font-weight="600" text-anchor="end">−$16.37</text>
  <rect x="971" y="420" width="371" height="1" fill="#2D3148"/>
  <text x="971" y="438" fill="#F1F5F9" font-size="13" font-weight="700">Order Total</text>
  <text x="1340" y="438" fill="#F1F5F9" font-size="14" font-weight="700" text-anchor="end">$47.82</text>

  <!-- Customer owes callout -->
  <rect x="959" y="458" width="395" height="44" rx="8" fill="#F59E0B" opacity="0.12" stroke="#F59E0B" stroke-width="1.5"/>
  <text x="1156" y="481" fill="#F59E0B" font-size="14" font-weight="700" text-anchor="middle">Customer owes: $16.37 remaining</text>

  <!-- Receipt Preview -->
  <text x="971" y="524" fill="#64748B" font-size="10" font-weight="700" letter-spacing="1.2">RECEIPT PREVIEW</text>
  <rect x="959" y="530" width="395" height="220" rx="10" fill="#13162A" stroke="#2D3148" stroke-width="1"/>

  <!-- Receipt content — monospace style using system-ui -->
  <text x="1156" y="556" fill="#94A3B8" font-size="12" font-weight="700" text-anchor="middle" font-style="normal">SYNALUX POS</text>
  <text x="1156" y="572" fill="#64748B" font-size="11" text-anchor="middle">Trans #: TXN-20260527-04821</text>
  <text x="1156" y="586" fill="#64748B" font-size="11" text-anchor="middle">Date: May 27, 2026  14:33:07</text>

  <rect x="975" y="593" width="363" height="1" fill="#2D3148"/>

  <text x="975" y="608" fill="#94A3B8" font-size="11">Whole Milk 1gal</text>
  <text x="1338" y="608" fill="#94A3B8" font-size="11" text-anchor="end">$4.29</text>
  <text x="975" y="622" fill="#94A3B8" font-size="11">Bread (Wheat)</text>
  <text x="1338" y="622" fill="#94A3B8" font-size="11" text-anchor="end">$3.49</text>
  <text x="975" y="636" fill="#94A3B8" font-size="11">Cheese Slices</text>
  <text x="1338" y="636" fill="#94A3B8" font-size="11" text-anchor="end">$5.99</text>
  <text x="975" y="650" fill="#64748B" font-size="10">[...5 SNAP-eligible items...]</text>

  <rect x="975" y="657" width="363" height="1" fill="#2D3148"/>

  <!-- EBT line — highlighted (federal requirement) -->
  <rect x="975" y="662" width="363" height="20" rx="3" fill="#10B981" opacity="0.08"/>
  <text x="975" y="677" fill="#10B981" font-size="11" font-weight="700">EBT/SNAP PAYMENT</text>
  <text x="1338" y="677" fill="#10B981" font-size="11" font-weight="700" text-anchor="end">−$31.45</text>

  <text x="975" y="695" fill="#94A3B8" font-size="11">Visa ••••4521</text>
  <text x="1338" y="695" fill="#94A3B8" font-size="11" text-anchor="end">−$16.37</text>

  <rect x="975" y="702" width="363" height="1" fill="#2D3148"/>

  <text x="975" y="718" fill="#F1F5F9" font-size="12" font-weight="700">TOTAL CHARGED</text>
  <text x="1338" y="718" fill="#F1F5F9" font-size="12" font-weight="700" text-anchor="end">$47.82</text>
  <text x="975" y="732" fill="#64748B" font-size="10">EBT Auth: FNS-8821-XK  |  Approved</text>
  <text x="1156" y="744" fill="#64748B" font-size="9" text-anchor="middle">Federal law req: EBT shown separately</text>

  <!-- Process Card button -->
  <rect x="959" y="764" width="395" height="56" rx="10" fill="#F59E0B"/>
  <text x="1156" y="791" fill="#0F1117" font-size="16" font-weight="700" text-anchor="middle">Process Card $16.37</text>
  <text x="1156" y="808" fill="#0F1117" font-size="11" text-anchor="middle" opacity="0.7">Visa ••••4521  ·  Tap / Insert / Swipe</text>

  <!-- Alternative: Cash -->
  <rect x="959" y="832" width="190" height="44" rx="8" fill="#1E2235" stroke="#2D3148" stroke-width="1"/>
  <text x="1054" y="859" fill="#94A3B8" font-size="13" text-anchor="middle">Pay Cash</text>

  <rect x="1161" y="832" width="193" height="44" rx="8" fill="#1E2235" stroke="#2D3148" stroke-width="1"/>
  <text x="1257" y="859" fill="#94A3B8" font-size="13" text-anchor="middle">Other Method</text>

  <!-- EBT tips not allowed footer -->
  <rect x="959" y="888" width="395" height="36" rx="8" fill="#EF4444" opacity="0.08" stroke="#EF4444" stroke-width="1"/>
  <text x="1156" y="911" fill="#EF4444" font-size="11" font-weight="600" text-anchor="middle">⚠  EBT tips not allowed by law (7 U.S.C. § 2016)</text>

  <!-- Forage / USDA footer -->
  <rect x="959" y="938" width="395" height="36" rx="8" fill="#1A1D2E" stroke="#2D3148" stroke-width="1"/>
  <text x="1156" y="960" fill="#64748B" font-size="11" text-anchor="middle">Forage EBT  ·  USDA FNS Auth  ·  PCI-DSS Level 1</text>

  <!-- ═══════════════════════════════════════════════════════════
       GLOBAL BOTTOM STATUS BAR
       ═══════════════════════════════════════════════════════════ -->
  <rect x="0" y="992" width="1366" height="32" fill="#13162A" stroke="#2D3148" stroke-width="1"/>
  <circle cx="18" cy="1008" r="5" fill="#10B981"/>
  <text x="30" y="1012" fill="#64748B" font-size="11">EBT Network: Connected</text>
  <text x="220" y="1012" fill="#2D3148" font-size="11">|</text>
  <text x="232" y="1012" fill="#64748B" font-size="11">Merchant: SYNALUX CAFE #001</text>
  <text x="470" y="1012" fill="#2D3148" font-size="11">|</text>
  <text x="482" y="1012" fill="#64748B" font-size="11">FNS: 1234567890</text>
  <text x="620" y="1012" fill="#2D3148" font-size="11">|</text>
  <text x="632" y="1012" fill="#64748B" font-size="11">Forage Gateway v2.4.1</text>
  <text x="1320" y="1012" fill="#64748B" font-size="11" text-anchor="end">14:33:07</text>

</svg>
