<svg xmlns="http://www.w3.org/2000/svg" viewBox="0 0 1366 1024" font-family="system-ui,-apple-system,sans-serif">

  <!-- Background -->
  <rect width="1366" height="1024" fill="#0F1117"/>

  <!-- ═══════════════════════════════════════════════════════ -->
  <!-- TOP NAV BAR h=56 -->
  <!-- ═══════════════════════════════════════════════════════ -->
  <rect x="0" y="0" width="1366" height="56" fill="#1A1D2E"/>
  <rect x="0" y="55" width="1366" height="1" fill="#2D3148"/>

  <!-- Logo / Brand -->
  <circle cx="20" cy="28" r="7" fill="#22C55E"/>
  <text x="34" y="33" fill="#22C55E" font-size="11" font-weight="600">LIVE</text>
  <text x="68" y="35" fill="#F59E0B" font-size="17" font-weight="700">Synalux POS</text>

  <!-- Nav Tabs -->
  <text x="220" y="33" fill="#64748B" font-size="13" text-anchor="middle">Register</text>
  <text x="300" y="33" fill="#64748B" font-size="13" text-anchor="middle">Tables</text>
  <text x="376" y="33" fill="#64748B" font-size="13" text-anchor="middle">Reservations</text>
  <text x="458" y="33" fill="#64748B" font-size="13" text-anchor="middle">KDS</text>
  <!-- Events (active) -->
  <text x="534" y="33" fill="#F59E0B" font-size="13" font-weight="600" text-anchor="middle">Events</text>
  <rect x="506" y="52" width="56" height="3" rx="1" fill="#F59E0B"/>
  <text x="606" y="33" fill="#64748B" font-size="13" text-anchor="middle">Reports</text>
  <text x="682" y="33" fill="#64748B" font-size="13" text-anchor="middle">Settings</text>

  <!-- Right side: Server name + clock -->
  <text x="1195" y="25" fill="#94A3B8" font-size="10">Server</text>
  <text x="1195" y="39" fill="#F1F5F9" font-size="13" font-weight="600">Marcus</text>
  <text x="1262" y="25" fill="#94A3B8" font-size="10">Wed May 27</text>
  <text x="1262" y="39" fill="#F1F5F9" font-size="13" font-weight="600">7:15 PM</text>
  <!-- Wifi icon -->
  <path d="M1349 22 Q1358 14 1367 22" fill="none" stroke="#64748B" stroke-width="1.5" stroke-linecap="round"/>
  <path d="M1345 27 Q1358 11 1371 27" fill="none" stroke="#64748B" stroke-width="1.5" stroke-linecap="round"/>
  <circle cx="1358" cy="34" r="2.5" fill="#94A3B8"/>

  <!-- ═══════════════════════════════════════════════════════ -->
  <!-- HEADER STRIP h=52 y=56 -->
  <!-- ═══════════════════════════════════════════════════════ -->
  <rect x="0" y="56" width="1366" height="52" fill="#1A1D2E"/>
  <rect x="0" y="107" width="1366" height="1" fill="#2D3148"/>

  <!-- Title -->
  <text x="16" y="88" fill="#F1F5F9" font-size="18" font-weight="700">Catering &amp; Private Events</text>

  <!-- Sub-tabs -->
  <!-- Upcoming Events (active) -->
  <text x="260" y="87" fill="#F59E0B" font-size="13" font-weight="600" text-anchor="middle">Upcoming Events</text>
  <rect x="196" y="104" width="128" height="3" rx="1" fill="#F59E0B"/>
  <text x="386" y="87" fill="#64748B" font-size="13" text-anchor="middle">Calendar</text>
  <text x="462" y="87" fill="#64748B" font-size="13" text-anchor="middle">Quotes</text>
  <text x="534" y="87" fill="#64748B" font-size="13" text-anchor="middle">Invoices</text>
  <text x="614" y="87" fill="#64748B" font-size="13" text-anchor="middle">Templates</text>

  <!-- New Event button -->
  <rect x="1248" y="65" width="104" height="34" rx="7" fill="#F59E0B"/>
  <text x="1300" y="87" fill="#0F1117" font-size="13" font-weight="700" text-anchor="middle">+ New Event</text>

  <!-- ═══════════════════════════════════════════════════════ -->
  <!-- STATS ROW h=64 y=108 -->
  <!-- ═══════════════════════════════════════════════════════ -->
  <rect x="0" y="108" width="1366" height="64" fill="#0F1117"/>
  <rect x="0" y="171" width="1366" height="1" fill="#2D3148"/>

  <!-- Stat 1: Events This Month -->
  <rect x="12" y="116" width="230" height="48" rx="8" fill="#1A1D2E" stroke="#2D3148" stroke-width="1"/>
  <text x="22" y="131" fill="#64748B" font-size="9" font-weight="600" letter-spacing="0.5">EVENTS THIS MONTH</text>
  <text x="22" y="153" fill="#F1F5F9" font-size="20" font-weight="700">8</text>
  <text x="44" y="153" fill="#94A3B8" font-size="13">events scheduled</text>

  <!-- Stat 2: Pending Revenue -->
  <rect x="252" y="116" width="248" height="48" rx="8" fill="#1A1D2E" stroke="#2D3148" stroke-width="1"/>
  <text x="262" y="131" fill="#64748B" font-size="9" font-weight="600" letter-spacing="0.5">PENDING REVENUE</text>
  <text x="262" y="153" fill="#F59E0B" font-size="20" font-weight="700">$28,400</text>
  <text x="362" y="153" fill="#94A3B8" font-size="12">total contracted</text>

  <!-- Stat 3: Deposits Collected -->
  <rect x="510" y="116" width="266" height="48" rx="8" fill="#1A1D2E" stroke="#2D3148" stroke-width="1"/>
  <text x="520" y="131" fill="#64748B" font-size="9" font-weight="600" letter-spacing="0.5">DEPOSITS COLLECTED</text>
  <text x="520" y="153" fill="#10B981" font-size="20" font-weight="700">$9,200</text>
  <text x="600" y="153" fill="#94A3B8" font-size="12">32% of total</text>
  <!-- Mini progress bar -->
  <rect x="662" y="141" width="100" height="6" rx="3" fill="#2D3148"/>
  <rect x="662" y="141" width="32" height="6" rx="3" fill="#10B981"/>

  <!-- Stat 4: Events This Week -->
  <rect x="786" y="116" width="220" height="48" rx="8" fill="#1A1D2E" stroke="#2D3148" stroke-width="1"/>
  <text x="796" y="131" fill="#64748B" font-size="9" font-weight="600" letter-spacing="0.5">EVENTS THIS WEEK</text>
  <text x="796" y="153" fill="#F1F5F9" font-size="20" font-weight="700">2</text>
  <text x="818" y="153" fill="#94A3B8" font-size="13">events upcoming</text>

  <!-- ═══════════════════════════════════════════════════════ -->
  <!-- MAIN 3-COLUMN LAYOUT y=172 -->
  <!-- ═══════════════════════════════════════════════════════ -->

  <!-- Column dividers -->
  <rect x="320" y="172" width="1" height="790" fill="#2D3148"/>
  <rect x="1020" y="172" width="1" height="790" fill="#2D3148"/>

  <!-- ═══════════════════════════════════════════════════════ -->
  <!-- LEFT PANEL: Event List x=0 w=320 -->
  <!-- ═══════════════════════════════════════════════════════ -->
  <rect x="0" y="172" width="320" height="790" fill="#0F1117"/>

  <text x="12" y="198" fill="#F1F5F9" font-size="13" font-weight="700">Upcoming Events</text>
  <text x="269" y="198" fill="#64748B" font-size="11">Sort: Date ▾</text>

  <!-- ─── Event Card 1: Johnson Wedding (SELECTED) ─── -->
  <rect x="8" y="206" width="304" height="118" rx="8" fill="#1A1D2E" stroke="#F59E0B" stroke-width="1.5"/>
  <rect x="8" y="206" width="4" height="118" rx="2" fill="#F59E0B"/>
  <!-- Selected indicator glow -->
  <rect x="8" y="206" width="304" height="118" rx="8" fill="#F59E0B" fill-opacity="0.04"/>
  <text x="22" y="223" fill="#F59E0B" font-size="11" font-weight="700">Jun 7 · 6 PM · Private Room</text>
  <text x="22" y="239" fill="#F1F5F9" font-size="13" font-weight="700">Johnson Wedding Reception</text>
  <text x="22" y="254" fill="#94A3B8" font-size="11">120 guests</text>
  <text x="200" y="254" fill="#F1F5F9" font-size="13" font-weight="600">$14,800</text>
  <!-- 50% deposit badge -->
  <rect x="22" y="261" width="110" height="16" rx="8" fill="#F59E0B" fill-opacity="0.2"/>
  <text x="77" y="272" fill="#F59E0B" font-size="9" font-weight="600" text-anchor="middle">50% deposit paid</text>
  <!-- Confirm menu warning badge -->
  <rect x="22" y="282" width="168" height="16" rx="8" fill="#F97316" fill-opacity="0.2"/>
  <text x="106" y="293" fill="#F97316" font-size="9" font-weight="600" text-anchor="middle">⚠ Confirm Menu by Jun 1</text>

  <!-- ─── Event Card 2: Acme Corp ─── -->
  <rect x="8" y="332" width="304" height="90" rx="8" fill="#1A1D2E" stroke="#2D3148" stroke-width="1"/>
  <rect x="8" y="332" width="4" height="90" rx="2" fill="#10B981"/>
  <text x="22" y="349" fill="#94A3B8" font-size="11">Jun 12 · 7 PM · Main Dining (buyout)</text>
  <text x="22" y="364" fill="#F1F5F9" font-size="13" font-weight="600">Acme Corp Annual Dinner</text>
  <text x="22" y="379" fill="#94A3B8" font-size="11">80 guests</text>
  <text x="200" y="379" fill="#F1F5F9" font-size="13" font-weight="600">$8,200</text>
  <!-- Full deposit badge -->
  <rect x="22" y="386" width="116" height="16" rx="8" fill="#10B981" fill-opacity="0.2"/>
  <text x="80" y="397" fill="#10B981" font-size="9" font-weight="600" text-anchor="middle">✓ Full deposit paid</text>

  <!-- ─── Event Card 3: Wilson Birthday ─── -->
  <rect x="8" y="430" width="304" height="90" rx="8" fill="#1A1D2E" stroke="#2D3148" stroke-width="1"/>
  <rect x="8" y="430" width="4" height="90" rx="2" fill="#EF4444"/>
  <text x="22" y="447" fill="#94A3B8" font-size="11">Jun 15 · 3 PM · Patio</text>
  <text x="22" y="462" fill="#F1F5F9" font-size="13" font-weight="600">Wilson Birthday Party</text>
  <text x="22" y="477" fill="#94A3B8" font-size="11">25 guests</text>
  <text x="200" y="477" fill="#F1F5F9" font-size="13" font-weight="600">$2,400</text>
  <!-- Deposit overdue badge -->
  <rect x="22" y="484" width="116" height="16" rx="8" fill="#EF4444" fill-opacity="0.2"/>
  <text x="80" y="495" fill="#EF4444" font-size="9" font-weight="600" text-anchor="middle">Deposit Overdue</text>

  <!-- ─── Event Card 4: Metro Hospital Gala ─── -->
  <rect x="8" y="528" width="304" height="90" rx="8" fill="#1A1D2E" stroke="#2D3148" stroke-width="1"/>
  <rect x="8" y="528" width="4" height="90" rx="2" fill="#8B5CF6"/>
  <text x="22" y="545" fill="#94A3B8" font-size="11">Jun 22 · 6:30 PM · Private Room</text>
  <text x="22" y="560" fill="#F1F5F9" font-size="13" font-weight="600">Metro Hospital Gala</text>
  <text x="22" y="575" fill="#94A3B8" font-size="11">200 guests</text>
  <text x="200" y="575" fill="#F1F5F9" font-size="13" font-weight="600">$18,400</text>
  <!-- Quote stage badge -->
  <rect x="22" y="582" width="78" height="16" rx="8" fill="#8B5CF6" fill-opacity="0.25"/>
  <text x="61" y="593" fill="#8B5CF6" font-size="9" font-weight="600" text-anchor="middle">Quote Stage</text>

  <!-- ─── Event Card 5: Class Reunion ─── -->
  <rect x="8" y="626" width="304" height="90" rx="8" fill="#1A1D2E" stroke="#2D3148" stroke-width="1"/>
  <rect x="8" y="626" width="4" height="90" rx="2" fill="#64748B"/>
  <text x="22" y="643" fill="#94A3B8" font-size="11">Jul 4 · 12 PM · Full Buyout</text>
  <text x="22" y="658" fill="#F1F5F9" font-size="13" font-weight="600">Class Reunion</text>
  <text x="22" y="673" fill="#94A3B8" font-size="11">150 guests</text>
  <text x="200" y="673" fill="#F1F5F9" font-size="13" font-weight="600">$12,200</text>
  <!-- In progress badge -->
  <rect x="22" y="680" width="74" height="16" rx="8" fill="#64748B" fill-opacity="0.3"/>
  <text x="59" y="691" fill="#94A3B8" font-size="9" font-weight="600" text-anchor="middle">In Progress</text>

  <!-- + 3 more collapse -->
  <rect x="8" y="724" width="304" height="32" rx="6" fill="#1A1D2E" stroke="#2D3148" stroke-width="1"/>
  <text x="160" y="744" fill="#64748B" font-size="12" text-anchor="middle">+ 3 more events ▾</text>

  <!-- ═══════════════════════════════════════════════════════ -->
  <!-- CENTER PANEL: Event Detail x=321 w=699 -->
  <!-- ═══════════════════════════════════════════════════════ -->
  <rect x="321" y="172" width="699" height="790" fill="#0F1117"/>

  <!-- Detail Header -->
  <text x="333" y="200" fill="#F1F5F9" font-size="16" font-weight="700">Johnson Wedding Reception</text>
  <!-- Edit button -->
  <rect x="816" y="182" width="56" height="28" rx="6" fill="#1A1D2E" stroke="#2D3148" stroke-width="1"/>
  <text x="844" y="200" fill="#94A3B8" font-size="12" font-weight="600" text-anchor="middle">Edit</text>
  <!-- Print BEO button -->
  <rect x="878" y="182" width="78" height="28" rx="6" fill="#1A1D2E" stroke="#2D3148" stroke-width="1"/>
  <text x="917" y="200" fill="#94A3B8" font-size="12" font-weight="600" text-anchor="middle">Print BEO</text>
  <!-- Generate Invoice button -->
  <rect x="962" y="182" width="128" height="28" rx="6" fill="#F59E0B"/>
  <text x="1026" y="200" fill="#0F1117" font-size="12" font-weight="700" text-anchor="middle">Generate Invoice</text>

  <!-- ─── EVENT INFO GRID ─── -->
  <rect x="329" y="214" width="683" height="150" rx="8" fill="#1A1D2E" stroke="#2D3148" stroke-width="1"/>

  <!-- Row 1 -->
  <text x="341" y="234" fill="#64748B" font-size="10" font-weight="600" letter-spacing="0.4">EVENT DATE</text>
  <text x="341" y="250" fill="#F1F5F9" font-size="12" font-weight="600">Saturday, June 7, 2026 · 6:00 PM – 11:00 PM</text>

  <text x="672" y="234" fill="#64748B" font-size="10" font-weight="600" letter-spacing="0.4">VENUE</text>
  <text x="672" y="250" fill="#F1F5F9" font-size="12" font-weight="600">Private Room (capacity: 150)</text>

  <!-- Row 2 -->
  <rect x="329" y="258" width="683" height="1" fill="#2D3148"/>
  <text x="341" y="276" fill="#64748B" font-size="10" font-weight="600" letter-spacing="0.4">GUEST COUNT</text>
  <text x="341" y="292" fill="#F1F5F9" font-size="12" font-weight="600">120 confirmed <tspan fill="#94A3B8">/ 130 max</tspan></text>

  <text x="672" y="276" fill="#64748B" font-size="10" font-weight="600" letter-spacing="0.4">EVENT TYPE</text>
  <text x="672" y="292" fill="#F1F5F9" font-size="12" font-weight="600">Wedding Reception</text>

  <!-- Row 3 -->
  <rect x="329" y="300" width="683" height="1" fill="#2D3148"/>
  <text x="341" y="318" fill="#64748B" font-size="10" font-weight="600" letter-spacing="0.4">CONTACT</text>
  <text x="341" y="334" fill="#F1F5F9" font-size="12" font-weight="600">Emily Johnson</text>
  <text x="441" y="334" fill="#94A3B8" font-size="11">emily.j@email.com · (555) 203-8847</text>

  <text x="672" y="318" fill="#64748B" font-size="10" font-weight="600" letter-spacing="0.4">COORDINATOR / BOOKED</text>
  <text x="672" y="334" fill="#F1F5F9" font-size="12" font-weight="600">Sarah W. <tspan fill="#94A3B8" font-size="11">· Booked Apr 2, 2026</tspan></text>

  <!-- ─── FINANCIAL SUMMARY ─── -->
  <rect x="329" y="371" width="330" height="220" rx="8" fill="#1A1D2E" stroke="#2D3148" stroke-width="1"/>
  <text x="341" y="391" fill="#F1F5F9" font-size="13" font-weight="700">Financial Summary</text>

  <!-- Package price line -->
  <text x="341" y="410" fill="#94A3B8" font-size="11">Package Price</text>
  <text x="647" y="410" fill="#F1F5F9" font-size="12" font-weight="600" text-anchor="end">$14,800.00</text>
  <!-- Sub-lines -->
  <text x="351" y="425" fill="#64748B" font-size="10">Room rental</text>
  <text x="647" y="425" fill="#64748B" font-size="10" text-anchor="end">$2,500</text>
  <text x="351" y="439" fill="#64748B" font-size="10">Food &amp; Beverage (min spend)</text>
  <text x="647" y="439" fill="#64748B" font-size="10" text-anchor="end">$10,000</text>
  <text x="351" y="453" fill="#64748B" font-size="10">Service charge (20%)</text>
  <text x="647" y="453" fill="#64748B" font-size="10" text-anchor="end">$2,000</text>
  <text x="351" y="467" fill="#64748B" font-size="10">Additional labor (est.)</text>
  <text x="647" y="467" fill="#64748B" font-size="10" text-anchor="end">$300</text>

  <rect x="341" y="472" width="306" height="1" fill="#2D3148"/>

  <!-- Deposit -->
  <text x="341" y="489" fill="#94A3B8" font-size="11">Deposit (50%)</text>
  <text x="540" y="489" fill="#10B981" font-size="10" font-weight="600">PAID May 1</text>
  <text x="647" y="489" fill="#10B981" font-size="12" font-weight="600" text-anchor="end">-$7,400.00</text>

  <!-- Balance -->
  <text x="341" y="506" fill="#94A3B8" font-size="11">Balance Due</text>
  <text x="500" y="506" fill="#F97316" font-size="10">Due Jun 6 (day before)</text>
  <text x="647" y="506" fill="#F1F5F9" font-size="12" font-weight="600" text-anchor="end">$7,400.00</text>

  <rect x="341" y="511" width="306" height="1" fill="#2D3148"/>

  <!-- Tax + Total -->
  <text x="341" y="526" fill="#64748B" font-size="10">Estimated tax</text>
  <text x="647" y="526" fill="#64748B" font-size="10" text-anchor="end">$1,313.30</text>
  <text x="341" y="542" fill="#F1F5F9" font-size="12" font-weight="700">Total with tax</text>
  <text x="647" y="542" fill="#F59E0B" font-size="14" font-weight="700" text-anchor="end">$16,113.30</text>

  <!-- Action buttons -->
  <rect x="341" y="551" width="140" height="30" rx="6" fill="#10B981"/>
  <text x="411" y="570" fill="#0F1117" font-size="12" font-weight="700" text-anchor="middle">Collect Deposit</text>
  <rect x="491" y="551" width="148" height="30" rx="6" fill="#F59E0B"/>
  <text x="565" y="570" fill="#0F1117" font-size="12" font-weight="700" text-anchor="middle">Issue Final Invoice</text>

  <!-- ─── MENU SELECTION ─── -->
  <rect x="667" y="371" width="345" height="220" rx="8" fill="#1A1D2E" stroke="#F59E0B" stroke-width="1.5"/>
  <!-- Amber action needed header -->
  <rect x="667" y="371" width="345" height="26" rx="8" fill="#F59E0B" fill-opacity="0.12"/>
  <rect x="667" y="384" width="345" height="13" fill="#F59E0B" fill-opacity="0.12"/>
  <text x="679" y="388" fill="#F59E0B" font-size="11" font-weight="700">Menu Selection — Action Needed</text>

  <text x="679" y="408" fill="#64748B" font-size="10" font-weight="600" letter-spacing="0.4">PACKAGE</text>
  <text x="679" y="422" fill="#F1F5F9" font-size="12" font-weight="600">Plated Dinner — 3 courses</text>

  <text x="679" y="438" fill="#64748B" font-size="10">Cocktail Hour: <tspan fill="#10B981" font-weight="600">✓ Selected</tspan></text>
  <text x="679" y="452" fill="#94A3B8" font-size="10">Bruschetta, shrimp cocktail, cheese board</text>

  <rect x="679" y="458" width="321" height="1" fill="#2D3148"/>

  <!-- Entree selections -->
  <text x="679" y="472" fill="#94A3B8" font-size="10" font-weight="600">ENTREE PRE-ORDER (120 guests)</text>
  <text x="679" y="486" fill="#F1F5F9" font-size="11">Chicken Marsala</text>
  <text x="899" y="486" fill="#F59E0B" font-size="11" font-weight="600" text-anchor="end">68 guests (57%)</text>
  <!-- bar -->
  <rect x="679" y="490" width="321" height="4" rx="2" fill="#2D3148"/>
  <rect x="679" y="490" width="183" height="4" rx="2" fill="#F59E0B"/>

  <text x="679" y="504" fill="#F1F5F9" font-size="11">Beef Tenderloin</text>
  <text x="899" y="504" fill="#94A3B8" font-size="11" text-anchor="end">35 guests (29%)</text>
  <rect x="679" y="508" width="321" height="4" rx="2" fill="#2D3148"/>
  <rect x="679" y="508" width="93" height="4" rx="2" fill="#94A3B8"/>

  <text x="679" y="522" fill="#F1F5F9" font-size="11">Vegetarian Risotto</text>
  <text x="899" y="522" fill="#94A3B8" font-size="11" text-anchor="end">17 guests (14%)</text>
  <rect x="679" y="526" width="321" height="4" rx="2" fill="#2D3148"/>
  <rect x="679" y="526" width="45" height="4" rx="2" fill="#10B981"/>

  <!-- Final counts warning -->
  <text x="679" y="544" fill="#F59E0B" font-size="10" font-weight="600">⚠ Final counts due: June 1</text>

  <!-- Dessert + Bar + Dietary -->
  <rect x="679" y="549" width="321" height="1" fill="#2D3148"/>
  <text x="679" y="562" fill="#64748B" font-size="10">Dessert: <tspan fill="#94A3B8">Wedding cake (client) + mini dessert display</tspan></text>
  <text x="679" y="575" fill="#64748B" font-size="10">Bar: <tspan fill="#94A3B8">Open bar 6–9 PM · Cash bar 9–11 PM</tspan></text>
  <text x="679" y="588" fill="#EF4444" font-size="10" font-weight="600">Dietary: <tspan fill="#94A3B8" font-weight="400">4 gluten-free · 2 nut allergy · 1 vegan — alerts set</tspan></text>

  <!-- ─── STAFFING ─── -->
  <rect x="329" y="598" width="683" height="130" rx="8" fill="#1A1D2E" stroke="#2D3148" stroke-width="1"/>
  <text x="341" y="618" fill="#F1F5F9" font-size="13" font-weight="700">Staffing</text>
  <text x="600" y="618" fill="#64748B" font-size="10">Required for 120 guests</text>

  <!-- Staff grid -->
  <!-- Row 1 -->
  <text x="341" y="638" fill="#64748B" font-size="10" font-weight="600" letter-spacing="0.4">SERVERS (6)</text>
  <text x="341" y="652" fill="#F1F5F9" font-size="11">Marcus, Sarah, Tyler, Jennifer</text>
  <text x="560" y="652" fill="#F97316" font-size="11">+2 TBD</text>

  <text x="672" y="638" fill="#64748B" font-size="10" font-weight="600" letter-spacing="0.4">BARTENDERS (2)</text>
  <text x="672" y="652" fill="#10B981" font-size="11">✓ Assigned</text>

  <rect x="341" y="658" width="669" height="1" fill="#2D3148"/>

  <!-- Row 2 -->
  <text x="341" y="674" fill="#64748B" font-size="10" font-weight="600" letter-spacing="0.4">EVENT COORDINATOR</text>
  <text x="341" y="688" fill="#10B981" font-size="11">✓ Sarah W.</text>

  <text x="672" y="674" fill="#64748B" font-size="10" font-weight="600" letter-spacing="0.4">KITCHEN LEAD</text>
  <text x="672" y="688" fill="#10B981" font-size="11">✓ Chef Rodriguez</text>

  <rect x="341" y="694" width="669" height="1" fill="#2D3148"/>

  <text x="341" y="714" fill="#64748B" font-size="11">Confirm all staff by May 31</text>
  <!-- Staff confirm button -->
  <rect x="850" y="700" width="148" height="26" rx="6" fill="#1A1D2E" stroke="#2D3148" stroke-width="1"/>
  <text x="924" y="717" fill="#94A3B8" font-size="11" font-weight="600" text-anchor="middle">Manage Staffing</text>

  <!-- ─── WORKFLOW INTEGRATION BAR (full width bottom) ─── -->
  <rect x="0" y="930" width="1366" height="94" fill="#1A1D2E" stroke="#F59E0B" stroke-width="0"/>
  <rect x="0" y="930" width="1366" height="2" fill="#F59E0B" fill-opacity="0.6"/>
  <text x="12" y="948" fill="#F59E0B" font-size="10" font-weight="700" letter-spacing="0.5">DATABASE SCHEMA &amp; INTEGRATION</text>
  <text x="12" y="962" fill="#64748B" font-size="9.5">pos_events: id, venue_id, name, event_date, start_time, end_time, room_id, guest_count, event_type, contact jsonb, coordinator_staff_id, status (quote|confirmed|complete|cancelled)</text>
  <text x="12" y="975" fill="#64748B" font-size="9.5">pos_event_financials: event_id, package_price, room_rental, service_charge_pct, deposit_pct, deposit_paid_cents, balance_due_cents · pos_event_menus: event_id, course, selections jsonb, dietary_flags jsonb</text>
  <text x="12" y="988" fill="#64748B" font-size="9.5">pos_event_staff: event_id, staff_id, role · Deposit flow: pos_payments (type='deposit', event_id FK) · BEO: PDF generated /api/pos/events/[id]/beo.pdf · pos_invoices linked event_id</text>
  <text x="12" y="1001" fill="#64748B" font-size="9.5">KDS on event day: event orders fire with event_id tag — kitchen sees event context · Final invoice: pos_invoices → event_id · pos_event_staff: event_id, staff_id, role (server|bartender|coordinator|kitchen)</text>
  <text x="12" y="1014" fill="#64748B" font-size="9.5">pos_payments (type='deposit', event_id FK) · Gratuity settle: pos_event_gratuity · Automate balance reminder: pos_notifications (event_id, trigger_days_before, type='balance_due')</text>

  <!-- ═══════════════════════════════════════════════════════ -->
  <!-- RIGHT PANEL: BEO Preview + Timeline x=1021 w=345 -->
  <!-- ═══════════════════════════════════════════════════════ -->
  <rect x="1021" y="172" width="345" height="758" fill="#0F1117"/>

  <!-- ─── BEO PREVIEW ─── -->
  <rect x="1029" y="178" width="329" height="296" rx="8" fill="#1A1D2E" stroke="#2D3148" stroke-width="1"/>

  <!-- BEO Header band -->
  <rect x="1029" y="178" width="329" height="36" rx="8" fill="#2D3148"/>
  <rect x="1029" y="200" width="329" height="14" fill="#2D3148"/>
  <text x="1193" y="202" fill="#F1F5F9" font-size="12" font-weight="700" text-anchor="middle" letter-spacing="1">BANQUET EVENT ORDER</text>

  <!-- BEO subheader -->
  <text x="1193" y="228" fill="#F59E0B" font-size="13" font-weight="700" text-anchor="middle">Johnson Wedding Reception</text>
  <text x="1193" y="244" fill="#94A3B8" font-size="11" text-anchor="middle">June 7, 2026 · Private Room · 120 guests</text>

  <rect x="1041" y="250" width="305" height="1" fill="#2D3148"/>

  <!-- Times -->
  <text x="1041" y="266" fill="#64748B" font-size="10" font-weight="600" letter-spacing="0.4">SCHEDULE</text>
  <text x="1041" y="280" fill="#94A3B8" font-size="10">Setup</text>
  <text x="1346" y="280" fill="#F1F5F9" font-size="10" font-weight="600" text-anchor="end">3:00 PM</text>
  <text x="1041" y="293" fill="#94A3B8" font-size="10">Doors Open</text>
  <text x="1346" y="293" fill="#F1F5F9" font-size="10" font-weight="600" text-anchor="end">5:30 PM</text>
  <text x="1041" y="306" fill="#94A3B8" font-size="10">Event Start</text>
  <text x="1346" y="306" fill="#F1F5F9" font-size="10" font-weight="600" text-anchor="end">6:00 PM</text>
  <text x="1041" y="319" fill="#94A3B8" font-size="10">Event End</text>
  <text x="1346" y="319" fill="#F1F5F9" font-size="10" font-weight="600" text-anchor="end">11:00 PM</text>
  <text x="1041" y="332" fill="#94A3B8" font-size="10">Breakdown</text>
  <text x="1346" y="332" fill="#F1F5F9" font-size="10" font-weight="600" text-anchor="end">11:00 PM</text>

  <rect x="1041" y="338" width="305" height="1" fill="#2D3148"/>

  <text x="1041" y="352" fill="#64748B" font-size="10" font-weight="600" letter-spacing="0.4">SERVICE FLOW</text>
  <text x="1041" y="366" fill="#94A3B8" font-size="10">Cocktail Hour</text>
  <text x="1346" y="366" fill="#F1F5F9" font-size="10" text-anchor="end">6:00 – 7:00 PM</text>
  <text x="1041" y="379" fill="#94A3B8" font-size="10">Dinner Service</text>
  <text x="1346" y="379" fill="#F1F5F9" font-size="10" text-anchor="end">7:00 – 9:00 PM</text>
  <text x="1041" y="392" fill="#94A3B8" font-size="10">Dancing / Bar</text>
  <text x="1346" y="392" fill="#F1F5F9" font-size="10" text-anchor="end">9:00 – 11:00 PM</text>

  <rect x="1041" y="398" width="305" height="1" fill="#2D3148"/>

  <!-- A/V and Florals -->
  <text x="1041" y="413" fill="#10B981" font-size="10" font-weight="600">✓ A/V: Projector + mic</text>
  <text x="1041" y="427" fill="#10B981" font-size="10" font-weight="600">✓ Florals: Client-provided</text>

  <!-- Print BEO button -->
  <rect x="1041" y="440" width="305" height="28" rx="6" fill="#2D3148"/>
  <text x="1193" y="458" fill="#F1F5F9" font-size="12" font-weight="600" text-anchor="middle">Print BEO</text>

  <!-- ─── EVENT TIMELINE ─── -->
  <rect x="1029" y="482" width="329" height="286" rx="8" fill="#1A1D2E" stroke="#2D3148" stroke-width="1"/>
  <text x="1041" y="502" fill="#F1F5F9" font-size="13" font-weight="700">Event Timeline</text>

  <!-- Timeline vertical line -->
  <line x1="1055" y1="514" x2="1055" y2="748" stroke="#2D3148" stroke-width="2"/>

  <!-- Milestone 1: Booking confirmed -->
  <circle cx="1055" cy="526" r="7" fill="#10B981"/>
  <text x="1055" y="529" fill="#0F1117" font-size="8" font-weight="700" text-anchor="middle">✓</text>
  <text x="1068" y="524" fill="#94A3B8" font-size="10">Apr 2</text>
  <text x="1108" y="524" fill="#F1F5F9" font-size="11">Booking confirmed + deposit invoice sent</text>

  <!-- Milestone 2: Deposit received -->
  <circle cx="1055" cy="558" r="7" fill="#10B981"/>
  <text x="1055" y="561" fill="#0F1117" font-size="8" font-weight="700" text-anchor="middle">✓</text>
  <text x="1068" y="556" fill="#94A3B8" font-size="10">May 1</text>
  <text x="1110" y="556" fill="#F1F5F9" font-size="11">50% deposit received</text>

  <!-- Milestone 3: Final menu counts — OVERDUE -->
  <circle cx="1055" cy="598" r="8" fill="#F97316"/>
  <text x="1055" y="603" fill="#0F1117" font-size="10" font-weight="700" text-anchor="middle">!</text>
  <text x="1068" y="594" fill="#F97316" font-size="10" font-weight="600">Jun 1</text>
  <text x="1110" y="594" fill="#F97316" font-size="11" font-weight="600">Final menu counts due</text>
  <!-- Overdue badge -->
  <rect x="1110" y="599" width="86" height="14" rx="7" fill="#F97316" fill-opacity="0.2"/>
  <text x="1153" y="609" fill="#F97316" font-size="9" font-weight="600" text-anchor="middle">ACTION NEEDED</text>

  <!-- Milestone 4: Final guest count -->
  <circle cx="1055" cy="638" r="7" fill="#2D3148" stroke="#64748B" stroke-width="1.5"/>
  <text x="1055" y="642" fill="#64748B" font-size="9" text-anchor="middle">○</text>
  <text x="1068" y="636" fill="#94A3B8" font-size="10">Jun 5</text>
  <text x="1110" y="636" fill="#94A3B8" font-size="11">Final guest count confirmed</text>

  <!-- Milestone 5: Balance payment due -->
  <circle cx="1055" cy="666" r="7" fill="#2D3148" stroke="#64748B" stroke-width="1.5"/>
  <text x="1068" y="664" fill="#94A3B8" font-size="10">Jun 6</text>
  <text x="1110" y="664" fill="#94A3B8" font-size="11">Balance payment due</text>

  <!-- Milestone 6: EVENT DAY -->
  <circle cx="1055" cy="694" r="8" fill="#F59E0B"/>
  <text x="1055" y="699" fill="#0F1117" font-size="8" font-weight="700" text-anchor="middle">★</text>
  <text x="1068" y="692" fill="#F59E0B" font-size="10" font-weight="700">Jun 7</text>
  <text x="1110" y="692" fill="#F59E0B" font-size="12" font-weight="700">EVENT DAY</text>

  <!-- Milestone 7: Final invoice -->
  <circle cx="1055" cy="722" r="7" fill="#2D3148" stroke="#64748B" stroke-width="1.5"/>
  <text x="1068" y="720" fill="#94A3B8" font-size="10">Jun 8</text>
  <text x="1110" y="720" fill="#94A3B8" font-size="11">Final invoice + gratuity settle</text>

  <!-- Timeline end dots label -->
  <text x="1041" y="755" fill="#64748B" font-size="9">⏳ = pending · ✓ = complete · ! = action needed</text>

</svg>
