<svg xmlns="http://www.w3.org/2000/svg" viewBox="0 0 1366 1024" font-family="system-ui,-apple-system,sans-serif">

  <!-- Background -->
  <rect width="1366" height="1024" fill="#0F1117"/>

  <!-- ═══════════════════════════════════════════════════════ -->
  <!-- TOP NAV BAR h=56                                        -->
  <!-- ═══════════════════════════════════════════════════════ -->
  <rect x="0" y="0" width="1366" height="56" fill="#1A1D2E"/>
  <rect x="0" y="55" width="1366" height="1" fill="#2D3148"/>

  <!-- Logo / Brand -->
  <circle cx="20" cy="28" r="7" fill="#22C55E"/>
  <text x="34" y="33" fill="#22C55E" font-size="11" font-weight="600">LIVE</text>
  <text x="68" y="35" fill="#F59E0B" font-size="17" font-weight="700">Synalux POS</text>

  <!-- Nav Tabs -->
  <text x="220" y="33" fill="#64748B" font-size="13" text-anchor="middle">Register</text>
  <text x="310" y="33" fill="#64748B" font-size="13" text-anchor="middle">Tables</text>
  <text x="400" y="33" fill="#64748B" font-size="13" text-anchor="middle">Reservations</text>
  <text x="510" y="33" fill="#64748B" font-size="13" text-anchor="middle">KDS</text>
  <!-- Loyalty (active) -->
  <text x="604" y="33" fill="#F59E0B" font-size="13" font-weight="600" text-anchor="middle">Loyalty</text>
  <rect x="556" y="52" width="96" height="3" rx="1" fill="#F59E0B"/>
  <text x="694" y="33" fill="#64748B" font-size="13" text-anchor="middle">Reports</text>
  <text x="778" y="33" fill="#64748B" font-size="13" text-anchor="middle">Settings</text>

  <!-- Right: host + clock -->
  <text x="1195" y="25" fill="#94A3B8" font-size="10">Host Stand</text>
  <text x="1195" y="39" fill="#F1F5F9" font-size="13" font-weight="600">Jamie H.</text>
  <text x="1272" y="25" fill="#94A3B8" font-size="10">Wednesday</text>
  <text x="1272" y="39" fill="#F1F5F9" font-size="13" font-weight="600">12:04 PM</text>
  <!-- Wifi -->
  <path d="M1350 22 Q1358 14 1366 22" fill="none" stroke="#64748B" stroke-width="1.5" stroke-linecap="round"/>
  <path d="M1346 27 Q1358 12 1370 27" fill="none" stroke="#64748B" stroke-width="1.5" stroke-linecap="round"/>
  <circle cx="1358" cy="34" r="2.5" fill="#94A3B8"/>

  <!-- ═══════════════════════════════════════════════════════ -->
  <!-- STATS BAR h=64 y=56                                     -->
  <!-- ═══════════════════════════════════════════════════════ -->
  <rect x="0" y="56" width="1366" height="64" fill="#1A1D2E"/>
  <rect x="0" y="119" width="1366" height="1" fill="#2D3148"/>

  <rect x="12" y="64" width="190" height="48" rx="7" fill="#0F1117" stroke="#2D3148" stroke-width="1"/>
  <text x="22" y="78" fill="#64748B" font-size="9.5" font-weight="600" letter-spacing="0.5">TODAY'S CHECK-INS</text>
  <text x="22" y="98" fill="#F1F5F9" font-size="18" font-weight="700">34</text>
  <text x="52" y="98" fill="#94A3B8" font-size="12"> guests</text>

  <rect x="214" y="64" width="190" height="48" rx="7" fill="#0F1117" stroke="#2D3148" stroke-width="1"/>
  <text x="224" y="78" fill="#64748B" font-size="9.5" font-weight="600" letter-spacing="0.5">LOYALTY MEMBERS</text>
  <text x="224" y="98" fill="#10B981" font-size="18" font-weight="700">28</text>
  <text x="254" y="98" fill="#94A3B8" font-size="12"> of 34</text>

  <rect x="416" y="64" width="190" height="48" rx="7" fill="#0F1117" stroke="#2D3148" stroke-width="1"/>
  <text x="426" y="78" fill="#64748B" font-size="9.5" font-weight="600" letter-spacing="0.5">POINTS AWARDED</text>
  <text x="426" y="98" fill="#F59E0B" font-size="18" font-weight="700">1,840</text>
  <text x="504" y="98" fill="#94A3B8" font-size="12"> pts</text>

  <rect x="618" y="64" width="190" height="48" rx="7" fill="#0F1117" stroke="#2D3148" stroke-width="1"/>
  <text x="628" y="78" fill="#64748B" font-size="9.5" font-weight="600" letter-spacing="0.5">OFFERS REDEEMED</text>
  <text x="628" y="98" fill="#8B5CF6" font-size="18" font-weight="700">7</text>
  <text x="648" y="98" fill="#94A3B8" font-size="12"> today</text>

  <rect x="820" y="64" width="220" height="48" rx="7" fill="#0F1117" stroke="#2D3148" stroke-width="1"/>
  <text x="830" y="78" fill="#64748B" font-size="9.5" font-weight="600" letter-spacing="0.5">TOTAL LOYALTY REVENUE</text>
  <text x="830" y="98" fill="#F1F5F9" font-size="18" font-weight="700">$2,184</text>
  <text x="914" y="98" fill="#94A3B8" font-size="12"> today</text>

  <!-- NFC Status pill -->
  <rect x="1058" y="72" width="140" height="32" rx="16" fill="#10B981" fill-opacity="0.15" stroke="#10B981" stroke-width="1"/>
  <circle cx="1079" cy="88" r="5" fill="#10B981"/>
  <text x="1090" y="92" fill="#10B981" font-size="11" font-weight="600">NFC Reader: ON</text>

  <rect x="1210" y="72" width="138" height="32" rx="8" fill="#F59E0B"/>
  <text x="1279" y="92" fill="#0F1117" font-size="12" font-weight="700" text-anchor="middle">+ Manual Check-In</text>

  <!-- ═══════════════════════════════════════════════════════ -->
  <!-- THREE-COLUMN LAYOUT y=128                               -->
  <!-- Left: 380px | Center: 500px | Right: 486px             -->
  <!-- Gutters: 12px each side, 12px between cols             -->
  <!-- ═══════════════════════════════════════════════════════ -->

  <!-- ─────────────────────────────────────────────────────── -->
  <!-- LEFT COLUMN x=12  w=380                                 -->
  <!-- ─────────────────────────────────────────────────────── -->
  <rect x="12" y="128" width="380" height="884" rx="10" fill="#1A1D2E" stroke="#2D3148" stroke-width="1"/>

  <!-- Panel header -->
  <rect x="12" y="128" width="380" height="48" rx="10" fill="#0F1117" stroke="#2D3148" stroke-width="1"/>
  <rect x="12" y="158" width="380" height="18" fill="#0F1117"/>
  <text x="202" y="158" fill="#F1F5F9" font-size="14" font-weight="700" text-anchor="middle">&#x1F3E0;  Host Stand — Guest Check-In</text>

  <!-- QR code section -->
  <rect x="32" y="186" width="340" height="240" rx="10" fill="#0F1117" stroke="#2D3148" stroke-width="1"/>
  <!-- QR decorative border corners -->
  <rect x="96" y="200" width="208" height="208" rx="4" fill="#1A1D2E" stroke="#2D3148" stroke-width="1"/>
  <!-- QR code pattern (decorative grid) -->
  <!-- finder pattern top-left -->
  <rect x="108" y="212" width="42" height="42" rx="2" fill="#2D3148"/>
  <rect x="114" y="218" width="30" height="30" rx="1" fill="#0F1117"/>
  <rect x="120" y="224" width="18" height="18" rx="1" fill="#2D3148"/>
  <!-- finder pattern top-right -->
  <rect x="250" y="212" width="42" height="42" rx="2" fill="#2D3148"/>
  <rect x="256" y="218" width="30" height="30" rx="1" fill="#0F1117"/>
  <rect x="262" y="224" width="18" height="18" rx="1" fill="#2D3148"/>
  <!-- finder pattern bottom-left -->
  <rect x="108" y="354" width="42" height="42" rx="2" fill="#2D3148"/>
  <rect x="114" y="360" width="30" height="30" rx="1" fill="#0F1117"/>
  <rect x="120" y="366" width="18" height="18" rx="1" fill="#2D3148"/>
  <!-- QR data dots scattered -->
  <rect x="162" y="212" width="6" height="6" fill="#2D3148"/>
  <rect x="174" y="212" width="6" height="6" fill="#2D3148"/>
  <rect x="186" y="212" width="6" height="6" fill="#2D3148"/>
  <rect x="198" y="212" width="6" height="6" fill="#2D3148"/>
  <rect x="210" y="212" width="6" height="6" fill="#2D3148"/>
  <rect x="222" y="212" width="6" height="6" fill="#2D3148"/>
  <rect x="234" y="212" width="6" height="6" fill="#2D3148"/>
  <rect x="162" y="224" width="6" height="6" fill="#2D3148"/>
  <rect x="186" y="224" width="6" height="6" fill="#2D3148"/>
  <rect x="210" y="224" width="6" height="6" fill="#2D3148"/>
  <rect x="234" y="224" width="6" height="6" fill="#2D3148"/>
  <rect x="162" y="236" width="6" height="6" fill="#2D3148"/>
  <rect x="174" y="236" width="6" height="6" fill="#2D3148"/>
  <rect x="198" y="236" width="6" height="6" fill="#2D3148"/>
  <rect x="222" y="236" width="6" height="6" fill="#2D3148"/>
  <rect x="162" y="248" width="6" height="6" fill="#2D3148"/>
  <rect x="186" y="248" width="6" height="6" fill="#2D3148"/>
  <rect x="210" y="248" width="6" height="6" fill="#2D3148"/>
  <rect x="234" y="248" width="6" height="6" fill="#2D3148"/>
  <rect x="162" y="260" width="6" height="6" fill="#2D3148"/>
  <rect x="174" y="260" width="6" height="6" fill="#2D3148"/>
  <rect x="186" y="260" width="6" height="6" fill="#2D3148"/>
  <rect x="210" y="260" width="6" height="6" fill="#2D3148"/>
  <rect x="162" y="272" width="6" height="6" fill="#2D3148"/>
  <rect x="198" y="272" width="6" height="6" fill="#2D3148"/>
  <rect x="222" y="272" width="6" height="6" fill="#2D3148"/>
  <rect x="234" y="272" width="6" height="6" fill="#2D3148"/>
  <rect x="162" y="284" width="6" height="6" fill="#2D3148"/>
  <rect x="174" y="284" width="6" height="6" fill="#2D3148"/>
  <rect x="186" y="284" width="6" height="6" fill="#2D3148"/>
  <rect x="198" y="284" width="6" height="6" fill="#2D3148"/>
  <rect x="222" y="284" width="6" height="6" fill="#2D3148"/>
  <rect x="162" y="296" width="6" height="6" fill="#2D3148"/>
  <rect x="186" y="296" width="6" height="6" fill="#2D3148"/>
  <rect x="210" y="296" width="6" height="6" fill="#2D3148"/>
  <rect x="234" y="296" width="6" height="6" fill="#2D3148"/>
  <!-- extra scattered -->
  <rect x="162" y="308" width="6" height="6" fill="#2D3148"/>
  <rect x="174" y="308" width="6" height="6" fill="#2D3148"/>
  <rect x="198" y="308" width="6" height="6" fill="#2D3148"/>
  <rect x="222" y="308" width="6" height="6" fill="#2D3148"/>
  <rect x="162" y="320" width="6" height="6" fill="#2D3148"/>
  <rect x="186" y="320" width="6" height="6" fill="#2D3148"/>
  <rect x="210" y="320" width="6" height="6" fill="#2D3148"/>
  <rect x="234" y="320" width="6" height="6" fill="#2D3148"/>
  <rect x="162" y="332" width="6" height="6" fill="#2D3148"/>
  <rect x="174" y="332" width="6" height="6" fill="#2D3148"/>
  <rect x="186" y="332" width="6" height="6" fill="#2D3148"/>
  <rect x="198" y="332" width="6" height="6" fill="#2D3148"/>
  <rect x="222" y="332" width="6" height="6" fill="#2D3148"/>
  <rect x="234" y="332" width="6" height="6" fill="#2D3148"/>
  <rect x="162" y="344" width="6" height="6" fill="#2D3148"/>
  <rect x="186" y="344" width="6" height="6" fill="#2D3148"/>
  <rect x="210" y="344" width="6" height="6" fill="#2D3148"/>
  <!-- right-bottom scattered -->
  <rect x="250" y="260" width="6" height="6" fill="#2D3148"/>
  <rect x="262" y="260" width="6" height="6" fill="#2D3148"/>
  <rect x="274" y="260" width="6" height="6" fill="#2D3148"/>
  <rect x="286" y="260" width="6" height="6" fill="#2D3148"/>
  <rect x="250" y="272" width="6" height="6" fill="#2D3148"/>
  <rect x="274" y="272" width="6" height="6" fill="#2D3148"/>
  <rect x="250" y="284" width="6" height="6" fill="#2D3148"/>
  <rect x="262" y="284" width="6" height="6" fill="#2D3148"/>
  <rect x="286" y="284" width="6" height="6" fill="#2D3148"/>
  <rect x="250" y="296" width="6" height="6" fill="#2D3148"/>
  <rect x="274" y="296" width="6" height="6" fill="#2D3148"/>
  <rect x="250" y="308" width="6" height="6" fill="#2D3148"/>
  <rect x="262" y="308" width="6" height="6" fill="#2D3148"/>
  <rect x="286" y="308" width="6" height="6" fill="#2D3148"/>
  <rect x="250" y="320" width="6" height="6" fill="#2D3148"/>
  <rect x="274" y="320" width="6" height="6" fill="#2D3148"/>
  <rect x="286" y="320" width="6" height="6" fill="#2D3148"/>
  <rect x="250" y="332" width="6" height="6" fill="#2D3148"/>
  <rect x="262" y="332" width="6" height="6" fill="#2D3148"/>
  <rect x="250" y="344" width="6" height="6" fill="#2D3148"/>
  <rect x="274" y="344" width="6" height="6" fill="#2D3148"/>
  <rect x="286" y="344" width="6" height="6" fill="#2D3148"/>
  <!-- QR label -->
  <text x="202" y="409" fill="#94A3B8" font-size="11" text-anchor="middle">Scan your loyalty QR or Apple Wallet pass</text>

  <!-- OR divider -->
  <line x1="32" y1="442" x2="172" y2="442" stroke="#2D3148" stroke-width="1"/>
  <rect x="176" y="430" width="50" height="24" rx="12" fill="#1A1D2E" stroke="#2D3148" stroke-width="1"/>
  <text x="201" y="446" fill="#64748B" font-size="12" font-weight="600" text-anchor="middle">OR</text>
  <line x1="230" y1="442" x2="370" y2="442" stroke="#2D3148" stroke-width="1"/>

  <!-- Phone number lookup -->
  <text x="32" y="474" fill="#94A3B8" font-size="11" font-weight="600" letter-spacing="0.4">PHONE NUMBER LOOKUP</text>
  <rect x="32" y="482" width="248" height="40" rx="8" fill="#0F1117" stroke="#2D3148" stroke-width="1"/>
  <text x="46" y="507" fill="#64748B" font-size="13">Enter phone number</text>
  <rect x="290" y="482" width="100" height="40" rx="8" fill="#F59E0B"/>
  <text x="340" y="507" fill="#0F1117" font-size="13" font-weight="700" text-anchor="middle">Search</text>

  <!-- Recent check-ins header -->
  <text x="32" y="546" fill="#94A3B8" font-size="11" font-weight="600" letter-spacing="0.4">RECENT CHECK-INS — TODAY</text>

  <!-- Check-in row 1: Maria G. (active/highlighted) -->
  <rect x="24" y="554" width="356" height="52" rx="8" fill="#F59E0B" fill-opacity="0.12" stroke="#F59E0B" stroke-width="1"/>
  <circle cx="46" cy="580" r="12" fill="#F59E0B"/>
  <text x="46" y="585" fill="#0F1117" font-size="11" font-weight="700" text-anchor="middle">M</text>
  <text x="66" y="572" fill="#F1F5F9" font-size="12" font-weight="600">Maria G.</text>
  <text x="66" y="587" fill="#94A3B8" font-size="10">Table 6 · 2 guests</text>
  <rect x="200" y="564" width="56" height="18" rx="9" fill="#F59E0B" fill-opacity="0.2" stroke="#F59E0B" stroke-width="1"/>
  <text x="228" y="577" fill="#F59E0B" font-size="10" font-weight="600" text-anchor="middle">Gold &#x2B50;</text>
  <text x="340" y="572" fill="#64748B" font-size="10" text-anchor="middle">12:04pm</text>
  <circle cx="362" cy="580" r="6" fill="#10B981"/>
  <text x="362" y="584" fill="#ffffff" font-size="8" font-weight="700" text-anchor="middle">✓</text>

  <!-- Check-in row 2: Carlos R. -->
  <rect x="24" y="612" width="356" height="52" rx="8" fill="#0F1117" stroke="#2D3148" stroke-width="1"/>
  <circle cx="46" cy="638" r="12" fill="#64748B"/>
  <text x="46" y="643" fill="#F1F5F9" font-size="11" font-weight="700" text-anchor="middle">C</text>
  <text x="66" y="630" fill="#F1F5F9" font-size="12" font-weight="600">Carlos R.</text>
  <text x="66" y="645" fill="#94A3B8" font-size="10">Table 3 · 4 guests</text>
  <rect x="200" y="622" width="52" height="18" rx="9" fill="#94A3B8" fill-opacity="0.15" stroke="#94A3B8" stroke-width="1"/>
  <text x="226" y="635" fill="#94A3B8" font-size="10" font-weight="600" text-anchor="middle">Silver</text>
  <text x="340" y="630" fill="#64748B" font-size="10" text-anchor="middle">12:01pm</text>
  <circle cx="362" cy="638" r="6" fill="#10B981"/>
  <text x="362" y="642" fill="#ffffff" font-size="8" font-weight="700" text-anchor="middle">✓</text>

  <!-- Check-in row 3: Chen L. -->
  <rect x="24" y="670" width="356" height="52" rx="8" fill="#0F1117" stroke="#2D3148" stroke-width="1"/>
  <circle cx="46" cy="696" r="12" fill="#8B5CF6" fill-opacity="0.6"/>
  <text x="46" y="701" fill="#F1F5F9" font-size="11" font-weight="700" text-anchor="middle">C</text>
  <text x="66" y="688" fill="#F1F5F9" font-size="12" font-weight="600">Chen L.</text>
  <text x="66" y="703" fill="#94A3B8" font-size="10">Takeout · 1 guest</text>
  <rect x="200" y="680" width="56" height="18" rx="9" fill="#8B5CF6" fill-opacity="0.15" stroke="#8B5CF6" stroke-width="1"/>
  <text x="228" y="693" fill="#8B5CF6" font-size="10" font-weight="600" text-anchor="middle">Bronze</text>
  <text x="340" y="688" fill="#64748B" font-size="10" text-anchor="middle">11:54am</text>
  <circle cx="362" cy="696" r="6" fill="#10B981"/>
  <text x="362" y="700" fill="#ffffff" font-size="8" font-weight="700" text-anchor="middle">✓</text>

  <!-- Check-in row 4: Walk-in -->
  <rect x="24" y="728" width="356" height="52" rx="8" fill="#0F1117" stroke="#2D3148" stroke-width="1"/>
  <circle cx="46" cy="754" r="12" fill="#2D3148"/>
  <text x="46" y="759" fill="#64748B" font-size="11" font-weight="700" text-anchor="middle">?</text>
  <text x="66" y="746" fill="#94A3B8" font-size="12" font-weight="600">(Walk-in)</text>
  <text x="66" y="761" fill="#64748B" font-size="10">Table 9 · 3 guests</text>
  <rect x="200" y="738" width="68" height="18" rx="9" fill="#64748B" fill-opacity="0.12" stroke="#64748B" stroke-width="1"/>
  <text x="234" y="751" fill="#64748B" font-size="10" font-weight="600" text-anchor="middle">No loyalty</text>
  <text x="340" y="746" fill="#64748B" font-size="10" text-anchor="middle">11:48am</text>
  <circle cx="362" cy="754" r="6" fill="#64748B"/>
  <text x="362" y="758" fill="#F1F5F9" font-size="8" font-weight="700" text-anchor="middle">–</text>

  <!-- Check-in row 5: Sarah K. -->
  <rect x="24" y="786" width="356" height="52" rx="8" fill="#0F1117" stroke="#2D3148" stroke-width="1"/>
  <circle cx="46" cy="812" r="12" fill="#F59E0B"/>
  <text x="46" y="817" fill="#0F1117" font-size="11" font-weight="700" text-anchor="middle">S</text>
  <text x="66" y="804" fill="#F1F5F9" font-size="12" font-weight="600">Sarah K.</text>
  <text x="66" y="819" fill="#94A3B8" font-size="10">Table 12 · 2 guests</text>
  <rect x="200" y="796" width="56" height="18" rx="9" fill="#F59E0B" fill-opacity="0.2" stroke="#F59E0B" stroke-width="1"/>
  <text x="228" y="809" fill="#F59E0B" font-size="10" font-weight="600" text-anchor="middle">Gold &#x2B50;</text>
  <text x="340" y="804" fill="#64748B" font-size="10" text-anchor="middle">11:32am</text>
  <circle cx="362" cy="812" r="6" fill="#10B981"/>
  <text x="362" y="816" fill="#ffffff" font-size="8" font-weight="700" text-anchor="middle">✓</text>

  <!-- View all link -->
  <text x="202" y="862" fill="#F59E0B" font-size="12" text-anchor="middle" text-decoration="underline">View all today's check-ins (34)</text>

  <!-- ─────────────────────────────────────────────────────── -->
  <!-- CENTER COLUMN x=404  w=500                              -->
  <!-- ─────────────────────────────────────────────────────── -->
  <!-- Outer card with amber border (VIP Gold) -->
  <rect x="404" y="128" width="500" height="884" rx="10" fill="#1A1D2E" stroke="#F59E0B" stroke-width="2"/>

  <!-- Gold VIP badge top-right corner -->
  <rect x="820" y="128" width="84" height="28" rx="0" fill="#F59E0B"/>
  <rect x="820" y="128" width="84" height="28" rx="10" fill="#F59E0B"/>
  <rect x="820" y="140" width="84" height="16" fill="#F59E0B"/>
  <text x="862" y="147" fill="#0F1117" font-size="11" font-weight="800" text-anchor="middle">VIP GOLD &#x2B50;</text>

  <!-- Profile header -->
  <rect x="404" y="128" width="500" height="80" rx="10" fill="#F59E0B" fill-opacity="0.08"/>
  <rect x="404" y="188" width="500" height="20" fill="#F59E0B" fill-opacity="0.08"/>

  <!-- Avatar -->
  <circle cx="450" cy="175" r="30" fill="#F59E0B" fill-opacity="0.2" stroke="#F59E0B" stroke-width="2"/>
  <text x="450" y="182" fill="#F59E0B" font-size="22" font-weight="700" text-anchor="middle">M</text>

  <!-- Welcome + name -->
  <text x="494" y="162" fill="#F1F5F9" font-size="20" font-weight="700">Welcome back, Maria! &#x1F44B;</text>
  <text x="494" y="182" fill="#94A3B8" font-size="12">Member since March 2024 · dcostenco profile</text>

  <!-- Tier + points row -->
  <rect x="420" y="212" width="468" height="58" rx="9" fill="#0F1117" stroke="#2D3148" stroke-width="1"/>
  <!-- Tier badge -->
  <rect x="432" y="224" width="80" height="34" rx="6" fill="#F59E0B" fill-opacity="0.15" stroke="#F59E0B" stroke-width="1.5"/>
  <text x="472" y="237" fill="#F59E0B" font-size="10" font-weight="700" text-anchor="middle">TIER</text>
  <text x="472" y="252" fill="#F59E0B" font-size="13" font-weight="800" text-anchor="middle">GOLD &#x2B50;</text>
  <!-- Points -->
  <text x="528" y="232" fill="#64748B" font-size="10" font-weight="600">POINTS BALANCE</text>
  <text x="528" y="250" fill="#F1F5F9" font-size="22" font-weight="700">310 <tspan font-size="13" fill="#94A3B8">pts</tspan></text>
  <!-- Multiplier -->
  <rect x="672" y="224" width="76" height="34" rx="6" fill="#8B5CF6" fill-opacity="0.15" stroke="#8B5CF6" stroke-width="1"/>
  <text x="710" y="237" fill="#8B5CF6" font-size="10" font-weight="700" text-anchor="middle">MULTIPLIER</text>
  <text x="710" y="252" fill="#8B5CF6" font-size="15" font-weight="800" text-anchor="middle">3&#xD7;</text>
  <!-- Redeemable -->
  <text x="762" y="232" fill="#64748B" font-size="10" font-weight="600">REDEEMABLE</text>
  <text x="762" y="250" fill="#10B981" font-size="14" font-weight="700">$3.10 off</text>

  <!-- Stats row -->
  <rect x="420" y="278" width="148" height="54" rx="8" fill="#0F1117" stroke="#2D3148" stroke-width="1"/>
  <text x="432" y="295" fill="#64748B" font-size="9.5" font-weight="600" letter-spacing="0.3">TOTAL VISITS</text>
  <text x="432" y="320" fill="#F1F5F9" font-size="22" font-weight="700">47</text>

  <rect x="576" y="278" width="148" height="54" rx="8" fill="#0F1117" stroke="#2D3148" stroke-width="1"/>
  <text x="588" y="295" fill="#64748B" font-size="9.5" font-weight="600" letter-spacing="0.3">LIFETIME SPEND</text>
  <text x="588" y="320" fill="#F1F5F9" font-size="20" font-weight="700">$2,840</text>

  <rect x="732" y="278" width="156" height="54" rx="8" fill="#0F1117" stroke="#2D3148" stroke-width="1"/>
  <text x="744" y="295" fill="#64748B" font-size="9.5" font-weight="600" letter-spacing="0.3">BIRTHDAY</text>
  <text x="744" y="312" fill="#F1F5F9" font-size="13" font-weight="600">June 15</text>
  <text x="744" y="328" fill="#F97316" font-size="10">&#x1F382; Coming up!</text>

  <!-- Birthday bonus banner -->
  <rect x="420" y="340" width="468" height="32" rx="6" fill="#F97316" fill-opacity="0.12" stroke="#F97316" stroke-width="1"/>
  <text x="654" y="360" fill="#F97316" font-size="11" font-weight="600" text-anchor="middle">&#x1F382;  Birthday coming up! Mention for bonus points</text>

  <!-- Favorite items -->
  <text x="432" y="396" fill="#94A3B8" font-size="11" font-weight="600" letter-spacing="0.4">FAVORITE ITEMS</text>
  <rect x="420" y="402" width="468" height="36" rx="7" fill="#0F1117" stroke="#2D3148" stroke-width="1"/>
  <text x="432" y="422" fill="#94A3B8" font-size="12">&#x1F354; Classic Burger</text>
  <text x="580" y="422" fill="#64748B" font-size="12">·</text>
  <text x="592" y="422" fill="#94A3B8" font-size="12">&#x1F377; House Red Wine</text>
  <text x="764" y="422" fill="#64748B" font-size="12">·</text>
  <text x="776" y="422" fill="#94A3B8" font-size="12">&#x1F36B; Choc. Lava Cake</text>

  <!-- Notes -->
  <text x="432" y="458" fill="#94A3B8" font-size="11" font-weight="600" letter-spacing="0.4">HOST NOTES</text>
  <rect x="420" y="464" width="468" height="60" rx="7" fill="#0F1117" stroke="#2D3148" stroke-width="1"/>
  <text x="432" y="482" fill="#F1F5F9" font-size="12">Prefers booth seating.</text>
  <rect x="430" y="490" width="106" height="19" rx="4" fill="#EF4444" fill-opacity="0.15" stroke="#EF4444" stroke-width="1"/>
  <text x="436" y="504" fill="#EF4444" font-size="11" font-weight="600">&#x26A0; Dairy allergy (self-reported)</text>
  <text x="550" y="504" fill="#F1F5F9" font-size="12">  Usually orders for 2.</text>

  <!-- Last visit -->
  <text x="432" y="546" fill="#94A3B8" font-size="11" font-weight="600" letter-spacing="0.4">LAST VISIT</text>
  <rect x="420" y="552" width="468" height="40" rx="7" fill="#0F1117" stroke="#2D3148" stroke-width="1"/>
  <text x="432" y="570" fill="#64748B" font-size="11">Date</text>
  <text x="432" y="584" fill="#F1F5F9" font-size="12" font-weight="600">May 20, 2026</text>
  <text x="550" y="570" fill="#64748B" font-size="11">Table</text>
  <text x="550" y="584" fill="#F1F5F9" font-size="12" font-weight="600">Table 8</text>
  <text x="640" y="570" fill="#64748B" font-size="11">Check</text>
  <text x="640" y="584" fill="#F1F5F9" font-size="12" font-weight="600">$84.40</text>
  <text x="740" y="570" fill="#64748B" font-size="11">Server</text>
  <text x="740" y="584" fill="#F1F5F9" font-size="12" font-weight="600">John D.</text>

  <!-- Active offers -->
  <text x="432" y="614" fill="#94A3B8" font-size="11" font-weight="600" letter-spacing="0.4">ACTIVE OFFERS</text>
  <rect x="420" y="620" width="468" height="44" rx="7" fill="#0F1117" stroke="#2D3148" stroke-width="1"/>
  <rect x="432" y="630" width="220" height="24" rx="12" fill="#F59E0B" fill-opacity="0.18" stroke="#F59E0B" stroke-width="1"/>
  <text x="434" y="641" fill="#F59E0B" font-size="10">&#x1F3F7;</text>
  <text x="452" y="646" fill="#F59E0B" font-size="11" font-weight="600">15% off desserts</text>
  <text x="572" y="646" fill="#64748B" font-size="10"> — expires May 31</text>
  <rect x="666" y="630" width="186" height="24" rx="12" fill="#8B5CF6" fill-opacity="0.15" stroke="#8B5CF6" stroke-width="1"/>
  <text x="668" y="641" fill="#8B5CF6" font-size="10">&#x2728;</text>
  <text x="686" y="646" fill="#8B5CF6" font-size="11" font-weight="600">Birthday bonus — June</text>

  <!-- Assign table + confirm -->
  <text x="432" y="686" fill="#94A3B8" font-size="11" font-weight="600" letter-spacing="0.4">ASSIGN TABLE</text>
  <rect x="420" y="692" width="220" height="42" rx="8" fill="#0F1117" stroke="#2D3148" stroke-width="1"/>
  <text x="436" y="718" fill="#F1F5F9" font-size="13">Table 6</text>
  <!-- dropdown chevron -->
  <text x="614" y="718" fill="#64748B" font-size="12">&#x25BE;</text>
  <!-- Guest count -->
  <rect x="652" y="692" width="100" height="42" rx="8" fill="#0F1117" stroke="#2D3148" stroke-width="1"/>
  <text x="664" y="706" fill="#64748B" font-size="9.5" font-weight="600">GUESTS</text>
  <text x="664" y="724" fill="#F1F5F9" font-size="15" font-weight="700">2</text>
  <rect x="692" y="700" width="26" height="14" rx="7" fill="#2D3148"/>
  <text x="705" y="711" fill="#94A3B8" font-size="10" text-anchor="middle">+</text>

  <!-- Confirm check-in button -->
  <rect x="420" y="744" width="468" height="52" rx="10" fill="#F59E0B"/>
  <text x="654" y="776" fill="#0F1117" font-size="16" font-weight="800" text-anchor="middle">&#x2713;  Confirm Check-In — Maria G. · Table 6</text>

  <!-- Redeem points row -->
  <rect x="420" y="806" width="226" height="40" rx="8" fill="#10B981" fill-opacity="0.12" stroke="#10B981" stroke-width="1"/>
  <text x="446" y="826" fill="#10B981" font-size="12" font-weight="600">Apply 310 pts → $3.10 off</text>
  <rect x="660" y="806" width="228" height="40" rx="8" fill="#0F1117" stroke="#2D3148" stroke-width="1"/>
  <text x="774" y="826" fill="#94A3B8" font-size="12" text-anchor="middle">No redemption this visit</text>

  <!-- Send SMS -->
  <text x="654" y="876" fill="#64748B" font-size="11" text-anchor="middle">Send welcome SMS · Print guest slip · Flag allergy for kitchen</text>

  <!-- ─────────────────────────────────────────────────────── -->
  <!-- RIGHT COLUMN x=916  w=438                               -->
  <!-- ─────────────────────────────────────────────────────── -->
  <rect x="916" y="128" width="438" height="884" rx="10" fill="#1A1D2E" stroke="#2D3148" stroke-width="1"/>

  <!-- Header -->
  <rect x="916" y="128" width="438" height="48" rx="10" fill="#0F1117" stroke="#2D3148" stroke-width="1"/>
  <rect x="916" y="158" width="438" height="18" fill="#0F1117"/>
  <text x="1135" y="157" fill="#F1F5F9" font-size="14" font-weight="700" text-anchor="middle">&#x1F4F1;  Loyalty Wallet Pass</text>

  <!-- Apple Wallet pass card -->
  <rect x="932" y="178" width="404" height="220" rx="14" fill="#ffffff"/>
  <!-- Pass header bar (restaurant brand color) -->
  <rect x="932" y="178" width="404" height="52" rx="14" fill="#1A1D2E"/>
  <rect x="932" y="210" width="404" height="20" fill="#1A1D2E"/>
  <!-- Apple Wallet logo area -->
  <rect x="948" y="186" width="32" height="32" rx="6" fill="#F59E0B" fill-opacity="0.9"/>
  <text x="964" y="207" fill="#0F1117" font-size="13" font-weight="800" text-anchor="middle">B</text>
  <text x="990" y="196" fill="#ffffff" font-size="11" font-weight="700">Burger Co. Loyalty</text>
  <text x="990" y="211" fill="#94A3B8" font-size="10">Apple Wallet</text>
  <!-- Apple Wallet wordmark -->
  <text x="1292" y="202" fill="#94A3B8" font-size="9" text-anchor="middle">&#x1F34E; Apple Wallet</text>

  <!-- Pass body -->
  <text x="948" y="252" fill="#1A1D2E" font-size="16" font-weight="800">Maria G.</text>
  <text x="948" y="270" fill="#64748B" font-size="12">Gold Member — 310 pts</text>

  <!-- Tier badge on pass -->
  <rect x="1200" y="238" width="64" height="26" rx="13" fill="#F59E0B"/>
  <text x="1232" y="256" fill="#0F1117" font-size="11" font-weight="800" text-anchor="middle">GOLD &#x2B50;</text>

  <!-- Pass QR code (small) -->
  <rect x="1102" y="280" width="72" height="72" rx="4" fill="#ffffff" stroke="#e5e7eb" stroke-width="1"/>
  <!-- mini finder pattern top-left -->
  <rect x="1108" y="286" width="18" height="18" rx="1" fill="#1A1D2E"/>
  <rect x="1111" y="289" width="12" height="12" rx="1" fill="#ffffff"/>
  <rect x="1113" y="291" width="8" height="8" rx="1" fill="#1A1D2E"/>
  <!-- mini finder top-right -->
  <rect x="1150" y="286" width="18" height="18" rx="1" fill="#1A1D2E"/>
  <rect x="1153" y="289" width="12" height="12" rx="1" fill="#ffffff"/>
  <rect x="1155" y="291" width="8" height="8" rx="1" fill="#1A1D2E"/>
  <!-- mini finder bottom-left -->
  <rect x="1108" y="328" width="18" height="18" rx="1" fill="#1A1D2E"/>
  <rect x="1111" y="331" width="12" height="12" rx="1" fill="#ffffff"/>
  <rect x="1113" y="333" width="8" height="8" rx="1" fill="#1A1D2E"/>
  <!-- mini data dots -->
  <rect x="1132" y="286" width="4" height="4" fill="#1A1D2E"/>
  <rect x="1140" y="286" width="4" height="4" fill="#1A1D2E"/>
  <rect x="1132" y="294" width="4" height="4" fill="#1A1D2E"/>
  <rect x="1144" y="294" width="4" height="4" fill="#1A1D2E"/>
  <rect x="1136" y="302" width="4" height="4" fill="#1A1D2E"/>
  <rect x="1144" y="302" width="4" height="4" fill="#1A1D2E"/>
  <rect x="1132" y="310" width="4" height="4" fill="#1A1D2E"/>
  <rect x="1140" y="318" width="4" height="4" fill="#1A1D2E"/>
  <rect x="1132" y="326" width="4" height="4" fill="#1A1D2E"/>
  <rect x="1132" y="334" width="4" height="4" fill="#1A1D2E"/>
  <rect x="1140" y="334" width="4" height="4" fill="#1A1D2E"/>
  <!-- Barcode strip on pass -->
  <rect x="948" y="284" width="148" height="66" rx="3" fill="#f9fafb"/>
  <text x="1022" y="302" fill="#64748B" font-size="9" text-anchor="middle">15% OFF DESSERTS</text>
  <text x="1022" y="318" fill="#1A1D2E" font-size="11" font-weight="700" text-anchor="middle">Expires May 31, 2026</text>
  <text x="1022" y="334" fill="#F59E0B" font-size="10" text-anchor="middle">Tap or scan at host stand</text>
  <text x="1022" y="348" fill="#64748B" font-size="9" text-anchor="middle">Pass auto-updates</text>

  <!-- Apple Wallet label -->
  <text x="1135" y="412" fill="#64748B" font-size="10" text-anchor="middle">&#x1F34E; Apple Wallet Pass Preview</text>

  <!-- Google Wallet pass card -->
  <rect x="932" y="422" width="404" height="150" rx="14" fill="#202124"/>
  <rect x="932" y="422" width="404" height="50" rx="14" fill="#1558D6"/>
  <rect x="932" y="452" width="404" height="20" fill="#1558D6"/>
  <!-- Google G mark -->
  <circle cx="960" cy="448" r="14" fill="#ffffff"/>
  <text x="960" y="453" fill="#1558D6" font-size="12" font-weight="800" text-anchor="middle">G</text>
  <text x="984" y="440" fill="#ffffff" font-size="11" font-weight="700">Burger Co. Loyalty</text>
  <text x="984" y="456" fill="#93C5FD" font-size="10">Google Wallet</text>
  <text x="948" y="492" fill="#ffffff" font-size="15" font-weight="700">Maria G. — Gold</text>
  <text x="948" y="510" fill="#9CA3AF" font-size="11">310 pts  ·  $3.10 redeemable  ·  3× multiplier</text>
  <!-- mini QR on google pass -->
  <rect x="1240" y="476" width="56" height="56" rx="4" fill="#ffffff"/>
  <rect x="1248" y="484" width="14" height="14" rx="1" fill="#202124"/>
  <rect x="1251" y="487" width="8" height="8" rx="1" fill="#ffffff"/>
  <rect x="1253" y="489" width="4" height="4" fill="#202124"/>
  <rect x="1268" y="484" width="14" height="14" rx="1" fill="#202124"/>
  <rect x="1271" y="487" width="8" height="8" rx="1" fill="#ffffff"/>
  <rect x="1273" y="489" width="4" height="4" fill="#202124"/>
  <rect x="1248" y="504" width="14" height="14" rx="1" fill="#202124"/>
  <rect x="1251" y="507" width="8" height="8" rx="1" fill="#ffffff"/>
  <rect x="1253" y="509" width="4" height="4" fill="#202124"/>
  <rect x="1264" y="500" width="4" height="4" fill="#202124"/>
  <rect x="1272" y="500" width="4" height="4" fill="#202124"/>
  <rect x="1264" y="508" width="4" height="4" fill="#202124"/>
  <rect x="1264" y="516" width="4" height="4" fill="#202124"/>
  <rect x="1272" y="516" width="4" height="4" fill="#202124"/>
  <text x="1135" y="584" fill="#64748B" font-size="10" text-anchor="middle">&#x1F4B3; Google Wallet Pass Preview</text>

  <!-- How guests get their pass -->
  <text x="932" y="608" fill="#94A3B8" font-size="11" font-weight="600" letter-spacing="0.4">HOW GUESTS GET THEIR PASS</text>
  <rect x="932" y="614" width="404" height="148" rx="8" fill="#0F1117" stroke="#2D3148" stroke-width="1"/>

  <!-- Step 1 -->
  <circle cx="956" cy="638" r="11" fill="#F59E0B" fill-opacity="0.2" stroke="#F59E0B" stroke-width="1.5"/>
  <text x="956" y="643" fill="#F59E0B" font-size="11" font-weight="700" text-anchor="middle">1</text>
  <text x="974" y="634" fill="#F1F5F9" font-size="12" font-weight="600">Sign up at loyalty kiosk / online / QR</text>
  <text x="974" y="648" fill="#64748B" font-size="11">60-second enrollment at host stand or web</text>

  <!-- Step 2 -->
  <circle cx="956" cy="672" r="11" fill="#F59E0B" fill-opacity="0.2" stroke="#F59E0B" stroke-width="1.5"/>
  <text x="956" y="677" fill="#F59E0B" font-size="11" font-weight="700" text-anchor="middle">2</text>
  <text x="974" y="668" fill="#F1F5F9" font-size="12" font-weight="600">SMS / email with wallet pass link sent instantly</text>
  <text x="974" y="682" fill="#64748B" font-size="11">Personalized pkpass / Google Pay URL</text>

  <!-- Step 3 -->
  <circle cx="956" cy="706" r="11" fill="#F59E0B" fill-opacity="0.2" stroke="#F59E0B" stroke-width="1.5"/>
  <text x="956" y="711" fill="#F59E0B" font-size="11" font-weight="700" text-anchor="middle">3</text>
  <text x="974" y="702" fill="#F1F5F9" font-size="12" font-weight="600">Guest adds to Apple Wallet / Google Wallet</text>
  <text x="974" y="716" fill="#64748B" font-size="11">One tap — lives on their phone's lock screen</text>

  <!-- Step 4 -->
  <circle cx="956" cy="740" r="11" fill="#F59E0B" fill-opacity="0.2" stroke="#F59E0B" stroke-width="1.5"/>
  <text x="956" y="745" fill="#F59E0B" font-size="11" font-weight="700" text-anchor="middle">4</text>
  <text x="974" y="736" fill="#F1F5F9" font-size="12" font-weight="600">Tap NFC reader OR show QR at host stand</text>
  <text x="974" y="750" fill="#64748B" font-size="11">Sub-second check-in loads full profile</text>

  <!-- Auto-update info -->
  <rect x="932" y="770" width="404" height="42" rx="7" fill="#10B981" fill-opacity="0.08" stroke="#10B981" stroke-width="1"/>
  <text x="1135" y="789" fill="#10B981" font-size="11" font-weight="600" text-anchor="middle">&#x21BB;  Pass auto-updates: points balance, tier, active offers</text>
  <text x="1135" y="805" fill="#64748B" font-size="10.5" text-anchor="middle">No app required — updates push silently to Wallet</text>

  <!-- Toggles -->
  <rect x="932" y="820" width="404" height="50" rx="8" fill="#0F1117" stroke="#2D3148" stroke-width="1"/>
  <!-- NFC toggle -->
  <text x="948" y="841" fill="#F1F5F9" font-size="12" font-weight="600">Enable NFC tap check-in</text>
  <text x="948" y="858" fill="#64748B" font-size="10">Requires NFC reader at host stand</text>
  <!-- Toggle ON -->
  <rect x="1278" y="830" width="44" height="24" rx="12" fill="#10B981"/>
  <circle cx="1310" cy="842" r="10" fill="#ffffff"/>
  <text x="1292" y="867" fill="#10B981" font-size="10" font-weight="600" text-anchor="middle">ON</text>

  <rect x="932" y="878" width="404" height="50" rx="8" fill="#0F1117" stroke="#2D3148" stroke-width="1"/>
  <!-- Push toggle -->
  <text x="948" y="899" fill="#F1F5F9" font-size="12" font-weight="600">Push notification on points event</text>
  <text x="948" y="916" fill="#64748B" font-size="10">Alert guest when points added or tier changes</text>
  <!-- Toggle ON -->
  <rect x="1278" y="888" width="44" height="24" rx="12" fill="#10B981"/>
  <circle cx="1310" cy="900" r="10" fill="#ffffff"/>
  <text x="1292" y="925" fill="#10B981" font-size="10" font-weight="600" text-anchor="middle">ON</text>

  <!-- Bottom status bar -->
  <rect x="0" y="992" width="1366" height="32" fill="#1A1D2E" stroke="#2D3148" stroke-width="1"/>
  <circle cx="20" cy="1008" r="5" fill="#10B981"/>
  <text x="32" y="1012" fill="#10B981" font-size="10" font-weight="600">NFC Reader Online</text>
  <text x="160" y="1012" fill="#64748B" font-size="10">·</text>
  <text x="170" y="1012" fill="#64748B" font-size="10">Last scan: 12:04pm — Maria G.</text>
  <text x="370" y="1012" fill="#64748B" font-size="10">·</text>
  <text x="380" y="1012" fill="#64748B" font-size="10">Wallet pass server: Operational</text>
  <text x="570" y="1012" fill="#64748B" font-size="10">·</text>
  <text x="580" y="1012" fill="#64748B" font-size="10">SMS gateway: Ready</text>
  <text x="1200" y="1012" fill="#64748B" font-size="10">Synalux POS v4.1.2</text>
  <text x="1320" y="1012" fill="#64748B" font-size="10">Loyalty Module</text>

</svg>
