<svg xmlns="http://www.w3.org/2000/svg" viewBox="0 0 1366 1024" font-family="system-ui,-apple-system,sans-serif">

  <!-- ═══════════════════════════════════════════════════════════════ -->
  <!-- BACKGROUND                                                      -->
  <!-- ═══════════════════════════════════════════════════════════════ -->
  <rect width="1366" height="1024" fill="#0F1117"/>

  <!-- ═══════════════════════════════════════════════════════════════ -->
  <!-- TOP NAV BAR (h=56)                                             -->
  <!-- ═══════════════════════════════════════════════════════════════ -->
  <rect x="0" y="0" width="1366" height="56" fill="#1A1D2E"/>
  <rect x="0" y="56" width="1366" height="1" fill="#2D3148"/>

  <!-- Logo -->
  <rect x="16" y="12" width="32" height="32" rx="8" fill="#F59E0B"/>
  <text x="32" y="33" fill="#0F1117" font-size="16" font-weight="800" text-anchor="middle">S</text>
  <text x="56" y="30" fill="#F1F5F9" font-size="15" font-weight="700">Synalux</text>
  <text x="110" y="30" fill="#64748B" font-size="15" font-weight="400">POS</text>

  <!-- Nav tabs -->
  <rect x="200" y="10" width="90" height="36" rx="8" fill="#F59E0B"/>
  <text x="245" y="32" fill="#0F1117" font-size="13" font-weight="700" text-anchor="middle">Register</text>

  <rect x="298" y="10" width="80" height="36" rx="8" fill="none"/>
  <text x="338" y="32" fill="#64748B" font-size="13" font-weight="500" text-anchor="middle">Tables</text>

  <rect x="386" y="10" width="70" height="36" rx="8" fill="none"/>
  <text x="421" y="32" fill="#64748B" font-size="13" font-weight="500" text-anchor="middle">KDS</text>

  <rect x="464" y="10" width="80" height="36" rx="8" fill="none"/>
  <text x="504" y="32" fill="#64748B" font-size="13" font-weight="500" text-anchor="middle">Reports</text>

  <!-- Right side nav -->
  <text x="1100" y="32" fill="#F1F5F9" font-size="13" font-weight="600">Dmitri (Owner)</text>
  <text x="1230" y="32" fill="#94A3B8" font-size="13">7:42 PM</text>

  <!-- WiFi icon (simple text representation) -->
  <text x="1290" y="32" fill="#10B981" font-size="13">WiFi</text>
  <!-- Simple wifi arcs -->
  <path d="M1332,26 Q1341,18 1350,26" fill="none" stroke="#10B981" stroke-width="2" stroke-linecap="round"/>
  <path d="M1335,30 Q1341,24 1347,30" fill="none" stroke="#10B981" stroke-width="2" stroke-linecap="round"/>
  <circle cx="1341" cy="34" r="2" fill="#10B981"/>

  <!-- ═══════════════════════════════════════════════════════════════ -->
  <!-- HEADER STRIP (h=48, amber bg)                                   -->
  <!-- ═══════════════════════════════════════════════════════════════ -->
  <rect x="0" y="57" width="1366" height="48" fill="#F59E0B"/>
  <text x="683" y="75" fill="#0F1117" font-size="13" font-weight="700" text-anchor="middle">💳 Refund — Post-Settlement</text>
  <text x="683" y="94" fill="#78350F" font-size="12" font-weight="600" text-anchor="middle">Order #2406-089 — Table 4 — Closed May 27, 6:14 PM  |  Originally charged: $52.64 on Visa ••••4242</text>

  <!-- ═══════════════════════════════════════════════════════════════ -->
  <!-- THREE COLUMN LAYOUT starts at y=105                             -->
  <!-- ═══════════════════════════════════════════════════════════════ -->

  <!-- Column dividers -->
  <rect x="380" y="105" width="1" height="855" fill="#2D3148"/>
  <rect x="940" y="105" width="1" height="855" fill="#2D3148"/>

  <!-- ═══════════════════════════════════════════════════════════════ -->
  <!-- LEFT COLUMN (x=0, w=380): Order Items for Refund Selection      -->
  <!-- ═══════════════════════════════════════════════════════════════ -->

  <!-- Column header -->
  <text x="16" y="130" fill="#F1F5F9" font-size="15" font-weight="700">Select Items to Refund</text>
  <text x="16" y="148" fill="#94A3B8" font-size="12">Tap items to include in refund</text>

  <!-- ── Item 1: Classic Burger (CHECKED) ── -->
  <rect x="12" y="158" width="356" height="68" rx="8" fill="#1A1D2E" stroke="#F59E0B" stroke-width="1.5"/>
  <!-- Checkbox checked -->
  <rect x="22" y="170" width="18" height="18" rx="4" fill="#F59E0B"/>
  <text x="31" y="183" fill="#0F1117" font-size="12" font-weight="900" text-anchor="middle">✓</text>
  <!-- Item name + price -->
  <text x="48" y="183" fill="#F1F5F9" font-size="13" font-weight="600">Classic Burger</text>
  <text x="360" y="183" fill="#F1F5F9" font-size="13" font-weight="600" text-anchor="end">$18.00</text>
  <!-- Refund amount row -->
  <text x="48" y="200" fill="#94A3B8" font-size="11">Refund amount:</text>
  <rect x="145" y="190" width="70" height="18" rx="4" fill="#0F1117" stroke="#2D3148" stroke-width="1"/>
  <text x="180" y="203" fill="#F59E0B" font-size="12" font-weight="700" text-anchor="middle">$18.00</text>
  <text x="220" y="201" fill="#64748B" font-size="10">(editable)</text>

  <!-- ── Item 2: No Onions modifier (CHECKED) ── -->
  <rect x="12" y="232" width="356" height="40" rx="8" fill="#1A1D2E" stroke="#F59E0B" stroke-width="1.5"/>
  <rect x="22" y="243" width="18" height="18" rx="4" fill="#F59E0B"/>
  <text x="31" y="256" fill="#0F1117" font-size="12" font-weight="900" text-anchor="middle">✓</text>
  <text x="48" y="257" fill="#94A3B8" font-size="12" font-style="italic">  No Onions (modifier)</text>
  <text x="360" y="257" fill="#64748B" font-size="12" text-anchor="end">$0.00</text>

  <!-- ── Item 3: Craft Beer (UNCHECKED) ── -->
  <rect x="12" y="278" width="356" height="40" rx="8" fill="#1A1D2E" stroke="#2D3148" stroke-width="1"/>
  <rect x="22" y="289" width="18" height="18" rx="4" fill="none" stroke="#64748B" stroke-width="1.5"/>
  <text x="48" y="303" fill="#64748B" font-size="12">Craft Beer — Stella</text>
  <text x="360" y="303" fill="#64748B" font-size="12" text-anchor="end">$9.00</text>
  <text x="48" y="316" fill="#4B5563" font-size="10">not selected</text>

  <!-- ── Item 4: Caesar Salad (CHECKED) ── -->
  <rect x="12" y="324" width="356" height="68" rx="8" fill="#1A1D2E" stroke="#F59E0B" stroke-width="1.5"/>
  <rect x="22" y="336" width="18" height="18" rx="4" fill="#F59E0B"/>
  <text x="31" y="349" fill="#0F1117" font-size="12" font-weight="900" text-anchor="middle">✓</text>
  <text x="48" y="349" fill="#F1F5F9" font-size="13" font-weight="600">Caesar Salad</text>
  <text x="360" y="349" fill="#F1F5F9" font-size="13" font-weight="600" text-anchor="end">$14.00</text>
  <text x="48" y="367" fill="#94A3B8" font-size="11">Refund amount:</text>
  <rect x="145" y="357" width="70" height="18" rx="4" fill="#0F1117" stroke="#2D3148" stroke-width="1"/>
  <text x="180" y="370" fill="#F59E0B" font-size="12" font-weight="700" text-anchor="middle">$14.00</text>
  <text x="220" y="368" fill="#64748B" font-size="10">(editable)</text>

  <!-- Divider -->
  <rect x="12" y="400" width="356" height="1" fill="#2D3148"/>

  <!-- ── TIP SECTION ── -->
  <text x="16" y="420" fill="#94A3B8" font-size="12" font-weight="700" letter-spacing="0.5">TIP REFUND</text>
  <text x="16" y="438" fill="#94A3B8" font-size="12">Original tip:</text>
  <text x="370" y="438" fill="#F1F5F9" font-size="12" text-anchor="end">$8.00</text>

  <!-- Tip checkbox row (UNCHECKED) -->
  <rect x="12" y="448" width="356" height="36" rx="8" fill="#1A1D2E" stroke="#2D3148" stroke-width="1"/>
  <rect x="22" y="457" width="18" height="18" rx="4" fill="none" stroke="#64748B" stroke-width="1.5"/>
  <text x="48" y="470" fill="#94A3B8" font-size="12">Include tip refund:</text>
  <text x="310" y="470" fill="#64748B" font-size="12">$8.00</text>
  <text x="48" y="482" fill="#64748B" font-size="10">Manager decision</text>

  <!-- Divider -->
  <rect x="12" y="492" width="356" height="1" fill="#2D3148"/>

  <!-- ── TAX AUTO-CALC ── -->
  <text x="16" y="512" fill="#94A3B8" font-size="12" font-weight="700" letter-spacing="0.5">TAX (AUTO-CALCULATED)</text>
  <text x="16" y="530" fill="#94A3B8" font-size="12">Selected items subtotal:</text>
  <text x="370" y="530" fill="#F1F5F9" font-size="12" text-anchor="end">$32.00</text>
  <text x="16" y="548" fill="#94A3B8" font-size="12">Tax rate (8.875%):</text>
  <text x="370" y="548" fill="#F1F5F9" font-size="12" text-anchor="end">$2.84</text>

  <rect x="12" y="556" width="356" height="1" fill="#2D3148"/>

  <text x="16" y="574" fill="#94A3B8" font-size="12">Total tax to refund:</text>
  <text x="370" y="574" fill="#10B981" font-size="13" font-weight="700" text-anchor="end">$2.84</text>

  <!-- ── PARTIAL REFUND NOTE ── -->
  <rect x="12" y="584" width="356" height="52" rx="8" fill="#1A1D2E" stroke="#F97316" stroke-width="1.5"/>
  <text x="22" y="601" fill="#F97316" font-size="12" font-weight="700">⚠ Partial Refund</text>
  <text x="22" y="617" fill="#94A3B8" font-size="11">Remaining amount ($20.64) stays</text>
  <text x="22" y="631" fill="#94A3B8" font-size="11">captured on original charge.</text>

  <!-- ── VOID vs REFUND INFO BOX ── -->
  <rect x="12" y="644" width="356" height="52" rx="8" fill="#1A1D2E" stroke="#8B5CF6" stroke-width="1.5"/>
  <text x="22" y="661" fill="#8B5CF6" font-size="11" font-weight="700">REFUND (post-settlement)</text>
  <text x="22" y="676" fill="#64748B" font-size="10">Card already charged + settled.</text>
  <text x="22" y="689" fill="#64748B" font-size="10">Stripe refunds.create() called. 3–7 day return.</text>

  <rect x="12" y="704" width="356" height="44" rx="8" fill="#1A1D2E" stroke="#2D3148" stroke-width="1"/>
  <text x="22" y="721" fill="#64748B" font-size="11" font-weight="700">VOID (pre-settlement)</text>
  <text x="22" y="735" fill="#4B5563" font-size="10">Cancels PaymentIntent before capture. Instant.</text>

  <!-- ═══════════════════════════════════════════════════════════════ -->
  <!-- MIDDLE COLUMN (x=380, w=560): Refund Summary + Authorization   -->
  <!-- ═══════════════════════════════════════════════════════════════ -->

  <text x="396" y="130" fill="#F1F5F9" font-size="15" font-weight="700">Refund Summary</text>
  <text x="396" y="148" fill="#94A3B8" font-size="12">Review charges before processing</text>

  <!-- RECEIPT CARD -->
  <rect x="388" y="156" width="540" height="320" rx="12" fill="#1A1D2E" stroke="#2D3148" stroke-width="1"/>

  <!-- Receipt header bar -->
  <rect x="388" y="156" width="540" height="44" rx="12" fill="#252840"/>
  <rect x="388" y="184" width="540" height="16" fill="#252840"/>
  <text x="658" y="183" fill="#F1F5F9" font-size="14" font-weight="700" text-anchor="middle">REFUND — Order #2406-089</text>

  <text x="658" y="218" fill="#94A3B8" font-size="12" text-anchor="middle">Date: May 27, 2026 · 7:42 PM</text>

  <!-- Line items -->
  <rect x="400" y="228" width="516" height="1" fill="#2D3148"/>

  <text x="406" y="248" fill="#F1F5F9" font-size="13">Refunding: Classic Burger × 1</text>
  <text x="920" y="248" fill="#F1F5F9" font-size="13" text-anchor="end">$18.00</text>

  <text x="406" y="268" fill="#F1F5F9" font-size="13">Refunding: Caesar Salad × 1</text>
  <text x="920" y="268" fill="#F1F5F9" font-size="13" text-anchor="end">$14.00</text>

  <rect x="400" y="278" width="516" height="1" fill="#2D3148"/>

  <text x="406" y="296" fill="#94A3B8" font-size="13">Subtotal refund</text>
  <text x="920" y="296" fill="#F1F5F9" font-size="13" text-anchor="end">$32.00</text>

  <text x="406" y="314" fill="#94A3B8" font-size="13">Tax refund (8.875%)</text>
  <text x="920" y="314" fill="#F1F5F9" font-size="13" text-anchor="end">$2.84</text>

  <text x="406" y="332" fill="#94A3B8" font-size="13">Tip refund</text>
  <text x="920" y="332" fill="#64748B" font-size="13" text-anchor="end">$0.00</text>

  <rect x="400" y="342" width="516" height="2" fill="#2D3148"/>

  <!-- TOTAL REFUND -->
  <text x="406" y="365" fill="#F1F5F9" font-size="16" font-weight="700">TOTAL REFUND</text>
  <text x="920" y="368" fill="#10B981" font-size="22" font-weight="800" text-anchor="end">$34.84</text>

  <rect x="400" y="378" width="516" height="1" fill="#2D3148"/>

  <!-- Refund details -->
  <text x="406" y="397" fill="#94A3B8" font-size="12">Refund to:</text>
  <text x="550" y="397" fill="#F1F5F9" font-size="12" font-weight="600">Visa •••• 4242 (original card)</text>

  <text x="406" y="415" fill="#94A3B8" font-size="12">Stripe Refund ID:</text>
  <text x="550" y="415" fill="#64748B" font-size="12" font-style="italic">Will be generated on process</text>

  <text x="406" y="433" fill="#94A3B8" font-size="12">Timeline:</text>
  <text x="550" y="433" fill="#F59E0B" font-size="12">Appears on statement: 3–7 business days</text>

  <text x="406" y="451" fill="#94A3B8" font-size="12">Processor:</text>
  <text x="550" y="451" fill="#F1F5F9" font-size="12">Stripe — stripe.refunds.create()</text>

  <rect x="400" y="458" width="516" height="1" fill="#2D3148"/>

  <text x="658" y="475" fill="#64748B" font-size="10" text-anchor="middle">Keep this receipt for your records · Synalux POS v2.4</text>

  <!-- REFUND REASON SECTION -->
  <rect x="388" y="486" width="540" height="160" rx="10" fill="#1A1D2E" stroke="#2D3148" stroke-width="1"/>

  <text x="398" y="506" fill="#94A3B8" font-size="11" font-weight="700" letter-spacing="0.5">REFUND REASON (REQUIRED)</text>

  <!-- Reason dropdown -->
  <rect x="398" y="512" width="520" height="34" rx="6" fill="#0F1117" stroke="#F59E0B" stroke-width="1.5"/>
  <text x="410" y="534" fill="#F1F5F9" font-size="13">Billing Error</text>
  <text x="908" y="534" fill="#94A3B8" font-size="14" text-anchor="end">▾</text>

  <!-- Dropdown options (shown for illustration) -->
  <text x="410" y="560" fill="#64748B" font-size="11">Options: Customer Dissatisfied / Wrong Item Delivered / Food Quality Issue / Billing Error ✓ / Order Never Arrived / Other</text>

  <!-- Note field -->
  <text x="398" y="582" fill="#94A3B8" font-size="11" font-weight="600">INTERNAL NOTE</text>
  <rect x="398" y="588" width="520" height="30" rx="6" fill="#0F1117" stroke="#2D3148" stroke-width="1"/>
  <text x="410" y="608" fill="#F1F5F9" font-size="12">Wrong item charged to table</text>

  <!-- Alternate refund method -->
  <text x="398" y="632" fill="#94A3B8" font-size="11" font-weight="700" letter-spacing="0.5">REFUND METHOD</text>

  <!-- Radio: Original card (selected) -->
  <circle cx="408" cy="644" r="7" fill="none" stroke="#F59E0B" stroke-width="2"/>
  <circle cx="408" cy="644" r="4" fill="#F59E0B"/>
  <text x="420" y="648" fill="#F1F5F9" font-size="12" font-weight="600">Original card (recommended)</text>

  <!-- Radio: Cash -->
  <circle cx="408" cy="662" r="7" fill="none" stroke="#64748B" stroke-width="2"/>
  <text x="420" y="666" fill="#94A3B8" font-size="12">Cash (requires cash available in drawer)</text>

  <!-- Radio: Store credit -->
  <circle cx="408" cy="680" r="7" fill="none" stroke="#64748B" stroke-width="2"/>
  <text x="420" y="684" fill="#94A3B8" font-size="12">Store credit / gift card balance</text>

  <!-- ── AUTHORIZATION PANEL ── -->
  <rect x="388" y="656" width="540" height="195" rx="10" fill="#1A1D2E" stroke="#F59E0B" stroke-width="2"/>

  <!-- Auth panel header -->
  <rect x="388" y="656" width="540" height="40" rx="10" fill="#2D2410"/>
  <rect x="388" y="680" width="540" height="16" fill="#2D2410"/>
  <text x="658" y="682" fill="#F59E0B" font-size="14" font-weight="700" text-anchor="middle">🔐 Manager Authorization Required</text>

  <!-- Auth trigger reason -->
  <text x="658" y="706" fill="#94A3B8" font-size="12" text-anchor="middle">Refunds over $25.00 require manager auth (configured: $25.00)</text>
  <text x="658" y="722" fill="#F1F5F9" font-size="12" font-weight="600" text-anchor="middle">This refund: $34.84 — authorization required ✓</text>

  <!-- PIN entry -->
  <text x="398" y="742" fill="#94A3B8" font-size="11" font-weight="700" letter-spacing="0.5">MANAGER PIN</text>
  <rect x="398" y="748" width="200" height="36" rx="6" fill="#0F1117" stroke="#F59E0B" stroke-width="1.5"/>
  <!-- PIN dots -->
  <circle cx="420" cy="766" r="6" fill="#F59E0B"/>
  <circle cx="445" cy="766" r="6" fill="#F59E0B"/>
  <circle cx="470" cy="766" r="6" fill="#F59E0B"/>
  <circle cx="495" cy="766" r="6" fill="#F59E0B"/>
  <text x="525" y="770" fill="#64748B" font-size="11" font-style="italic">4-digit PIN</text>

  <!-- Audit note -->
  <text x="398" y="798" fill="#64748B" font-size="10">Audit log: staff_id + reason + Stripe refund_id → pos_audit_log (tamper-evident)</text>

  <!-- Process Refund button -->
  <rect x="398" y="808" width="330" height="36" rx="8" fill="#EF4444"/>
  <text x="563" y="830" fill="#FFFFFF" font-size="14" font-weight="700" text-anchor="middle">Process Refund — $34.84</text>

  <!-- Warning text -->
  <text x="563" y="847" fill="#F97316" font-size="10" text-anchor="middle">⚠ This action cannot be undone</text>

  <!-- Cancel button -->
  <rect x="738" y="808" width="182" height="36" rx="8" fill="#1A1D2E" stroke="#2D3148" stroke-width="1.5"/>
  <text x="829" y="830" fill="#94A3B8" font-size="14" font-weight="600" text-anchor="middle">Cancel</text>

  <!-- ═══════════════════════════════════════════════════════════════ -->
  <!-- RIGHT COLUMN (x=940, w=426): Refund History + Status           -->
  <!-- ═══════════════════════════════════════════════════════════════ -->

  <text x="956" y="130" fill="#F1F5F9" font-size="15" font-weight="700">Recent Refunds — Today</text>
  <text x="1356" y="130" fill="#94A3B8" font-size="12" text-anchor="end">3 refunds</text>

  <!-- ── Refund card 1: 7:15 PM ── -->
  <rect x="948" y="140" width="408" height="80" rx="8" fill="#1A1D2E" stroke="#10B981" stroke-width="1.5"/>
  <text x="960" y="162" fill="#94A3B8" font-size="11">7:15 PM</text>
  <text x="1010" y="162" fill="#F1F5F9" font-size="13" font-weight="600">Order #2406-067</text>
  <text x="1348" y="162" fill="#10B981" font-size="13" font-weight="700" text-anchor="end">$12.00</text>
  <text x="960" y="179" fill="#64748B" font-size="11">Reason: Food Quality</text>
  <text x="960" y="195" fill="#94A3B8" font-size="11">Visa ••••9821</text>
  <rect x="1258" y="182" width="90" height="20" rx="10" fill="#0F2B1F"/>
  <text x="1303" y="196" fill="#10B981" font-size="11" font-weight="700" text-anchor="middle">Settled ✓</text>
  <text x="960" y="213" fill="#64748B" font-size="10">Stripe ID: re_3Nk8Uc...7d2a</text>

  <!-- ── Refund card 2: 5:42 PM ── -->
  <rect x="948" y="228" width="408" height="80" rx="8" fill="#1A1D2E" stroke="#10B981" stroke-width="1.5"/>
  <text x="960" y="250" fill="#94A3B8" font-size="11">5:42 PM</text>
  <text x="1010" y="250" fill="#F1F5F9" font-size="13" font-weight="600">Order #2406-041</text>
  <text x="1348" y="250" fill="#10B981" font-size="13" font-weight="700" text-anchor="end">$9.00</text>
  <text x="960" y="267" fill="#64748B" font-size="11">Reason: Billing Error</text>
  <text x="960" y="283" fill="#94A3B8" font-size="11">Cash refund (paid out)</text>
  <rect x="1258" y="270" width="90" height="20" rx="10" fill="#0F2B1F"/>
  <text x="1303" y="284" fill="#10B981" font-size="11" font-weight="700" text-anchor="middle">Settled ✓</text>
  <text x="960" y="300" fill="#64748B" font-size="10">pos_cash_events type=paid_out recorded</text>

  <!-- ── Refund card 3: 3:20 PM ── -->
  <rect x="948" y="316" width="408" height="80" rx="8" fill="#1A1D2E" stroke="#F59E0B" stroke-width="1.5"/>
  <text x="960" y="338" fill="#94A3B8" font-size="11">3:20 PM</text>
  <text x="1010" y="338" fill="#F1F5F9" font-size="13" font-weight="600">Order #2406-018</text>
  <text x="1348" y="338" fill="#F59E0B" font-size="13" font-weight="700" text-anchor="end">$27.50</text>
  <text x="960" y="355" fill="#64748B" font-size="11">Reason: Wrong Item</text>
  <text x="960" y="371" fill="#94A3B8" font-size="11">Visa ••••4242</text>
  <rect x="1248" y="358" width="100" height="20" rx="10" fill="#2D1F05"/>
  <text x="1298" y="372" fill="#F59E0B" font-size="11" font-weight="700" text-anchor="middle">Pending ⏳</text>
  <text x="960" y="388" fill="#64748B" font-size="10">Stripe ID: re_3Nk2Ab...1c9f · ~5 days remain</text>

  <!-- Daily total -->
  <rect x="948" y="404" width="408" height="44" rx="8" fill="#1A1D2E" stroke="#2D3148" stroke-width="1"/>
  <text x="960" y="422" fill="#94A3B8" font-size="12">Total refunds today (3):</text>
  <text x="1348" y="422" fill="#EF4444" font-size="14" font-weight="700" text-anchor="end">$48.50</text>
  <text x="960" y="440" fill="#64748B" font-size="11">Deducted from today's gross in Z-report</text>

  <!-- View full history link -->
  <text x="956" y="462" fill="#F59E0B" font-size="12" font-weight="600" text-decoration="underline">View Full Refund History →</text>

  <!-- ── REFUND STATUS FLOW ── -->
  <rect x="948" y="474" width="408" height="290" rx="10" fill="#1A1D2E" stroke="#F59E0B" stroke-width="1.5"/>

  <!-- Flow header -->
  <rect x="948" y="474" width="408" height="36" rx="10" fill="#2D2410"/>
  <rect x="948" y="496" width="408" height="14" fill="#2D2410"/>
  <text x="1152" y="497" fill="#F59E0B" font-size="13" font-weight="700" text-anchor="middle">After Refund Processed:</text>

  <!-- Flow steps -->
  <rect x="960" y="516" width="8" height="8" rx="2" fill="#F59E0B"/>
  <text x="976" y="524" fill="#F1F5F9" font-size="12" font-weight="600">Stripe Refund API called immediately</text>
  <text x="976" y="538" fill="#64748B" font-size="11">refund_id captured + stored in pos_refunds</text>

  <rect x="960" y="548" width="1" height="10" fill="#2D3148"/>

  <rect x="960" y="558" width="8" height="8" rx="2" fill="#8B5CF6"/>
  <text x="976" y="566" fill="#F1F5F9" font-size="12" font-weight="600">Database updated</text>
  <text x="976" y="580" fill="#64748B" font-size="11">pos_payments.refund_amount ↑ · pos_refunds row created</text>

  <rect x="960" y="590" width="1" height="10" fill="#2D3148"/>

  <rect x="960" y="600" width="8" height="8" rx="2" fill="#10B981"/>
  <text x="976" y="608" fill="#F1F5F9" font-size="12" font-weight="600">Receipt emailed to customer</text>
  <text x="976" y="622" fill="#64748B" font-size="11">"Your refund of $34.84 has been processed"</text>

  <rect x="960" y="632" width="1" height="10" fill="#2D3148"/>

  <rect x="960" y="642" width="8" height="8" rx="2" fill="#F59E0B"/>
  <text x="976" y="650" fill="#F1F5F9" font-size="12" font-weight="600">Z-report updated</text>
  <text x="976" y="664" fill="#64748B" font-size="11">Refund shown as deduction from gross sales</text>

  <rect x="960" y="674" width="1" height="10" fill="#2D3148"/>

  <rect x="960" y="684" width="8" height="8" rx="2" fill="#F97316"/>
  <text x="976" y="692" fill="#F1F5F9" font-size="12" font-weight="600">Manager notified</text>
  <text x="976" y="706" fill="#64748B" font-size="11">Push notification: "Refund $34.84 processed by Dmitri"</text>

  <rect x="960" y="716" width="1" height="10" fill="#2D3148"/>

  <rect x="960" y="726" width="8" height="8" rx="2" fill="#94A3B8"/>
  <text x="976" y="734" fill="#F1F5F9" font-size="12" font-weight="600">Stripe webhook pending</text>
  <text x="976" y="748" fill="#64748B" font-size="11">stripe.refund.updated → status: pending → settled</text>

  <!-- Status badge legend -->
  <rect x="960" y="756" width="386" height="1" fill="#2D3148"/>
  <rect x="960" y="762" width="60" height="16" rx="8" fill="#0F2B1F"/>
  <text x="990" y="774" fill="#10B981" font-size="10" text-anchor="middle">settled</text>
  <rect x="1028" y="762" width="60" height="16" rx="8" fill="#2D1F05"/>
  <text x="1058" y="774" fill="#F59E0B" font-size="10" text-anchor="middle">pending</text>
  <rect x="1096" y="762" width="50" height="16" rx="8" fill="#2D1010"/>
  <text x="1121" y="774" fill="#EF4444" font-size="10" text-anchor="middle">failed</text>

  <!-- ═══════════════════════════════════════════════════════════════ -->
  <!-- WORKFLOW INTEGRATION BOX (full width bottom)                    -->
  <!-- ═══════════════════════════════════════════════════════════════ -->
  <rect x="8" y="862" width="1350" height="154" rx="10" fill="#1A1D2E" stroke="#F59E0B" stroke-width="2"/>

  <!-- Header -->
  <rect x="8" y="862" width="1350" height="36" rx="10" fill="#2D2410"/>
  <rect x="8" y="884" width="1350" height="14" fill="#2D2410"/>
  <text x="683" y="885" fill="#F59E0B" font-size="13" font-weight="700" text-anchor="middle">Workflow Integration — void vs refund</text>

  <!-- Two columns of workflow info -->
  <!-- Left: void -->
  <text x="20" y="910" fill="#8B5CF6" font-size="12" font-weight="700">VOID (pre-settlement)</text>
  <text x="20" y="926" fill="#94A3B8" font-size="11">Cancels Stripe PaymentIntent before capture. Instant reversal, no bank delay.</text>
  <text x="20" y="942" fill="#64748B" font-size="11">pos_payments.status = voided · pos_audit_log entry created · No Stripe refund_id (never captured)</text>

  <!-- Divider -->
  <rect x="683" y="900" width="1" height="108" fill="#2D3148"/>

  <!-- Right: refund -->
  <text x="695" y="910" fill="#F59E0B" font-size="12" font-weight="700">REFUND (post-settlement)</text>
  <text x="695" y="926" fill="#94A3B8" font-size="11">Calls stripe.refunds.create(payment_intent_id, amount_cents). Partial refund supported via amount param.</text>
  <text x="695" y="942" fill="#64748B" font-size="11">pos_refunds table: id, payment_id, amount_cents, reason, stripe_refund_id, status, staff_id, created_at</text>

  <!-- Bottom row -->
  <rect x="8" y="950" width="1350" height="1" fill="#2D3148"/>
  <text x="20" y="966" fill="#64748B" font-size="11">Both operations → pos_audit_log (staff_id, action, amount, reason, timestamp). Cash refund → pos_cash_events (type=paid_out).</text>
  <text x="20" y="982" fill="#64748B" font-size="11">Stripe webhook stripe.refund.updated → updates pos_refunds.status (pending→settled→failed). pos_payments.refund_amount tracks cumulative refunded.</text>
  <text x="20" y="998" fill="#4B5563" font-size="10">Z-report: gross_sales − refunds = net_sales · refund_count · refund_total displayed separately for reconciliation</text>

</svg>
