<svg xmlns="http://www.w3.org/2000/svg" width="1366" height="1024" viewBox="0 0 1366 1024">
  <defs>
    <style>
      text { font-family: -apple-system, BlinkMacSystemFont, 'SF Pro Display', 'Segoe UI', sans-serif; }
      .label-sm { font-size: 10px; }
      .label-md { font-size: 12px; }
      .label-lg { font-size: 14px; }
      .label-xl { font-size: 16px; }
      .label-xxl { font-size: 18px; }
      .bold { font-weight: 700; }
      .semibold { font-weight: 600; }
      .medium { font-weight: 500; }
    </style>
    <!-- WiFi icon signal bars -->
    <g id="wifi">
      <path d="M0,12 Q10,-2 20,12" fill="none" stroke="#10B981" stroke-width="2.5" stroke-linecap="round"/>
      <path d="M-5,17 Q10,0 25,17" fill="none" stroke="#10B981" stroke-width="2.5" stroke-linecap="round"/>
      <path d="M-10,22 Q10,2 30,22" fill="none" stroke="#10B981" stroke-width="2.5" stroke-linecap="round"/>
      <circle cx="10" cy="16" r="2" fill="#10B981"/>
    </g>
    <!-- Checkmark -->
    <g id="check">
      <polyline points="2,7 6,11 14,3" fill="none" stroke="white" stroke-width="2" stroke-linecap="round" stroke-linejoin="round"/>
    </g>
    <filter id="shadow" x="-5%" y="-5%" width="110%" height="120%">
      <feDropShadow dx="0" dy="4" stdDeviation="8" flood-color="#000000" flood-opacity="0.4"/>
    </filter>
    <filter id="glow-amber" x="-10%" y="-10%" width="120%" height="120%">
      <feDropShadow dx="0" dy="0" stdDeviation="6" flood-color="#F59E0B" flood-opacity="0.4"/>
    </filter>
    <filter id="glow-green" x="-10%" y="-10%" width="120%" height="120%">
      <feDropShadow dx="0" dy="0" stdDeviation="4" flood-color="#10B981" flood-opacity="0.35"/>
    </filter>
    <linearGradient id="phone-chrome" x1="0" y1="0" x2="1" y2="0">
      <stop offset="0%" stop-color="#2a2d3e"/>
      <stop offset="50%" stop-color="#1e2130"/>
      <stop offset="100%" stop-color="#2a2d3e"/>
    </linearGradient>
    <linearGradient id="amber-btn" x1="0" y1="0" x2="0" y2="1">
      <stop offset="0%" stop-color="#FBBF24"/>
      <stop offset="100%" stop-color="#D97706"/>
    </linearGradient>
    <linearGradient id="green-grad" x1="0" y1="0" x2="0" y2="1">
      <stop offset="0%" stop-color="#10B981"/>
      <stop offset="100%" stop-color="#059669"/>
    </linearGradient>
    <linearGradient id="card-grad" x1="0" y1="0" x2="0" y2="1">
      <stop offset="0%" stop-color="#1e2235"/>
      <stop offset="100%" stop-color="#161929"/>
    </linearGradient>
    <linearGradient id="kds-new-grad" x1="0" y1="0" x2="0" y2="1">
      <stop offset="0%" stop-color="#0d2b1e"/>
      <stop offset="100%" stop-color="#0a1f16"/>
    </linearGradient>
    <clipPath id="phone-clip">
      <rect x="0" y="0" width="340" height="680" rx="36" ry="36"/>
    </clipPath>
  </defs>

  <!-- ═══════════════════════════════════════════════════════════════ -->
  <!-- BACKGROUND                                                       -->
  <!-- ═══════════════════════════════════════════════════════════════ -->
  <rect width="1366" height="1024" fill="#0F1117"/>

  <!-- Subtle grid overlay -->
  <pattern id="grid" width="40" height="40" patternUnits="userSpaceOnUse">
    <path d="M 40 0 L 0 0 0 40" fill="none" stroke="#ffffff" stroke-width="0.3" opacity="0.04"/>
  </pattern>
  <rect width="1366" height="1024" fill="url(#grid)"/>

  <!-- Top bar -->
  <rect x="0" y="0" width="1366" height="52" fill="#13162A" opacity="0.95"/>
  <rect x="0" y="51" width="1366" height="1" fill="#2D3148"/>

  <!-- Top bar content -->
  <text x="24" y="32" fill="#F59E0B" font-size="15" font-weight="700" font-family="-apple-system, BlinkMacSystemFont, 'SF Pro Display', sans-serif">⬡ Synalux POS</text>
  <text x="148" y="32" fill="#2D3148" font-size="15" font-family="-apple-system, sans-serif">|</text>
  <text x="162" y="32" fill="#94A3B8" font-size="13" font-family="-apple-system, sans-serif">Handheld Ordering Mode</text>
  <text x="750" y="32" fill="#64748B" font-size="12" font-family="-apple-system, sans-serif" text-anchor="middle">iPad Landscape Mockup — Staff Tableside View</text>
  <circle cx="1290" cy="26" r="5" fill="#10B981"/>
  <text x="1302" y="31" fill="#10B981" font-size="11" font-family="-apple-system, sans-serif">Live</text>
  <text x="1250" y="31" fill="#64748B" font-size="11" font-family="-apple-system, sans-serif">Sarah M.</text>

  <!-- ═══════════════════════════════════════════════════════════════ -->
  <!-- LEFT PANEL — Handheld iPhone View (500px)                       -->
  <!-- ═══════════════════════════════════════════════════════════════ -->

  <!-- Panel background -->
  <rect x="12" y="64" width="494" height="948" rx="12" fill="#13162A" stroke="#2D3148" stroke-width="1"/>

  <!-- Panel header -->
  <text x="259" y="92" fill="#94A3B8" font-size="11" font-weight="600" font-family="-apple-system, sans-serif" text-anchor="middle" letter-spacing="1.5">HANDHELD MODE</text>
  <text x="259" y="112" fill="#F1F5F9" font-size="14" font-weight="700" font-family="-apple-system, sans-serif" text-anchor="middle">iPhone — Server View</text>

  <!-- iPhone outer shell / bezel -->
  <rect x="68" y="126" width="382" height="862" rx="44" fill="url(#phone-chrome)" filter="url(#shadow)"/>
  <!-- Highlight left edge -->
  <rect x="68" y="170" width="2" height="600" rx="1" fill="#3a3d50" opacity="0.6"/>
  <!-- Volume buttons -->
  <rect x="64" y="220" width="6" height="38" rx="3" fill="#2a2d3e"/>
  <rect x="64" y="268" width="6" height="38" rx="3" fill="#2a2d3e"/>
  <!-- Power button -->
  <rect x="444" y="240" width="6" height="52" rx="3" fill="#2a2d3e"/>
  <!-- Camera notch area -->
  <rect x="180" y="138" width="158" height="28" rx="14" fill="#111420"/>
  <!-- Front camera -->
  <circle cx="310" cy="152" r="5" fill="#0a0c15"/>
  <circle cx="310" cy="152" r="2.5" fill="#1a1d2e" opacity="0.5"/>
  <!-- Home indicator pill -->
  <rect x="209" y="960" width="100" height="4" rx="2" fill="#3a3d50"/>

  <!-- iPhone screen area -->
  <rect x="80" y="168" width="358" height="784" rx="32" fill="#0F1117" clip-path="none"/>

  <!-- Screen clip for content -->
  <clipPath id="screen-clip">
    <rect x="80" y="168" width="358" height="784" rx="32"/>
  </clipPath>

  <!-- Screen background -->
  <rect x="80" y="168" width="358" height="784" rx="32" fill="#0F1117"/>

  <!-- ─── STATUS BAR ─── -->
  <rect x="80" y="168" width="358" height="44" rx="0" fill="#0F1117"/>
  <rect x="80" y="168" width="358" height="44" fill="#13162A" opacity="0.95"/>
  <!-- Status bar rounded top -->
  <rect x="80" y="168" width="358" height="32" rx="32" fill="#13162A" opacity="0.95"/>
  <rect x="80" y="184" width="358" height="16" fill="#13162A" opacity="0.95"/>

  <text x="98" y="193" fill="#F59E0B" font-size="9" font-weight="700" font-family="-apple-system, sans-serif">⬡ Synalux POS</text>
  <text x="259" y="193" fill="#94A3B8" font-size="9" font-family="-apple-system, sans-serif" text-anchor="middle">Sarah M. · Table 7 · Handheld</text>
  <!-- Battery + time -->
  <rect x="392" y="185" width="30" height="13" rx="3" fill="none" stroke="#64748B" stroke-width="1"/>
  <rect x="394" y="187" width="22" height="9" rx="2" fill="#10B981"/>
  <rect x="422" y="189" width="3" height="5" rx="1" fill="#64748B"/>
  <text x="384" y="195" fill="#64748B" font-size="8" font-family="-apple-system, sans-serif" text-anchor="end">6:42</text>

  <!-- ─── TABLE HEADER ─── -->
  <rect x="80" y="212" width="358" height="36" fill="#1A1D2E"/>
  <rect x="80" y="247" width="358" height="1" fill="#2D3148"/>

  <!-- Seat tabs -->
  <!-- Seat 1 (active) -->
  <rect x="88" y="216" width="80" height="26" rx="13" fill="#F59E0B" filter="url(#glow-amber)"/>
  <text x="128" y="233" fill="#0F1117" font-size="11" font-weight="700" font-family="-apple-system, sans-serif" text-anchor="middle">Seat 1</text>
  <!-- Seat 2 -->
  <rect x="174" y="216" width="80" height="26" rx="13" fill="#1e2235"/>
  <rect x="174" y="216" width="80" height="26" rx="13" fill="none" stroke="#2D3148" stroke-width="1"/>
  <text x="214" y="233" fill="#94A3B8" font-size="11" font-weight="500" font-family="-apple-system, sans-serif" text-anchor="middle">Seat 2</text>
  <!-- Seat 3 -->
  <rect x="260" y="216" width="80" height="26" rx="13" fill="#1e2235"/>
  <rect x="260" y="216" width="80" height="26" rx="13" fill="none" stroke="#2D3148" stroke-width="1"/>
  <text x="300" y="233" fill="#94A3B8" font-size="11" font-weight="500" font-family="-apple-system, sans-serif" text-anchor="middle">Seat 3</text>
  <!-- Table 7 label -->
  <text x="415" y="233" fill="#F59E0B" font-size="11" font-weight="700" font-family="-apple-system, sans-serif" text-anchor="middle">Table 7</text>

  <!-- ─── SEAT 1 HEADER ─── -->
  <rect x="80" y="248" width="358" height="32" fill="#0F1117"/>
  <text x="259" y="268" fill="#F1F5F9" font-size="13" font-weight="600" font-family="-apple-system, sans-serif" text-anchor="middle">What can I get Seat 1?</text>

  <!-- ─── CATEGORY PILLS ─── -->
  <rect x="80" y="280" width="358" height="50" fill="#0F1117"/>

  <!-- Row 1 of pills -->
  <!-- Burgers (active/amber) -->
  <rect x="88" y="286" width="76" height="28" rx="14" fill="#F59E0B"/>
  <text x="126" y="304" fill="#0F1117" font-size="10" font-weight="700" font-family="-apple-system, sans-serif" text-anchor="middle">Burgers</text>
  <!-- Sides -->
  <rect x="170" y="286" width="62" height="28" rx="14" fill="#1A1D2E" stroke="#2D3148" stroke-width="1"/>
  <text x="201" y="304" fill="#94A3B8" font-size="10" font-weight="500" font-family="-apple-system, sans-serif" text-anchor="middle">Sides</text>
  <!-- Drinks -->
  <rect x="238" y="286" width="62" height="28" rx="14" fill="#1A1D2E" stroke="#2D3148" stroke-width="1"/>
  <text x="269" y="304" fill="#94A3B8" font-size="10" font-weight="500" font-family="-apple-system, sans-serif" text-anchor="middle">Drinks</text>
  <!-- Desserts -->
  <rect x="306" y="286" width="68" height="28" rx="14" fill="#1A1D2E" stroke="#2D3148" stroke-width="1"/>
  <text x="340" y="304" fill="#94A3B8" font-size="10" font-weight="500" font-family="-apple-system, sans-serif" text-anchor="middle">Desserts</text>

  <!-- Row 2 of pills -->
  <rect x="88" y="320" width="70" height="28" rx="14" fill="#1A1D2E" stroke="#2D3148" stroke-width="1"/>
  <text x="123" y="338" fill="#94A3B8" font-size="10" font-weight="500" font-family="-apple-system, sans-serif" text-anchor="middle">Specials</text>
  <rect x="164" y="320" width="62" height="28" rx="14" fill="#1A1D2E" stroke="#2D3148" stroke-width="1"/>
  <text x="195" y="338" fill="#94A3B8" font-size="10" font-weight="500" font-family="-apple-system, sans-serif" text-anchor="middle">Combos</text>

  <!-- ─── PRODUCT GRID ─── -->
  <rect x="80" y="354" width="358" height="1" fill="#2D3148"/>

  <!-- Row 1 -->
  <!-- Classic Burger (selected/highlighted) -->
  <rect x="88" y="362" width="165" height="70" rx="10" fill="#1e2a1a" stroke="#10B981" stroke-width="1.5"/>
  <text x="170" y="382" fill="#F1F5F9" font-size="11" font-weight="600" font-family="-apple-system, sans-serif" text-anchor="middle">Classic Burger</text>
  <text x="170" y="398" fill="#94A3B8" font-size="10" font-family="-apple-system, sans-serif" text-anchor="middle">beef patty, LTO</text>
  <rect x="134" y="406" width="72" height="20" rx="10" fill="#10B981" opacity="0.15"/>
  <text x="170" y="419" fill="#10B981" font-size="11" font-weight="700" font-family="-apple-system, sans-serif" text-anchor="middle">$12.00 ✓</text>

  <!-- Veggie Burger -->
  <rect x="261" y="362" width="165" height="70" rx="10" fill="#1A1D2E" stroke="#2D3148" stroke-width="1"/>
  <text x="343" y="382" fill="#F1F5F9" font-size="11" font-weight="600" font-family="-apple-system, sans-serif" text-anchor="middle">Veggie Burger</text>
  <text x="343" y="398" fill="#94A3B8" font-size="10" font-family="-apple-system, sans-serif" text-anchor="middle">plant-based</text>
  <text x="343" y="419" fill="#F59E0B" font-size="11" font-weight="700" font-family="-apple-system, sans-serif" text-anchor="middle">$11.00</text>

  <!-- Row 2 -->
  <!-- BBQ Burger -->
  <rect x="88" y="440" width="165" height="70" rx="10" fill="#1A1D2E" stroke="#2D3148" stroke-width="1"/>
  <text x="170" y="460" fill="#F1F5F9" font-size="11" font-weight="600" font-family="-apple-system, sans-serif" text-anchor="middle">BBQ Burger</text>
  <text x="170" y="476" fill="#94A3B8" font-size="10" font-family="-apple-system, sans-serif" text-anchor="middle">bacon, cheddar</text>
  <text x="170" y="497" fill="#F59E0B" font-size="11" font-weight="700" font-family="-apple-system, sans-serif" text-anchor="middle">$13.00</text>

  <!-- Fish Burger -->
  <rect x="261" y="440" width="165" height="70" rx="10" fill="#1A1D2E" stroke="#2D3148" stroke-width="1"/>
  <text x="343" y="460" fill="#F1F5F9" font-size="11" font-weight="600" font-family="-apple-system, sans-serif" text-anchor="middle">Fish Burger</text>
  <text x="343" y="476" fill="#94A3B8" font-size="10" font-family="-apple-system, sans-serif" text-anchor="middle">tartar, slaw</text>
  <text x="343" y="497" fill="#F59E0B" font-size="11" font-weight="700" font-family="-apple-system, sans-serif" text-anchor="middle">$14.00</text>

  <!-- Row 3 -->
  <!-- Chicken Burger -->
  <rect x="88" y="518" width="165" height="70" rx="10" fill="#1A1D2E" stroke="#2D3148" stroke-width="1"/>
  <text x="170" y="538" fill="#F1F5F9" font-size="11" font-weight="600" font-family="-apple-system, sans-serif" text-anchor="middle">Chicken Burger</text>
  <text x="170" y="554" fill="#94A3B8" font-size="10" font-family="-apple-system, sans-serif" text-anchor="middle">crispy or grilled</text>
  <text x="170" y="575" fill="#F59E0B" font-size="11" font-weight="700" font-family="-apple-system, sans-serif" text-anchor="middle">$12.00</text>

  <!-- Mushroom Burger -->
  <rect x="261" y="518" width="165" height="70" rx="10" fill="#1A1D2E" stroke="#2D3148" stroke-width="1"/>
  <text x="343" y="538" fill="#F1F5F9" font-size="11" font-weight="600" font-family="-apple-system, sans-serif" text-anchor="middle">Mushroom</text>
  <text x="343" y="554" fill="#94A3B8" font-size="10" font-family="-apple-system, sans-serif" text-anchor="middle">swiss, aioli</text>
  <text x="343" y="575" fill="#F59E0B" font-size="11" font-weight="700" font-family="-apple-system, sans-serif" text-anchor="middle">$12.00</text>

  <!-- ─── MODIFIER SHEET (slide-up for Classic Burger) ─── -->
  <rect x="80" y="596" width="358" height="1" fill="#2D3148"/>
  <rect x="80" y="597" width="358" height="110" fill="#141728" opacity="0.97"/>
  <rect x="80" y="597" width="358" height="1.5" fill="#F59E0B" opacity="0.5"/>

  <text x="97" y="618" fill="#64748B" font-size="9" font-weight="600" font-family="-apple-system, sans-serif" letter-spacing="1.2">MODIFIERS — CLASSIC BURGER</text>
  <!-- Modifier pills -->
  <rect x="97" y="626" width="78" height="22" rx="11" fill="#1e2a1a" stroke="#10B981" stroke-width="1.5"/>
  <text x="136" y="641" fill="#10B981" font-size="9" font-weight="700" font-family="-apple-system, sans-serif" text-anchor="middle">✓ No Onions</text>

  <rect x="181" y="626" width="70" height="22" rx="11" fill="#1A1D2E" stroke="#2D3148" stroke-width="1"/>
  <text x="216" y="641" fill="#94A3B8" font-size="9" font-family="-apple-system, sans-serif" text-anchor="middle">Extra Cheese</text>

  <rect x="257" y="626" width="60" height="22" rx="11" fill="#1A1D2E" stroke="#2D3148" stroke-width="1"/>
  <text x="287" y="641" fill="#94A3B8" font-size="9" font-family="-apple-system, sans-serif" text-anchor="middle">Gluten-Free</text>

  <rect x="323" y="626" width="58" height="22" rx="11" fill="#1A1D2E" stroke="#2D3148" stroke-width="1"/>
  <text x="352" y="641" fill="#94A3B8" font-size="9" font-family="-apple-system, sans-serif" text-anchor="middle">Add Avoc.</text>

  <rect x="97" y="654" width="70" height="22" rx="11" fill="#1A1D2E" stroke="#2D3148" stroke-width="1"/>
  <text x="132" y="669" fill="#94A3B8" font-size="9" font-family="-apple-system, sans-serif" text-anchor="middle">No Pickles</text>

  <rect x="173" y="654" width="74" height="22" rx="11" fill="#1A1D2E" stroke="#2D3148" stroke-width="1"/>
  <text x="210" y="669" fill="#94A3B8" font-size="9" font-family="-apple-system, sans-serif" text-anchor="middle">Well Done</text>

  <rect x="253" y="654" width="66" height="22" rx="11" fill="#1A1D2E" stroke="#2D3148" stroke-width="1"/>
  <text x="286" y="669" fill="#94A3B8" font-size="9" font-family="-apple-system, sans-serif" text-anchor="middle">Side Salad</text>

  <!-- ─── SEAT 1 ORDER SUMMARY ─── -->
  <rect x="80" y="707" width="358" height="1" fill="#2D3148"/>
  <rect x="80" y="708" width="358" height="64" fill="#0d1020"/>

  <text x="97" y="726" fill="#64748B" font-size="9" font-weight="600" font-family="-apple-system, sans-serif" letter-spacing="1.2">SEAT 1 ORDER</text>
  <!-- Order item -->
  <rect x="97" y="732" width="4" height="28" rx="2" fill="#10B981"/>
  <text x="108" y="746" fill="#F1F5F9" font-size="11" font-weight="600" font-family="-apple-system, sans-serif">1× Classic Burger</text>
  <text x="108" y="760" fill="#94A3B8" font-size="10" font-family="-apple-system, sans-serif">mod: No Onions</text>
  <text x="418" y="746" fill="#F59E0B" font-size="11" font-weight="700" font-family="-apple-system, sans-serif" text-anchor="end">$12.00</text>
  <!-- Remove button -->
  <circle cx="430" cy="746" r="8" fill="#EF4444" opacity="0.15"/>
  <text x="430" y="750" fill="#EF4444" font-size="11" font-weight="700" font-family="-apple-system, sans-serif" text-anchor="middle">×</text>

  <!-- ─── BOTTOM ACTIONS ─── -->
  <rect x="80" y="772" width="358" height="1" fill="#2D3148"/>
  <rect x="80" y="773" width="358" height="82" fill="#0F1117"/>

  <!-- Seat 2 button -->
  <rect x="88" y="782" width="140" height="38" rx="10" fill="#1A1D2E" stroke="#2D3148" stroke-width="1.5"/>
  <text x="158" y="805" fill="#F1F5F9" font-size="11" font-weight="600" font-family="-apple-system, sans-serif" text-anchor="middle">Seat 2 →</text>

  <!-- Add item button -->
  <rect x="236" y="782" width="96" height="38" rx="10" fill="#1e2235" stroke="#8B5CF6" stroke-width="1.5"/>
  <text x="284" y="805" fill="#8B5CF6" font-size="11" font-weight="600" font-family="-apple-system, sans-serif" text-anchor="middle">+ Add Item</text>

  <!-- Send to Kitchen (amber) -->
  <rect x="88" y="826" width="330" height="44" rx="12" fill="url(#amber-btn)" filter="url(#glow-amber)"/>
  <text x="253" y="852" fill="#0F1117" font-size="14" font-weight="700" font-family="-apple-system, sans-serif" text-anchor="middle">⚡ Send to Kitchen</text>

  <!-- Screen bottom safe area -->
  <rect x="80" y="870" width="358" height="82" rx="0" fill="#0F1117"/>
  <rect x="80" y="934" width="358" height="18" rx="0" fill="#0F1117"/>
  <!-- Rounded bottom of screen -->
  <rect x="80" y="918" width="358" height="34" rx="32" fill="#0F1117"/>
  <rect x="80" y="918" width="358" height="18" fill="#0F1117"/>

  <!-- Panel label at bottom -->
  <text x="259" y="1000" fill="#64748B" font-size="10" font-family="-apple-system, sans-serif" text-anchor="middle">iPhone 15 Pro · Handheld POS</text>

  <!-- ═══════════════════════════════════════════════════════════════ -->
  <!-- CENTER PANEL — Connection + Tips (200px)                        -->
  <!-- x: 506 → 706                                                    -->
  <!-- ═══════════════════════════════════════════════════════════════ -->

  <rect x="506" y="64" width="200" height="948" rx="12" fill="#0d1020" stroke="#2D3148" stroke-width="1"/>

  <!-- Center panel header -->
  <text x="606" y="92" fill="#10B981" font-size="10" font-weight="700" font-family="-apple-system, sans-serif" text-anchor="middle" letter-spacing="1.5">CONNECTION</text>

  <!-- WiFi status card -->
  <rect x="522" y="102" width="168" height="90" rx="10" fill="#1A1D2E" stroke="#10B981" stroke-width="1"/>
  <!-- WiFi icon hand-drawn -->
  <path d="M585,142 Q606,122 627,142" fill="none" stroke="#10B981" stroke-width="2.5" stroke-linecap="round"/>
  <path d="M576,152 Q606,126 636,152" fill="none" stroke="#10B981" stroke-width="2.5" stroke-linecap="round" opacity="0.7"/>
  <path d="M568,162 Q606,130 644,162" fill="none" stroke="#10B981" stroke-width="2.5" stroke-linecap="round" opacity="0.4"/>
  <circle cx="606" cy="158" r="4" fill="#10B981"/>

  <text x="606" y="180" fill="#10B981" font-size="10" font-weight="700" font-family="-apple-system, sans-serif" text-anchor="middle">Strong WiFi</text>
  <text x="606" y="194" fill="#64748B" font-size="9" font-family="-apple-system, sans-serif" text-anchor="middle">-42 dBm · 5GHz</text>

  <!-- Status pill -->
  <rect x="536" y="202" width="140" height="28" rx="14" fill="#0d2b1e"/>
  <rect x="536" y="202" width="140" height="28" rx="14" fill="none" stroke="#10B981" stroke-width="1"/>
  <circle cx="553" cy="216" r="4" fill="#10B981"/>
  <text x="606" y="220" fill="#10B981" font-size="10" font-weight="700" font-family="-apple-system, sans-serif" text-anchor="middle">Handheld Mode Active</text>

  <!-- Info cards -->
  <rect x="522" y="240" width="168" height="48" rx="8" fill="#1A1D2E" stroke="#2D3148" stroke-width="1"/>
  <text x="536" y="258" fill="#F59E0B" font-size="11" font-weight="700" font-family="-apple-system, sans-serif">⚡ Direct KDS Fire</text>
  <text x="536" y="273" fill="#64748B" font-size="9" font-family="-apple-system, sans-serif">Orders → Kitchen instantly</text>
  <text x="536" y="284" fill="#64748B" font-size="9" font-family="-apple-system, sans-serif">No POS terminal needed</text>

  <rect x="522" y="296" width="168" height="48" rx="8" fill="#1A1D2E" stroke="#2D3148" stroke-width="1"/>
  <text x="536" y="314" fill="#8B5CF6" font-size="11" font-weight="700" font-family="-apple-system, sans-serif">📶 Offline Queue</text>
  <text x="536" y="329" fill="#64748B" font-size="9" font-family="-apple-system, sans-serif">WiFi drop? Orders queue</text>
  <text x="536" y="340" fill="#64748B" font-size="9" font-family="-apple-system, sans-serif">Auto-fire on reconnect</text>

  <rect x="522" y="352" width="168" height="38" rx="8" fill="#1A1D2E" stroke="#2D3148" stroke-width="1"/>
  <text x="536" y="370" fill="#F1F5F9" font-size="10" font-weight="600" font-family="-apple-system, sans-serif">Table 7 · 3 guests</text>
  <text x="536" y="383" fill="#64748B" font-size="9" font-family="-apple-system, sans-serif">Seated 6:38 PM · 4 min</text>

  <!-- Mini floor map -->
  <rect x="522" y="400" width="168" height="160" rx="8" fill="#141728" stroke="#2D3148" stroke-width="1"/>
  <text x="606" y="418" fill="#64748B" font-size="9" font-weight="600" font-family="-apple-system, sans-serif" text-anchor="middle" letter-spacing="1">FLOOR MAP</text>

  <!-- Map tables -->
  <!-- Row 1 -->
  <rect x="534" y="425" width="28" height="20" rx="4" fill="#1A1D2E" stroke="#2D3148" stroke-width="1"/>
  <text x="548" y="438" fill="#64748B" font-size="7" font-family="-apple-system, sans-serif" text-anchor="middle">T1</text>

  <rect x="568" y="425" width="28" height="20" rx="4" fill="#1A1D2E" stroke="#2D3148" stroke-width="1"/>
  <text x="582" y="438" fill="#64748B" font-size="7" font-family="-apple-system, sans-serif" text-anchor="middle">T2</text>

  <rect x="602" y="425" width="28" height="20" rx="4" fill="#1A1D2E" stroke="#2D3148" stroke-width="1"/>
  <text x="616" y="438" fill="#64748B" font-size="7" font-family="-apple-system, sans-serif" text-anchor="middle">T3</text>

  <rect x="636" y="425" width="28" height="20" rx="4" fill="#1A1D2E" stroke="#2D3148" stroke-width="1"/>
  <text x="650" y="438" fill="#64748B" font-size="7" font-family="-apple-system, sans-serif" text-anchor="middle">T4</text>

  <!-- Row 2 -->
  <rect x="534" y="452" width="28" height="20" rx="4" fill="#1A1D2E" stroke="#2D3148" stroke-width="1"/>
  <text x="548" y="465" fill="#64748B" font-size="7" font-family="-apple-system, sans-serif" text-anchor="middle">T5</text>

  <rect x="568" y="452" width="28" height="20" rx="4" fill="#1A1D2E" stroke="#2D3148" stroke-width="1"/>
  <text x="582" y="465" fill="#64748B" font-size="7" font-family="-apple-system, sans-serif" text-anchor="middle">T6</text>

  <!-- Table 7 (HIGHLIGHTED) -->
  <rect x="602" y="452" width="28" height="20" rx="4" fill="#F59E0B" filter="url(#glow-amber)"/>
  <text x="616" y="465" fill="#0F1117" font-size="7" font-weight="700" font-family="-apple-system, sans-serif" text-anchor="middle">T7</text>

  <rect x="636" y="452" width="28" height="20" rx="4" fill="#1A1D2E" stroke="#2D3148" stroke-width="1"/>
  <text x="650" y="465" fill="#64748B" font-size="7" font-family="-apple-system, sans-serif" text-anchor="middle">T8</text>

  <!-- Row 3 -->
  <rect x="534" y="479" width="28" height="20" rx="4" fill="#1A1D2E" stroke="#2D3148" stroke-width="1"/>
  <text x="548" y="492" fill="#64748B" font-size="7" font-family="-apple-system, sans-serif" text-anchor="middle">T9</text>

  <rect x="568" y="479" width="28" height="20" rx="4" fill="#1A1D2E" stroke="#2D3148" stroke-width="1"/>
  <text x="582" y="492" fill="#64748B" font-size="7" font-family="-apple-system, sans-serif" text-anchor="middle">T10</text>

  <rect x="602" y="479" width="28" height="20" rx="4" fill="#1A1D2E" stroke="#2D3148" stroke-width="1"/>
  <text x="616" y="492" fill="#64748B" font-size="7" font-family="-apple-system, sans-serif" text-anchor="middle">T11</text>

  <rect x="636" y="479" width="28" height="20" rx="4" fill="#1A1D2E" stroke="#2D3148" stroke-width="1"/>
  <text x="650" y="492" fill="#64748B" font-size="7" font-family="-apple-system, sans-serif" text-anchor="middle">T12</text>

  <!-- Bar area -->
  <rect x="534" y="506" width="130" height="16" rx="4" fill="#1e2235" stroke="#2D3148" stroke-width="1"/>
  <text x="599" y="517" fill="#64748B" font-size="7" font-family="-apple-system, sans-serif" text-anchor="middle">BAR</text>

  <!-- Legend -->
  <rect x="534" y="530" width="8" height="8" rx="2" fill="#F59E0B"/>
  <text x="548" y="538" fill="#64748B" font-size="8" font-family="-apple-system, sans-serif">Your table</text>
  <circle cx="599" cy="534" r="4" fill="#1A1D2E" stroke="#10B981" stroke-width="1"/>
  <text x="609" y="538" fill="#64748B" font-size="8" font-family="-apple-system, sans-serif">Active</text>
  <text x="606" y="553" fill="#10B981" font-size="9" font-weight="600" font-family="-apple-system, sans-serif" text-anchor="middle">↑ Table 7 active</text>

  <!-- Latency stat -->
  <rect x="522" y="570" width="168" height="52" rx="8" fill="#1A1D2E" stroke="#2D3148" stroke-width="1"/>
  <text x="536" y="588" fill="#64748B" font-size="9" font-family="-apple-system, sans-serif">KDS Latency</text>
  <text x="536" y="605" fill="#10B981" font-size="16" font-weight="700" font-family="-apple-system, sans-serif">48ms</text>
  <text x="664" y="605" fill="#10B981" font-size="9" font-weight="600" font-family="-apple-system, sans-serif" text-anchor="end">Excellent</text>

  <!-- Orders in flight -->
  <rect x="522" y="630" width="168" height="52" rx="8" fill="#1A1D2E" stroke="#2D3148" stroke-width="1"/>
  <text x="536" y="648" fill="#64748B" font-size="9" font-family="-apple-system, sans-serif">Partial Fire Status</text>
  <text x="536" y="664" fill="#F59E0B" font-size="11" font-weight="700" font-family="-apple-system, sans-serif">Seat 1 fired</text>
  <text x="536" y="677" fill="#64748B" font-size="9" font-family="-apple-system, sans-serif">Seats 2 &amp; 3 pending...</text>

  <!-- Server name -->
  <rect x="522" y="692" width="168" height="38" rx="8" fill="#1A1D2E" stroke="#2D3148" stroke-width="1"/>
  <circle cx="541" cy="711" r="10" fill="#8B5CF6" opacity="0.3"/>
  <circle cx="541" cy="711" r="10" fill="none" stroke="#8B5CF6" stroke-width="1"/>
  <text x="541" y="715" fill="#8B5CF6" font-size="9" font-weight="700" font-family="-apple-system, sans-serif" text-anchor="middle">SM</text>
  <text x="558" y="707" fill="#F1F5F9" font-size="10" font-weight="600" font-family="-apple-system, sans-serif">Sarah M.</text>
  <text x="558" y="720" fill="#64748B" font-size="9" font-family="-apple-system, sans-serif">Server · Section B</text>

  <!-- ═══════════════════════════════════════════════════════════════ -->
  <!-- RIGHT PANEL — KDS Confirmation View (666px)                     -->
  <!-- x: 706 → 1354                                                   -->
  <!-- ═══════════════════════════════════════════════════════════════ -->

  <rect x="706" y="64" width="648" height="948" rx="12" fill="#0d1020" stroke="#2D3148" stroke-width="1"/>

  <!-- KDS Header bar -->
  <rect x="706" y="64" width="648" height="52" rx="12" fill="#141728"/>
  <rect x="706" y="100" width="648" height="16" fill="#141728"/>
  <rect x="706" y="115" width="648" height="1" fill="#2D3148"/>

  <text x="728" y="87" fill="#64748B" font-size="9" font-weight="700" font-family="-apple-system, sans-serif" letter-spacing="1.5">KITCHEN DISPLAY SYSTEM</text>
  <text x="728" y="107" fill="#F1F5F9" font-size="14" font-weight="700" font-family="-apple-system, sans-serif">Grill Station</text>
  <!-- KDS right side info -->
  <text x="1010" y="87" fill="#64748B" font-size="9" font-family="-apple-system, sans-serif">Order received from Handheld</text>
  <rect x="1010" y="92" width="130" height="20" rx="10" fill="#1e2a1a" stroke="#10B981" stroke-width="1"/>
  <circle cx="1024" cy="102" r="4" fill="#10B981"/>
  <text x="1075" y="106" fill="#10B981" font-size="10" font-weight="700" font-family="-apple-system, sans-serif" text-anchor="middle">Sarah M. · Handheld</text>
  <!-- Clock -->
  <text x="1338" y="87" fill="#64748B" font-size="9" font-family="-apple-system, sans-serif" text-anchor="end">6:42 PM</text>
  <text x="1338" y="107" fill="#F1F5F9" font-size="12" font-weight="600" font-family="-apple-system, sans-serif" text-anchor="end">4 tickets</text>

  <!-- ─── PARTIAL FIRE BANNER ─── -->
  <rect x="716" y="122" width="628" height="36" rx="8" fill="#1e1600" stroke="#F59E0B" stroke-width="1.5"/>
  <text x="730" y="140" fill="#F59E0B" font-size="11" font-weight="700" font-family="-apple-system, sans-serif">⚠ Partial Fire — Seat 2 and Seat 3 orders pending. Server still at tableside.</text>
  <text x="1040" y="152" fill="#F59E0B" font-size="9" font-family="-apple-system, sans-serif" text-anchor="middle">Hold ticket open</text>

  <!-- ─── NEW TICKET — TABLE 7 ─── -->
  <!-- Main ticket card with green glow -->
  <rect x="716" y="168" width="628" height="260" rx="12" fill="url(#kds-new-grad)" filter="url(#glow-green)"/>
  <rect x="716" y="168" width="628" height="260" rx="12" fill="none" stroke="#10B981" stroke-width="2"/>

  <!-- Ticket header -->
  <rect x="716" y="168" width="628" height="52" rx="12" fill="#0d2b1e"/>
  <rect x="716" y="196" width="628" height="24" fill="#0d2b1e"/>
  <rect x="716" y="219" width="628" height="1" fill="#10B981" opacity="0.4"/>

  <!-- NEW badge -->
  <rect x="732" y="180" width="44" height="22" rx="11" fill="#10B981"/>
  <text x="754" y="195" fill="white" font-size="10" font-weight="800" font-family="-apple-system, sans-serif" text-anchor="middle">NEW</text>

  <!-- Table info -->
  <text x="786" y="193" fill="#F1F5F9" font-size="14" font-weight="700" font-family="-apple-system, sans-serif">Table 7 — Handheld — Sarah M.</text>

  <!-- Timer (just fired) -->
  <rect x="1110" y="178" width="90" height="26" rx="13" fill="#0a2218"/>
  <rect x="1110" y="178" width="90" height="26" rx="13" fill="none" stroke="#10B981" stroke-width="1"/>
  <text x="1155" y="195" fill="#10B981" font-size="12" font-weight="700" font-family="-apple-system, sans-serif" text-anchor="middle">0:00</text>

  <!-- BUMP button -->
  <rect x="1210" y="176" width="118" height="30" rx="8" fill="#10B981"/>
  <text x="1269" y="195" fill="white" font-size="11" font-weight="700" font-family="-apple-system, sans-serif" text-anchor="middle">BUMP ✓</text>

  <!-- Ticket body -->
  <!-- SEAT 1 (completed) -->
  <rect x="732" y="228" width="596" height="58" rx="8" fill="#0f2a1a"/>
  <rect x="732" y="228" width="4" height="58" rx="2" fill="#10B981"/>

  <text x="744" y="246" fill="#10B981" font-size="10" font-weight="700" font-family="-apple-system, sans-serif" letter-spacing="1">SEAT 1 · ORDERED</text>
  <text x="744" y="264" fill="#F1F5F9" font-size="14" font-weight="700" font-family="-apple-system, sans-serif">1×  Classic Burger</text>
  <!-- NO ONIONS tag -->
  <rect x="870" y="254" width="100" height="18" rx="9" fill="#EF4444" opacity="0.2"/>
  <rect x="870" y="254" width="100" height="18" rx="9" fill="none" stroke="#EF4444" stroke-width="1"/>
  <text x="920" y="266" fill="#EF4444" font-size="9" font-weight="700" font-family="-apple-system, sans-serif" text-anchor="middle">NO ONIONS</text>
  <text x="1316" y="264" fill="#10B981" font-size="11" font-weight="700" font-family="-apple-system, sans-serif" text-anchor="end">$12.00</text>
  <text x="744" y="278" fill="#64748B" font-size="10" font-family="-apple-system, sans-serif">beef patty, LTO — mod applied</text>

  <!-- SEAT 2 (pending) -->
  <rect x="732" y="292" width="596" height="44" rx="8" fill="#161928"/>
  <rect x="732" y="292" width="4" height="44" rx="2" fill="#2D3148"/>
  <text x="744" y="310" fill="#64748B" font-size="10" font-weight="600" font-family="-apple-system, sans-serif" letter-spacing="1">SEAT 2</text>
  <text x="744" y="328" fill="#64748B" font-size="11" font-family="-apple-system, sans-serif" font-style="italic">Pending — server still ordering at tableside...</text>
  <!-- Animated dots indicator -->
  <circle cx="980" cy="318" r="3" fill="#64748B" opacity="0.8"/>
  <circle cx="992" cy="318" r="3" fill="#64748B" opacity="0.5"/>
  <circle cx="1004" cy="318" r="3" fill="#64748B" opacity="0.3"/>

  <!-- SEAT 3 (pending) -->
  <rect x="732" y="342" width="596" height="44" rx="8" fill="#161928"/>
  <rect x="732" y="342" width="4" height="44" rx="2" fill="#2D3148"/>
  <text x="744" y="360" fill="#64748B" font-size="10" font-weight="600" font-family="-apple-system, sans-serif" letter-spacing="1">SEAT 3</text>
  <text x="744" y="378" fill="#64748B" font-size="11" font-family="-apple-system, sans-serif" font-style="italic">Pending — server still ordering at tableside...</text>
  <circle cx="980" cy="368" r="3" fill="#64748B" opacity="0.8"/>
  <circle cx="992" cy="368" r="3" fill="#64748B" opacity="0.5"/>
  <circle cx="1004" cy="368" r="3" fill="#64748B" opacity="0.3"/>

  <!-- Ticket footer -->
  <rect x="716" y="428" width="628" height="1" fill="#10B981" opacity="0.25"/>
  <rect x="716" y="428" width="628" height="0.5" fill="#10B981" opacity="0.25"/>

  <!-- ─── KDS QUEUE DIVIDER ─── -->
  <text x="730" y="452" fill="#64748B" font-size="9" font-weight="700" font-family="-apple-system, sans-serif" letter-spacing="1.5">OTHER TICKETS IN PROGRESS</text>
  <line x1="890" y1="448" x2="1330" y2="448" stroke="#2D3148" stroke-width="1"/>

  <!-- ─── TICKET CARD: Table 3 (RED — 18min) ─── -->
  <rect x="716" y="460" width="196" height="220" rx="12" fill="#1e0a0a" stroke="#EF4444" stroke-width="2"/>

  <!-- Card header -->
  <rect x="716" y="460" width="196" height="44" rx="12" fill="#2a0a0a"/>
  <rect x="716" y="488" width="196" height="16" fill="#2a0a0a"/>
  <rect x="716" y="503" width="196" height="1" fill="#EF4444" opacity="0.4"/>

  <!-- Alert badge -->
  <rect x="728" y="470" width="50" height="18" rx="9" fill="#EF4444"/>
  <text x="753" y="482" fill="white" font-size="8" font-weight="800" font-family="-apple-system, sans-serif" text-anchor="middle">LATE</text>

  <!-- Timer -->
  <text x="898" y="482" fill="#EF4444" font-size="13" font-weight="800" font-family="-apple-system, sans-serif" text-anchor="end">18:23</text>

  <!-- Table name -->
  <text x="728" y="498" fill="#EF4444" font-size="11" font-weight="700" font-family="-apple-system, sans-serif">Table 3</text>

  <!-- Items -->
  <text x="728" y="520" fill="#94A3B8" font-size="9" font-weight="600" font-family="-apple-system, sans-serif">2× BBQ Burger</text>
  <rect x="728" y="525" width="74" height="14" rx="7" fill="#EF4444" opacity="0.15"/>
  <text x="765" y="535" fill="#EF4444" font-size="8" font-weight="600" font-family="-apple-system, sans-serif" text-anchor="middle">WELL DONE</text>

  <text x="728" y="550" fill="#94A3B8" font-size="9" font-weight="600" font-family="-apple-system, sans-serif">1× Fish Burger</text>
  <rect x="728" y="555" width="66" height="14" rx="7" fill="#EF4444" opacity="0.15"/>
  <text x="761" y="565" fill="#EF4444" font-size="8" font-weight="600" font-family="-apple-system, sans-serif" text-anchor="middle">GLUTEN-FREE</text>

  <text x="728" y="580" fill="#94A3B8" font-size="9" font-weight="600" font-family="-apple-system, sans-serif">3× Fries</text>
  <text x="728" y="596" fill="#94A3B8" font-size="9" font-weight="600" font-family="-apple-system, sans-serif">2× Onion Rings</text>
  <text x="728" y="612" fill="#94A3B8" font-size="9" font-weight="600" font-family="-apple-system, sans-serif">1× Caesar Salad</text>

  <!-- Status -->
  <rect x="728" y="622" width="168" height="20" rx="6" fill="#EF4444" opacity="0.15"/>
  <text x="812" y="635" fill="#EF4444" font-size="9" font-weight="700" font-family="-apple-system, sans-serif" text-anchor="middle">OVERDUE — ESCALATE</text>

  <!-- Bump button -->
  <rect x="728" y="648" width="168" height="24" rx="8" fill="#EF4444"/>
  <text x="812" y="664" fill="white" font-size="10" font-weight="700" font-family="-apple-system, sans-serif" text-anchor="middle">BUMP ✓</text>

  <!-- ─── TICKET CARD: Table 5 (YELLOW — 9min) ─── -->
  <rect x="924" y="460" width="196" height="220" rx="12" fill="#1a1500" stroke="#F59E0B" stroke-width="2"/>

  <rect x="924" y="460" width="196" height="44" rx="12" fill="#241c00"/>
  <rect x="924" y="488" width="196" height="16" fill="#241c00"/>
  <rect x="924" y="503" width="196" height="1" fill="#F59E0B" opacity="0.4"/>

  <rect x="936" y="470" width="52" height="18" rx="9" fill="#F59E0B"/>
  <text x="962" y="482" fill="#0F1117" font-size="8" font-weight="800" font-family="-apple-system, sans-serif" text-anchor="middle">IN PROG</text>

  <text x="1106" y="482" fill="#F59E0B" font-size="13" font-weight="800" font-family="-apple-system, sans-serif" text-anchor="end">9:14</text>

  <text x="936" y="498" fill="#F59E0B" font-size="11" font-weight="700" font-family="-apple-system, sans-serif">Table 5</text>

  <text x="936" y="520" fill="#94A3B8" font-size="9" font-weight="600" font-family="-apple-system, sans-serif">2× Classic Burger</text>
  <text x="936" y="538" fill="#94A3B8" font-size="9" font-weight="600" font-family="-apple-system, sans-serif">1× Veggie Burger</text>
  <rect x="936" y="543" width="66" height="14" rx="7" fill="#F59E0B" opacity="0.15"/>
  <text x="969" y="553" fill="#F59E0B" font-size="8" font-weight="600" font-family="-apple-system, sans-serif" text-anchor="middle">NO CHEESE</text>

  <text x="936" y="570" fill="#94A3B8" font-size="9" font-weight="600" font-family="-apple-system, sans-serif">1× Chicken Burger</text>
  <text x="936" y="588" fill="#94A3B8" font-size="9" font-weight="600" font-family="-apple-system, sans-serif">4× Fries</text>
  <text x="936" y="606" fill="#94A3B8" font-size="9" font-weight="600" font-family="-apple-system, sans-serif">2× Drinks</text>

  <rect x="936" y="622" width="168" height="20" rx="6" fill="#F59E0B" opacity="0.15"/>
  <text x="1020" y="635" fill="#F59E0B" font-size="9" font-weight="700" font-family="-apple-system, sans-serif" text-anchor="middle">ON TRACK</text>

  <rect x="936" y="648" width="168" height="24" rx="8" fill="#F59E0B"/>
  <text x="1020" y="664" fill="#0F1117" font-size="10" font-weight="700" font-family="-apple-system, sans-serif" text-anchor="middle">BUMP ✓</text>

  <!-- ─── TICKET CARD: Takeout #42 (GREEN — 2min) ─── -->
  <rect x="1132" y="460" width="196" height="220" rx="12" fill="#0a1e14" stroke="#10B981" stroke-width="2"/>

  <rect x="1132" y="460" width="196" height="44" rx="12" fill="#0d2b1e"/>
  <rect x="1132" y="488" width="196" height="16" fill="#0d2b1e"/>
  <rect x="1132" y="503" width="196" height="1" fill="#10B981" opacity="0.4"/>

  <rect x="1144" y="470" width="48" height="18" rx="9" fill="#10B981"/>
  <text x="1168" y="482" fill="white" font-size="8" font-weight="800" font-family="-apple-system, sans-serif" text-anchor="middle">FRESH</text>

  <text x="1314" y="482" fill="#10B981" font-size="13" font-weight="800" font-family="-apple-system, sans-serif" text-anchor="end">2:06</text>

  <text x="1144" y="498" fill="#10B981" font-size="11" font-weight="700" font-family="-apple-system, sans-serif">Takeout #42</text>

  <text x="1144" y="520" fill="#94A3B8" font-size="9" font-weight="600" font-family="-apple-system, sans-serif">1× Mushroom Burger</text>
  <text x="1144" y="538" fill="#94A3B8" font-size="9" font-weight="600" font-family="-apple-system, sans-serif">1× BBQ Burger</text>
  <rect x="1144" y="543" width="62" height="14" rx="7" fill="#10B981" opacity="0.15"/>
  <text x="1175" y="553" fill="#10B981" font-size="8" font-weight="600" font-family="-apple-system, sans-serif" text-anchor="middle">EXTRA SAUCE</text>

  <text x="1144" y="570" fill="#94A3B8" font-size="9" font-weight="600" font-family="-apple-system, sans-serif">2× Fries — no salt</text>
  <text x="1144" y="588" fill="#94A3B8" font-size="9" font-weight="600" font-family="-apple-system, sans-serif">1× Diet Coke</text>
  <text x="1144" y="606" fill="#94A3B8" font-size="9" font-weight="600" font-family="-apple-system, sans-serif">1× Lemonade</text>

  <rect x="1144" y="622" width="168" height="20" rx="6" fill="#10B981" opacity="0.15"/>
  <text x="1228" y="635" fill="#10B981" font-size="9" font-weight="700" font-family="-apple-system, sans-serif" text-anchor="middle">ALMOST READY</text>

  <rect x="1144" y="648" width="168" height="24" rx="8" fill="url(#green-grad)"/>
  <text x="1228" y="664" fill="white" font-size="10" font-weight="700" font-family="-apple-system, sans-serif" text-anchor="middle">BUMP ✓</text>

  <!-- ─── KDS BOTTOM STATS BAR ─── -->
  <rect x="716" y="690" width="628" height="1" fill="#2D3148"/>
  <rect x="716" y="698" width="628" height="58" rx="8" fill="#141728" stroke="#2D3148" stroke-width="1"/>

  <!-- Stat pills -->
  <rect x="728" y="708" width="130" height="38" rx="8" fill="#1A1D2E"/>
  <text x="793" y="726" fill="#64748B" font-size="9" font-family="-apple-system, sans-serif" text-anchor="middle">Avg. Ticket Time</text>
  <text x="793" y="741" fill="#F1F5F9" font-size="13" font-weight="700" font-family="-apple-system, sans-serif" text-anchor="middle">11:42</text>

  <rect x="866" y="708" width="130" height="38" rx="8" fill="#1A1D2E"/>
  <text x="931" y="726" fill="#64748B" font-size="9" font-family="-apple-system, sans-serif" text-anchor="middle">Tickets Today</text>
  <text x="931" y="741" fill="#F1F5F9" font-size="13" font-weight="700" font-family="-apple-system, sans-serif" text-anchor="middle">87</text>

  <rect x="1004" y="708" width="130" height="38" rx="8" fill="#1A1D2E"/>
  <text x="1069" y="726" fill="#64748B" font-size="9" font-family="-apple-system, sans-serif" text-anchor="middle">Via Handheld</text>
  <text x="1069" y="741" fill="#8B5CF6" font-size="13" font-weight="700" font-family="-apple-system, sans-serif" text-anchor="middle">23</text>

  <rect x="1142" y="708" width="130" height="38" rx="8" fill="#1A1D2E"/>
  <text x="1207" y="726" fill="#64748B" font-size="9" font-family="-apple-system, sans-serif" text-anchor="middle">Bump Rate</text>
  <text x="1207" y="741" fill="#10B981" font-size="13" font-weight="700" font-family="-apple-system, sans-serif" text-anchor="middle">94.3%</text>

  <!-- ─── KDS NOTIFICATION / INFO CARDS ─── -->
  <!-- Handoff note -->
  <rect x="716" y="766" width="628" height="56" rx="8" fill="#16131e" stroke="#8B5CF6" stroke-width="1"/>
  <text x="732" y="786" fill="#8B5CF6" font-size="10" font-weight="700" font-family="-apple-system, sans-serif">⬡ Handheld Integration Active</text>
  <text x="732" y="803" fill="#94A3B8" font-size="10" font-family="-apple-system, sans-serif">Orders fire directly from server's iPhone to this KDS. Partial fires show all seats. Final fire closes ticket.</text>
  <text x="732" y="816" fill="#64748B" font-size="9" font-family="-apple-system, sans-serif">Toast Go compatible workflow — no return trip to POS terminal required.</text>

  <!-- Mode badges -->
  <rect x="716" y="832" width="628" height="42" rx="8" fill="#141728"/>

  <rect x="728" y="840" width="88" height="26" rx="13" fill="#1e2a1a" stroke="#10B981" stroke-width="1"/>
  <text x="772" y="857" fill="#10B981" font-size="9" font-weight="700" font-family="-apple-system, sans-serif" text-anchor="middle">● KDS Online</text>

  <rect x="824" y="840" width="104" height="26" rx="13" fill="#16131e" stroke="#8B5CF6" stroke-width="1"/>
  <text x="876" y="857" fill="#8B5CF6" font-size="9" font-weight="700" font-family="-apple-system, sans-serif" text-anchor="middle">Handheld Mode</text>

  <rect x="936" y="840" width="96" height="26" rx="13" fill="#1a1500" stroke="#F59E0B" stroke-width="1"/>
  <text x="984" y="857" fill="#F59E0B" font-size="9" font-weight="700" font-family="-apple-system, sans-serif" text-anchor="middle">Partial Fire ⚠</text>

  <rect x="1040" y="840" width="96" height="26" rx="13" fill="#1A1D2E" stroke="#2D3148" stroke-width="1"/>
  <text x="1088" y="857" fill="#64748B" font-size="9" font-weight="600" font-family="-apple-system, sans-serif" text-anchor="middle">Grill Station</text>

  <rect x="1144" y="840" width="86" height="26" rx="13" fill="#1A1D2E" stroke="#2D3148" stroke-width="1"/>
  <text x="1187" y="857" fill="#64748B" font-size="9" font-weight="600" font-family="-apple-system, sans-serif" text-anchor="middle">Expo: Ready</text>

  <!-- ─── PANEL LABEL ─── -->
  <text x="1030" y="1000" fill="#64748B" font-size="10" font-family="-apple-system, sans-serif" text-anchor="middle">KDS — Grill Station Display · Real-time fire from Handheld</text>

  <!-- ═══════════════════════════════════════════════════════════════ -->
  <!-- DIVIDER LINES BETWEEN PANELS                                    -->
  <!-- ═══════════════════════════════════════════════════════════════ -->
  <line x1="506" y1="80" x2="506" y2="1010" stroke="#2D3148" stroke-width="1" stroke-dasharray="4,4"/>
  <line x1="706" y1="80" x2="706" y2="1010" stroke="#2D3148" stroke-width="1" stroke-dasharray="4,4"/>

  <!-- ═══════════════════════════════════════════════════════════════ -->
  <!-- BOTTOM LEGEND BAR                                               -->
  <!-- ═══════════════════════════════════════════════════════════════ -->
  <rect x="0" y="1010" width="1366" height="14" fill="#13162A" opacity="0.95"/>
  <text x="24" y="1021" fill="#64748B" font-size="9" font-family="-apple-system, sans-serif">Synalux POS · Tableside Handheld Ordering · iPad 1366×1024 Mockup</text>
  <text x="683" y="1021" fill="#64748B" font-size="9" font-family="-apple-system, sans-serif" text-anchor="middle">LEFT: iPhone Handheld (Server) · CENTER: Connection Status · RIGHT: KDS Confirmation (Kitchen)</text>
  <text x="1342" y="1021" fill="#64748B" font-size="9" font-family="-apple-system, sans-serif" text-anchor="end">v0.1 · Staff View</text>
</svg>
