<svg xmlns="http://www.w3.org/2000/svg" viewBox="0 0 1366 1024" font-family="system-ui,-apple-system,sans-serif">
  <!-- Background -->
  <rect width="1366" height="1024" fill="#0F1117"/>

  <!-- Dimmed background layer (modal overlay effect) -->
  <rect width="1366" height="1024" fill="#000000" opacity="0.6"/>

  <!-- Payment modal card - centered -->
  <rect x="80" y="40" width="1206" height="944" rx="20" fill="#13162A"/>
  <rect x="80" y="40" width="1206" height="944" rx="20" fill="none" stroke="#2D3050" stroke-width="1"/>

  <!-- Modal header -->
  <rect x="80" y="40" width="1206" height="70" rx="20" fill="#1A1D2E"/>
  <rect x="80" y="90" width="1206" height="20" fill="#1A1D2E"/>

  <text x="140" y="85" fill="#E2E8F0" font-size="22" font-weight="700">Payment — Table 4</text>
  <text x="140" y="102" fill="#94A3B8" font-size="14">2 guests · John S. · 12 min</text>

  <!-- Close button -->
  <rect x="1230" y="55" width="40" height="40" rx="8" fill="#1E2235"/>
  <text x="1250" y="79" fill="#64748B" font-size="20" text-anchor="middle">✕</text>

  <!-- LEFT SIDE: Order summary -->
  <rect x="100" y="120" width="380" height="840" rx="12" fill="#0F1117"/>

  <text x="120" y="155" fill="#64748B" font-size="11" font-weight="700" letter-spacing="1">ORDER SUMMARY</text>

  <!-- Items list -->
  <text x="120" y="186" fill="#94A3B8" font-size="13">1×</text>
  <text x="145" y="186" fill="#E2E8F0" font-size="13" font-weight="500">Classic Burger (no onions)</text>
  <text x="462" y="186" fill="#E2E8F0" font-size="13" text-anchor="end">$12.00</text>

  <text x="120" y="210" fill="#94A3B8" font-size="13">1×</text>
  <text x="145" y="210" fill="#E2E8F0" font-size="13" font-weight="500">Large Fries</text>
  <text x="462" y="210" fill="#E2E8F0" font-size="13" text-anchor="end">$4.50</text>

  <text x="120" y="234" fill="#94A3B8" font-size="13">1×</text>
  <text x="145" y="234" fill="#E2E8F0" font-size="13" font-weight="500">Soft Drink — Pepsi</text>
  <text x="462" y="234" fill="#E2E8F0" font-size="13" text-anchor="end">$3.00</text>

  <rect x="120" y="244" width="360" height="1" fill="#2D3050"/>

  <text x="120" y="268" fill="#94A3B8" font-size="13">1×</text>
  <text x="145" y="268" fill="#E2E8F0" font-size="13" font-weight="500">Caesar Salad (no croutons)</text>
  <text x="462" y="268" fill="#E2E8F0" font-size="13" text-anchor="end">$8.00</text>

  <text x="120" y="292" fill="#94A3B8" font-size="13">1×</text>
  <text x="145" y="292" fill="#E2E8F0" font-size="13" font-weight="500">Draft Beer</text>
  <text x="462" y="292" fill="#E2E8F0" font-size="13" text-anchor="end">$6.00</text>

  <rect x="120" y="308" width="360" height="1" fill="#2D3050"/>

  <!-- Totals -->
  <text x="120" y="336" fill="#94A3B8" font-size="13">Subtotal</text>
  <text x="462" y="336" fill="#E2E8F0" font-size="13" text-anchor="end">$33.50</text>

  <text x="120" y="360" fill="#22C55E" font-size="13">Staff Disc (10%)</text>
  <text x="462" y="360" fill="#22C55E" font-size="13" text-anchor="end">−$3.35</text>

  <text x="120" y="384" fill="#94A3B8" font-size="13">Tax (8.5%)</text>
  <text x="462" y="384" fill="#E2E8F0" font-size="13" text-anchor="end">$2.56</text>

  <rect x="120" y="396" width="360" height="2" fill="#2D3050"/>

  <text x="120" y="424" fill="#E2E8F0" font-size="16" font-weight="700">TOTAL</text>
  <text x="462" y="424" fill="#F59E0B" font-size="22" font-weight="700" text-anchor="end">$32.71</text>

  <!-- Tip section -->
  <rect x="120" y="436" width="360" height="1" fill="#2D3050"/>
  <text x="120" y="460" fill="#64748B" font-size="11" font-weight="700" letter-spacing="1">TIP</text>

  <!-- Tip buttons -->
  <rect x="120" y="468" width="82" height="44" rx="8" fill="#1E2235"/>
  <text x="161" y="487" fill="#94A3B8" font-size="13" font-weight="600" text-anchor="middle">15%</text>
  <text x="161" y="503" fill="#64748B" font-size="11" text-anchor="middle">$4.91</text>

  <rect x="208" y="468" width="82" height="44" rx="8" fill="#1A1D2E" stroke="#F59E0B" stroke-width="2"/>
  <text x="249" y="487" fill="#F59E0B" font-size="13" font-weight="700" text-anchor="middle">18%</text>
  <text x="249" y="503" fill="#F59E0B" font-size="11" text-anchor="middle">$5.89</text>

  <rect x="296" y="468" width="82" height="44" rx="8" fill="#1E2235"/>
  <text x="337" y="487" fill="#94A3B8" font-size="13" font-weight="600" text-anchor="middle">20%</text>
  <text x="337" y="503" fill="#64748B" font-size="11" text-anchor="middle">$6.54</text>

  <rect x="384" y="468" width="96" height="44" rx="8" fill="#1E2235"/>
  <text x="432" y="487" fill="#94A3B8" font-size="13" font-weight="600" text-anchor="middle">Custom</text>
  <text x="432" y="503" fill="#64748B" font-size="11" text-anchor="middle">$ ___</text>

  <!-- Grand total with tip -->
  <rect x="120" y="522" width="360" height="1" fill="#2D3050"/>
  <text x="120" y="550" fill="#E2E8F0" font-size="14" font-weight="700">Total with tip (18%)</text>
  <text x="462" y="550" fill="#F59E0B" font-size="20" font-weight="700" text-anchor="end">$38.60</text>

  <!-- Split check section -->
  <rect x="120" y="562" width="360" height="1" fill="#2D3050"/>
  <text x="120" y="588" fill="#64748B" font-size="11" font-weight="700" letter-spacing="1">SPLIT OPTIONS</text>

  <rect x="120" y="596" width="115" height="40" rx="8" fill="#1E2235"/>
  <text x="177" y="621" fill="#94A3B8" font-size="12" font-weight="600" text-anchor="middle">Full Check</text>

  <rect x="241" y="596" width="115" height="40" rx="8" fill="#1A1D2E" stroke="#3B82F6" stroke-width="1"/>
  <text x="298" y="615" fill="#60A5FA" font-size="12" font-weight="600" text-anchor="middle">By Seat</text>
  <text x="298" y="629" fill="#60A5FA" font-size="10" text-anchor="middle">2 seats</text>

  <rect x="362" y="596" width="118" height="40" rx="8" fill="#1E2235"/>
  <text x="421" y="615" fill="#94A3B8" font-size="12" font-weight="600" text-anchor="middle">Even Split</text>
  <text x="421" y="629" fill="#64748B" font-size="10" text-anchor="middle">$19.30 each</text>

  <!-- Receipt options -->
  <rect x="120" y="646" width="360" height="1" fill="#2D3050"/>
  <text x="120" y="672" fill="#64748B" font-size="11" font-weight="700" letter-spacing="1">RECEIPT</text>

  <rect x="120" y="680" width="82" height="40" rx="8" fill="#1A1D2E" stroke="#F59E0B" stroke-width="1"/>
  <text x="161" y="705" fill="#F59E0B" font-size="12" font-weight="600" text-anchor="middle">🖨 Print</text>

  <rect x="208" y="680" width="82" height="40" rx="8" fill="#1E2235"/>
  <text x="249" y="705" fill="#94A3B8" font-size="12" font-weight="600" text-anchor="middle">📱 SMS</text>

  <rect x="296" y="680" width="82" height="40" rx="8" fill="#1E2235"/>
  <text x="337" y="705" fill="#94A3B8" font-size="12" font-weight="600" text-anchor="middle">✉ Email</text>

  <rect x="384" y="680" width="96" height="40" rx="8" fill="#1E2235"/>
  <text x="432" y="705" fill="#94A3B8" font-size="12" font-weight="600" text-anchor="middle">No Receipt</text>

  <!-- CENTER: Payment methods -->
  <rect x="500" y="120" width="400" height="840" rx="12" fill="#0F1117"/>

  <text x="700" y="155" fill="#64748B" font-size="11" font-weight="700" letter-spacing="1" text-anchor="middle">PAYMENT METHOD</text>

  <!-- Card (selected/active) -->
  <rect x="520" y="165" width="360" height="90" rx="14" fill="#1A1D2E" stroke="#F59E0B" stroke-width="2"/>
  <rect x="536" y="181" width="64" height="58" rx="10" fill="#F59E0B"/>
  <text x="568" y="218" fill="#0F1117" font-size="28" text-anchor="middle">💳</text>
  <text x="620" y="196" fill="#E2E8F0" font-size="16" font-weight="700">Credit / Debit Card</text>
  <text x="620" y="216" fill="#94A3B8" font-size="13">Tap, chip, or swipe</text>
  <text x="620" y="236" fill="#22C55E" font-size="12">✓ Stripe Terminal ready</text>
  <!-- Selected indicator -->
  <circle cx="862" cy="210" r="12" fill="#F59E0B"/>
  <text x="862" y="215" fill="#0F1117" font-size="14" font-weight="700" text-anchor="middle">✓</text>

  <!-- Cash -->
  <rect x="520" y="268" width="360" height="90" rx="14" fill="#1E2235"/>
  <rect x="536" y="284" width="64" height="58" rx="10" fill="#1A3320"/>
  <text x="568" y="321" fill="#22C55E" font-size="28" text-anchor="middle">💵</text>
  <text x="620" y="299" fill="#E2E8F0" font-size="16" font-weight="700">Cash</text>
  <text x="620" y="319" fill="#94A3B8" font-size="13">Manual entry — change calc</text>
  <text x="620" y="339" fill="#64748B" font-size="12">Exact: $38.60 · $40 → $1.40 chg</text>
  <circle cx="862" cy="313" r="12" fill="#2D3050"/>

  <!-- Gift Card -->
  <rect x="520" y="372" width="360" height="90" rx="14" fill="#1E2235"/>
  <rect x="536" y="388" width="64" height="58" rx="10" fill="#1A2D10"/>
  <text x="568" y="425" fill="#4ADE80" font-size="28" text-anchor="middle">🎁</text>
  <text x="620" y="403" fill="#E2E8F0" font-size="16" font-weight="700">Gift Card</text>
  <text x="620" y="423" fill="#94A3B8" font-size="13">Swipe or enter code</text>
  <text x="620" y="443" fill="#64748B" font-size="12">Balance check auto on entry</text>
  <circle cx="862" cy="417" r="12" fill="#2D3050"/>

  <!-- Mobile Pay -->
  <rect x="520" y="476" width="360" height="90" rx="14" fill="#1E2235"/>
  <rect x="536" y="492" width="64" height="58" rx="10" fill="#102D2D"/>
  <text x="568" y="529" fill="#06B6D4" font-size="28" text-anchor="middle">📱</text>
  <text x="620" y="507" fill="#E2E8F0" font-size="16" font-weight="700">Apple Pay / Google Pay</text>
  <text x="620" y="527" fill="#94A3B8" font-size="13">NFC contactless tap</text>
  <text x="620" y="547" fill="#64748B" font-size="12">Tap-to-pay on terminal</text>
  <circle cx="862" cy="521" r="12" fill="#2D3050"/>

  <!-- House Account -->
  <rect x="520" y="580" width="360" height="90" rx="14" fill="#1E2235"/>
  <rect x="536" y="596" width="64" height="58" rx="10" fill="#2D102D"/>
  <text x="568" y="633" fill="#A855F7" font-size="28" text-anchor="middle">🏦</text>
  <text x="620" y="611" fill="#E2E8F0" font-size="16" font-weight="700">House Account</text>
  <text x="620" y="631" fill="#94A3B8" font-size="13">Corporate / tab billing</text>
  <text x="620" y="651" fill="#64748B" font-size="12">Requires manager pin</text>
  <circle cx="862" cy="625" r="12" fill="#2D3050"/>

  <!-- Pre-auth -->
  <rect x="520" y="684" width="360" height="90" rx="14" fill="#1E2235"/>
  <rect x="536" y="700" width="64" height="58" rx="10" fill="#2D2000"/>
  <text x="568" y="737" fill="#F59E0B" font-size="28" text-anchor="middle">🔒</text>
  <text x="620" y="715" fill="#E2E8F0" font-size="16" font-weight="700">Pre-Auth (Bar Tab)</text>
  <text x="620" y="735" fill="#94A3B8" font-size="13">Hold card — settle on close</text>
  <text x="620" y="755" fill="#64748B" font-size="12">Capture final amount at end</text>
  <circle cx="862" cy="729" r="12" fill="#2D3050"/>

  <!-- RIGHT SIDE: Card terminal / confirmation -->
  <rect x="920" y="120" width="346" height="840" rx="12" fill="#0F1117"/>

  <text x="1093" y="155" fill="#64748B" font-size="11" font-weight="700" letter-spacing="1" text-anchor="middle">TERMINAL STATUS</text>

  <!-- Card terminal mockup -->
  <rect x="950" y="165" width="286" height="320" rx="16" fill="#1A1D2E" stroke="#F59E0B" stroke-width="2"/>
  <!-- Terminal screen -->
  <rect x="966" y="181" width="254" height="160" rx="10" fill="#0D1018"/>
  <!-- Terminal display content -->
  <text x="1093" y="230" fill="#22C55E" font-size="16" font-weight="700" text-anchor="middle">Ready to Tap</text>
  <text x="1093" y="258" fill="#E2E8F0" font-size="28" font-weight="700" text-anchor="middle">$38.60</text>
  <text x="1093" y="284" fill="#94A3B8" font-size="13" text-anchor="middle">Tap · Insert · Swipe</text>
  <!-- Animated tap indicator -->
  <circle cx="1093" cy="316" r="20" fill="#F59E0B" opacity="0.15"/>
  <circle cx="1093" cy="316" r="12" fill="#F59E0B" opacity="0.4"/>
  <circle cx="1093" cy="316" r="6" fill="#F59E0B"/>

  <!-- Terminal body details -->
  <text x="1093" y="380" fill="#64748B" font-size="12" text-anchor="middle">Stripe Terminal P400</text>
  <!-- Chip slot -->
  <rect x="1033" y="386" width="120" height="14" rx="3" fill="#0F1117" stroke="#2D3050" stroke-width="1"/>
  <text x="1093" y="397" fill="#2D3050" font-size="9" text-anchor="middle">CHIP ▶</text>
  <!-- Swipe strip indicator -->
  <rect x="1220" y="195" width="8" height="140" rx="3" fill="#2D1A00" stroke="#F59E0B" stroke-width="1" stroke-dasharray="4,4"/>
  <!-- Key buttons -->
  <rect x="970" y="418" width="56" height="24" rx="4" fill="#1E2235"/>
  <text x="998" y="434" fill="#94A3B8" font-size="11" text-anchor="middle">Cancel</text>
  <rect x="1034" y="418" width="56" height="24" rx="4" fill="#1E2235"/>
  <text x="1062" y="434" fill="#94A3B8" font-size="11" text-anchor="middle">Clear</text>
  <rect x="1150" y="418" width="78" height="24" rx="4" fill="#1A3320"/>
  <text x="1189" y="434" fill="#22C55E" font-size="11" text-anchor="middle">Enter ✓</text>

  <!-- Manual entry fallback -->
  <rect x="950" y="498" width="286" height="1" fill="#2D3050"/>
  <text x="1093" y="524" fill="#64748B" font-size="12" text-anchor="middle">Or enter card manually:</text>

  <rect x="950" y="530" width="286" height="44" rx="8" fill="#1E2235"/>
  <text x="958" y="557" fill="#64748B" font-size="14">XXXX XXXX XXXX ____</text>

  <rect x="950" y="582" width="135" height="40" rx="8" fill="#1E2235"/>
  <text x="1017" y="607" fill="#64748B" font-size="13" text-anchor="middle">MM/YY</text>

  <rect x="1093" y="582" width="143" height="40" rx="8" fill="#1E2235"/>
  <text x="1164" y="607" fill="#64748B" font-size="13" text-anchor="middle">CVV</text>

  <rect x="950" y="632" width="286" height="44" rx="8" fill="#1A1D2E" stroke="#F59E0B" stroke-width="1"/>
  <text x="1093" y="659" fill="#F59E0B" font-size="14" font-weight="600" text-anchor="middle">Submit Manual Entry</text>

  <!-- Quick void / comp -->
  <rect x="950" y="690" width="286" height="1" fill="#2D3050"/>

  <rect x="950" y="700" width="135" height="40" rx="8" fill="#2D0808"/>
  <text x="1017" y="725" fill="#EF4444" font-size="13" font-weight="600" text-anchor="middle">Void Transaction</text>

  <rect x="1093" y="700" width="143" height="40" rx="8" fill="#1E2235"/>
  <text x="1164" y="725" fill="#94A3B8" font-size="13" font-weight="600" text-anchor="middle">Comp Table</text>

  <!-- Offline indicator -->
  <rect x="950" y="752" width="286" height="36" rx="8" fill="#1A102D" stroke="#7C3AED" stroke-width="1" stroke-dasharray="4,3"/>
  <text x="1093" y="775" fill="#A855F7" font-size="12" text-anchor="middle">⚡ Offline fallback ready (Stripe)</text>

  <!-- CHARGE BUTTON — Full width at bottom -->
  <rect x="100" y="886" width="1166" height="78" rx="14" fill="#22C55E"/>
  <!-- Shine effect -->
  <rect x="100" y="886" width="583" height="78" rx="14" fill="white" opacity="0.05"/>
  <text x="683" y="916" fill="white" font-size="24" font-weight="700" text-anchor="middle">💳  Charge $38.60</text>
  <text x="683" y="944" fill="#D1FAE5" font-size="14" text-anchor="middle">Tap card on terminal · Tip 18% included</text>

  <!-- Screen label -->
  <text x="683" y="1016" fill="#0F1117" font-size="11" text-anchor="middle">Synalux POS — Payment Screen (F09 Payment Ops Core · iPad 1366×1024)</text>
</svg>
