<svg role="img" aria-labelledby="title-ipad_reservations-svg" xmlns="http://www.w3.org/2000/svg" viewBox="0 0 1366 1024"
     font-family="-apple-system,BlinkMacSystemFont,'SF Pro Display','Segoe UI',sans-serif">

  <!-- ================================================================== -->
  <!-- DEFS: Shared gradients, filters, symbols for repeated UI elements  -->
  <!-- ================================================================== -->
  <title id="title-ipad_reservations-svg">Synalux POS — reservations</title>
  <desc>Synalux POS mockup screen for reservations. All UI elements admin-configurable.</desc>
  <defs>
    <!-- Background gradient -->
    <linearGradient id="bgGrad" x1="0" y1="0" x2="0" y2="1">
      <stop offset="0%" stop-color="#0C0E1A"/>
      <stop offset="100%" stop-color="#0A0C16"/>
    </linearGradient>

    <!-- Card gradient -->
    <linearGradient id="cardGrad" x1="0" y1="0" x2="0" y2="1">
      <stop offset="0%" stop-color="#1A1D2E"/>
      <stop offset="100%" stop-color="#161930"/>
    </linearGradient>

    <!-- Amber button gradient -->
    <linearGradient id="amberBtnGrad" x1="0" y1="0" x2="0" y2="1">
      <stop offset="0%" stop-color="#FBBF24"/>
      <stop offset="100%" stop-color="#F59E0B"/>
    </linearGradient>

    <!-- Green button gradient -->
    <linearGradient id="greenBtnGrad" x1="0" y1="0" x2="0" y2="1">
      <stop offset="0%" stop-color="#4ADE80"/>
      <stop offset="100%" stop-color="#22C55E"/>
    </linearGradient>

    <!-- Purple button gradient -->
    <linearGradient id="purpleBtnGrad" x1="0" y1="0" x2="0" y2="1">
      <stop offset="0%" stop-color="#A78BFA"/>
      <stop offset="100%" stop-color="#8B5CF6"/>
    </linearGradient>

    <!-- Red button gradient -->
    <linearGradient id="redBtnGrad" x1="0" y1="0" x2="0" y2="1">
      <stop offset="0%" stop-color="#F87171"/>
      <stop offset="100%" stop-color="#EF4444"/>
    </linearGradient>

    <!-- Card drop shadow -->
    <filter id="cardShadow" x="-4%" y="-4%" width="108%" height="116%">
      <feDropShadow dx="0" dy="2" stdDeviation="4" flood-color="#000000" flood-opacity="0.35"/>
    </filter>

    <!-- Elevated card shadow -->
    <filter id="elevShadow" x="-4%" y="-4%" width="108%" height="120%">
      <feDropShadow dx="0" dy="4" stdDeviation="8" flood-color="#000000" flood-opacity="0.45"/>
    </filter>

    <!-- Amber glow for active nav -->
    <filter id="amberGlow">
      <feDropShadow dx="0" dy="0" stdDeviation="3" flood-color="#F59E0B" flood-opacity="0.4"/>
    </filter>

    <!-- ============================================================ -->
    <!-- SYMBOL: Nav Tab (inactive) — reused for each top nav item    -->
    <!-- ============================================================ -->
    <symbol id="navTab" overflow="visible">
      <!-- text content set via <use> + nested <text> override -->
    </symbol>

    <!-- ============================================================ -->
    <!-- SYMBOL: Stat Card — used 4x in stats bar                    -->
    <!-- Admin: Settings > Dashboard > Stats Display                  -->
    <!-- ============================================================ -->
    <symbol id="statCard" overflow="visible">
      <rect width="218" height="52" rx="8" fill="#0C0E1A" stroke="#1E2235" stroke-width="1" filter="url(#cardShadow)"/>
    </symbol>

    <!-- ============================================================ -->
    <!-- SYMBOL: Reservation Card — repeated 9x in left column       -->
    <!-- Admin: Settings > Reservations > Card Fields                 -->
    <!-- ============================================================ -->
    <symbol id="resCard" overflow="visible">
      <rect width="324" height="76" rx="8" fill="url(#cardGrad)" stroke="#1E2235" stroke-width="1" filter="url(#cardShadow)"/>
    </symbol>

    <!-- ============================================================ -->
    <!-- SYMBOL: Confirmed Badge — reused on multiple reservation cards -->
    <!-- Admin: Settings > Reservations > Status Labels               -->
    <!-- ============================================================ -->
    <symbol id="confirmedBadge" overflow="visible">
      <rect width="64" height="18" rx="9" fill="#22C55E" fill-opacity="0.2"/>
      <text x="32" y="12" fill="#22C55E" font-size="10" font-weight="600" text-anchor="middle">confirmed</text>
    </symbol>

    <!-- ============================================================ -->
    <!-- SYMBOL: Not Arrived Button — reused on several cards         -->
    <!-- Admin: Settings > Reservations > Status Actions              -->
    <!-- ============================================================ -->
    <symbol id="notArrivedBtn" overflow="visible">
      <rect width="98" height="24" rx="5" fill="#1E2235" stroke="#2A2E45" stroke-width="1"/>
      <text x="49" y="16" fill="#64748B" font-size="11" text-anchor="middle">Not Arrived</text>
    </symbol>

    <!-- ============================================================ -->
    <!-- SYMBOL: Waitlist Entry — repeated 4x in middle column        -->
    <!-- Admin: Settings > Reservations > Waitlist Fields             -->
    <!-- ============================================================ -->
    <symbol id="waitEntry" overflow="visible">
      <rect width="323" height="88" rx="8" fill="url(#cardGrad)" stroke="#1E2235" stroke-width="1" filter="url(#cardShadow)"/>
    </symbol>

    <!-- ============================================================ -->
    <!-- SYMBOL: Form Input Field — repeated in new reservation form  -->
    <!-- Admin: Settings > Reservations > Form Fields                 -->
    <!-- ============================================================ -->
    <symbol id="formInput" overflow="visible">
      <rect width="220" height="32" rx="6" fill="#0C0E1A" stroke="#1E2235" stroke-width="1"/>
    </symbol>

    <!-- ============================================================ -->
    <!-- SYMBOL: Time Slot — repeated 7x in form                     -->
    <!-- Admin: Settings > Reservations > Time Slot Intervals         -->
    <!-- ============================================================ -->
    <symbol id="timeSlotAvail" overflow="visible">
      <rect width="52" height="32" rx="6" fill="#F59E0B" fill-opacity="0.2" stroke="#F59E0B" stroke-width="1"/>
    </symbol>

    <!-- ============================================================ -->
    <!-- SYMBOL: Preference Chip (inactive) — repeated in form        -->
    <!-- Admin: Settings > Reservations > Table Preferences           -->
    <!-- ============================================================ -->
    <symbol id="prefChip" overflow="visible">
      <rect width="54" height="26" rx="13" fill="#1E2235" stroke="#2A2E45" stroke-width="1"/>
    </symbol>

    <!-- ============================================================ -->
    <!-- SYMBOL: Confirmation Chip (inactive) — repeated in form      -->
    <!-- Admin: Settings > Reservations > Confirmation Methods        -->
    <!-- ============================================================ -->
    <symbol id="confirmChip" overflow="visible">
      <rect width="86" height="26" rx="13" fill="#1E2235" stroke="#2A2E45" stroke-width="1"/>
    </symbol>

    <!-- ============================================================ -->
    <!-- SYMBOL: Admin Gear Icon — admin-configurability affordance   -->
    <!-- ============================================================ -->
    <symbol id="gearIcon" viewBox="0 0 16 16" overflow="visible">
      <path d="M8 5.5a2.5 2.5 0 100 5 2.5 2.5 0 000-5zM6.5 8a1.5 1.5 0 113 0 1.5 1.5 0 01-3 0z" fill="currentColor"/>
      <path d="M7 1h2l.35 1.8.9.37 1.6-.93 1.41 1.42-.93 1.6.37.89L14.5 7v2l-1.8.35-.37.9.93 1.6-1.42 1.41-1.6-.93-.89.37L9 14.5H7l-.35-1.8-.9-.37-1.6.93L2.74 11.84l.93-1.6-.37-.89L1.5 9V7l1.8-.35.37-.9-.93-1.6L4.16 2.74l1.6.93.89-.37L7 1.5z" fill="none" stroke="currentColor" stroke-width="0.8"/>
    </symbol>

    <!-- ============================================================ -->
    <!-- SYMBOL: Divider Line — horizontal rule reused in detail card -->
    <!-- ============================================================ -->
    <symbol id="hDivider" overflow="visible">
      <line x1="0" y1="0" x2="637" y2="0" stroke="#1E2235" stroke-width="1"/>
    </symbol>

    <!-- ============================================================ -->
    <!-- SYMBOL: History Row Divider — dashed, reused in history      -->
    <!-- ============================================================ -->
    <symbol id="hDividerDash" overflow="visible">
      <line x1="0" y1="0" x2="637" y2="0" stroke="#1E2235" stroke-width="0.5" stroke-dasharray="2,3"/>
    </symbol>
  </defs>

  <!-- ================================================================== -->
  <!-- BACKGROUND                                                         -->
  <!-- ================================================================== -->
  <rect width="1366" height="1024" fill="url(#bgGrad)"/>

  <!-- ================================================================== -->
  <!-- TOP NAV BAR h=56                                                   -->
  <!-- Admin: Settings > Appearance > Navigation                          -->
  <!-- ================================================================== -->
  <rect x="0" y="0" width="1366" height="56" fill="url(#cardGrad)"/>
  <rect x="0" y="55" width="1366" height="1" fill="#1E2235"/>

  <!-- Logo / Brand — Admin: Settings > Branding > Logo & Name -->
  <circle cx="20" cy="28" r="7" fill="#22C55E"/>
  <text x="34" y="33" fill="#22C55E" font-size="11" font-weight="600">LIVE</text>
  <text x="68" y="35" fill="#F59E0B" font-size="17" font-weight="700">Synalux POS</text>

  <!-- Nav Tabs — Admin: Settings > Navigation > Tab Order -->
  <text x="220" y="33" fill="#64748B" font-size="13" text-anchor="middle">Register</text>
  <text x="310" y="33" fill="#64748B" font-size="13" text-anchor="middle">Tables</text>
  <!-- Active tab: Reservations -->
  <text x="422" y="33" fill="#F59E0B" font-size="13" font-weight="600" text-anchor="middle" filter="url(#amberGlow)">Reservations</text>
  <rect x="366" y="52" width="112" height="3" rx="1" fill="#F59E0B"/>
  <text x="522" y="33" fill="#64748B" font-size="13" text-anchor="middle">KDS</text>
  <text x="602" y="33" fill="#64748B" font-size="13" text-anchor="middle">Reports</text>
  <!-- Settings tab with gear affordance -->
  <text x="690" y="33" fill="#64748B" font-size="13" text-anchor="middle">Settings</text>
  <use href="#gearIcon" x="722" y="22" width="14" height="14" color="#64748B"/>

  <!-- Right side: Server name + clock — Admin: Settings > Display > Clock Format -->
  <text x="1195" y="25" fill="#94A3B8" font-size="10">Server</text>
  <text x="1195" y="39" fill="#F1F5F9" font-size="13" font-weight="600">Marcus</text>
  <text x="1270" y="25" fill="#94A3B8" font-size="10">Wednesday</text>
  <text x="1270" y="39" fill="#F1F5F9" font-size="13" font-weight="600">6:42 PM</text>
  <!-- Wifi icon -->
  <path d="M1350 22 Q1358 14 1366 22" fill="none" stroke="#64748B" stroke-width="1.5" stroke-linecap="round"/>
  <path d="M1346 27 Q1358 12 1370 27" fill="none" stroke="#64748B" stroke-width="1.5" stroke-linecap="round"/>
  <circle cx="1358" cy="34" r="2.5" fill="#94A3B8"/>

  <!-- ================================================================== -->
  <!-- STATS BAR h=72 y=56                                                -->
  <!-- Admin: Settings > Dashboard > Visible Stats                        -->
  <!-- ================================================================== -->
  <rect x="0" y="56" width="1366" height="72" fill="url(#cardGrad)"/>
  <rect x="0" y="127" width="1366" height="1" fill="#1E2235"/>

  <!-- Stat 1: Tonight's Reservations — Admin: Settings > Reservations > Stats -->
  <use href="#statCard" x="12" y="66"/>
  <text x="22" y="82" fill="#64748B" font-size="10" font-weight="600" letter-spacing="0.5">TONIGHT'S RESERVATIONS</text>
  <text x="22" y="100" fill="#F1F5F9" font-size="16" font-weight="700">18 parties</text>
  <text x="110" y="100" fill="#94A3B8" font-size="13">/  64 covers</text>

  <!-- Stat 2: Currently Seated -->
  <use href="#statCard" x="240" y="66"/>
  <text x="250" y="82" fill="#64748B" font-size="10" font-weight="600" letter-spacing="0.5">CURRENTLY SEATED</text>
  <text x="250" y="100" fill="#22C55E" font-size="16" font-weight="700">6 tables</text>
  <text x="326" y="100" fill="#94A3B8" font-size="13">/  23 guests</text>

  <!-- Stat 3: On Waitlist -->
  <use href="#statCard" x="468" y="66"/>
  <text x="478" y="82" fill="#64748B" font-size="10" font-weight="600" letter-spacing="0.5">ON WAITLIST</text>
  <text x="478" y="100" fill="#F97316" font-size="16" font-weight="700">4 parties</text>
  <text x="546" y="100" fill="#94A3B8" font-size="13">(est. 25 min)</text>

  <!-- Stat 4: Available Tables -->
  <rect x="696" y="66" width="168" height="52" rx="8" fill="#0C0E1A" stroke="#1E2235" stroke-width="1" filter="url(#cardShadow)"/>
  <text x="706" y="82" fill="#64748B" font-size="10" font-weight="600" letter-spacing="0.5">AVAILABLE TABLES</text>
  <text x="706" y="100" fill="#F1F5F9" font-size="24" font-weight="700">8</text>

  <!-- + New Reservation button — Admin: Settings > Reservations > Quick Actions -->
  <rect x="882" y="69" width="172" height="46" rx="8" fill="url(#amberBtnGrad)" filter="url(#cardShadow)"/>
  <text x="968" y="97" fill="#0C0E1A" font-size="13" font-weight="700" text-anchor="middle">+ New Reservation</text>

  <!-- + Add to Waitlist button -->
  <rect x="1064" y="69" width="172" height="46" rx="8" fill="url(#purpleBtnGrad)" filter="url(#cardShadow)"/>
  <text x="1150" y="97" fill="#ffffff" font-size="13" font-weight="700" text-anchor="middle">+ Add to Waitlist</text>

  <!-- Admin gear affordance on stats bar -->
  <use href="#gearIcon" x="1340" y="82" width="12" height="12" color="#2A2E45"/>

  <!-- ================================================================== -->
  <!-- THREE-COLUMN LAYOUT y=128                                          -->
  <!-- ================================================================== -->
  <rect x="340" y="128" width="1" height="860" fill="#1E2235"/>
  <rect x="680" y="128" width="1" height="860" fill="#1E2235"/>

  <!-- ================================================================== -->
  <!-- LEFT COLUMN: Upcoming Reservations  x=0 w=340                      -->
  <!-- Admin: Settings > Reservations > List View                         -->
  <!-- ================================================================== -->
  <rect x="0" y="128" width="340" height="860" fill="url(#bgGrad)"/>

  <!-- Column Header + Admin gear -->
  <text x="12" y="154" fill="#F1F5F9" font-size="14" font-weight="700">Upcoming Reservations</text>
  <use href="#gearIcon" x="158" y="142" width="12" height="12" color="#2A2E45"/>

  <!-- Filter bar — Admin: Settings > Reservations > Filter Options -->
  <rect x="8" y="162" width="324" height="32" rx="6" fill="#161930"/>
  <!-- All tab (active) -->
  <rect x="10" y="163" width="56" height="29" rx="5" fill="url(#amberBtnGrad)"/>
  <text x="38" y="182" fill="#0C0E1A" font-size="12" font-weight="700" text-anchor="middle">All</text>
  <text x="100" y="182" fill="#94A3B8" font-size="12" text-anchor="middle">Today</text>
  <text x="174" y="182" fill="#94A3B8" font-size="12" text-anchor="middle">Tomorrow</text>
  <!-- Date picker — Admin: Settings > Reservations > Date Range -->
  <rect x="256" y="166" width="72" height="24" rx="4" fill="#0C0E1A" stroke="#1E2235" stroke-width="1"/>
  <text x="292" y="182" fill="#64748B" font-size="11" text-anchor="middle">May 27</text>
  <text x="318" y="183" fill="#64748B" font-size="10">&#x25BE;</text>

  <!-- Reservation Card 1: Johnson (SEATED) -->
  <use href="#resCard" x="8" y="200"/>
  <rect x="8" y="200" width="4" height="76" rx="2" fill="#22C55E"/>
  <text x="22" y="216" fill="#F59E0B" font-size="12" font-weight="700">6:00 PM</text>
  <use href="#confirmedBadge" x="262" y="204"/>
  <text x="22" y="232" fill="#F1F5F9" font-size="13" font-weight="600">Johnson, Sarah</text>
  <!-- Admin: Settings > Reservations > Party Size Display -->
  <text x="22" y="248" fill="#94A3B8" font-size="11">4 guests · Table 5</text>
  <rect x="243" y="244" width="83" height="24" rx="5" fill="url(#greenBtnGrad)"/>
  <text x="284" y="260" fill="#0C0E1A" font-size="11" font-weight="700" text-anchor="middle">Seated &#x2713;</text>

  <!-- Reservation Card 2: Chen -->
  <use href="#resCard" x="8" y="282"/>
  <rect x="8" y="282" width="4" height="76" rx="2" fill="#F59E0B"/>
  <text x="22" y="298" fill="#F59E0B" font-size="12" font-weight="700">6:15 PM</text>
  <use href="#confirmedBadge" x="262" y="286"/>
  <text x="22" y="314" fill="#F1F5F9" font-size="13" font-weight="600">Chen, Michael</text>
  <text x="22" y="330" fill="#94A3B8" font-size="11">2 guests · Table 12</text>
  <rect x="243" y="326" width="83" height="24" rx="5" fill="url(#amberBtnGrad)"/>
  <text x="284" y="342" fill="#0C0E1A" font-size="11" font-weight="700" text-anchor="middle">Seat</text>

  <!-- Reservation Card 3: Williams -->
  <use href="#resCard" x="8" y="364"/>
  <rect x="8" y="364" width="4" height="76" rx="2" fill="#2A2E45"/>
  <text x="22" y="380" fill="#F59E0B" font-size="12" font-weight="700">6:30 PM</text>
  <use href="#confirmedBadge" x="262" y="368"/>
  <text x="22" y="396" fill="#F1F5F9" font-size="13" font-weight="600">Williams, Tom</text>
  <text x="22" y="412" fill="#94A3B8" font-size="11">6 guests · Table 3+4 (combined)</text>
  <use href="#notArrivedBtn" x="230" y="408"/>

  <!-- Reservation Card 4: Martinez -->
  <use href="#resCard" x="8" y="446"/>
  <rect x="8" y="446" width="4" height="76" rx="2" fill="#2A2E45"/>
  <text x="22" y="462" fill="#F59E0B" font-size="12" font-weight="700">6:30 PM</text>
  <use href="#confirmedBadge" x="262" y="450"/>
  <text x="22" y="478" fill="#F1F5F9" font-size="13" font-weight="600">Martinez, Ana</text>
  <text x="22" y="494" fill="#94A3B8" font-size="11">3 guests · Bar</text>
  <use href="#notArrivedBtn" x="230" y="490"/>

  <!-- Reservation Card 5: Davis (VIP) — Admin: Settings > Reservations > VIP Tags -->
  <rect x="8" y="528" width="324" height="76" rx="8" fill="url(#cardGrad)" stroke="#8B5CF6" stroke-width="1" filter="url(#cardShadow)"/>
  <rect x="8" y="528" width="4" height="76" rx="2" fill="#8B5CF6"/>
  <text x="22" y="544" fill="#F59E0B" font-size="12" font-weight="700">7:00 PM</text>
  <rect x="248" y="532" width="78" height="18" rx="9" fill="#8B5CF6" fill-opacity="0.25"/>
  <text x="287" y="544" fill="#8B5CF6" font-size="10" font-weight="700" text-anchor="middle">&#x2605; VIP</text>
  <text x="22" y="560" fill="#F1F5F9" font-size="13" font-weight="600">Davis, Robert</text>
  <text x="22" y="576" fill="#94A3B8" font-size="11">8 guests · Private Room</text>
  <use href="#notArrivedBtn" x="230" y="572"/>

  <!-- Reservation Card 6: Thompson (waitlist) -->
  <rect x="8" y="610" width="324" height="76" rx="8" fill="url(#cardGrad)" stroke="#F59E0B" stroke-width="1" stroke-dasharray="4,2" filter="url(#cardShadow)"/>
  <rect x="8" y="610" width="4" height="76" rx="2" fill="#F59E0B"/>
  <text x="22" y="626" fill="#F59E0B" font-size="12" font-weight="700">7:00 PM</text>
  <rect x="248" y="614" width="78" height="18" rx="9" fill="#F59E0B" fill-opacity="0.2"/>
  <text x="287" y="626" fill="#F59E0B" font-size="10" font-weight="600" text-anchor="middle">waitlist</text>
  <text x="22" y="642" fill="#F1F5F9" font-size="13" font-weight="600">Thompson</text>
  <text x="22" y="658" fill="#94A3B8" font-size="11">2 guests · TBD</text>
  <rect x="216" y="654" width="112" height="24" rx="5" fill="#F59E0B" fill-opacity="0.15" stroke="#F59E0B" stroke-width="1"/>
  <text x="272" y="670" fill="#F59E0B" font-size="11" font-weight="600" text-anchor="middle">Assign Table</text>

  <!-- Reservation Card 7: Garcia -->
  <use href="#resCard" x="8" y="692"/>
  <rect x="8" y="692" width="4" height="76" rx="2" fill="#2A2E45"/>
  <text x="22" y="708" fill="#F59E0B" font-size="12" font-weight="700">7:15 PM</text>
  <use href="#confirmedBadge" x="262" y="696"/>
  <text x="22" y="724" fill="#F1F5F9" font-size="13" font-weight="600">Garcia, Luis</text>
  <text x="22" y="740" fill="#94A3B8" font-size="11">4 guests · Table 7</text>
  <use href="#notArrivedBtn" x="230" y="736"/>

  <!-- Reservation Card 8: Lee -->
  <use href="#resCard" x="8" y="774"/>
  <rect x="8" y="774" width="4" height="76" rx="2" fill="#2A2E45"/>
  <text x="22" y="790" fill="#F59E0B" font-size="12" font-weight="700">7:30 PM</text>
  <use href="#confirmedBadge" x="262" y="778"/>
  <text x="22" y="806" fill="#F1F5F9" font-size="13" font-weight="600">Lee, Jennifer</text>
  <text x="22" y="822" fill="#94A3B8" font-size="11">5 guests · Table 2</text>
  <use href="#notArrivedBtn" x="230" y="818"/>

  <!-- Reservation Card 9: Brown (pending) — Admin: Settings > Reservations > Pending Workflow -->
  <rect x="8" y="856" width="324" height="76" rx="8" fill="url(#cardGrad)" stroke="#F97316" stroke-width="1" filter="url(#cardShadow)"/>
  <rect x="8" y="856" width="4" height="76" rx="2" fill="#F97316"/>
  <text x="22" y="872" fill="#F59E0B" font-size="12" font-weight="700">8:00 PM</text>
  <rect x="248" y="860" width="78" height="18" rx="9" fill="#F97316" fill-opacity="0.2"/>
  <text x="287" y="872" fill="#F97316" font-size="10" font-weight="600" text-anchor="middle">pending</text>
  <text x="22" y="888" fill="#F1F5F9" font-size="13" font-weight="600">Brown, David</text>
  <text x="22" y="904" fill="#94A3B8" font-size="11">10 guests · Private Room</text>
  <rect x="243" y="900" width="83" height="24" rx="5" fill="#F97316"/>
  <text x="284" y="916" fill="#ffffff" font-size="11" font-weight="700" text-anchor="middle">Confirm</text>

  <!-- Collapse indicator -->
  <rect x="8" y="938" width="324" height="36" rx="8" fill="url(#cardGrad)" stroke="#1E2235" stroke-width="1" stroke-dasharray="4,2"/>
  <text x="170" y="961" fill="#64748B" font-size="12" text-anchor="middle">+ 9 more tonight  &#x25BE;</text>

  <!-- ================================================================== -->
  <!-- MIDDLE COLUMN: Waitlist  x=341 w=339                               -->
  <!-- Admin: Settings > Reservations > Waitlist Configuration            -->
  <!-- ================================================================== -->
  <rect x="341" y="128" width="339" height="860" fill="url(#bgGrad)"/>

  <!-- Column header -->
  <text x="353" y="154" fill="#F1F5F9" font-size="14" font-weight="700">Walk-in Waitlist</text>
  <use href="#gearIcon" x="462" y="142" width="12" height="12" color="#2A2E45"/>
  <text x="620" y="154" fill="#EF4444" font-size="12" text-anchor="end">Clear All</text>

  <!-- Wait time estimator — Admin: Settings > Reservations > Wait Estimate Algorithm -->
  <rect x="349" y="162" width="323" height="80" rx="8" fill="url(#cardGrad)" stroke="#1E2235" stroke-width="1" filter="url(#cardShadow)"/>
  <text x="361" y="180" fill="#64748B" font-size="10" font-weight="600" letter-spacing="0.5">CURRENT WAIT ESTIMATE</text>
  <text x="361" y="200" fill="#F97316" font-size="20" font-weight="700">~25 minutes</text>
  <text x="361" y="216" fill="#64748B" font-size="10">Turnover pace: 3 tables / hr</text>
  <!-- Mini bar chart -->
  <rect x="480" y="196" width="8" height="18" rx="2" fill="#2A2E45"/>
  <rect x="492" y="190" width="8" height="24" rx="2" fill="#F59E0B" fill-opacity="0.5"/>
  <rect x="504" y="185" width="8" height="29" rx="2" fill="#F59E0B" fill-opacity="0.7"/>
  <rect x="516" y="192" width="8" height="22" rx="2" fill="#F59E0B" fill-opacity="0.5"/>
  <rect x="528" y="196" width="8" height="18" rx="2" fill="#2A2E45"/>
  <rect x="540" y="188" width="8" height="26" rx="2" fill="#F59E0B" fill-opacity="0.4"/>
  <rect x="552" y="194" width="8" height="20" rx="2" fill="#F59E0B" fill-opacity="0.3"/>
  <rect x="564" y="197" width="8" height="17" rx="2" fill="#2A2E45"/>
  <text x="500" y="230" fill="#64748B" font-size="9" text-anchor="middle">5PM</text>
  <text x="540" y="230" fill="#64748B" font-size="9" text-anchor="middle">6PM</text>
  <text x="575" y="230" fill="#F97316" font-size="9" text-anchor="middle">Now</text>

  <!-- Waitlist Entry 1: Nguyen -->
  <use href="#waitEntry" x="349" y="252"/>
  <rect x="349" y="252" width="28" height="88" rx="8" fill="#22C55E" fill-opacity="0.15"/>
  <text x="363" y="301" fill="#22C55E" font-size="16" font-weight="700" text-anchor="middle">#1</text>
  <text x="390" y="270" fill="#F1F5F9" font-size="13" font-weight="600">Nguyen</text>
  <!-- Admin: Settings > Reservations > Waitlist > Pager System -->
  <text x="390" y="286" fill="#94A3B8" font-size="11">2 people  ·  Pager: A12</text>
  <text x="390" y="302" fill="#64748B" font-size="10">Joined 6:38 PM</text>
  <text x="390" y="318" fill="#F97316" font-size="10" font-weight="600">Est. 10 min wait</text>
  <rect x="549" y="266" width="113" height="28" rx="6" fill="url(#greenBtnGrad)" filter="url(#cardShadow)"/>
  <text x="605" y="284" fill="#0C0E1A" font-size="11" font-weight="700" text-anchor="middle">Seat Now</text>
  <text x="605" y="310" fill="#64748B" font-size="10" text-anchor="middle">SMS ready</text>

  <!-- Waitlist Entry 2: Patel -->
  <use href="#waitEntry" x="349" y="346"/>
  <rect x="349" y="346" width="28" height="88" rx="8" fill="#F59E0B" fill-opacity="0.1"/>
  <text x="363" y="395" fill="#F59E0B" font-size="16" font-weight="700" text-anchor="middle">#2</text>
  <text x="390" y="364" fill="#F1F5F9" font-size="13" font-weight="600">Patel</text>
  <text x="390" y="380" fill="#94A3B8" font-size="11">4 people  ·  Pager: A13</text>
  <text x="390" y="396" fill="#64748B" font-size="10">Joined 6:41 PM</text>
  <text x="390" y="412" fill="#F97316" font-size="10" font-weight="600">Est. 20 min wait</text>
  <rect x="549" y="360" width="113" height="28" rx="6" fill="url(#amberBtnGrad)" filter="url(#cardShadow)"/>
  <text x="605" y="378" fill="#0C0E1A" font-size="11" font-weight="700" text-anchor="middle">Notify</text>

  <!-- Waitlist Entry 3: Kim -->
  <use href="#waitEntry" x="349" y="440"/>
  <rect x="349" y="440" width="28" height="88" rx="8" fill="#2A2E45" fill-opacity="0.5"/>
  <text x="363" y="489" fill="#94A3B8" font-size="16" font-weight="700" text-anchor="middle">#3</text>
  <text x="390" y="458" fill="#F1F5F9" font-size="13" font-weight="600">Kim</text>
  <text x="390" y="474" fill="#94A3B8" font-size="11">3 people  ·  Pager: A14</text>
  <text x="390" y="490" fill="#64748B" font-size="10">Joined 6:44 PM</text>
  <text x="390" y="506" fill="#94A3B8" font-size="10" font-weight="600">Est. 30 min wait</text>
  <rect x="549" y="454" width="113" height="28" rx="6" fill="#1E2235" stroke="#2A2E45" stroke-width="1"/>
  <text x="605" y="472" fill="#94A3B8" font-size="11" font-weight="600" text-anchor="middle">Notify</text>

  <!-- Waitlist Entry 4: Rodriguez -->
  <use href="#waitEntry" x="349" y="534"/>
  <rect x="349" y="534" width="28" height="88" rx="8" fill="#2A2E45" fill-opacity="0.3"/>
  <text x="363" y="583" fill="#64748B" font-size="16" font-weight="700" text-anchor="middle">#4</text>
  <text x="390" y="552" fill="#F1F5F9" font-size="13" font-weight="600">Rodriguez</text>
  <text x="390" y="568" fill="#94A3B8" font-size="11">6 people  ·  Pager: A15</text>
  <text x="390" y="584" fill="#64748B" font-size="10">Joined 6:52 PM</text>
  <text x="390" y="600" fill="#94A3B8" font-size="10" font-weight="600">Est. 45 min wait</text>
  <rect x="549" y="548" width="113" height="28" rx="6" fill="#1E2235" stroke="#2A2E45" stroke-width="1"/>
  <text x="605" y="566" fill="#94A3B8" font-size="11" font-weight="600" text-anchor="middle">Notify</text>

  <!-- SMS status — Admin: Settings > Integrations > Twilio -->
  <rect x="349" y="634" width="323" height="36" rx="8" fill="#22C55E" fill-opacity="0.08" stroke="#22C55E" stroke-width="1" stroke-opacity="0.3"/>
  <circle cx="366" cy="652" r="5" fill="#22C55E"/>
  <text x="378" y="656" fill="#22C55E" font-size="11" font-weight="600">Twilio connected — auto-SMS on seat</text>
  <use href="#gearIcon" x="650" y="645" width="12" height="12" color="#22C55E" opacity="0.5"/>

  <!-- Add Walk-in button -->
  <rect x="349" y="686" width="323" height="44" rx="8" fill="url(#purpleBtnGrad)" filter="url(#cardShadow)"/>
  <text x="510" y="713" fill="#ffffff" font-size="13" font-weight="700" text-anchor="middle">+ Add Walk-in</text>

  <!-- ================================================================== -->
  <!-- RIGHT COLUMN: Reservation Detail + New Reservation Form            -->
  <!-- x=681 w=685                                                        -->
  <!-- Admin: Settings > Reservations > Detail View Fields                -->
  <!-- ================================================================== -->
  <rect x="681" y="128" width="685" height="860" fill="url(#bgGrad)"/>

  <!-- Detail Panel Header -->
  <text x="693" y="154" fill="#F1F5F9" font-size="14" font-weight="700">Reservation Detail</text>
  <use href="#gearIcon" x="810" y="142" width="12" height="12" color="#2A2E45"/>
  <text x="693" y="170" fill="#64748B" font-size="11">6:00 PM · Johnson, Sarah</text>

  <!-- Main detail card -->
  <rect x="689" y="176" width="669" height="390" rx="10" fill="url(#cardGrad)" stroke="#1E2235" stroke-width="1" filter="url(#elevShadow)"/>

  <!-- Row 1: Party info — Admin: Settings > Reservations > Guest Profile Fields -->
  <text x="705" y="200" fill="#64748B" font-size="10" font-weight="600" letter-spacing="0.5">PARTY INFO</text>
  <text x="705" y="218" fill="#F1F5F9" font-size="15" font-weight="700">Johnson, Sarah</text>
  <!-- Loyalty badge — Admin: Settings > Loyalty > Tier Display -->
  <rect x="820" y="205" width="82" height="20" rx="10" fill="#F59E0B" fill-opacity="0.2"/>
  <text x="861" y="218" fill="#F59E0B" font-size="10" font-weight="700" text-anchor="middle">&#x2605; Gold  2,840 pts</text>
  <use href="#gearIcon" x="910" y="207" width="10" height="10" color="#F59E0B" opacity="0.4"/>

  <!-- Admin: Settings > Reservations > Table Assignment -->
  <text x="705" y="236" fill="#94A3B8" font-size="12">4 guests  ·  Standard Table  ·  Table 5 (Main Dining)</text>
  <text x="948" y="236" fill="#F59E0B" font-size="11" text-decoration="underline">Change Table</text>

  <use href="#hDivider" x="705" y="248"/>

  <!-- Contact info — Admin: Settings > Reservations > Contact Fields -->
  <text x="705" y="267" fill="#64748B" font-size="10" font-weight="600" letter-spacing="0.5">CONTACT</text>
  <text x="705" y="284" fill="#F1F5F9" font-size="12">&#x260E;  (555) 234-5678</text>
  <text x="870" y="284" fill="#F1F5F9" font-size="12">&#x2709;  sarah.j@email.com</text>

  <use href="#hDivider" x="705" y="296"/>

  <!-- Special requests — Admin: Settings > Reservations > Special Request Tags -->
  <text x="705" y="314" fill="#64748B" font-size="10" font-weight="600" letter-spacing="0.5">SPECIAL REQUESTS</text>
  <text x="705" y="332" fill="#F1F5F9" font-size="12">Window seat preferred, anniversary — flowers arranged</text>

  <!-- Tags -->
  <rect x="705" y="342" width="82" height="20" rx="10" fill="#EF4444" fill-opacity="0.15" stroke="#EF4444" stroke-width="0.5"/>
  <text x="746" y="355" fill="#EF4444" font-size="10" font-weight="600" text-anchor="middle">&#x2767; Anniversary</text>
  <rect x="795" y="342" width="64" height="20" rx="10" fill="#2A2E45"/>
  <text x="827" y="355" fill="#94A3B8" font-size="10" font-weight="600" text-anchor="middle">Window</text>
  <rect x="867" y="342" width="88" height="20" rx="10" fill="#2A2E45"/>
  <text x="911" y="355" fill="#94A3B8" font-size="10" font-weight="600" text-anchor="middle">Repeat Guest</text>

  <use href="#hDivider" x="705" y="372"/>

  <!-- Staff notes — Admin: Settings > Reservations > Staff Notes -->
  <text x="705" y="390" fill="#64748B" font-size="10" font-weight="600" letter-spacing="0.5">STAFF NOTES</text>
  <rect x="705" y="398" width="629" height="48" rx="6" fill="#0C0E1A" stroke="#1E2235" stroke-width="1"/>
  <text x="717" y="416" fill="#94A3B8" font-size="12">Called ahead, confirmed flowers with staff</text>
  <rect x="1308" y="402" width="20" height="20" rx="3" fill="#2A2E45"/>
  <text x="1318" y="415" fill="#64748B" font-size="10" text-anchor="middle">&#x270E;</text>

  <use href="#hDivider" x="705" y="456"/>

  <!-- Status row — Admin: Settings > Reservations > Status Actions -->
  <text x="705" y="476" fill="#64748B" font-size="10" font-weight="600" letter-spacing="0.5">STATUS: CONFIRMED</text>
  <rect x="705" y="484" width="148" height="38" rx="8" fill="url(#greenBtnGrad)" filter="url(#cardShadow)"/>
  <text x="779" y="507" fill="#0C0E1A" font-size="13" font-weight="700" text-anchor="middle">Mark Seated</text>
  <rect x="861" y="484" width="120" height="38" rx="8" fill="url(#redBtnGrad)" filter="url(#cardShadow)"/>
  <text x="921" y="507" fill="#ffffff" font-size="13" font-weight="700" text-anchor="middle">No Show</text>
  <rect x="989" y="484" width="100" height="38" rx="8" fill="none" stroke="#64748B" stroke-width="1"/>
  <text x="1039" y="507" fill="#64748B" font-size="13" font-weight="600" text-anchor="middle">Cancel</text>

  <!-- Reservation History — Admin: Settings > Reservations > History Display -->
  <use href="#hDivider" x="705" y="532"/>
  <text x="705" y="550" fill="#64748B" font-size="10" font-weight="600" letter-spacing="0.5">RESERVATION HISTORY (4 visits)</text>
  <text x="705" y="566" fill="#94A3B8" font-size="11">Apr 12, 2026  · 4 guests · Table 5 ·</text>
  <text x="936" y="566" fill="#22C55E" font-size="11">Completed</text>

  <use href="#hDividerDash" x="705" y="570"/>
  <text x="705" y="584" fill="#94A3B8" font-size="11">Mar 2, 2026  · 2 guests · Bar ·</text>
  <text x="868" y="584" fill="#22C55E" font-size="11">Completed</text>

  <use href="#hDividerDash" x="705" y="588"/>
  <text x="705" y="602" fill="#94A3B8" font-size="11">Jan 14, 2026  · 4 guests · Table 5 ·</text>
  <text x="946" y="602" fill="#22C55E" font-size="11">Completed</text>

  <use href="#hDividerDash" x="705" y="606"/>
  <text x="705" y="620" fill="#94A3B8" font-size="11">Nov 25, 2025  · 4 guests · Table 3 ·</text>
  <text x="950" y="620" fill="#22C55E" font-size="11">Completed</text>

  <!-- ================================================================== -->
  <!-- NEW RESERVATION FORM (collapsible)                                 -->
  <!-- Admin: Settings > Reservations > New Reservation Form              -->
  <!-- ================================================================== -->
  <rect x="689" y="580" width="669" height="30" rx="0" fill="url(#bgGrad)"/>
  <line x1="689" y1="636" x2="1358" y2="636" stroke="#1E2235" stroke-width="1"/>
  <text x="693" y="654" fill="#F1F5F9" font-size="13" font-weight="700">New Reservation</text>
  <use href="#gearIcon" x="800" y="643" width="12" height="12" color="#2A2E45"/>
  <text x="1338" y="654" fill="#64748B" font-size="13" text-anchor="end">&#x25B4; Collapse</text>

  <!-- Form Card -->
  <rect x="689" y="660" width="669" height="316" rx="10" fill="url(#cardGrad)" stroke="#1E2235" stroke-width="1" filter="url(#elevShadow)"/>

  <!-- Row 1: Guest Name + Phone + Party Size -->
  <!-- Admin: Settings > Reservations > Form Fields > Guest Name -->
  <text x="705" y="680" fill="#64748B" font-size="10" font-weight="600">GUEST NAME</text>
  <use href="#formInput" x="705" y="684"/>
  <text x="717" y="703" fill="#64748B" font-size="12">First &amp; Last Name</text>

  <!-- Admin: Settings > Reservations > Form Fields > Phone -->
  <text x="940" y="680" fill="#64748B" font-size="10" font-weight="600">PHONE</text>
  <rect x="940" y="684" width="180" height="32" rx="6" fill="#0C0E1A" stroke="#1E2235" stroke-width="1"/>
  <text x="952" y="703" fill="#64748B" font-size="12">(555) ___-____</text>

  <!-- Admin: Settings > Reservations > Form Fields > Party Size -->
  <text x="1134" y="680" fill="#64748B" font-size="10" font-weight="600">PARTY SIZE</text>
  <rect x="1134" y="684" width="110" height="32" rx="6" fill="#0C0E1A" stroke="#1E2235" stroke-width="1"/>
  <rect x="1136" y="686" width="28" height="28" rx="5" fill="#2A2E45"/>
  <text x="1150" y="704" fill="#F1F5F9" font-size="14" font-weight="700" text-anchor="middle">&#x2212;</text>
  <text x="1186" y="704" fill="#F1F5F9" font-size="14" font-weight="700" text-anchor="middle">2</text>
  <rect x="1214" y="686" width="28" height="28" rx="5" fill="#2A2E45"/>
  <text x="1228" y="704" fill="#F1F5F9" font-size="14" font-weight="700" text-anchor="middle">+</text>

  <!-- Row 2: Email — Admin: Settings > Reservations > Form Fields > Email -->
  <text x="705" y="732" fill="#64748B" font-size="10" font-weight="600">EMAIL</text>
  <rect x="705" y="736" width="320" height="32" rx="6" fill="#0C0E1A" stroke="#1E2235" stroke-width="1"/>
  <text x="717" y="755" fill="#64748B" font-size="12">guest@email.com</text>

  <!-- Row 3: Date + Time Slots — Admin: Settings > Reservations > Time Slot Intervals -->
  <text x="705" y="784" fill="#64748B" font-size="10" font-weight="600">DATE</text>
  <rect x="705" y="788" width="140" height="32" rx="6" fill="#0C0E1A" stroke="#1E2235" stroke-width="1"/>
  <text x="717" y="807" fill="#F1F5F9" font-size="12">May 27, 2026</text>
  <text x="835" y="807" fill="#64748B" font-size="10">&#x25BE;</text>

  <text x="860" y="784" fill="#64748B" font-size="10" font-weight="600">TIME SLOTS</text>
  <use href="#gearIcon" x="920" y="775" width="10" height="10" color="#64748B"/>
  <!-- Available time slots -->
  <use href="#timeSlotAvail" x="860" y="788"/>
  <text x="886" y="807" fill="#F59E0B" font-size="11" font-weight="600" text-anchor="middle">6:00</text>
  <use href="#timeSlotAvail" x="918" y="788"/>
  <text x="944" y="807" fill="#F59E0B" font-size="11" font-weight="600" text-anchor="middle">6:15</text>
  <!-- Full (grayed) -->
  <rect x="976" y="788" width="52" height="32" rx="6" fill="#1E2235" stroke="#2A2E45" stroke-width="1"/>
  <text x="1002" y="807" fill="#64748B" font-size="11" text-anchor="middle">6:30</text>
  <text x="1002" y="814" fill="#64748B" font-size="7" text-anchor="middle">FULL</text>
  <use href="#timeSlotAvail" x="1034" y="788"/>
  <text x="1060" y="807" fill="#F59E0B" font-size="11" font-weight="600" text-anchor="middle">7:00</text>
  <use href="#timeSlotAvail" x="1092" y="788"/>
  <text x="1118" y="807" fill="#F59E0B" font-size="11" font-weight="600" text-anchor="middle">7:15</text>
  <use href="#timeSlotAvail" x="1150" y="788"/>
  <text x="1176" y="807" fill="#F59E0B" font-size="11" font-weight="600" text-anchor="middle">7:30</text>
  <use href="#timeSlotAvail" x="1208" y="788"/>
  <text x="1234" y="807" fill="#F59E0B" font-size="11" font-weight="600" text-anchor="middle">8:00</text>
  <text x="1275" y="807" fill="#64748B" font-size="11">&#x2192;</text>

  <!-- Row 4: Table Preference + Source — Admin: Settings > Reservations > Table Preferences -->
  <text x="705" y="836" fill="#64748B" font-size="10" font-weight="600">TABLE PREFERENCE</text>
  <use href="#gearIcon" x="800" y="827" width="10" height="10" color="#64748B"/>
  <!-- Active chip -->
  <rect x="705" y="840" width="46" height="26" rx="13" fill="url(#amberBtnGrad)"/>
  <text x="728" y="856" fill="#0C0E1A" font-size="10" font-weight="700" text-anchor="middle">Any</text>
  <!-- Inactive chips via symbol -->
  <use href="#prefChip" x="757" y="840"/>
  <text x="784" y="856" fill="#94A3B8" font-size="10" text-anchor="middle">Patio</text>
  <rect x="817" y="840" width="38" height="26" rx="13" fill="#1E2235" stroke="#2A2E45" stroke-width="1"/>
  <text x="836" y="856" fill="#94A3B8" font-size="10" text-anchor="middle">Bar</text>
  <use href="#prefChip" x="861" y="840"/>
  <text x="892" y="856" fill="#94A3B8" font-size="10" text-anchor="middle">Window</text>
  <rect x="929" y="840" width="84" height="26" rx="13" fill="#1E2235" stroke="#2A2E45" stroke-width="1"/>
  <text x="971" y="856" fill="#94A3B8" font-size="10" text-anchor="middle">Private Room</text>

  <!-- Source selector — Admin: Settings > Reservations > Sources (OpenTable, Resy, Phone, etc.) -->
  <text x="1030" y="836" fill="#64748B" font-size="10" font-weight="600">SOURCE</text>
  <rect x="1030" y="840" width="130" height="26" rx="6" fill="#0C0E1A" stroke="#1E2235" stroke-width="1"/>
  <text x="1042" y="856" fill="#94A3B8" font-size="11">Phone Call  &#x25BE;</text>

  <!-- VIP toggle — Admin: Settings > Reservations > VIP Configuration -->
  <text x="1175" y="836" fill="#64748B" font-size="10" font-weight="600">VIP</text>
  <rect x="1175" y="842" width="42" height="22" rx="11" fill="#2A2E45"/>
  <circle cx="1186" cy="853" r="9" fill="#64748B"/>
  <text x="1240" y="856" fill="#64748B" font-size="11">Off</text>

  <!-- Confirmation row — Admin: Settings > Reservations > Confirmation Methods -->
  <text x="705" y="882" fill="#64748B" font-size="10" font-weight="600">CONFIRMATION</text>
  <use href="#gearIcon" x="790" y="873" width="10" height="10" color="#64748B"/>
  <rect x="705" y="886" width="78" height="26" rx="13" fill="#22C55E" fill-opacity="0.2" stroke="#22C55E" stroke-width="1"/>
  <text x="744" y="902" fill="#22C55E" font-size="10" font-weight="600" text-anchor="middle">Auto-SMS</text>
  <use href="#confirmChip" x="791" y="886"/>
  <text x="834" y="902" fill="#94A3B8" font-size="10" text-anchor="middle">Auto-email</text>
  <rect x="885" y="886" width="46" height="26" rx="13" fill="#1E2235" stroke="#2A2E45" stroke-width="1"/>
  <text x="908" y="902" fill="#94A3B8" font-size="10" text-anchor="middle">None</text>

  <!-- Reserve CTA button -->
  <rect x="1170" y="880" width="174" height="38" rx="8" fill="url(#amberBtnGrad)" filter="url(#cardShadow)"/>
  <text x="1257" y="903" fill="#0C0E1A" font-size="14" font-weight="700" text-anchor="middle">Reserve</text>

  <!-- ================================================================== -->
  <!-- WORKFLOW INTEGRATION NOTE — Full Width Bottom Bar                  -->
  <!-- Admin: Settings > Integrations > Workflow Connections              -->
  <!-- ================================================================== -->
  <rect x="8" y="978" width="1350" height="38" rx="8" fill="url(#cardGrad)" stroke="#F59E0B" stroke-width="1"/>
  <rect x="8" y="978" width="4" height="38" rx="2" fill="#F59E0B"/>
  <text x="22" y="991" fill="#F59E0B" font-size="9" font-weight="700">WORKFLOW INTEGRATION</text>
  <use href="#gearIcon" x="145" y="983" width="10" height="10" color="#F59E0B" opacity="0.5"/>
  <text x="22" y="1005" fill="#64748B" font-size="9">pos_reservations &#x2192; pos_tables assignment. SMS/email via Twilio on confirm + 2h reminder. OpenTable/Resy sync via webhook (pos_reservation_source). Waitlist timer recalculates on every table_cleared event. Loyalty auto-detected by phone match to pos_customers.</text>

</svg>