<svg role="img" aria-labelledby="title-ipad_00_e2e_workflow-svg" xmlns="http://www.w3.org/2000/svg" viewBox="0 0 1366 1024" font-family="-apple-system,BlinkMacSystemFont,'SF Pro Display','Segoe UI',sans-serif">
  <title id="title-ipad_00_e2e_workflow-svg">Synalux POS — 00 e2e workflow</title>
  <desc>Synalux POS mockup screen for 00 e2e workflow. All UI elements admin-configurable.</desc>
  <defs>
    <linearGradient id="bgGrad" x1="0" y1="0" x2="1" y2="1">
      <stop offset="0%" stop-color="#0C0E1A"/><stop offset="100%" stop-color="#080A14"/>
    </linearGradient>
    <linearGradient id="cardGrad" x1="0" y1="0" x2="0" y2="1">
      <stop offset="0%" stop-color="#1A1D2E"/><stop offset="100%" stop-color="#161930"/>
    </linearGradient>
    <filter id="cardShadow"><feDropShadow dx="0" dy="2" stdDeviation="6" flood-color="#000" flood-opacity="0.35"/></filter>
    <filter id="glowAmber"><feDropShadow dx="0" dy="0" stdDeviation="4" flood-color="#F59E0B" flood-opacity="0.2"/></filter>

    <!-- ═══ SYMBOLS ═══ -->
    <symbol id="adminGear" viewBox="0 0 14 14">
      <circle cx="7" cy="7" r="2.5" fill="none" stroke="#F59E0B" stroke-width="0.8" opacity="0.3"/>
      <path d="M7 1v1.5M7 11.5V13M1 7h1.5M11.5 7H13M2.8 2.8l1 1M10.2 10.2l1 1M2.8 11.2l1-1M10.2 3.8l1-1" stroke="#F59E0B" stroke-width="0.6" stroke-linecap="round" opacity="0.3"/>
    </symbol>

    <!-- Role avatar -->
    <symbol id="avatar" viewBox="0 0 40 40">
      <circle cx="20" cy="20" r="20"/>
    </symbol>

    <!-- Flow step box -->
    <symbol id="flowStep" viewBox="0 0 140 36">
      <rect width="140" height="36" rx="6" fill="#161930" stroke="#2A2E45" stroke-width="0.5"/>
    </symbol>

    <!-- Flow arrow -->
    <symbol id="flowArrow" viewBox="0 0 20 12">
      <path d="M0 6h14l-4-4M14 6l-4 4" fill="none" stroke="#475569" stroke-width="1.5" stroke-linecap="round" stroke-linejoin="round"/>
    </symbol>

    <!-- Screen badge -->
    <symbol id="screenBadge" viewBox="0 0 100 22">
      <rect width="100" height="22" rx="4"/>
    </symbol>
  </defs>

  <rect width="1366" height="1024" fill="url(#bgGrad)"/>

  <!-- ═══════════ HEADER ═══════════ -->
  <rect x="0" y="0" width="1366" height="50" fill="#111425"/>
  <rect x="0" y="50" width="1366" height="1" fill="#1E2235"/>
  <text x="20" y="32" fill="#F59E0B" font-size="16" font-weight="800">synalux</text>
  <text x="88" y="32" fill="#475569" font-size="16">POS</text>
  <text x="140" y="32" fill="#2A2E45" font-size="16">|</text>
  <text x="160" y="32" fill="#E2E8F0" font-size="15" font-weight="700">E2E Daily Workflow — All Roles</text>
  <text x="1200" y="24" fill="#475569" font-size="10">DEMO ACCOUNT</text>
  <text x="1200" y="40" fill="#94A3B8" font-size="12" font-weight="600">Riverside Grill</text>
  <use href="#adminGear" x="1300" y="22" width="12" height="12"/>

  <!-- ═══════════ 7 ROLE LANES ═══════════ -->
  <!-- Each lane: Avatar → PIN → Screen sequence → EOD actions -->

  <!-- ═══ LANE 1: CASHIER — Maria G. ═══ -->
  <!-- admin: Settings > Staff > Roles > Cashier -->
  <rect x="10" y="60" width="1346" height="118" rx="10" fill="url(#cardGrad)" stroke="#1E2235" stroke-width="0.5"/>
  <use href="#avatar" x="20" y="74" width="36" height="36" fill="#1A2D10"/>
  <text x="38" y="97" fill="#4ADE80" font-size="14" font-weight="700" text-anchor="middle">MG</text>
  <text x="66" y="86" fill="#E2E8F0" font-size="12" font-weight="700">Maria G.</text>
  <text x="66" y="100" fill="#4ADE80" font-size="10" font-weight="600">Cashier</text>
  <text x="66" y="114" fill="#475569" font-size="9">PIN: 3456 · 8 AM — 4 PM</text>

  <!-- Flow: PIN → Register → Take Orders → Card Payment → Cash Payment → Gift Card → Print Receipt → Clock Out -->
  <use href="#flowStep" x="155" y="76" width="80" height="30"/>
  <text x="195" y="96" fill="#F59E0B" font-size="9" font-weight="600" text-anchor="middle">PIN Auth</text>
  <use href="#flowArrow" x="240" y="86" width="16" height="10"/>

  <use href="#flowStep" x="260" y="76" width="90" height="30"/>
  <text x="305" y="96" fill="#E2E8F0" font-size="9" font-weight="500" text-anchor="middle">Register</text>
  <use href="#flowArrow" x="355" y="86" width="16" height="10"/>

  <use href="#flowStep" x="375" y="76" width="90" height="30"/>
  <text x="420" y="96" fill="#E2E8F0" font-size="9" font-weight="500" text-anchor="middle">Ring Items</text>
  <use href="#flowArrow" x="470" y="86" width="16" height="10"/>

  <use href="#flowStep" x="490" y="76" width="90" height="30"/>
  <text x="535" y="96" fill="#E2E8F0" font-size="9" font-weight="500" text-anchor="middle">Card Pay</text>
  <use href="#flowArrow" x="585" y="86" width="16" height="10"/>

  <use href="#flowStep" x="605" y="76" width="90" height="30"/>
  <text x="650" y="96" fill="#E2E8F0" font-size="9" font-weight="500" text-anchor="middle">Cash Pay</text>
  <use href="#flowArrow" x="700" y="86" width="16" height="10"/>

  <use href="#flowStep" x="720" y="76" width="90" height="30"/>
  <text x="765" y="96" fill="#E2E8F0" font-size="9" font-weight="500" text-anchor="middle">Gift Card</text>
  <use href="#flowArrow" x="815" y="86" width="16" height="10"/>

  <use href="#flowStep" x="835" y="76" width="90" height="30"/>
  <text x="880" y="96" fill="#E2E8F0" font-size="9" font-weight="500" text-anchor="middle">Receipt</text>
  <use href="#flowArrow" x="930" y="86" width="16" height="10"/>

  <use href="#flowStep" x="950" y="76" width="90" height="30"/>
  <text x="995" y="96" fill="#EF4444" font-size="9" font-weight="500" text-anchor="middle">Clock Out</text>

  <!-- Screens accessible (green dots) -->
  <text x="155" y="122" fill="#475569" font-size="8">Screens:</text>
  <use href="#screenBadge" x="200" y="112" width="60" height="16" fill="#0A2010"/>
  <text x="230" y="124" fill="#4ADE80" font-size="7" font-weight="600" text-anchor="middle">Register</text>
  <use href="#screenBadge" x="264" y="112" width="60" height="16" fill="#0A2010"/>
  <text x="294" y="124" fill="#4ADE80" font-size="7" font-weight="600" text-anchor="middle">Payment</text>
  <text x="340" y="124" fill="#475569" font-size="8">No: Tables, KDS, Reports, Settings, Staff, Voids</text>

  <!-- Key metrics for this role's shift -->
  <text x="1100" y="86" fill="#475569" font-size="8">Shift totals:</text>
  <text x="1100" y="100" fill="#94A3B8" font-size="10" font-weight="600">$2,140 · 56 orders</text>
  <text x="1100" y="114" fill="#4ADE80" font-size="9">Tips: $182</text>

  <!-- ═══ LANE 2: HOST — Lisa W. ═══ -->
  <rect x="10" y="184" width="1346" height="118" rx="10" fill="url(#cardGrad)" stroke="#1E2235" stroke-width="0.5"/>
  <use href="#avatar" x="20" y="198" width="36" height="36" fill="#0A1A2D"/>
  <text x="38" y="221" fill="#60A5FA" font-size="14" font-weight="700" text-anchor="middle">LW</text>
  <text x="66" y="210" fill="#E2E8F0" font-size="12" font-weight="700">Lisa W.</text>
  <text x="66" y="224" fill="#60A5FA" font-size="10" font-weight="600">Host</text>
  <text x="66" y="238" fill="#475569" font-size="9">PIN: 5678 · 11 AM — 9 PM</text>

  <use href="#flowStep" x="155" y="200" width="80" height="30"/>
  <text x="195" y="220" fill="#F59E0B" font-size="9" font-weight="600" text-anchor="middle">PIN Auth</text>
  <use href="#flowArrow" x="240" y="210" width="16" height="10"/>

  <use href="#flowStep" x="260" y="200" width="90" height="30"/>
  <text x="305" y="220" fill="#E2E8F0" font-size="9" font-weight="500" text-anchor="middle">Tables</text>
  <use href="#flowArrow" x="355" y="210" width="16" height="10"/>

  <use href="#flowStep" x="375" y="200" width="100" height="30"/>
  <text x="425" y="220" fill="#E2E8F0" font-size="9" font-weight="500" text-anchor="middle">Seat Garcia (4)</text>
  <use href="#flowArrow" x="480" y="210" width="16" height="10"/>

  <use href="#flowStep" x="500" y="200" width="100" height="30"/>
  <text x="550" y="220" fill="#E2E8F0" font-size="9" font-weight="500" text-anchor="middle">Add Waitlist</text>
  <use href="#flowArrow" x="605" y="210" width="16" height="10"/>

  <use href="#flowStep" x="625" y="200" width="110" height="30"/>
  <text x="680" y="220" fill="#E2E8F0" font-size="9" font-weight="500" text-anchor="middle">Check Reservation</text>
  <use href="#flowArrow" x="740" y="210" width="16" height="10"/>

  <use href="#flowStep" x="760" y="200" width="100" height="30"/>
  <text x="810" y="220" fill="#E2E8F0" font-size="9" font-weight="500" text-anchor="middle">Seat Patel (T5)</text>
  <use href="#flowArrow" x="865" y="210" width="16" height="10"/>

  <use href="#flowStep" x="885" y="200" width="100" height="30"/>
  <text x="935" y="220" fill="#E2E8F0" font-size="9" font-weight="500" text-anchor="middle">Table Merge</text>
  <use href="#flowArrow" x="990" y="210" width="16" height="10"/>

  <use href="#flowStep" x="1010" y="200" width="90" height="30"/>
  <text x="1055" y="220" fill="#EF4444" font-size="9" font-weight="500" text-anchor="middle">Clock Out</text>

  <text x="155" y="246" fill="#475569" font-size="8">Screens:</text>
  <use href="#screenBadge" x="200" y="236" width="50" height="16" fill="#0A1020"/>
  <text x="225" y="248" fill="#60A5FA" font-size="7" font-weight="600" text-anchor="middle">Tables</text>
  <use href="#screenBadge" x="254" y="236" width="60" height="16" fill="#0A1020"/>
  <text x="284" y="248" fill="#60A5FA" font-size="7" font-weight="600" text-anchor="middle">Waitlist</text>
  <use href="#screenBadge" x="318" y="236" width="78" height="16" fill="#0A1020"/>
  <text x="357" y="248" fill="#60A5FA" font-size="7" font-weight="600" text-anchor="middle">Reservations</text>

  <text x="1100" y="210" fill="#475569" font-size="8">Shift totals:</text>
  <text x="1100" y="224" fill="#94A3B8" font-size="10" font-weight="600">82 covers seated</text>
  <text x="1100" y="238" fill="#60A5FA" font-size="9">Avg wait: 8 min</text>

  <!-- ═══ LANE 3: SERVER — John S. ═══ -->
  <rect x="10" y="308" width="1346" height="118" rx="10" fill="url(#cardGrad)" stroke="#F59E0B" stroke-width="1" filter="url(#glowAmber)"/>
  <rect x="10" y="308" width="4" height="118" rx="2" fill="#F59E0B"/>
  <use href="#avatar" x="24" y="322" width="36" height="36" fill="#1E3A5F"/>
  <text x="42" y="345" fill="#60A5FA" font-size="14" font-weight="700" text-anchor="middle">JS</text>
  <text x="70" y="334" fill="#E2E8F0" font-size="12" font-weight="700">John S.</text>
  <text x="70" y="348" fill="#22C55E" font-size="10" font-weight="600">Server</text>
  <text x="70" y="362" fill="#475569" font-size="9">PIN: 1234 · 2 PM — 10 PM</text>
  <rect x="120" y="318" width="60" height="14" rx="3" fill="#F59E0B"/>
  <text x="150" y="329" fill="#0C0E1A" font-size="8" font-weight="700" text-anchor="middle">PRIMARY</text>

  <use href="#flowStep" x="155" y="324" width="80" height="30"/>
  <text x="195" y="344" fill="#F59E0B" font-size="9" font-weight="600" text-anchor="middle">PIN Auth</text>
  <use href="#flowArrow" x="240" y="334" width="14" height="10"/>

  <use href="#flowStep" x="258" y="324" width="76" height="30"/>
  <text x="296" y="344" fill="#E2E8F0" font-size="9" font-weight="500" text-anchor="middle">Register</text>
  <use href="#flowArrow" x="338" y="334" width="14" height="10"/>

  <use href="#flowStep" x="356" y="324" width="76" height="30"/>
  <text x="394" y="344" fill="#E2E8F0" font-size="9" font-weight="500" text-anchor="middle">T4 Order</text>
  <use href="#flowArrow" x="436" y="334" width="14" height="10"/>

  <use href="#flowStep" x="454" y="324" width="70" height="30"/>
  <text x="489" y="344" fill="#E2E8F0" font-size="9" font-weight="500" text-anchor="middle">Tables</text>
  <use href="#flowArrow" x="528" y="334" width="14" height="10"/>

  <use href="#flowStep" x="546" y="324" width="76" height="30"/>
  <text x="584" y="344" fill="#E2E8F0" font-size="9" font-weight="500" text-anchor="middle">T7 Order</text>
  <use href="#flowArrow" x="626" y="334" width="14" height="10"/>

  <use href="#flowStep" x="644" y="324" width="76" height="30"/>
  <text x="682" y="344" fill="#E2E8F0" font-size="9" font-weight="500" text-anchor="middle">Card Pay</text>
  <use href="#flowArrow" x="724" y="334" width="14" height="10"/>

  <use href="#flowStep" x="742" y="324" width="76" height="30"/>
  <text x="780" y="344" fill="#E2E8F0" font-size="9" font-weight="500" text-anchor="middle">Split Chk</text>
  <use href="#flowArrow" x="822" y="334" width="14" height="10"/>

  <use href="#flowStep" x="840" y="324" width="76" height="30"/>
  <text x="878" y="344" fill="#E2E8F0" font-size="9" font-weight="500" text-anchor="middle">Handheld</text>
  <use href="#flowArrow" x="920" y="334" width="14" height="10"/>

  <use href="#flowStep" x="938" y="324" width="76" height="30"/>
  <text x="976" y="344" fill="#E2E8F0" font-size="9" font-weight="500" text-anchor="middle">Seat Mgmt</text>
  <use href="#flowArrow" x="1018" y="334" width="14" height="10"/>

  <use href="#flowStep" x="1036" y="324" width="76" height="30"/>
  <text x="1074" y="344" fill="#E2E8F0" font-size="9" font-weight="500" text-anchor="middle">QR Tip</text>
  <use href="#flowArrow" x="1116" y="334" width="14" height="10"/>

  <use href="#flowStep" x="1134" y="324" width="80" height="30"/>
  <text x="1174" y="344" fill="#EF4444" font-size="9" font-weight="500" text-anchor="middle">Clock Out</text>

  <text x="155" y="372" fill="#475569" font-size="8">Screens:</text>
  <use href="#screenBadge" x="200" y="362" width="56" height="16" fill="#0A2010"/>
  <text x="228" y="374" fill="#4ADE80" font-size="7" font-weight="600" text-anchor="middle">Register</text>
  <use href="#screenBadge" x="260" y="362" width="48" height="16" fill="#0A2010"/>
  <text x="284" y="374" fill="#4ADE80" font-size="7" font-weight="600" text-anchor="middle">Tables</text>
  <use href="#screenBadge" x="312" y="362" width="60" height="16" fill="#0A2010"/>
  <text x="342" y="374" fill="#4ADE80" font-size="7" font-weight="600" text-anchor="middle">Payment</text>
  <use href="#screenBadge" x="376" y="362" width="62" height="16" fill="#0A2010"/>
  <text x="407" y="374" fill="#4ADE80" font-size="7" font-weight="600" text-anchor="middle">Handheld</text>

  <text x="1100" y="334" fill="#475569" font-size="8">Shift totals:</text>
  <text x="1100" y="348" fill="#94A3B8" font-size="10" font-weight="600">$1,847 · 28 orders</text>
  <text x="1100" y="362" fill="#4ADE80" font-size="9">Tips: $312 · Avg: $65.96</text>

  <!-- ═══ LANE 4: BARTENDER — Mike R. ═══ -->
  <rect x="10" y="432" width="1346" height="118" rx="10" fill="url(#cardGrad)" stroke="#1E2235" stroke-width="0.5"/>
  <use href="#avatar" x="20" y="446" width="36" height="36" fill="#120A20"/>
  <text x="38" y="469" fill="#A78BFA" font-size="14" font-weight="700" text-anchor="middle">MR</text>
  <text x="66" y="458" fill="#E2E8F0" font-size="12" font-weight="700">Mike R.</text>
  <text x="66" y="472" fill="#A78BFA" font-size="10" font-weight="600">Bartender</text>
  <text x="66" y="486" fill="#475569" font-size="9">PIN: 7890 · 4 PM — 12 AM</text>

  <use href="#flowStep" x="155" y="448" width="80" height="30"/>
  <text x="195" y="468" fill="#F59E0B" font-size="9" font-weight="600" text-anchor="middle">PIN Auth</text>
  <use href="#flowArrow" x="240" y="458" width="16" height="10"/>

  <use href="#flowStep" x="260" y="448" width="90" height="30"/>
  <text x="305" y="468" fill="#E2E8F0" font-size="9" font-weight="500" text-anchor="middle">Bar Register</text>
  <use href="#flowArrow" x="355" y="458" width="16" height="10"/>

  <use href="#flowStep" x="375" y="448" width="90" height="30"/>
  <text x="420" y="468" fill="#E2E8F0" font-size="9" font-weight="500" text-anchor="middle">Open Tab</text>
  <use href="#flowArrow" x="470" y="458" width="16" height="10"/>

  <use href="#flowStep" x="490" y="448" width="90" height="30"/>
  <text x="535" y="468" fill="#F59E0B" font-size="9" font-weight="500" text-anchor="middle">Age Verify</text>
  <use href="#flowArrow" x="585" y="458" width="16" height="10"/>

  <use href="#flowStep" x="605" y="448" width="90" height="30"/>
  <text x="650" y="468" fill="#E2E8F0" font-size="9" font-weight="500" text-anchor="middle">Add Drinks</text>
  <use href="#flowArrow" x="700" y="458" width="16" height="10"/>

  <use href="#flowStep" x="720" y="448" width="90" height="30"/>
  <text x="765" y="468" fill="#E2E8F0" font-size="9" font-weight="500" text-anchor="middle">Close Tab</text>
  <use href="#flowArrow" x="815" y="458" width="16" height="10"/>

  <use href="#flowStep" x="835" y="448" width="90" height="30"/>
  <text x="880" y="468" fill="#E2E8F0" font-size="9" font-weight="500" text-anchor="middle">Wallet Pay</text>
  <use href="#flowArrow" x="930" y="458" width="16" height="10"/>

  <use href="#flowStep" x="950" y="448" width="100" height="30"/>
  <text x="1000" y="468" fill="#E2E8F0" font-size="9" font-weight="500" text-anchor="middle">Loyalty Check-in</text>
  <use href="#flowArrow" x="1055" y="458" width="16" height="10"/>

  <use href="#flowStep" x="1075" y="448" width="80" height="30"/>
  <text x="1115" y="468" fill="#EF4444" font-size="9" font-weight="500" text-anchor="middle">Clock Out</text>

  <text x="155" y="494" fill="#475569" font-size="8">Screens:</text>
  <use href="#screenBadge" x="200" y="484" width="68" height="16" fill="#120A20"/>
  <text x="234" y="496" fill="#A78BFA" font-size="7" font-weight="600" text-anchor="middle">Bar Register</text>
  <use href="#screenBadge" x="272" y="484" width="60" height="16" fill="#120A20"/>
  <text x="302" y="496" fill="#A78BFA" font-size="7" font-weight="600" text-anchor="middle">Payment</text>
  <use href="#screenBadge" x="336" y="484" width="66" height="16" fill="#120A20"/>
  <text x="369" y="496" fill="#A78BFA" font-size="7" font-weight="600" text-anchor="middle">Age Verify</text>

  <text x="1100" y="458" fill="#475569" font-size="8">Shift totals:</text>
  <text x="1100" y="472" fill="#94A3B8" font-size="10" font-weight="600">$980 · 42 drinks</text>
  <text x="1100" y="486" fill="#A78BFA" font-size="9">Tips: $186 · 12 tabs closed</text>

  <!-- ═══ LANE 5: SUPERVISOR — Alex K. ═══ -->
  <rect x="10" y="556" width="1346" height="118" rx="10" fill="url(#cardGrad)" stroke="#1E2235" stroke-width="0.5"/>
  <use href="#avatar" x="20" y="570" width="36" height="36" fill="#0A2020"/>
  <text x="38" y="593" fill="#22D3EE" font-size="14" font-weight="700" text-anchor="middle">AK</text>
  <text x="66" y="582" fill="#E2E8F0" font-size="12" font-weight="700">Alex K.</text>
  <text x="66" y="596" fill="#22D3EE" font-size="10" font-weight="600">Supervisor</text>
  <text x="66" y="610" fill="#475569" font-size="9">PIN: 2468 · 10 AM — 6 PM</text>

  <use href="#flowStep" x="155" y="572" width="80" height="30"/>
  <text x="195" y="592" fill="#F59E0B" font-size="9" font-weight="600" text-anchor="middle">PIN Auth</text>
  <use href="#flowArrow" x="240" y="582" width="16" height="10"/>

  <use href="#flowStep" x="260" y="572" width="90" height="30"/>
  <text x="305" y="592" fill="#E2E8F0" font-size="9" font-weight="500" text-anchor="middle">Register</text>
  <use href="#flowArrow" x="355" y="582" width="16" height="10"/>

  <use href="#flowStep" x="375" y="572" width="100" height="30"/>
  <text x="425" y="592" fill="#E2E8F0" font-size="9" font-weight="500" text-anchor="middle">Approve Void</text>
  <use href="#flowArrow" x="480" y="582" width="16" height="10"/>

  <use href="#flowStep" x="500" y="572" width="100" height="30"/>
  <text x="550" y="592" fill="#E2E8F0" font-size="9" font-weight="500" text-anchor="middle">Apply Discount</text>
  <use href="#flowArrow" x="605" y="582" width="16" height="10"/>

  <use href="#flowStep" x="625" y="572" width="90" height="30"/>
  <text x="670" y="592" fill="#E2E8F0" font-size="9" font-weight="500" text-anchor="middle">Refund</text>
  <use href="#flowArrow" x="720" y="582" width="16" height="10"/>

  <use href="#flowStep" x="740" y="572" width="90" height="30"/>
  <text x="785" y="592" fill="#E2E8F0" font-size="9" font-weight="500" text-anchor="middle">Reports</text>
  <use href="#flowArrow" x="835" y="582" width="16" height="10"/>

  <use href="#flowStep" x="855" y="572" width="90" height="30"/>
  <text x="900" y="592" fill="#E2E8F0" font-size="9" font-weight="500" text-anchor="middle">KDS Check</text>
  <use href="#flowArrow" x="950" y="582" width="16" height="10"/>

  <use href="#flowStep" x="970" y="572" width="80" height="30"/>
  <text x="1010" y="592" fill="#EF4444" font-size="9" font-weight="500" text-anchor="middle">Clock Out</text>

  <text x="155" y="618" fill="#475569" font-size="8">Screens:</text>
  <use href="#screenBadge" x="200" y="608" width="56" height="16" fill="#0A2020"/>
  <text x="228" y="620" fill="#22D3EE" font-size="7" font-weight="600" text-anchor="middle">Register</text>
  <use href="#screenBadge" x="260" y="608" width="56" height="16" fill="#0A2020"/>
  <text x="288" y="620" fill="#22D3EE" font-size="7" font-weight="600" text-anchor="middle">Reports</text>
  <use href="#screenBadge" x="320" y="608" width="42" height="16" fill="#0A2020"/>
  <text x="341" y="620" fill="#22D3EE" font-size="7" font-weight="600" text-anchor="middle">KDS</text>
  <use href="#screenBadge" x="366" y="608" width="48" height="16" fill="#0A2020"/>
  <text x="390" y="620" fill="#22D3EE" font-size="7" font-weight="600" text-anchor="middle">Voids</text>
  <use href="#screenBadge" x="418" y="608" width="66" height="16" fill="#0A2020"/>
  <text x="451" y="620" fill="#22D3EE" font-size="7" font-weight="600" text-anchor="middle">Discounts</text>

  <text x="1100" y="582" fill="#475569" font-size="8">Shift actions:</text>
  <text x="1100" y="596" fill="#94A3B8" font-size="10" font-weight="600">3 voids · 2 refunds</text>
  <text x="1100" y="610" fill="#22D3EE" font-size="9">5 discounts approved</text>

  <!-- ═══ LANE 6: MANAGER — Sara R. ═══ -->
  <rect x="10" y="680" width="1346" height="118" rx="10" fill="url(#cardGrad)" stroke="#1E2235" stroke-width="0.5"/>
  <use href="#avatar" x="20" y="694" width="36" height="36" fill="#2D1A10"/>
  <text x="38" y="717" fill="#F59E0B" font-size="14" font-weight="700" text-anchor="middle">SR</text>
  <text x="66" y="706" fill="#E2E8F0" font-size="12" font-weight="700">Sara R.</text>
  <text x="66" y="720" fill="#F59E0B" font-size="10" font-weight="600">Manager</text>
  <text x="66" y="734" fill="#475569" font-size="9">PIN: 9012 · 10 AM — Close</text>

  <use href="#flowStep" x="155" y="696" width="80" height="30"/>
  <text x="195" y="716" fill="#F59E0B" font-size="9" font-weight="600" text-anchor="middle">PIN Auth</text>
  <use href="#flowArrow" x="240" y="706" width="14" height="10"/>

  <use href="#flowStep" x="258" y="696" width="78" height="30"/>
  <text x="297" y="716" fill="#E2E8F0" font-size="9" font-weight="500" text-anchor="middle">Dashboard</text>
  <use href="#flowArrow" x="340" y="706" width="14" height="10"/>

  <use href="#flowStep" x="358" y="696" width="78" height="30"/>
  <text x="397" y="716" fill="#E2E8F0" font-size="9" font-weight="500" text-anchor="middle">Floor Check</text>
  <use href="#flowArrow" x="440" y="706" width="14" height="10"/>

  <use href="#flowStep" x="458" y="696" width="78" height="30"/>
  <text x="497" y="716" fill="#E2E8F0" font-size="9" font-weight="500" text-anchor="middle">KDS Monitor</text>
  <use href="#flowArrow" x="540" y="706" width="14" height="10"/>

  <use href="#flowStep" x="558" y="696" width="78" height="30"/>
  <text x="597" y="716" fill="#E2E8F0" font-size="9" font-weight="500" text-anchor="middle">Auth Void</text>
  <use href="#flowArrow" x="640" y="706" width="14" height="10"/>

  <use href="#flowStep" x="658" y="696" width="78" height="30"/>
  <text x="697" y="716" fill="#E2E8F0" font-size="9" font-weight="500" text-anchor="middle">Auth Refund</text>
  <use href="#flowArrow" x="740" y="706" width="14" height="10"/>

  <use href="#flowStep" x="758" y="696" width="78" height="30"/>
  <text x="797" y="716" fill="#E2E8F0" font-size="9" font-weight="500" text-anchor="middle">Reports</text>
  <use href="#flowArrow" x="840" y="706" width="14" height="10"/>

  <use href="#flowStep" x="858" y="696" width="78" height="30"/>
  <text x="897" y="716" fill="#E2E8F0" font-size="9" font-weight="500" text-anchor="middle">Tip Pool</text>
  <use href="#flowArrow" x="940" y="706" width="14" height="10"/>

  <use href="#flowStep" x="958" y="696" width="66" height="30"/>
  <text x="991" y="716" fill="#E2E8F0" font-size="9" font-weight="500" text-anchor="middle">EOD</text>
  <use href="#flowArrow" x="1028" y="706" width="14" height="10"/>

  <use href="#flowStep" x="1046" y="696" width="78" height="30"/>
  <text x="1085" y="716" fill="#EF4444" font-size="9" font-weight="600" text-anchor="middle">Close Reg</text>

  <text x="155" y="742" fill="#475569" font-size="8">Screens: ALL (Register, Tables, KDS, Reports, Staff, Voids, Discounts, EOD, Settings)</text>

  <text x="1100" y="706" fill="#475569" font-size="8">Day totals:</text>
  <text x="1100" y="720" fill="#94A3B8" font-size="10" font-weight="600">$4,847 gross · 127 orders</text>
  <text x="1100" y="734" fill="#F59E0B" font-size="9">Cash +$9 over · Z-Report filed</text>

  <!-- ═══ LANE 7: ADMIN — Dmitri C. ═══ -->
  <rect x="10" y="804" width="1346" height="118" rx="10" fill="url(#cardGrad)" stroke="#1E2235" stroke-width="0.5"/>
  <use href="#avatar" x="20" y="818" width="36" height="36" fill="#2D0808"/>
  <text x="38" y="841" fill="#EF4444" font-size="14" font-weight="700" text-anchor="middle">DC</text>
  <text x="66" y="830" fill="#E2E8F0" font-size="12" font-weight="700">Dmitri C.</text>
  <text x="66" y="844" fill="#EF4444" font-size="10" font-weight="600">Admin (Owner)</text>
  <text x="66" y="858" fill="#475569" font-size="9">PIN: 0000 · Remote access</text>

  <use href="#flowStep" x="155" y="820" width="80" height="30"/>
  <text x="195" y="840" fill="#F59E0B" font-size="9" font-weight="600" text-anchor="middle">PIN Auth</text>
  <use href="#flowArrow" x="240" y="830" width="14" height="10"/>

  <use href="#flowStep" x="258" y="820" width="78" height="30"/>
  <text x="297" y="840" fill="#E2E8F0" font-size="9" font-weight="500" text-anchor="middle">Settings</text>
  <use href="#flowArrow" x="340" y="830" width="14" height="10"/>

  <use href="#flowStep" x="358" y="820" width="90" height="30"/>
  <text x="403" y="840" fill="#E2E8F0" font-size="9" font-weight="500" text-anchor="middle">Menu Builder</text>
  <use href="#flowArrow" x="452" y="830" width="14" height="10"/>

  <use href="#flowStep" x="470" y="820" width="78" height="30"/>
  <text x="509" y="840" fill="#E2E8F0" font-size="9" font-weight="500" text-anchor="middle">Staff Mgmt</text>
  <use href="#flowArrow" x="552" y="830" width="14" height="10"/>

  <use href="#flowStep" x="570" y="820" width="90" height="30"/>
  <text x="615" y="840" fill="#E2E8F0" font-size="9" font-weight="500" text-anchor="middle">Integrations</text>
  <use href="#flowArrow" x="664" y="830" width="14" height="10"/>

  <use href="#flowStep" x="682" y="820" width="78" height="30"/>
  <text x="721" y="840" fill="#E2E8F0" font-size="9" font-weight="500" text-anchor="middle">Compliance</text>
  <use href="#flowArrow" x="764" y="830" width="14" height="10"/>

  <use href="#flowStep" x="782" y="820" width="78" height="30"/>
  <text x="821" y="840" fill="#E2E8F0" font-size="9" font-weight="500" text-anchor="middle">Reports</text>
  <use href="#flowArrow" x="864" y="830" width="14" height="10"/>

  <use href="#flowStep" x="882" y="820" width="90" height="30"/>
  <text x="927" y="840" fill="#E2E8F0" font-size="9" font-weight="500" text-anchor="middle">Multi-Location</text>
  <use href="#flowArrow" x="976" y="830" width="14" height="10"/>

  <use href="#flowStep" x="994" y="820" width="78" height="30"/>
  <text x="1033" y="840" fill="#E2E8F0" font-size="9" font-weight="500" text-anchor="middle">Franchise</text>
  <use href="#flowArrow" x="1076" y="830" width="14" height="10"/>

  <use href="#flowStep" x="1094" y="820" width="78" height="30"/>
  <text x="1133" y="840" fill="#E2E8F0" font-size="9" font-weight="500" text-anchor="middle">Payroll</text>

  <text x="155" y="866" fill="#475569" font-size="8">Screens: ALL + Settings (Menu Builder, Staff, Taxes, Integrations, Compliance, Franchise, Multi-Location, Payroll, Privacy)</text>

  <text x="1100" y="830" fill="#475569" font-size="8">Admin actions:</text>
  <text x="1100" y="844" fill="#94A3B8" font-size="10" font-weight="600">Config push · 3 locations</text>
  <text x="1100" y="858" fill="#EF4444" font-size="9">RBS cert expiring: 2 staff</text>

  <!-- ═══════════ FOOTER — FLOW LEGEND ═══════════ -->
  <rect x="10" y="930" width="1346" height="84" rx="10" fill="#111425" stroke="#1E2235" stroke-width="0.5"/>
  <text x="30" y="952" fill="#475569" font-size="9" font-weight="700" letter-spacing="1.5">E2E FLOW LEGEND</text>
  <use href="#adminGear" x="160" y="942" width="10" height="10"/>

  <!-- Legend items -->
  <rect x="30" y="962" width="12" height="12" rx="3" fill="#F59E0B"/>
  <text x="48" y="973" fill="#94A3B8" font-size="10">Auth gate</text>
  <rect x="120" y="962" width="12" height="12" rx="3" fill="#161930" stroke="#2A2E45" stroke-width="0.5"/>
  <text x="138" y="973" fill="#94A3B8" font-size="10">Screen / action</text>
  <rect x="240" y="962" width="12" height="12" rx="3" fill="#EF4444"/>
  <text x="258" y="973" fill="#94A3B8" font-size="10">Shift end</text>
  <circle cx="340" cy="968" r="4" fill="#22C55E"/>
  <text x="350" y="973" fill="#94A3B8" font-size="10">Permitted</text>
  <circle cx="420" cy="968" r="4" fill="#2A2E45"/>
  <text x="430" y="973" fill="#94A3B8" font-size="10">Denied</text>

  <text x="550" y="973" fill="#475569" font-size="10">7 roles · 7 demo users · All permissions admin-configurable via Settings > Staff > Roles</text>

  <!-- Venue info -->
  <text x="30" y="1000" fill="#475569" font-size="9">Venue: Riverside Grill · Tax: 8.5% · Tips: 15/18/20/25% · 18 tables · 4 sections · 7 KDS stations · Stripe Terminal</text>
  <text x="1100" y="1000" fill="#475569" font-size="9" text-anchor="end">All data from DB · All UI admin-configurable</text>
</svg>