<svg role="img" aria-labelledby="title-ipad_reports-svg" xmlns="http://www.w3.org/2000/svg" viewBox="0 0 1366 1024" font-family="-apple-system,BlinkMacSystemFont,'SF Pro Display','Segoe UI',sans-serif">

  <title id="title-ipad_reports-svg">Synalux POS — reports</title>
  <desc>Synalux POS mockup screen for reports. All UI elements admin-configurable.</desc>
  <defs>
    <!-- Background gradient -->
    <linearGradient id="bgGrad" x1="0" y1="0" x2="1" y2="1">
      <stop offset="0%" stop-color="#0C0E1A"/>
      <stop offset="100%" stop-color="#10132A"/>
    </linearGradient>

    <!-- Card gradient -->
    <linearGradient id="cardGrad" x1="0" y1="0" x2="0" y2="1">
      <stop offset="0%" stop-color="#1A1D2E"/>
      <stop offset="100%" stop-color="#161930"/>
    </linearGradient>

    <!-- Sidebar gradient -->
    <linearGradient id="sideGrad" x1="0" y1="0" x2="0" y2="1">
      <stop offset="0%" stop-color="#12152A"/>
      <stop offset="100%" stop-color="#0E1020"/>
    </linearGradient>

    <!-- Amber bar gradient -->
    <linearGradient id="amberBar" x1="0" y1="0" x2="0" y2="1">
      <stop offset="0%" stop-color="#FBBF24"/>
      <stop offset="100%" stop-color="#F59E0B"/>
    </linearGradient>

    <!-- Amber accent glow -->
    <linearGradient id="amberGlow" x1="0" y1="0" x2="0" y2="1">
      <stop offset="0%" stop-color="#F59E0B" stop-opacity="0.25"/>
      <stop offset="100%" stop-color="#F59E0B" stop-opacity="0"/>
    </linearGradient>

    <!-- KPI card gradients -->
    <linearGradient id="kpiGross" x1="0" y1="0" x2="1" y2="1">
      <stop offset="0%" stop-color="#1E2240"/>
      <stop offset="100%" stop-color="#1A1D2E"/>
    </linearGradient>
    <linearGradient id="kpiNet" x1="0" y1="0" x2="1" y2="1">
      <stop offset="0%" stop-color="#1A2235"/>
      <stop offset="100%" stop-color="#161930"/>
    </linearGradient>

    <!-- Green badge gradient -->
    <linearGradient id="greenBadge" x1="0" y1="0" x2="1" y2="0">
      <stop offset="0%" stop-color="#22C55E" stop-opacity="0.18"/>
      <stop offset="100%" stop-color="#4ADE80" stop-opacity="0.08"/>
    </linearGradient>

    <!-- Top nav gradient -->
    <linearGradient id="navGrad" x1="0" y1="0" x2="0" y2="1">
      <stop offset="0%" stop-color="#1E2240"/>
      <stop offset="100%" stop-color="#1A1D2E"/>
    </linearGradient>

    <!-- Export button gradient -->
    <linearGradient id="exportBtn" x1="0" y1="0" x2="0" y2="1">
      <stop offset="0%" stop-color="#F59E0B"/>
      <stop offset="100%" stop-color="#D97706"/>
    </linearGradient>

    <!-- Drop shadows -->
    <filter id="cardShadow" x="-4%" y="-4%" width="108%" height="116%">
      <feDropShadow dx="0" dy="2" stdDeviation="6" flood-color="#000000" flood-opacity="0.35"/>
    </filter>
    <filter id="kpiShadow" x="-4%" y="-6%" width="108%" height="120%">
      <feDropShadow dx="0" dy="3" stdDeviation="8" flood-color="#000000" flood-opacity="0.4"/>
    </filter>
    <filter id="navShadow" x="0" y="0" width="100%" height="130%">
      <feDropShadow dx="0" dy="2" stdDeviation="4" flood-color="#000000" flood-opacity="0.5"/>
    </filter>
    <filter id="glowAmber" x="-20%" y="-20%" width="140%" height="140%">
      <feDropShadow dx="0" dy="0" stdDeviation="3" flood-color="#F59E0B" flood-opacity="0.3"/>
    </filter>
    <filter id="btnShadow" x="-5%" y="-10%" width="110%" height="130%">
      <feDropShadow dx="0" dy="1" stdDeviation="3" flood-color="#000000" flood-opacity="0.3"/>
    </filter>

    <!-- ============================================================ -->
    <!-- REUSABLE SYMBOLS                                              -->
    <!-- ============================================================ -->

    <!-- Admin gear icon for configurable elements -->
    <symbol id="adminGear" viewBox="0 0 14 14">
      <circle cx="7" cy="7" r="2.5" fill="none" stroke="#F59E0B" stroke-width="0.8" opacity="0.3"/>
      <path d="M7 1v1.5M7 11.5V13M1 7h1.5M11.5 7H13M2.8 2.8l1 1M10.2 10.2l1 1M2.8 11.2l1-1M10.2 3.8l1-1" stroke="#F59E0B" stroke-width="0.6" stroke-linecap="round" opacity="0.3"/>
    </symbol>

    <!-- KPI card shell (250x108) -->
    <symbol id="kpiCard" viewBox="0 0 250 108">
      <rect x="0" y="0" width="250" height="108" rx="12" fill="url(#cardGrad)" stroke="#2A2E45" stroke-width="1"/>
    </symbol>

    <!-- Nav tab item (inactive) -->
    <symbol id="navTabInactive" viewBox="0 0 220 42">
      <rect x="0" y="0" width="220" height="42" fill="transparent"/>
    </symbol>

    <!-- Export button (outline style) -->
    <symbol id="exportBtnOutline" viewBox="0 0 110 30">
      <rect x="0" y="0" width="110" height="30" rx="6" fill="#0C0E1A" stroke="#F59E0B" stroke-width="1.2"/>
    </symbol>

    <!-- Export button (plain style) -->
    <symbol id="exportBtnPlain" viewBox="0 0 52 30">
      <rect x="0" y="0" width="52" height="30" rx="6" fill="#0C0E1A" stroke="#2A2E45" stroke-width="1"/>
    </symbol>

    <!-- Date range button (inactive) -->
    <symbol id="dateRangeBtn" viewBox="0 0 88 30">
      <rect x="0" y="0" width="88" height="30" rx="6" fill="#0C0E1A" stroke="#2A2E45" stroke-width="1"/>
    </symbol>

    <!-- Table row (even/odd backgrounds set via fill on use) -->
    <symbol id="tableRow" viewBox="0 0 1046 36">
      <rect x="0" y="0" width="1046" height="36"/>
    </symbol>

    <!-- Revenue mini bar background -->
    <symbol id="revBarBg" viewBox="0 0 80 8">
      <rect x="0" y="0" width="80" height="8" rx="4" fill="#2A2E45"/>
    </symbol>
  </defs>

  <!-- ===== BACKGROUND ===== -->
  <rect width="1366" height="1024" fill="url(#bgGrad)"/>

  <!-- ===== TOP NAV BAR ===== -->
  <rect x="0" y="0" width="1366" height="56" fill="url(#navGrad)" filter="url(#navShadow)"/>
  <line x1="0" y1="56" x2="1366" y2="56" stroke="#2A2E45" stroke-width="1"/>

  <!-- Logo -->
  <rect x="16" y="12" width="32" height="32" rx="8" fill="#F59E0B" filter="url(#glowAmber)"/>
  <text x="24" y="35" font-size="16" font-weight="800" fill="#0C0E1A">S</text>
  <text x="56" y="36" font-size="17" font-weight="700" fill="#E2E8F0">Synalux POS</text>

  <!-- Nav Tabs -->
  <text x="200" y="36" font-size="13" fill="#64748B" font-weight="500">Register</text>
  <text x="280" y="36" font-size="13" fill="#64748B" font-weight="500">Tables</text>
  <text x="348" y="36" font-size="13" fill="#64748B" font-weight="500">Orders</text>
  <text x="420" y="36" font-size="13" fill="#64748B" font-weight="500">Menu</text>
  <text x="484" y="36" font-size="13" fill="#F59E0B" font-weight="700">Reports</text>
  <rect x="484" y="52" width="52" height="3" rx="1.5" fill="#F59E0B"/>
  <text x="558" y="36" font-size="13" fill="#64748B" font-weight="500">Settings</text>

  <!-- User avatar -->
  <circle cx="1240" cy="28" r="16" fill="#2A2E45" stroke="#F59E0B" stroke-width="1.5"/>
  <text x="1231" y="33" font-size="13" font-weight="700" fill="#F59E0B">SR</text>
  <text x="1264" y="24" font-size="12" font-weight="600" fill="#E2E8F0">Sara R. (Manager)</text>
  <text x="1264" y="40" font-size="11" fill="#64748B">10:15 PM  May 29, 2026</text>

  <!-- ===== LEFT SIDEBAR ===== -->
  <rect x="0" y="56" width="220" height="968" fill="url(#sideGrad)"/>
  <line x1="220" y1="56" x2="220" y2="1024" stroke="#1E2235" stroke-width="1"/>

  <!-- Sidebar header -->
  <!-- Admin: Report types — configurable: visible report types, custom reports -->
  <text x="20" y="88" font-size="10" font-weight="700" fill="#475569" letter-spacing="1.2">REPORT TYPES</text>
  <use href="#adminGear" x="120" y="76" width="14" height="14"/>

  <!-- Tab 1: Sales (ACTIVE) -->
  <rect x="0" y="100" width="220" height="42" fill="#1A1D2E"/>
  <rect x="0" y="100" width="3" height="42" rx="0" fill="#F59E0B"/>
  <rect x="0" y="100" width="220" height="42" fill="#F59E0B" fill-opacity="0.06"/>
  <!-- Icon: chart bar -->
  <rect x="20" y="113" width="4" height="14" rx="1" fill="#F59E0B"/>
  <rect x="26" y="117" width="4" height="10" rx="1" fill="#F59E0B"/>
  <rect x="32" y="110" width="4" height="17" rx="1" fill="#F59E0B"/>
  <text x="44" y="125" font-size="13" font-weight="600" fill="#F59E0B">Sales</text>

  <!-- Tab 2: PMIX -->
  <use href="#navTabInactive" x="0" y="142" width="220" height="42"/>
  <rect x="20" y="156" width="14" height="12" rx="2" fill="none" stroke="#64748B" stroke-width="1.5"/>
  <line x1="24" y1="162" x2="30" y2="162" stroke="#64748B" stroke-width="1"/>
  <text x="44" y="167" font-size="13" fill="#94A3B8">PMIX</text>

  <!-- Tab 3: Menu Engineering -->
  <use href="#navTabInactive" x="0" y="184" width="220" height="42"/>
  <circle cx="27" cy="205" r="7" fill="none" stroke="#64748B" stroke-width="1.5"/>
  <line x1="27" y1="201" x2="27" y2="209" stroke="#64748B" stroke-width="1.2"/>
  <line x1="23" y1="205" x2="31" y2="205" stroke="#64748B" stroke-width="1.2"/>
  <text x="44" y="209" font-size="13" fill="#94A3B8">Menu Engineering</text>

  <!-- Tab 4: Speed of Service -->
  <use href="#navTabInactive" x="0" y="226" width="220" height="42"/>
  <circle cx="27" cy="247" r="7" fill="none" stroke="#64748B" stroke-width="1.5"/>
  <line x1="27" y1="247" x2="31" y2="243" stroke="#64748B" stroke-width="1.5"/>
  <line x1="27" y1="247" x2="27" y2="242" stroke="#64748B" stroke-width="1"/>
  <text x="44" y="251" font-size="13" fill="#94A3B8">Speed of Service</text>

  <!-- Tab 5: Server Performance -->
  <use href="#navTabInactive" x="0" y="268" width="220" height="42"/>
  <circle cx="27" cy="289" r="5" fill="none" stroke="#64748B" stroke-width="1.5"/>
  <line x1="27" y1="294" x2="27" y2="299" stroke="#64748B" stroke-width="1.5"/>
  <line x1="22" y1="297" x2="32" y2="297" stroke="#64748B" stroke-width="1.5"/>
  <text x="44" y="293" font-size="13" fill="#94A3B8">Server Performance</text>

  <!-- Tab 6: Payments -->
  <use href="#navTabInactive" x="0" y="310" width="220" height="42"/>
  <rect x="20" y="326" width="14" height="10" rx="2" fill="none" stroke="#64748B" stroke-width="1.5"/>
  <line x1="20" y1="329" x2="34" y2="329" stroke="#64748B" stroke-width="1"/>
  <text x="44" y="335" font-size="13" fill="#94A3B8">Payments</text>

  <!-- Tab 7: Voids / Comps -->
  <use href="#navTabInactive" x="0" y="352" width="220" height="42"/>
  <line x1="22" y1="369" x2="32" y2="379" stroke="#64748B" stroke-width="1.5"/>
  <line x1="32" y1="369" x2="22" y2="379" stroke="#64748B" stroke-width="1.5"/>
  <text x="44" y="377" font-size="13" fill="#94A3B8">Voids / Comps</text>

  <!-- Tab 8: Labor -->
  <use href="#navTabInactive" x="0" y="394" width="220" height="42"/>
  <rect x="20" y="410" width="14" height="12" rx="2" fill="none" stroke="#64748B" stroke-width="1.5"/>
  <line x1="24" y1="414" x2="30" y2="414" stroke="#64748B" stroke-width="1"/>
  <line x1="24" y1="418" x2="30" y2="418" stroke="#64748B" stroke-width="1"/>
  <text x="44" y="420" font-size="13" fill="#94A3B8">Labor</text>

  <!-- Sidebar bottom branding -->
  <text x="20" y="990" font-size="9" fill="#475569">Synalux POS v2.4.1</text>
  <text x="20" y="1004" font-size="9" fill="#475569">Reports Engine</text>

  <!-- ===== MAIN CONTENT AREA ===== -->

  <!-- ===== DATE RANGE PICKER BAR ===== -->
  <!-- Admin: Date range options — configurable: custom fiscal calendar, default range -->
  <rect x="220" y="56" width="1146" height="52" fill="#161930"/>
  <line x1="220" y1="108" x2="1366" y2="108" stroke="#1E2235" stroke-width="1"/>

  <!-- Date range label -->
  <text x="244" y="87" font-size="11" font-weight="600" fill="#64748B">DATE RANGE</text>
  <use href="#adminGear" x="320" y="75" width="14" height="14"/>

  <!-- Today button (active) -->
  <rect x="340" y="68" width="64" height="30" rx="6" fill="url(#exportBtn)" filter="url(#btnShadow)"/>
  <text x="356" y="88" font-size="12" font-weight="700" fill="#0C0E1A">Today</text>

  <!-- Yesterday -->
  <use href="#dateRangeBtn" x="412" y="68" width="78" height="30"/>
  <text x="424" y="88" font-size="12" fill="#94A3B8">Yesterday</text>

  <!-- This Week -->
  <use href="#dateRangeBtn" x="498" y="68" width="82" height="30"/>
  <text x="511" y="88" font-size="12" fill="#94A3B8">This Week</text>

  <!-- This Month -->
  <use href="#dateRangeBtn" x="588" y="68" width="88" height="30"/>
  <text x="600" y="88" font-size="12" fill="#94A3B8">This Month</text>

  <!-- Custom date icon -->
  <rect x="684" y="68" width="106" height="30" rx="6" fill="#0C0E1A" stroke="#2A2E45" stroke-width="1"/>
  <text x="700" y="88" font-size="12" fill="#94A3B8">Custom...</text>

  <!-- Admin: Export buttons — configurable: export formats, scheduled reports -->
  <!-- CSV Export button -->
  <use href="#exportBtnOutline" x="1176" y="68" width="110" height="30"/>
  <text x="1196" y="88" font-size="12" font-weight="600" fill="#F59E0B">Export CSV</text>
  <use href="#adminGear" x="1160" y="69" width="14" height="14"/>

  <!-- PDF Export button -->
  <use href="#exportBtnPlain" x="1294" y="68" width="52" height="30"/>
  <text x="1304" y="88" font-size="12" fill="#94A3B8">PDF</text>

  <!-- ===== REPORT TITLE ===== -->
  <text x="244" y="140" font-size="20" font-weight="700" fill="#E2E8F0">Sales Report</text>
  <text x="390" y="140" font-size="13" fill="#64748B">Today, May 29, 2026</text>
  <text x="244" y="158" font-size="11" fill="#475569">Last updated 10:15 PM  |  All revenue centers</text>

  <!-- ===== KPI CARDS ===== -->
  <!-- Admin: KPI cards — configurable: displayed metrics, comparison period, thresholds -->

  <!-- KPI 1: Net Sales -->
  <rect x="244" y="174" width="250" height="108" rx="12" fill="url(#kpiNet)" stroke="#2A2E45" stroke-width="1" filter="url(#kpiShadow)"/>
  <rect x="244" y="174" width="250" height="108" rx="12" fill="url(#amberGlow)"/>
  <text x="268" y="200" font-size="11" font-weight="700" fill="#64748B" letter-spacing="0.5">NET SALES</text>
  <text x="268" y="240" font-size="32" font-weight="800" fill="#E2E8F0">$4,391</text>
  <text x="412" y="240" font-size="16" font-weight="600" fill="#94A3B8">.20</text>
  <rect x="268" y="252" width="72" height="20" rx="5" fill="url(#greenBadge)"/>
  <text x="278" y="266" font-size="11" font-weight="700" fill="#22C55E">+12.4%</text>
  <use href="#adminGear" x="478" y="176" width="14" height="14"/>

  <!-- KPI 2: Gross Sales -->
  <use href="#kpiCard" x="510" y="174" width="250" height="108" filter="url(#kpiShadow)"/>
  <text x="534" y="200" font-size="11" font-weight="700" fill="#64748B" letter-spacing="0.5">GROSS SALES</text>
  <text x="534" y="240" font-size="32" font-weight="800" fill="#E2E8F0">$4,847</text>
  <text x="688" y="240" font-size="16" font-weight="600" fill="#94A3B8">.50</text>
  <rect x="534" y="252" width="72" height="20" rx="5" fill="url(#greenBadge)"/>
  <text x="544" y="266" font-size="11" font-weight="700" fill="#22C55E">+9.6%</text>

  <!-- KPI 3: Avg Ticket -->
  <use href="#kpiCard" x="776" y="174" width="250" height="108" filter="url(#kpiShadow)"/>
  <text x="800" y="200" font-size="11" font-weight="700" fill="#64748B" letter-spacing="0.5">AVG TICKET</text>
  <text x="800" y="240" font-size="32" font-weight="800" fill="#E2E8F0">$38.19</text>
  <text x="800" y="268" font-size="11" fill="#475569">127 orders today</text>

  <!-- KPI 4: Discounts -->
  <use href="#kpiCard" x="1042" y="174" width="250" height="108" filter="url(#kpiShadow)"/>
  <text x="1066" y="200" font-size="11" font-weight="700" fill="#64748B" letter-spacing="0.5">DISCOUNTS</text>
  <text x="1066" y="240" font-size="32" font-weight="800" fill="#F59E0B">$456</text>
  <text x="1166" y="240" font-size="16" font-weight="600" fill="#F59E0B" fill-opacity="0.7">.30</text>
  <text x="1066" y="268" font-size="11" fill="#475569">9.4% of gross sales</text>
  <!-- Training-excluded indicator -->
  <rect x="1200" y="192" width="80" height="16" rx="4" fill="#1A1D2E" stroke="#2A2E45" stroke-width="0.5"/>
  <text x="1240" y="204" fill="#64748B" font-size="8" font-weight="500" text-anchor="middle">Training excl.</text>

  <!-- ===== HOURLY REVENUE BAR CHART ===== -->
  <rect x="244" y="298" width="1078" height="280" rx="12" fill="url(#cardGrad)" stroke="#1E2235" stroke-width="1" filter="url(#cardShadow)"/>

  <!-- Chart header -->
  <text x="272" y="328" font-size="15" font-weight="700" fill="#E2E8F0">Hourly Revenue</text>
  <text x="272" y="346" font-size="11" fill="#475569">Sales volume by hour of service</text>

  <!-- Legend -->
  <rect x="1170" y="318" width="10" height="10" rx="2" fill="#F59E0B"/>
  <text x="1186" y="328" font-size="11" fill="#94A3B8">Revenue</text>
  <rect x="1246" y="318" width="10" height="10" rx="2" fill="#60A5FA"/>
  <text x="1262" y="328" font-size="11" fill="#94A3B8">Covers</text>

  <!-- Chart area: x=300..1290, y=360..540 (height=180), baseline=540 -->
  <!-- Y-axis gridlines -->
  <line x1="300" y1="540" x2="1290" y2="540" stroke="#2A2E45" stroke-width="1"/>
  <line x1="300" y1="504" x2="1290" y2="504" stroke="#1E2235" stroke-width="0.5" stroke-dasharray="4,4"/>
  <line x1="300" y1="468" x2="1290" y2="468" stroke="#1E2235" stroke-width="0.5" stroke-dasharray="4,4"/>
  <line x1="300" y1="432" x2="1290" y2="432" stroke="#1E2235" stroke-width="0.5" stroke-dasharray="4,4"/>
  <line x1="300" y1="396" x2="1290" y2="396" stroke="#1E2235" stroke-width="0.5" stroke-dasharray="4,4"/>
  <line x1="300" y1="360" x2="1290" y2="360" stroke="#1E2235" stroke-width="0.5" stroke-dasharray="4,4"/>

  <!-- Y-axis labels -->
  <text x="290" y="544" font-size="10" fill="#475569" text-anchor="end">$0</text>
  <text x="290" y="508" font-size="10" fill="#475569" text-anchor="end">$200</text>
  <text x="290" y="472" font-size="10" fill="#475569" text-anchor="end">$400</text>
  <text x="290" y="436" font-size="10" fill="#475569" text-anchor="end">$600</text>
  <text x="290" y="400" font-size="10" fill="#475569" text-anchor="end">$800</text>
  <text x="290" y="364" font-size="10" fill="#475569" text-anchor="end">$1,000</text>

  <!-- Bar chart columns -->
  <!-- 11 AM: $180 -> h=32 -->
  <rect x="318" y="508" width="50" height="32" rx="4" fill="url(#amberBar)" fill-opacity="0.5"/>
  <text x="343" y="558" font-size="10" fill="#64748B" text-anchor="middle">11a</text>

  <!-- 12 PM: $620 -> h=112 -->
  <rect x="388" y="428" width="50" height="112" rx="4" fill="url(#amberBar)" fill-opacity="0.7"/>
  <text x="413" y="558" font-size="10" fill="#64748B" text-anchor="middle">12p</text>
  <text x="413" y="422" font-size="9" font-weight="600" fill="#F59E0B" text-anchor="middle">$620</text>

  <!-- 1 PM: $540 -> h=97 -->
  <rect x="458" y="443" width="50" height="97" rx="4" fill="url(#amberBar)" fill-opacity="0.65"/>
  <text x="483" y="558" font-size="10" fill="#64748B" text-anchor="middle">1p</text>

  <!-- 2 PM: $290 -> h=52 -->
  <rect x="528" y="488" width="50" height="52" rx="4" fill="url(#amberBar)" fill-opacity="0.45"/>
  <text x="553" y="558" font-size="10" fill="#64748B" text-anchor="middle">2p</text>

  <!-- 3 PM: $180 -> h=32 -->
  <rect x="598" y="508" width="50" height="32" rx="4" fill="url(#amberBar)" fill-opacity="0.35"/>
  <text x="623" y="558" font-size="10" fill="#64748B" text-anchor="middle">3p</text>

  <!-- 4 PM: $320 -> h=58 -->
  <rect x="668" y="482" width="50" height="58" rx="4" fill="url(#amberBar)" fill-opacity="0.5"/>
  <text x="693" y="558" font-size="10" fill="#64748B" text-anchor="middle">4p</text>

  <!-- 5 PM: $580 -> h=104 -->
  <rect x="738" y="436" width="50" height="104" rx="4" fill="url(#amberBar)" fill-opacity="0.65"/>
  <text x="763" y="558" font-size="10" fill="#64748B" text-anchor="middle">5p</text>

  <!-- 6 PM: $720 -> h=130 -->
  <rect x="808" y="410" width="50" height="130" rx="4" fill="url(#amberBar)" fill-opacity="0.75"/>
  <text x="833" y="558" font-size="10" fill="#64748B" text-anchor="middle">6p</text>
  <text x="833" y="404" font-size="9" font-weight="600" fill="#F59E0B" text-anchor="middle">$720</text>

  <!-- 7 PM: $890 -> h=160 (PEAK - highlighted) -->
  <rect x="878" y="380" width="50" height="160" rx="4" fill="url(#amberBar)" filter="url(#glowAmber)"/>
  <rect x="876" y="378" width="54" height="164" rx="5" fill="none" stroke="#F59E0B" stroke-width="1.5" stroke-opacity="0.6"/>
  <text x="903" y="558" font-size="10" fill="#F59E0B" font-weight="700" text-anchor="middle">7p</text>
  <text x="903" y="374" font-size="10" font-weight="700" fill="#F59E0B" text-anchor="middle">$890</text>
  <!-- Peak badge -->
  <rect x="883" y="361" width="40" height="14" rx="4" fill="#F59E0B" fill-opacity="0.15"/>
  <text x="903" y="371" font-size="8" font-weight="700" fill="#F59E0B" text-anchor="middle">PEAK</text>

  <!-- 8 PM: $680 -> h=122 -->
  <rect x="948" y="418" width="50" height="122" rx="4" fill="url(#amberBar)" fill-opacity="0.7"/>
  <text x="973" y="558" font-size="10" fill="#64748B" text-anchor="middle">8p</text>

  <!-- 9 PM: $490 -> h=88 -->
  <rect x="1018" y="452" width="50" height="88" rx="4" fill="url(#amberBar)" fill-opacity="0.5"/>
  <text x="1043" y="558" font-size="10" fill="#64748B" text-anchor="middle">9p</text>

  <!-- 10 PM: $207 -> h=37 -->
  <rect x="1088" y="503" width="50" height="37" rx="4" fill="url(#amberBar)" fill-opacity="0.3"/>
  <text x="1113" y="558" font-size="10" fill="#64748B" text-anchor="middle">10p</text>

  <!-- Projected (faded) 11 PM: ~$100 -> h=18 -->
  <rect x="1158" y="522" width="50" height="18" rx="4" fill="#F59E0B" fill-opacity="0.12" stroke="#F59E0B" stroke-width="0.5" stroke-opacity="0.2" stroke-dasharray="3,2"/>
  <text x="1183" y="558" font-size="10" fill="#475569" text-anchor="middle">11p</text>

  <!-- ===== TOP-SELLING ITEMS TABLE ===== -->
  <rect x="244" y="594" width="1078" height="380" rx="12" fill="url(#cardGrad)" stroke="#1E2235" stroke-width="1" filter="url(#cardShadow)"/>

  <!-- Table header area -->
  <text x="272" y="624" font-size="15" font-weight="700" fill="#E2E8F0">Top-Selling Items</text>
  <text x="272" y="642" font-size="11" fill="#475569">Ranked by revenue contribution today</text>

  <!-- Admin: Table display — configurable: number of items shown, sort order, columns -->
  <use href="#adminGear" x="410" y="614" width="14" height="14"/>

  <!-- Showing count pill -->
  <rect x="1208" y="612" width="88" height="24" rx="6" fill="#0C0E1A" stroke="#2A2E45" stroke-width="1"/>
  <text x="1224" y="629" font-size="11" fill="#94A3B8">Top 8 items</text>

  <!-- Column headers -->
  <rect x="260" y="654" width="1046" height="32" rx="0" fill="#0C0E1A" fill-opacity="0.5"/>
  <text x="280" y="675" font-size="10" font-weight="700" fill="#475569" letter-spacing="0.8">#</text>
  <text x="308" y="675" font-size="10" font-weight="700" fill="#475569" letter-spacing="0.8">ITEM NAME</text>
  <text x="620" y="675" font-size="10" font-weight="700" fill="#475569" letter-spacing="0.8">CATEGORY</text>
  <text x="810" y="675" font-size="10" font-weight="700" fill="#475569" letter-spacing="0.8">QTY SOLD</text>
  <text x="930" y="675" font-size="10" font-weight="700" fill="#475569" letter-spacing="0.8">REVENUE</text>
  <text x="1060" y="675" font-size="10" font-weight="700" fill="#475569" letter-spacing="0.8">% OF SALES</text>
  <text x="1200" y="675" font-size="10" font-weight="700" fill="#475569" letter-spacing="0.8">TREND</text>

  <!-- Divider -->
  <line x1="260" y1="686" x2="1306" y2="686" stroke="#1E2235" stroke-width="1"/>

  <!-- Row 1: Classic Burger (42 sold x $12 = $504) -->
  <use href="#tableRow" x="260" y="686" width="1046" height="36" fill="#1A1D2E"/>
  <text x="280" y="710" font-size="12" font-weight="600" fill="#F59E0B">1</text>
  <text x="308" y="710" font-size="13" font-weight="600" fill="#E2E8F0">Classic Burger</text>
  <text x="620" y="710" font-size="12" fill="#94A3B8">Burgers</text>
  <text x="826" y="710" font-size="12" font-weight="600" fill="#CBD5E1">42</text>
  <text x="930" y="710" font-size="12" font-weight="700" fill="#E2E8F0">$504.00</text>
  <use href="#revBarBg" x="1060" y="702" width="80" height="8"/>
  <rect x="1060" y="702" width="66" height="8" rx="4" fill="#F59E0B"/>
  <text x="1148" y="710" font-size="11" fill="#CBD5E1">10.4%</text>
  <text x="1210" y="710" font-size="12" font-weight="600" fill="#22C55E">+15%</text>
  <line x1="260" y1="722" x2="1306" y2="722" stroke="#1E2235" stroke-width="0.5"/>

  <!-- Row 2: BBQ Ribs (15 sold x $24 = $360) -->
  <use href="#tableRow" x="260" y="722" width="1046" height="36" fill="#161930" fill-opacity="0.5"/>
  <text x="280" y="746" font-size="12" font-weight="600" fill="#94A3B8">2</text>
  <text x="308" y="746" font-size="13" font-weight="500" fill="#CBD5E1">BBQ Ribs</text>
  <text x="620" y="746" font-size="12" fill="#94A3B8">Entrees</text>
  <text x="826" y="746" font-size="12" fill="#CBD5E1">15</text>
  <text x="930" y="746" font-size="12" font-weight="600" fill="#CBD5E1">$360.00</text>
  <use href="#revBarBg" x="1060" y="738" width="80" height="8"/>
  <rect x="1060" y="738" width="47" height="8" rx="4" fill="#F59E0B" fill-opacity="0.7"/>
  <text x="1148" y="746" font-size="11" fill="#CBD5E1">7.4%</text>
  <text x="1210" y="746" font-size="12" font-weight="600" fill="#22C55E">+8%</text>
  <line x1="260" y1="758" x2="1306" y2="758" stroke="#1E2235" stroke-width="0.5"/>

  <!-- Row 3: Fish & Chips (18 sold x $16 = $288) -->
  <use href="#tableRow" x="260" y="758" width="1046" height="36" fill="#1A1D2E"/>
  <text x="280" y="782" font-size="12" font-weight="600" fill="#94A3B8">3</text>
  <text x="308" y="782" font-size="13" font-weight="500" fill="#CBD5E1">Fish &amp; Chips</text>
  <text x="620" y="782" font-size="12" fill="#94A3B8">Entrees</text>
  <text x="826" y="782" font-size="12" fill="#CBD5E1">18</text>
  <text x="930" y="782" font-size="12" font-weight="600" fill="#CBD5E1">$288.00</text>
  <use href="#revBarBg" x="1060" y="774" width="80" height="8"/>
  <rect x="1060" y="774" width="38" height="8" rx="4" fill="#F59E0B" fill-opacity="0.6"/>
  <text x="1148" y="782" font-size="11" fill="#CBD5E1">5.9%</text>
  <text x="1210" y="782" font-size="12" font-weight="600" fill="#22C55E">+4%</text>
  <line x1="260" y1="794" x2="1306" y2="794" stroke="#1E2235" stroke-width="0.5"/>

  <!-- Row 4: Craft IPA (28 sold x $8 = $224) -->
  <use href="#tableRow" x="260" y="794" width="1046" height="36" fill="#161930" fill-opacity="0.5"/>
  <text x="280" y="818" font-size="12" font-weight="600" fill="#94A3B8">4</text>
  <text x="308" y="818" font-size="13" font-weight="500" fill="#CBD5E1">Craft IPA</text>
  <text x="620" y="818" font-size="12" fill="#94A3B8">Drinks</text>
  <text x="826" y="818" font-size="12" fill="#CBD5E1">28</text>
  <text x="930" y="818" font-size="12" font-weight="600" fill="#CBD5E1">$224.00</text>
  <use href="#revBarBg" x="1060" y="810" width="80" height="8"/>
  <rect x="1060" y="810" width="30" height="8" rx="4" fill="#60A5FA" fill-opacity="0.7"/>
  <text x="1148" y="818" font-size="11" fill="#CBD5E1">4.6%</text>
  <text x="1210" y="818" font-size="12" font-weight="600" fill="#22C55E">+12%</text>
  <line x1="260" y1="830" x2="1306" y2="830" stroke="#1E2235" stroke-width="0.5"/>

  <!-- Row 5: Chicken Burger (16 sold x $13 = $208) -->
  <use href="#tableRow" x="260" y="830" width="1046" height="36" fill="#1A1D2E"/>
  <text x="280" y="854" font-size="12" font-weight="600" fill="#94A3B8">5</text>
  <text x="308" y="854" font-size="13" font-weight="500" fill="#CBD5E1">Chicken Burger</text>
  <text x="620" y="854" font-size="12" fill="#94A3B8">Burgers</text>
  <text x="826" y="854" font-size="12" fill="#CBD5E1">16</text>
  <text x="930" y="854" font-size="12" font-weight="600" fill="#CBD5E1">$208.00</text>
  <use href="#revBarBg" x="1060" y="846" width="80" height="8"/>
  <rect x="1060" y="846" width="27" height="8" rx="4" fill="#F59E0B" fill-opacity="0.5"/>
  <text x="1148" y="854" font-size="11" fill="#CBD5E1">4.3%</text>
  <text x="1210" y="854" font-size="12" font-weight="500" fill="#EF4444">-2%</text>
  <line x1="260" y1="866" x2="1306" y2="866" stroke="#1E2235" stroke-width="0.5"/>

  <!-- Row 6: Draft Beer (31 sold x $6 = $186) -->
  <use href="#tableRow" x="260" y="866" width="1046" height="36" fill="#161930" fill-opacity="0.5"/>
  <text x="280" y="890" font-size="12" font-weight="600" fill="#94A3B8">6</text>
  <text x="308" y="890" font-size="13" font-weight="500" fill="#CBD5E1">Draft Beer</text>
  <text x="620" y="890" font-size="12" fill="#94A3B8">Drinks</text>
  <text x="826" y="890" font-size="12" fill="#CBD5E1">31</text>
  <text x="930" y="890" font-size="12" font-weight="600" fill="#CBD5E1">$186.00</text>
  <use href="#revBarBg" x="1060" y="882" width="80" height="8"/>
  <rect x="1060" y="882" width="24" height="8" rx="4" fill="#60A5FA" fill-opacity="0.6"/>
  <text x="1148" y="890" font-size="11" fill="#CBD5E1">3.8%</text>
  <text x="1210" y="890" font-size="12" font-weight="600" fill="#22C55E">+9%</text>
  <line x1="260" y1="902" x2="1306" y2="902" stroke="#1E2235" stroke-width="0.5"/>

  <!-- Row 7: Large Fries (38 sold x $4.50 = $171) -->
  <use href="#tableRow" x="260" y="902" width="1046" height="36" fill="#1A1D2E"/>
  <text x="280" y="926" font-size="12" font-weight="600" fill="#94A3B8">7</text>
  <text x="308" y="926" font-size="13" font-weight="500" fill="#CBD5E1">Large Fries</text>
  <text x="620" y="926" font-size="12" fill="#94A3B8">Sides</text>
  <text x="826" y="926" font-size="12" fill="#CBD5E1">38</text>
  <text x="930" y="926" font-size="12" font-weight="600" fill="#CBD5E1">$171.00</text>
  <use href="#revBarBg" x="1060" y="918" width="80" height="8"/>
  <rect x="1060" y="918" width="22" height="8" rx="4" fill="#F59E0B" fill-opacity="0.5"/>
  <text x="1148" y="926" font-size="11" fill="#CBD5E1">3.5%</text>
  <text x="1210" y="926" font-size="12" font-weight="600" fill="#22C55E">+6%</text>
  <line x1="260" y1="938" x2="1306" y2="938" stroke="#1E2235" stroke-width="0.5"/>

  <!-- Row 8: Caesar Salad (22 sold x $8 = $176) -->
  <use href="#tableRow" x="260" y="938" width="1046" height="36" fill="#161930" fill-opacity="0.5"/>
  <text x="280" y="962" font-size="12" font-weight="600" fill="#94A3B8">8</text>
  <text x="308" y="962" font-size="13" font-weight="500" fill="#CBD5E1">Caesar Salad</text>
  <text x="620" y="962" font-size="12" fill="#94A3B8">Sides</text>
  <text x="826" y="962" font-size="12" fill="#CBD5E1">22</text>
  <text x="930" y="962" font-size="12" font-weight="600" fill="#CBD5E1">$176.00</text>
  <use href="#revBarBg" x="1060" y="954" width="80" height="8"/>
  <rect x="1060" y="954" width="23" height="8" rx="4" fill="#4ADE80" fill-opacity="0.4"/>
  <text x="1148" y="962" font-size="11" fill="#CBD5E1">3.6%</text>
  <text x="1210" y="962" font-size="12" font-weight="600" fill="#22C55E">+3%</text>

</svg>