<svg xmlns="http://www.w3.org/2000/svg" viewBox="0 0 1366 1024" font-family="system-ui,-apple-system,sans-serif">

  <!-- ═══════════════════════════════════════════════════════ -->
  <!-- BACKGROUND                                              -->
  <!-- ═══════════════════════════════════════════════════════ -->
  <rect width="1366" height="1024" fill="#0F1117"/>

  <!-- ═══════════════════════════════════════════════════════ -->
  <!-- TOP NAV (h=56)                                          -->
  <!-- ═══════════════════════════════════════════════════════ -->
  <rect x="0" y="0" width="1366" height="56" fill="#1A1D2E"/>
  <rect x="0" y="56" width="1366" height="1" fill="#2D3148"/>

  <!-- Logo + live badge -->
  <circle cx="20" cy="28" r="7" fill="#10B981"/>
  <text x="34" y="33" fill="#10B981" font-size="12" font-weight="600">LIVE</text>
  <text x="68" y="35" fill="#F59E0B" font-size="18" font-weight="700">Synalux POS</text>

  <!-- Nav tabs -->
  <text x="220" y="34" fill="#94A3B8" font-size="13" text-anchor="middle">Register</text>
  <!-- Tables tab active -->
  <text x="310" y="34" fill="#F59E0B" font-size="13" font-weight="700" text-anchor="middle">Tables</text>
  <rect x="281" y="53" width="58" height="3" rx="1.5" fill="#F59E0B"/>
  <text x="400" y="34" fill="#94A3B8" font-size="13" text-anchor="middle">Kitchen</text>
  <text x="490" y="34" fill="#94A3B8" font-size="13" text-anchor="middle">Reports</text>
  <text x="576" y="34" fill="#94A3B8" font-size="13" text-anchor="middle">Staff</text>

  <!-- Right side: server, time -->
  <text x="900" y="22" fill="#94A3B8" font-size="11">Server on duty</text>
  <text x="900" y="38" fill="#F1F5F9" font-size="13" font-weight="600">Sarah W.</text>
  <text x="1220" y="22" fill="#94A3B8" font-size="11">Wednesday</text>
  <text x="1220" y="38" fill="#F1F5F9" font-size="14" font-weight="600">6:44 PM</text>
  <text x="1310" y="36" fill="#94A3B8" font-size="20">⚙</text>
  <text x="1340" y="36" fill="#94A3B8" font-size="20">🔔</text>

  <!-- ═══════════════════════════════════════════════════════ -->
  <!-- HEADER BAR (y=57, h=48)                                -->
  <!-- ═══════════════════════════════════════════════════════ -->
  <rect x="0" y="57" width="1366" height="48" fill="#1A1D2E"/>
  <rect x="0" y="105" width="1366" height="1" fill="#2D3148"/>

  <text x="24" y="87" fill="#F1F5F9" font-size="15" font-weight="700">Table Operations — Merge / Split / Transfer</text>

  <!-- Tabs -->
  <!-- Merge Tables tab (active) -->
  <rect x="360" y="65" width="136" height="32" rx="6" fill="#F59E0B"/>
  <text x="428" y="86" fill="#0F1117" font-size="13" font-weight="700" text-anchor="middle">Merge Tables</text>

  <!-- Split Table tab -->
  <rect x="504" y="65" width="114" height="32" rx="6" fill="#1A1D2E"/>
  <rect x="504" y="65" width="114" height="32" rx="6" fill="none" stroke="#2D3148" stroke-width="1"/>
  <text x="561" y="86" fill="#94A3B8" font-size="13" text-anchor="middle">Split Table</text>

  <!-- Transfer Order tab -->
  <rect x="626" y="65" width="136" height="32" rx="6" fill="#1A1D2E"/>
  <rect x="626" y="65" width="136" height="32" rx="6" fill="none" stroke="#2D3148" stroke-width="1"/>
  <text x="694" y="86" fill="#94A3B8" font-size="13" text-anchor="middle">Transfer Order</text>

  <!-- ═══════════════════════════════════════════════════════ -->
  <!-- LEFT PANEL (x=0, w=560, y=106)                         -->
  <!-- ═══════════════════════════════════════════════════════ -->
  <rect x="0" y="106" width="560" height="918" fill="#0F1117"/>
  <rect x="559" y="106" width="1" height="918" fill="#2D3148"/>

  <!-- Panel label -->
  <text x="20" y="132" fill="#64748B" font-size="11" font-weight="700" letter-spacing="1">FLOOR PLAN — SELECT TWO TABLES</text>

  <!-- "2 tables selected" amber chip (top-right of floor plan area) -->
  <rect x="430" y="118" width="118" height="24" rx="12" fill="#F59E0B" opacity="0.15"/>
  <rect x="430" y="118" width="118" height="24" rx="12" fill="none" stroke="#F59E0B" stroke-width="1"/>
  <circle cx="449" cy="130" r="5" fill="#F59E0B"/>
  <text x="460" y="134" fill="#F59E0B" font-size="11" font-weight="700">2 tables selected</text>

  <!-- ─── MINI FLOOR PLAN ─────────────────────────────────── -->
  <!-- Floor plan card -->
  <rect x="12" y="144" width="536" height="500" rx="10" fill="#13162A"/>
  <rect x="12" y="144" width="536" height="500" rx="10" fill="none" stroke="#2D3148" stroke-width="1"/>

  <!-- Grid lines (dark) -->
  <g stroke="#1E2235" stroke-width="1" opacity="0.7">
    <line x1="12" y1="188" x2="548" y2="188"/>
    <line x1="12" y1="232" x2="548" y2="232"/>
    <line x1="12" y1="276" x2="548" y2="276"/>
    <line x1="12" y1="320" x2="548" y2="320"/>
    <line x1="12" y1="364" x2="548" y2="364"/>
    <line x1="12" y1="408" x2="548" y2="408"/>
    <line x1="12" y1="452" x2="548" y2="452"/>
    <line x1="12" y1="496" x2="548" y2="496"/>
    <line x1="12" y1="540" x2="548" y2="540"/>
    <line x1="80" y1="144" x2="80" y2="644"/>
    <line x1="148" y1="144" x2="148" y2="644"/>
    <line x1="216" y1="144" x2="216" y2="644"/>
    <line x1="284" y1="144" x2="284" y2="644"/>
    <line x1="352" y1="144" x2="352" y2="644"/>
    <line x1="420" y1="144" x2="420" y2="644"/>
    <line x1="488" y1="144" x2="488" y2="644"/>
  </g>

  <!-- Instruction banner -->
  <rect x="20" y="150" width="528" height="26" rx="5" fill="#1A1D2E" opacity="0.9"/>
  <text x="284" y="167" fill="#94A3B8" font-size="12" text-anchor="middle">Tap two tables to merge · Drag to rearrange · Long-press to edit</text>

  <!-- ─── TABLE 3 — SELECTED (amber, round) ─────────────────── -->
  <!-- Glow effect -->
  <circle cx="130" cy="270" r="52" fill="#F59E0B" opacity="0.08"/>
  <!-- Dashed amber border -->
  <circle cx="130" cy="270" r="44" fill="#1A2010" stroke="#F59E0B" stroke-width="2.5" stroke-dasharray="6,3"/>
  <!-- Table surface -->
  <circle cx="130" cy="270" r="36" fill="#2A2A0A"/>
  <circle cx="130" cy="270" r="36" stroke="#F59E0B" stroke-width="1.5" fill="none"/>
  <!-- Table number -->
  <text x="130" y="264" fill="#F59E0B" font-size="16" font-weight="700" text-anchor="middle">T3</text>
  <text x="130" y="280" fill="#F59E0B" font-size="10" text-anchor="middle">4 guests</text>
  <!-- Chair indicators (round table) -->
  <circle cx="130" cy="222" r="6" fill="#F59E0B" opacity="0.5"/>
  <circle cx="130" cy="318" r="6" fill="#F59E0B" opacity="0.5"/>
  <circle cx="82" cy="270" r="6" fill="#F59E0B" opacity="0.5"/>
  <circle cx="178" cy="270" r="6" fill="#F59E0B" opacity="0.5"/>
  <!-- Label below -->
  <text x="130" y="328" fill="#F59E0B" font-size="10" font-weight="600" text-anchor="middle">$42.00 · Sarah W.</text>
  <text x="130" y="341" fill="#64748B" font-size="10" text-anchor="middle">Open 34 min</text>
  <!-- Selected check badge -->
  <circle cx="164" cy="236" r="10" fill="#F59E0B"/>
  <text x="164" y="240" fill="#0F1117" font-size="11" font-weight="700" text-anchor="middle">✓</text>

  <!-- ─── TABLE 4 — SELECTED (amber, round) ─────────────────── -->
  <circle cx="310" cy="270" r="52" fill="#F59E0B" opacity="0.08"/>
  <circle cx="310" cy="270" r="44" fill="#1A2010" stroke="#F59E0B" stroke-width="2.5" stroke-dasharray="6,3"/>
  <circle cx="310" cy="270" r="36" fill="#2A2A0A"/>
  <circle cx="310" cy="270" r="36" stroke="#F59E0B" stroke-width="1.5" fill="none"/>
  <text x="310" y="264" fill="#F59E0B" font-size="16" font-weight="700" text-anchor="middle">T4</text>
  <text x="310" y="280" fill="#F59E0B" font-size="10" text-anchor="middle">3 guests</text>
  <circle cx="310" cy="222" r="6" fill="#F59E0B" opacity="0.5"/>
  <circle cx="310" cy="318" r="6" fill="#F59E0B" opacity="0.5"/>
  <circle cx="262" cy="270" r="6" fill="#F59E0B" opacity="0.5"/>
  <circle cx="358" cy="270" r="6" fill="#F59E0B" opacity="0.5"/>
  <text x="310" y="328" fill="#F59E0B" font-size="10" font-weight="600" text-anchor="middle">$31.50 · Marcus</text>
  <text x="310" y="341" fill="#64748B" font-size="10" text-anchor="middle">Open 22 min</text>
  <circle cx="344" cy="236" r="10" fill="#F59E0B"/>
  <text x="344" y="240" fill="#0F1117" font-size="11" font-weight="700" text-anchor="middle">✓</text>

  <!-- ─── MERGE ARROW between T3 and T4 ─────────────────────── -->
  <!-- Arrow shaft -->
  <line x1="178" y1="270" x2="262" y2="270" stroke="#F59E0B" stroke-width="2.5" stroke-dasharray="5,3"/>
  <!-- Left arrowhead -->
  <polygon points="182,264 174,270 182,276" fill="#F59E0B"/>
  <!-- Right arrowhead -->
  <polygon points="258,264 266,270 258,276" fill="#F59E0B"/>
  <!-- Center merge icon -->
  <circle cx="220" cy="270" r="12" fill="#2D3148"/>
  <text x="220" y="274" fill="#F59E0B" font-size="12" font-weight="700" text-anchor="middle">⇄</text>

  <!-- ─── TABLE 5 — AVAILABLE (green, rect) ─────────────────── -->
  <rect x="400" y="188" width="80" height="56" rx="8" fill="#0D2010"/>
  <rect x="400" y="188" width="80" height="56" rx="8" fill="none" stroke="#10B981" stroke-width="1.5"/>
  <text x="440" y="213" fill="#10B981" font-size="14" font-weight="700" text-anchor="middle">T5</text>
  <text x="440" y="228" fill="#10B981" font-size="10" text-anchor="middle">Available</text>
  <!-- Chair nubs -->
  <rect x="415" y="182" width="12" height="6" rx="2" fill="#10B981" opacity="0.4"/>
  <rect x="453" y="182" width="12" height="6" rx="2" fill="#10B981" opacity="0.4"/>
  <rect x="415" y="244" width="12" height="6" rx="2" fill="#10B981" opacity="0.4"/>
  <rect x="453" y="244" width="12" height="6" rx="2" fill="#10B981" opacity="0.4"/>

  <!-- ─── TABLE 6 — OCCUPIED (blue/teal, rect) ──────────────── -->
  <rect x="400" y="340" width="80" height="60" rx="8" fill="#101828"/>
  <rect x="400" y="340" width="80" height="60" rx="8" fill="none" stroke="#3B82F6" stroke-width="1.5"/>
  <text x="440" y="365" fill="#F1F5F9" font-size="14" font-weight="700" text-anchor="middle">T6</text>
  <text x="440" y="379" fill="#94A3B8" font-size="10" text-anchor="middle">2 guests</text>
  <text x="440" y="392" fill="#64748B" font-size="10" text-anchor="middle">Sarah W. · 18m</text>
  <rect x="418" y="334" width="10" height="6" rx="2" fill="#3B82F6" opacity="0.4"/>
  <rect x="452" y="334" width="10" height="6" rx="2" fill="#3B82F6" opacity="0.4"/>
  <rect x="418" y="400" width="10" height="6" rx="2" fill="#3B82F6" opacity="0.4"/>
  <rect x="452" y="400" width="10" height="6" rx="2" fill="#3B82F6" opacity="0.4"/>

  <!-- ─── TABLE 7 — OCCUPIED (round) ───────────────────────── -->
  <circle cx="130" cy="470" r="36" fill="#181020"/>
  <circle cx="130" cy="470" r="36" fill="none" stroke="#8B5CF6" stroke-width="1.5"/>
  <text x="130" y="465" fill="#F1F5F9" font-size="14" font-weight="700" text-anchor="middle">T7</text>
  <text x="130" y="479" fill="#94A3B8" font-size="10" text-anchor="middle">5 guests · Tyler</text>
  <circle cx="130" cy="430" r="6" fill="#8B5CF6" opacity="0.4"/>
  <circle cx="130" cy="510" r="6" fill="#8B5CF6" opacity="0.4"/>
  <circle cx="90" cy="450" r="6" fill="#8B5CF6" opacity="0.4"/>
  <circle cx="170" cy="450" r="6" fill="#8B5CF6" opacity="0.4"/>
  <circle cx="90" cy="490" r="6" fill="#8B5CF6" opacity="0.4"/>
  <text x="130" y="524" fill="#64748B" font-size="10" text-anchor="middle">Open 8 min</text>

  <!-- ─── TABLE 8 — OCCUPIED (rect) ─────────────────────────── -->
  <rect x="250" y="430" width="80" height="56" rx="8" fill="#141010"/>
  <rect x="250" y="430" width="80" height="56" rx="8" fill="none" stroke="#F97316" stroke-width="1.5"/>
  <text x="290" y="455" fill="#F1F5F9" font-size="14" font-weight="700" text-anchor="middle">T8</text>
  <text x="290" y="469" fill="#94A3B8" font-size="10" text-anchor="middle">6 guests · 52m</text>
  <rect x="262" y="424" width="12" height="6" rx="2" fill="#F97316" opacity="0.4"/>
  <rect x="304" y="424" width="12" height="6" rx="2" fill="#F97316" opacity="0.4"/>
  <rect x="262" y="486" width="12" height="6" rx="2" fill="#F97316" opacity="0.4"/>
  <rect x="304" y="486" width="12" height="6" rx="2" fill="#F97316" opacity="0.4"/>

  <!-- ─── TABLE 9 — RESERVED (round) ───────────────────────── -->
  <circle cx="460" cy="490" r="32" fill="#120D20"/>
  <circle cx="460" cy="490" r="32" fill="none" stroke="#7C3AED" stroke-width="1.5" stroke-dasharray="4,2"/>
  <text x="460" y="485" fill="#94A3B8" font-size="13" font-weight="700" text-anchor="middle">T9</text>
  <text x="460" y="499" fill="#64748B" font-size="10" text-anchor="middle">Reserved</text>
  <text x="460" y="512" fill="#64748B" font-size="10" text-anchor="middle">7:00 PM</text>

  <!-- ─── TABLE 10 — DIRTY (rect) ───────────────────────────── -->
  <rect x="380" y="510" width="72" height="50" rx="8" fill="#101010"/>
  <rect x="380" y="510" width="72" height="50" rx="8" fill="none" stroke="#64748B" stroke-width="1" stroke-dasharray="3,2"/>
  <text x="416" y="533" fill="#64748B" font-size="13" font-weight="700" text-anchor="middle">T10</text>
  <text x="416" y="547" fill="#64748B" font-size="10" text-anchor="middle">Cleaning</text>

  <!-- ─── LEGEND strips bottom of floor plan ────────────────── -->
  <circle cx="30" cy="628" r="6" fill="#F59E0B"/>
  <text x="44" y="632" fill="#94A3B8" font-size="11">Selected</text>
  <circle cx="120" cy="628" r="6" fill="#10B981"/>
  <text x="134" y="632" fill="#94A3B8" font-size="11">Available</text>
  <circle cx="220" cy="628" r="6" fill="#3B82F6"/>
  <text x="234" y="632" fill="#94A3B8" font-size="11">Occupied</text>
  <circle cx="320" cy="628" r="6" fill="#8B5CF6"/>
  <text x="334" y="632" fill="#94A3B8" font-size="11">Reserved</text>
  <circle cx="420" cy="628" r="6" fill="#64748B"/>
  <text x="434" y="632" fill="#94A3B8" font-size="11">Dirty</text>

  <!-- ─── SELECTION SUMMARY CARD (below floor plan) ─────────── -->
  <rect x="12" y="650" width="536" height="270" rx="10" fill="#1A1D2E"/>
  <rect x="12" y="650" width="536" height="270" rx="10" fill="none" stroke="#2D3148" stroke-width="1"/>

  <!-- Summary header -->
  <text x="28" y="676" fill="#94A3B8" font-size="11" font-weight="700" letter-spacing="1">MERGE SUMMARY</text>
  <text x="28" y="700" fill="#F1F5F9" font-size="15" font-weight="700">Merging: Table 3 + Table 4</text>

  <!-- Table 3 row -->
  <rect x="28" y="710" width="10" height="36" rx="2" fill="#F59E0B"/>
  <text x="48" y="724" fill="#F1F5F9" font-size="13" font-weight="600">Table 3</text>
  <text x="48" y="740" fill="#94A3B8" font-size="12">4 guests · 3 items open</text>
  <text x="520" y="724" fill="#F59E0B" font-size="13" font-weight="700" text-anchor="end">$42.00</text>

  <!-- Table 4 row -->
  <rect x="28" y="752" width="10" height="36" rx="2" fill="#3B82F6"/>
  <text x="48" y="766" fill="#F1F5F9" font-size="13" font-weight="600">Table 4</text>
  <text x="48" y="782" fill="#94A3B8" font-size="12">3 guests · 4 items open</text>
  <text x="520" y="766" fill="#3B82F6" font-size="13" font-weight="700" text-anchor="end">$31.50</text>

  <!-- Divider + combined total -->
  <line x1="28" y1="796" x2="536" y2="796" stroke="#2D3148" stroke-width="1"/>
  <text x="28" y="814" fill="#94A3B8" font-size="12">Combined</text>
  <text x="160" y="814" fill="#F1F5F9" font-size="12">7 guests · 7 items</text>
  <text x="520" y="814" fill="#10B981" font-size="14" font-weight="700" text-anchor="end">$73.50</text>

  <!-- Primary table selector -->
  <text x="28" y="838" fill="#64748B" font-size="11" font-weight="700" letter-spacing="1">PRIMARY TABLE (combined check):</text>

  <!-- Radio: Table 3 selected -->
  <circle cx="40" cy="856" r="7" fill="none" stroke="#F59E0B" stroke-width="2"/>
  <circle cx="40" cy="856" r="3.5" fill="#F59E0B"/>
  <text x="54" y="860" fill="#F1F5F9" font-size="12" font-weight="600">Table 3 (larger party)</text>
  <rect x="190" y="849" width="78" height="16" rx="8" fill="#10B981" opacity="0.15"/>
  <text x="229" y="861" fill="#10B981" font-size="10" font-weight="700" text-anchor="middle">RECOMMENDED</text>

  <!-- Radio: Table 4 -->
  <circle cx="40" cy="876" r="7" fill="none" stroke="#2D3148" stroke-width="2"/>
  <text x="54" y="880" fill="#94A3B8" font-size="12">Table 4</text>

  <!-- Radio: New combined -->
  <circle cx="40" cy="896" r="7" fill="none" stroke="#2D3148" stroke-width="2"/>
  <text x="54" y="900" fill="#94A3B8" font-size="12">New combined: "Table 3+4"</text>

  <!-- Server note -->
  <text x="28" y="916" fill="#64748B" font-size="11">Server: Sarah W. (Table 3) — Marcus's items transferred to Sarah</text>

  <!-- ═══════════════════════════════════════════════════════ -->
  <!-- RIGHT PANEL (x=560, w=806, y=106)                      -->
  <!-- ═══════════════════════════════════════════════════════ -->

  <!-- ─── COMBINED ORDER PREVIEW CARD ──────────────────────── -->
  <rect x="572" y="114" width="782" height="378" rx="10" fill="#1A1D2E"/>
  <rect x="572" y="114" width="782" height="378" rx="10" fill="none" stroke="#2D3148" stroke-width="1"/>

  <!-- Card header -->
  <rect x="572" y="114" width="782" height="44" rx="10" fill="#1E2235"/>
  <rect x="572" y="144" width="782" height="14" fill="#1E2235"/>
  <text x="592" y="141" fill="#F1F5F9" font-size="14" font-weight="700">Combined Order — Table 3 + Table 4</text>
  <text x="1290" y="141" fill="#94A3B8" font-size="12" text-anchor="end">7 guests</text>

  <!-- Column headers -->
  <text x="592" y="172" fill="#64748B" font-size="11" font-weight="700" letter-spacing="1">ITEM</text>
  <text x="910" y="172" fill="#64748B" font-size="11" font-weight="700" letter-spacing="1" text-anchor="end">PRICE</text>
  <line x1="572" y1="178" x2="1354" y2="178" stroke="#2D3148" stroke-width="1"/>

  <!-- ── Table 3 items (amber T3 badge) ── -->
  <!-- Item 1: Classic Burger -->
  <rect x="592" y="183" width="26" height="16" rx="3" fill="#F59E0B" opacity="0.2"/>
  <rect x="592" y="183" width="26" height="16" rx="3" fill="none" stroke="#F59E0B" stroke-width="1"/>
  <text x="605" y="195" fill="#F59E0B" font-size="10" font-weight="700" text-anchor="middle">T3</text>
  <text x="626" y="195" fill="#F1F5F9" font-size="13">Classic Burger</text>
  <text x="910" y="195" fill="#F1F5F9" font-size="13" text-anchor="end">$18.00</text>

  <!-- Item 2: Caesar Salad -->
  <rect x="592" y="203" width="26" height="16" rx="3" fill="#F59E0B" opacity="0.2"/>
  <rect x="592" y="203" width="26" height="16" rx="3" fill="none" stroke="#F59E0B" stroke-width="1"/>
  <text x="605" y="215" fill="#F59E0B" font-size="10" font-weight="700" text-anchor="middle">T3</text>
  <text x="626" y="215" fill="#F1F5F9" font-size="13">Caesar Salad</text>
  <text x="910" y="215" fill="#F1F5F9" font-size="13" text-anchor="end">$14.00</text>

  <!-- Item 3: Craft Beer x2 -->
  <rect x="592" y="223" width="26" height="16" rx="3" fill="#F59E0B" opacity="0.2"/>
  <rect x="592" y="223" width="26" height="16" rx="3" fill="none" stroke="#F59E0B" stroke-width="1"/>
  <text x="605" y="235" fill="#F59E0B" font-size="10" font-weight="700" text-anchor="middle">T3</text>
  <text x="626" y="235" fill="#F1F5F9" font-size="13">Craft Beer</text>
  <text x="670" y="235" fill="#64748B" font-size="11">× 2</text>
  <text x="910" y="235" fill="#F1F5F9" font-size="13" text-anchor="end">$18.00</text>

  <!-- T3 subtotal line -->
  <line x1="592" y1="244" x2="910" y2="244" stroke="#F59E0B" stroke-width="0.5" opacity="0.3"/>
  <text x="592" y="256" fill="#F59E0B" font-size="11" font-weight="600">Table 3 subtotal</text>
  <text x="910" y="256" fill="#F59E0B" font-size="11" font-weight="600" text-anchor="end">$50.00</text>

  <!-- Divider between T3 and T4 items -->
  <line x1="572" y1="262" x2="920" y2="262" stroke="#2D3148" stroke-width="1" stroke-dasharray="4,3"/>

  <!-- ── Table 4 items (blue T4 badge) ── -->
  <!-- Item 4: Margherita Pizza -->
  <rect x="592" y="267" width="26" height="16" rx="3" fill="#3B82F6" opacity="0.2"/>
  <rect x="592" y="267" width="26" height="16" rx="3" fill="none" stroke="#3B82F6" stroke-width="1"/>
  <text x="605" y="279" fill="#3B82F6" font-size="10" font-weight="700" text-anchor="middle">T4</text>
  <text x="626" y="279" fill="#F1F5F9" font-size="13">Margherita Pizza</text>
  <text x="910" y="279" fill="#F1F5F9" font-size="13" text-anchor="end">$16.00</text>

  <!-- Item 5: House Wine x2 -->
  <rect x="592" y="287" width="26" height="16" rx="3" fill="#3B82F6" opacity="0.2"/>
  <rect x="592" y="287" width="26" height="16" rx="3" fill="none" stroke="#3B82F6" stroke-width="1"/>
  <text x="605" y="299" fill="#3B82F6" font-size="10" font-weight="700" text-anchor="middle">T4</text>
  <text x="626" y="299" fill="#F1F5F9" font-size="13">House Wine</text>
  <text x="670" y="299" fill="#64748B" font-size="11">× 2</text>
  <text x="910" y="299" fill="#F1F5F9" font-size="13" text-anchor="end">$24.00</text>

  <!-- Item 6: Garlic Bread -->
  <rect x="592" y="307" width="26" height="16" rx="3" fill="#3B82F6" opacity="0.2"/>
  <rect x="592" y="307" width="26" height="16" rx="3" fill="none" stroke="#3B82F6" stroke-width="1"/>
  <text x="605" y="319" fill="#3B82F6" font-size="10" font-weight="700" text-anchor="middle">T4</text>
  <text x="626" y="319" fill="#F1F5F9" font-size="13">Garlic Bread</text>
  <text x="910" y="319" fill="#F1F5F9" font-size="13" text-anchor="end">$7.00</text>

  <!-- Item 7: Sparkling Water -->
  <rect x="592" y="327" width="26" height="16" rx="3" fill="#3B82F6" opacity="0.2"/>
  <rect x="592" y="327" width="26" height="16" rx="3" fill="none" stroke="#3B82F6" stroke-width="1"/>
  <text x="605" y="339" fill="#3B82F6" font-size="10" font-weight="700" text-anchor="middle">T4</text>
  <text x="626" y="339" fill="#F1F5F9" font-size="13">Sparkling Water</text>
  <text x="910" y="339" fill="#F1F5F9" font-size="13" text-anchor="end">$4.50</text>

  <!-- T4 subtotal line -->
  <line x1="592" y1="348" x2="910" y2="348" stroke="#3B82F6" stroke-width="0.5" opacity="0.3"/>
  <text x="592" y="360" fill="#3B82F6" font-size="11" font-weight="600">Table 4 subtotal</text>
  <text x="910" y="360" fill="#3B82F6" font-size="11" font-weight="600" text-anchor="end">$51.50</text>

  <!-- Grand totals (right side) -->
  <line x1="920" y1="178" x2="920" y2="476" stroke="#2D3148" stroke-width="1"/>

  <text x="940" y="195" fill="#64748B" font-size="12">Subtotal</text>
  <text x="1344" y="195" fill="#F1F5F9" font-size="13" text-anchor="end">$101.50</text>
  <text x="940" y="218" fill="#64748B" font-size="12">Tax (8.875%)</text>
  <text x="1344" y="218" fill="#F1F5F9" font-size="13" text-anchor="end">$9.01</text>
  <text x="940" y="241" fill="#64748B" font-size="12">Tip</text>
  <text x="1344" y="241" fill="#64748B" font-size="13" text-anchor="end">—</text>
  <line x1="930" y1="252" x2="1354" y2="252" stroke="#2D3148" stroke-width="1"/>
  <text x="940" y="272" fill="#F1F5F9" font-size="14" font-weight="700">Total</text>
  <text x="1344" y="272" fill="#10B981" font-size="18" font-weight="700" text-anchor="end">$110.51</text>
  <text x="940" y="295" fill="#64748B" font-size="12">Guests</text>
  <text x="1344" y="295" fill="#F1F5F9" font-size="13" text-anchor="end">7</text>
  <text x="940" y="318" fill="#64748B" font-size="12">Items</text>
  <text x="1344" y="318" fill="#F1F5F9" font-size="13" text-anchor="end">7</text>
  <text x="940" y="341" fill="#64748B" font-size="12">Primary table</text>
  <text x="1344" y="341" fill="#F59E0B" font-size="12" font-weight="600" text-anchor="end">Table 3</text>
  <text x="940" y="364" fill="#64748B" font-size="12">Server</text>
  <text x="1344" y="364" fill="#F1F5F9" font-size="12" text-anchor="end">Sarah W.</text>

  <!-- ─── MERGE OPTIONS CARD ─────────────────────────────────── -->
  <rect x="572" y="502" width="370" height="190" rx="10" fill="#1A1D2E"/>
  <rect x="572" y="502" width="370" height="190" rx="10" fill="none" stroke="#2D3148" stroke-width="1"/>

  <text x="592" y="526" fill="#64748B" font-size="11" font-weight="700" letter-spacing="1">MERGE SETTINGS</text>

  <!-- Toggle 1: Keep separate seat assignments -->
  <text x="592" y="551" fill="#F1F5F9" font-size="13">Keep separate seat assignments</text>
  <text x="592" y="566" fill="#64748B" font-size="11">Seats 1–4 from T3, seats 5–7 from T4</text>
  <!-- Toggle ON (amber) -->
  <rect x="886" y="542" width="40" height="22" rx="11" fill="#F59E0B"/>
  <circle cx="914" cy="553" r="9" fill="white"/>

  <!-- Toggle 2: Keep course history -->
  <text x="592" y="596" fill="#F1F5F9" font-size="13">Keep course history</text>
  <rect x="886" y="587" width="40" height="22" rx="11" fill="#F59E0B"/>
  <circle cx="914" cy="598" r="9" fill="white"/>

  <!-- Toggle 3: Notify kitchen -->
  <text x="592" y="630" fill="#F1F5F9" font-size="13">Send merge note to KDS</text>
  <rect x="592" y="638" width="220" height="20" rx="4" fill="#1E2235"/>
  <text x="601" y="652" fill="#64748B" font-size="11">TABLES MERGED: T3+T4 — bump to all stations</text>
  <rect x="886" y="621" width="40" height="22" rx="11" fill="#F59E0B"/>
  <circle cx="914" cy="632" r="9" fill="white"/>

  <!-- Receipt label -->
  <text x="592" y="676" fill="#F1F5F9" font-size="13">Receipt label</text>
  <rect x="700" y="663" width="80" height="22" rx="5" fill="#1E2235"/>
  <rect x="700" y="663" width="80" height="22" rx="5" fill="none" stroke="#F59E0B" stroke-width="1"/>
  <text x="740" y="678" fill="#F59E0B" font-size="12" text-anchor="middle">Table 3</text>
  <rect x="788" y="663" width="90" height="22" rx="5" fill="#1E2235"/>
  <rect x="788" y="663" width="90" height="22" rx="5" fill="none" stroke="#2D3148" stroke-width="1"/>
  <text x="833" y="678" fill="#94A3B8" font-size="12" text-anchor="middle">Table 3+4</text>

  <!-- ─── MERGE CONFIRMATION CARD ────────────────────────────── -->
  <rect x="952" y="502" width="402" height="190" rx="10" fill="#1A1D2E"/>
  <rect x="952" y="502" width="402" height="190" rx="10" fill="none" stroke="#F59E0B" stroke-width="1.5"/>

  <!-- Amber glow top -->
  <rect x="952" y="502" width="402" height="44" rx="10" fill="#2A1F00"/>
  <rect x="952" y="532" width="402" height="14" fill="#2A1F00"/>

  <text x="1153" y="530" fill="#F59E0B" font-size="14" font-weight="700" text-anchor="middle">Ready to Merge</text>

  <text x="1153" y="562" fill="#F1F5F9" font-size="13" font-weight="600" text-anchor="middle">Tables 3 and 4 → Combined Order at Table 3</text>
  <text x="1153" y="582" fill="#94A3B8" font-size="12" text-anchor="middle">7 guests · 7 items · $110.51 total</text>

  <!-- Merge button -->
  <rect x="972" y="598" width="362" height="46" rx="10" fill="#F59E0B"/>
  <text x="1153" y="626" fill="#0F1117" font-size="16" font-weight="700" text-anchor="middle">Merge Tables</text>

  <!-- Cancel button -->
  <rect x="972" y="652" width="362" height="34" rx="8" fill="#1E2235"/>
  <rect x="972" y="652" width="362" height="34" rx="8" fill="none" stroke="#2D3148" stroke-width="1"/>
  <text x="1153" y="674" fill="#94A3B8" font-size="13" text-anchor="middle">Cancel</text>

  <!-- ─── SPLIT BACK SECTION (collapsed) ───────────────────── -->
  <rect x="572" y="702" width="782" height="68" rx="10" fill="#1A1D2E"/>
  <rect x="572" y="702" width="782" height="68" rx="10" fill="none" stroke="#2D3148" stroke-width="1"/>

  <!-- Collapse header -->
  <text x="592" y="724" fill="#F1F5F9" font-size="13" font-weight="700">Split Back — Reverse a merge</text>
  <text x="592" y="742" fill="#64748B" font-size="12">Split a merged table back into separate checks by seat group or by item. No items voided.</text>
  <!-- Chevron -->
  <text x="1334" y="740" fill="#64748B" font-size="18" text-anchor="end">›</text>

  <!-- Split back button (disabled) -->
  <rect x="1188" y="714" width="134" height="30" rx="7" fill="#1E2235"/>
  <rect x="1188" y="714" width="134" height="30" rx="7" fill="none" stroke="#2D3148" stroke-width="1"/>
  <text x="1255" y="733" fill="#64748B" font-size="12" text-anchor="middle">Split Back (inactive)</text>

  <!-- ─── TABLE TRANSFER SECTION (collapsed) ───────────────── -->
  <rect x="572" y="780" width="782" height="64" rx="10" fill="#1A1D2E"/>
  <rect x="572" y="780" width="782" height="64" rx="10" fill="none" stroke="#2D3148" stroke-width="1"/>

  <text x="592" y="802" fill="#F1F5F9" font-size="13" font-weight="700">Transfer Order — Move entire order to different table</text>
  <!-- T5 destination chip -->
  <rect x="592" y="812" width="82" height="22" rx="5" fill="#0D2010"/>
  <rect x="592" y="812" width="82" height="22" rx="5" fill="none" stroke="#10B981" stroke-width="1"/>
  <circle cx="608" cy="823" r="5" fill="#10B981"/>
  <text x="634" y="828" fill="#10B981" font-size="11" font-weight="600">T5 available</text>
  <text x="684" y="828" fill="#64748B" font-size="12">· Select destination table on floor plan</text>
  <text x="1334" y="820" fill="#64748B" font-size="18" text-anchor="end">›</text>

  <!-- ═══════════════════════════════════════════════════════ -->
  <!-- WORKFLOW INTEGRATION BANNER (full width, bottom)        -->
  <!-- ═══════════════════════════════════════════════════════ -->
  <rect x="0" y="854" width="1366" height="170" fill="#1A1D2E"/>
  <rect x="0" y="854" width="1366" height="2" fill="#F59E0B" opacity="0.6"/>
  <rect x="0" y="854" width="6" height="170" fill="#F59E0B"/>

  <text x="22" y="876" fill="#F59E0B" font-size="11" font-weight="700" letter-spacing="1">DB INTEGRATION</text>

  <text x="22" y="898" fill="#94A3B8" font-size="12">Merge: pos_tables.merged_from int[] tracks source tables. pos_orders.table_id updated to primary table. pos_table_merge_log records event.</text>
  <text x="22" y="918" fill="#94A3B8" font-size="12">KDS receives merge notification bump. Merged table shown as 'T3+T4' on floor map with amber double-border.</text>
  <text x="22" y="940" fill="#64748B" font-size="12">Split back: new pos_orders created per original table, items split by source tag. No items are voided — pure reassignment via</text>
  <text x="22" y="958" fill="#64748B" font-size="12">UPDATE pos_order_items SET table_id = ... audit logged. Seat assignments preserved via pos_order_items.seat_number column.</text>

  <!-- Merge flow pills -->
  <rect x="22" y="968" width="100" height="22" rx="4" fill="#2A1F00"/>
  <rect x="22" y="968" width="100" height="22" rx="4" fill="none" stroke="#F59E0B" stroke-width="1"/>
  <text x="72" y="983" fill="#F59E0B" font-size="11" font-weight="600" text-anchor="middle">pos_orders</text>

  <text x="130" y="983" fill="#64748B" font-size="13">→</text>

  <rect x="144" y="968" width="120" height="22" rx="4" fill="#2A1F00"/>
  <rect x="144" y="968" width="120" height="22" rx="4" fill="none" stroke="#F59E0B" stroke-width="1"/>
  <text x="204" y="983" fill="#F59E0B" font-size="11" font-weight="600" text-anchor="middle">pos_order_items</text>

  <text x="272" y="983" fill="#64748B" font-size="13">→</text>

  <rect x="286" y="968" width="140" height="22" rx="4" fill="#2A1F00"/>
  <rect x="286" y="968" width="140" height="22" rx="4" fill="none" stroke="#F59E0B" stroke-width="1"/>
  <text x="356" y="983" fill="#F59E0B" font-size="11" font-weight="600" text-anchor="middle">pos_table_merge_log</text>

  <text x="434" y="983" fill="#64748B" font-size="13">→</text>

  <rect x="448" y="968" width="80" height="22" rx="4" fill="#0D1F10"/>
  <rect x="448" y="968" width="80" height="22" rx="4" fill="none" stroke="#10B981" stroke-width="1"/>
  <text x="488" y="983" fill="#10B981" font-size="11" font-weight="600" text-anchor="middle">KDS bump</text>

  <text x="536" y="983" fill="#64748B" font-size="13">→</text>

  <rect x="550" y="968" width="106" height="22" rx="4" fill="#0D1F10"/>
  <rect x="550" y="968" width="106" height="22" rx="4" fill="none" stroke="#10B981" stroke-width="1"/>
  <text x="603" y="983" fill="#10B981" font-size="11" font-weight="600" text-anchor="middle">Floor map update</text>

  <!-- Audit log pill -->
  <rect x="1200" y="968" width="148" height="22" rx="4" fill="#101828"/>
  <rect x="1200" y="968" width="148" height="22" rx="4" fill="none" stroke="#3B82F6" stroke-width="1"/>
  <text x="1274" y="983" fill="#3B82F6" font-size="11" font-weight="600" text-anchor="middle">audit log: immutable</text>

  <!-- Version/timestamp -->
  <text x="1344" y="1018" fill="#2D3148" font-size="10" text-anchor="end">Synalux POS · Table Merge/Split · v2.4</text>

</svg>
