<svg xmlns="http://www.w3.org/2000/svg" viewBox="0 0 1366 1024" font-family="system-ui,-apple-system,sans-serif">
  <!-- Background -->
  <rect width="1366" height="1024" fill="#0F1117"/>

  <!-- ═══════════════════════════════════════════════════════ -->
  <!-- TOP NAV BAR h=56 -->
  <!-- ═══════════════════════════════════════════════════════ -->
  <rect x="0" y="0" width="1366" height="56" fill="#1A1D2E"/>
  <rect x="0" y="55" width="1366" height="1" fill="#2D3148"/>

  <!-- Logo / Brand -->
  <circle cx="20" cy="28" r="7" fill="#22C55E"/>
  <text x="34" y="33" fill="#22C55E" font-size="11" font-weight="600">LIVE</text>
  <text x="68" y="35" fill="#F59E0B" font-size="17" font-weight="700">Synalux POS</text>

  <!-- Nav Tabs -->
  <!-- Register -->
  <text x="220" y="33" fill="#64748B" font-size="13" text-anchor="middle">Register</text>
  <!-- Tables -->
  <text x="310" y="33" fill="#64748B" font-size="13" text-anchor="middle">Tables</text>
  <!-- Reservations (active) -->
  <text x="422" y="33" fill="#F59E0B" font-size="13" font-weight="600" text-anchor="middle">Reservations</text>
  <rect x="366" y="52" width="112" height="3" rx="1" fill="#F59E0B"/>
  <!-- KDS -->
  <text x="522" y="33" fill="#64748B" font-size="13" text-anchor="middle">KDS</text>
  <!-- Reports -->
  <text x="602" y="33" fill="#64748B" font-size="13" text-anchor="middle">Reports</text>
  <!-- Settings -->
  <text x="690" y="33" fill="#64748B" font-size="13" text-anchor="middle">Settings</text>

  <!-- Right side: Server name + clock + wifi -->
  <text x="1195" y="25" fill="#94A3B8" font-size="10">Server</text>
  <text x="1195" y="39" fill="#F1F5F9" font-size="13" font-weight="600">Marcus</text>
  <text x="1270" y="25" fill="#94A3B8" font-size="10">Wednesday</text>
  <text x="1270" y="39" fill="#F1F5F9" font-size="13" font-weight="600">6:42 PM</text>
  <!-- Wifi icon (simple) -->
  <path d="M1350 22 Q1358 14 1366 22" fill="none" stroke="#64748B" stroke-width="1.5" stroke-linecap="round"/>
  <path d="M1346 27 Q1358 12 1370 27" fill="none" stroke="#64748B" stroke-width="1.5" stroke-linecap="round"/>
  <circle cx="1358" cy="34" r="2.5" fill="#94A3B8"/>

  <!-- ═══════════════════════════════════════════════════════ -->
  <!-- STATS BAR h=72 y=56 -->
  <!-- ═══════════════════════════════════════════════════════ -->
  <rect x="0" y="56" width="1366" height="72" fill="#1A1D2E"/>
  <rect x="0" y="127" width="1366" height="1" fill="#2D3148"/>

  <!-- Stat 1: Tonight's Reservations -->
  <rect x="12" y="66" width="218" height="52" rx="8" fill="#0F1117" stroke="#2D3148" stroke-width="1"/>
  <text x="22" y="82" fill="#64748B" font-size="10" font-weight="600" letter-spacing="0.5">TONIGHT'S RESERVATIONS</text>
  <text x="22" y="100" fill="#F1F5F9" font-size="16" font-weight="700">18 parties</text>
  <text x="110" y="100" fill="#94A3B8" font-size="13">/  64 covers</text>

  <!-- Stat 2: Currently Seated -->
  <rect x="240" y="66" width="218" height="52" rx="8" fill="#0F1117" stroke="#2D3148" stroke-width="1"/>
  <text x="250" y="82" fill="#64748B" font-size="10" font-weight="600" letter-spacing="0.5">CURRENTLY SEATED</text>
  <text x="250" y="100" fill="#10B981" font-size="16" font-weight="700">6 tables</text>
  <text x="326" y="100" fill="#94A3B8" font-size="13">/  23 guests</text>

  <!-- Stat 3: On Waitlist -->
  <rect x="468" y="66" width="218" height="52" rx="8" fill="#0F1117" stroke="#2D3148" stroke-width="1"/>
  <text x="478" y="82" fill="#64748B" font-size="10" font-weight="600" letter-spacing="0.5">ON WAITLIST</text>
  <text x="478" y="100" fill="#F97316" font-size="16" font-weight="700">4 parties</text>
  <text x="546" y="100" fill="#94A3B8" font-size="13">(est. 25 min)</text>

  <!-- Stat 4: Available Tables -->
  <rect x="696" y="66" width="168" height="52" rx="8" fill="#0F1117" stroke="#2D3148" stroke-width="1"/>
  <text x="706" y="82" fill="#64748B" font-size="10" font-weight="600" letter-spacing="0.5">AVAILABLE TABLES</text>
  <text x="706" y="100" fill="#F1F5F9" font-size="24" font-weight="700">8</text>

  <!-- + New Reservation button (amber) -->
  <rect x="882" y="69" width="172" height="46" rx="8" fill="#F59E0B"/>
  <text x="968" y="97" fill="#0F1117" font-size="13" font-weight="700" text-anchor="middle">+ New Reservation</text>

  <!-- + Add to Waitlist button (purple) -->
  <rect x="1064" y="69" width="172" height="46" rx="8" fill="#8B5CF6"/>
  <text x="1150" y="97" fill="#ffffff" font-size="13" font-weight="700" text-anchor="middle">+ Add to Waitlist</text>

  <!-- ═══════════════════════════════════════════════════════ -->
  <!-- THREE-COLUMN LAYOUT y=128 -->
  <!-- ═══════════════════════════════════════════════════════ -->

  <!-- Column dividers -->
  <rect x="340" y="128" width="1" height="860" fill="#2D3148"/>
  <rect x="680" y="128" width="1" height="860" fill="#2D3148"/>

  <!-- ═══════════════════════════════════════════════════════ -->
  <!-- LEFT COLUMN: Upcoming Reservations x=0 w=340 -->
  <!-- ═══════════════════════════════════════════════════════ -->
  <rect x="0" y="128" width="340" height="860" fill="#0F1117"/>

  <!-- Column Header -->
  <text x="12" y="154" fill="#F1F5F9" font-size="14" font-weight="700">Upcoming Reservations</text>

  <!-- Filter bar -->
  <rect x="8" y="162" width="324" height="32" rx="6" fill="#1A1D2E"/>
  <!-- All tab (active) -->
  <rect x="10" y="163" width="56" height="29" rx="5" fill="#F59E0B"/>
  <text x="38" y="182" fill="#0F1117" font-size="12" font-weight="700" text-anchor="middle">All</text>
  <!-- Today tab -->
  <text x="100" y="182" fill="#94A3B8" font-size="12" text-anchor="middle">Today</text>
  <!-- Tomorrow tab -->
  <text x="174" y="182" fill="#94A3B8" font-size="12" text-anchor="middle">Tomorrow</text>
  <!-- Date picker area -->
  <rect x="256" y="166" width="72" height="24" rx="4" fill="#0F1117" stroke="#2D3148" stroke-width="1"/>
  <text x="292" y="182" fill="#64748B" font-size="11" text-anchor="middle">May 27</text>
  <text x="318" y="183" fill="#64748B" font-size="10">▾</text>

  <!-- ─── Reservation Card 1: Johnson (SEATED) ─── -->
  <rect x="8" y="200" width="324" height="76" rx="8" fill="#1A1D2E" stroke="#2D3148" stroke-width="1"/>
  <!-- Left accent: green = seated -->
  <rect x="8" y="200" width="4" height="76" rx="2" fill="#10B981"/>
  <text x="22" y="216" fill="#F59E0B" font-size="12" font-weight="700">6:00 PM</text>
  <!-- Confirmed badge -->
  <rect x="262" y="204" width="64" height="18" rx="9" fill="#10B981" fill-opacity="0.2"/>
  <text x="294" y="216" fill="#10B981" font-size="10" font-weight="600" text-anchor="middle">confirmed</text>
  <text x="22" y="232" fill="#F1F5F9" font-size="13" font-weight="600">Johnson, Sarah</text>
  <text x="22" y="248" fill="#94A3B8" font-size="11">4 guests · Table 5</text>
  <!-- Seated button (green, small) -->
  <rect x="243" y="244" width="83" height="24" rx="5" fill="#10B981"/>
  <text x="284" y="260" fill="#0F1117" font-size="11" font-weight="700" text-anchor="middle">Seated ✓</text>

  <!-- ─── Reservation Card 2: Chen ─── -->
  <rect x="8" y="282" width="324" height="76" rx="8" fill="#1A1D2E" stroke="#2D3148" stroke-width="1"/>
  <rect x="8" y="282" width="4" height="76" rx="2" fill="#F59E0B"/>
  <text x="22" y="298" fill="#F59E0B" font-size="12" font-weight="700">6:15 PM</text>
  <rect x="262" y="286" width="64" height="18" rx="9" fill="#10B981" fill-opacity="0.2"/>
  <text x="294" y="298" fill="#10B981" font-size="10" font-weight="600" text-anchor="middle">confirmed</text>
  <text x="22" y="314" fill="#F1F5F9" font-size="13" font-weight="600">Chen, Michael</text>
  <text x="22" y="330" fill="#94A3B8" font-size="11">2 guests · Table 12</text>
  <!-- Seat button (amber) -->
  <rect x="243" y="326" width="83" height="24" rx="5" fill="#F59E0B"/>
  <text x="284" y="342" fill="#0F1117" font-size="11" font-weight="700" text-anchor="middle">Seat</text>

  <!-- ─── Reservation Card 3: Williams ─── -->
  <rect x="8" y="364" width="324" height="76" rx="8" fill="#1A1D2E" stroke="#2D3148" stroke-width="1"/>
  <rect x="8" y="364" width="4" height="76" rx="2" fill="#2D3148"/>
  <text x="22" y="380" fill="#F59E0B" font-size="12" font-weight="700">6:30 PM</text>
  <rect x="262" y="368" width="64" height="18" rx="9" fill="#10B981" fill-opacity="0.2"/>
  <text x="294" y="380" fill="#10B981" font-size="10" font-weight="600" text-anchor="middle">confirmed</text>
  <text x="22" y="396" fill="#F1F5F9" font-size="13" font-weight="600">Williams, Tom</text>
  <text x="22" y="412" fill="#94A3B8" font-size="11">6 guests · Table 3+4 (combined)</text>
  <rect x="230" y="408" width="98" height="24" rx="5" fill="#1E2235" stroke="#2D3148" stroke-width="1"/>
  <text x="279" y="424" fill="#64748B" font-size="11" text-anchor="middle">Not Arrived</text>

  <!-- ─── Reservation Card 4: Martinez ─── -->
  <rect x="8" y="446" width="324" height="76" rx="8" fill="#1A1D2E" stroke="#2D3148" stroke-width="1"/>
  <rect x="8" y="446" width="4" height="76" rx="2" fill="#2D3148"/>
  <text x="22" y="462" fill="#F59E0B" font-size="12" font-weight="700">6:30 PM</text>
  <rect x="262" y="450" width="64" height="18" rx="9" fill="#10B981" fill-opacity="0.2"/>
  <text x="294" y="462" fill="#10B981" font-size="10" font-weight="600" text-anchor="middle">confirmed</text>
  <text x="22" y="478" fill="#F1F5F9" font-size="13" font-weight="600">Martinez, Ana</text>
  <text x="22" y="494" fill="#94A3B8" font-size="11">3 guests · Bar</text>
  <rect x="230" y="490" width="98" height="24" rx="5" fill="#1E2235" stroke="#2D3148" stroke-width="1"/>
  <text x="279" y="506" fill="#64748B" font-size="11" text-anchor="middle">Not Arrived</text>

  <!-- ─── Reservation Card 5: Davis (VIP) ─── -->
  <rect x="8" y="528" width="324" height="76" rx="8" fill="#1A1D2E" stroke="#8B5CF6" stroke-width="1"/>
  <rect x="8" y="528" width="4" height="76" rx="2" fill="#8B5CF6"/>
  <text x="22" y="544" fill="#F59E0B" font-size="12" font-weight="700">7:00 PM</text>
  <!-- VIP badge (purple) -->
  <rect x="248" y="532" width="78" height="18" rx="9" fill="#8B5CF6" fill-opacity="0.25"/>
  <text x="287" y="544" fill="#8B5CF6" font-size="10" font-weight="700" text-anchor="middle">★ VIP</text>
  <text x="22" y="560" fill="#F1F5F9" font-size="13" font-weight="600">Davis, Robert</text>
  <text x="22" y="576" fill="#94A3B8" font-size="11">8 guests · Private Room</text>
  <rect x="230" y="572" width="98" height="24" rx="5" fill="#1E2235" stroke="#2D3148" stroke-width="1"/>
  <text x="279" y="588" fill="#64748B" font-size="11" text-anchor="middle">Not Arrived</text>

  <!-- ─── Reservation Card 6: Thompson (waitlist) ─── -->
  <rect x="8" y="610" width="324" height="76" rx="8" fill="#1A1D2E" stroke="#F59E0B" stroke-width="1" stroke-dasharray="4,2"/>
  <rect x="8" y="610" width="4" height="76" rx="2" fill="#F59E0B"/>
  <text x="22" y="626" fill="#F59E0B" font-size="12" font-weight="700">7:00 PM</text>
  <!-- Waitlist badge (yellow) -->
  <rect x="248" y="614" width="78" height="18" rx="9" fill="#F59E0B" fill-opacity="0.2"/>
  <text x="287" y="626" fill="#F59E0B" font-size="10" font-weight="600" text-anchor="middle">waitlist</text>
  <text x="22" y="642" fill="#F1F5F9" font-size="13" font-weight="600">Thompson</text>
  <text x="22" y="658" fill="#94A3B8" font-size="11">2 guests · TBD</text>
  <rect x="216" y="654" width="112" height="24" rx="5" fill="#F59E0B" fill-opacity="0.15" stroke="#F59E0B" stroke-width="1"/>
  <text x="272" y="670" fill="#F59E0B" font-size="11" font-weight="600" text-anchor="middle">Assign Table</text>

  <!-- ─── Reservation Card 7: Garcia ─── -->
  <rect x="8" y="692" width="324" height="76" rx="8" fill="#1A1D2E" stroke="#2D3148" stroke-width="1"/>
  <rect x="8" y="692" width="4" height="76" rx="2" fill="#2D3148"/>
  <text x="22" y="708" fill="#F59E0B" font-size="12" font-weight="700">7:15 PM</text>
  <rect x="262" y="696" width="64" height="18" rx="9" fill="#10B981" fill-opacity="0.2"/>
  <text x="294" y="708" fill="#10B981" font-size="10" font-weight="600" text-anchor="middle">confirmed</text>
  <text x="22" y="724" fill="#F1F5F9" font-size="13" font-weight="600">Garcia, Luis</text>
  <text x="22" y="740" fill="#94A3B8" font-size="11">4 guests · Table 7</text>
  <rect x="230" y="736" width="98" height="24" rx="5" fill="#1E2235" stroke="#2D3148" stroke-width="1"/>
  <text x="279" y="752" fill="#64748B" font-size="11" text-anchor="middle">Not Arrived</text>

  <!-- ─── Reservation Card 8: Lee ─── -->
  <rect x="8" y="774" width="324" height="76" rx="8" fill="#1A1D2E" stroke="#2D3148" stroke-width="1"/>
  <rect x="8" y="774" width="4" height="76" rx="2" fill="#2D3148"/>
  <text x="22" y="790" fill="#F59E0B" font-size="12" font-weight="700">7:30 PM</text>
  <rect x="262" y="778" width="64" height="18" rx="9" fill="#10B981" fill-opacity="0.2"/>
  <text x="294" y="790" fill="#10B981" font-size="10" font-weight="600" text-anchor="middle">confirmed</text>
  <text x="22" y="806" fill="#F1F5F9" font-size="13" font-weight="600">Lee, Jennifer</text>
  <text x="22" y="822" fill="#94A3B8" font-size="11">5 guests · Table 2</text>
  <rect x="230" y="818" width="98" height="24" rx="5" fill="#1E2235" stroke="#2D3148" stroke-width="1"/>
  <text x="279" y="834" fill="#64748B" font-size="11" text-anchor="middle">Not Arrived</text>

  <!-- ─── Reservation Card 9: Brown (pending) ─── -->
  <rect x="8" y="856" width="324" height="76" rx="8" fill="#1A1D2E" stroke="#F97316" stroke-width="1"/>
  <rect x="8" y="856" width="4" height="76" rx="2" fill="#F97316"/>
  <text x="22" y="872" fill="#F59E0B" font-size="12" font-weight="700">8:00 PM</text>
  <!-- Pending badge -->
  <rect x="248" y="860" width="78" height="18" rx="9" fill="#F97316" fill-opacity="0.2"/>
  <text x="287" y="872" fill="#F97316" font-size="10" font-weight="600" text-anchor="middle">pending</text>
  <text x="22" y="888" fill="#F1F5F9" font-size="13" font-weight="600">Brown, David</text>
  <text x="22" y="904" fill="#94A3B8" font-size="11">10 guests · Private Room</text>
  <rect x="243" y="900" width="83" height="24" rx="5" fill="#F97316"/>
  <text x="284" y="916" fill="#ffffff" font-size="11" font-weight="700" text-anchor="middle">Confirm</text>

  <!-- Collapse indicator: +9 more tonight -->
  <rect x="8" y="938" width="324" height="36" rx="8" fill="#1A1D2E" stroke="#2D3148" stroke-width="1" stroke-dasharray="4,2"/>
  <text x="170" y="961" fill="#64748B" font-size="12" text-anchor="middle">+ 9 more tonight  ▾</text>

  <!-- ═══════════════════════════════════════════════════════ -->
  <!-- MIDDLE COLUMN: Waitlist x=341 w=339 -->
  <!-- ═══════════════════════════════════════════════════════ -->
  <rect x="341" y="128" width="339" height="860" fill="#0F1117"/>

  <!-- Column header + Clear All -->
  <text x="353" y="154" fill="#F1F5F9" font-size="14" font-weight="700">Walk-in Waitlist</text>
  <text x="620" y="154" fill="#EF4444" font-size="12" text-anchor="end">Clear All</text>

  <!-- Wait time estimator card -->
  <rect x="349" y="162" width="323" height="80" rx="8" fill="#1A1D2E" stroke="#2D3148" stroke-width="1"/>
  <text x="361" y="180" fill="#64748B" font-size="10" font-weight="600" letter-spacing="0.5">CURRENT WAIT ESTIMATE</text>
  <text x="361" y="200" fill="#F97316" font-size="20" font-weight="700">~25 minutes</text>
  <text x="361" y="216" fill="#64748B" font-size="10">Turnover pace: 3 tables / hr</text>
  <!-- Mini bar chart -->
  <rect x="480" y="196" width="8" height="18" rx="2" fill="#2D3148"/>
  <rect x="492" y="190" width="8" height="24" rx="2" fill="#F59E0B" fill-opacity="0.5"/>
  <rect x="504" y="185" width="8" height="29" rx="2" fill="#F59E0B" fill-opacity="0.7"/>
  <rect x="516" y="192" width="8" height="22" rx="2" fill="#F59E0B" fill-opacity="0.5"/>
  <rect x="528" y="196" width="8" height="18" rx="2" fill="#2D3148"/>
  <rect x="540" y="188" width="8" height="26" rx="2" fill="#F59E0B" fill-opacity="0.4"/>
  <rect x="552" y="194" width="8" height="20" rx="2" fill="#F59E0B" fill-opacity="0.3"/>
  <rect x="564" y="197" width="8" height="17" rx="2" fill="#2D3148"/>
  <text x="500" y="230" fill="#64748B" font-size="9" text-anchor="middle">5PM</text>
  <text x="540" y="230" fill="#64748B" font-size="9" text-anchor="middle">6PM</text>
  <text x="575" y="230" fill="#F97316" font-size="9" text-anchor="middle">Now</text>

  <!-- ─── Waitlist Entry 1: Nguyen ─── -->
  <rect x="349" y="252" width="323" height="88" rx="8" fill="#1A1D2E" stroke="#10B981" stroke-width="1"/>
  <!-- Position number badge -->
  <rect x="349" y="252" width="28" height="88" rx="8" fill="#10B981" fill-opacity="0.15"/>
  <text x="363" y="301" fill="#10B981" font-size="16" font-weight="700" text-anchor="middle">#1</text>
  <!-- Entry data -->
  <text x="390" y="270" fill="#F1F5F9" font-size="13" font-weight="600">Nguyen</text>
  <text x="390" y="286" fill="#94A3B8" font-size="11">2 people  ·  Pager: A12</text>
  <text x="390" y="302" fill="#64748B" font-size="10">Joined 6:38 PM</text>
  <text x="390" y="318" fill="#F97316" font-size="10" font-weight="600">Est. 10 min wait</text>
  <!-- Seat Now button -->
  <rect x="549" y="266" width="113" height="28" rx="6" fill="#10B981"/>
  <text x="605" y="284" fill="#0F1117" font-size="11" font-weight="700" text-anchor="middle">Seat Now</text>
  <text x="605" y="310" fill="#64748B" font-size="10" text-anchor="middle">SMS ready</text>

  <!-- ─── Waitlist Entry 2: Patel ─── -->
  <rect x="349" y="346" width="323" height="88" rx="8" fill="#1A1D2E" stroke="#2D3148" stroke-width="1"/>
  <rect x="349" y="346" width="28" height="88" rx="8" fill="#F59E0B" fill-opacity="0.1"/>
  <text x="363" y="395" fill="#F59E0B" font-size="16" font-weight="700" text-anchor="middle">#2</text>
  <text x="390" y="364" fill="#F1F5F9" font-size="13" font-weight="600">Patel</text>
  <text x="390" y="380" fill="#94A3B8" font-size="11">4 people  ·  Pager: A13</text>
  <text x="390" y="396" fill="#64748B" font-size="10">Joined 6:41 PM</text>
  <text x="390" y="412" fill="#F97316" font-size="10" font-weight="600">Est. 20 min wait</text>
  <rect x="549" y="360" width="113" height="28" rx="6" fill="#F59E0B"/>
  <text x="605" y="378" fill="#0F1117" font-size="11" font-weight="700" text-anchor="middle">Notify</text>

  <!-- ─── Waitlist Entry 3: Kim ─── -->
  <rect x="349" y="440" width="323" height="88" rx="8" fill="#1A1D2E" stroke="#2D3148" stroke-width="1"/>
  <rect x="349" y="440" width="28" height="88" rx="8" fill="#2D3148" fill-opacity="0.5"/>
  <text x="363" y="489" fill="#94A3B8" font-size="16" font-weight="700" text-anchor="middle">#3</text>
  <text x="390" y="458" fill="#F1F5F9" font-size="13" font-weight="600">Kim</text>
  <text x="390" y="474" fill="#94A3B8" font-size="11">3 people  ·  Pager: A14</text>
  <text x="390" y="490" fill="#64748B" font-size="10">Joined 6:44 PM</text>
  <text x="390" y="506" fill="#94A3B8" font-size="10" font-weight="600">Est. 30 min wait</text>
  <rect x="549" y="454" width="113" height="28" rx="6" fill="#1E2235" stroke="#2D3148" stroke-width="1"/>
  <text x="605" y="472" fill="#94A3B8" font-size="11" font-weight="600" text-anchor="middle">Notify</text>

  <!-- ─── Waitlist Entry 4: Rodriguez ─── -->
  <rect x="349" y="534" width="323" height="88" rx="8" fill="#1A1D2E" stroke="#2D3148" stroke-width="1"/>
  <rect x="349" y="534" width="28" height="88" rx="8" fill="#2D3148" fill-opacity="0.3"/>
  <text x="363" y="583" fill="#64748B" font-size="16" font-weight="700" text-anchor="middle">#4</text>
  <text x="390" y="552" fill="#F1F5F9" font-size="13" font-weight="600">Rodriguez</text>
  <text x="390" y="568" fill="#94A3B8" font-size="11">6 people  ·  Pager: A15</text>
  <text x="390" y="584" fill="#64748B" font-size="10">Joined 6:52 PM</text>
  <text x="390" y="600" fill="#94A3B8" font-size="10" font-weight="600">Est. 45 min wait</text>
  <rect x="549" y="548" width="113" height="28" rx="6" fill="#1E2235" stroke="#2D3148" stroke-width="1"/>
  <text x="605" y="566" fill="#94A3B8" font-size="11" font-weight="600" text-anchor="middle">Notify</text>

  <!-- SMS status -->
  <rect x="349" y="634" width="323" height="36" rx="8" fill="#10B981" fill-opacity="0.08" stroke="#10B981" stroke-width="1" stroke-opacity="0.3"/>
  <circle cx="366" cy="652" r="5" fill="#10B981"/>
  <text x="378" y="656" fill="#10B981" font-size="11" font-weight="600">Twilio connected — auto-SMS on seat</text>

  <!-- Add Walk-in button (purple) -->
  <rect x="349" y="686" width="323" height="44" rx="8" fill="#8B5CF6"/>
  <text x="510" y="713" fill="#ffffff" font-size="13" font-weight="700" text-anchor="middle">+ Add Walk-in</text>

  <!-- ═══════════════════════════════════════════════════════ -->
  <!-- RIGHT COLUMN: Reservation Detail + New Reservation Form -->
  <!-- x=681 w=685 -->
  <!-- ═══════════════════════════════════════════════════════ -->
  <rect x="681" y="128" width="685" height="860" fill="#0F1117"/>

  <!-- ─── Detail Panel Header ─── -->
  <text x="693" y="154" fill="#F1F5F9" font-size="14" font-weight="700">Reservation Detail</text>
  <!-- Breadcrumb -->
  <text x="693" y="170" fill="#64748B" font-size="11">6:00 PM · Johnson, Sarah</text>

  <!-- Main detail card -->
  <rect x="689" y="176" width="669" height="390" rx="10" fill="#1A1D2E" stroke="#2D3148" stroke-width="1"/>

  <!-- Row 1: Party info + contact -->
  <text x="705" y="200" fill="#64748B" font-size="10" font-weight="600" letter-spacing="0.5">PARTY INFO</text>
  <text x="705" y="218" fill="#F1F5F9" font-size="15" font-weight="700">Johnson, Sarah</text>
  <!-- Loyalty: Gold badge -->
  <rect x="820" y="205" width="82" height="20" rx="10" fill="#F59E0B" fill-opacity="0.2"/>
  <text x="861" y="218" fill="#F59E0B" font-size="10" font-weight="700" text-anchor="middle">★ Gold  2,840 pts</text>

  <text x="705" y="236" fill="#94A3B8" font-size="12">4 guests  ·  Standard Table  ·  Table 5 (Main Dining)</text>
  <text x="948" y="236" fill="#F59E0B" font-size="11" text-decoration="underline">Change Table</text>

  <!-- Divider line -->
  <line x1="705" y1="248" x2="1342" y2="248" stroke="#2D3148" stroke-width="1"/>

  <!-- Contact info -->
  <text x="705" y="267" fill="#64748B" font-size="10" font-weight="600" letter-spacing="0.5">CONTACT</text>
  <text x="705" y="284" fill="#F1F5F9" font-size="12">☎  (555) 234-5678</text>
  <text x="870" y="284" fill="#F1F5F9" font-size="12">✉  sarah.j@email.com</text>

  <!-- Divider -->
  <line x1="705" y1="296" x2="1342" y2="296" stroke="#2D3148" stroke-width="1"/>

  <!-- Special requests -->
  <text x="705" y="314" fill="#64748B" font-size="10" font-weight="600" letter-spacing="0.5">SPECIAL REQUESTS</text>
  <text x="705" y="332" fill="#F1F5F9" font-size="12">Window seat preferred, anniversary — flowers arranged</text>

  <!-- Tags -->
  <rect x="705" y="342" width="82" height="20" rx="10" fill="#EF4444" fill-opacity="0.15" stroke="#EF4444" stroke-width="0.5"/>
  <text x="746" y="355" fill="#EF4444" font-size="10" font-weight="600" text-anchor="middle">❧ Anniversary</text>
  <rect x="795" y="342" width="64" height="20" rx="10" fill="#2D3148"/>
  <text x="827" y="355" fill="#94A3B8" font-size="10" font-weight="600" text-anchor="middle">Window</text>
  <rect x="867" y="342" width="88" height="20" rx="10" fill="#2D3148"/>
  <text x="911" y="355" fill="#94A3B8" font-size="10" font-weight="600" text-anchor="middle">Repeat Guest</text>

  <!-- Divider -->
  <line x1="705" y1="372" x2="1342" y2="372" stroke="#2D3148" stroke-width="1"/>

  <!-- Notes field -->
  <text x="705" y="390" fill="#64748B" font-size="10" font-weight="600" letter-spacing="0.5">STAFF NOTES</text>
  <rect x="705" y="398" width="629" height="48" rx="6" fill="#0F1117" stroke="#2D3148" stroke-width="1"/>
  <text x="717" y="416" fill="#94A3B8" font-size="12">Called ahead, confirmed flowers with staff</text>
  <rect x="1308" y="402" width="20" height="20" rx="3" fill="#2D3148"/>
  <text x="1318" y="415" fill="#64748B" font-size="10" text-anchor="middle">✎</text>

  <!-- Divider -->
  <line x1="705" y1="456" x2="1342" y2="456" stroke="#2D3148" stroke-width="1"/>

  <!-- Status row -->
  <text x="705" y="476" fill="#64748B" font-size="10" font-weight="600" letter-spacing="0.5">STATUS: CONFIRMED</text>
  <!-- Mark Seated (green) -->
  <rect x="705" y="484" width="148" height="38" rx="8" fill="#10B981"/>
  <text x="779" y="507" fill="#0F1117" font-size="13" font-weight="700" text-anchor="middle">Mark Seated</text>
  <!-- No Show (red) -->
  <rect x="861" y="484" width="120" height="38" rx="8" fill="#EF4444"/>
  <text x="921" y="507" fill="#ffffff" font-size="13" font-weight="700" text-anchor="middle">No Show</text>
  <!-- Cancel (outline) -->
  <rect x="989" y="484" width="100" height="38" rx="8" fill="none" stroke="#64748B" stroke-width="1"/>
  <text x="1039" y="507" fill="#64748B" font-size="13" font-weight="600" text-anchor="middle">Cancel</text>

  <!-- Reservation History -->
  <line x1="705" y1="532" x2="1342" y2="532" stroke="#2D3148" stroke-width="1"/>
  <text x="705" y="550" fill="#64748B" font-size="10" font-weight="600" letter-spacing="0.5">RESERVATION HISTORY (4 visits)</text>
  <!-- History rows -->
  <text x="705" y="566" fill="#94A3B8" font-size="11">Apr 12, 2026  · 4 guests · Table 5 ·</text>
  <text x="936" y="566" fill="#10B981" font-size="11">Completed</text>
  <text x="705" y="548" fill="#2D3148" font-size="11">─</text>

  <line x1="705" y1="570" x2="1342" y2="570" stroke="#2D3148" stroke-width="0.5" stroke-dasharray="2,3"/>
  <text x="705" y="584" fill="#94A3B8" font-size="11">Mar 2, 2026  · 2 guests · Bar ·</text>
  <text x="868" y="584" fill="#10B981" font-size="11">Completed</text>

  <line x1="705" y1="588" x2="1342" y2="588" stroke="#2D3148" stroke-width="0.5" stroke-dasharray="2,3"/>
  <text x="705" y="602" fill="#94A3B8" font-size="11">Jan 14, 2026  · 4 guests · Table 5 ·</text>
  <text x="946" y="602" fill="#10B981" font-size="11">Completed</text>

  <line x1="705" y1="606" x2="1342" y2="606" stroke="#2D3148" stroke-width="0.5" stroke-dasharray="2,3"/>
  <text x="705" y="620" fill="#94A3B8" font-size="11">Nov 25, 2025  · 4 guests · Table 3 ·</text>
  <text x="950" y="620" fill="#10B981" font-size="11">Completed</text>

  <!-- ─── New Reservation Form (collapsible, shown expanded) ─── -->
  <!-- Section header with collapse chevron -->
  <rect x="689" y="580" width="669" height="30" rx="0" fill="#0F1117"/>
  <line x1="689" y1="636" x2="1358" y2="636" stroke="#2D3148" stroke-width="1"/>
  <text x="693" y="654" fill="#F1F5F9" font-size="13" font-weight="700">New Reservation</text>
  <text x="1338" y="654" fill="#64748B" font-size="13" text-anchor="end">▴ Collapse</text>

  <!-- New Reservation Form Card -->
  <rect x="689" y="660" width="669" height="316" rx="10" fill="#1A1D2E" stroke="#2D3148" stroke-width="1"/>

  <!-- Row 1: Guest Name + Phone -->
  <text x="705" y="680" fill="#64748B" font-size="10" font-weight="600">GUEST NAME</text>
  <rect x="705" y="684" width="220" height="32" rx="6" fill="#0F1117" stroke="#2D3148" stroke-width="1"/>
  <text x="717" y="703" fill="#64748B" font-size="12">First &amp; Last Name</text>

  <text x="940" y="680" fill="#64748B" font-size="10" font-weight="600">PHONE</text>
  <rect x="940" y="684" width="180" height="32" rx="6" fill="#0F1117" stroke="#2D3148" stroke-width="1"/>
  <text x="952" y="703" fill="#64748B" font-size="12">(555) ___-____</text>

  <text x="1134" y="680" fill="#64748B" font-size="10" font-weight="600">PARTY SIZE</text>
  <rect x="1134" y="684" width="110" height="32" rx="6" fill="#0F1117" stroke="#2D3148" stroke-width="1"/>
  <rect x="1136" y="686" width="28" height="28" rx="5" fill="#2D3148"/>
  <text x="1150" y="704" fill="#F1F5F9" font-size="14" font-weight="700" text-anchor="middle">−</text>
  <text x="1186" y="704" fill="#F1F5F9" font-size="14" font-weight="700" text-anchor="middle">2</text>
  <rect x="1214" y="686" width="28" height="28" rx="5" fill="#2D3148"/>
  <text x="1228" y="704" fill="#F1F5F9" font-size="14" font-weight="700" text-anchor="middle">+</text>

  <!-- Row 2: Email -->
  <text x="705" y="732" fill="#64748B" font-size="10" font-weight="600">EMAIL</text>
  <rect x="705" y="736" width="320" height="32" rx="6" fill="#0F1117" stroke="#2D3148" stroke-width="1"/>
  <text x="717" y="755" fill="#64748B" font-size="12">guest@email.com</text>

  <!-- Row 3: Date + Time -->
  <text x="705" y="784" fill="#64748B" font-size="10" font-weight="600">DATE</text>
  <rect x="705" y="788" width="140" height="32" rx="6" fill="#0F1117" stroke="#2D3148" stroke-width="1"/>
  <text x="717" y="807" fill="#F1F5F9" font-size="12">May 27, 2026</text>
  <text x="835" y="807" fill="#64748B" font-size="10">▾</text>

  <text x="860" y="784" fill="#64748B" font-size="10" font-weight="600">TIME SLOTS</text>
  <!-- Available time slots -->
  <rect x="860" y="788" width="52" height="32" rx="6" fill="#F59E0B" fill-opacity="0.2" stroke="#F59E0B" stroke-width="1"/>
  <text x="886" y="807" fill="#F59E0B" font-size="11" font-weight="600" text-anchor="middle">6:00</text>
  <rect x="918" y="788" width="52" height="32" rx="6" fill="#F59E0B" fill-opacity="0.2" stroke="#F59E0B" stroke-width="1"/>
  <text x="944" y="807" fill="#F59E0B" font-size="11" font-weight="600" text-anchor="middle">6:15</text>
  <!-- Full (grayed) -->
  <rect x="976" y="788" width="52" height="32" rx="6" fill="#1E2235" stroke="#2D3148" stroke-width="1"/>
  <text x="1002" y="807" fill="#64748B" font-size="11" text-anchor="middle">6:30</text>
  <text x="1002" y="814" fill="#64748B" font-size="7" text-anchor="middle">FULL</text>
  <rect x="1034" y="788" width="52" height="32" rx="6" fill="#F59E0B" fill-opacity="0.2" stroke="#F59E0B" stroke-width="1"/>
  <text x="1060" y="807" fill="#F59E0B" font-size="11" font-weight="600" text-anchor="middle">7:00</text>
  <rect x="1092" y="788" width="52" height="32" rx="6" fill="#F59E0B" fill-opacity="0.2" stroke="#F59E0B" stroke-width="1"/>
  <text x="1118" y="807" fill="#F59E0B" font-size="11" font-weight="600" text-anchor="middle">7:15</text>
  <rect x="1150" y="788" width="52" height="32" rx="6" fill="#F59E0B" fill-opacity="0.2" stroke="#F59E0B" stroke-width="1"/>
  <text x="1176" y="807" fill="#F59E0B" font-size="11" font-weight="600" text-anchor="middle">7:30</text>
  <rect x="1208" y="788" width="52" height="32" rx="6" fill="#F59E0B" fill-opacity="0.2" stroke="#F59E0B" stroke-width="1"/>
  <text x="1234" y="807" fill="#F59E0B" font-size="11" font-weight="600" text-anchor="middle">8:00</text>
  <text x="1275" y="807" fill="#64748B" font-size="11">→</text>

  <!-- Row 4: Table Preference + Source -->
  <text x="705" y="836" fill="#64748B" font-size="10" font-weight="600">TABLE PREFERENCE</text>
  <!-- Preference chips -->
  <rect x="705" y="840" width="46" height="26" rx="13" fill="#F59E0B"/>
  <text x="728" y="856" fill="#0F1117" font-size="10" font-weight="700" text-anchor="middle">Any</text>
  <rect x="757" y="840" width="54" height="26" rx="13" fill="#1E2235" stroke="#2D3148" stroke-width="1"/>
  <text x="784" y="856" fill="#94A3B8" font-size="10" text-anchor="middle">Patio</text>
  <rect x="817" y="840" width="38" height="26" rx="13" fill="#1E2235" stroke="#2D3148" stroke-width="1"/>
  <text x="836" y="856" fill="#94A3B8" font-size="10" text-anchor="middle">Bar</text>
  <rect x="861" y="840" width="62" height="26" rx="13" fill="#1E2235" stroke="#2D3148" stroke-width="1"/>
  <text x="892" y="856" fill="#94A3B8" font-size="10" text-anchor="middle">Window</text>
  <rect x="929" y="840" width="84" height="26" rx="13" fill="#1E2235" stroke="#2D3148" stroke-width="1"/>
  <text x="971" y="856" fill="#94A3B8" font-size="10" text-anchor="middle">Private Room</text>

  <!-- Source selector -->
  <text x="1030" y="836" fill="#64748B" font-size="10" font-weight="600">SOURCE</text>
  <rect x="1030" y="840" width="130" height="26" rx="6" fill="#0F1117" stroke="#2D3148" stroke-width="1"/>
  <text x="1042" y="856" fill="#94A3B8" font-size="11">Phone Call  ▾</text>

  <!-- VIP toggle -->
  <text x="1175" y="836" fill="#64748B" font-size="10" font-weight="600">VIP</text>
  <rect x="1175" y="842" width="42" height="22" rx="11" fill="#2D3148"/>
  <circle cx="1186" cy="853" r="9" fill="#64748B"/>
  <text x="1240" y="856" fill="#64748B" font-size="11">Off</text>

  <!-- Confirmation row -->
  <text x="705" y="882" fill="#64748B" font-size="10" font-weight="600">CONFIRMATION</text>
  <rect x="705" y="886" width="78" height="26" rx="13" fill="#10B981" fill-opacity="0.2" stroke="#10B981" stroke-width="1"/>
  <text x="744" y="902" fill="#10B981" font-size="10" font-weight="600" text-anchor="middle">Auto-SMS</text>
  <rect x="791" y="886" width="86" height="26" rx="13" fill="#1E2235" stroke="#2D3148" stroke-width="1"/>
  <text x="834" y="902" fill="#94A3B8" font-size="10" text-anchor="middle">Auto-email</text>
  <rect x="885" y="886" width="46" height="26" rx="13" fill="#1E2235" stroke="#2D3148" stroke-width="1"/>
  <text x="908" y="902" fill="#94A3B8" font-size="10" text-anchor="middle">None</text>

  <!-- Reserve CTA button -->
  <rect x="1170" y="880" width="174" height="38" rx="8" fill="#F59E0B"/>
  <text x="1257" y="903" fill="#0F1117" font-size="14" font-weight="700" text-anchor="middle">Reserve</text>

  <!-- ═══════════════════════════════════════════════════════ -->
  <!-- WORKFLOW INTEGRATION NOTE — Full Width Bottom Bar -->
  <!-- y=976 h=48 -->
  <!-- ═══════════════════════════════════════════════════════ -->
  <rect x="8" y="978" width="1350" height="38" rx="8" fill="#1A1D2E" stroke="#F59E0B" stroke-width="1"/>
  <!-- Left amber indicator -->
  <rect x="8" y="978" width="4" height="38" rx="2" fill="#F59E0B"/>
  <text x="22" y="991" fill="#F59E0B" font-size="9" font-weight="700">WORKFLOW INTEGRATION</text>
  <text x="22" y="1005" fill="#64748B" font-size="9">pos_reservations → pos_tables assignment. SMS/email via Twilio on confirm + 2h reminder. OpenTable/Resy sync via webhook (pos_reservation_source). Waitlist timer recalculates on every table_cleared event. Loyalty auto-detected by phone match to pos_customers.</text>

</svg>
