<svg xmlns="http://www.w3.org/2000/svg" viewBox="0 0 1366 1024" font-family="system-ui,-apple-system,sans-serif">

  <!-- ═══════════════════════════════════════════════════════ -->
  <!-- BACKGROUND -->
  <!-- ═══════════════════════════════════════════════════════ -->
  <rect width="1366" height="1024" fill="#0F1117"/>

  <!-- ═══════════════════════════════════════════════════════ -->
  <!-- TOP NAV BAR h=56 -->
  <!-- ═══════════════════════════════════════════════════════ -->
  <rect x="0" y="0" width="1366" height="56" fill="#1A1D2E"/>
  <rect x="0" y="55" width="1366" height="1" fill="#2D3148"/>

  <!-- Logo -->
  <circle cx="20" cy="28" r="7" fill="#22C55E"/>
  <text x="34" y="33" fill="#22C55E" font-size="11" font-weight="600">LIVE</text>
  <text x="68" y="35" fill="#F59E0B" font-size="17" font-weight="700">Synalux POS</text>

  <!-- Nav Tabs -->
  <!-- Register (active) -->
  <text x="220" y="33" fill="#F59E0B" font-size="13" font-weight="600" text-anchor="middle">Register</text>
  <rect x="173" y="52" width="94" height="3" rx="1" fill="#F59E0B"/>
  <!-- Tables -->
  <text x="310" y="33" fill="#64748B" font-size="13" text-anchor="middle">Tables</text>
  <!-- Scheduled -->
  <text x="415" y="33" fill="#64748B" font-size="13" text-anchor="middle">Scheduled</text>
  <!-- KDS -->
  <text x="510" y="33" fill="#64748B" font-size="13" text-anchor="middle">KDS</text>
  <!-- Reports -->
  <text x="590" y="33" fill="#64748B" font-size="13" text-anchor="middle">Reports</text>
  <!-- Settings -->
  <text x="675" y="33" fill="#64748B" font-size="13" text-anchor="middle">Settings</text>

  <!-- Right side: Owner + date -->
  <text x="1060" y="22" fill="#64748B" font-size="10">Owner</text>
  <text x="1060" y="38" fill="#F1F5F9" font-size="12" font-weight="600">Dmitri</text>
  <rect x="1118" y="14" width="1" height="28" fill="#2D3148"/>
  <text x="1132" y="22" fill="#94A3B8" font-size="10">Wed May 27</text>
  <text x="1132" y="38" fill="#F1F5F9" font-size="13" font-weight="700">7:15 PM</text>
  <!-- wifi icon -->
  <path d="M1336 21 Q1344 13 1352 21" fill="none" stroke="#64748B" stroke-width="1.5" stroke-linecap="round"/>
  <path d="M1332 26 Q1344 11 1356 26" fill="none" stroke="#64748B" stroke-width="1.5" stroke-linecap="round"/>
  <circle cx="1344" cy="33" r="2.5" fill="#94A3B8"/>

  <!-- ═══════════════════════════════════════════════════════ -->
  <!-- HEADER STRIP h=52 y=56 -->
  <!-- ═══════════════════════════════════════════════════════ -->
  <rect x="0" y="56" width="1366" height="52" fill="#1A1D2E"/>
  <rect x="0" y="107" width="1366" height="1" fill="#2D3148"/>

  <!-- Title -->
  <text x="18" y="88" fill="#F1F5F9" font-size="18" font-weight="700">&#x1F4C5; Scheduled Orders</text>

  <!-- Tabs -->
  <!-- Upcoming (active) -->
  <rect x="230" y="64" width="86" height="32" rx="6" fill="#F59E0B" fill-opacity="0.15"/>
  <text x="273" y="85" fill="#F59E0B" font-size="12" font-weight="700" text-anchor="middle">Upcoming</text>
  <rect x="230" y="95" width="86" height="2" rx="1" fill="#F59E0B"/>
  <!-- Today -->
  <text x="352" y="85" fill="#94A3B8" font-size="12" text-anchor="middle">Today</text>
  <!-- Tomorrow -->
  <text x="432" y="85" fill="#94A3B8" font-size="12" text-anchor="middle">Tomorrow</text>
  <!-- This Week -->
  <text x="516" y="85" fill="#94A3B8" font-size="12" text-anchor="middle">This Week</text>
  <!-- Calendar View -->
  <text x="612" y="85" fill="#94A3B8" font-size="12" text-anchor="middle">Calendar View</text>

  <!-- New Scheduled Order button -->
  <rect x="1140" y="64" width="210" height="32" rx="6" fill="#F59E0B"/>
  <text x="1245" y="84" fill="#0F1117" font-size="12" font-weight="700" text-anchor="middle">+ New Scheduled Order</text>

  <!-- ═══════════════════════════════════════════════════════ -->
  <!-- STATS ROW h=64 y=108 -->
  <!-- ═══════════════════════════════════════════════════════ -->
  <rect x="0" y="108" width="1366" height="64" fill="#0F1117"/>
  <rect x="0" y="171" width="1366" height="1" fill="#2D3148"/>

  <!-- Stat 1: Today Remaining -->
  <rect x="12" y="116" width="290" height="48" rx="8" fill="#1A1D2E" stroke="#2D3148" stroke-width="1"/>
  <text x="22" y="131" fill="#64748B" font-size="10" font-weight="600" letter-spacing="0.5">TODAY REMAINING</text>
  <text x="22" y="151" fill="#F59E0B" font-size="17" font-weight="700">3 orders</text>
  <text x="108" y="151" fill="#94A3B8" font-size="11">  next pickup in 42 min</text>

  <!-- Stat 2: Tomorrow -->
  <rect x="314" y="116" width="230" height="48" rx="8" fill="#1A1D2E" stroke="#2D3148" stroke-width="1"/>
  <text x="324" y="131" fill="#64748B" font-size="10" font-weight="600" letter-spacing="0.5">TOMORROW</text>
  <text x="324" y="151" fill="#F1F5F9" font-size="17" font-weight="700">7 orders</text>

  <!-- Stat 3: This Week -->
  <rect x="556" y="116" width="230" height="48" rx="8" fill="#1A1D2E" stroke="#2D3148" stroke-width="1"/>
  <text x="566" y="131" fill="#64748B" font-size="10" font-weight="600" letter-spacing="0.5">THIS WEEK</text>
  <text x="566" y="151" fill="#F1F5F9" font-size="17" font-weight="700">23 orders</text>

  <!-- Stat 4: Revenue Scheduled -->
  <rect x="798" y="116" width="260" height="48" rx="8" fill="#1A1D2E" stroke="#2D3148" stroke-width="1"/>
  <text x="808" y="131" fill="#64748B" font-size="10" font-weight="600" letter-spacing="0.5">REVENUE SCHEDULED</text>
  <text x="808" y="151" fill="#10B981" font-size="17" font-weight="700">$4,840</text>

  <!-- ═══════════════════════════════════════════════════════ -->
  <!-- MAIN TWO-PANEL LAYOUT y=172 -->
  <!-- LEFT PANEL x=0 w=480 -->
  <!-- ═══════════════════════════════════════════════════════ -->

  <!-- Left panel bg -->
  <rect x="0" y="172" width="480" height="852" fill="#0F1117"/>
  <rect x="479" y="172" width="1" height="852" fill="#2D3148"/>

  <!-- Left panel header -->
  <rect x="0" y="172" width="480" height="36" fill="#1A1D2E"/>
  <text x="14" y="194" fill="#94A3B8" font-size="11" font-weight="600">Upcoming — sorted by scheduled time</text>
  <rect x="0" y="207" width="480" height="1" fill="#2D3148"/>

  <!-- ─────────────────────────────────────────── -->
  <!-- SECTION: TODAY -->
  <!-- ─────────────────────────────────────────── -->
  <rect x="0" y="208" width="480" height="24" fill="#0F1117"/>
  <text x="14" y="224" fill="#64748B" font-size="10" font-weight="700" letter-spacing="1">TODAY — MAY 27</text>

  <!-- ORDER CARD 1 — 8:00 PM — AMBER border (next up) -->
  <rect x="8" y="234" width="464" height="96" rx="8" fill="#1A1D2E" stroke="#F59E0B" stroke-width="1.5"/>
  <!-- "NEXT UP" badge -->
  <rect x="380" y="240" width="62" height="18" rx="9" fill="#F59E0B" fill-opacity="0.2"/>
  <text x="411" y="253" fill="#F59E0B" font-size="9" font-weight="700" text-anchor="middle">NEXT UP</text>
  <!-- Time badge -->
  <rect x="14" y="240" width="64" height="18" rx="4" fill="#F59E0B"/>
  <text x="46" y="253" fill="#0F1117" font-size="10" font-weight="700" text-anchor="middle">8:00 PM</text>
  <text x="86" y="253" fill="#94A3B8" font-size="10">43 min</text>
  <!-- Order info -->
  <text x="14" y="273" fill="#F1F5F9" font-size="13" font-weight="700">Johnson Family — Pickup</text>
  <text x="14" y="289" fill="#94A3B8" font-size="10">4× Burger Combo, 2× Caesar Salad, 2× Craft Beer</text>
  <text x="14" y="303" fill="#F1F5F9" font-size="12" font-weight="600">$89.92</text>
  <text x="62" y="303" fill="#10B981" font-size="10">Prepaid (Stripe)</text>
  <text x="160" y="303" fill="#F59E0B" font-size="10" font-weight="600">KDS FIRE AT: 7:45 PM</text>
  <!-- Buttons -->
  <rect x="14" y="310" width="140" height="14" rx="4" fill="#10B981"/>
  <text x="84" y="320" fill="#fff" font-size="9" font-weight="700" text-anchor="middle">Fire to Kitchen NOW</text>
  <rect x="162" y="310" width="60" height="14" rx="4" fill="#2D3148"/>
  <text x="192" y="320" fill="#F1F5F9" font-size="9" font-weight="600" text-anchor="middle">Details</text>

  <!-- ORDER CARD 2 — 9:30 PM — gray border -->
  <rect x="8" y="338" width="464" height="88" rx="8" fill="#1A1D2E" stroke="#2D3148" stroke-width="1"/>
  <!-- Time badge -->
  <rect x="14" y="344" width="64" height="18" rx="4" fill="#2D3148"/>
  <text x="46" y="357" fill="#F1F5F9" font-size="10" font-weight="700" text-anchor="middle">9:30 PM</text>
  <text x="86" y="357" fill="#64748B" font-size="10">2h 15min</text>
  <!-- Order info -->
  <text x="14" y="376" fill="#F1F5F9" font-size="13" font-weight="700">Acme Corp — Delivery — 450 Park Ave</text>
  <text x="14" y="391" fill="#94A3B8" font-size="10">12× Burger, 12× Fries, 12× Drinks (combo)</text>
  <text x="14" y="406" fill="#F1F5F9" font-size="12" font-weight="600">$239.88</text>
  <text x="72" y="406" fill="#8B5CF6" font-size="10">House Account (HOUSE-0042)</text>
  <text x="260" y="406" fill="#64748B" font-size="10">KDS FIRE AT: 9:00 PM</text>
  <!-- Details button -->
  <rect x="14" y="413" width="60" height="14" rx="4" fill="#2D3148"/>
  <text x="44" y="423" fill="#F1F5F9" font-size="9" font-weight="600" text-anchor="middle">Details</text>

  <!-- ORDER CARD 3 — 10:00 PM -->
  <rect x="8" y="434" width="464" height="88" rx="8" fill="#1A1D2E" stroke="#2D3148" stroke-width="1"/>
  <!-- Time badge -->
  <rect x="14" y="440" width="66" height="18" rx="4" fill="#2D3148"/>
  <text x="47" y="453" fill="#F1F5F9" font-size="10" font-weight="700" text-anchor="middle">10:00 PM</text>
  <text x="88" y="453" fill="#64748B" font-size="10">2h 45min</text>
  <!-- Order info -->
  <text x="14" y="472" fill="#F1F5F9" font-size="13" font-weight="700">Wilson Party — Pickup</text>
  <text x="14" y="487" fill="#94A3B8" font-size="10">6× Margherita Pizza, 3× Wings, 6× Beer</text>
  <text x="14" y="501" fill="#F1F5F9" font-size="12" font-weight="600">$187.50</text>
  <text x="68" y="501" fill="#94A3B8" font-size="10">Card on file (Visa ••••9821)</text>
  <text x="252" y="501" fill="#64748B" font-size="10">KDS FIRE AT: 9:30 PM</text>
  <!-- Details button -->
  <rect x="14" y="508" width="60" height="14" rx="4" fill="#2D3148"/>
  <text x="44" y="518" fill="#F1F5F9" font-size="9" font-weight="600" text-anchor="middle">Details</text>

  <!-- ─────────────────────────────────────────── -->
  <!-- SECTION: TOMORROW -->
  <!-- ─────────────────────────────────────────── -->
  <rect x="0" y="530" width="480" height="24" fill="#0F1117"/>
  <text x="14" y="546" fill="#64748B" font-size="10" font-weight="700" letter-spacing="1">TOMORROW — MAY 28</text>

  <!-- ORDER CARD 4 — 12:00 PM -->
  <rect x="8" y="556" width="464" height="80" rx="8" fill="#1A1D2E" stroke="#2D3148" stroke-width="1"/>
  <rect x="14" y="562" width="64" height="18" rx="4" fill="#2D3148"/>
  <text x="46" y="575" fill="#F1F5F9" font-size="10" font-weight="700" text-anchor="middle">12:00 PM</text>
  <text x="86" y="575" fill="#64748B" font-size="10">Lunch</text>
  <text x="14" y="594" fill="#F1F5F9" font-size="13" font-weight="700">Metro Hospital — Delivery</text>
  <text x="14" y="609" fill="#94A3B8" font-size="10">20× Salads, 15× Wraps, 20× Drinks</text>
  <text x="14" y="623" fill="#F1F5F9" font-size="12" font-weight="600">$487.00</text>
  <text x="66" y="623" fill="#94A3B8" font-size="10">Invoice (Net 30)</text>
  <rect x="14" y="628" width="60" height="10" rx="3" fill="#2D3148"/>
  <text x="44" y="636" fill="#F1F5F9" font-size="8" font-weight="600" text-anchor="middle">Details</text>

  <!-- ORDER CARD 5 — 6:30 PM -->
  <rect x="8" y="644" width="464" height="80" rx="8" fill="#1A1D2E" stroke="#8B5CF6" stroke-width="1"/>
  <rect x="14" y="650" width="64" height="18" rx="4" fill="#8B5CF6" fill-opacity="0.3"/>
  <text x="46" y="663" fill="#8B5CF6" font-size="10" font-weight="700" text-anchor="middle">6:30 PM</text>
  <text x="86" y="663" fill="#64748B" font-size="10">Dinner</text>
  <text x="14" y="682" fill="#F1F5F9" font-size="13" font-weight="700">Anniversary Dinner — Table 8</text>
  <text x="14" y="697" fill="#94A3B8" font-size="10">Private dining — 8 guests, prix-fixe $85/head</text>
  <text x="14" y="711" fill="#F1F5F9" font-size="12" font-weight="600">$680.00 + tip</text>
  <text x="90" y="711" fill="#94A3B8" font-size="10">CC on file</text>
  <rect x="14" y="716" width="60" height="10" rx="3" fill="#2D3148"/>
  <text x="44" y="724" fill="#F1F5F9" font-size="8" font-weight="600" text-anchor="middle">Details</text>

  <!-- ORDER CARD 6 — 7:00 PM -->
  <rect x="8" y="732" width="464" height="80" rx="8" fill="#1A1D2E" stroke="#2D3148" stroke-width="1"/>
  <rect x="14" y="738" width="64" height="18" rx="4" fill="#2D3148"/>
  <text x="46" y="751" fill="#F1F5F9" font-size="10" font-weight="700" text-anchor="middle">7:00 PM</text>
  <text x="14" y="770" fill="#F1F5F9" font-size="13" font-weight="700">Chen Family Birthday — Pickup</text>
  <text x="14" y="785" fill="#94A3B8" font-size="10">Custom cake + party platter</text>
  <text x="14" y="799" fill="#F1F5F9" font-size="12" font-weight="600">$240.00</text>
  <text x="68" y="799" fill="#10B981" font-size="10">Prepaid</text>
  <rect x="14" y="804" width="60" height="10" rx="3" fill="#2D3148"/>
  <text x="44" y="812" fill="#F1F5F9" font-size="8" font-weight="600" text-anchor="middle">Details</text>

  <!-- +4 more this week collapse -->
  <rect x="8" y="820" width="464" height="32" rx="8" fill="#1A1D2E" stroke="#2D3148" stroke-width="1" stroke-dasharray="4,3"/>
  <text x="240" y="840" fill="#94A3B8" font-size="11" text-anchor="middle">+4 more orders this week  &#x25BC;</text>

  <!-- ═══════════════════════════════════════════════════════ -->
  <!-- RIGHT PANEL x=480 w=886 -->
  <!-- ═══════════════════════════════════════════════════════ -->

  <!-- Right panel bg -->
  <rect x="480" y="172" width="886" height="852" fill="#0F1117"/>

  <!-- ─────────────────────────────────────────── -->
  <!-- ORDER DETAIL — Johnson Family (top section) -->
  <!-- ─────────────────────────────────────────── -->
  <rect x="490" y="178" width="866" height="390" rx="10" fill="#1A1D2E" stroke="#F59E0B" stroke-width="1.5"/>

  <!-- Detail header -->
  <rect x="490" y="178" width="866" height="42" rx="10" fill="#1A1D2E"/>
  <rect x="490" y="200" width="866" height="20" fill="#1A1D2E"/>
  <text x="506" y="204" fill="#F1F5F9" font-size="14" font-weight="700">ORDER DETAIL — Johnson Family</text>
  <text x="700" y="204" fill="#F59E0B" font-size="12">8:00 PM Pickup</text>
  <!-- Confirmed badge -->
  <rect x="1262" y="185" width="78" height="22" rx="11" fill="#10B981" fill-opacity="0.2"/>
  <text x="1301" y="200" fill="#10B981" font-size="10" font-weight="700" text-anchor="middle">CONFIRMED</text>

  <rect x="490" y="218" width="866" height="1" fill="#2D3148"/>

  <!-- Order meta -->
  <text x="506" y="236" fill="#64748B" font-size="10" font-weight="600">Order #SCH-0892</text>
  <text x="620" y="236" fill="#2D3148" font-size="10">|</text>
  <text x="630" y="236" fill="#64748B" font-size="10">Placed: May 26, 3:41 PM by Online</text>
  <text x="820" y="236" fill="#2D3148" font-size="10">|</text>
  <text x="830" y="236" fill="#64748B" font-size="10">Status:</text>
  <text x="870" y="236" fill="#10B981" font-size="10" font-weight="700">Confirmed</text>

  <!-- Customer & order type -->
  <text x="506" y="256" fill="#94A3B8" font-size="11">Customer:</text>
  <text x="572" y="256" fill="#F1F5F9" font-size="11" font-weight="600">Sarah Johnson</text>
  <text x="672" y="256" fill="#94A3B8" font-size="11">—</text>
  <text x="682" y="256" fill="#F1F5F9" font-size="11">(555) 482-9021</text>
  <text x="782" y="256" fill="#94A3B8" font-size="11">—</text>
  <text x="792" y="256" fill="#94A3B8" font-size="11">sarah.j@email.com</text>

  <text x="506" y="272" fill="#94A3B8" font-size="11">Order Type:</text>
  <text x="575" y="272" fill="#F59E0B" font-size="11" font-weight="600">Pickup</text>
  <text x="626" y="272" fill="#94A3B8" font-size="11">|  Scheduled:</text>
  <text x="710" y="272" fill="#F1F5F9" font-size="11" font-weight="600">May 27 @ 8:00 PM</text>

  <text x="506" y="288" fill="#94A3B8" font-size="11">Prep lead time:</text>
  <text x="600" y="288" fill="#F1F5F9" font-size="11">25 min</text>
  <text x="638" y="288" fill="#94A3B8" font-size="11">→</text>
  <text x="650" y="288" fill="#94A3B8" font-size="11">KDS Fire Time:</text>
  <text x="740" y="288" fill="#F59E0B" font-size="11" font-weight="700">7:35 PM</text>
  <text x="792" y="288" fill="#64748B" font-size="10">(auto-calculated)</text>

  <!-- Divider -->
  <rect x="506" y="296" width="832" height="1" fill="#2D3148"/>

  <!-- Items -->
  <text x="506" y="312" fill="#64748B" font-size="10" font-weight="600" letter-spacing="0.5">ITEMS</text>

  <!-- Item rows -->
  <text x="506" y="328" fill="#F1F5F9" font-size="12">Burger Combo × 4</text>
  <text x="1188" y="328" fill="#F1F5F9" font-size="12" text-anchor="end">$59.96</text>
  <line x1="700" y1="326" x2="1180" y2="326" stroke="#2D3148" stroke-width="0.5" stroke-dasharray="2,4"/>

  <text x="506" y="344" fill="#F1F5F9" font-size="12">Caesar Salad × 2</text>
  <text x="1188" y="344" fill="#F1F5F9" font-size="12" text-anchor="end">$28.00</text>
  <line x1="700" y1="342" x2="1180" y2="342" stroke="#2D3148" stroke-width="0.5" stroke-dasharray="2,4"/>

  <text x="506" y="360" fill="#F1F5F9" font-size="12">Craft Beer (Stella) × 2</text>
  <text x="1188" y="360" fill="#F1F5F9" font-size="12" text-anchor="end">$18.00</text>
  <line x1="700" y1="358" x2="1180" y2="358" stroke="#2D3148" stroke-width="0.5" stroke-dasharray="2,4"/>

  <!-- Special note -->
  <rect x="506" y="365" width="640" height="16" rx="3" fill="#F59E0B" fill-opacity="0.08"/>
  <text x="512" y="377" fill="#F59E0B" font-size="10">&#x1F4AC; Special: "Please include extra napkins and utensils"</text>

  <!-- Divider -->
  <rect x="506" y="385" width="832" height="1" fill="#2D3148"/>

  <!-- Totals -->
  <text x="900" y="400" fill="#94A3B8" font-size="11" text-anchor="end">Subtotal (before discount):</text>
  <text x="1188" y="400" fill="#94A3B8" font-size="11" text-anchor="end">$105.96</text>

  <text x="900" y="416" fill="#10B981" font-size="11" text-anchor="end">Burger Combo savings:</text>
  <text x="1188" y="416" fill="#10B981" font-size="11" text-anchor="end">-$16.04</text>

  <text x="900" y="432" fill="#94A3B8" font-size="11" text-anchor="end">Tax:</text>
  <text x="1188" y="432" fill="#94A3B8" font-size="11" text-anchor="end">$7.98</text>

  <rect x="888" y="436" width="310" height="1" fill="#2D3148"/>
  <text x="900" y="452" fill="#F1F5F9" font-size="13" font-weight="700" text-anchor="end">TOTAL:</text>
  <text x="1188" y="452" fill="#F1F5F9" font-size="13" font-weight="700" text-anchor="end">$97.90</text>
  <text x="1200" y="452" fill="#10B981" font-size="11" font-weight="700">PAID ✓</text>

  <text x="506" y="452" fill="#64748B" font-size="10">Stripe PaymentIntent: pi_3NaK... (captured)</text>

  <!-- Divider -->
  <rect x="506" y="460" width="832" height="1" fill="#2D3148"/>

  <!-- Action buttons row -->
  <text x="506" y="477" fill="#64748B" font-size="10" font-weight="600" letter-spacing="0.5">ACTIONS</text>

  <!-- Fire to Kitchen Now (large green) -->
  <rect x="506" y="482" width="180" height="36" rx="8" fill="#10B981"/>
  <text x="596" y="505" fill="#fff" font-size="12" font-weight="700" text-anchor="middle">&#x1F525; Fire to Kitchen Now</text>

  <!-- Edit Order (amber) -->
  <rect x="696" y="482" width="110" height="36" rx="8" fill="#F59E0B"/>
  <text x="751" y="505" fill="#0F1117" font-size="12" font-weight="700" text-anchor="middle">Edit Order</text>

  <!-- Cancel Order (red) -->
  <rect x="816" y="482" width="120" height="36" rx="8" fill="#EF4444" fill-opacity="0.15" stroke="#EF4444" stroke-width="1"/>
  <text x="876" y="505" fill="#EF4444" font-size="12" font-weight="600" text-anchor="middle">Cancel Order</text>

  <!-- Print Label -->
  <rect x="946" y="482" width="100" height="36" rx="8" fill="#2D3148"/>
  <text x="996" y="505" fill="#F1F5F9" font-size="12" font-weight="600" text-anchor="middle">Print Label</text>

  <!-- Notify Customer -->
  <rect x="1056" y="482" width="140" height="36" rx="8" fill="#2D3148"/>
  <text x="1126" y="505" fill="#F1F5F9" font-size="12" font-weight="600" text-anchor="middle">Notify Customer</text>

  <!-- ─────────────────────────────────────────── -->
  <!-- KDS FIRE SCHEDULE card -->
  <!-- ─────────────────────────────────────────── -->
  <rect x="490" y="576" width="430" height="188" rx="10" fill="#1A1D2E" stroke="#2D3148" stroke-width="1"/>
  <text x="506" y="598" fill="#F1F5F9" font-size="13" font-weight="700">KDS Fire Schedule</text>
  <rect x="506" y="604" width="396" height="1" fill="#2D3148"/>

  <!-- Timeline items -->
  <!-- 7:35 PM -->
  <circle cx="518" cy="625" r="6" fill="#F59E0B"/>
  <rect x="524" y="624" width="378" height="1" fill="#2D3148" stroke-dasharray="2,3"/>
  <text x="536" y="629" fill="#F59E0B" font-size="11" font-weight="700">7:35 PM</text>
  <text x="596" y="629" fill="#F1F5F9" font-size="11">KDS receives ticket</text>
  <text x="700" y="629" fill="#64748B" font-size="10">(auto-fire, 25 min before)</text>
  <rect x="517" y="631" width="2" height="14" fill="#2D3148"/>

  <!-- 7:50 PM -->
  <circle cx="518" cy="651" r="6" fill="#8B5CF6"/>
  <text x="536" y="655" fill="#8B5CF6" font-size="11" font-weight="700">7:50 PM</text>
  <text x="596" y="655" fill="#F1F5F9" font-size="11">Estimated ready</text>
  <rect x="517" y="657" width="2" height="14" fill="#2D3148"/>

  <!-- 8:00 PM -->
  <circle cx="518" cy="677" r="6" fill="#10B981"/>
  <text x="536" y="681" fill="#10B981" font-size="11" font-weight="700">8:00 PM</text>
  <text x="596" y="681" fill="#F1F5F9" font-size="11">Customer pickup window</text>

  <rect x="506" y="694" width="396" height="1" fill="#2D3148"/>

  <!-- Prep time override -->
  <text x="506" y="712" fill="#64748B" font-size="10" font-weight="600">Prep time override:</text>
  <rect x="618" y="700" width="18" height="18" rx="4" fill="#2D3148"/>
  <text x="627" y="713" fill="#F1F5F9" font-size="11" text-anchor="middle">−</text>
  <rect x="638" y="700" width="36" height="18" rx="4" fill="#0F1117" stroke="#2D3148" stroke-width="1"/>
  <text x="656" y="713" fill="#F1F5F9" font-size="11" text-anchor="middle">25</text>
  <rect x="676" y="700" width="18" height="18" rx="4" fill="#2D3148"/>
  <text x="685" y="713" fill="#F1F5F9" font-size="11" text-anchor="middle">+</text>
  <text x="700" y="712" fill="#64748B" font-size="10">min  (±5 if kitchen busy)</text>

  <!-- Schedule Adjustment Note -->
  <text x="506" y="734" fill="#64748B" font-size="10" font-weight="600">Schedule Adjustment Note:</text>
  <rect x="506" y="738" width="396" height="20" rx="4" fill="#0F1117" stroke="#2D3148" stroke-width="1"/>
  <text x="514" y="752" fill="#64748B" font-size="10">Add note for kitchen...</text>

  <!-- ─────────────────────────────────────────── -->
  <!-- NEW SCHEDULED ORDER form (collapsed) -->
  <!-- ─────────────────────────────────────────── -->
  <rect x="930" y="576" width="426" height="390" rx="10" fill="#1A1D2E" stroke="#2D3148" stroke-width="1"/>

  <!-- Collapsed header -->
  <rect x="930" y="576" width="426" height="42" rx="10" fill="#1A1D2E"/>
  <rect x="930" y="600" width="426" height="18" fill="#1A1D2E"/>
  <text x="946" y="603" fill="#F1F5F9" font-size="13" font-weight="700">+ New Scheduled Order</text>
  <text x="1334" y="603" fill="#94A3B8" font-size="16" text-anchor="middle">&#x25BC;</text>
  <rect x="930" y="617" width="426" height="1" fill="#2D3148"/>

  <!-- Form fields (expanded) -->
  <!-- Customer row -->
  <text x="946" y="636" fill="#64748B" font-size="10" font-weight="600">CUSTOMER</text>
  <rect x="946" y="640" width="180" height="24" rx="4" fill="#0F1117" stroke="#2D3148" stroke-width="1"/>
  <text x="954" y="656" fill="#64748B" font-size="10">Name</text>
  <rect x="1132" y="640" width="120" height="24" rx="4" fill="#0F1117" stroke="#2D3148" stroke-width="1"/>
  <text x="1140" y="656" fill="#64748B" font-size="10">Phone</text>
  <rect x="946" y="668" width="306" height="24" rx="4" fill="#0F1117" stroke="#2D3148" stroke-width="1"/>
  <text x="954" y="684" fill="#64748B" font-size="10">Email address</text>

  <!-- Order Type -->
  <text x="946" y="708" fill="#64748B" font-size="10" font-weight="600">ORDER TYPE</text>
  <circle cx="956" cy="720" r="5" fill="none" stroke="#F59E0B" stroke-width="1.5"/>
  <circle cx="956" cy="720" r="3" fill="#F59E0B"/>
  <text x="964" y="724" fill="#F1F5F9" font-size="11">Pickup</text>
  <circle cx="1024" cy="720" r="5" fill="none" stroke="#2D3148" stroke-width="1.5"/>
  <text x="1032" y="724" fill="#94A3B8" font-size="11">Delivery</text>
  <circle cx="1106" cy="720" r="5" fill="none" stroke="#2D3148" stroke-width="1.5"/>
  <text x="1114" y="724" fill="#94A3B8" font-size="11">Dine-In (Reserved)</text>

  <!-- Date + Time -->
  <text x="946" y="744" fill="#64748B" font-size="10" font-weight="600">SCHEDULED DATE &amp; TIME</text>
  <rect x="946" y="748" width="160" height="24" rx="4" fill="#0F1117" stroke="#F59E0B" stroke-width="1"/>
  <text x="954" y="764" fill="#F59E0B" font-size="10">May 28, 2026 &#x25BC;</text>
  <rect x="1114" y="748" width="140" height="24" rx="4" fill="#0F1117" stroke="#2D3148" stroke-width="1"/>
  <text x="1122" y="764" fill="#94A3B8" font-size="10">Select time &#x25BC;</text>

  <!-- Items (collapsed link) -->
  <text x="946" y="788" fill="#64748B" font-size="10" font-weight="600">ITEMS</text>
  <rect x="946" y="792" width="306" height="24" rx="4" fill="#0F1117" stroke="#2D3148" stroke-width="1" stroke-dasharray="3,3"/>
  <text x="1099" y="808" fill="#F59E0B" font-size="10" text-anchor="middle">Open Register View to add items &#x2197;</text>

  <!-- Payment -->
  <text x="946" y="832" fill="#64748B" font-size="10" font-weight="600">PAYMENT</text>
  <circle cx="956" cy="844" r="5" fill="none" stroke="#F59E0B" stroke-width="1.5"/>
  <circle cx="956" cy="844" r="3" fill="#F59E0B"/>
  <text x="964" y="848" fill="#F1F5F9" font-size="10">Charge now (Stripe)</text>
  <circle cx="1072" cy="844" r="5" fill="none" stroke="#2D3148" stroke-width="1.5"/>
  <text x="1080" y="848" fill="#94A3B8" font-size="10">House Acct</text>
  <circle cx="1160" cy="844" r="5" fill="none" stroke="#2D3148" stroke-width="1.5"/>
  <text x="1168" y="848" fill="#94A3B8" font-size="10">Invoice</text>
  <circle cx="1226" cy="844" r="5" fill="none" stroke="#2D3148" stroke-width="1.5"/>
  <text x="1234" y="848" fill="#94A3B8" font-size="10">Card on file</text>

  <!-- Special Instructions -->
  <text x="946" y="868" fill="#64748B" font-size="10" font-weight="600">SPECIAL INSTRUCTIONS</text>
  <rect x="946" y="872" width="306" height="36" rx="4" fill="#0F1117" stroke="#2D3148" stroke-width="1"/>
  <text x="954" y="886" fill="#64748B" font-size="10">Add instructions for kitchen or customer...</text>

  <!-- Create button -->
  <rect x="946" y="916" width="306" height="34" rx="8" fill="#F59E0B"/>
  <text x="1099" y="937" fill="#0F1117" font-size="13" font-weight="700" text-anchor="middle">Create Scheduled Order</text>

  <!-- ═══════════════════════════════════════════════════════ -->
  <!-- WORKFLOW INTEGRATION bottom strip -->
  <!-- ═══════════════════════════════════════════════════════ -->
  <rect x="490" y="772" width="430" height="176" rx="10" fill="#1A1D2E" stroke="#F59E0B" stroke-width="1"/>

  <!-- Title -->
  <rect x="490" y="772" width="430" height="28" rx="10" fill="#F59E0B" fill-opacity="0.1"/>
  <rect x="490" y="790" width="430" height="10" fill="#F59E0B" fill-opacity="0.1"/>
  <text x="506" y="790" fill="#F59E0B" font-size="11" font-weight="700">WORKFLOW INTEGRATION</text>
  <rect x="506" y="796" width="396" height="1" fill="#2D3148"/>

  <!-- Integration details, monospace-style -->
  <text x="506" y="812" fill="#10B981" font-size="9" font-family="'SF Mono',monospace">pos_orders.scheduled_at timestamptz — non-null = scheduled order</text>
  <text x="506" y="824" fill="#10B981" font-size="9" font-family="'SF Mono',monospace">pos_scheduled_fire_log: order_id, scheduled_at, fire_at, actual_fired_at, fired_by</text>
  <text x="506" y="836" fill="#94A3B8" font-size="9" font-family="'SF Mono',monospace">Cron (5 min): WHERE fire_at &lt;= NOW() AND status='scheduled' → KDS INSERT + SMS</text>
  <text x="506" y="848" fill="#94A3B8" font-size="9" font-family="'SF Mono',monospace">Ready SMS: when all KDS tickets bumped → "Your order is ready for pickup"</text>
  <text x="506" y="860" fill="#EF4444" font-size="9" font-family="'SF Mono',monospace">Cancellation: Stripe refunds.create() + pos_refunds INSERT + SMS to customer</text>
  <text x="506" y="872" fill="#94A3B8" font-size="9" font-family="'SF Mono',monospace">Online ordering: /pos/order?venue=X — future date/time picker enabled</text>
  <text x="506" y="884" fill="#8B5CF6" font-size="9" font-family="'SF Mono',monospace">House account: charge posts to account on scheduled_at date (deferred billing)</text>

  <rect x="506" y="890" width="396" height="1" fill="#2D3148"/>
  <text x="506" y="902" fill="#64748B" font-size="9">Schema: pos_orders · pos_scheduled_fire_log · pos_kds_tickets · pos_refunds</text>
  <text x="506" y="914" fill="#64748B" font-size="9">Events: fire_scheduled_order() → kds_ticket_insert() → customer_sms_notify()</text>
  <text x="506" y="926" fill="#64748B" font-size="9">Stripe: PaymentIntent captured at order create; refund on cancel; House: deferred</text>
  <text x="506" y="938" fill="#64748B" font-size="9">Prep lead time configurable per menu item or order type (pos_prep_lead_times)</text>

</svg>
