<svg role="img" aria-labelledby="title-ipad_05_payment-svg" xmlns="http://www.w3.org/2000/svg" xmlns:xlink="http://www.w3.org/1999/xlink" viewBox="0 0 1366 1024" font-family="-apple-system,BlinkMacSystemFont,'SF Pro Display','Segoe UI',sans-serif">
  <title id="title-ipad_05_payment-svg">Synalux POS — 05 payment</title>
  <desc>Synalux POS mockup screen for 05 payment. All UI elements admin-configurable.</desc>
  <defs>
    <linearGradient id="chargeBtnGrad" x1="0" y1="0" x2="0" y2="1">
      <stop offset="0%" stop-color="#34D399"/>
      <stop offset="100%" stop-color="#16A34A"/>
    </linearGradient>
    <linearGradient id="modalGrad" x1="0" y1="0" x2="0" y2="1">
      <stop offset="0%" stop-color="#181B2E"/>
      <stop offset="100%" stop-color="#131628"/>
    </linearGradient>
    <filter id="modalShadow">
      <feDropShadow dx="0" dy="8" stdDeviation="20" flood-color="#000" flood-opacity="0.5"/>
    </filter>
    <filter id="terminalGlow">
      <feDropShadow dx="0" dy="0" stdDeviation="8" flood-color="#F59E0B" flood-opacity="0.15"/>
    </filter>

    <!-- ═══════════ SYMBOL DEFINITIONS ═══════════ -->

    <!-- Admin gear icon — admin: Settings > General -->
    <symbol id="adminGear" viewBox="0 0 14 14">
      <circle cx="7" cy="7" r="2.5" fill="none" stroke="#F59E0B" stroke-width="0.8" opacity="0.3"/>
      <path d="M7 1v1.5M7 11.5V13M1 7h1.5M11.5 7H13M2.8 2.8l1 1M10.2 10.2l1 1M2.8 11.2l1-1M10.2 3.8l1-1" stroke="#F59E0B" stroke-width="0.6" stroke-linecap="round" opacity="0.3"/>
    </symbol>

    <!-- Payment method card — admin: Settings > Payment Methods -->
    <symbol id="paymentCard" viewBox="0 0 358 80">
      <rect width="358" height="80" rx="10" fill="#161930"/>
    </symbol>

    <!-- Payment method icon box — admin: Settings > Payment Methods -->
    <symbol id="paymentIcon" viewBox="0 0 52 52">
      <rect width="52" height="52" rx="8"/>
    </symbol>

    <!-- Payment radio (unselected) — admin: Settings > Payment Methods -->
    <symbol id="radioOff" viewBox="0 0 20 20">
      <circle cx="10" cy="10" r="10" fill="#1E2235"/>
    </symbol>

    <!-- Tip button — admin: Settings > Tips > Preset Percentages -->
    <symbol id="tipBtn" viewBox="0 0 72 42">
      <rect width="72" height="42" rx="6" fill="#1A1D2E"/>
    </symbol>

    <!-- Custom tip button (wider) — admin: Settings > Tips > Custom Tip -->
    <symbol id="tipBtnCustom" viewBox="0 0 86 42">
      <rect width="86" height="42" rx="6" fill="#1A1D2E"/>
    </symbol>

    <!-- Split option button — admin: Settings > Payment > Split Options -->
    <symbol id="splitBtn" viewBox="0 0 100 34">
      <rect width="100" height="34" rx="6" fill="#1A1D2E"/>
    </symbol>

    <!-- Split option button (wider) — admin: Settings > Payment > Split Options -->
    <symbol id="splitBtnWide" viewBox="0 0 108 34">
      <rect width="108" height="34" rx="6" fill="#1A1D2E"/>
    </symbol>

    <!-- Receipt button — admin: Settings > Receipts -->
    <symbol id="receiptBtn" viewBox="0 0 72 34">
      <rect width="72" height="34" rx="6" fill="#1A1D2E"/>
    </symbol>

    <!-- Receipt button (wider) — admin: Settings > Receipts -->
    <symbol id="receiptBtnWide" viewBox="0 0 86 34">
      <rect width="86" height="34" rx="6" fill="#1A1D2E"/>
    </symbol>

    <!-- Terminal button — admin: Settings > Terminal > Button Layout -->
    <symbol id="termBtn" viewBox="0 0 60 24">
      <rect width="60" height="24" rx="5" fill="#1A1D2E"/>
    </symbol>

    <!-- Recent transaction row — admin: Settings > Payment > Transaction Log -->
    <symbol id="recentRow" viewBox="0 0 400 30">
      <rect width="400" height="30" rx="5" fill="#161930"/>
    </symbol>

    <!-- Toggle (off) — admin: Settings > General -->
    <symbol id="toggleOff" viewBox="0 0 40 22">
      <rect width="40" height="22" rx="11" fill="#1E2235" stroke="#2A2E45" stroke-width="1"/>
      <circle cx="20" cy="11" r="8" fill="#475569"/>
    </symbol>

    <!-- Toggle (on) — admin: Settings > General -->
    <symbol id="toggleOn" viewBox="0 0 40 22">
      <rect width="40" height="22" rx="11" fill="#F59E0B"/>
      <circle cx="24" cy="11" r="8" fill="#0C0E1A"/>
    </symbol>

    <!-- Settings row — admin: Settings > General -->
    <symbol id="settingsRow" viewBox="0 0 320 36">
      <rect width="320" height="36" rx="6" fill="#161930"/>
    </symbol>

    <!-- Quick action button — admin: Settings > Payment > Quick Actions -->
    <symbol id="quickActionBtn" viewBox="0 0 194 38">
      <rect width="194" height="38" rx="7"/>
    </symbol>

    <!-- Manual entry field — admin: Settings > Terminal > Manual Entry -->
    <symbol id="inputField" viewBox="0 0 400 38">
      <rect width="400" height="38" rx="6" fill="#161930" stroke="#1E2235" stroke-width="0.5"/>
    </symbol>

    <!-- Manual entry half-field — admin: Settings > Terminal > Manual Entry -->
    <symbol id="inputFieldHalf" viewBox="0 0 194 36">
      <rect width="194" height="36" rx="6" fill="#161930" stroke="#1E2235" stroke-width="0.5"/>
    </symbol>

  </defs>

  <!-- ═══════════ DIMMED BACKGROUND ═══════════ -->
  <rect width="1366" height="1024" fill="#0C0E1A"/>
  <rect width="1366" height="1024" fill="#000" opacity="0.55"/>

  <!-- ═══════════ PAYMENT MODAL ═══════════ -->
  <rect x="60" y="30" width="1246" height="964" rx="18" fill="url(#modalGrad)" filter="url(#modalShadow)"/>
  <rect x="60" y="30" width="1246" height="964" rx="18" fill="none" stroke="#2A2E45" stroke-width="0.5"/>

  <!-- Modal header -->
  <rect x="60" y="30" width="1246" height="60" rx="18" fill="#1E2235"/>
  <rect x="60" y="78" width="1246" height="12" fill="#1E2235"/>

  <text x="100" y="67" fill="#E2E8F0" font-size="18" font-weight="700">Payment</text>
  <text x="190" y="67" fill="#475569" font-size="18" font-weight="400">— Table 4</text>
  <text x="100" y="84" fill="#64748B" font-size="11">2:30 PM · 2 guests · John S. · 12 min</text>

  <!-- Close button -->
  <rect x="1256" y="43" width="36" height="36" rx="8" fill="#161930"/>
  <text x="1274" y="67" fill="#64748B" font-size="16" text-anchor="middle">&#10005;</text>

  <!-- ═══════════ LEFT — ORDER SUMMARY ═══════════ -->
  <rect x="78" y="100" width="350" height="780" rx="12" fill="#0C0E1A"/>

  <text x="96" y="130" fill="#475569" font-size="9" font-weight="700" letter-spacing="1.5">ORDER SUMMARY</text>

  <!-- Seat 1 -->
  <text x="96" y="152" fill="#4ADE80" font-size="9" font-weight="600" letter-spacing="0.5">SEAT 1</text>

  <text x="96" y="174" fill="#94A3B8" font-size="11">1x</text>
  <text x="118" y="174" fill="#CBD5E1" font-size="12" font-weight="500">Classic Burger</text>
  <text x="412" y="174" fill="#CBD5E1" font-size="12" text-anchor="end">$12.00</text>
  <text x="118" y="190" fill="#475569" font-size="10">No onions · GF bun (+$1.50)</text>

  <text x="96" y="212" fill="#94A3B8" font-size="11">1x</text>
  <text x="118" y="212" fill="#CBD5E1" font-size="12" font-weight="500">Large Fries</text>
  <text x="412" y="212" fill="#CBD5E1" font-size="12" text-anchor="end">$4.50</text>

  <text x="96" y="234" fill="#94A3B8" font-size="11">1x</text>
  <text x="118" y="234" fill="#CBD5E1" font-size="12" font-weight="500">Soft Drink — Pepsi</text>
  <text x="412" y="234" fill="#CBD5E1" font-size="12" text-anchor="end">$3.00</text>

  <!-- Seat 2 -->
  <rect x="96" y="250" width="320" height="1" fill="#1E2235"/>
  <text x="96" y="270" fill="#F59E0B" font-size="9" font-weight="600" letter-spacing="0.5">SEAT 2</text>

  <text x="96" y="292" fill="#94A3B8" font-size="11">1x</text>
  <text x="118" y="292" fill="#CBD5E1" font-size="12" font-weight="500">Caesar Salad</text>
  <text x="412" y="292" fill="#CBD5E1" font-size="12" text-anchor="end">$8.00</text>

  <text x="96" y="314" fill="#94A3B8" font-size="11">1x</text>
  <text x="118" y="314" fill="#CBD5E1" font-size="12" font-weight="500">Draft Beer</text>
  <text x="412" y="314" fill="#CBD5E1" font-size="12" text-anchor="end">$6.00</text>

  <!-- Totals -->
  <rect x="96" y="332" width="320" height="1" fill="#1E2235"/>

  <text x="96" y="356" fill="#94A3B8" font-size="12">Subtotal</text>
  <text x="412" y="356" fill="#CBD5E1" font-size="12" text-anchor="end">$33.50</text>

  <!-- Discount — admin: Settings > Discounts -->
  <rect x="96" y="364" width="320" height="20" rx="4" fill="#0A2010"/>
  <text x="102" y="379" fill="#4ADE80" font-size="11">Staff Disc (10%)</text>
  <text x="410" y="379" fill="#4ADE80" font-size="11" text-anchor="end">-$3.35</text>
  <!-- admin: Settings > Discounts -->
  <use xlink:href="#adminGear" x="82" y="366" width="10" height="10"/>

  <!-- Tax — admin: Settings > Tax Rates -->
  <text x="96" y="402" fill="#94A3B8" font-size="12">Tax (8.5%)</text>
  <text x="412" y="402" fill="#CBD5E1" font-size="12" text-anchor="end">$2.56</text>
  <!-- admin: Settings > Tax Rates -->
  <use xlink:href="#adminGear" x="82" y="394" width="10" height="10"/>

  <rect x="96" y="412" width="320" height="1" fill="#2A2E45"/>

  <text x="96" y="440" fill="#E2E8F0" font-size="14" font-weight="700">TOTAL</text>
  <text x="412" y="442" fill="#F59E0B" font-size="20" font-weight="800" text-anchor="end">$32.71</text>

  <!-- Tip section — admin: Settings > Tips -->
  <rect x="96" y="456" width="320" height="1" fill="#1E2235"/>
  <text x="96" y="478" fill="#475569" font-size="9" font-weight="700" letter-spacing="1.5">TIP</text>
  <!-- admin: Settings > Tips > Preset Percentages -->
  <use xlink:href="#adminGear" x="120" y="470" width="10" height="10"/>

  <!-- Tip buttons — admin: Settings > Tips > Preset Percentages -->
  <use xlink:href="#tipBtn" x="96" y="486" width="72" height="42"/>
  <text x="132" y="504" fill="#94A3B8" font-size="11" font-weight="600" text-anchor="middle">15%</text>
  <text x="132" y="520" fill="#475569" font-size="10" text-anchor="middle">$4.91</text>

  <!-- Selected tip button -->
  <rect x="174" y="486" width="72" height="42" rx="6" fill="#1A1D2E" stroke="#F59E0B" stroke-width="1.5"/>
  <text x="210" y="504" fill="#F59E0B" font-size="11" font-weight="700" text-anchor="middle">18%</text>
  <text x="210" y="520" fill="#F59E0B" font-size="10" text-anchor="middle">$5.89</text>

  <use xlink:href="#tipBtn" x="252" y="486" width="72" height="42"/>
  <text x="288" y="504" fill="#94A3B8" font-size="11" font-weight="600" text-anchor="middle">20%</text>
  <text x="288" y="520" fill="#475569" font-size="10" text-anchor="middle">$6.54</text>

  <use xlink:href="#tipBtnCustom" x="330" y="486" width="86" height="42"/>
  <text x="373" y="504" fill="#94A3B8" font-size="11" font-weight="600" text-anchor="middle">Custom</text>
  <text x="373" y="520" fill="#475569" font-size="10" text-anchor="middle">$___</text>

  <!-- Grand total with tip -->
  <rect x="96" y="538" width="320" height="1" fill="#1E2235"/>
  <text x="96" y="564" fill="#E2E8F0" font-size="13" font-weight="600">Total + tip (18%)</text>
  <text x="412" y="566" fill="#F59E0B" font-size="18" font-weight="800" text-anchor="end">$38.60</text>

  <!-- Split options — admin: Settings > Payment > Split Options -->
  <rect x="96" y="578" width="320" height="1" fill="#1E2235"/>
  <text x="96" y="600" fill="#475569" font-size="9" font-weight="700" letter-spacing="1.5">SPLIT</text>
  <!-- admin: Settings > Payment > Split Options -->
  <use xlink:href="#adminGear" x="130" y="592" width="10" height="10"/>

  <use xlink:href="#splitBtn" x="96" y="608" width="100" height="34"/>
  <text x="146" y="630" fill="#94A3B8" font-size="10" font-weight="500" text-anchor="middle">Full Check</text>

  <!-- Selected split button -->
  <rect x="202" y="608" width="100" height="34" rx="6" fill="#0F2A4A" stroke="#1E3A5F" stroke-width="1"/>
  <text x="252" y="626" fill="#60A5FA" font-size="10" font-weight="600" text-anchor="middle">By Seat</text>
  <text x="252" y="638" fill="#60A5FA" font-size="8" text-anchor="middle">2 seats</text>

  <use xlink:href="#splitBtnWide" x="308" y="608" width="108" height="34"/>
  <text x="362" y="626" fill="#94A3B8" font-size="10" font-weight="500" text-anchor="middle">Even Split</text>
  <text x="362" y="638" fill="#475569" font-size="8" text-anchor="middle">$19.30 ea</text>

  <!-- Receipt — admin: Settings > Receipts -->
  <rect x="96" y="652" width="320" height="1" fill="#1E2235"/>
  <text x="96" y="674" fill="#475569" font-size="9" font-weight="700" letter-spacing="1.5">RECEIPT</text>
  <!-- admin: Settings > Receipts -->
  <use xlink:href="#adminGear" x="146" y="666" width="10" height="10"/>

  <!-- Selected receipt button -->
  <rect x="96" y="682" width="72" height="34" rx="6" fill="#1A1D2E" stroke="#F59E0B" stroke-width="1"/>
  <text x="132" y="704" fill="#F59E0B" font-size="10" font-weight="600" text-anchor="middle">Print</text>

  <use xlink:href="#receiptBtn" x="174" y="682" width="72" height="34"/>
  <text x="210" y="704" fill="#94A3B8" font-size="10" font-weight="500" text-anchor="middle">SMS</text>

  <use xlink:href="#receiptBtn" x="252" y="682" width="72" height="34"/>
  <text x="288" y="704" fill="#94A3B8" font-size="10" font-weight="500" text-anchor="middle">Email</text>

  <use xlink:href="#receiptBtnWide" x="330" y="682" width="86" height="34"/>
  <text x="373" y="704" fill="#94A3B8" font-size="10" font-weight="500" text-anchor="middle">Skip</text>

  <!-- Cash discount toggle — admin: Settings > Cash Discount -->
  <rect x="96" y="726" width="320" height="1" fill="#1E2235"/>
  <use xlink:href="#settingsRow" x="96" y="736" width="320" height="36"/>
  <text x="108" y="759" fill="#94A3B8" font-size="11">Cash discount (3%)</text>
  <use xlink:href="#toggleOff" x="366" y="743" width="40" height="22"/>
  <!-- admin: Settings > Cash Discount -->
  <use xlink:href="#adminGear" x="82" y="746" width="10" height="10"/>

  <!-- Post-payment tip QR — admin: Settings > Tips > Post-Payment QR -->
  <use xlink:href="#settingsRow" x="96" y="782" width="320" height="36"/>
  <text x="108" y="805" fill="#94A3B8" font-size="11">Post-payment tip (QR)</text>
  <use xlink:href="#toggleOn" x="366" y="789" width="40" height="22"/>
  <!-- admin: Settings > Tips > Post-Payment QR -->
  <use xlink:href="#adminGear" x="82" y="792" width="10" height="10"/>

  <!-- ═══════════ CENTER — PAYMENT METHODS ═══════════ -->
  <!-- admin: Settings > Payment Methods -->
  <rect x="440" y="100" width="390" height="780" rx="12" fill="#0C0E1A"/>

  <text x="635" y="130" fill="#475569" font-size="9" font-weight="700" letter-spacing="1.5" text-anchor="middle">PAYMENT METHOD</text>
  <!-- admin: Settings > Payment Methods -->
  <use xlink:href="#adminGear" x="712" y="122" width="10" height="10"/>

  <!-- Card (selected) — admin: Settings > Payment Methods > Card -->
  <rect x="456" y="142" width="358" height="80" rx="10" fill="#161930" stroke="#F59E0B" stroke-width="1.5"/>
  <use xlink:href="#paymentIcon" x="464" y="152" width="52" height="52" fill="#F59E0B"/>
  <text x="490" y="184" fill="#0C0E1A" font-size="22" text-anchor="middle">&#128179;</text>
  <text x="528" y="170" fill="#E2E8F0" font-size="14" font-weight="700">Credit / Debit Card</text>
  <text x="528" y="188" fill="#94A3B8" font-size="11">Tap, chip, or swipe</text>
  <text x="528" y="206" fill="#4ADE80" font-size="10" font-weight="500">Stripe Terminal ready</text>
  <circle cx="796" cy="182" r="10" fill="#F59E0B"/>
  <text x="796" y="187" fill="#0C0E1A" font-size="11" font-weight="700" text-anchor="middle">&#10003;</text>

  <!-- Cash — admin: Settings > Payment Methods > Cash -->
  <use xlink:href="#paymentCard" x="456" y="232" width="358" height="80"/>
  <use xlink:href="#paymentIcon" x="464" y="242" width="52" height="52" fill="#0A2010"/>
  <text x="490" y="274" fill="#4ADE80" font-size="22" text-anchor="middle">&#128181;</text>
  <text x="528" y="260" fill="#E2E8F0" font-size="14" font-weight="700">Cash</text>
  <text x="528" y="278" fill="#94A3B8" font-size="11">Manual entry — change calc</text>
  <text x="528" y="296" fill="#475569" font-size="10">Exact: $38.60 · $40 &#8594; $1.40 chg</text>
  <use xlink:href="#radioOff" x="786" y="262" width="20" height="20"/>

  <!-- Gift Card — admin: Settings > Payment Methods > Gift Card -->
  <use xlink:href="#paymentCard" x="456" y="322" width="358" height="80"/>
  <use xlink:href="#paymentIcon" x="464" y="332" width="52" height="52" fill="#120A20"/>
  <text x="490" y="364" fill="#A78BFA" font-size="22" text-anchor="middle">&#127873;</text>
  <text x="528" y="350" fill="#E2E8F0" font-size="14" font-weight="700">Gift Card</text>
  <text x="528" y="368" fill="#94A3B8" font-size="11">Swipe or enter code</text>
  <text x="528" y="386" fill="#475569" font-size="10">Balance check auto on entry</text>
  <use xlink:href="#radioOff" x="786" y="352" width="20" height="20"/>

  <!-- Mobile Pay — admin: Settings > Payment Methods > Mobile -->
  <use xlink:href="#paymentCard" x="456" y="412" width="358" height="80"/>
  <use xlink:href="#paymentIcon" x="464" y="422" width="52" height="52" fill="#081A2A"/>
  <text x="490" y="454" fill="#38BDF8" font-size="22" text-anchor="middle">&#128241;</text>
  <text x="528" y="440" fill="#E2E8F0" font-size="14" font-weight="700">Apple Pay / Google Pay</text>
  <text x="528" y="458" fill="#94A3B8" font-size="11">NFC contactless tap</text>
  <text x="528" y="476" fill="#475569" font-size="10">Tap-to-pay on terminal or iPhone</text>
  <use xlink:href="#radioOff" x="786" y="442" width="20" height="20"/>

  <!-- House Account — admin: Settings > Payment Methods > House Account -->
  <use xlink:href="#paymentCard" x="456" y="502" width="358" height="80"/>
  <use xlink:href="#paymentIcon" x="464" y="512" width="52" height="52" fill="#1A0A20"/>
  <text x="490" y="544" fill="#C084FC" font-size="22" text-anchor="middle">&#127974;</text>
  <text x="528" y="530" fill="#E2E8F0" font-size="14" font-weight="700">House Account</text>
  <text x="528" y="548" fill="#94A3B8" font-size="11">Corporate / tab billing</text>
  <text x="528" y="566" fill="#475569" font-size="10">Requires manager PIN</text>
  <use xlink:href="#radioOff" x="786" y="532" width="20" height="20"/>

  <!-- EBT / SNAP — admin: Settings > Payment Methods > EBT -->
  <use xlink:href="#paymentCard" x="456" y="592" width="358" height="80"/>
  <use xlink:href="#paymentIcon" x="464" y="602" width="52" height="52" fill="#1A1A00"/>
  <text x="490" y="634" fill="#FBBF24" font-size="22" text-anchor="middle">&#127860;</text>
  <text x="528" y="620" fill="#E2E8F0" font-size="14" font-weight="700">EBT / SNAP</text>
  <text x="528" y="638" fill="#94A3B8" font-size="11">Forage integration</text>
  <text x="528" y="656" fill="#475569" font-size="10">Eligible items auto-flagged</text>
  <use xlink:href="#radioOff" x="786" y="622" width="20" height="20"/>

  <!-- Pre-Auth (Bar Tab) — admin: Settings > Payment Methods > Pre-Auth -->
  <use xlink:href="#paymentCard" x="456" y="682" width="358" height="80"/>
  <use xlink:href="#paymentIcon" x="464" y="692" width="52" height="52" fill="#1A1200"/>
  <text x="490" y="724" fill="#F59E0B" font-size="22" text-anchor="middle">&#128274;</text>
  <text x="528" y="710" fill="#E2E8F0" font-size="14" font-weight="700">Pre-Auth (Bar Tab)</text>
  <text x="528" y="728" fill="#94A3B8" font-size="11">Hold card — settle on close</text>
  <text x="528" y="746" fill="#475569" font-size="10">Capture final amount at end</text>
  <use xlink:href="#radioOff" x="786" y="712" width="20" height="20"/>

  <!-- ═══════════ RIGHT — TERMINAL STATUS ═══════════ -->
  <!-- admin: Settings > Terminal -->
  <rect x="842" y="100" width="446" height="780" rx="12" fill="#0C0E1A"/>

  <text x="1065" y="130" fill="#475569" font-size="9" font-weight="700" letter-spacing="1.5" text-anchor="middle">TERMINAL STATUS</text>
  <!-- admin: Settings > Terminal -->
  <use xlink:href="#adminGear" x="1135" y="122" width="10" height="10"/>

  <!-- Card terminal display — admin: Settings > Terminal > Hardware -->
  <rect x="920" y="142" width="290" height="280" rx="14" fill="#161930" stroke="#F59E0B" stroke-width="1" filter="url(#terminalGlow)"/>

  <!-- Terminal screen -->
  <rect x="934" y="156" width="262" height="140" rx="8" fill="#0C0E1A"/>

  <text x="1065" y="198" fill="#4ADE80" font-size="14" font-weight="700" text-anchor="middle">Ready to Tap</text>
  <text x="1065" y="228" fill="#E2E8F0" font-size="26" font-weight="800" text-anchor="middle">$38.60</text>
  <text x="1065" y="252" fill="#94A3B8" font-size="11" text-anchor="middle">Tap · Insert · Swipe</text>

  <!-- NFC animation rings -->
  <circle cx="1065" cy="270" r="16" fill="none" stroke="#F59E0B" stroke-width="1" opacity="0.2">
    <animate attributeName="r" values="8;20;8" dur="2s" repeatCount="indefinite"/>
    <animate attributeName="opacity" values="0.4;0;0.4" dur="2s" repeatCount="indefinite"/>
  </circle>
  <circle cx="1065" cy="270" r="6" fill="#F59E0B" opacity="0.6"/>

  <!-- Terminal body -->
  <text x="1065" y="330" fill="#475569" font-size="10" text-anchor="middle">Stripe Reader M2</text>

  <!-- Chip slot -->
  <rect x="1005" y="340" width="120" height="12" rx="3" fill="#0C0E1A" stroke="#1E2235" stroke-width="0.5"/>
  <text x="1065" y="350" fill="#1E2235" font-size="7" text-anchor="middle">CHIP</text>

  <!-- Terminal buttons — admin: Settings > Terminal > Button Layout -->
  <use xlink:href="#termBtn" x="940" y="370" width="60" height="24"/>
  <text x="970" y="386" fill="#EF4444" font-size="9" font-weight="500" text-anchor="middle">Cancel</text>
  <use xlink:href="#termBtn" x="1006" y="370" width="60" height="24"/>
  <text x="1036" y="386" fill="#94A3B8" font-size="9" font-weight="500" text-anchor="middle">Clear</text>
  <rect x="1130" y="370" width="68" height="24" rx="5" fill="#0A2010"/>
  <text x="1164" y="386" fill="#4ADE80" font-size="9" font-weight="600" text-anchor="middle">Enter &#10003;</text>
  <!-- admin: Settings > Terminal > Button Layout -->
  <use xlink:href="#adminGear" x="1202" y="372" width="10" height="10"/>

  <!-- Manual entry section — admin: Settings > Terminal > Manual Entry -->
  <rect x="860" y="436" width="412" height="1" fill="#1E2235"/>
  <text x="1065" y="462" fill="#475569" font-size="10" text-anchor="middle">Or enter card manually:</text>
  <!-- admin: Settings > Terminal > Manual Entry -->
  <use xlink:href="#adminGear" x="1188" y="454" width="10" height="10"/>

  <use xlink:href="#inputField" x="870" y="472" width="400" height="38"/>
  <text x="884" y="496" fill="#475569" font-size="12">XXXX XXXX XXXX ____</text>

  <use xlink:href="#inputFieldHalf" x="870" y="518" width="194" height="36"/>
  <text x="967" y="541" fill="#475569" font-size="11" text-anchor="middle">MM / YY</text>
  <use xlink:href="#inputFieldHalf" x="1072" y="518" width="198" height="36"/>
  <text x="1171" y="541" fill="#475569" font-size="11" text-anchor="middle">CVV</text>

  <rect x="870" y="562" width="400" height="38" rx="7" fill="#1A1D2E" stroke="#F59E0B" stroke-width="1"/>
  <text x="1070" y="586" fill="#F59E0B" font-size="12" font-weight="600" text-anchor="middle">Submit Manual Entry</text>

  <!-- Quick actions — admin: Settings > Payment > Quick Actions -->
  <rect x="860" y="614" width="412" height="1" fill="#1E2235"/>

  <use xlink:href="#quickActionBtn" x="870" y="626" width="194" height="38" fill="#1A0808" stroke="#2D0808" stroke-width="0.5"/>
  <text x="967" y="650" fill="#FCA5A5" font-size="11" font-weight="600" text-anchor="middle">Void Transaction</text>

  <use xlink:href="#quickActionBtn" x="1072" y="626" width="198" height="38" fill="#1A1D2E" stroke="#2A2E45" stroke-width="0.5"/>
  <text x="1171" y="650" fill="#94A3B8" font-size="11" font-weight="500" text-anchor="middle">Comp Table</text>
  <!-- admin: Settings > Payment > Quick Actions -->
  <use xlink:href="#adminGear" x="1274" y="630" width="10" height="10"/>

  <!-- Offline ready indicator — admin: Settings > Terminal > Offline Mode -->
  <rect x="870" y="676" width="400" height="32" rx="6" fill="#120A20" stroke="#2D1A4D" stroke-width="0.5"/>
  <text x="1070" y="697" fill="#A78BFA" font-size="10" font-weight="500" text-anchor="middle">Offline fallback ready (Stripe)</text>
  <!-- admin: Settings > Terminal > Offline Mode -->
  <use xlink:href="#adminGear" x="1274" y="680" width="10" height="10"/>

  <!-- Transaction history (last 3) — admin: Settings > Payment > Transaction Log -->
  <rect x="860" y="722" width="412" height="1" fill="#1E2235"/>
  <text x="870" y="744" fill="#475569" font-size="9" font-weight="700" letter-spacing="1.5">RECENT</text>
  <!-- admin: Settings > Payment > Transaction Log -->
  <use xlink:href="#adminGear" x="920" y="736" width="10" height="10"/>

  <use xlink:href="#recentRow" x="870" y="752" width="400" height="30"/>
  <text x="884" y="772" fill="#4ADE80" font-size="10">2:18 PM</text>
  <text x="940" y="772" fill="#94A3B8" font-size="10">T2 · Card ****4521</text>
  <text x="1258" y="772" fill="#CBD5E1" font-size="10" text-anchor="end">$47.50</text>

  <use xlink:href="#recentRow" x="870" y="786" width="400" height="30"/>
  <text x="884" y="806" fill="#4ADE80" font-size="10">2:05 PM</text>
  <text x="940" y="806" fill="#94A3B8" font-size="10">TO#11 · Cash</text>
  <text x="1258" y="806" fill="#CBD5E1" font-size="10" text-anchor="end">$22.00</text>

  <use xlink:href="#recentRow" x="870" y="820" width="400" height="30"/>
  <text x="884" y="840" fill="#4ADE80" font-size="10">1:48 PM</text>
  <text x="940" y="840" fill="#94A3B8" font-size="10">T9 · Apple Pay</text>
  <text x="1258" y="840" fill="#CBD5E1" font-size="10" text-anchor="end">$35.80</text>

  <!-- ═══════════ CHARGE BUTTON ═══════════ -->
  <rect x="78" y="894" width="1210" height="70" rx="12" fill="url(#chargeBtnGrad)"/>
  <rect x="78" y="894" width="605" height="70" rx="12" fill="white" opacity="0.04"/>
  <text x="683" y="924" fill="white" font-size="20" font-weight="800" text-anchor="middle">&#128179;  Charge $38.60</text>
  <text x="683" y="948" fill="#D1FAE5" font-size="11" text-anchor="middle">Tap card on terminal · Tip 18% included · Print receipt</text>

  <!-- Screen label -->
  <text x="683" y="1018" fill="#0C0E1A" font-size="8" text-anchor="middle">Synalux POS — Payment Screen (iPad Landscape 1366x1024)</text>
</svg>