<svg role="img" aria-labelledby="title-ipad_barcode_scan-svg" xmlns="http://www.w3.org/2000/svg" viewBox="0 0 1366 1024"
     font-family="-apple-system,BlinkMacSystemFont,'SF Pro Display','Segoe UI',sans-serif">

  <!-- ═══════════════════════════════════════════════════════════════
       DESIGN SYSTEM DEFS — shared gradients, filters, symbols
       ═══════════════════════════════════════════════════════════════ -->
  <title id="title-ipad_barcode_scan-svg">Synalux POS — Uarcode scan</title>
  <desc>Synalux POS mockup screen for Uarcode scan. All UI elements admin-configurable.</desc>
  <defs>
    <!-- Gradients -->
    <linearGradient id="bgGrad" x1="0" y1="0" x2="0" y2="1">
      <stop offset="0%" stop-color="#0C0E1A"/>
      <stop offset="100%" stop-color="#10132A"/>
    </linearGradient>
    <linearGradient id="beamGrad" x1="0%" y1="0%" x2="100%" y2="0%">
      <stop offset="0%" stop-color="#F59E0B" stop-opacity="0"/>
      <stop offset="20%" stop-color="#F59E0B" stop-opacity="0.9"/>
      <stop offset="50%" stop-color="#FCD34D" stop-opacity="1"/>
      <stop offset="80%" stop-color="#F59E0B" stop-opacity="0.9"/>
      <stop offset="100%" stop-color="#F59E0B" stop-opacity="0"/>
    </linearGradient>
    <linearGradient id="amberBtn" x1="0" y1="0" x2="0" y2="1">
      <stop offset="0%" stop-color="#FBBF24"/>
      <stop offset="100%" stop-color="#F59E0B"/>
    </linearGradient>
    <linearGradient id="cardGrad" x1="0" y1="0" x2="0" y2="1">
      <stop offset="0%" stop-color="#1A1D2E"/>
      <stop offset="100%" stop-color="#161930"/>
    </linearGradient>

    <!-- Drop shadow filter -->
    <filter id="shadow" x="-4%" y="-4%" width="108%" height="116%">
      <feDropShadow dx="0" dy="2" stdDeviation="4" flood-color="#000" flood-opacity="0.35"/>
    </filter>
    <filter id="glow" x="-10%" y="-100%" width="120%" height="300%">
      <feGaussianBlur stdDeviation="3" result="blur"/>
      <feMerge><feMergeNode in="blur"/><feMergeNode in="SourceGraphic"/></feMerge>
    </filter>
    <filter id="iconShadow" x="-10%" y="-10%" width="120%" height="130%">
      <feDropShadow dx="0" dy="1" stdDeviation="2" flood-color="#000" flood-opacity="0.25"/>
    </filter>

    <!-- ─── REUSABLE SYMBOLS ─── -->

    <!-- Admin configurability pencil icon (30% opacity affordance) -->
    <symbol id="adminEdit" viewBox="0 0 14 14">
      <path d="M10.5 1.5l2 2-7 7H3.5v-2l7-7z M9 3l2 2" fill="none" stroke="#94A3B8" stroke-width="1.2" stroke-linecap="round" stroke-linejoin="round" opacity="0.3"/>
    </symbol>

    <!-- Admin gear icon (30% opacity affordance) -->
    <symbol id="adminGear" viewBox="0 0 16 16">
      <circle cx="8" cy="8" r="2.5" fill="none" stroke="#94A3B8" stroke-width="1.2" opacity="0.3"/>
      <path d="M8 1v2M8 13v2M1 8h2M13 8h2M2.9 2.9l1.4 1.4M11.7 11.7l1.4 1.4M13.1 2.9l-1.4 1.4M4.3 11.7l-1.4 1.4" stroke="#94A3B8" stroke-width="1" stroke-linecap="round" opacity="0.3"/>
    </symbol>

    <!-- Category row symbol -->
    <symbol id="catRow" viewBox="0 0 184 36">
      <rect width="184" height="36" rx="6" fill="#1A1D2E"/>
    </symbol>

    <!-- Quantity control group -->
    <symbol id="qtyControls" viewBox="0 0 140 24">
      <rect x="0" y="0" width="24" height="24" rx="4" fill="#1E2235" stroke="#2A2E45" stroke-width="1"/>
      <text x="12" y="16" font-size="14" fill="#94A3B8" text-anchor="middle">−</text>
      <text x="36" y="16" font-size="12" font-weight="700" fill="#F1F5F9" text-anchor="middle">1</text>
      <rect x="50" y="0" width="24" height="24" rx="4" fill="#1E2235" stroke="#2A2E45" stroke-width="1"/>
      <text x="62" y="16" font-size="14" fill="#94A3B8" text-anchor="middle">+</text>
      <rect x="82" y="0" width="52" height="24" rx="4" fill="url(#amberBtn)"/>
      <text x="108" y="16" font-size="9" font-weight="700" fill="#000" text-anchor="middle">Qty: 1</text>
    </symbol>

    <!-- Barcode stripe icon -->
    <symbol id="barcodeIcon" viewBox="0 0 36 26">
      <rect x="0" y="0" width="2" height="26" fill="#F59E0B"/>
      <rect x="4" y="0" width="4" height="26" fill="#F59E0B"/>
      <rect x="10" y="0" width="2" height="26" fill="#F59E0B"/>
      <rect x="14" y="0" width="6" height="26" fill="#F59E0B"/>
      <rect x="22" y="0" width="2" height="26" fill="#F59E0B"/>
      <rect x="26" y="0" width="3" height="26" fill="#F59E0B"/>
      <rect x="31" y="0" width="2" height="26" fill="#F59E0B"/>
    </symbol>

    <!-- Nav tab symbol (inactive) -->
    <symbol id="navTab" viewBox="0 0 100 52">
      <rect width="100" height="52" fill="transparent"/>
    </symbol>

    <!-- Scan badge symbol -->
    <symbol id="scanBadge" viewBox="0 0 38 16">
      <rect width="38" height="16" rx="8" fill="#065F46"/>
      <text x="19" y="11" font-size="7" font-weight="700" fill="#22C55E" text-anchor="middle">SCAN</text>
    </symbol>

    <!-- Viewfinder corner symbol (top-left orientation) -->
    <symbol id="cornerTL" viewBox="0 0 40 40">
      <rect x="0" y="0" width="40" height="4" fill="#F59E0B"/>
      <rect x="0" y="0" width="4" height="40" fill="#F59E0B"/>
    </symbol>

    <!-- Status dot -->
    <symbol id="statusDot" viewBox="0 0 10 10">
      <circle cx="5" cy="5" r="4" fill="#22C55E"/>
    </symbol>

    <!-- Hardware chip -->
    <symbol id="hwChip" viewBox="0 0 120 18">
      <rect width="120" height="18" rx="9" fill="#1E2235" stroke="#F59E0B" stroke-width="1"/>
    </symbol>

    <!-- Format chip -->
    <symbol id="fmtChip" viewBox="0 0 60 18">
      <rect width="60" height="18" rx="9" fill="#1E2235" stroke="#22C55E" stroke-width="1"/>
    </symbol>
  </defs>

  <!-- ═══════════════════════════════════════════════════════════════
       BACKGROUND
       ═══════════════════════════════════════════════════════════════ -->
  <rect width="1366" height="1024" fill="url(#bgGrad)"/>

  <!-- ═══════════════════════════════════════════════════════════════
       TOP NAV BAR
       Admin: Settings > General > Branding (logo, name)
       ═══════════════════════════════════════════════════════════════ -->
  <rect x="0" y="0" width="1366" height="52" fill="#161930" filter="url(#shadow)"/>
  <!-- Logo -->
  <text x="16" y="32" font-size="14" font-weight="700" fill="#F59E0B">&#x2B21; SYNALUX</text>
  <text x="100" y="32" font-size="11" fill="#64748B">POS</text>
  <!-- Admin affordance: branding -->
  <use href="#adminEdit" x="130" y="22" width="12" height="12"/>

  <!-- Nav tabs — Admin: Settings > Navigation > Tab Layout -->
  <rect x="176" y="0" width="110" height="52" fill="#1E2235"/>
  <rect x="176" y="48" width="110" height="4" fill="#F59E0B"/>
  <text x="231" y="30" font-size="12" font-weight="700" fill="#F59E0B" text-anchor="middle">Register</text>
  <use href="#adminGear" x="282" y="20" width="12" height="12"/>

  <text x="310" y="30" font-size="12" fill="#64748B">Tables</text>
  <text x="400" y="30" font-size="12" fill="#64748B">KDS</text>
  <text x="465" y="30" font-size="12" fill="#64748B">Inventory</text>
  <text x="555" y="30" font-size="12" fill="#64748B">Reports</text>

  <!-- Right side nav -->
  <text x="1160" y="30" font-size="11" fill="#64748B">12:47 PM</text>
  <use href="#statusDot" x="1224" y="21" width="10" height="10"/>
  <text x="1238" y="30" font-size="10" fill="#22C55E">Online</text>
  <!-- Staff indicator — Admin: Settings > Staff > Roles -->
  <rect x="1270" y="10" width="80" height="30" rx="6" fill="#1E2235" stroke="#2A2E45" stroke-width="1"/>
  <text x="1282" y="29" font-size="10" fill="#94A3B8">J. Smith &#x25BE;</text>
  <use href="#adminEdit" x="1340" y="14" width="10" height="10"/>

  <!-- ═══════════════════════════════════════════════════════════════
       THREE-COLUMN REGISTER LAYOUT
       LEFT: categories (w=200) x=0
       CENTER: scan UI (w=640) x=200
       RIGHT: order ticket (w=526) x=840
       ═══════════════════════════════════════════════════════════════ -->
  <line x1="200" y1="52" x2="200" y2="800" stroke="#1E2235" stroke-width="1"/>
  <line x1="840" y1="52" x2="840" y2="800" stroke="#1E2235" stroke-width="1"/>

  <!-- ═══════════════════════════════════════════════════════════════
       LEFT COLUMN — CATEGORIES (dimmed)
       Admin: Settings > Menu Builder > Categories
       ═══════════════════════════════════════════════════════════════ -->
  <rect x="0" y="52" width="200" height="748" fill="#0C0E1A" opacity="0.85"/>
  <text x="12" y="80" font-size="10" font-weight="700" fill="#64748B" letter-spacing="1">CATEGORIES</text>
  <!-- Admin affordance: category config -->
  <use href="#adminEdit" x="86" y="68" width="11" height="11"/>

  <!-- Active category -->
  <rect x="8" y="88" width="184" height="36" rx="6" fill="#1E2235" stroke="#F59E0B" stroke-width="1"/>
  <text x="94" y="111" font-size="11" font-weight="600" fill="#F59E0B" text-anchor="middle">Burgers</text>

  <!-- Inactive categories using symbol -->
  <use href="#catRow" x="8" y="130" width="184" height="36"/>
  <text x="94" y="153" font-size="11" fill="#64748B" text-anchor="middle">Pizza</text>
  <use href="#catRow" x="8" y="172" width="184" height="36"/>
  <text x="94" y="195" font-size="11" fill="#64748B" text-anchor="middle">Salads</text>
  <use href="#catRow" x="8" y="214" width="184" height="36"/>
  <text x="94" y="237" font-size="11" fill="#64748B" text-anchor="middle">Drinks</text>
  <use href="#catRow" x="8" y="256" width="184" height="36"/>
  <text x="94" y="279" font-size="11" fill="#64748B" text-anchor="middle">Desserts</text>
  <use href="#catRow" x="8" y="298" width="184" height="36"/>
  <text x="94" y="321" font-size="11" fill="#64748B" text-anchor="middle">Coffee</text>
  <use href="#catRow" x="8" y="340" width="184" height="36"/>
  <text x="94" y="363" font-size="11" fill="#64748B" text-anchor="middle">Snacks</text>
  <use href="#catRow" x="8" y="382" width="184" height="36"/>
  <text x="94" y="405" font-size="11" fill="#64748B" text-anchor="middle">Catering</text>

  <!-- Scan mode indicator — Admin: Settings > Menu Builder > Barcodes > Scan Mode -->
  <rect x="8" y="448" width="184" height="44" rx="8" fill="#451A03" stroke="#F59E0B" stroke-width="1.5" filter="url(#shadow)"/>
  <text x="100" y="468" font-size="10" font-weight="700" fill="#F59E0B" text-anchor="middle">SCAN MODE</text>
  <text x="100" y="484" font-size="9" fill="#F97316" text-anchor="middle">Active</text>
  <use href="#adminGear" x="170" y="454" width="12" height="12"/>

  <!-- ═══════════════════════════════════════════════════════════════
       CENTER COLUMN — BARCODE SCAN UI
       Admin: Settings > Menu Builder > Barcodes
       ═══════════════════════════════════════════════════════════════ -->

  <!-- Center header -->
  <rect x="200" y="52" width="640" height="50" fill="url(#cardGrad)" filter="url(#shadow)"/>
  <use href="#barcodeIcon" x="212" y="64" width="36" height="26"/>
  <text x="258" y="82" font-size="16" font-weight="700" fill="#F1F5F9">Scan to Add</text>
  <text x="258" y="96" font-size="10" fill="#64748B">Point barcode scanner or camera at product</text>
  <!-- Admin affordance: barcode settings -->
  <use href="#adminGear" x="420" y="72" width="12" height="12"/>
  <!-- Manual entry link -->
  <text x="730" y="82" font-size="11" fill="#F59E0B" text-decoration="underline" text-anchor="end">Manual Entry</text>

  <!-- LARGE SCANNING ZONE -->
  <rect x="210" y="110" width="620" height="320" rx="12" fill="#080A12" stroke="#F59E0B" stroke-width="2" stroke-dasharray="8,4" filter="url(#shadow)"/>

  <!-- Camera viewfinder corners using symbol -->
  <!-- Top-left -->
  <use href="#cornerTL" x="270" y="140" width="40" height="40"/>
  <!-- Top-right (flipped) -->
  <g transform="translate(840,140) scale(-1,1)">
    <use href="#cornerTL" x="0" y="0" width="40" height="40"/>
  </g>
  <!-- Bottom-left (flipped vertically) -->
  <g transform="translate(270,400) scale(1,-1)">
    <use href="#cornerTL" x="0" y="0" width="40" height="40"/>
  </g>
  <!-- Bottom-right (flipped both) -->
  <g transform="translate(840,400) scale(-1,-1)">
    <use href="#cornerTL" x="0" y="0" width="40" height="40"/>
  </g>

  <!-- Scanning beam — horizontal amber line with glow -->
  <rect x="220" y="244" width="600" height="8" fill="url(#beamGrad)" opacity="0.4" rx="2"/>
  <rect x="220" y="246" width="600" height="2" fill="url(#beamGrad)" filter="url(#glow)"/>

  <!-- Scan zone text -->
  <text x="520" y="302" font-size="15" font-weight="600" fill="#94A3B8" text-anchor="middle">Point scanner at product barcode</text>
  <!-- Admin: Settings > Menu Builder > Barcodes > Supported Formats -->
  <text x="520" y="322" font-size="11" fill="#64748B" text-anchor="middle">Supports: Code 128, EAN-13, QR Code, PDF417</text>
  <use href="#adminEdit" x="630" y="310" width="11" height="11"/>

  <!-- Manual SKU input field -->
  <text x="220" y="352" font-size="10" fill="#64748B">Or type SKU / barcode:</text>
  <rect x="370" y="340" width="440" height="28" rx="6" fill="#1A1D2E" stroke="#2A2E45" stroke-width="1"/>
  <text x="382" y="358" font-size="11" fill="#64748B">Enter SKU or barcode number...</text>
  <rect x="790" y="342" width="60" height="24" rx="4" fill="url(#amberBtn)"/>
  <text x="809" y="358" font-size="10" font-weight="700" fill="#000">Search</text>

  <!-- ═══════════════════════════════════════════════════════════════
       SCAN RESULTS PANEL
       Admin: Settings > Menu Builder > Barcodes > Result Display
       ═══════════════════════════════════════════════════════════════ -->
  <text x="214" y="454" font-size="10" font-weight="700" fill="#94A3B8" letter-spacing="1">RECENTLY SCANNED</text>
  <use href="#adminEdit" x="326" y="442" width="11" height="11"/>

  <!-- Row 1 — Classic Burger found -->
  <rect x="210" y="462" width="618" height="46" rx="6" fill="url(#cardGrad)" stroke="#2A2E45" stroke-width="1"/>
  <rect x="218" y="472" width="3" height="26" fill="#22C55E"/>
  <text x="228" y="481" font-size="9" fill="#64748B">012345678901</text>
  <text x="228" y="497" font-size="11" font-weight="600" fill="#F1F5F9">Classic Burger</text>
  <text x="380" y="481" font-size="11" font-weight="700" fill="#F1F5F9">$18.00</text>
  <text x="440" y="481" font-size="10" fill="#22C55E">Added to order &#x2713;</text>
  <!-- Qty controls via symbol -->
  <use href="#qtyControls" x="590" y="468" width="140" height="24"/>

  <!-- Row 2 — Craft Beer found -->
  <rect x="210" y="512" width="618" height="46" rx="6" fill="url(#cardGrad)" stroke="#2A2E45" stroke-width="1"/>
  <rect x="218" y="522" width="3" height="26" fill="#22C55E"/>
  <text x="228" y="531" font-size="9" fill="#64748B">987654321098</text>
  <text x="228" y="547" font-size="11" font-weight="600" fill="#F1F5F9">Craft Beer — Stella Artois</text>
  <text x="420" y="531" font-size="11" font-weight="700" fill="#F1F5F9">$9.00</text>
  <text x="476" y="531" font-size="10" fill="#22C55E">Added &#x2713;</text>
  <use href="#qtyControls" x="590" y="518" width="140" height="24"/>

  <!-- Row 3 — NOT FOUND error row -->
  <rect x="210" y="562" width="618" height="50" rx="6" fill="#1F0A0A" stroke="#EF4444" stroke-width="1"/>
  <rect x="218" y="574" width="3" height="26" fill="#EF4444"/>
  <text x="228" y="583" font-size="9" fill="#64748B">111222333444</text>
  <text x="228" y="601" font-size="11" font-weight="600" fill="#EF4444">NOT FOUND — Unknown barcode</text>
  <!-- Create Item — Admin: Settings > Menu Builder > Barcodes > Auto-Create -->
  <rect x="460" y="568" width="90" height="24" rx="5" fill="url(#amberBtn)" filter="url(#iconShadow)"/>
  <text x="486" y="584" font-size="10" font-weight="700" fill="#000" text-anchor="middle">Create Item</text>
  <use href="#adminEdit" x="540" y="570" width="10" height="10"/>
  <rect x="558" y="568" width="100" height="24" rx="5" fill="#1E2235" stroke="#2A2E45" stroke-width="1"/>
  <text x="608" y="584" font-size="10" fill="#94A3B8" text-anchor="middle">Search Catalog</text>

  <!-- ═══════════════════════════════════════════════════════════════
       LOOKUP RESULT CARD (expanded — Classic Burger)
       Admin: Settings > Menu Builder > Items > Detail Fields
       ═══════════════════════════════════════════════════════════════ -->
  <rect x="210" y="624" width="618" height="164" rx="8" fill="url(#cardGrad)" stroke="#F59E0B" stroke-width="1.5" filter="url(#shadow)"/>
  <!-- Header -->
  <rect x="210" y="624" width="618" height="36" rx="8" fill="#1E2235"/>
  <text x="222" y="641" font-size="10" font-weight="700" fill="#F59E0B">LOOKUP RESULT</text>
  <text x="222" y="655" font-size="9" fill="#64748B">Barcode: 012345678901</text>
  <use href="#adminGear" x="790" y="630" width="12" height="12"/>

  <!-- Left col -->
  <text x="222" y="678" font-size="13" font-weight="700" fill="#F1F5F9">Classic Burger</text>
  <text x="222" y="694" font-size="9" fill="#64748B">SKU: SKU-1042</text>
  <text x="222" y="708" font-size="9" fill="#64748B">Category: Burgers &amp; Sandwiches</text>
  <text x="222" y="724" font-size="11" font-weight="700" fill="#F59E0B">$18.00</text>
  <text x="265" y="724" font-size="9" fill="#64748B">Cost: $6.20</text>
  <text x="310" y="724" font-size="9" fill="#22C55E">Margin: 65.6%</text>

  <!-- Right col -->
  <text x="560" y="678" font-size="9" fill="#64748B" text-anchor="end">In Stock:</text>
  <text x="562" y="678" font-size="9" font-weight="700" fill="#22C55E">24 units &#x2713;</text>
  <text x="560" y="694" font-size="9" fill="#64748B" text-anchor="end">Modifiers:</text>
  <text x="562" y="694" font-size="9" fill="#94A3B8">Burger Options (req.)</text>

  <!-- Allergen chips — Admin: Settings > Menu Builder > Allergens -->
  <text x="222" y="742" font-size="9" fill="#64748B">Allergens:</text>
  <use href="#adminEdit" x="275" y="730" width="10" height="10"/>
  <rect x="290" y="732" width="44" height="16" rx="8" fill="#451A03" stroke="#F97316" stroke-width="1"/>
  <text x="312" y="743" font-size="8" fill="#F97316" text-anchor="middle">Wheat</text>
  <rect x="340" y="732" width="40" height="16" rx="8" fill="#1E3A5F" stroke="#60A5FA" stroke-width="1"/>
  <text x="360" y="743" font-size="8" fill="#60A5FA" text-anchor="middle">Dairy</text>
  <rect x="386" y="732" width="34" height="16" rx="8" fill="#422006" stroke="#FBBF24" stroke-width="1"/>
  <text x="403" y="743" font-size="8" fill="#FBBF24" text-anchor="middle">Egg</text>

  <!-- Action buttons -->
  <rect x="530" y="732" width="130" height="30" rx="6" fill="url(#amberBtn)" filter="url(#iconShadow)"/>
  <text x="595" y="751" font-size="11" font-weight="700" fill="#000" text-anchor="middle">Add to Order</text>
  <text x="595" y="774" font-size="9" fill="#F59E0B" text-anchor="middle">View Item Details &#x203A;</text>

  <!-- ═══════════════════════════════════════════════════════════════
       RIGHT COLUMN — LIVE ORDER TICKET
       Admin: Settings > Register > Order Display
       ═══════════════════════════════════════════════════════════════ -->
  <rect x="840" y="52" width="526" height="748" fill="#0C0E1A"/>

  <!-- Order header -->
  <rect x="840" y="52" width="526" height="48" fill="url(#cardGrad)" filter="url(#shadow)"/>
  <text x="854" y="72" font-size="13" font-weight="700" fill="#F1F5F9">Order #1047</text>
  <text x="854" y="88" font-size="10" fill="#64748B">Dine-In &#xB7; Table 4 &#xB7; 2 guests</text>
  <text x="1340" y="72" font-size="10" fill="#64748B" text-anchor="end">12:47 PM</text>
  <use href="#adminEdit" x="1340" y="78" width="10" height="10"/>

  <!-- Order item 1 -->
  <rect x="848" y="108" width="510" height="56" rx="6" fill="url(#cardGrad)"/>
  <use href="#scanBadge" x="856" y="116" width="38" height="16"/>
  <text x="856" y="146" font-size="13" font-weight="600" fill="#F1F5F9">Classic Burger</text>
  <text x="856" y="158" font-size="9" fill="#64748B">&#xD7; 1 &#xB7; No mods</text>
  <text x="1350" y="146" font-size="13" font-weight="700" fill="#F1F5F9" text-anchor="end">$18.00</text>

  <!-- Order item 2 -->
  <rect x="848" y="170" width="510" height="56" rx="6" fill="url(#cardGrad)"/>
  <use href="#scanBadge" x="856" y="178" width="38" height="16"/>
  <text x="856" y="208" font-size="13" font-weight="600" fill="#F1F5F9">Craft Beer — Stella Artois</text>
  <text x="856" y="220" font-size="9" fill="#64748B">&#xD7; 1</text>
  <text x="1350" y="208" font-size="13" font-weight="700" fill="#F1F5F9" text-anchor="end">$9.00</text>

  <!-- Divider -->
  <line x1="848" y1="236" x2="1358" y2="236" stroke="#1E2235" stroke-width="1"/>

  <!-- Subtotals — Admin: Settings > Register > Tax Rate -->
  <text x="856" y="258" font-size="11" fill="#94A3B8">Subtotal</text>
  <text x="1350" y="258" font-size="11" fill="#F1F5F9" text-anchor="end">$27.00</text>
  <text x="856" y="276" font-size="11" fill="#94A3B8">Tax (8.5%)</text>
  <use href="#adminEdit" x="920" y="264" width="10" height="10"/>
  <text x="1350" y="276" font-size="11" fill="#F1F5F9" text-anchor="end">$2.30</text>
  <line x1="848" y1="286" x2="1358" y2="286" stroke="#1E2235" stroke-width="1"/>
  <text x="856" y="306" font-size="14" font-weight="700" fill="#F1F5F9">Total</text>
  <text x="1350" y="306" font-size="16" font-weight="700" fill="#F59E0B" text-anchor="end">$29.30</text>

  <!-- Add more items prompt -->
  <rect x="848" y="318" width="510" height="34" rx="6" fill="#0C0E1A" stroke="#1E2235" stroke-width="1" stroke-dasharray="4,3"/>
  <text x="1103" y="339" font-size="11" fill="#64748B" text-anchor="middle">+ Scan or tap item to add</text>

  <!-- Discount / Notes row — Admin: Settings > Register > Discounts -->
  <rect x="848" y="360" width="248" height="30" rx="5" fill="#1E2235" stroke="#2A2E45" stroke-width="1"/>
  <text x="972" y="379" font-size="10" fill="#94A3B8" text-anchor="middle">Add Discount</text>
  <use href="#adminEdit" x="1082" y="364" width="10" height="10"/>
  <rect x="1102" y="360" width="256" height="30" rx="5" fill="#1E2235" stroke="#2A2E45" stroke-width="1"/>
  <text x="1230" y="379" font-size="10" fill="#94A3B8" text-anchor="middle">Add Note</text>

  <!-- Payment button — large amber -->
  <rect x="848" y="400" width="510" height="56" rx="10" fill="url(#amberBtn)" filter="url(#shadow)"/>
  <text x="1103" y="436" font-size="18" font-weight="700" fill="#000" text-anchor="middle">Payment</text>

  <!-- Split check / void row -->
  <rect x="848" y="466" width="248" height="30" rx="5" fill="#1E2235" stroke="#2A2E45" stroke-width="1"/>
  <text x="972" y="485" font-size="10" fill="#94A3B8" text-anchor="middle">Split Check</text>
  <rect x="1102" y="466" width="256" height="30" rx="5" fill="#1E2235" stroke="#EF4444" stroke-width="1"/>
  <text x="1230" y="485" font-size="10" fill="#EF4444" text-anchor="middle">Void Order</text>

  <!-- Order metadata -->
  <text x="854" y="516" font-size="9" fill="#64748B">Order opened: 12:44 PM &#xB7; Server: J. Smith</text>
  <text x="854" y="530" font-size="9" fill="#64748B">Source: POS Register (iPad) &#xB7; Scan mode active</text>

  <!-- ═══════════════════════════════════════════════════════════════
       INVENTORY RESTOCK MODE (below main columns)
       Admin: Settings > Menu Builder > Barcodes > Restock Mode
       ═══════════════════════════════════════════════════════════════ -->
  <rect x="0" y="800" width="840" height="224" fill="#0C0E1A"/>
  <rect x="8" y="808" width="820" height="208" rx="8" fill="url(#cardGrad)" stroke="#2A2E45" stroke-width="1" filter="url(#shadow)"/>

  <!-- Restock mode header -->
  <rect x="8" y="808" width="820" height="36" rx="8" fill="#0C0E1A"/>
  <text x="20" y="828" font-size="11" font-weight="700" fill="#F1F5F9">Restock Mode</text>
  <text x="20" y="842" font-size="9" fill="#64748B">Scan item &#x2192; enter quantity received &#x2192; update pos_inventory</text>
  <use href="#adminGear" x="300" y="820" width="12" height="12"/>
  <!-- Toggle OFF -->
  <rect x="730" y="816" width="46" height="22" rx="11" fill="#334155"/>
  <circle cx="742" cy="827" r="9" fill="#64748B"/>
  <text x="782" y="831" font-size="9" fill="#64748B">OFF</text>

  <!-- Restock workflow preview (grayed — toggle off) -->
  <g opacity="0.45">
    <text x="20" y="868" font-size="10" font-weight="600" fill="#94A3B8">Receiving Workflow:</text>
    <rect x="20" y="876" width="120" height="32" rx="5" fill="#1E2235" stroke="#2A2E45" stroke-width="1"/>
    <text x="80" y="896" font-size="9" fill="#64748B" text-anchor="middle">Scan barcode</text>
    <text x="148" y="896" font-size="14" fill="#2A2E45">&#x2192;</text>
    <rect x="162" y="876" width="120" height="32" rx="5" fill="#1E2235" stroke="#2A2E45" stroke-width="1"/>
    <text x="222" y="892" font-size="9" fill="#64748B" text-anchor="middle">Item found</text>
    <text x="222" y="904" font-size="8" fill="#64748B" text-anchor="middle">SKU-1042</text>
    <text x="290" y="896" font-size="14" fill="#2A2E45">&#x2192;</text>
    <rect x="304" y="876" width="140" height="32" rx="5" fill="#1E2235" stroke="#2A2E45" stroke-width="1"/>
    <text x="374" y="892" font-size="9" fill="#64748B" text-anchor="middle">Qty popup</text>
    <text x="374" y="904" font-size="8" fill="#64748B" text-anchor="middle">Enter received qty</text>
    <text x="452" y="896" font-size="14" fill="#2A2E45">&#x2192;</text>
    <rect x="466" y="876" width="150" height="32" rx="5" fill="#064E3B" stroke="#22C55E" stroke-width="1"/>
    <text x="541" y="892" font-size="9" fill="#22C55E" text-anchor="middle">Received: +12 units</text>
    <text x="541" y="904" font-size="8" fill="#4ADE80" text-anchor="middle">Stock updated &#x2713;</text>
    <text x="624" y="896" font-size="14" fill="#2A2E45">&#x2192;</text>
    <rect x="638" y="876" width="160" height="32" rx="5" fill="#1E2235" stroke="#2A2E45" stroke-width="1"/>
    <text x="718" y="892" font-size="9" fill="#64748B" text-anchor="middle">Auto-print receive</text>
    <text x="718" y="904" font-size="8" fill="#64748B" text-anchor="middle">label if trigger ON</text>
  </g>

  <!-- DB note for restock -->
  <text x="20" y="935" font-size="9" fill="#64748B">Event log: </text>
  <text x="75" y="935" font-size="9" fill="#8B5CF6">pos_inventory_events</text>
  <text x="195" y="935" font-size="9" fill="#64748B">(type = 'receive'). Webhook triggers label print job if trigger enabled.</text>

  <!-- ═══════════════════════════════════════════════════════════════
       RIGHT BOTTOM — WORKFLOW INTEGRATION
       Admin: Settings > Menu Builder > Barcodes > Hardware
       ═══════════════════════════════════════════════════════════════ -->
  <rect x="840" y="600" width="526" height="424" fill="#0C0E1A"/>
  <rect x="848" y="558" width="510" height="450" rx="8" fill="url(#cardGrad)" stroke="#F59E0B" stroke-width="1.5" filter="url(#shadow)"/>
  <text x="860" y="578" font-size="10" font-weight="700" fill="#F59E0B">WORKFLOW INTEGRATION</text>
  <use href="#adminGear" x="982" y="566" width="12" height="12"/>

  <text x="860" y="596" font-size="9" fill="#94A3B8">BarcodeBridge.swift: HID scanner input captured natively</text>
  <text x="860" y="612" font-size="9" fill="#94A3B8">(USB/Bluetooth Zebra DS2208).</text>
  <line x1="860" y1="622" x2="1348" y2="622" stroke="#1E2235" stroke-width="0.5"/>

  <text x="860" y="638" font-size="9" fill="#94A3B8">Scan &#x2192; lookup:</text>
  <text x="860" y="652" font-size="9" fill="#8B5CF6">  pos_menu_items.barcode + pos_inventory.sku</text>
  <text x="860" y="668" font-size="9" fill="#94A3B8">No match &#x2192; prompt create or search.</text>
  <line x1="860" y1="678" x2="1348" y2="678" stroke="#1E2235" stroke-width="0.5"/>

  <text x="860" y="694" font-size="9" fill="#94A3B8">Restock mode &#x2192; </text>
  <text x="957" y="694" font-size="9" fill="#8B5CF6">pos_inventory_events (type='receive')</text>
  <text x="860" y="710" font-size="9" fill="#94A3B8">Auto-print label on receive if trigger enabled.</text>
  <line x1="860" y1="720" x2="1348" y2="720" stroke="#1E2235" stroke-width="0.5"/>

  <text x="860" y="736" font-size="9" fill="#94A3B8">Camera fallback: AVFoundation barcode reader</text>
  <text x="860" y="752" font-size="9" fill="#94A3B8">(built-in iPad camera) for 1D+2D codes.</text>
  <line x1="860" y1="762" x2="1348" y2="762" stroke="#1E2235" stroke-width="0.5"/>

  <!-- Hardware supported — Admin: Settings > Menu Builder > Barcodes > Hardware -->
  <text x="860" y="778" font-size="9" fill="#64748B">Hardware:</text>
  <use href="#adminEdit" x="910" y="766" width="10" height="10"/>
  <use href="#hwChip" x="924" y="768" width="110" height="18"/>
  <text x="979" y="780" font-size="8" fill="#FCD34D" text-anchor="middle">Zebra DS2208 (USB)</text>
  <use href="#hwChip" x="1042" y="768" width="130" height="18"/>
  <text x="1107" y="780" font-size="8" fill="#FCD34D" text-anchor="middle">Zebra DS8178 (BT)</text>
  <use href="#hwChip" x="924" y="792" width="110" height="18"/>
  <text x="979" y="804" font-size="8" fill="#FCD34D" text-anchor="middle">iPad Camera (AVF)</text>
  <line x1="860" y1="818" x2="1348" y2="818" stroke="#1E2235" stroke-width="0.5"/>

  <!-- Barcode format chips — Admin: Settings > Menu Builder > Barcodes > Supported Formats -->
  <text x="860" y="834" font-size="9" fill="#64748B">Formats:</text>
  <use href="#adminEdit" x="906" y="822" width="10" height="10"/>
  <use href="#fmtChip" x="920" y="824" width="60" height="18"/>
  <text x="950" y="836" font-size="8" fill="#4ADE80" text-anchor="middle">Code 128</text>
  <use href="#fmtChip" x="988" y="824" width="50" height="18"/>
  <text x="1013" y="836" font-size="8" fill="#4ADE80" text-anchor="middle">EAN-13</text>
  <use href="#fmtChip" x="1046" y="824" width="56" height="18"/>
  <text x="1074" y="836" font-size="8" fill="#4ADE80" text-anchor="middle">QR Code</text>
  <use href="#fmtChip" x="1110" y="824" width="50" height="18"/>
  <text x="1135" y="836" font-size="8" fill="#4ADE80" text-anchor="middle">PDF417</text>

  <text x="860" y="872" font-size="9" fill="#64748B">Bridge call: window.scanResult(itemJSON) &#x2192; POS adds to live order in-place.</text>
  <text x="860" y="890" font-size="9" fill="#64748B">Unknown &#x2192; window.unknownBarcode(code) &#x2192; show Create/Search prompt.</text>

  <!-- ═══════════════════════════════════════════════════════════════
       BOTTOM STATUS BAR
       Admin: Settings > General > Status Bar
       ═══════════════════════════════════════════════════════════════ -->
  <rect x="0" y="990" width="1366" height="34" fill="#161930" filter="url(#shadow)"/>
  <use href="#statusDot" x="11" y="1002" width="10" height="10"/>
  <text x="26" y="1011" font-size="9" fill="#22C55E">Scanner ready</text>
  <text x="110" y="1011" font-size="9" fill="#64748B">Zebra ZD420 connected</text>
  <use href="#adminGear" x="240" y="1000" width="11" height="11"/>
  <text x="1280" y="1011" font-size="9" fill="#64748B" text-anchor="end">Synalux POS v2.4.1</text>

</svg>