<svg role="img" aria-labelledby="title-ipad_eod-svg" xmlns="http://www.w3.org/2000/svg" viewBox="0 0 1366 1024" font-family="-apple-system,BlinkMacSystemFont,'SF Pro Display','Segoe UI',sans-serif">
  <title id="title-ipad_eod-svg">Synalux POS — eod</title>
  <desc>Synalux POS mockup screen for eod. All UI elements admin-configurable.</desc>
  <defs>
    <linearGradient id="bgGrad" x1="0" y1="0" x2="0" y2="1">
      <stop offset="0%" stop-color="#0C0E1A"/>
      <stop offset="100%" stop-color="#080A14"/>
    </linearGradient>
    <linearGradient id="headerGrad" x1="0" y1="0" x2="1" y2="0">
      <stop offset="0%" stop-color="#1E2235"/>
      <stop offset="100%" stop-color="#161930"/>
    </linearGradient>
    <linearGradient id="closeGrad" x1="0" y1="0" x2="0" y2="1">
      <stop offset="0%" stop-color="#EF4444"/>
      <stop offset="100%" stop-color="#DC2626"/>
    </linearGradient>
    <linearGradient id="printGrad" x1="0" y1="0" x2="0" y2="1">
      <stop offset="0%" stop-color="#1E2235"/>
      <stop offset="100%" stop-color="#161930"/>
    </linearGradient>
    <linearGradient id="greenGrad" x1="0" y1="0" x2="0" y2="1">
      <stop offset="0%" stop-color="#065F46"/>
      <stop offset="100%" stop-color="#064E3B"/>
    </linearGradient>
    <linearGradient id="amberGrad" x1="0" y1="0" x2="0" y2="1">
      <stop offset="0%" stop-color="#F59E0B"/>
      <stop offset="100%" stop-color="#D97706"/>
    </linearGradient>
    <linearGradient id="panelGrad" x1="0" y1="0" x2="0" y2="1">
      <stop offset="0%" stop-color="#161930"/>
      <stop offset="100%" stop-color="#131628"/>
    </linearGradient>
    <linearGradient id="cardGrad" x1="0" y1="0" x2="0" y2="1">
      <stop offset="0%" stop-color="#1A1D2E"/>
      <stop offset="100%" stop-color="#161930"/>
    </linearGradient>
    <filter id="cardShadow">
      <feDropShadow dx="0" dy="2" stdDeviation="4" flood-color="#000" flood-opacity="0.3"/>
    </filter>
    <filter id="btnShadow">
      <feDropShadow dx="0" dy="4" stdDeviation="8" flood-color="#EF4444" flood-opacity="0.35"/>
    </filter>
    <filter id="glowAmber">
      <feDropShadow dx="0" dy="0" stdDeviation="6" flood-color="#F59E0B" flood-opacity="0.15"/>
    </filter>
    <filter id="glowGreen">
      <feDropShadow dx="0" dy="0" stdDeviation="6" flood-color="#22C55E" flood-opacity="0.15"/>
    </filter>
    <filter id="headerShadow">
      <feDropShadow dx="0" dy="2" stdDeviation="6" flood-color="#000" flood-opacity="0.4"/>
    </filter>

    <!-- ============================================================ -->
    <!-- REUSABLE SYMBOLS                                              -->
    <!-- ============================================================ -->

    <!-- Admin gear icon for configurable elements -->
    <symbol id="adminGear" viewBox="0 0 14 14">
      <circle cx="7" cy="7" r="2.5" fill="none" stroke="#F59E0B" stroke-width="0.8" opacity="0.3"/>
      <path d="M7 1v1.5M7 11.5V13M1 7h1.5M11.5 7H13M2.8 2.8l1 1M10.2 10.2l1 1M2.8 11.2l1-1M10.2 3.8l1-1" stroke="#F59E0B" stroke-width="0.6" stroke-linecap="round" opacity="0.3"/>
    </symbol>

    <!-- Denomination row: bill with qty input and +/- buttons -->
    <!-- Usage: translate to y position, set text content via overlay -->
    <symbol id="denomBillRow" viewBox="0 0 454 32">
      <rect x="0" y="0" width="454" height="32"/>
      <rect x="186" y="6" width="66" height="22" rx="5" fill="#0C0E1A" stroke="#2A2E45" stroke-width="1"/>
      <rect x="376" y="6" width="22" height="22" rx="5" fill="#1E2235" stroke="#2A2E45" stroke-width="1"/>
      <text x="387" y="22" fill="#64748B" font-size="14" font-weight="500" text-anchor="middle">&#8722;</text>
      <rect x="402" y="6" width="22" height="22" rx="5" fill="#1E2235" stroke="#2A2E45" stroke-width="1"/>
      <text x="413" y="21" fill="#64748B" font-size="12" font-weight="500" text-anchor="middle">+</text>
    </symbol>

    <!-- Denomination row: coin with qty input (no +/- buttons) -->
    <symbol id="denomCoinRow" viewBox="0 0 454 28">
      <rect x="0" y="0" width="454" height="28"/>
      <rect x="186" y="5" width="66" height="20" rx="5" fill="#0C0E1A" stroke="#2A2E45" stroke-width="1"/>
    </symbol>

    <!-- Stat card (small KPI card) -->
    <symbol id="statCard" viewBox="0 0 128 64">
      <rect x="0" y="0" width="128" height="64" rx="8" fill="#0C0E1A" stroke="#1E2235" stroke-width="1"/>
    </symbol>

    <!-- KPI stat card (larger, used in center panel) -->
    <symbol id="kpiCard" viewBox="0 0 128 68">
      <rect x="0" y="0" width="128" height="68" rx="8" fill="#0C0E1A" stroke="#1E2235" stroke-width="1"/>
    </symbol>

    <!-- GL export button -->
    <symbol id="glExportBtn" viewBox="0 0 148 38">
      <rect x="0" y="0" width="148" height="38" rx="8" fill="url(#printGrad)" stroke="#2A2E45" stroke-width="1"/>
    </symbol>

    <!-- Action button (header style) -->
    <symbol id="headerBtn" viewBox="0 0 130 34">
      <rect x="0" y="0" width="130" height="34" rx="8" fill="url(#printGrad)" stroke="#2A2E45" stroke-width="1"/>
    </symbol>
  </defs>

  <!-- ================================================================ -->
  <!-- BACKGROUND                                                       -->
  <!-- ================================================================ -->
  <rect width="1366" height="1024" fill="url(#bgGrad)"/>

  <!-- ================================================================ -->
  <!-- TOP HEADER BAR                                                   -->
  <!-- ================================================================ -->
  <rect x="0" y="0" width="1366" height="58" fill="url(#headerGrad)" filter="url(#headerShadow)"/>
  <rect x="0" y="58" width="1366" height="1" fill="#2A2E45" opacity="0.6"/>

  <!-- Logo -->
  <rect x="16" y="14" width="30" height="30" rx="7" fill="url(#amberGrad)"/>
  <text x="24" y="35" fill="#0C0E1A" font-size="16" font-weight="800">S</text>

  <!-- Back nav -->
  <text x="56" y="28" fill="#64748B" font-size="12" font-weight="500">&#8592; Register</text>

  <!-- Title -->
  <text x="56" y="46" fill="#E2E8F0" font-size="18" font-weight="700">End of Day</text>
  <text x="176" y="46" fill="#475569" font-size="18" font-weight="400">&#8212; Close &amp; Z-Report</text>

  <!-- Context info -->
  <text x="520" y="32" fill="#64748B" font-size="11">2026-05-29 &#183; 10:05 PM &#183; Business Day #149</text>
  <text x="520" y="48" fill="#475569" font-size="10">Manager: Sara R. &#183; The Restaurant &#183; Register 1</text>

  <!-- Admin: Print Z-Report button — configurable: print format, auto-print setting -->
  <use href="#headerBtn" x="1058" y="13" width="130" height="34"/>
  <text x="1123" y="35" fill="#CBD5E1" font-size="12" font-weight="600" text-anchor="middle">Print Z-Report</text>
  <use href="#adminGear" x="1042" y="14" width="14" height="14"/>

  <!-- Admin: GL Journal Export button — configurable: GL account mapping, export format -->
  <use href="#glExportBtn" x="1196" y="13" width="148" height="34"/>
  <text x="1270" y="35" fill="#CBD5E1" font-size="12" font-weight="600" text-anchor="middle">GL Journal Export</text>
  <use href="#adminGear" x="1348" y="14" width="14" height="14"/>

  <!-- ================================================================ -->
  <!-- LEFT PANEL: CASH DENOMINATION COUNT (x=0, w=478)                 -->
  <!-- ================================================================ -->
  <rect x="0" y="59" width="478" height="965" fill="#0F1219"/>
  <rect x="478" y="59" width="1" height="965" fill="#1E2235"/>

  <!-- Panel title -->
  <text x="20" y="90" fill="#E2E8F0" font-size="15" font-weight="700">Cash Drawer Count</text>
  <text x="20" y="106" fill="#475569" font-size="10">Count physical cash and compare against expected</text>

  <!-- Admin: Denomination table — configurable: denominations list, currency -->
  <use href="#adminGear" x="450" y="80" width="14" height="14"/>

  <!-- Denomination table header -->
  <rect x="12" y="116" width="454" height="30" rx="6" fill="#1E2235"/>
  <text x="28" y="136" fill="#64748B" font-size="9" font-weight="700" letter-spacing="1.2">DENOMINATION</text>
  <text x="210" y="136" fill="#64748B" font-size="9" font-weight="700" letter-spacing="1.2">QTY</text>
  <text x="290" y="136" fill="#64748B" font-size="9" font-weight="700" letter-spacing="1.2">TOTAL</text>
  <text x="398" y="136" fill="#64748B" font-size="9" font-weight="700" letter-spacing="1.2">+/-</text>

  <!-- Bills section label -->
  <rect x="12" y="148" width="454" height="20" fill="transparent"/>
  <text x="28" y="163" fill="#F59E0B" font-size="9" font-weight="600" letter-spacing="0.5">BILLS</text>

  <!-- $100 (alternating bg: #1A1D2E) -->
  <use href="#denomBillRow" x="12" y="170" width="454" height="32" fill="#1A1D2E"/>
  <text x="28" y="191" fill="#CBD5E1" font-size="12" font-weight="500">$100 bills</text>
  <text x="231" y="191" fill="#E2E8F0" font-size="12" font-weight="600" text-anchor="middle">4</text>
  <text x="290" y="191" fill="#E2E8F0" font-size="12" font-weight="500">$400.00</text>

  <!-- $50 (alternating bg: #0F1219) -->
  <use href="#denomBillRow" x="12" y="202" width="454" height="32" fill="#0F1219"/>
  <text x="28" y="223" fill="#CBD5E1" font-size="12" font-weight="500">$50 bills</text>
  <text x="231" y="223" fill="#E2E8F0" font-size="12" font-weight="600" text-anchor="middle">7</text>
  <text x="290" y="223" fill="#E2E8F0" font-size="12" font-weight="500">$350.00</text>

  <!-- $20 -->
  <use href="#denomBillRow" x="12" y="234" width="454" height="32" fill="#1A1D2E"/>
  <text x="28" y="255" fill="#CBD5E1" font-size="12" font-weight="500">$20 bills</text>
  <text x="231" y="255" fill="#E2E8F0" font-size="12" font-weight="600" text-anchor="middle">16</text>
  <text x="290" y="255" fill="#E2E8F0" font-size="12" font-weight="500">$320.00</text>

  <!-- $10 -->
  <use href="#denomBillRow" x="12" y="266" width="454" height="32" fill="#0F1219"/>
  <text x="28" y="287" fill="#CBD5E1" font-size="12" font-weight="500">$10 bills</text>
  <text x="231" y="287" fill="#E2E8F0" font-size="12" font-weight="600" text-anchor="middle">9</text>
  <text x="290" y="287" fill="#E2E8F0" font-size="12" font-weight="500">$90.00</text>

  <!-- $5 -->
  <use href="#denomBillRow" x="12" y="298" width="454" height="32" fill="#1A1D2E"/>
  <text x="28" y="319" fill="#CBD5E1" font-size="12" font-weight="500">$5 bills</text>
  <text x="231" y="319" fill="#E2E8F0" font-size="12" font-weight="600" text-anchor="middle">10</text>
  <text x="290" y="319" fill="#E2E8F0" font-size="12" font-weight="500">$50.00</text>

  <!-- $1 -->
  <use href="#denomBillRow" x="12" y="330" width="454" height="32" fill="#0F1219"/>
  <text x="28" y="351" fill="#CBD5E1" font-size="12" font-weight="500">$1 bills</text>
  <text x="231" y="351" fill="#E2E8F0" font-size="12" font-weight="600" text-anchor="middle">27</text>
  <text x="290" y="351" fill="#E2E8F0" font-size="12" font-weight="500">$27.00</text>

  <!-- Coins section label -->
  <rect x="12" y="366" width="454" height="22" rx="0" fill="#1E2235"/>
  <text x="28" y="381" fill="#F59E0B" font-size="9" font-weight="600" letter-spacing="0.5">COINS</text>

  <!-- Quarters -->
  <use href="#denomCoinRow" x="12" y="390" width="454" height="28" fill="#1A1D2E"/>
  <text x="28" y="409" fill="#94A3B8" font-size="11" font-weight="500">Quarters ($0.25)</text>
  <text x="231" y="409" fill="#E2E8F0" font-size="11" font-weight="600" text-anchor="middle">32</text>
  <text x="290" y="409" fill="#E2E8F0" font-size="11" font-weight="500">$8.00</text>

  <!-- Dimes -->
  <use href="#denomCoinRow" x="12" y="418" width="454" height="28" fill="#0F1219"/>
  <text x="28" y="437" fill="#94A3B8" font-size="11" font-weight="500">Dimes ($0.10)</text>
  <text x="231" y="437" fill="#E2E8F0" font-size="11" font-weight="600" text-anchor="middle">14</text>
  <text x="290" y="437" fill="#E2E8F0" font-size="11" font-weight="500">$1.40</text>

  <!-- Nickels -->
  <use href="#denomCoinRow" x="12" y="446" width="454" height="28" fill="#1A1D2E"/>
  <text x="28" y="465" fill="#94A3B8" font-size="11" font-weight="500">Nickels ($0.05)</text>
  <text x="231" y="465" fill="#E2E8F0" font-size="11" font-weight="600" text-anchor="middle">8</text>
  <text x="290" y="465" fill="#E2E8F0" font-size="11" font-weight="500">$0.40</text>

  <!-- Pennies -->
  <use href="#denomCoinRow" x="12" y="474" width="454" height="28" fill="#0F1219"/>
  <text x="28" y="493" fill="#94A3B8" font-size="11" font-weight="500">Pennies ($0.01)</text>
  <text x="231" y="493" fill="#E2E8F0" font-size="11" font-weight="600" text-anchor="middle">20</text>
  <text x="290" y="493" fill="#E2E8F0" font-size="11" font-weight="500">$0.20</text>

  <!-- Total Counted -->
  <rect x="12" y="510" width="454" height="52" rx="8" fill="#1E2235" filter="url(#cardShadow)"/>
  <text x="28" y="531" fill="#64748B" font-size="10" font-weight="600" letter-spacing="0.5">TOTAL COUNTED</text>
  <text x="28" y="554" fill="#E2E8F0" font-size="24" font-weight="800">$1,247.00</text>

  <!-- Expected vs Actual (Variance) -->
  <!-- Admin: Variance threshold — configurable: max allowed variance before warning -->
  <rect x="12" y="570" width="454" height="56" rx="8" fill="url(#greenGrad)" stroke="#10B981" stroke-width="1" filter="url(#cardShadow)"/>
  <text x="28" y="592" fill="#94A3B8" font-size="10" font-weight="600">EXPECTED CASH</text>
  <text x="28" y="614" fill="#E2E8F0" font-size="20" font-weight="700">$1,238.00</text>
  <text x="300" y="592" fill="#94A3B8" font-size="10" font-weight="600">OVER / SHORT</text>
  <text x="300" y="614" fill="#4ADE80" font-size="20" font-weight="700">+$9.00</text>
  <use href="#adminGear" x="450" y="574" width="14" height="14"/>

  <!-- Over/Short notice -->
  <rect x="12" y="634" width="454" height="44" rx="8" fill="#0A1628" stroke="#1E3A5F" stroke-width="1"/>
  <text x="28" y="654" fill="#60A5FA" font-size="11" font-weight="700">OVER $9.00 &#8212; Variance note recommended</text>
  <text x="28" y="670" fill="#94A3B8" font-size="10">Possible tip jar cash mixed into drawer &#8212; within tolerance</text>

  <!-- Variance note textarea -->
  <text x="12" y="698" fill="#64748B" font-size="9" font-weight="700" letter-spacing="1">VARIANCE NOTE (optional)</text>
  <rect x="12" y="706" width="454" height="48" rx="6" fill="#0C0E1A" stroke="#2A2E45" stroke-width="1"/>
  <text x="24" y="726" fill="#94A3B8" font-size="11">Tip jar cash likely mixed in during rush.</text>
  <text x="24" y="742" fill="#94A3B8" font-size="11">Within $10 tolerance &#8212; no action required.</text>

  <!-- Cash Management: Paid-In / Paid-Out -->
  <!-- Admin: Cash management — configurable: paid-in/paid-out categories, approval workflow -->
  <text x="12" y="778" fill="#64748B" font-size="9" font-weight="700" letter-spacing="1">CASH MANAGEMENT</text>
  <use href="#adminGear" x="138" y="766" width="14" height="14"/>

  <rect x="12" y="786" width="220" height="58" rx="8" fill="url(#cardGrad)" stroke="#1E2235" stroke-width="1" filter="url(#cardShadow)"/>
  <text x="28" y="806" fill="#64748B" font-size="10" font-weight="600">PAID-IN TODAY</text>
  <text x="28" y="832" fill="#22C55E" font-size="20" font-weight="700" filter="url(#glowGreen)">+$45.00</text>

  <rect x="244" y="786" width="222" height="58" rx="8" fill="url(#cardGrad)" stroke="#1E2235" stroke-width="1" filter="url(#cardShadow)"/>
  <text x="260" y="806" fill="#64748B" font-size="10" font-weight="600">PAID-OUT TODAY</text>
  <text x="260" y="832" fill="#EF4444" font-size="20" font-weight="700">-$22.80</text>

  <!-- Admin: Starting drawer — configurable: default starting drawer amount -->
  <rect x="12" y="854" width="454" height="48" rx="8" fill="url(#cardGrad)" stroke="#1E2235" stroke-width="1"/>
  <text x="28" y="875" fill="#64748B" font-size="10" font-weight="600">STARTING DRAWER</text>
  <text x="200" y="875" fill="#94A3B8" font-size="12">$200.00</text>
  <text x="28" y="893" fill="#475569" font-size="10">Leave in drawer for tomorrow:</text>
  <rect x="200" y="882" width="88" height="20" rx="5" fill="#0C0E1A" stroke="#2A2E45" stroke-width="1"/>
  <text x="244" y="896" fill="#E2E8F0" font-size="11" font-weight="600" text-anchor="middle">$200.00</text>
  <use href="#adminGear" x="450" y="858" width="14" height="14"/>

  <!-- Cash to deposit -->
  <rect x="12" y="910" width="454" height="42" rx="8" fill="#0A1628" stroke="#1E3A5F" stroke-width="1"/>
  <text x="28" y="930" fill="#60A5FA" font-size="10" font-weight="700">CASH TO DEPOSIT</text>
  <text x="28" y="944" fill="#60A5FA" font-size="16" font-weight="700">$1,024.80</text>
  <text x="200" y="938" fill="#475569" font-size="10">Total Counted - Leave-In + Paid-Out - Paid-In</text>

  <!-- ================================================================ -->
  <!-- CENTER PANEL: Z-REPORT / DAY SUMMARY (x=479, w=560)             -->
  <!-- ================================================================ -->
  <rect x="479" y="59" width="560" height="965" fill="url(#panelGrad)"/>
  <rect x="1039" y="59" width="1" height="965" fill="#1E2235"/>

  <!-- Panel title -->
  <text x="499" y="90" fill="#E2E8F0" font-size="15" font-weight="700">Z-Report &#8212; Daily Summary</text>
  <text x="499" y="106" fill="#475569" font-size="10">2026-05-29 &#183; Business day closes upon submission</text>

  <!-- Day Summary Stats (4 cards using statCard symbol) -->
  <!-- Admin: stat cards — configurable: which KPIs to display -->
  <use href="#statCard" x="495" y="116" width="128" height="64" filter="url(#cardShadow)"/>
  <text x="511" y="137" fill="#64748B" font-size="9" font-weight="600" letter-spacing="0.5">TOTAL SALES</text>
  <text x="511" y="162" fill="#4ADE80" font-size="18" font-weight="800" filter="url(#glowGreen)">$4,391</text>
  <use href="#adminGear" x="607" y="118" width="14" height="14"/>

  <use href="#statCard" x="631" y="116" width="128" height="64" filter="url(#cardShadow)"/>
  <text x="647" y="137" fill="#64748B" font-size="9" font-weight="600" letter-spacing="0.5">VOIDS</text>
  <text x="647" y="162" fill="#EF4444" font-size="18" font-weight="800">$156</text>

  <use href="#statCard" x="767" y="116" width="128" height="64" filter="url(#cardShadow)"/>
  <text x="783" y="137" fill="#64748B" font-size="9" font-weight="600" letter-spacing="0.5">COMPS</text>
  <text x="783" y="162" fill="#F59E0B" font-size="18" font-weight="800">$52</text>

  <use href="#statCard" x="903" y="116" width="128" height="64" filter="url(#cardShadow)"/>
  <text x="919" y="137" fill="#64748B" font-size="9" font-weight="600" letter-spacing="0.5">DISCOUNTS</text>
  <text x="919" y="162" fill="#F59E0B" font-size="18" font-weight="800">$248</text>

  <!-- Sales Summary Card -->
  <rect x="495" y="192" width="536" height="168" rx="10" fill="#0C0E1A" stroke="#1E2235" stroke-width="1" filter="url(#cardShadow)"/>
  <text x="515" y="217" fill="#64748B" font-size="9" font-weight="700" letter-spacing="1.2">SALES SUMMARY</text>
  <rect x="515" y="225" width="496" height="1" fill="#1E2235"/>

  <text x="515" y="246" fill="#CBD5E1" font-size="12">Gross Sales</text>
  <text x="999" y="246" fill="#E2E8F0" font-size="12" font-weight="600" text-anchor="end">$4,847.00</text>
  <text x="515" y="266" fill="#CBD5E1" font-size="12">Refunds / Voids</text>
  <text x="999" y="266" fill="#EF4444" font-size="12" font-weight="500" text-anchor="end">-$156.00</text>
  <text x="515" y="286" fill="#CBD5E1" font-size="12">Discounts Applied</text>
  <text x="999" y="286" fill="#F59E0B" font-size="12" font-weight="500" text-anchor="end">-$248.00</text>
  <text x="515" y="306" fill="#CBD5E1" font-size="12">Comps</text>
  <text x="999" y="306" fill="#F59E0B" font-size="12" font-weight="500" text-anchor="end">-$52.00</text>

  <rect x="515" y="314" width="496" height="1" fill="#2A2E45"/>
  <text x="515" y="338" fill="#E2E8F0" font-size="14" font-weight="700">Net Sales</text>
  <text x="999" y="338" fill="#4ADE80" font-size="14" font-weight="800" text-anchor="end">$4,391.00</text>
  <text x="515" y="354" fill="#475569" font-size="10">vs yesterday: <tspan fill="#4ADE80" font-weight="600">+$289 &#8593; 7.0%</tspan></text>

  <!-- Tender Breakdown Card -->
  <!-- Admin: Tender types — configurable: accepted payment methods -->
  <rect x="495" y="372" width="536" height="178" rx="10" fill="#0C0E1A" stroke="#1E2235" stroke-width="1" filter="url(#cardShadow)"/>
  <text x="515" y="397" fill="#64748B" font-size="9" font-weight="700" letter-spacing="1.2">TENDER BREAKDOWN</text>
  <use href="#adminGear" x="640" y="386" width="14" height="14"/>
  <rect x="515" y="405" width="496" height="1" fill="#1E2235"/>

  <text x="515" y="426" fill="#CBD5E1" font-size="12">Cash</text>
  <text x="999" y="426" fill="#E2E8F0" font-size="12" font-weight="500" text-anchor="end">$1,238.00</text>
  <text x="515" y="446" fill="#CBD5E1" font-size="12">Credit / Debit (Stripe)</text>
  <text x="999" y="446" fill="#E2E8F0" font-size="12" font-weight="500" text-anchor="end">$2,614.00</text>
  <text x="515" y="466" fill="#CBD5E1" font-size="12">Gift Cards</text>
  <text x="999" y="466" fill="#E2E8F0" font-size="12" font-weight="500" text-anchor="end">$312.00</text>
  <text x="515" y="486" fill="#CBD5E1" font-size="12">Mobile Pay (Apple / Google)</text>
  <text x="999" y="486" fill="#E2E8F0" font-size="12" font-weight="500" text-anchor="end">$227.00</text>

  <rect x="515" y="494" width="496" height="1" fill="#2A2E45"/>
  <text x="515" y="516" fill="#E2E8F0" font-size="13" font-weight="700">Total Receipts</text>
  <text x="999" y="516" fill="#4ADE80" font-size="13" font-weight="700" text-anchor="end">$4,391.00</text>
  <text x="515" y="534" fill="#475569" font-size="10">Cash over: +$9.00 &#183; Stripe batch: pi_4abc... (pending)</text>

  <!-- Tax Collected Card -->
  <!-- Admin: Tax rates — configurable: tax jurisdictions and rates -->
  <rect x="495" y="562" width="536" height="120" rx="10" fill="#0C0E1A" stroke="#1E2235" stroke-width="1" filter="url(#cardShadow)"/>
  <text x="515" y="587" fill="#64748B" font-size="9" font-weight="700" letter-spacing="1.2">TAX COLLECTED</text>
  <use href="#adminGear" x="610" y="576" width="14" height="14"/>
  <rect x="515" y="595" width="496" height="1" fill="#1E2235"/>

  <text x="515" y="616" fill="#94A3B8" font-size="11">CA State (6.25%)</text>
  <text x="999" y="616" fill="#CBD5E1" font-size="11" font-weight="500" text-anchor="end">$274.44</text>
  <text x="515" y="636" fill="#94A3B8" font-size="11">LA County (1.00%)</text>
  <text x="999" y="636" fill="#CBD5E1" font-size="11" font-weight="500" text-anchor="end">$43.91</text>
  <text x="515" y="656" fill="#94A3B8" font-size="11">Alcohol Excise (1.25%)</text>
  <text x="999" y="656" fill="#CBD5E1" font-size="11" font-weight="500" text-anchor="end">$54.89</text>
  <rect x="515" y="664" width="496" height="1" fill="#2A2E45"/>
  <text x="515" y="678" fill="#E2E8F0" font-size="12" font-weight="700">Total Tax</text>
  <text x="999" y="678" fill="#E2E8F0" font-size="12" font-weight="700" text-anchor="end">$373.24</text>

  <!-- KPI Row: Tips / Orders / Covers / Avg Check -->
  <use href="#kpiCard" x="495" y="694" width="128" height="68" filter="url(#cardShadow)"/>
  <text x="511" y="715" fill="#64748B" font-size="9" font-weight="600" letter-spacing="0.5">TIPS</text>
  <text x="511" y="744" fill="#F59E0B" font-size="20" font-weight="800" filter="url(#glowAmber)">$592</text>

  <use href="#kpiCard" x="631" y="694" width="128" height="68" filter="url(#cardShadow)"/>
  <text x="647" y="715" fill="#64748B" font-size="9" font-weight="600" letter-spacing="0.5">ORDERS</text>
  <text x="647" y="744" fill="#E2E8F0" font-size="20" font-weight="800">127</text>

  <use href="#kpiCard" x="767" y="694" width="128" height="68" filter="url(#cardShadow)"/>
  <text x="783" y="715" fill="#64748B" font-size="9" font-weight="600" letter-spacing="0.5">COVERS</text>
  <text x="783" y="744" fill="#E2E8F0" font-size="20" font-weight="800">312</text>

  <use href="#kpiCard" x="903" y="694" width="128" height="68" filter="url(#cardShadow)"/>
  <text x="919" y="715" fill="#64748B" font-size="9" font-weight="600" letter-spacing="0.5">AVG CHECK</text>
  <text x="919" y="744" fill="#E2E8F0" font-size="20" font-weight="800">$38.19</text>

  <!-- Tip Pool Distribution Card -->
  <!-- Admin: Tip pool — configurable: tip share model, pool participants, percentage rules -->
  <rect x="495" y="774" width="536" height="170" rx="10" fill="#0C0E1A" stroke="#1E2235" stroke-width="1" filter="url(#cardShadow)"/>
  <text x="515" y="799" fill="#64748B" font-size="9" font-weight="700" letter-spacing="1.2">TIP POOL DISTRIBUTION</text>
  <text x="999" y="799" fill="#475569" font-size="9" text-anchor="end">Tip Share model &#183; FOH pool</text>
  <use href="#adminGear" x="672" y="788" width="14" height="14"/>
  <rect x="515" y="805" width="496" height="1" fill="#1E2235"/>

  <!-- Table header -->
  <text x="515" y="824" fill="#475569" font-size="9" font-weight="600" letter-spacing="0.5">EMPLOYEE</text>
  <text x="720" y="824" fill="#475569" font-size="9" font-weight="600" letter-spacing="0.5">ROLE</text>
  <text x="830" y="824" fill="#475569" font-size="9" font-weight="600" letter-spacing="0.5">HOURS</text>
  <text x="910" y="824" fill="#475569" font-size="9" font-weight="600" letter-spacing="0.5">SHARE %</text>
  <text x="999" y="824" fill="#475569" font-size="9" font-weight="600" letter-spacing="0.5" text-anchor="end">PAYOUT</text>

  <!-- Tip pool row: John S. -->
  <text x="515" y="846" fill="#CBD5E1" font-size="11">John S.</text>
  <text x="720" y="846" fill="#94A3B8" font-size="11">Server</text>
  <text x="830" y="846" fill="#94A3B8" font-size="11">8.0h</text>
  <text x="910" y="846" fill="#94A3B8" font-size="11">53%</text>
  <text x="999" y="846" fill="#4ADE80" font-size="11" font-weight="600" text-anchor="end">$312.00</text>

  <!-- Tip pool row: Mike R. -->
  <text x="515" y="866" fill="#CBD5E1" font-size="11">Mike R.</text>
  <text x="720" y="866" fill="#94A3B8" font-size="11">Bartender</text>
  <text x="830" y="866" fill="#94A3B8" font-size="11">6.0h</text>
  <text x="910" y="866" fill="#94A3B8" font-size="11">31%</text>
  <text x="999" y="866" fill="#4ADE80" font-size="11" font-weight="600" text-anchor="end">$186.00</text>

  <!-- Tip pool row: Maria G. -->
  <text x="515" y="886" fill="#CBD5E1" font-size="11">Maria G.</text>
  <text x="720" y="886" fill="#94A3B8" font-size="11">Cashier</text>
  <text x="830" y="886" fill="#94A3B8" font-size="11">4.0h</text>
  <text x="910" y="886" fill="#94A3B8" font-size="11">16%</text>
  <text x="999" y="886" fill="#4ADE80" font-size="11" font-weight="600" text-anchor="end">$94.00</text>

  <!-- Tip pool row spacer (3 employees only) -->
  <text x="515" y="906" fill="#475569" font-size="11"></text>

  <rect x="515" y="914" width="496" height="1" fill="#2A2E45"/>
  <text x="515" y="934" fill="#E2E8F0" font-size="12" font-weight="700">Total Distributed</text>
  <text x="999" y="934" fill="#F59E0B" font-size="12" font-weight="700" text-anchor="end">$592.00</text>

  <!-- Z-Report Preview mini -->
  <rect x="495" y="952" width="536" height="28" rx="6" fill="#1A1D2E" stroke="#1E2235" stroke-width="1"/>
  <text x="515" y="971" fill="#475569" font-size="10">Z-Report #149 ready &#183; 127 orders &#183; 312 covers &#183; cash +$9.00 over</text>

  <!-- ================================================================ -->
  <!-- RIGHT PANEL: SERVER + CATEGORIES + ACTIONS (x=1040, w=326)       -->
  <!-- ================================================================ -->
  <rect x="1040" y="59" width="326" height="965" fill="#0F1219"/>

  <!-- By Server -->
  <text x="1060" y="90" fill="#E2E8F0" font-size="14" font-weight="700">By Server</text>

  <rect x="1052" y="100" width="302" height="28" rx="6" fill="#1E2235"/>
  <text x="1068" y="118" fill="#475569" font-size="9" font-weight="700" letter-spacing="1">SERVER</text>
  <text x="1220" y="118" fill="#475569" font-size="9" font-weight="700" letter-spacing="1">SALES</text>
  <text x="1330" y="118" fill="#475569" font-size="9" font-weight="700" letter-spacing="1" text-anchor="end">TIPS</text>

  <rect x="1052" y="130" width="302" height="30" fill="#1A1D2E"/>
  <text x="1068" y="150" fill="#CBD5E1" font-size="11">John S.</text>
  <text x="1220" y="150" fill="#E2E8F0" font-size="11" font-weight="500">$1,842</text>
  <text x="1330" y="150" fill="#4ADE80" font-size="11" font-weight="500" text-anchor="end">$312</text>

  <rect x="1052" y="160" width="302" height="30" fill="#0F1219"/>
  <text x="1068" y="180" fill="#CBD5E1" font-size="11">Mike R. (Bar)</text>
  <text x="1220" y="180" fill="#E2E8F0" font-size="11" font-weight="500">$1,204</text>
  <text x="1330" y="180" fill="#4ADE80" font-size="11" font-weight="500" text-anchor="end">$186</text>

  <rect x="1052" y="190" width="302" height="30" fill="#1A1D2E"/>
  <text x="1068" y="210" fill="#CBD5E1" font-size="11">Maria G.</text>
  <text x="1220" y="210" fill="#E2E8F0" font-size="11" font-weight="500">$948</text>
  <text x="1330" y="210" fill="#4ADE80" font-size="11" font-weight="500" text-anchor="end">$94</text>

  <rect x="1052" y="220" width="302" height="30" fill="#0F1219"/>
  <text x="1068" y="240" fill="#CBD5E1" font-size="11">Lisa W. (Host)</text>
  <text x="1220" y="240" fill="#64748B" font-size="11">&#8212;</text>
  <text x="1330" y="240" fill="#64748B" font-size="11" text-anchor="end">&#8212;</text>

  <!-- By Category -->
  <!-- Admin: Categories — configurable: menu categories and grouping -->
  <text x="1060" y="276" fill="#E2E8F0" font-size="14" font-weight="700">By Category</text>
  <use href="#adminGear" x="1168" y="264" width="14" height="14"/>

  <rect x="1052" y="286" width="302" height="28" rx="6" fill="#1E2235"/>
  <text x="1068" y="304" fill="#475569" font-size="9" font-weight="700" letter-spacing="1">CATEGORY</text>
  <text x="1330" y="304" fill="#475569" font-size="9" font-weight="700" letter-spacing="1" text-anchor="end">SALES</text>

  <rect x="1052" y="316" width="302" height="28" fill="#1A1D2E"/>
  <text x="1068" y="335" fill="#CBD5E1" font-size="11">Entrees</text>
  <text x="1330" y="335" fill="#E2E8F0" font-size="11" font-weight="500" text-anchor="end">$1,962</text>

  <rect x="1052" y="344" width="302" height="28" fill="#0F1219"/>
  <text x="1068" y="363" fill="#CBD5E1" font-size="11">Alcohol</text>
  <text x="1330" y="363" fill="#E2E8F0" font-size="11" font-weight="500" text-anchor="end">$1,038</text>

  <rect x="1052" y="372" width="302" height="28" fill="#1A1D2E"/>
  <text x="1068" y="391" fill="#CBD5E1" font-size="11">Appetizers</text>
  <text x="1330" y="391" fill="#E2E8F0" font-size="11" font-weight="500" text-anchor="end">$684</text>

  <rect x="1052" y="400" width="302" height="28" fill="#0F1219"/>
  <text x="1068" y="419" fill="#CBD5E1" font-size="11">Drinks (non-alc)</text>
  <text x="1330" y="419" fill="#E2E8F0" font-size="11" font-weight="500" text-anchor="end">$487</text>

  <rect x="1052" y="428" width="302" height="28" fill="#1A1D2E"/>
  <text x="1068" y="447" fill="#CBD5E1" font-size="11">Desserts</text>
  <text x="1330" y="447" fill="#E2E8F0" font-size="11" font-weight="500" text-anchor="end">$214</text>

  <rect x="1052" y="456" width="302" height="28" fill="#0F1219"/>
  <text x="1068" y="475" fill="#CBD5E1" font-size="11">Burgers / Sides</text>
  <text x="1330" y="475" fill="#E2E8F0" font-size="11" font-weight="500" text-anchor="end">$462</text>

  <!-- Voids & Comps Log -->
  <!-- Admin: Void/comp reasons — configurable: reason codes, approval requirements -->
  <text x="1060" y="512" fill="#E2E8F0" font-size="13" font-weight="700">Voids &amp; Comps</text>
  <use href="#adminGear" x="1168" y="500" width="14" height="14"/>

  <rect x="1052" y="522" width="302" height="28" rx="6" fill="#1E2235"/>
  <text x="1068" y="540" fill="#475569" font-size="9" font-weight="700" letter-spacing="1">ITEM</text>
  <text x="1230" y="540" fill="#475569" font-size="9" font-weight="700" letter-spacing="1">REASON</text>
  <text x="1330" y="540" fill="#475569" font-size="9" font-weight="700" letter-spacing="1" text-anchor="end">AMT</text>

  <rect x="1052" y="552" width="302" height="28" fill="#1A1D2E"/>
  <text x="1068" y="571" fill="#CBD5E1" font-size="10">NY Strip (T4)</text>
  <text x="1230" y="571" fill="#F59E0B" font-size="9" font-weight="500">Complaint</text>
  <text x="1330" y="571" fill="#EF4444" font-size="10" font-weight="500" text-anchor="end">$36</text>

  <rect x="1052" y="580" width="302" height="28" fill="#0F1219"/>
  <text x="1068" y="599" fill="#CBD5E1" font-size="10">Salmon (T9)</text>
  <text x="1230" y="599" fill="#F59E0B" font-size="9" font-weight="500">Wrong order</text>
  <text x="1330" y="599" fill="#EF4444" font-size="10" font-weight="500" text-anchor="end">$28</text>

  <rect x="1052" y="608" width="302" height="28" fill="#1A1D2E"/>
  <text x="1068" y="627" fill="#CBD5E1" font-size="10">Ramen + Beer</text>
  <text x="1230" y="627" fill="#94A3B8" font-size="9" font-weight="500">Comp - VIP</text>
  <text x="1330" y="627" fill="#EF4444" font-size="10" font-weight="500" text-anchor="end">$52</text>

  <rect x="1052" y="636" width="302" height="28" fill="#0F1219"/>
  <text x="1068" y="655" fill="#CBD5E1" font-size="10">BBQ Ribs (T7)</text>
  <text x="1230" y="655" fill="#F59E0B" font-size="9" font-weight="500">Overcooked</text>
  <text x="1330" y="655" fill="#EF4444" font-size="10" font-weight="500" text-anchor="end">$24</text>

  <rect x="1052" y="664" width="302" height="28" fill="#1A1D2E"/>
  <text x="1068" y="683" fill="#CBD5E1" font-size="10">Craft IPA x3</text>
  <text x="1230" y="683" fill="#94A3B8" font-size="9" font-weight="500">Spill</text>
  <text x="1330" y="683" fill="#EF4444" font-size="10" font-weight="500" text-anchor="end">$24</text>

  <rect x="1052" y="692" width="302" height="28" fill="#0F1219"/>
  <text x="1068" y="711" fill="#CBD5E1" font-size="10">Fish &amp; Chips x2</text>
  <text x="1230" y="711" fill="#94A3B8" font-size="9" font-weight="500">Void - dup</text>
  <text x="1330" y="711" fill="#EF4444" font-size="10" font-weight="500" text-anchor="end">$44</text>

  <!-- Void/comp totals -->
  <rect x="1052" y="724" width="302" height="24" fill="#1E2235"/>
  <text x="1068" y="741" fill="#94A3B8" font-size="10" font-weight="600">Total Voids/Comps</text>
  <text x="1330" y="741" fill="#EF4444" font-size="10" font-weight="700" text-anchor="end">$208.00</text>

  <!-- GL Journal Export -->
  <!-- Admin: GL export — configurable: GL account mapping, export targets (CSV, QBO) -->
  <text x="1060" y="776" fill="#E2E8F0" font-size="13" font-weight="700">GL Journal Export</text>
  <use href="#adminGear" x="1198" y="764" width="14" height="14"/>

  <use href="#glExportBtn" x="1052" y="786" width="146" height="38"/>
  <text x="1125" y="810" fill="#60A5FA" font-size="11" font-weight="600" text-anchor="middle">Export CSV</text>

  <use href="#glExportBtn" x="1206" y="786" width="148" height="38"/>
  <text x="1280" y="810" fill="#60A5FA" font-size="11" font-weight="600" text-anchor="middle">Export to QBO</text>

  <rect x="1052" y="830" width="302" height="32" rx="6" fill="#0A1628" stroke="#1E3A5F" stroke-width="1"/>
  <text x="1068" y="851" fill="#60A5FA" font-size="10">Accounts: 4000 Revenue &#183; 2100 Sales Tax &#183; 1000 Cash</text>

  <!-- Hourly Sales Mini-Bar Chart -->
  <text x="1060" y="886" fill="#E2E8F0" font-size="12" font-weight="700">Hourly Sales</text>

  <!-- Bar chart area -->
  <rect x="1052" y="894" width="302" height="58" rx="6" fill="#0C0E1A" stroke="#1E2235" stroke-width="1"/>
  <!-- Bars (simplified hourly 10am-9pm) -->
  <rect x="1064" y="936" width="18" height="8" rx="2" fill="#2A2E45"/>
  <rect x="1088" y="930" width="18" height="14" rx="2" fill="#2A2E45"/>
  <rect x="1112" y="912" width="18" height="32" rx="2" fill="#F59E0B"/>
  <rect x="1136" y="918" width="18" height="26" rx="2" fill="#F59E0B" opacity="0.7"/>
  <rect x="1160" y="930" width="18" height="14" rx="2" fill="#2A2E45"/>
  <rect x="1184" y="934" width="18" height="10" rx="2" fill="#2A2E45"/>
  <rect x="1208" y="920" width="18" height="24" rx="2" fill="#F59E0B" opacity="0.6"/>
  <rect x="1232" y="906" width="18" height="38" rx="2" fill="#F59E0B"/>
  <rect x="1256" y="910" width="18" height="34" rx="2" fill="#F59E0B" opacity="0.8"/>
  <rect x="1280" y="920" width="18" height="24" rx="2" fill="#F59E0B" opacity="0.6"/>
  <rect x="1304" y="932" width="18" height="12" rx="2" fill="#2A2E45"/>
  <!-- Labels -->
  <text x="1064" y="948" fill="#475569" font-size="7">10</text>
  <text x="1112" y="948" fill="#475569" font-size="7">12</text>
  <text x="1160" y="948" fill="#475569" font-size="7">2</text>
  <text x="1208" y="948" fill="#475569" font-size="7">4</text>
  <text x="1256" y="948" fill="#475569" font-size="7">6</text>
  <text x="1304" y="948" fill="#475569" font-size="7">9</text>

  <!-- ================================================================ -->
  <!-- CLOSE REGISTER BUTTON (prominent, gated)                         -->
  <!-- ================================================================ -->
  <!-- Admin: Close register — configurable: manager PIN requirement, undo policy -->
  <rect x="1052" y="960" width="302" height="52" rx="10" fill="url(#closeGrad)" filter="url(#btnShadow)"/>
  <text x="1203" y="984" fill="#FFFFFF" font-size="15" font-weight="800" text-anchor="middle">Close Register</text>
  <text x="1203" y="1000" fill="#FCA5A5" font-size="10" font-weight="500" text-anchor="middle">Requires manager PIN &#183; Cannot be undone</text>
  <use href="#adminGear" x="1340" y="962" width="14" height="14"/>

  <!-- ================================================================ -->
  <!-- FOOTER                                                           -->
  <!-- ================================================================ -->
  <text x="683" y="1018" fill="#475569" font-size="10" text-anchor="middle">Synalux POS &#183; End of Day &#183; 2026-05-29 10:05 PM &#8212; cash count &#183; Z-report &#183; variance tracking &#183; tip pool &#183; GL export &#183; Stripe batch</text>

</svg>