<svg role="img" aria-labelledby="title-ipad_00c_combined_roles-svg" xmlns="http://www.w3.org/2000/svg" viewBox="0 0 1366 1024" font-family="-apple-system,BlinkMacSystemFont,'SF Pro Display','Segoe UI',sans-serif">
  <title id="title-ipad_00c_combined_roles-svg">Synalux POS — 00c comUined roles</title>
  <desc>Synalux POS mockup screen for 00c comUined roles. All UI elements admin-configurable.</desc>
  <defs>
    <linearGradient id="bgGrad" x1="0" y1="0" x2="1" y2="1">
      <stop offset="0%" stop-color="#0C0E1A"/><stop offset="100%" stop-color="#080A14"/>
    </linearGradient>
    <linearGradient id="cardGrad" x1="0" y1="0" x2="0" y2="1">
      <stop offset="0%" stop-color="#1A1D2E"/><stop offset="100%" stop-color="#161930"/>
    </linearGradient>
    <linearGradient id="amberGrad" x1="0" y1="0" x2="0" y2="1">
      <stop offset="0%" stop-color="#FBBF24"/><stop offset="100%" stop-color="#F59E0B"/>
    </linearGradient>
    <filter id="cardShadow"><feDropShadow dx="0" dy="2" stdDeviation="6" flood-color="#000" flood-opacity="0.35"/></filter>
    <filter id="glow"><feDropShadow dx="0" dy="0" stdDeviation="4" flood-color="#F59E0B" flood-opacity="0.2"/></filter>

    <symbol id="adminGear" viewBox="0 0 14 14">
      <circle cx="7" cy="7" r="2.5" fill="none" stroke="#F59E0B" stroke-width="0.8" opacity="0.3"/>
      <path d="M7 1v1.5M7 11.5V13M1 7h1.5M11.5 7H13M2.8 2.8l1 1M10.2 10.2l1 1M2.8 11.2l1-1M10.2 3.8l1-1" stroke="#F59E0B" stroke-width="0.6" stroke-linecap="round" opacity="0.3"/>
    </symbol>

    <!-- Flow step -->
    <symbol id="step" viewBox="0 0 130 34">
      <rect width="130" height="34" rx="6" fill="#161930" stroke="#2A2E45" stroke-width="0.5"/>
    </symbol>

    <!-- Role switch indicator -->
    <symbol id="roleSwitch" viewBox="0 0 24 24">
      <circle cx="12" cy="12" r="11" fill="#1A1D2E" stroke="#F59E0B" stroke-width="1.5"/>
      <path d="M8 10l4-4 4 4M8 14l4 4 4-4" fill="none" stroke="#F59E0B" stroke-width="1.5" stroke-linecap="round" stroke-linejoin="round"/>
    </symbol>

    <!-- Arrow -->
    <symbol id="arrow" viewBox="0 0 16 10">
      <path d="M0 5h12l-3-3M12 5l-3 3" fill="none" stroke="#475569" stroke-width="1.2" stroke-linecap="round" stroke-linejoin="round"/>
    </symbol>

    <!-- Permission dot -->
    <symbol id="permDot" viewBox="0 0 10 10">
      <circle cx="5" cy="5" r="4"/>
    </symbol>
  </defs>

  <rect width="1366" height="1024" fill="url(#bgGrad)"/>

  <!-- ═══════════ HEADER ═══════════ -->
  <rect x="0" y="0" width="1366" height="50" fill="#111425"/>
  <rect x="0" y="50" width="1366" height="1" fill="#1E2235"/>
  <text x="20" y="32" fill="#F59E0B" font-size="16" font-weight="800">synalux</text>
  <text x="88" y="32" fill="#475569" font-size="16">POS</text>
  <text x="140" y="32" fill="#2A2E45" font-size="16">|</text>
  <text x="160" y="32" fill="#E2E8F0" font-size="15" font-weight="700">Combined Role Tests — Multi-Role Staff Workflows</text>
  <text x="1200" y="24" fill="#475569" font-size="10">DEMO ACCOUNT</text>
  <text x="1200" y="40" fill="#94A3B8" font-size="12" font-weight="600">Riverside Grill</text>

  <!-- ═══════════ TEST 1: Server + Bartender (John S.) ═══════════ -->
  <!-- admin: Settings > Staff > John S. > Assigned Roles: Server, Bartender -->
  <rect x="16" y="62" width="1334" height="220" rx="12" fill="url(#cardGrad)" filter="url(#cardShadow)" stroke="#1E2235" stroke-width="0.5"/>
  <rect x="16" y="62" width="4" height="220" rx="2" fill="#4ADE80"/>

  <text x="36" y="86" fill="#475569" font-size="9" font-weight="700" letter-spacing="1.5">TEST 1</text>
  <text x="80" y="86" fill="#E2E8F0" font-size="12" font-weight="700">Server + Bartender</text>
  <use href="#adminGear" x="220" y="76" width="10" height="10"/>
  <circle cx="50" cy="108" r="18" fill="#1E3A5F"/>
  <text x="50" y="114" fill="#60A5FA" font-size="12" font-weight="700" text-anchor="middle">JS</text>
  <text x="76" y="104" fill="#E2E8F0" font-size="11" font-weight="600">John S.</text>
  <text x="76" y="118" fill="#475569" font-size="9">PIN: 1234 · Shift: 2 PM — 10 PM</text>
  <use href="#permDot" x="76" y="124" width="8" height="8" fill="#4ADE80"/>
  <text x="88" y="132" fill="#4ADE80" font-size="8">Server</text>
  <use href="#permDot" x="120" y="124" width="8" height="8" fill="#A78BFA"/>
  <text x="132" y="132" fill="#A78BFA" font-size="8">Bartender</text>

  <!-- Timeline -->
  <text x="36" y="158" fill="#475569" font-size="8" font-weight="700" letter-spacing="1">WORKFLOW</text>

  <!-- 2:00 PIN → Role Select (Server) → Register → T4 Order → Tables → T7 Order -->
  <use href="#step" x="36" y="166" width="60" height="28"/>
  <text x="66" y="184" fill="#F59E0B" font-size="8" font-weight="600" text-anchor="middle">2:00 PIN</text>
  <use href="#arrow" x="100" y="176" width="12" height="8"/>

  <use href="#step" x="116" y="166" width="80" height="28"/>
  <text x="156" y="184" fill="#4ADE80" font-size="8" font-weight="500" text-anchor="middle">Pick: Server</text>
  <use href="#arrow" x="200" y="176" width="12" height="8"/>

  <use href="#step" x="216" y="166" width="68" height="28"/>
  <text x="250" y="184" fill="#E2E8F0" font-size="8" font-weight="500" text-anchor="middle">Register</text>
  <use href="#arrow" x="288" y="176" width="12" height="8"/>

  <use href="#step" x="304" y="166" width="90" height="28"/>
  <text x="349" y="184" fill="#E2E8F0" font-size="8" font-weight="500" text-anchor="middle">T4: 2 guests DI</text>
  <use href="#arrow" x="398" y="176" width="12" height="8"/>

  <use href="#step" x="414" y="166" width="68" height="28"/>
  <text x="448" y="184" fill="#E2E8F0" font-size="8" font-weight="500" text-anchor="middle">Tables</text>
  <use href="#arrow" x="486" y="176" width="12" height="8"/>

  <use href="#step" x="502" y="166" width="90" height="28"/>
  <text x="547" y="184" fill="#E2E8F0" font-size="8" font-weight="500" text-anchor="middle">T7: 4 guests DI</text>
  <use href="#arrow" x="596" y="176" width="12" height="8"/>

  <use href="#step" x="612" y="166" width="68" height="28"/>
  <text x="646" y="184" fill="#E2E8F0" font-size="8" font-weight="500" text-anchor="middle">Card Pay</text>
  <use href="#arrow" x="684" y="176" width="12" height="8"/>

  <use href="#step" x="700" y="166" width="68" height="28"/>
  <text x="734" y="184" fill="#E2E8F0" font-size="8" font-weight="500" text-anchor="middle">Split 4-way</text>

  <!-- 6:00 PM — ROLE SWITCH to Bartender -->
  <use href="#roleSwitch" x="780" y="168" width="24" height="24"/>
  <text x="810" y="178" fill="#F59E0B" font-size="8" font-weight="700">6 PM</text>
  <text x="810" y="190" fill="#F59E0B" font-size="7">SWITCH</text>

  <use href="#step" x="850" y="166" width="80" height="28"/>
  <text x="890" y="184" fill="#A78BFA" font-size="8" font-weight="600" text-anchor="middle">Bar Register</text>
  <use href="#arrow" x="934" y="176" width="12" height="8"/>

  <use href="#step" x="950" y="166" width="70" height="28"/>
  <text x="985" y="184" fill="#A78BFA" font-size="8" font-weight="500" text-anchor="middle">Open Tab</text>
  <use href="#arrow" x="1024" y="176" width="12" height="8"/>

  <use href="#step" x="1040" y="166" width="70" height="28"/>
  <text x="1075" y="184" fill="#F59E0B" font-size="8" font-weight="500" text-anchor="middle">Age Verify</text>
  <use href="#arrow" x="1114" y="176" width="12" height="8"/>

  <use href="#step" x="1130" y="166" width="70" height="28"/>
  <text x="1165" y="184" fill="#A78BFA" font-size="8" font-weight="500" text-anchor="middle">Close Tab</text>
  <use href="#arrow" x="1204" y="176" width="12" height="8"/>

  <use href="#step" x="1220" y="166" width="70" height="28"/>
  <text x="1255" y="184" fill="#A78BFA" font-size="8" font-weight="500" text-anchor="middle">Wallet Pay</text>

  <!-- Key test assertions -->
  <text x="36" y="214" fill="#475569" font-size="8" font-weight="700" letter-spacing="1">ASSERTIONS</text>
  <text x="36" y="230" fill="#4ADE80" font-size="9">Server screens accessible 2-6 PM</text>
  <text x="260" y="230" fill="#A78BFA" font-size="9">Bar Register accessible 6-10 PM</text>
  <text x="480" y="230" fill="#F59E0B" font-size="9">Role switch preserves open orders</text>
  <text x="720" y="230" fill="#94A3B8" font-size="9">Tip pool splits between both roles by hours worked</text>
  <text x="1050" y="230" fill="#94A3B8" font-size="9">Single clock-in, single clock-out</text>

  <!-- ═══════════ TEST 2: Host + Cashier (Lisa W.) ═══════════ -->
  <rect x="16" y="294" width="1334" height="200" rx="12" fill="url(#cardGrad)" filter="url(#cardShadow)" stroke="#1E2235" stroke-width="0.5"/>
  <rect x="16" y="294" width="4" height="200" rx="2" fill="#60A5FA"/>

  <text x="36" y="318" fill="#475569" font-size="9" font-weight="700" letter-spacing="1.5">TEST 2</text>
  <text x="80" y="318" fill="#E2E8F0" font-size="12" font-weight="700">Host + Cashier</text>
  <use href="#adminGear" x="200" y="308" width="10" height="10"/>
  <circle cx="50" cy="340" r="18" fill="#0A1A2D"/>
  <text x="50" y="346" fill="#60A5FA" font-size="12" font-weight="700" text-anchor="middle">LW</text>
  <text x="76" y="336" fill="#E2E8F0" font-size="11" font-weight="600">Lisa W.</text>
  <text x="76" y="350" fill="#475569" font-size="9">PIN: 5678 · Shift: 11 AM — 9 PM</text>
  <use href="#permDot" x="76" y="356" width="8" height="8" fill="#60A5FA"/>
  <text x="88" y="364" fill="#60A5FA" font-size="8">Host</text>
  <use href="#permDot" x="112" y="356" width="8" height="8" fill="#4ADE80"/>
  <text x="124" y="364" fill="#4ADE80" font-size="8">Cashier</text>

  <text x="36" y="388" fill="#475569" font-size="8" font-weight="700" letter-spacing="1">WORKFLOW</text>

  <!-- Host mode 11 AM — 2 PM -->
  <use href="#step" x="36" y="396" width="60" height="28"/>
  <text x="66" y="414" fill="#F59E0B" font-size="8" font-weight="600" text-anchor="middle">11 AM PIN</text>
  <use href="#arrow" x="100" y="406" width="12" height="8"/>

  <use href="#step" x="116" y="396" width="70" height="28"/>
  <text x="151" y="414" fill="#60A5FA" font-size="8" font-weight="600" text-anchor="middle">Pick: Host</text>
  <use href="#arrow" x="190" y="406" width="12" height="8"/>

  <use href="#step" x="206" y="396" width="68" height="28"/>
  <text x="240" y="414" fill="#60A5FA" font-size="8" font-weight="500" text-anchor="middle">Tables</text>
  <use href="#arrow" x="278" y="406" width="12" height="8"/>

  <use href="#step" x="294" y="396" width="86" height="28"/>
  <text x="337" y="414" fill="#60A5FA" font-size="8" font-weight="500" text-anchor="middle">Seat Garcia (4)</text>
  <use href="#arrow" x="384" y="406" width="12" height="8"/>

  <use href="#step" x="400" y="396" width="80" height="28"/>
  <text x="440" y="414" fill="#60A5FA" font-size="8" font-weight="500" text-anchor="middle">Add Waitlist</text>
  <use href="#arrow" x="484" y="406" width="12" height="8"/>

  <use href="#step" x="500" y="396" width="86" height="28"/>
  <text x="543" y="414" fill="#60A5FA" font-size="8" font-weight="500" text-anchor="middle">Reservations</text>
  <use href="#arrow" x="590" y="406" width="12" height="8"/>

  <use href="#step" x="606" y="396" width="80" height="28"/>
  <text x="646" y="414" fill="#60A5FA" font-size="8" font-weight="500" text-anchor="middle">Table Merge</text>

  <!-- 2 PM — ROLE SWITCH to Cashier -->
  <use href="#roleSwitch" x="700" y="398" width="24" height="24"/>
  <text x="730" y="408" fill="#F59E0B" font-size="8" font-weight="700">2 PM</text>
  <text x="730" y="420" fill="#F59E0B" font-size="7">SWITCH</text>

  <use href="#step" x="770" y="396" width="68" height="28"/>
  <text x="804" y="414" fill="#4ADE80" font-size="8" font-weight="600" text-anchor="middle">Register</text>
  <use href="#arrow" x="842" y="406" width="12" height="8"/>

  <use href="#step" x="858" y="396" width="80" height="28"/>
  <text x="898" y="414" fill="#4ADE80" font-size="8" font-weight="500" text-anchor="middle">Ring Orders</text>
  <use href="#arrow" x="942" y="406" width="12" height="8"/>

  <use href="#step" x="958" y="396" width="68" height="28"/>
  <text x="992" y="414" fill="#4ADE80" font-size="8" font-weight="500" text-anchor="middle">Card Pay</text>
  <use href="#arrow" x="1030" y="406" width="12" height="8"/>

  <use href="#step" x="1046" y="396" width="68" height="28"/>
  <text x="1080" y="414" fill="#4ADE80" font-size="8" font-weight="500" text-anchor="middle">Cash Pay</text>
  <use href="#arrow" x="1118" y="406" width="12" height="8"/>

  <use href="#step" x="1134" y="396" width="70" height="28"/>
  <text x="1169" y="414" fill="#4ADE80" font-size="8" font-weight="500" text-anchor="middle">Gift Card</text>
  <use href="#arrow" x="1208" y="406" width="12" height="8"/>

  <use href="#step" x="1224" y="396" width="68" height="28"/>
  <text x="1258" y="414" fill="#EF4444" font-size="8" font-weight="500" text-anchor="middle">Clock Out</text>

  <text x="36" y="446" fill="#475569" font-size="8" font-weight="700" letter-spacing="1">ASSERTIONS</text>
  <text x="36" y="462" fill="#60A5FA" font-size="9">Tables-only access as Host (no Register, no Payment)</text>
  <text x="350" y="462" fill="#4ADE80" font-size="9">Register+Payment access as Cashier (no Tables)</text>
  <text x="660" y="462" fill="#F59E0B" font-size="9">Cannot approve voids/discounts in either role</text>
  <text x="960" y="462" fill="#94A3B8" font-size="9">Hours tracked per role for tip pool</text>

  <!-- ═══════════ TEST 3: Manager + Server (Sara R.) — Opening shift ═══════════ -->
  <rect x="16" y="506" width="1334" height="200" rx="12" fill="url(#cardGrad)" filter="url(#cardShadow)" stroke="#1E2235" stroke-width="0.5"/>
  <rect x="16" y="506" width="4" height="200" rx="2" fill="#F59E0B"/>

  <text x="36" y="530" fill="#475569" font-size="9" font-weight="700" letter-spacing="1.5">TEST 3</text>
  <text x="80" y="530" fill="#E2E8F0" font-size="12" font-weight="700">Manager + Server (Opening Shift)</text>
  <use href="#adminGear" x="310" y="520" width="10" height="10"/>
  <circle cx="50" cy="552" r="18" fill="#2D1A10"/>
  <text x="50" y="558" fill="#F59E0B" font-size="12" font-weight="700" text-anchor="middle">SR</text>
  <text x="76" y="548" fill="#E2E8F0" font-size="11" font-weight="600">Sara R.</text>
  <text x="76" y="562" fill="#475569" font-size="9">PIN: 9012 · Shift: 10 AM — Close</text>
  <use href="#permDot" x="76" y="568" width="8" height="8" fill="#F59E0B"/>
  <text x="88" y="576" fill="#F59E0B" font-size="8">Manager</text>
  <use href="#permDot" x="130" y="568" width="8" height="8" fill="#4ADE80"/>
  <text x="142" y="576" fill="#4ADE80" font-size="8">Server</text>

  <text x="36" y="600" fill="#475569" font-size="8" font-weight="700" letter-spacing="1">WORKFLOW</text>

  <!-- Manager mode: open, setup, monitor -->
  <use href="#step" x="36" y="608" width="60" height="28"/>
  <text x="66" y="626" fill="#F59E0B" font-size="8" font-weight="600" text-anchor="middle">10 AM PIN</text>
  <use href="#arrow" x="100" y="618" width="12" height="8"/>

  <use href="#step" x="116" y="608" width="80" height="28"/>
  <text x="156" y="626" fill="#F59E0B" font-size="8" font-weight="600" text-anchor="middle">Pick: Manager</text>
  <use href="#arrow" x="200" y="618" width="12" height="8"/>

  <use href="#step" x="216" y="608" width="76" height="28"/>
  <text x="254" y="626" fill="#F59E0B" font-size="8" font-weight="500" text-anchor="middle">Dashboard</text>
  <use href="#arrow" x="296" y="618" width="12" height="8"/>

  <use href="#step" x="312" y="608" width="78" height="28"/>
  <text x="351" y="626" fill="#F59E0B" font-size="8" font-weight="500" text-anchor="middle">Open Reg</text>
  <use href="#arrow" x="394" y="618" width="12" height="8"/>

  <use href="#step" x="410" y="608" width="82" height="28"/>
  <text x="451" y="626" fill="#F59E0B" font-size="8" font-weight="500" text-anchor="middle">Floor Check</text>
  <use href="#arrow" x="496" y="618" width="12" height="8"/>

  <use href="#step" x="512" y="608" width="82" height="28"/>
  <text x="553" y="626" fill="#F59E0B" font-size="8" font-weight="500" text-anchor="middle">KDS Monitor</text>

  <!-- Lunch rush — switch to Server to help -->
  <use href="#roleSwitch" x="608" y="610" width="24" height="24"/>
  <text x="638" y="620" fill="#F59E0B" font-size="8" font-weight="700">12 PM</text>
  <text x="638" y="632" fill="#F59E0B" font-size="7">SWITCH</text>

  <use href="#step" x="678" y="608" width="68" height="28"/>
  <text x="712" y="626" fill="#4ADE80" font-size="8" font-weight="600" text-anchor="middle">Register</text>
  <use href="#arrow" x="750" y="618" width="12" height="8"/>

  <use href="#step" x="766" y="608" width="76" height="28"/>
  <text x="804" y="626" fill="#4ADE80" font-size="8" font-weight="500" text-anchor="middle">Take Orders</text>
  <use href="#arrow" x="846" y="618" width="12" height="8"/>

  <use href="#step" x="862" y="608" width="70" height="28"/>
  <text x="897" y="626" fill="#4ADE80" font-size="8" font-weight="500" text-anchor="middle">Payments</text>

  <!-- Back to Manager for EOD -->
  <use href="#roleSwitch" x="946" y="610" width="24" height="24"/>
  <text x="976" y="620" fill="#F59E0B" font-size="8" font-weight="700">2 PM</text>
  <text x="976" y="632" fill="#F59E0B" font-size="7">SWITCH</text>

  <use href="#step" x="1016" y="608" width="70" height="28"/>
  <text x="1051" y="626" fill="#F59E0B" font-size="8" font-weight="500" text-anchor="middle">Auth Void</text>
  <use href="#arrow" x="1090" y="618" width="12" height="8"/>

  <use href="#step" x="1106" y="608" width="64" height="28"/>
  <text x="1138" y="626" fill="#F59E0B" font-size="8" font-weight="500" text-anchor="middle">Reports</text>
  <use href="#arrow" x="1174" y="618" width="12" height="8"/>

  <use href="#step" x="1190" y="608" width="50" height="28"/>
  <text x="1215" y="626" fill="#F59E0B" font-size="8" font-weight="500" text-anchor="middle">EOD</text>
  <use href="#arrow" x="1244" y="618" width="12" height="8"/>

  <use href="#step" x="1260" y="608" width="76" height="28"/>
  <text x="1298" y="626" fill="#EF4444" font-size="8" font-weight="600" text-anchor="middle">Close Reg</text>

  <text x="36" y="658" fill="#475569" font-size="8" font-weight="700" letter-spacing="1">ASSERTIONS</text>
  <text x="36" y="674" fill="#F59E0B" font-size="9">Manager can open register + run EOD</text>
  <text x="280" y="674" fill="#4ADE80" font-size="9">Server mode: same Register, no void/discount auth</text>
  <text x="590" y="674" fill="#F59E0B" font-size="9">Switch back to Manager: void auth restored</text>
  <text x="890" y="674" fill="#94A3B8" font-size="9">All actions logged per active role at time of action</text>

  <!-- ═══════════ TEST 4: Supervisor + Cashier + Host (Alex K.) ═══════════ -->
  <rect x="16" y="718" width="1334" height="168" rx="12" fill="url(#cardGrad)" filter="url(#cardShadow)" stroke="#1E2235" stroke-width="0.5"/>
  <rect x="16" y="718" width="4" height="168" rx="2" fill="#22D3EE"/>

  <text x="36" y="742" fill="#475569" font-size="9" font-weight="700" letter-spacing="1.5">TEST 4</text>
  <text x="80" y="742" fill="#E2E8F0" font-size="12" font-weight="700">Supervisor + Cashier + Host (Triple Role)</text>
  <circle cx="50" cy="764" r="18" fill="#0A2020"/>
  <text x="50" y="770" fill="#22D3EE" font-size="12" font-weight="700" text-anchor="middle">AK</text>
  <text x="76" y="760" fill="#E2E8F0" font-size="11" font-weight="600">Alex K.</text>
  <text x="76" y="774" fill="#475569" font-size="9">PIN: 2468 · Shift: 10 AM — 6 PM</text>
  <use href="#permDot" x="76" y="780" width="8" height="8" fill="#22D3EE"/>
  <text x="88" y="788" fill="#22D3EE" font-size="8">Supervisor</text>
  <use href="#permDot" x="140" y="780" width="8" height="8" fill="#4ADE80"/>
  <text x="152" y="788" fill="#4ADE80" font-size="8">Cashier</text>
  <use href="#permDot" x="186" y="780" width="8" height="8" fill="#60A5FA"/>
  <text x="198" y="788" fill="#60A5FA" font-size="8">Host</text>

  <text x="36" y="812" fill="#475569" font-size="8" font-weight="700" letter-spacing="1">WORKFLOW</text>

  <use href="#step" x="36" y="820" width="56" height="28"/>
  <text x="64" y="838" fill="#F59E0B" font-size="8" font-weight="600" text-anchor="middle">PIN</text>
  <use href="#arrow" x="96" y="830" width="12" height="8"/>

  <use href="#step" x="112" y="820" width="84" height="28"/>
  <text x="154" y="838" fill="#22D3EE" font-size="8" font-weight="600" text-anchor="middle">3-role picker</text>
  <use href="#arrow" x="200" y="830" width="12" height="8"/>

  <use href="#step" x="216" y="820" width="80" height="28"/>
  <text x="256" y="838" fill="#60A5FA" font-size="8" font-weight="500" text-anchor="middle">Host: Seat 5</text>
  <use href="#arrow" x="300" y="830" width="12" height="8"/>

  <use href="#roleSwitch" x="316" y="822" width="20" height="20"/>

  <use href="#step" x="342" y="820" width="80" height="28"/>
  <text x="382" y="838" fill="#4ADE80" font-size="8" font-weight="500" text-anchor="middle">Cashier: Ring</text>
  <use href="#arrow" x="426" y="830" width="12" height="8"/>

  <use href="#step" x="442" y="820" width="80" height="28"/>
  <text x="482" y="838" fill="#4ADE80" font-size="8" font-weight="500" text-anchor="middle">Cash Payment</text>
  <use href="#arrow" x="526" y="830" width="12" height="8"/>

  <use href="#roleSwitch" x="542" y="822" width="20" height="20"/>

  <use href="#step" x="568" y="820" width="86" height="28"/>
  <text x="611" y="838" fill="#22D3EE" font-size="8" font-weight="500" text-anchor="middle">Supv: Auth Void</text>
  <use href="#arrow" x="658" y="830" width="12" height="8"/>

  <use href="#step" x="674" y="820" width="90" height="28"/>
  <text x="719" y="838" fill="#22D3EE" font-size="8" font-weight="500" text-anchor="middle">Supv: Discount</text>
  <use href="#arrow" x="768" y="830" width="12" height="8"/>

  <use href="#step" x="784" y="820" width="80" height="28"/>
  <text x="824" y="838" fill="#22D3EE" font-size="8" font-weight="500" text-anchor="middle">Supv: Reports</text>
  <use href="#arrow" x="868" y="830" width="12" height="8"/>

  <use href="#step" x="884" y="820" width="70" height="28"/>
  <text x="919" y="838" fill="#22D3EE" font-size="8" font-weight="500" text-anchor="middle">KDS Check</text>
  <use href="#arrow" x="958" y="830" width="12" height="8"/>

  <use href="#step" x="974" y="820" width="68" height="28"/>
  <text x="1008" y="838" fill="#EF4444" font-size="8" font-weight="500" text-anchor="middle">Clock Out</text>

  <text x="36" y="862" fill="#475569" font-size="8" font-weight="700" letter-spacing="1">ASSERTIONS</text>
  <text x="36" y="878" fill="#22D3EE" font-size="9">3-role picker shown (not 2)</text>
  <text x="200" y="878" fill="#60A5FA" font-size="9">Host mode: Tables only</text>
  <text x="370" y="878" fill="#4ADE80" font-size="9">Cashier mode: Register + Payment only</text>
  <text x="600" y="878" fill="#22D3EE" font-size="9">Supervisor mode: +Voids +Discounts +Reports +KDS</text>
  <text x="920" y="878" fill="#94A3B8" font-size="9">Audit log tracks role at each action</text>

  <!-- ═══════════ FOOTER — COMBINED ROLE RULES ═══════════ -->
  <rect x="16" y="896" width="1334" height="118" rx="10" fill="#111425" stroke="#1E2235" stroke-width="0.5"/>
  <text x="36" y="920" fill="#475569" font-size="9" font-weight="700" letter-spacing="1.5">COMBINED ROLE RULES (admin: Settings > Staff > Multi-Role Policy)</text>
  <use href="#adminGear" x="450" y="910" width="10" height="10"/>

  <text x="36" y="944" fill="#94A3B8" font-size="10">1. Multi-role staff see role picker after PIN — single-role staff auto-route</text>
  <text x="36" y="962" fill="#94A3B8" font-size="10">2. Role switch available anytime from user menu (top-right avatar) — no re-PIN required within shift</text>
  <text x="36" y="980" fill="#94A3B8" font-size="10">3. Permissions are UNION of active role only — switching role changes available screens instantly</text>
  <text x="36" y="998" fill="#94A3B8" font-size="10">4. Audit trail records (staff_id, active_role, action, timestamp) — tip pool uses hours-per-role breakdown</text>

  <text x="800" y="944" fill="#94A3B8" font-size="10">5. Open orders transfer between role switches — no data loss</text>
  <text x="800" y="962" fill="#94A3B8" font-size="10">6. Manager/Admin override: hold staff tile 3s to bypass for emergencies</text>
  <text x="800" y="980" fill="#94A3B8" font-size="10">7. Max roles per staff: configurable (default 3) — prevents role sprawl</text>
  <text x="800" y="998" fill="#94A3B8" font-size="10">8. Role assignment requires Admin or Manager PIN to modify</text>
</svg>