<svg role="img" aria-labelledby="title-ipad_qr_ordering-svg" xmlns="http://www.w3.org/2000/svg" viewBox="0 0 1366 1024"
     font-family="-apple-system,BlinkMacSystemFont,'SF Pro Display','Segoe UI',sans-serif">

  <!-- ═══════════════════════════════════════════════════════════════ -->
  <!-- DEFS: gradients, filters, symbols for reusable UI components   -->
  <!-- ═══════════════════════════════════════════════════════════════ -->
  <title id="title-ipad_qr_ordering-svg">Synalux POS — qr ordering</title>
  <desc>Synalux POS mockup screen for qr ordering. All UI elements admin-configurable.</desc>
  <defs>
    <!-- Background gradient -->
    <linearGradient id="bgGrad" x1="0" y1="0" x2="0" y2="1">
      <stop offset="0%" stop-color="#0C0E1A"/>
      <stop offset="100%" stop-color="#0A0C16"/>
    </linearGradient>

    <!-- Card gradient -->
    <linearGradient id="cardGrad" x1="0" y1="0" x2="0" y2="1">
      <stop offset="0%" stop-color="#161930"/>
      <stop offset="100%" stop-color="#1A1D2E"/>
    </linearGradient>

    <!-- Amber button gradient -->
    <linearGradient id="amberBtnGrad" x1="0" y1="0" x2="0" y2="1">
      <stop offset="0%" stop-color="#FBBF24"/>
      <stop offset="100%" stop-color="#F59E0B"/>
    </linearGradient>

    <!-- Green button gradient -->
    <linearGradient id="greenBtnGrad" x1="0" y1="0" x2="0" y2="1">
      <stop offset="0%" stop-color="#4ADE80"/>
      <stop offset="100%" stop-color="#22C55E"/>
    </linearGradient>

    <!-- Phone frame gradient -->
    <linearGradient id="phoneFrameGrad" x1="0" y1="0" x2="0" y2="1">
      <stop offset="0%" stop-color="#2A2E45"/>
      <stop offset="100%" stop-color="#1E2235"/>
    </linearGradient>

    <!-- Card shadow -->
    <filter id="cardShadow" x="-4%" y="-4%" width="108%" height="108%">
      <feDropShadow dx="0" dy="2" stdDeviation="4" flood-color="#000000" flood-opacity="0.3"/>
    </filter>

    <!-- Phone shadow -->
    <filter id="phoneShadow" x="-6%" y="-3%" width="112%" height="106%">
      <feDropShadow dx="0" dy="4" stdDeviation="8" flood-color="#000000" flood-opacity="0.4"/>
    </filter>

    <!-- Glow for amber elements -->
    <filter id="amberGlow" x="-20%" y="-20%" width="140%" height="140%">
      <feDropShadow dx="0" dy="0" stdDeviation="3" flood-color="#F59E0B" flood-opacity="0.3"/>
    </filter>

    <!-- ─── SYMBOL: Edit/Settings affordance (gear icon) ─── -->
    <!-- Shows this element is admin-configurable, not hardcoded -->
    <symbol id="editAffordance" viewBox="0 0 14 14">
      <circle cx="7" cy="7" r="6.5" fill="#1E2235" stroke="#2A2E45" stroke-width="1"/>
      <path d="M7 4.5L8.2 6.2L10 6.8L8.6 8.2L8.8 10L7 9.2L5.2 10L5.4 8.2L4 6.8L5.8 6.2Z"
            fill="#64748B" stroke="none"/>
    </symbol>

    <!-- ─── SYMBOL: QR code (reusable finder-pattern + data grid) ─── -->
    <!-- Admin setting: QR Codes > Table Assignment (pos_qr_tables) -->
    <symbol id="qrCode" viewBox="0 0 90 90">
      <rect width="90" height="90" rx="4" fill="#FFFFFF"/>
      <!-- Finder pattern: top-left -->
      <rect x="4" y="4" width="22" height="22" rx="1" fill="#0C0E1A"/>
      <rect x="7" y="7" width="16" height="16" rx="1" fill="#FFFFFF"/>
      <rect x="10" y="10" width="10" height="10" fill="#0C0E1A"/>
      <!-- Finder pattern: top-right -->
      <rect x="64" y="4" width="22" height="22" rx="1" fill="#0C0E1A"/>
      <rect x="67" y="7" width="16" height="16" rx="1" fill="#FFFFFF"/>
      <rect x="70" y="10" width="10" height="10" fill="#0C0E1A"/>
      <!-- Finder pattern: bottom-left -->
      <rect x="4" y="64" width="22" height="22" rx="1" fill="#0C0E1A"/>
      <rect x="7" y="67" width="16" height="16" rx="1" fill="#FFFFFF"/>
      <rect x="10" y="70" width="10" height="10" fill="#0C0E1A"/>
      <!-- Data modules (representative pattern) -->
      <rect x="32" y="8" width="4" height="4" fill="#0C0E1A"/>
      <rect x="40" y="8" width="4" height="4" fill="#0C0E1A"/>
      <rect x="48" y="8" width="4" height="4" fill="#0C0E1A"/>
      <rect x="56" y="8" width="4" height="4" fill="#0C0E1A"/>
      <rect x="32" y="16" width="4" height="4" fill="#0C0E1A"/>
      <rect x="48" y="16" width="4" height="4" fill="#0C0E1A"/>
      <rect x="32" y="24" width="4" height="4" fill="#0C0E1A"/>
      <rect x="40" y="24" width="4" height="4" fill="#0C0E1A"/>
      <rect x="56" y="24" width="4" height="4" fill="#0C0E1A"/>
      <rect x="32" y="32" width="4" height="4" fill="#0C0E1A"/>
      <rect x="40" y="32" width="4" height="4" fill="#0C0E1A"/>
      <rect x="48" y="32" width="4" height="4" fill="#0C0E1A"/>
      <rect x="32" y="40" width="4" height="4" fill="#0C0E1A"/>
      <rect x="48" y="40" width="4" height="4" fill="#0C0E1A"/>
      <rect x="56" y="40" width="4" height="4" fill="#0C0E1A"/>
      <rect x="32" y="48" width="4" height="4" fill="#0C0E1A"/>
      <rect x="40" y="48" width="4" height="4" fill="#0C0E1A"/>
      <rect x="56" y="48" width="4" height="4" fill="#0C0E1A"/>
      <rect x="32" y="56" width="4" height="4" fill="#0C0E1A"/>
      <rect x="48" y="56" width="4" height="4" fill="#0C0E1A"/>
      <rect x="32" y="64" width="4" height="4" fill="#0C0E1A"/>
      <rect x="40" y="64" width="4" height="4" fill="#0C0E1A"/>
      <rect x="48" y="64" width="4" height="4" fill="#0C0E1A"/>
      <rect x="40" y="72" width="4" height="4" fill="#0C0E1A"/>
      <rect x="56" y="72" width="4" height="4" fill="#0C0E1A"/>
      <rect x="40" y="80" width="4" height="4" fill="#0C0E1A"/>
      <rect x="48" y="80" width="4" height="4" fill="#0C0E1A"/>
      <rect x="56" y="80" width="4" height="4" fill="#0C0E1A"/>
      <!-- Alignment pattern center -->
      <rect x="60" y="60" width="10" height="10" rx="1" fill="#0C0E1A"/>
      <rect x="62" y="62" width="6" height="6" rx="1" fill="#FFFFFF"/>
      <rect x="63" y="63" width="4" height="4" fill="#0C0E1A"/>
    </symbol>

    <!-- ─── SYMBOL: Table QR card (used for each table in the grid) ─── -->
    <!-- Admin setting: QR Codes > Table List (pos_qr_tables) -->
    <symbol id="tableQrCard" viewBox="0 0 200 155">
      <rect width="200" height="155" rx="8" fill="url(#cardGrad)" stroke="#1E2235" stroke-width="1"/>
      <!-- QR code centered -->
      <use href="#qrCode" x="55" y="22" width="90" height="90"/>
      <!-- Print button -->
      <rect x="8" y="125" width="86" height="22" rx="5" fill="#1E2235" stroke="#2A2E45" stroke-width="1"/>
      <text x="51" y="139" fill="#94A3B8" font-size="10" text-anchor="middle">Print</text>
      <!-- Download button -->
      <rect x="102" y="125" width="90" height="22" rx="5" fill="#1E2235" stroke="#2A2E45" stroke-width="1"/>
      <text x="147" y="139" fill="#94A3B8" font-size="10" text-anchor="middle">Download</text>
    </symbol>

    <!-- ─── SYMBOL: Phone frame (reusable for all 3 step phones) ─── -->
    <symbol id="phoneFrame" viewBox="0 0 194 422">
      <rect width="194" height="422" rx="24" fill="url(#phoneFrameGrad)"/>
      <rect x="3" y="3" width="188" height="416" rx="21" fill="#1A1D2E"/>
      <rect x="5" y="5" width="184" height="412" rx="20" fill="#FFFFFF"/>
      <!-- Notch -->
      <rect x="63" y="5" width="68" height="18" rx="9" fill="#2A2E45"/>
    </symbol>

    <!-- ─── SYMBOL: Status badge (Active/Paused) ─── -->
    <symbol id="badgeActive" viewBox="0 0 50 18">
      <rect width="50" height="18" rx="4" fill="#22C55E" fill-opacity="0.15"/>
      <text x="25" y="13" fill="#22C55E" font-size="10" font-weight="700" text-anchor="middle">Active</text>
    </symbol>
    <symbol id="badgePaused" viewBox="0 0 50 18">
      <rect width="50" height="18" rx="4" fill="#64748B" fill-opacity="0.2"/>
      <text x="25" y="13" fill="#64748B" font-size="10" font-weight="700" text-anchor="middle">Paused</text>
    </symbol>

    <!-- ─── SYMBOL: Toggle switch (ON state) ─── -->
    <!-- Admin setting: various boolean toggles -->
    <symbol id="toggleOn" viewBox="0 0 40 20">
      <rect width="40" height="20" rx="10" fill="#22C55E"/>
      <circle cx="30" cy="10" r="8" fill="#FFFFFF"/>
    </symbol>

    <!-- ─── SYMBOL: Toggle switch (OFF state) ─── -->
    <symbol id="toggleOff" viewBox="0 0 40 20">
      <rect width="40" height="20" rx="10" fill="#2A2E45"/>
      <circle cx="10" cy="10" r="8" fill="#64748B"/>
    </symbol>

    <!-- ─── SYMBOL: Dropdown field ─── -->
    <symbol id="dropdown" viewBox="0 0 200 22">
      <rect width="200" height="22" rx="5" fill="#0C0E1A" stroke="#1E2235" stroke-width="1"/>
      <text x="190" y="15" fill="#64748B" font-size="11" text-anchor="end">&#x25BE;</text>
    </symbol>

    <!-- ─── SYMBOL: Flow arrow ─── -->
    <symbol id="flowArrow" viewBox="0 0 30 20">
      <line x1="0" y1="10" x2="18" y2="10" stroke="#F59E0B" stroke-width="2"/>
      <polygon points="18,5 28,10 18,15" fill="#F59E0B"/>
    </symbol>

    <!-- ─── SYMBOL: KDS order ticket ─── -->
    <!-- Admin setting: KDS > Ticket Layout (pos_kds_settings) -->
    <symbol id="kdsTicket" viewBox="0 0 170 100">
      <rect width="170" height="100" rx="6" fill="url(#cardGrad)" stroke="#1E2235" stroke-width="1"/>
      <!-- Ticket header bar -->
      <rect width="170" height="24" rx="6" fill="#F59E0B" fill-opacity="0.15"/>
      <rect width="170" height="18" rx="6" fill="#F59E0B" fill-opacity="0.15"/>
    </symbol>

    <!-- ─── SYMBOL: Progress dot (completed) ─── -->
    <symbol id="progressDone" viewBox="0 0 16 16">
      <circle cx="8" cy="8" r="8" fill="#22C55E"/>
      <text x="8" y="12" fill="#FFFFFF" font-size="9" text-anchor="middle" font-weight="700">&#x2713;</text>
    </symbol>

    <!-- ─── SYMBOL: Progress dot (active/in-progress) ─── -->
    <symbol id="progressActive" viewBox="0 0 16 16">
      <circle cx="8" cy="8" r="8" fill="#F59E0B"/>
    </symbol>

    <!-- ─── SYMBOL: Progress dot (pending) ─── -->
    <symbol id="progressPending" viewBox="0 0 16 16">
      <circle cx="8" cy="8" r="8" fill="none" stroke="#2A2E45" stroke-width="1.5"/>
    </symbol>

  </defs>

  <!-- ═══════════════════════════════════════════════════ -->
  <!-- BACKGROUND                                          -->
  <!-- ═══════════════════════════════════════════════════ -->
  <rect width="1366" height="1024" fill="url(#bgGrad)"/>

  <!-- ═══════════════════════════════════════════════════ -->
  <!-- LEFT PANEL: iPad QR Management (x=0..679)           -->
  <!-- ═══════════════════════════════════════════════════ -->

  <!-- Admin setting: Branding > Header (pos_branding) -->
  <rect x="0" y="0" width="679" height="64" fill="#161930"/>
  <rect x="0" y="64" width="679" height="1" fill="#1E2235"/>
  <text x="20" y="24" fill="#F59E0B" font-size="11" font-weight="700">Synalux POS</text>
  <!-- Admin setting: QR Ordering > Module Title -->
  <text x="20" y="44" fill="#F1F5F9" font-size="16" font-weight="700">QR Table Ordering</text>
  <use href="#editAffordance" x="170" y="32" width="14" height="14"/>
  <text x="20" y="59" fill="#94A3B8" font-size="11">Guests scan, order, and pay from their phone — no app needed</text>

  <!-- ─── STATUS BAR ─── -->
  <!-- Admin setting: QR Ordering > Status Display (pos_qr_settings.show_stats) -->
  <rect x="8" y="72" width="663" height="44" rx="8" fill="url(#cardGrad)" stroke="#1E2235" stroke-width="1" filter="url(#cardShadow)"/>
  <circle cx="26" cy="94" r="5" fill="#22C55E"/>
  <text x="36" y="98" fill="#22C55E" font-size="12" font-weight="700">QR Ordering: Active</text>
  <use href="#editAffordance" x="148" y="87" width="14" height="14"/>
  <!-- Dividers + stats -->
  <rect x="180" y="78" width="1" height="28" fill="#1E2235"/>
  <text x="196" y="89" fill="#94A3B8" font-size="10">Today</text>
  <text x="196" y="104" fill="#F1F5F9" font-size="12" font-weight="700">127 scans</text>
  <rect x="275" y="78" width="1" height="28" fill="#1E2235"/>
  <text x="290" y="89" fill="#94A3B8" font-size="10">Orders</text>
  <text x="290" y="104" fill="#F1F5F9" font-size="12" font-weight="700">34 placed</text>
  <rect x="370" y="78" width="1" height="28" fill="#1E2235"/>
  <text x="385" y="89" fill="#94A3B8" font-size="10">Revenue</text>
  <text x="385" y="104" fill="#22C55E" font-size="12" font-weight="700">$1,240.00</text>

  <!-- ─── TABS ─── -->
  <!-- Admin setting: QR Ordering > Navigation Tabs -->
  <rect x="0" y="116" width="679" height="36" fill="#161930"/>
  <rect x="0" y="152" width="679" height="1" fill="#1E2235"/>
  <rect x="8" y="120" width="96" height="28" rx="6" fill="#1A1D2E" stroke="#F59E0B" stroke-width="1"/>
  <text x="56" y="138" fill="#F59E0B" font-size="12" font-weight="700" text-anchor="middle">QR Codes</text>
  <rect x="112" y="120" width="108" height="28" rx="6" fill="none"/>
  <text x="166" y="138" fill="#94A3B8" font-size="12" text-anchor="middle">Active Orders</text>
  <rect x="228" y="120" width="76" height="28" rx="6" fill="none"/>
  <text x="266" y="138" fill="#94A3B8" font-size="12" text-anchor="middle">Settings</text>

  <!-- ═══════════════════════════════════════════════════ -->
  <!-- QR CODES GRID — uses <use> referencing tableQrCard  -->
  <!-- Admin setting: QR Codes > Table Configuration       -->
  <!--   (pos_qr_tables — table count, names, status)      -->
  <!-- ═══════════════════════════════════════════════════ -->

  <!-- ROW 1: Tables 1-3 -->

  <!-- TABLE 1 -->
  <g transform="translate(8,160)">
    <use href="#tableQrCard" width="200" height="155"/>
    <text x="12" y="16" fill="#F1F5F9" font-size="12" font-weight="700">Table 1</text>
    <use href="#badgeActive" x="146" y="2" width="50" height="18"/>
    <use href="#editAffordance" x="132" y="3" width="12" height="12"/>
    <text x="100" y="120" fill="#64748B" font-size="9" text-anchor="middle">12 scans today</text>
  </g>

  <!-- TABLE 2 -->
  <g transform="translate(216,160)">
    <use href="#tableQrCard" width="200" height="155"/>
    <text x="12" y="16" fill="#F1F5F9" font-size="12" font-weight="700">Table 2</text>
    <use href="#badgeActive" x="146" y="2" width="50" height="18"/>
    <use href="#editAffordance" x="132" y="3" width="12" height="12"/>
    <text x="100" y="120" fill="#64748B" font-size="9" text-anchor="middle">9 scans today</text>
  </g>

  <!-- TABLE 3 (Paused) -->
  <g transform="translate(424,160)">
    <use href="#tableQrCard" width="200" height="155"/>
    <text x="12" y="16" fill="#F1F5F9" font-size="12" font-weight="700">Table 3</text>
    <use href="#badgePaused" x="146" y="2" width="50" height="18"/>
    <use href="#editAffordance" x="132" y="3" width="12" height="12"/>
    <text x="100" y="120" fill="#64748B" font-size="9" text-anchor="middle">3 scans today</text>
    <!-- Dimmed overlay for paused state -->
    <rect x="55" y="22" width="90" height="90" rx="4" fill="#0C0E1A" fill-opacity="0.3"/>
  </g>

  <!-- ROW 2: Tables 4-6 -->

  <!-- TABLE 4 -->
  <g transform="translate(8,323)">
    <use href="#tableQrCard" width="200" height="155"/>
    <text x="12" y="16" fill="#F1F5F9" font-size="12" font-weight="700">Table 4</text>
    <use href="#badgeActive" x="146" y="2" width="50" height="18"/>
    <use href="#editAffordance" x="132" y="3" width="12" height="12"/>
    <text x="100" y="120" fill="#64748B" font-size="9" text-anchor="middle">18 scans today</text>
  </g>

  <!-- TABLE 5 -->
  <g transform="translate(216,323)">
    <use href="#tableQrCard" width="200" height="155"/>
    <text x="12" y="16" fill="#F1F5F9" font-size="12" font-weight="700">Table 5</text>
    <use href="#badgeActive" x="146" y="2" width="50" height="18"/>
    <use href="#editAffordance" x="132" y="3" width="12" height="12"/>
    <text x="100" y="120" fill="#64748B" font-size="9" text-anchor="middle">15 scans today</text>
  </g>

  <!-- TABLE 6 -->
  <g transform="translate(424,323)">
    <use href="#tableQrCard" width="200" height="155"/>
    <text x="12" y="16" fill="#F1F5F9" font-size="12" font-weight="700">Table 6</text>
    <use href="#badgeActive" x="146" y="2" width="50" height="18"/>
    <use href="#editAffordance" x="132" y="3" width="12" height="12"/>
    <text x="100" y="120" fill="#64748B" font-size="9" text-anchor="middle">21 scans today</text>
  </g>

  <!-- ROW 3: Tables 7-8 + overflow -->

  <!-- TABLE 7 (compact) -->
  <g transform="translate(8,486)">
    <rect width="192" height="92" rx="8" fill="url(#cardGrad)" stroke="#1E2235" stroke-width="1"/>
    <text x="12" y="16" fill="#F1F5F9" font-size="12" font-weight="700">Table 7</text>
    <use href="#badgeActive" x="138" y="1" width="50" height="16"/>
    <use href="#editAffordance" x="124" y="2" width="12" height="12"/>
    <use href="#qrCode" x="12" y="22" width="60" height="60"/>
    <text x="140" y="30" fill="#94A3B8" font-size="10">7 scans</text>
    <rect x="86" y="38" width="56" height="18" rx="4" fill="#1E2235" stroke="#2A2E45" stroke-width="1"/>
    <text x="114" y="50" fill="#94A3B8" font-size="9" text-anchor="middle">Print</text>
    <rect x="86" y="60" width="56" height="18" rx="4" fill="#1E2235" stroke="#2A2E45" stroke-width="1"/>
    <text x="114" y="72" fill="#94A3B8" font-size="9" text-anchor="middle">Download</text>
  </g>

  <!-- TABLE 8 (compact, paused) -->
  <g transform="translate(208,486)">
    <rect width="192" height="92" rx="8" fill="url(#cardGrad)" stroke="#1E2235" stroke-width="1"/>
    <text x="12" y="16" fill="#F1F5F9" font-size="12" font-weight="700">Table 8</text>
    <use href="#badgePaused" x="138" y="1" width="50" height="16"/>
    <use href="#editAffordance" x="124" y="2" width="12" height="12"/>
    <g opacity="0.5">
      <use href="#qrCode" x="12" y="22" width="60" height="60"/>
    </g>
    <text x="140" y="30" fill="#94A3B8" font-size="10">2 scans</text>
    <rect x="86" y="38" width="56" height="18" rx="4" fill="#1E2235" stroke="#2A2E45" stroke-width="1"/>
    <text x="114" y="50" fill="#94A3B8" font-size="9" text-anchor="middle">Print</text>
    <rect x="86" y="60" width="56" height="18" rx="4" fill="#1E2235" stroke="#2A2E45" stroke-width="1"/>
    <text x="114" y="72" fill="#94A3B8" font-size="9" text-anchor="middle">Download</text>
  </g>

  <!-- +6 more overflow -->
  <!-- Admin setting: QR Codes > Table Count (pos_qr_tables.length) -->
  <g transform="translate(408,486)">
    <rect width="263" height="92" rx="8" fill="url(#cardGrad)" stroke="#1E2235" stroke-width="1"/>
    <text x="131" y="38" fill="#64748B" font-size="22" font-weight="700" text-anchor="middle">+6 more</text>
    <text x="131" y="56" fill="#64748B" font-size="11" text-anchor="middle">tables configured</text>
    <rect x="82" y="66" width="100" height="20" rx="5" fill="#1E2235" stroke="#2A2E45" stroke-width="1"/>
    <text x="132" y="79" fill="#94A3B8" font-size="10" text-anchor="middle">View All Tables</text>
    <use href="#editAffordance" x="245" y="4" width="12" height="12"/>
  </g>

  <!-- ─── ACTION BUTTONS ─── -->
  <!-- Admin setting: QR Ordering > Bulk Actions (pos_qr_settings.bulk_actions) -->
  <rect x="8" y="588" width="198" height="32" rx="7" fill="url(#amberBtnGrad)" filter="url(#amberGlow)"/>
  <text x="107" y="608" fill="#0C0E1A" font-size="12" font-weight="700" text-anchor="middle">Generate All QR Codes</text>

  <rect x="214" y="588" width="216" height="32" rx="7" fill="url(#cardGrad)" stroke="#1E2235" stroke-width="1"/>
  <text x="322" y="608" fill="#F1F5F9" font-size="12" text-anchor="middle">Print All (One per Page)</text>

  <rect x="438" y="588" width="233" height="32" rx="7" fill="url(#cardGrad)" stroke="#1E2235" stroke-width="1"/>
  <text x="555" y="608" fill="#F1F5F9" font-size="12" text-anchor="middle">Bulk Print QR Tents</text>

  <!-- ─── SETTINGS SECTION ─── -->
  <!-- Admin setting: QR Ordering > Settings Panel (pos_qr_settings) -->
  <rect x="8" y="630" width="663" height="186" rx="8" fill="url(#cardGrad)" stroke="#1E2235" stroke-width="1" filter="url(#cardShadow)"/>
  <text x="20" y="650" fill="#F1F5F9" font-size="13" font-weight="700">QR Ordering Settings</text>
  <use href="#editAffordance" x="158" y="637" width="14" height="14"/>

  <!-- Left column settings -->

  <!-- Admin setting: QR Ordering > Menu Selection (pos_qr_settings.menu_id) -->
  <text x="20" y="674" fill="#94A3B8" font-size="11">Menu shown</text>
  <use href="#editAffordance" x="82" y="663" width="11" height="11"/>
  <g transform="translate(130,660)">
    <use href="#dropdown" width="200" height="22"/>
    <text x="10" y="15" fill="#F1F5F9" font-size="11">Current Active Menu (auto)</text>
  </g>

  <!-- Admin setting: QR Ordering > Payment Mode (pos_qr_settings.payment_mode) -->
  <text x="20" y="698" fill="#94A3B8" font-size="11">Payment</text>
  <use href="#editAffordance" x="72" y="687" width="11" height="11"/>
  <rect x="130" y="685" width="80" height="20" rx="5" fill="#22C55E" fill-opacity="0.15" stroke="#22C55E" stroke-width="1"/>
  <text x="170" y="698" fill="#22C55E" font-size="11" font-weight="700" text-anchor="middle">Pay via QR</text>
  <rect x="218" y="685" width="120" height="20" rx="5" fill="#0C0E1A" stroke="#1E2235" stroke-width="1"/>
  <text x="278" y="698" fill="#94A3B8" font-size="11" text-anchor="middle">Send to server</text>

  <!-- Admin setting: QR Ordering > Tip Presets (pos_qr_settings.tip_presets) -->
  <text x="20" y="722" fill="#94A3B8" font-size="11">Tip presets</text>
  <use href="#editAffordance" x="82" y="711" width="11" height="11"/>
  <rect x="130" y="709" width="200" height="20" rx="5" fill="#0C0E1A" stroke="#1E2235" stroke-width="1"/>
  <text x="145" y="722" fill="#F1F5F9" font-size="11">Suggest 18% | 20% | 25%</text>

  <!-- Admin setting: QR Ordering > Table ID Mode (pos_qr_settings.table_id_mode) -->
  <text x="20" y="746" fill="#94A3B8" font-size="11">Table ID</text>
  <use href="#editAffordance" x="64" y="735" width="11" height="11"/>
  <rect x="130" y="733" width="210" height="20" rx="5" fill="#0C0E1A" stroke="#1E2235" stroke-width="1"/>
  <text x="145" y="746" fill="#F1F5F9" font-size="11">Auto-detect by QR (no entry)</text>

  <!-- Admin setting: QR Ordering > Order Flow (pos_qr_settings.order_flow) -->
  <text x="20" y="770" fill="#94A3B8" font-size="11">Order flow</text>
  <use href="#editAffordance" x="76" y="759" width="11" height="11"/>
  <g transform="translate(130,757)">
    <use href="#dropdown" x="0" y="0" width="200" height="22"/>
    <text x="10" y="15" fill="#F1F5F9" font-size="10">Guest → Server confirms → KDS fires</text>
  </g>

  <!-- Admin setting: QR Ordering > Call Server Button (pos_qr_settings.call_server_enabled) -->
  <text x="20" y="794" fill="#94A3B8" font-size="11">"Call server" on guest UI</text>
  <use href="#editAffordance" x="162" y="783" width="11" height="11"/>
  <use href="#toggleOn" x="230" y="781" width="40" height="20"/>
  <text x="278" y="795" fill="#22C55E" font-size="11" font-weight="700">ON</text>

  <!-- Right column settings -->

  <!-- Admin setting: QR Ordering > Notifications (pos_qr_settings.notification_mode) -->
  <text x="380" y="674" fill="#94A3B8" font-size="11">Order notifications</text>
  <use href="#editAffordance" x="486" y="663" width="11" height="11"/>
  <g transform="translate(500,660)">
    <use href="#dropdown" x="0" y="0" width="130" height="22"/>
    <text x="10" y="15" fill="#F1F5F9" font-size="11">Push + Sound</text>
  </g>

  <!-- Admin setting: QR Ordering > Min Order (pos_qr_settings.min_order_amount) -->
  <text x="380" y="698" fill="#94A3B8" font-size="11">Min order amount</text>
  <use href="#editAffordance" x="486" y="687" width="11" height="11"/>
  <rect x="500" y="685" width="130" height="22" rx="5" fill="#0C0E1A" stroke="#1E2235" stroke-width="1"/>
  <text x="565" y="699" fill="#F1F5F9" font-size="11" text-anchor="middle">$0.00 (none)</text>

  <!-- Admin setting: QR Ordering > Session Timeout (pos_qr_settings.session_timeout_min) -->
  <text x="380" y="722" fill="#94A3B8" font-size="11">Session timeout</text>
  <use href="#editAffordance" x="472" y="711" width="11" height="11"/>
  <rect x="500" y="709" width="130" height="22" rx="5" fill="#0C0E1A" stroke="#1E2235" stroke-width="1"/>
  <text x="565" y="722" fill="#F1F5F9" font-size="11" text-anchor="middle">45 minutes</text>

  <!-- Admin setting: QR Ordering > Logo Display (pos_qr_settings.show_logo) -->
  <text x="380" y="746" fill="#94A3B8" font-size="11">Logo on guest menu</text>
  <use href="#editAffordance" x="486" y="735" width="11" height="11"/>
  <use href="#toggleOn" x="500" y="733" width="40" height="20"/>
  <text x="548" y="747" fill="#22C55E" font-size="11" font-weight="700">ON</text>

  <!-- Admin setting: QR Ordering > Item Notes (pos_qr_settings.allow_item_notes) -->
  <text x="380" y="770" fill="#94A3B8" font-size="11">Allow item notes</text>
  <use href="#editAffordance" x="472" y="759" width="11" height="11"/>
  <use href="#toggleOn" x="500" y="757" width="40" height="20"/>
  <text x="548" y="771" fill="#22C55E" font-size="11" font-weight="700">ON</text>

  <!-- Save button -->
  <rect x="530" y="786" width="134" height="26" rx="6" fill="url(#amberBtnGrad)"/>
  <text x="597" y="802" fill="#0C0E1A" font-size="12" font-weight="700" text-anchor="middle">Save Settings</text>

  <!-- ═══════════════════════════════════════════════════ -->
  <!-- DIVIDER between left panel and right panel          -->
  <!-- ═══════════════════════════════════════════════════ -->
  <rect x="679" y="0" width="2" height="920" fill="#1E2235"/>

  <!-- ═══════════════════════════════════════════════════ -->
  <!-- RIGHT PANEL: Customer Phone + KDS/Register (x=681)  -->
  <!-- Shows the end-to-end QR ordering flow               -->
  <!-- ═══════════════════════════════════════════════════ -->

  <!-- Right header -->
  <rect x="681" y="0" width="685" height="54" fill="#161930"/>
  <rect x="681" y="54" width="685" height="1" fill="#1E2235"/>
  <text x="701" y="23" fill="#F1F5F9" font-size="15" font-weight="700">Guest Experience &amp; KDS</text>
  <text x="701" y="41" fill="#94A3B8" font-size="11">Customer scans QR, orders on phone, order flows to kitchen display</text>
  <rect x="1267" y="10" width="90" height="22" rx="6" fill="#F59E0B" fill-opacity="0.15" stroke="#F59E0B" stroke-width="1"/>
  <text x="1312" y="24" fill="#F59E0B" font-size="11" font-weight="700" text-anchor="middle">Live Preview</text>

  <!-- Step labels -->
  <text x="760" y="72" fill="#94A3B8" font-size="10" font-weight="600" text-anchor="middle">STEP 1</text>
  <text x="760" y="86" fill="#F1F5F9" font-size="12" font-weight="700" text-anchor="middle">Scan &amp; Browse</text>

  <text x="952" y="72" fill="#94A3B8" font-size="10" font-weight="600" text-anchor="middle">STEP 2</text>
  <text x="952" y="86" fill="#F1F5F9" font-size="12" font-weight="700" text-anchor="middle">Review &amp; Pay</text>

  <text x="1180" y="72" fill="#94A3B8" font-size="10" font-weight="600" text-anchor="middle">STEP 3</text>
  <text x="1180" y="86" fill="#F1F5F9" font-size="12" font-weight="700" text-anchor="middle">KDS / Register</text>

  <!-- ═══════════════════════════════════════════════════ -->
  <!-- PHONE 1: Scan & Menu (customer-facing phone view)   -->
  <!-- Admin setting: QR Ordering > Guest UI Theme          -->
  <!--   (pos_qr_settings.theme, pos_menu items)            -->
  <!-- ═══════════════════════════════════════════════════ -->
  <g transform="translate(663,96)" filter="url(#phoneShadow)">
    <use href="#phoneFrame" width="194" height="422"/>

    <!-- Top bar -->
    <!-- Admin setting: Branding > Logo + Venue Name (pos_branding.logo, pos_branding.name) -->
    <rect x="5" y="23" width="184" height="40" rx="0" fill="#F8FAFC"/>
    <rect x="5" y="63" width="184" height="1" fill="#E2E8F0"/>
    <rect x="16" y="28" width="26" height="26" rx="6" fill="#F59E0B"/>
    <text x="29" y="45" fill="#FFFFFF" font-size="13" font-weight="900" text-anchor="middle">S</text>
    <text x="49" y="37" fill="#1E293B" font-size="11" font-weight="700">Synalux Bistro</text>
    <text x="49" y="50" fill="#64748B" font-size="9">Table 4</text>
    <use href="#editAffordance" x="170" y="30" width="12" height="12"/>

    <!-- Welcome -->
    <!-- Admin setting: QR Ordering > Welcome Message (pos_qr_settings.welcome_text) -->
    <text x="97" y="80" fill="#1E293B" font-size="12" font-weight="700" text-anchor="middle">Welcome! Browse our menu</text>

    <!-- Category tabs -->
    <!-- Admin setting: Menu > Categories (pos_menu_categories) -->
    <rect x="10" y="86" width="174" height="24" rx="6" fill="#F1F5F9"/>
    <rect x="13" y="88" width="38" height="20" rx="5" fill="#F59E0B"/>
    <text x="32" y="101" fill="#FFFFFF" font-size="9" font-weight="700" text-anchor="middle">Burgers</text>
    <text x="67" y="101" fill="#64748B" font-size="9" text-anchor="middle">Apps</text>
    <text x="103" y="101" fill="#64748B" font-size="9" text-anchor="middle">Drinks</text>
    <text x="141" y="101" fill="#64748B" font-size="9" text-anchor="middle">Desserts</text>

    <!-- Menu item 1 -->
    <!-- Admin setting: Menu > Items (pos_menu_items — name, price, photo, description) -->
    <rect x="10" y="116" width="174" height="76" rx="8" fill="#F8FAFC" stroke="#E2E8F0" stroke-width="1"/>
    <rect x="14" y="120" width="56" height="50" rx="6" fill="#FEF3C7"/>
    <text x="42" y="150" fill="#F59E0B" font-size="20" text-anchor="middle">&#x1F354;</text>
    <text x="78" y="130" fill="#1E293B" font-size="11" font-weight="700">Classic Burger</text>
    <text x="78" y="142" fill="#64748B" font-size="9">Beef patty, lettuce, tomato</text>
    <text x="78" y="154" fill="#64748B" font-size="9">cheese, special sauce</text>
    <text x="78" y="168" fill="#F59E0B" font-size="12" font-weight="700">$18.00</text>
    <rect x="130" y="162" width="48" height="19" rx="5" fill="#F59E0B"/>
    <text x="154" y="174" fill="#FFFFFF" font-size="9" font-weight="700" text-anchor="middle">Add +</text>

    <!-- Menu item 2 -->
    <rect x="10" y="198" width="174" height="76" rx="8" fill="#F8FAFC" stroke="#E2E8F0" stroke-width="1"/>
    <rect x="14" y="202" width="56" height="50" rx="6" fill="#DBEAFE"/>
    <text x="42" y="232" fill="#60A5FA" font-size="20" text-anchor="middle">&#x1F37A;</text>
    <text x="78" y="212" fill="#1E293B" font-size="11" font-weight="700">Craft Beer</text>
    <text x="78" y="224" fill="#64748B" font-size="9">Local IPA, cold draft</text>
    <text x="78" y="236" fill="#64748B" font-size="9">16 oz pint</text>
    <text x="78" y="250" fill="#F59E0B" font-size="12" font-weight="700">$9.00</text>
    <rect x="130" y="244" width="48" height="19" rx="5" fill="#F59E0B"/>
    <text x="154" y="256" fill="#FFFFFF" font-size="9" font-weight="700" text-anchor="middle">Add +</text>

    <!-- Cart bar -->
    <rect x="5" y="280" width="184" height="1" fill="#E2E8F0"/>
    <rect x="10" y="285" width="174" height="32" rx="8" fill="url(#amberBtnGrad)"/>
    <text x="62" y="305" fill="#FFFFFF" font-size="11" font-weight="700" text-anchor="middle">View Cart (2)</text>
    <rect x="158" y="288" width="22" height="22" rx="11" fill="#0C0E1A" fill-opacity="0.2"/>
    <text x="169" y="303" fill="#FFFFFF" font-size="9" font-weight="700" text-anchor="middle">$27</text>

    <!-- Scroll hint -->
    <text x="97" y="330" fill="#CBD5E1" font-size="8" text-anchor="middle">Scroll for more items</text>
  </g>

  <!-- ─── ARROW: Phone 1 → Phone 2 ─── -->
  <use href="#flowArrow" x="860" y="300" width="30" height="20"/>
  <text x="875" y="330" fill="#64748B" font-size="8" text-anchor="middle">tap</text>

  <!-- ═══════════════════════════════════════════════════ -->
  <!-- PHONE 2: Review & Pay (customer pays on phone)      -->
  <!-- Admin setting: QR Ordering > Order Review UI        -->
  <!--   (pos_qr_settings.payment_mode, tip_presets)        -->
  <!-- ═══════════════════════════════════════════════════ -->
  <g transform="translate(893,96)" filter="url(#phoneShadow)">
    <use href="#phoneFrame" width="194" height="422"/>

    <!-- Header -->
    <rect x="5" y="23" width="184" height="40" rx="0" fill="#F8FAFC"/>
    <rect x="5" y="63" width="184" height="1" fill="#E2E8F0"/>
    <text x="97" y="38" fill="#1E293B" font-size="12" font-weight="700" text-anchor="middle">Your Order</text>
    <text x="97" y="54" fill="#64748B" font-size="10" text-anchor="middle">Table 4 · Synalux Bistro</text>
    <text x="14" y="44" fill="#64748B" font-size="13">&#x2190;</text>

    <!-- Order items -->
    <!-- Admin setting: Menu > Items data drives what appears here -->
    <rect x="10" y="68" width="174" height="60" rx="8" fill="#F8FAFC" stroke="#E2E8F0" stroke-width="1"/>
    <text x="18" y="82" fill="#1E293B" font-size="11" font-weight="700">Classic Burger</text>
    <rect x="146" y="73" width="32" height="18" rx="5" fill="#F1F5F9" stroke="#E2E8F0" stroke-width="1"/>
    <text x="155" y="85" fill="#1E293B" font-size="8">- 1 +</text>
    <text x="18" y="96" fill="#64748B" font-size="9">No onions, add bacon</text>
    <text x="166" y="112" fill="#1E293B" font-size="11" font-weight="700" text-anchor="end">$18.00</text>
    <text x="18" y="112" fill="#F59E0B" font-size="9">customize &#x203A;</text>

    <rect x="10" y="132" width="174" height="52" rx="8" fill="#F8FAFC" stroke="#E2E8F0" stroke-width="1"/>
    <text x="18" y="146" fill="#1E293B" font-size="11" font-weight="700">Craft Beer</text>
    <rect x="146" y="137" width="32" height="18" rx="5" fill="#F1F5F9" stroke="#E2E8F0" stroke-width="1"/>
    <text x="155" y="149" fill="#1E293B" font-size="8">- 1 +</text>
    <text x="18" y="160" fill="#64748B" font-size="9">Local IPA · 16oz</text>
    <text x="166" y="172" fill="#1E293B" font-size="11" font-weight="700" text-anchor="end">$9.00</text>

    <!-- Subtotal -->
    <rect x="10" y="190" width="174" height="1" fill="#E2E8F0"/>
    <text x="18" y="206" fill="#64748B" font-size="10">Subtotal</text>
    <text x="178" y="206" fill="#1E293B" font-size="10" font-weight="700" text-anchor="end">$27.00</text>
    <text x="18" y="220" fill="#64748B" font-size="10">Tax (8.875%)</text>
    <text x="178" y="220" fill="#1E293B" font-size="10" text-anchor="end">$2.39</text>

    <!-- Tip -->
    <!-- Admin setting: QR Ordering > Tip Presets (pos_qr_settings.tip_presets) -->
    <text x="18" y="236" fill="#64748B" font-size="10">Tip</text>
    <use href="#editAffordance" x="36" y="226" width="10" height="10"/>
    <rect x="52" y="226" width="28" height="16" rx="4" fill="#F1F5F9" stroke="#E2E8F0" stroke-width="1"/>
    <text x="66" y="237" fill="#64748B" font-size="8" text-anchor="middle">18%</text>
    <rect x="84" y="226" width="28" height="16" rx="4" fill="#F59E0B"/>
    <text x="98" y="237" fill="#FFFFFF" font-size="8" font-weight="700" text-anchor="middle">20%</text>
    <rect x="116" y="226" width="28" height="16" rx="4" fill="#F1F5F9" stroke="#E2E8F0" stroke-width="1"/>
    <text x="130" y="237" fill="#64748B" font-size="8" text-anchor="middle">25%</text>
    <rect x="148" y="226" width="34" height="16" rx="4" fill="#F1F5F9" stroke="#E2E8F0" stroke-width="1"/>
    <text x="165" y="237" fill="#64748B" font-size="8" text-anchor="middle">Custom</text>

    <text x="18" y="254" fill="#64748B" font-size="10">Tip amount</text>
    <text x="178" y="254" fill="#1E293B" font-size="10" text-anchor="end">$5.40</text>
    <rect x="10" y="260" width="174" height="1" fill="#E2E8F0"/>
    <text x="18" y="276" fill="#1E293B" font-size="12" font-weight="700">Total</text>
    <text x="178" y="276" fill="#1E293B" font-size="14" font-weight="700" text-anchor="end">$34.79</text>

    <!-- Apple Pay -->
    <rect x="10" y="282" width="174" height="30" rx="8" fill="#000000"/>
    <text x="97" y="301" fill="#FFFFFF" font-size="11" font-weight="700" text-anchor="middle">&#xF8FF; Pay</text>

    <!-- Pay with Card -->
    <rect x="10" y="317" width="174" height="26" rx="8" fill="#FFFFFF" stroke="#CBD5E1" stroke-width="1.5"/>
    <text x="97" y="334" fill="#1E293B" font-size="11" font-weight="600" text-anchor="middle">Pay with Card</text>

    <!-- Call server -->
    <!-- Admin setting: QR Ordering > Call Server (pos_qr_settings.call_server_enabled) -->
    <rect x="10" y="349" width="174" height="24" rx="8" fill="#FFFFFF" stroke="#0D9488" stroke-width="1.5"/>
    <text x="97" y="365" fill="#0D9488" font-size="10" font-weight="600" text-anchor="middle">Call Your Server</text>
    <use href="#editAffordance" x="170" y="352" width="10" height="10"/>
  </g>

  <!-- ─── ARROW: Phone 2 → KDS ─── -->
  <use href="#flowArrow" x="1090" y="300" width="30" height="20"/>
  <text x="1105" y="330" fill="#64748B" font-size="8" text-anchor="middle">order</text>

  <!-- ═══════════════════════════════════════════════════ -->
  <!-- KDS / REGISTER VIEW: Order arrives at kitchen       -->
  <!-- Admin setting: KDS > Display Settings               -->
  <!--   (pos_kds_settings — layout, ticket style, alerts) -->
  <!-- ═══════════════════════════════════════════════════ -->
  <g transform="translate(1085,96)">
    <!-- KDS frame (iPad-style landscape) -->
    <rect width="270" height="422" rx="12" fill="url(#phoneFrameGrad)" filter="url(#phoneShadow)"/>
    <rect x="3" y="3" width="264" height="416" rx="9" fill="#0C0E1A"/>

    <!-- KDS header bar -->
    <!-- Admin setting: KDS > Header (pos_kds_settings.header_color) -->
    <rect x="3" y="3" width="264" height="32" rx="9" fill="#161930"/>
    <rect x="3" y="26" width="264" height="9" fill="#161930"/>
    <rect x="3" y="35" width="264" height="1" fill="#1E2235"/>
    <text x="16" y="22" fill="#F59E0B" font-size="11" font-weight="700">Kitchen Display</text>
    <use href="#editAffordance" x="105" y="10" width="12" height="12"/>
    <!-- Order count badge -->
    <rect x="220" y="9" width="40" height="18" rx="4" fill="#EF4444" fill-opacity="0.2"/>
    <text x="240" y="22" fill="#EF4444" font-size="10" font-weight="700" text-anchor="middle">3 new</text>

    <!-- ─── KDS Ticket 1: NEW ORDER from QR (highlighted) ─── -->
    <!-- Admin setting: KDS > Ticket Layout (pos_kds_settings.ticket_layout) -->
    <rect x="8" y="42" width="252" height="130" rx="6" fill="url(#cardGrad)" stroke="#F59E0B" stroke-width="1.5"/>
    <!-- Ticket header -->
    <rect x="8" y="42" width="252" height="26" rx="6" fill="#F59E0B" fill-opacity="0.15"/>
    <rect x="8" y="62" width="252" height="6" fill="#F59E0B" fill-opacity="0.15"/>
    <use href="#editAffordance" x="246" y="45" width="10" height="10"/>
    <text x="16" y="58" fill="#F59E0B" font-size="11" font-weight="700">NEW — Table 4</text>
    <rect x="108" y="45" width="48" height="16" rx="4" fill="#F59E0B" fill-opacity="0.3"/>
    <text x="132" y="57" fill="#F59E0B" font-size="9" font-weight="700" text-anchor="middle">QR Order</text>
    <text x="208" y="57" fill="#94A3B8" font-size="9">12:34 PM</text>

    <!-- Order items on ticket -->
    <text x="16" y="82" fill="#F1F5F9" font-size="11" font-weight="700">1x Classic Burger</text>
    <text x="24" y="96" fill="#F59E0B" font-size="9">MOD: No onions, add bacon</text>
    <text x="16" y="112" fill="#F1F5F9" font-size="11" font-weight="700">1x Craft Beer</text>
    <text x="24" y="126" fill="#94A3B8" font-size="9">Local IPA · 16oz</text>

    <!-- Order progress -->
    <rect x="8" y="135" width="252" height="1" fill="#1E2235"/>
    <!-- Progress bar -->
    <use href="#progressDone" x="40" y="143" width="16" height="16"/>
    <line x1="56" y1="151" x2="78" y2="151" stroke="#22C55E" stroke-width="1.5"/>
    <use href="#progressActive" x="78" y="143" width="16" height="16"/>
    <line x1="94" y1="151" x2="116" y2="151" stroke="#2A2E45" stroke-width="1.5"/>
    <use href="#progressPending" x="116" y="143" width="16" height="16"/>
    <line x1="132" y1="151" x2="154" y2="151" stroke="#2A2E45" stroke-width="1.5"/>
    <use href="#progressPending" x="154" y="143" width="16" height="16"/>

    <text x="48" y="168" fill="#22C55E" font-size="7" text-anchor="middle">Received</text>
    <text x="86" y="168" fill="#F59E0B" font-size="7" text-anchor="middle">Prep</text>
    <text x="124" y="168" fill="#64748B" font-size="7" text-anchor="middle">Ready</text>
    <text x="162" y="168" fill="#64748B" font-size="7" text-anchor="middle">Served</text>

    <!-- ─── KDS Ticket 2: In-progress order ─── -->
    <rect x="8" y="178" width="252" height="88" rx="6" fill="url(#cardGrad)" stroke="#1E2235" stroke-width="1"/>
    <rect x="8" y="178" width="252" height="24" rx="6" fill="#22C55E" fill-opacity="0.1"/>
    <rect x="8" y="196" width="252" height="6" fill="#22C55E" fill-opacity="0.1"/>
    <text x="16" y="194" fill="#22C55E" font-size="11" font-weight="700">Table 2 — In Progress</text>
    <rect x="152" y="181" width="48" height="16" rx="4" fill="#22C55E" fill-opacity="0.2"/>
    <text x="176" y="193" fill="#22C55E" font-size="9" font-weight="700" text-anchor="middle">QR Order</text>
    <text x="208" y="193" fill="#94A3B8" font-size="9">12:21 PM</text>
    <text x="16" y="218" fill="#F1F5F9" font-size="10">2x Margherita Pizza</text>
    <text x="16" y="232" fill="#F1F5F9" font-size="10">1x Caesar Salad</text>
    <text x="16" y="246" fill="#F1F5F9" font-size="10">3x Lemonade</text>
    <!-- Timer -->
    <rect x="200" y="246" width="52" height="16" rx="4" fill="#F59E0B" fill-opacity="0.15"/>
    <text x="226" y="257" fill="#F59E0B" font-size="9" font-weight="700" text-anchor="middle">13 min</text>

    <!-- ─── KDS Ticket 3: Almost ready ─── -->
    <rect x="8" y="272" width="252" height="68" rx="6" fill="url(#cardGrad)" stroke="#1E2235" stroke-width="1"/>
    <rect x="8" y="272" width="252" height="24" rx="6" fill="#60A5FA" fill-opacity="0.1"/>
    <rect x="8" y="290" width="252" height="6" fill="#60A5FA" fill-opacity="0.1"/>
    <text x="16" y="288" fill="#60A5FA" font-size="11" font-weight="700">Table 7 — Almost Ready</text>
    <rect x="168" y="275" width="38" height="16" rx="4" fill="#60A5FA" fill-opacity="0.2"/>
    <text x="187" y="287" fill="#60A5FA" font-size="9" font-weight="700" text-anchor="middle">POS</text>
    <text x="220" y="287" fill="#94A3B8" font-size="9">12:08 PM</text>
    <text x="16" y="310" fill="#F1F5F9" font-size="10">1x Ribeye Steak (medium)</text>
    <text x="16" y="324" fill="#F1F5F9" font-size="10">1x Truffle Fries</text>
    <rect x="200" y="318" width="52" height="16" rx="4" fill="#EF4444" fill-opacity="0.15"/>
    <text x="226" y="329" fill="#EF4444" font-size="9" font-weight="700" text-anchor="middle">26 min</text>

    <!-- ─── Register summary bar at bottom ─── -->
    <!-- Admin setting: KDS > Summary Bar (pos_kds_settings.show_summary) -->
    <rect x="3" y="346" width="264" height="1" fill="#1E2235"/>
    <rect x="3" y="347" width="264" height="72" rx="0" fill="#161930"/>
    <rect x="3" y="411" width="264" height="8" rx="0" fill="#161930"/>
    <text x="16" y="366" fill="#F1F5F9" font-size="11" font-weight="700">Register Summary</text>
    <use href="#editAffordance" x="112" y="355" width="10" height="10"/>

    <text x="16" y="382" fill="#94A3B8" font-size="10">QR orders today</text>
    <text x="130" y="382" fill="#F1F5F9" font-size="10" font-weight="700">34</text>
    <text x="150" y="382" fill="#94A3B8" font-size="10">Revenue</text>
    <text x="252" y="382" fill="#22C55E" font-size="10" font-weight="700" text-anchor="end">$1,240.00</text>

    <text x="16" y="398" fill="#94A3B8" font-size="10">Avg ticket</text>
    <text x="130" y="398" fill="#F1F5F9" font-size="10" font-weight="700">$36.47</text>
    <text x="150" y="398" fill="#94A3B8" font-size="10">Pending</text>
    <text x="252" y="398" fill="#F59E0B" font-size="10" font-weight="700" text-anchor="end">3 orders</text>

    <!-- Mark Ready button -->
    <rect x="8" y="404" width="120" height="24" rx="6" fill="url(#greenBtnGrad)"/>
    <text x="68" y="420" fill="#0C0E1A" font-size="10" font-weight="700" text-anchor="middle">Mark T4 Ready</text>

    <!-- Bump button -->
    <rect x="134" y="404" width="128" height="24" rx="6" fill="url(#cardGrad)" stroke="#2A2E45" stroke-width="1"/>
    <text x="198" y="420" fill="#F1F5F9" font-size="10" text-anchor="middle">Bump All Ready</text>
  </g>

  <!-- ═══════════════════════════════════════════════════ -->
  <!-- BOTTOM WORKFLOW STRIP (full width)                  -->
  <!-- Admin setting: Integration > Flow Description       -->
  <!--   (pos_integration_settings — routing, DB tables)   -->
  <!-- ═══════════════════════════════════════════════════ -->
  <rect x="0" y="920" width="1366" height="104" fill="url(#bgGrad)"/>
  <rect x="8" y="924" width="1350" height="92" rx="10" fill="url(#cardGrad)" stroke="#F59E0B" stroke-width="1.5" filter="url(#cardShadow)"/>

  <!-- Flow label -->
  <text x="24" y="944" fill="#F59E0B" font-size="10" font-weight="700">INTEGRATION FLOW</text>
  <use href="#editAffordance" x="118" y="933" width="12" height="12"/>
  <rect x="24" y="950" width="1318" height="1" fill="#2A2E45"/>

  <!-- Flow text line 1 -->
  <text x="683" y="966" fill="#94A3B8" font-size="10.5" text-anchor="middle">
    Guest scans QR  &#x2192;  loads synalux.ai/qr/{location_id}/{table_id} (no app install)  &#x2192;  selects items  &#x2192;  order inserted in pos_orders with source='qr_table'
  </text>
  <!-- Flow text line 2 -->
  <text x="683" y="984" fill="#94A3B8" font-size="10.5" text-anchor="middle">
    &#x2192;  KDS receives via WebSocket + push notification  &#x2192;  server confirms  &#x2192;  guest pays via Stripe or adds to table bill  &#x2192;  pos_payments linked to pos_orders
  </text>
  <!-- Flow text line 3 -->
  <text x="683" y="1002" fill="#64748B" font-size="10" text-anchor="middle">
    Revenue tracked per-table in pos_revenue_centers  ·  All QR sessions expire after 45 min  ·  Real-time order updates via WebSocket
  </text>

  <!-- Flow icons -->
  <circle cx="24" cy="984" r="5" fill="#F59E0B"/>
  <text x="35" y="988" fill="#F59E0B" font-size="9" font-weight="700">QR</text>
  <circle cx="1330" cy="984" r="5" fill="#22C55E"/>
  <text x="1320" y="988" fill="#22C55E" font-size="9" font-weight="700" text-anchor="end">LIVE</text>

</svg>