<svg xmlns="http://www.w3.org/2000/svg" viewBox="0 0 390 844" font-family="system-ui,-apple-system,sans-serif">
  <!-- iPhone frame -->
  <rect width="390" height="844" rx="40" fill="#1A1D2E"/>
  <rect x="2" y="2" width="386" height="840" rx="38" fill="#0F1117"/>

  <!-- Status bar -->
  <rect x="0" y="0" width="390" height="50" rx="40" fill="#0F1117"/>
  <rect x="0" y="40" width="390" height="10" fill="#0F1117"/>
  <!-- Notch -->
  <rect x="120" y="0" width="150" height="34" rx="17" fill="#1A1D2E"/>
  <text x="30" y="22" fill="#E2E8F0" font-size="13" font-weight="600">9:41</text>
  <text x="330" y="22" fill="#E2E8F0" font-size="11" text-anchor="middle">● ● ▲</text>

  <!-- App header -->
  <rect x="0" y="50" width="390" height="56" fill="#13162A"/>
  <text x="20" y="73" fill="#F59E0B" font-size="16" font-weight="700">Synalux Manager</text>
  <text x="20" y="92" fill="#94A3B8" font-size="12">Riverside Grill · Today</text>
  <circle cx="355" cy="70" r="22" fill="#1E2235"/>
  <text x="355" y="77" fill="#E2E8F0" font-size="18" text-anchor="middle">👤</text>

  <!-- Quick stats row -->
  <rect x="0" y="106" width="390" height="1" fill="#2D3050"/>
  <rect x="0" y="107" width="390" height="86" fill="#13162A"/>

  <!-- Revenue card -->
  <rect x="12" y="116" width="112" height="68" rx="10" fill="#1A1D2E"/>
  <text x="68" y="134" fill="#64748B" font-size="10" font-weight="700" text-anchor="middle">TODAY</text>
  <text x="68" y="156" fill="#F59E0B" font-size="18" font-weight="700" text-anchor="middle">$4,230</text>
  <text x="68" y="174" fill="#22C55E" font-size="10" text-anchor="middle">↑ 12% vs yesterday</text>

  <!-- Covers card -->
  <rect x="138" y="116" width="112" height="68" rx="10" fill="#1A1D2E"/>
  <text x="194" y="134" fill="#64748B" font-size="10" font-weight="700" text-anchor="middle">COVERS</text>
  <text x="194" y="156" fill="#E2E8F0" font-size="18" font-weight="700" text-anchor="middle">127</text>
  <text x="194" y="174" fill="#22C55E" font-size="10" text-anchor="middle">↑ 8 vs yesterday</text>

  <!-- Avg check -->
  <rect x="266" y="116" width="112" height="68" rx="10" fill="#1A1D2E"/>
  <text x="322" y="134" fill="#64748B" font-size="10" font-weight="700" text-anchor="middle">AVG CHECK</text>
  <text x="322" y="156" fill="#E2E8F0" font-size="18" font-weight="700" text-anchor="middle">$33.30</text>
  <text x="322" y="174" fill="#94A3B8" font-size="10" text-anchor="middle">Target: $35.00</text>

  <!-- Section: Live Floor Status -->
  <rect x="0" y="193" width="390" height="1" fill="#2D3050"/>
  <text x="20" y="218" fill="#64748B" font-size="11" font-weight="700" letter-spacing="1">LIVE FLOOR</text>
  <text x="370" y="218" fill="#60A5FA" font-size="12" text-anchor="end">See All</text>

  <!-- Table tiles -->
  <rect x="12" y="226" width="82" height="72" rx="10" fill="#2D1A00" stroke="#F59E0B" stroke-width="1"/>
  <text x="53" y="248" fill="#F59E0B" font-size="14" font-weight="700" text-anchor="middle">T3</text>
  <text x="53" y="264" fill="#EF4444" font-size="10" text-anchor="middle">⚠ 78min</text>
  <text x="53" y="280" fill="#F59E0B" font-size="11" font-weight="600" text-anchor="middle">$124</text>
  <text x="53" y="293" fill="#64748B" font-size="9" text-anchor="middle">5 guests</text>

  <rect x="102" y="226" width="82" height="72" rx="10" fill="#2D1A00" stroke="#F59E0B" stroke-width="1"/>
  <text x="143" y="248" fill="#F59E0B" font-size="14" font-weight="700" text-anchor="middle">T4</text>
  <text x="143" y="264" fill="#94A3B8" font-size="10" text-anchor="middle">12 min</text>
  <text x="143" y="280" fill="#F59E0B" font-size="11" font-weight="600" text-anchor="middle">$32</text>
  <text x="143" y="293" fill="#64748B" font-size="9" text-anchor="middle">2 guests</text>

  <rect x="192" y="226" width="82" height="72" rx="10" fill="#2D1A00" stroke="#F59E0B" stroke-width="1"/>
  <text x="233" y="248" fill="#F59E0B" font-size="14" font-weight="700" text-anchor="middle">T7</text>
  <text x="233" y="264" fill="#94A3B8" font-size="10" text-anchor="middle">28 min</text>
  <text x="233" y="280" fill="#F59E0B" font-size="11" font-weight="600" text-anchor="middle">$54</text>
  <text x="233" y="293" fill="#64748B" font-size="9" text-anchor="middle">4 guests</text>

  <rect x="282" y="226" width="96" height="72" rx="10" fill="#0D2B12" stroke="#22C55E" stroke-width="1"/>
  <text x="330" y="248" fill="#22C55E" font-size="13" font-weight="700" text-anchor="middle">7 Open</text>
  <text x="330" y="264" fill="#64748B" font-size="10" text-anchor="middle">of 18 tables</text>
  <text x="330" y="285" fill="#22C55E" font-size="11" font-weight="600" text-anchor="middle">Available</text>

  <!-- Section: Alerts -->
  <text x="20" y="326" fill="#64748B" font-size="11" font-weight="700" letter-spacing="1">ALERTS</text>
  <rect x="330" y="314" width="48" height="22" rx="6" fill="#EF4444"/>
  <text x="354" y="329" fill="white" font-size="12" font-weight="700" text-anchor="middle">2 new</text>

  <rect x="12" y="334" width="366" height="64" rx="10" fill="#2D0808"/>
  <text x="28" y="354" fill="#EF4444" font-size="18">⚠</text>
  <text x="56" y="354" fill="#EF4444" font-size="13" font-weight="700">Table 3 — Check Requested</text>
  <text x="56" y="372" fill="#94A3B8" font-size="12">Guest at T3 has been waiting 6 min for check</text>
  <text x="56" y="388" fill="#EF4444" font-size="11">78 min total · $124 open · Mike R.</text>
  <text x="354" y="360" fill="#60A5FA" font-size="12" text-anchor="end">Act →</text>

  <rect x="12" y="406" width="366" height="64" rx="10" fill="#2D1A00"/>
  <text x="28" y="426" fill="#F59E0B" font-size="18">⚠</text>
  <text x="56" y="426" fill="#F59E0B" font-size="13" font-weight="700">Low inventory — Salmon (2 left)</text>
  <text x="56" y="444" fill="#94A3B8" font-size="12">86 item or update stock count</text>
  <text x="56" y="460" fill="#64748B" font-size="11">Auto-alert at 3 units</text>
  <text x="354" y="432" fill="#60A5FA" font-size="12" text-anchor="end">Act →</text>

  <!-- Section: Revenue chart (mini) -->
  <text x="20" y="496" fill="#64748B" font-size="11" font-weight="700" letter-spacing="1">TODAY vs YESTERDAY</text>
  <rect x="12" y="504" width="366" height="100" rx="10" fill="#13162A"/>

  <!-- Chart bars -->
  <rect x="32" y="564" width="14" height="30" rx="3" fill="#2D3050"/>
  <rect x="32" y="554" width="14" height="10" rx="3" fill="#F59E0B" opacity="0.6"/>
  <text x="39" y="580" fill="#64748B" font-size="8" text-anchor="middle">10a</text>

  <rect x="64" y="547" width="14" height="47" rx="3" fill="#2D3050"/>
  <rect x="64" y="539" width="14" height="8" rx="3" fill="#F59E0B" opacity="0.6"/>
  <text x="71" y="580" fill="#64748B" font-size="8" text-anchor="middle">11a</text>

  <rect x="96" y="530" width="14" height="64" rx="3" fill="#2D3050"/>
  <rect x="96" y="520" width="14" height="10" rx="3" fill="#F59E0B"/>
  <text x="103" y="580" fill="#64748B" font-size="8" text-anchor="middle">12p</text>

  <rect x="128" y="534" width="14" height="60" rx="3" fill="#2D3050"/>
  <rect x="128" y="522" width="14" height="12" rx="3" fill="#F59E0B"/>
  <text x="135" y="580" fill="#64748B" font-size="8" text-anchor="middle">1p</text>

  <rect x="160" y="540" width="14" height="54" rx="3" fill="#2D3050"/>
  <rect x="160" y="536" width="14" height="4" rx="3" fill="#F59E0B"/>
  <text x="167" y="580" fill="#64748B" font-size="8" text-anchor="middle">2p</text>

  <rect x="192" y="554" width="14" height="40" rx="3" fill="#2D3050"/>
  <text x="199" y="580" fill="#64748B" font-size="8" text-anchor="middle">3p</text>

  <rect x="224" y="560" width="14" height="34" rx="3" fill="#2D3050"/>
  <text x="231" y="580" fill="#64748B" font-size="8" text-anchor="middle">4p</text>

  <!-- Legend -->
  <rect x="240" y="512" width="12" height="8" rx="2" fill="#F59E0B"/>
  <text x="256" y="519" fill="#94A3B8" font-size="9">Today</text>
  <rect x="300" y="512" width="12" height="8" rx="2" fill="#2D3050"/>
  <text x="316" y="519" fill="#94A3B8" font-size="9">Yesterday</text>

  <!-- Staff on duty -->
  <text x="20" y="628" fill="#64748B" font-size="11" font-weight="700" letter-spacing="1">STAFF ON DUTY</text>
  <text x="370" y="628" fill="#60A5FA" font-size="12" text-anchor="end">Manage</text>

  <rect x="12" y="636" width="366" height="56" rx="10" fill="#13162A"/>
  <circle cx="44" cy="664" r="16" fill="#1E2235"/>
  <text x="44" y="669" fill="#E2E8F0" font-size="14" text-anchor="middle">JS</text>
  <circle cx="90" cy="664" r="16" fill="#1E2235"/>
  <text x="90" y="669" fill="#E2E8F0" font-size="14" text-anchor="middle">SR</text>
  <circle cx="136" cy="664" r="16" fill="#1E2235"/>
  <text x="136" y="669" fill="#E2E8F0" font-size="14" text-anchor="middle">MK</text>
  <circle cx="182" cy="664" r="16" fill="#1E2235"/>
  <text x="182" y="669" fill="#E2E8F0" font-size="14" text-anchor="middle">LW</text>
  <circle cx="228" cy="664" r="16" fill="#1E2235"/>
  <text x="228" y="669" fill="#E2E8F0" font-size="14" text-anchor="middle">+4</text>
  <text x="270" y="664" fill="#94A3B8" font-size="12">8 clocked in</text>
  <text x="370" y="659" fill="#22C55E" font-size="12" text-anchor="end">All present</text>

  <!-- Bottom nav bar -->
  <rect x="0" y="770" width="390" height="74" fill="#13162A"/>
  <rect x="0" y="770" width="390" height="1" fill="#2D3050"/>

  <!-- Nav items -->
  <rect x="0" y="770" width="390" height="74" rx="0" fill="#13162A"/>

  <text x="48" y="800" font-size="20" text-anchor="middle">🏠</text>
  <text x="48" y="818" fill="#F59E0B" font-size="10" font-weight="700" text-anchor="middle">Home</text>

  <text x="126" y="800" font-size="20" text-anchor="middle">📋</text>
  <text x="126" y="818" fill="#64748B" font-size="10" text-anchor="middle">Orders</text>

  <text x="195" y="800" font-size="20" text-anchor="middle">📊</text>
  <text x="195" y="818" fill="#64748B" font-size="10" text-anchor="middle">Reports</text>

  <text x="264" y="800" font-size="20" text-anchor="middle">👥</text>
  <text x="264" y="818" fill="#64748B" font-size="10" text-anchor="middle">Staff</text>

  <text x="342" y="800" font-size="20" text-anchor="middle">⚙️</text>
  <text x="342" y="818" fill="#64748B" font-size="10" text-anchor="middle">Settings</text>

  <!-- Home indicator -->
  <rect x="140" y="830" width="110" height="5" rx="3" fill="#2D3050"/>
</svg>
