<svg xmlns="http://www.w3.org/2000/svg" viewBox="0 0 1440 900" font-family="system-ui,-apple-system,sans-serif">
  <!-- Background -->
  <rect width="1440" height="900" fill="#FAFAF8"/>

  <!-- Top navigation -->
  <rect x="0" y="0" width="1440" height="72" fill="white"/>
  <rect x="0" y="72" width="1440" height="1" fill="#E5E7EB"/>

  <!-- Logo -->
  <rect x="32" y="18" width="44" height="36" rx="8" fill="#F59E0B"/>
  <text x="54" y="42" fill="white" font-size="20" font-weight="700" text-anchor="middle">S</text>
  <text x="86" y="40" fill="#1A1A1A" font-size="18" font-weight="700">Riverside Grill</text>

  <!-- Order type selector -->
  <rect x="400" y="16" width="220" height="40" rx="8" fill="#F3F4F6"/>
  <rect x="402" y="18" width="106" height="36" rx="6" fill="white"/>
  <text x="455" y="41" fill="#1A1A1A" font-size="14" font-weight="600" text-anchor="middle">🍽 Dine-In</text>
  <text x="565" y="41" fill="#6B7280" font-size="14" text-anchor="middle">📦 Takeout</text>

  <!-- Location + time -->
  <text x="660" y="31" fill="#6B7280" font-size="13" text-anchor="middle">📍 123 Main St</text>
  <text x="660" y="50" fill="#6B7280" font-size="13" text-anchor="middle">⏱ 15–25 min</text>

  <!-- Language selector -->
  <rect x="900" y="20" width="80" height="34" rx="6" fill="#F3F4F6"/>
  <text x="940" y="42" fill="#6B7280" font-size="13" text-anchor="middle">🌐 EN</text>

  <!-- Search -->
  <rect x="1000" y="20" width="280" height="34" rx="8" fill="#F3F4F6"/>
  <text x="1016" y="41" fill="#9CA3AF" font-size="14">🔍  Search menu...</text>

  <!-- Cart button -->
  <rect x="1305" y="16" width="106" height="40" rx="8" fill="#F59E0B"/>
  <text x="1358" y="41" fill="white" font-size="14" font-weight="700" text-anchor="middle">🛒 Cart (3)</text>

  <!-- Hero banner -->
  <rect x="0" y="73" width="1440" height="140" fill="#1A1A1A"/>
  <!-- Hero gradient -->
  <defs>
    <linearGradient id="heroGrad" x1="0%" y1="0%" x2="100%" y2="0%">
      <stop offset="0%" style="stop-color:#1A1A1A;stop-opacity:1"/>
      <stop offset="60%" style="stop-color:#2D1A00;stop-opacity:1"/>
      <stop offset="100%" style="stop-color:#F59E0B;stop-opacity:0.3"/>
    </linearGradient>
  </defs>
  <rect x="0" y="73" width="1440" height="140" fill="url(#heroGrad)"/>

  <!-- Food photography placeholders (colored blocks) -->
  <rect x="900" y="80" width="200" height="120" rx="12" fill="#2D1A00" opacity="0.8"/>
  <text x="1000" y="148" font-size="52" text-anchor="middle">🍔</text>

  <rect x="1110" y="80" width="180" height="120" rx="12" fill="#1A2D00" opacity="0.8"/>
  <text x="1200" y="148" font-size="52" text-anchor="middle">🥗</text>

  <rect x="1300" y="80" width="128" height="120" rx="12" fill="#2D1A00" opacity="0.8"/>
  <text x="1364" y="148" font-size="52" text-anchor="middle">🍺</text>

  <!-- Hero text -->
  <text x="48" y="120" fill="white" font-size="26" font-weight="700">Order Online</text>
  <text x="48" y="148" fill="#FCD34D" font-size="14">Fresh · Hot · Ready in 20 min</text>
  <text x="48" y="170" fill="#9CA3AF" font-size="13">Free delivery over $40 · Pickup discount 5%</text>

  <!-- Category navigation (sticky horizontal bar) -->
  <rect x="0" y="213" width="1440" height="52" fill="white"/>
  <rect x="0" y="265" width="1440" height="1" fill="#E5E7EB"/>

  <!-- Category pills -->
  <rect x="32" y="224" width="80" height="30" rx="15" fill="#F59E0B"/>
  <text x="72" y="244" fill="white" font-size="13" font-weight="700" text-anchor="middle">🍔 Burgers</text>

  <rect x="124" y="224" width="72" height="30" rx="15" fill="#F3F4F6"/>
  <text x="160" y="244" fill="#6B7280" font-size="13" text-anchor="middle">🍟 Sides</text>

  <rect x="208" y="224" width="72" height="30" rx="15" fill="#F3F4F6"/>
  <text x="244" y="244" fill="#6B7280" font-size="13" text-anchor="middle">🥤 Drinks</text>

  <rect x="292" y="224" width="90" height="30" rx="15" fill="#F3F4F6"/>
  <text x="337" y="244" fill="#6B7280" font-size="13" text-anchor="middle">🍰 Desserts</text>

  <rect x="394" y="224" width="76" height="30" rx="15" fill="#F3F4F6"/>
  <text x="432" y="244" fill="#6B7280" font-size="13" text-anchor="middle">⭐ Specials</text>

  <rect x="482" y="224" width="70" height="30" rx="15" fill="#F3F4F6"/>
  <text x="517" y="244" fill="#6B7280" font-size="13" text-anchor="middle">🎁 Combos</text>

  <rect x="564" y="224" width="70" height="30" rx="15" fill="#F3F4F6"/>
  <text x="599" y="244" fill="#6B7280" font-size="13" text-anchor="middle">🍺 Bar</text>

  <rect x="646" y="224" width="70" height="30" rx="15" fill="#F3F4F6"/>
  <text x="681" y="244" fill="#6B7280" font-size="13" text-anchor="middle">🧒 Kids</text>

  <!-- Dietary filters -->
  <rect x="790" y="224" width="70" height="30" rx="15" fill="#F0FDF4" stroke="#22C55E" stroke-width="1"/>
  <text x="825" y="244" fill="#16A34A" font-size="12" text-anchor="middle">🌱 Vegan</text>

  <rect x="872" y="224" width="84" height="30" rx="15" fill="#F0FDF4" stroke="#22C55E" stroke-width="1"/>
  <text x="914" y="244" fill="#16A34A" font-size="12" text-anchor="middle">🌾 GF</text>

  <!-- AI ordering chip -->
  <rect x="1200" y="221" width="220" height="36" rx="18" fill="#7C3AED"/>
  <text x="1310" y="244" fill="white" font-size="13" font-weight="700" text-anchor="middle">🤖 Ask AI to Order</text>

  <!-- Main content area - 2 columns -->
  <!-- Category section header -->
  <text x="32" y="296" fill="#1A1A1A" font-size="20" font-weight="700">🍔 Burgers</text>
  <text x="200" y="296" fill="#6B7280" font-size="14">8 items</text>

  <!-- Item card grid - 3 per row -->
  <!-- Item 1 - Classic Burger -->
  <rect x="32" y="308" width="428" height="180" rx="16" fill="white" stroke="#F3F4F6" stroke-width="1"/>
  <!-- Food photo area -->
  <rect x="32" y="308" width="428" height="100" rx="16" fill="#FEF3C7"/>
  <rect x="32" y="368" width="428" height="40" fill="#FEF3C7"/>
  <text x="246" y="370" font-size="60" text-anchor="middle">🍔</text>
  <!-- Badges -->
  <rect x="48" y="320" width="52" height="22" rx="6" fill="#22C55E"/>
  <text x="74" y="335" fill="white" font-size="11" font-weight="700" text-anchor="middle">Popular</text>
  <!-- Item info -->
  <text x="48" y="432" fill="#1A1A1A" font-size="16" font-weight="700">Classic Burger</text>
  <text x="48" y="452" fill="#6B7280" font-size="13">House-ground beef, lettuce, tomato, pickles</text>
  <text x="48" y="472" fill="#F59E0B" font-size="16" font-weight="700">$12.00</text>
  <!-- Add button -->
  <rect x="360" y="460" width="84" height="32" rx="8" fill="#F59E0B"/>
  <text x="402" y="480" fill="white" font-size="14" font-weight="700" text-anchor="middle">+ Add</text>

  <!-- Item 2 - Double Smash -->
  <rect x="478" y="308" width="428" height="180" rx="16" fill="white" stroke="#F3F4F6" stroke-width="1"/>
  <rect x="478" y="308" width="428" height="100" rx="16" fill="#FEE2E2"/>
  <rect x="478" y="368" width="428" height="40" fill="#FEE2E2"/>
  <text x="692" y="370" font-size="60" text-anchor="middle">🍔</text>
  <rect x="494" y="320" width="60" height="22" rx="6" fill="#EF4444"/>
  <text x="524" y="335" fill="white" font-size="11" font-weight="700" text-anchor="middle">🔥 Spicy</text>
  <text x="494" y="432" fill="#1A1A1A" font-size="16" font-weight="700">Double Smash Burger</text>
  <text x="494" y="452" fill="#6B7280" font-size="13">2× smash patties, American cheese, special sauce</text>
  <text x="494" y="472" fill="#F59E0B" font-size="16" font-weight="700">$16.00</text>
  <rect x="806" y="460" width="84" height="32" rx="8" fill="#F59E0B"/>
  <text x="848" y="480" fill="white" font-size="14" font-weight="700" text-anchor="middle">+ Add</text>

  <!-- Item 3 - Vegan Burger -->
  <rect x="924" y="308" width="428" height="180" rx="16" fill="white" stroke="#F3F4F6" stroke-width="1"/>
  <rect x="924" y="308" width="428" height="100" rx="16" fill="#DCFCE7"/>
  <rect x="924" y="368" width="428" height="40" fill="#DCFCE7"/>
  <text x="1138" y="370" font-size="60" text-anchor="middle">🌱</text>
  <rect x="940" y="320" width="52" height="22" rx="6" fill="#22C55E"/>
  <text x="966" y="335" fill="white" font-size="11" font-weight="700" text-anchor="middle">Vegan</text>
  <rect x="1000" y="320" width="52" height="22" rx="6" fill="#16A34A"/>
  <text x="1026" y="335" fill="white" font-size="11" font-weight="700" text-anchor="middle">GF</text>
  <text x="940" y="432" fill="#1A1A1A" font-size="16" font-weight="700">Impossible Burger</text>
  <text x="940" y="452" fill="#6B7280" font-size="13">Plant-based patty, vegan cheese, avocado</text>
  <text x="940" y="472" fill="#F59E0B" font-size="16" font-weight="700">$14.00</text>
  <rect x="1252" y="460" width="84" height="32" rx="8" fill="#F59E0B"/>
  <text x="1294" y="480" fill="white" font-size="14" font-weight="700" text-anchor="middle">+ Add</text>

  <!-- Second row of items -->
  <!-- Item 4 - BBQ Bacon -->
  <rect x="32" y="504" width="428" height="180" rx="16" fill="white" stroke="#F3F4F6" stroke-width="1"/>
  <rect x="32" y="504" width="428" height="100" rx="16" fill="#FEF3C7"/>
  <rect x="32" y="564" width="428" height="40" fill="#FEF3C7"/>
  <text x="246" y="566" font-size="60" text-anchor="middle">🥓</text>
  <text x="48" y="628" fill="#1A1A1A" font-size="16" font-weight="700">BBQ Bacon Burger</text>
  <text x="48" y="648" fill="#6B7280" font-size="13">Beef patty, crispy bacon, BBQ sauce, onion rings</text>
  <text x="48" y="668" fill="#F59E0B" font-size="16" font-weight="700">$15.00</text>
  <rect x="360" y="656" width="84" height="32" rx="8" fill="#F59E0B"/>
  <text x="402" y="676" fill="white" font-size="14" font-weight="700" text-anchor="middle">+ Add</text>

  <!-- Item 5 - Mushroom Swiss -->
  <rect x="478" y="504" width="428" height="180" rx="16" fill="white" stroke="#F3F4F6" stroke-width="1"/>
  <rect x="478" y="504" width="428" height="100" rx="16" fill="#F3F4F6"/>
  <rect x="478" y="564" width="428" height="40" fill="#F3F4F6"/>
  <text x="692" y="566" font-size="60" text-anchor="middle">🍄</text>
  <text x="494" y="628" fill="#1A1A1A" font-size="16" font-weight="700">Mushroom Swiss</text>
  <text x="494" y="648" fill="#6B7280" font-size="13">Beef patty, sautéed mushrooms, Swiss cheese</text>
  <text x="494" y="668" fill="#F59E0B" font-size="16" font-weight="700">$13.50</text>
  <rect x="806" y="656" width="84" height="32" rx="8" fill="#F59E0B"/>
  <text x="848" y="676" fill="white" font-size="14" font-weight="700" text-anchor="middle">+ Add</text>

  <!-- Item 6 - Kids Slider -->
  <rect x="924" y="504" width="428" height="180" rx="16" fill="white" stroke="#F3F4F6" stroke-width="1"/>
  <rect x="924" y="504" width="428" height="100" rx="16" fill="#EFF6FF"/>
  <rect x="924" y="564" width="428" height="40" fill="#EFF6FF"/>
  <text x="1138" y="566" font-size="60" text-anchor="middle">🍔</text>
  <rect x="940" y="516" width="56" height="22" rx="6" fill="#3B82F6"/>
  <text x="968" y="531" fill="white" font-size="11" font-weight="700" text-anchor="middle">Kids</text>
  <text x="940" y="628" fill="#1A1A1A" font-size="16" font-weight="700">Kids Slider (2-pack)</text>
  <text x="940" y="648" fill="#6B7280" font-size="13">Mini beef sliders with ketchup and mild pickles</text>
  <text x="940" y="668" fill="#F59E0B" font-size="16" font-weight="700">$8.00</text>
  <rect x="1252" y="656" width="84" height="32" rx="8" fill="#F59E0B"/>
  <text x="1294" y="676" fill="white" font-size="14" font-weight="700" text-anchor="middle">+ Add</text>

  <!-- Floating cart summary -->
  <rect x="32" y="716" width="1376" height="76" rx="16" fill="#1A1A1A"/>
  <text x="60" y="748" fill="#F59E0B" font-size="20">🛒</text>
  <text x="90" y="744" fill="white" font-size="15" font-weight="700">3 items in cart</text>
  <text x="90" y="764" fill="#9CA3AF" font-size="13">Classic Burger, Large Fries, Pepsi</text>
  <text x="900" y="756" fill="#9CA3AF" font-size="13" text-anchor="middle">Estimated wait: 20 min</text>
  <rect x="1200" y="726" width="188" height="56" rx="10" fill="#F59E0B"/>
  <text x="1294" y="748" fill="white" font-size="15" font-weight="700" text-anchor="middle">View Cart</text>
  <text x="1294" y="768" fill="#FEF3C7" font-size="13" text-anchor="middle">$19.50 →</text>

  <!-- Screen label -->
  <text x="720" y="858" fill="#D1D5DB" font-size="11" text-anchor="middle">Synalux POS — Online Ordering (F23 · Customer Menu View · 1440×900)</text>
</svg>
