<svg xmlns="http://www.w3.org/2000/svg" viewBox="0 0 1440 900" font-family="system-ui,-apple-system,sans-serif">
  <rect width="1440" height="900" fill="#0F1117"/>

  <!-- Left Nav Sidebar -->
  <rect x="0" y="0" width="200" height="900" fill="#13162A"/>
  <text x="16" y="30" font-size="13" font-weight="700" fill="#F59E0B">⚙ Back Office</text>
  <text x="16" y="67" font-size="12" fill="#8B92A5">Restaurant Info</text>
  <text x="16" y="103" font-size="12" fill="#8B92A5">Menu Builder</text>
  <text x="16" y="139" font-size="12" fill="#8B92A5">Taxes</text>
  <text x="16" y="175" font-size="12" fill="#8B92A5">Employees</text>
  <text x="16" y="211" font-size="12" fill="#8B92A5">Equipment</text>
  <text x="16" y="247" font-size="12" fill="#8B92A5">Floor Plans</text>
  <text x="16" y="283" font-size="12" fill="#8B92A5">Payments</text>
  <text x="16" y="319" font-size="12" fill="#8B92A5">Reports</text>
  <text x="16" y="355" font-size="12" fill="#8B92A5">Advantage Prog.</text>
  <rect x="0" y="368" width="200" height="36" fill="#1E2240" rx="4"/>
  <rect x="0" y="368" width="3" height="36" fill="#F59E0B"/>
  <text x="16" y="391" font-size="12" font-weight="600" fill="#F59E0B">Revenue Centers</text>
  <text x="16" y="427" font-size="12" fill="#8B92A5">Integrations</text>

  <!-- Header -->
  <rect x="200" y="0" width="1240" height="56" fill="#1A1D2E"/>
  <text x="220" y="34" font-size="18" font-weight="700" fill="#FFFFFF">Revenue Centers &amp; Rooms</text>
  <text x="220" y="50" font-size="11" fill="#8B92A5">Segment sales by area · assign tax zones · link to floor plan rooms · pos_revenue_centers table</text>
  <rect x="1260" y="12" width="160" height="32" rx="6" fill="#F59E0B"/>
  <text x="1278" y="32" font-size="12" font-weight="600" fill="#000000">+ Add Revenue Center</text>

  <!-- ===== Left: Revenue Center List ===== -->
  <rect x="200" y="56" width="440" height="844" fill="#13162A"/>
  <text x="220" y="84" font-size="13" font-weight="600" fill="#FFFFFF">Revenue Centers</text>
  <text x="380" y="84" font-size="10" fill="#8B92A5">click to configure</text>

  <!-- RC 1 — Main Dining (selected) -->
  <rect x="212" y="92" width="416" height="80" rx="6" fill="#1E2240" stroke="#F59E0B" stroke-width="1"/>
  <rect x="212" y="92" width="6" height="80" rx="3" fill="#F59E0B"/>
  <text x="234" y="116" font-size="14" font-weight="700" fill="#F59E0B">Main Dining</text>
  <text x="234" y="134" font-size="11" fill="#8B92A5">rc_id: RC-001 · 12 tables · 72 covers</text>
  <text x="234" y="150" font-size="10" fill="#8B92A5">Tax zone: CA State + LA County · Menu: Full</text>
  <rect x="540" y="104" width="70" height="20" rx="10" fill="#065F46"/>
  <text x="552" y="118" font-size="9" fill="#6EE7B7">● Active</text>
  <text x="540" y="138" font-size="10" fill="#6B7280">$1,842 today</text>

  <!-- RC 2 — Bar -->
  <rect x="212" y="180" width="416" height="80" rx="6" fill="#1A1D2E"/>
  <rect x="212" y="180" width="6" height="80" rx="3" fill="#3B82F6"/>
  <text x="234" y="204" font-size="14" font-weight="700" fill="#FFFFFF">Bar</text>
  <text x="234" y="222" font-size="11" fill="#8B92A5">rc_id: RC-002 · 8 stools + 2 tables · 20 covers</text>
  <text x="234" y="238" font-size="10" fill="#8B92A5">Tax zone: CA Alcohol Excise + State · Menu: Bar Menu</text>
  <rect x="540" y="192" width="70" height="20" rx="10" fill="#065F46"/>
  <text x="552" y="206" font-size="9" fill="#6EE7B7">● Active</text>
  <text x="540" y="226" font-size="10" fill="#6B7280">$623 today</text>

  <!-- RC 3 — Patio -->
  <rect x="212" y="268" width="416" height="80" rx="6" fill="#1A1D2E"/>
  <rect x="212" y="268" width="6" height="80" rx="3" fill="#10B981"/>
  <text x="234" y="292" font-size="14" font-weight="700" fill="#FFFFFF">Patio</text>
  <text x="234" y="310" font-size="11" fill="#8B92A5">rc_id: RC-003 · 6 tables · 36 covers</text>
  <text x="234" y="326" font-size="10" fill="#8B92A5">Tax zone: CA State + LA County · Menu: Full</text>
  <rect x="540" y="280" width="70" height="20" rx="10" fill="#065F46"/>
  <text x="552" y="294" font-size="9" fill="#6EE7B7">● Active</text>
  <text x="540" y="314" font-size="10" fill="#6B7280">$412 today</text>

  <!-- RC 4 — Private Room -->
  <rect x="212" y="356" width="416" height="80" rx="6" fill="#1A1D2E"/>
  <rect x="212" y="356" width="6" height="80" rx="3" fill="#7C3AED"/>
  <text x="234" y="380" font-size="14" font-weight="700" fill="#FFFFFF">Private Room</text>
  <text x="234" y="398" font-size="11" fill="#8B92A5">rc_id: RC-004 · 2 tables · 24 covers</text>
  <text x="234" y="414" font-size="10" fill="#8B92A5">Tax zone: CA State · Menu: Full + Event</text>
  <rect x="540" y="368" width="70" height="20" rx="10" fill="#374151"/>
  <text x="548" y="382" font-size="9" fill="#9CA3AF">○ No bookings</text>

  <!-- RC 5 — Online/Takeout -->
  <rect x="212" y="444" width="416" height="80" rx="6" fill="#1A1D2E"/>
  <rect x="212" y="444" width="6" height="80" rx="3" fill="#F59E0B"/>
  <text x="234" y="468" font-size="14" font-weight="700" fill="#FFFFFF">Online / Takeout</text>
  <text x="234" y="486" font-size="11" fill="#8B92A5">rc_id: RC-005 · virtual · no tables</text>
  <text x="234" y="502" font-size="10" fill="#8B92A5">Tax zone: CA State · Menu: Takeout Menu</text>
  <rect x="540" y="456" width="70" height="20" rx="10" fill="#065F46"/>
  <text x="552" y="470" font-size="9" fill="#6EE7B7">● Active</text>
  <text x="540" y="490" font-size="10" fill="#6B7280">$287 today</text>

  <!-- RC 6 — Delivery -->
  <rect x="212" y="532" width="416" height="80" rx="6" fill="#1A1D2E"/>
  <rect x="212" y="532" width="6" height="80" rx="3" fill="#8B5CF6"/>
  <text x="234" y="556" font-size="14" font-weight="700" fill="#FFFFFF">Delivery</text>
  <text x="234" y="574" font-size="11" fill="#8B92A5">rc_id: RC-006 · virtual · DoorDash, UberEats, Direct</text>
  <text x="234" y="590" font-size="10" fill="#8B92A5">Tax zone: CA State · Menu: Delivery Menu</text>
  <rect x="540" y="544" width="70" height="20" rx="10" fill="#065F46"/>
  <text x="552" y="558" font-size="9" fill="#6EE7B7">● Active</text>
  <text x="540" y="578" font-size="10" fill="#6B7280">$198 today</text>

  <!-- Schema note -->
  <rect x="212" y="630" width="416" height="100" rx="6" fill="#0F1117" stroke="#374151" stroke-width="1"/>
  <text x="228" y="652" font-size="11" font-weight="600" fill="#8B92A5">pos_revenue_centers schema</text>
  <text x="228" y="670" font-size="10" fill="#6B7280">id, name, name_i18n jsonb</text>
  <text x="228" y="686" font-size="10" fill="#6B7280">tax_zone_ids uuid[]</text>
  <text x="228" y="702" font-size="10" fill="#6B7280">menu_id uuid (→ pos_menus)</text>
  <text x="228" y="718" font-size="10" fill="#6B7280">room_color varchar (floor plan indicator)</text>
  <text x="228" y="734" font-size="10" fill="#6B7280">order_types text[] — dine-in/takeout/delivery</text>

  <!-- ===== Right: Detail Config Panel ===== -->
  <rect x="640" y="56" width="800" height="844" fill="#0F1117"/>

  <!-- Panel header -->
  <rect x="656" y="68" width="768" height="56" rx="8" fill="#1A1D2E"/>
  <rect x="656" y="68" width="8" height="56" rx="4" fill="#F59E0B"/>
  <text x="680" y="92" font-size="16" font-weight="700" fill="#F59E0B">Main Dining — Configuration</text>
  <text x="680" y="112" font-size="11" fill="#8B92A5">rc_id: RC-001 · All changes auto-save to pos_revenue_centers</text>

  <!-- Name with i18n -->
  <text x="656" y="148" font-size="11" font-weight="600" fill="#8B92A5">NAME (name_i18n jsonb)</text>
  <rect x="656" y="154" width="360" height="32" rx="6" fill="#1A1D2E" stroke="#F59E0B" stroke-width="1"/>
  <text x="672" y="175" font-size="13" fill="#FFFFFF">Main Dining</text>
  <rect x="1028" y="154" width="140" height="32" rx="6" fill="#1A1D2E" stroke="#374151" stroke-width="1"/>
  <text x="1044" y="175" font-size="12" fill="#D1D5DB">Salle Principale (fr)</text>
  <rect x="1180" y="154" width="144" height="32" rx="6" fill="#1A1D2E" stroke="#374151" stroke-width="1"/>
  <text x="1196" y="175" font-size="12" fill="#D1D5DB">用餐大厅 (zh)</text>

  <!-- Tax Zone Assignment -->
  <text x="656" y="212" font-size="12" font-weight="700" fill="#FFFFFF">Tax Zone Assignment</text>
  <text x="656" y="228" font-size="11" fill="#8B92A5">Zones active in this revenue center · applied at checkout for orders originating here</text>

  <rect x="656" y="236" width="768" height="180" rx="8" fill="#1A1D2E"/>
  <!-- Tax zone rows -->
  <rect x="672" y="252" width="736" height="28" fill="#13162A"/>
  <text x="688" y="271" font-size="10" fill="#6B7280">TAX ZONE</text>
  <text x="880" y="271" font-size="10" fill="#6B7280">RATE</text>
  <text x="940" y="271" font-size="10" fill="#6B7280">APPLIES TO</text>
  <text x="1100" y="271" font-size="10" fill="#6B7280">INCLUSIVE</text>
  <text x="1200" y="271" font-size="10" fill="#6B7280">ACTIVE IN RC</text>
  <text x="1320" y="271" font-size="10" fill="#6B7280">REVENUE CENTER</text>

  <!-- CA State -->
  <rect x="672" y="280" width="736" height="32" fill="#1A1D2E"/>
  <text x="688" y="301" font-size="12" fill="#D1D5DB">CA State Sales Tax</text>
  <text x="880" y="301" font-size="12" fill="#FFFFFF">6.25%</text>
  <text x="940" y="301" font-size="11" fill="#8B92A5">food, alcohol, all</text>
  <text x="1120" y="301" font-size="12" fill="#6B7280">No</text>
  <rect x="1196" y="286" width="38" height="20" rx="10" fill="#10B981"/>
  <circle cx="1224" cy="296" r="8" fill="#FFFFFF"/>
  <text x="1326" y="301" font-size="11" fill="#F59E0B">Main Dining ✓</text>

  <!-- LA County -->
  <rect x="672" y="312" width="736" height="32" fill="#13162A"/>
  <text x="688" y="333" font-size="12" fill="#D1D5DB">LA County Tax</text>
  <text x="880" y="333" font-size="12" fill="#FFFFFF">1.00%</text>
  <text x="940" y="333" font-size="11" fill="#8B92A5">all</text>
  <text x="1120" y="333" font-size="12" fill="#6B7280">No</text>
  <rect x="1196" y="318" width="38" height="20" rx="10" fill="#10B981"/>
  <circle cx="1224" cy="328" r="8" fill="#FFFFFF"/>
  <text x="1326" y="333" font-size="11" fill="#F59E0B">Main Dining ✓</text>

  <!-- Alcohol Excise — off for main dining food zone -->
  <rect x="672" y="344" width="736" height="32" fill="#1A1D2E"/>
  <text x="688" y="365" font-size="12" fill="#D1D5DB">CA Alcohol Excise</text>
  <text x="880" y="365" font-size="12" fill="#FFFFFF">3.30%</text>
  <text x="940" y="365" font-size="11" fill="#EF4444">alcohol only</text>
  <text x="1120" y="365" font-size="12" fill="#6B7280">No</text>
  <rect x="1196" y="350" width="38" height="20" rx="10" fill="#374151"/>
  <circle cx="1208" cy="360" r="8" fill="#FFFFFF"/>
  <text x="1326" y="365" font-size="11" fill="#6B7280">Not assigned</text>

  <!-- Add zone button -->
  <rect x="672" y="386" width="120" height="24" rx="4" fill="#1E2240" stroke="#374151" stroke-width="1"/>
  <text x="682" y="402" font-size="11" fill="#F59E0B">+ Assign Tax Zone</text>

  <!-- Menu Assignment -->
  <text x="656" y="444" font-size="12" font-weight="700" fill="#FFFFFF">Menu Assignment</text>
  <text x="656" y="460" font-size="11" fill="#8B92A5">Which menu(s) are available in this revenue center</text>
  <rect x="656" y="468" width="768" height="44" rx="6" fill="#1A1D2E"/>
  <rect x="672" y="480" width="80" height="20" rx="4" fill="#F59E0B"/>
  <text x="690" y="495" font-size="11" font-weight="600" fill="#000">Full Menu</text>
  <rect x="760" y="480" width="72" height="20" rx="4" fill="#1E2240" stroke="#374151" stroke-width="1"/>
  <text x="774" y="495" font-size="11" fill="#6B7280">Bar Menu</text>
  <rect x="840" y="480" width="92" height="20" rx="4" fill="#1E2240" stroke="#374151" stroke-width="1"/>
  <text x="854" y="495" font-size="11" fill="#6B7280">Takeout Menu</text>
  <rect x="940" y="480" width="90" height="20" rx="4" fill="#1E2240" stroke="#374151" stroke-width="1"/>
  <text x="954" y="495" font-size="11" fill="#6B7280">Event Package</text>

  <!-- Order types -->
  <text x="656" y="534" font-size="12" font-weight="700" fill="#FFFFFF">Allowed Order Types</text>
  <rect x="656" y="542" width="768" height="44" rx="6" fill="#1A1D2E"/>
  <rect x="672" y="552" width="74" height="24" rx="4" fill="#065F46"/>
  <text x="680" y="569" font-size="11" fill="#6EE7B7">Dine-In ✓</text>
  <rect x="754" y="552" width="74" height="24" rx="4" fill="#1E2240" stroke="#374151" stroke-width="1"/>
  <text x="764" y="569" font-size="11" fill="#6B7280">Takeout</text>
  <rect x="836" y="552" width="74" height="24" rx="4" fill="#1E2240" stroke="#374151" stroke-width="1"/>
  <text x="846" y="569" font-size="11" fill="#6B7280">Delivery</text>
  <rect x="918" y="552" width="60" height="24" rx="4" fill="#065F46"/>
  <text x="926" y="569" font-size="11" fill="#6EE7B7">Phone ✓</text>
  <rect x="986" y="552" width="60" height="24" rx="4" fill="#1E2240" stroke="#374151" stroke-width="1"/>
  <text x="998" y="569" font-size="11" fill="#6B7280">Kiosk</text>

  <!-- KDS routing -->
  <text x="656" y="610" font-size="12" font-weight="700" fill="#FFFFFF">KDS Station Routing</text>
  <text x="656" y="626" font-size="11" fill="#8B92A5">Items from this RC route to these KDS stations based on item station_tag</text>
  <rect x="656" y="634" width="768" height="80" rx="8" fill="#1A1D2E"/>
  <rect x="672" y="650" width="736" height="24" fill="#13162A"/>
  <text x="688" y="666" font-size="10" fill="#6B7280">STATION TAG</text>
  <text x="850" y="666" font-size="10" fill="#6B7280">KDS DEVICE</text>
  <text x="1060" y="666" font-size="10" fill="#6B7280">PRIORITY</text>
  <text x="672" y="674" width="736" height="24" fill="#1A1D2E"/>
  <text x="688" y="698" font-size="11" fill="#D1D5DB">GRILL</text>
  <text x="850" y="698" font-size="11" fill="#FFFFFF">Grill Station (KDS-01)</text>
  <text x="1060" y="698" font-size="11" fill="#8B92A5">Primary</text>
  <text x="688" y="716" font-size="11" fill="#D1D5DB">FRYER, SALAD</text>
  <text x="850" y="716" font-size="11" fill="#FFFFFF">Fryer Station (KDS-02)</text>
  <text x="1060" y="716" font-size="11" fill="#8B92A5">Primary</text>

  <!-- Floor plan link -->
  <text x="656" y="742" font-size="12" font-weight="700" fill="#FFFFFF">Floor Plan Room</text>
  <rect x="656" y="750" width="768" height="44" rx="6" fill="#1A1D2E"/>
  <text x="672" y="770" font-size="12" fill="#D1D5DB">Linked to floor plan room: "Main Dining"</text>
  <text x="672" y="786" font-size="10" fill="#8B92A5">Tables dragged into this room inherit RC-001 tax &amp; menu settings automatically</text>
  <rect x="1300" y="758" width="110" height="24" rx="4" fill="#1E2240" stroke="#374151" stroke-width="1"/>
  <text x="1318" y="775" font-size="11" fill="#F59E0B">Edit Floor Plan</text>

  <!-- Today stats -->
  <text x="656" y="822" font-size="12" font-weight="700" fill="#FFFFFF">Today's Performance</text>
  <rect x="656" y="830" width="184" height="60" rx="6" fill="#1A1D2E"/>
  <text x="672" y="854" font-size="12" fill="#8B92A5">Revenue</text>
  <text x="672" y="876" font-size="20" font-weight="700" fill="#F59E0B">$1,842</text>
  <rect x="848" y="830" width="184" height="60" rx="6" fill="#1A1D2E"/>
  <text x="864" y="854" font-size="12" fill="#8B92A5">Covers</text>
  <text x="864" y="876" font-size="20" font-weight="700" fill="#FFFFFF">64</text>
  <rect x="1040" y="830" width="184" height="60" rx="6" fill="#1A1D2E"/>
  <text x="1056" y="854" font-size="12" fill="#8B92A5">Avg Check</text>
  <text x="1056" y="876" font-size="20" font-weight="700" fill="#FFFFFF">$28.78</text>
  <rect x="1232" y="830" width="192" height="60" rx="6" fill="#1A1D2E"/>
  <text x="1248" y="854" font-size="12" fill="#8B92A5">Tables Turned</text>
  <text x="1248" y="876" font-size="20" font-weight="700" fill="#FFFFFF">11x</text>

  <text x="720" y="895" font-size="11" text-anchor="middle" fill="#4B5563">Synalux POS · Revenue Centers · pos_revenue_centers — no hardcodes, tax zones assigned per RC</text>
</svg>
