<svg xmlns="http://www.w3.org/2000/svg" viewBox="0 0 1366 1024" font-family="system-ui,-apple-system,sans-serif">

  <!-- Background -->
  <rect width="1366" height="1024" fill="#0F1117"/>

  <!-- ===== LEFT NAV (200px) ===== -->
  <rect x="0" y="0" width="200" height="1024" fill="#13162A"/>
  <text x="16" y="30" font-size="13" font-weight="700" fill="#F59E0B">⚙ Back Office</text>
  <text x="16" y="67" font-size="12" fill="#8B92A5">Menu Builder</text>
  <text x="16" y="103" font-size="12" fill="#8B92A5">Taxes</text>
  <text x="16" y="139" font-size="12" fill="#8B92A5">Employees</text>
  <text x="16" y="175" font-size="12" fill="#8B92A5">Equipment</text>
  <text x="16" y="211" font-size="12" fill="#8B92A5">Discounts &amp; Promos</text>
  <text x="16" y="247" font-size="12" fill="#8B92A5">Gift Cards</text>
  <text x="16" y="283" font-size="12" fill="#8B92A5">Loyalty</text>
  <!-- Active: Price Levels -->
  <rect x="0" y="294" width="200" height="36" fill="#1E2240" rx="4"/>
  <rect x="0" y="294" width="3" height="36" fill="#F59E0B"/>
  <text x="16" y="317" font-size="12" font-weight="600" fill="#F59E0B">Price Levels</text>
  <text x="16" y="355" font-size="12" fill="#8B92A5">Menu Scheduling</text>
  <text x="16" y="391" font-size="12" fill="#8B92A5">Revenue Centers</text>
  <text x="16" y="427" font-size="12" fill="#8B92A5">Auto-Gratuity</text>
  <text x="16" y="463" font-size="12" fill="#8B92A5">Tax Exempt</text>
  <text x="16" y="499" font-size="12" fill="#8B92A5">Integrations</text>
  <text x="16" y="535" font-size="12" fill="#8B92A5">Receipts</text>

  <!-- ===== HEADER (200..1366, h=56) ===== -->
  <rect x="200" y="0" width="1166" height="56" fill="#1A1D2E"/>
  <text x="220" y="22" font-size="18" font-weight="700" fill="#F1F5F9">Price Levels</text>
  <text x="220" y="42" font-size="10.5" fill="#94A3B8">Alternative base prices per item — for employee meals, VIP members, happy hour pricing, wholesale accounts. Distinct from discounts — shows on reports as the actual price, not a deduction.</text>

  <!-- ===== KEY DISTINCTION NOTE (full width, y=56, h=56) ===== -->
  <rect x="200" y="56" width="1166" height="56" rx="0" fill="#052E16" stroke="#10B981" stroke-width="1.5"/>
  <rect x="200" y="56" width="4" height="56" fill="#10B981"/>
  <text x="226" y="76" font-size="11" font-weight="700" fill="#10B981">Price Levels vs Discounts:</text>
  <text x="360" y="76" font-size="11" fill="#D1FAE5">Price levels change the BASE PRICE shown on the ticket and receipt. Discounts are deductions from base price.</text>
  <text x="226" y="96" font-size="11" fill="#6EE7B7">Use price levels for recurring pricing structures (employee meal, VIP tier, wholesale); use discounts for one-time promotions.</text>

  <!-- ===== TWO-PANEL LAYOUT starts at y=112 ===== -->

  <!-- LEFT PANEL bg (200..600, y=112..1024) -->
  <rect x="200" y="112" width="400" height="912" fill="#13162A"/>

  <!-- Section header: Active Price Levels -->
  <text x="216" y="136" font-size="12" font-weight="700" fill="#94A3B8" letter-spacing="0.5">ACTIVE PRICE LEVELS</text>

  <!-- REGULAR Default y=144 -->
  <rect x="210" y="144" width="378" height="68" rx="6" fill="#1A1D2E" stroke="#2D3148" stroke-width="1"/>
  <rect x="210" y="144" width="5" height="68" rx="3" fill="#64748B"/>
  <text x="230" y="163" font-size="13" font-weight="700" fill="#F1F5F9">Regular</text>
  <!-- Gray "Default" badge -->
  <rect x="295" y="152" width="52" height="17" rx="8" fill="#374151"/>
  <text x="305" y="164" font-size="9" fill="#D1D5DB">Default</text>
  <text x="230" y="181" font-size="10" fill="#64748B">Applies to all orders unless overridden — this is the base menu price</text>
  <text x="230" y="197" font-size="10" fill="#475569">No configuration needed</text>

  <!-- EMPLOYEE MEAL y=222 -->
  <rect x="210" y="222" width="378" height="96" rx="6" fill="#1A1D2E" stroke="#2D3148" stroke-width="1"/>
  <rect x="210" y="222" width="5" height="96" rx="3" fill="#10B981"/>
  <!-- Toggle ON -->
  <rect x="540" y="232" width="34" height="18" rx="9" fill="#10B981"/>
  <circle cx="566" cy="241" r="7" fill="#fff"/>
  <!-- Green badge -->
  <rect x="230" y="225" width="95" height="17" rx="8" fill="#065F46"/>
  <text x="237" y="237" font-size="9" fill="#6EE7B7">● Employee Meal</text>
  <text x="230" y="256" font-size="11" font-weight="600" fill="#F1F5F9">Triggered by: Staff clock-in → auto-apply during shift</text>
  <text x="230" y="272" font-size="10" fill="#94A3B8">Price adjustment: 50% off base price (multiplier 0.5) · Full tax applies</text>
  <text x="230" y="287" font-size="10" fill="#94A3B8">Applies to: All items · Daily limit: $15 per employee per shift</text>
  <rect x="530" y="300" width="52" height="20" rx="4" fill="#1E2240" stroke="#374151" stroke-width="1"/>
  <text x="544" y="314" font-size="10" fill="#D1D5DB">Edit</text>

  <!-- HAPPY HOUR y=328 -->
  <rect x="210" y="328" width="378" height="88" rx="6" fill="#1A1D2E" stroke="#2D3148" stroke-width="1"/>
  <rect x="210" y="328" width="5" height="88" rx="3" fill="#F59E0B"/>
  <!-- Toggle ON -->
  <rect x="540" y="336" width="34" height="18" rx="9" fill="#10B981"/>
  <circle cx="566" cy="345" r="7" fill="#fff"/>
  <!-- Amber badge -->
  <rect x="230" y="331" width="82" height="17" rx="8" fill="#78350F"/>
  <text x="237" y="343" font-size="9" fill="#FCD34D">● Happy Hour</text>
  <text x="230" y="360" font-size="11" font-weight="600" fill="#F1F5F9">Triggered by: Schedule (Mon–Fri 4:00 PM – 6:00 PM)</text>
  <text x="230" y="376" font-size="10" fill="#94A3B8">Price adjustment: 20% off base price for beverages (multiplier 0.8)</text>
  <text x="230" y="391" font-size="10" fill="#94A3B8">Applies to: Beverages category only · Linked to menu schedule</text>
  <rect x="530" y="400" width="52" height="20" rx="4" fill="#1E2240" stroke="#374151" stroke-width="1"/>
  <text x="544" y="414" font-size="10" fill="#D1D5DB">Edit</text>

  <!-- VIP MEMBER y=426 -->
  <rect x="210" y="426" width="378" height="80" rx="6" fill="#1A1D2E" stroke="#2D3148" stroke-width="1"/>
  <rect x="210" y="426" width="5" height="80" rx="3" fill="#8B5CF6"/>
  <!-- Toggle ON -->
  <rect x="540" y="434" width="34" height="18" rx="9" fill="#10B981"/>
  <circle cx="566" cy="443" r="7" fill="#fff"/>
  <!-- Purple badge -->
  <rect x="230" y="429" width="78" height="17" rx="8" fill="#4C1D95"/>
  <text x="237" y="441" font-size="9" fill="#C4B5FD">● VIP Member</text>
  <text x="230" y="459" font-size="11" font-weight="600" fill="#F1F5F9">Triggered by: Customer loyalty tier = Gold OR VIP tag</text>
  <text x="230" y="474" font-size="10" fill="#94A3B8">Price adjustment: 10% below regular (multiplier 0.9)</text>
  <text x="230" y="490" font-size="10" fill="#94A3B8">Applies to: All items</text>
  <rect x="530" y="496" width="52" height="20" rx="4" fill="#1E2240" stroke="#374151" stroke-width="1"/>
  <text x="544" y="510" font-size="10" fill="#D1D5DB">Edit</text>

  <!-- WHOLESALE CORPORATE y=516 -->
  <rect x="210" y="516" width="378" height="88" rx="6" fill="#1A1D2E" stroke="#2D3148" stroke-width="1"/>
  <rect x="210" y="516" width="5" height="88" rx="3" fill="#3B82F6"/>
  <!-- Toggle OFF -->
  <rect x="540" y="524" width="34" height="18" rx="9" fill="#374151"/>
  <circle cx="546" cy="533" r="7" fill="#9CA3AF"/>
  <!-- Blue badge -->
  <rect x="230" y="519" width="110" height="17" rx="8" fill="#1E3A5F"/>
  <text x="237" y="531" font-size="9" fill="#93C5FD">● Wholesale / Corporate</text>
  <!-- Inactive label -->
  <text x="530" y="528" font-size="9" fill="#64748B">OFF</text>
  <text x="230" y="549" font-size="11" font-weight="600" fill="#94A3B8">Triggered by: House account assignment OR manager override</text>
  <text x="230" y="565" font-size="10" fill="#64748B">Price adjustment: Custom per item (use price matrix)</text>
  <text x="230" y="581" font-size="10" fill="#64748B">Applies to: Configured accounts only</text>
  <rect x="530" y="588" width="52" height="20" rx="4" fill="#1E2240" stroke="#374151" stroke-width="1"/>
  <text x="544" y="602" font-size="10" fill="#D1D5DB">Edit</text>

  <!-- + Add Price Level button -->
  <rect x="210" y="614" width="378" height="34" rx="6" fill="none" stroke="#F59E0B" stroke-width="1.5"/>
  <text x="358" y="635" font-size="12" font-weight="600" fill="#F59E0B" text-anchor="middle">+ Add Price Level</text>

  <!-- Section header: Priority -->
  <text x="216" y="670" font-size="12" font-weight="700" fill="#94A3B8" letter-spacing="0.5">PRICE LEVEL PRIORITY</text>
  <text x="216" y="685" font-size="10" fill="#64748B">When multiple levels apply, higher priority wins. Drag to reorder.</text>

  <!-- Priority list -->
  <!-- Row 1 -->
  <rect x="210" y="692" width="378" height="30" rx="4" fill="#1A1D2E" stroke="#2D3148" stroke-width="1"/>
  <text x="224" y="711" font-size="10" fill="#64748B">⋮⋮</text>
  <rect x="240" y="700" width="16" height="16" rx="8" fill="#374151"/>
  <text x="246" y="712" font-size="9" font-weight="700" fill="#F1F5F9" text-anchor="middle">1</text>
  <text x="268" y="712" font-size="11" fill="#F1F5F9">Manual override</text>
  <text x="460" y="712" font-size="10" fill="#64748B">(manager sets)</text>
  <!-- Row 2 -->
  <rect x="210" y="726" width="378" height="30" rx="4" fill="#1A1D2E" stroke="#2D3148" stroke-width="1"/>
  <text x="224" y="745" font-size="10" fill="#64748B">⋮⋮</text>
  <rect x="240" y="734" width="16" height="16" rx="8" fill="#065F46"/>
  <text x="246" y="746" font-size="9" font-weight="700" fill="#6EE7B7" text-anchor="middle">2</text>
  <text x="268" y="746" font-size="11" fill="#F1F5F9">Employee Meal</text>
  <!-- Row 3 -->
  <rect x="210" y="760" width="378" height="30" rx="4" fill="#1A1D2E" stroke="#2D3148" stroke-width="1"/>
  <text x="224" y="779" font-size="10" fill="#64748B">⋮⋮</text>
  <rect x="240" y="768" width="16" height="16" rx="8" fill="#78350F"/>
  <text x="246" y="780" font-size="9" font-weight="700" fill="#FCD34D" text-anchor="middle">3</text>
  <text x="268" y="780" font-size="11" fill="#F1F5F9">Happy Hour</text>
  <!-- Row 4 -->
  <rect x="210" y="794" width="378" height="30" rx="4" fill="#1A1D2E" stroke="#2D3148" stroke-width="1"/>
  <text x="224" y="813" font-size="10" fill="#64748B">⋮⋮</text>
  <rect x="240" y="802" width="16" height="16" rx="8" fill="#4C1D95"/>
  <text x="246" y="814" font-size="9" font-weight="700" fill="#C4B5FD" text-anchor="middle">4</text>
  <text x="268" y="814" font-size="11" fill="#F1F5F9">VIP Member</text>
  <!-- Row 5 -->
  <rect x="210" y="828" width="378" height="30" rx="4" fill="#1A1D2E" stroke="#2D3148" stroke-width="1"/>
  <text x="224" y="847" font-size="10" fill="#64748B">⋮⋮</text>
  <rect x="240" y="836" width="16" height="16" rx="8" fill="#374151"/>
  <text x="246" y="848" font-size="9" font-weight="700" fill="#9CA3AF" text-anchor="middle">5</text>
  <text x="268" y="848" font-size="11" fill="#94A3B8">Regular (default)</text>

  <!-- ===== RIGHT PANEL (x=600, w=766, y=112..1024) ===== -->
  <rect x="600" y="112" width="766" height="912" fill="#0F1117"/>

  <!-- TABS bar -->
  <rect x="600" y="112" width="766" height="40" fill="#13162A"/>
  <!-- All Items tab (active) -->
  <rect x="608" y="118" width="80" height="28" rx="6" fill="#1E2240"/>
  <rect x="608" y="142" width="80" height="4" fill="#F59E0B"/>
  <text x="648" y="136" font-size="11" font-weight="600" fill="#F59E0B" text-anchor="middle">All Items</text>
  <!-- Other tabs -->
  <text x="712" y="136" font-size="11" fill="#64748B">Employee Meal</text>
  <text x="808" y="136" font-size="11" fill="#64748B">Happy Hour</text>
  <text x="898" y="136" font-size="11" fill="#64748B">VIP</text>
  <text x="940" y="136" font-size="11" fill="#64748B">Wholesale</text>

  <!-- Section label -->
  <text x="616" y="170" font-size="12" font-weight="700" fill="#94A3B8" letter-spacing="0.5">PRICE MATRIX — ITEM-LEVEL PRICES</text>

  <!-- TABLE HEADER row -->
  <rect x="600" y="178" width="766" height="30" fill="#1A1D2E"/>
  <text x="616" y="197" font-size="10" font-weight="700" fill="#64748B">ITEM NAME</text>
  <text x="810" y="197" font-size="10" font-weight="700" fill="#64748B" text-anchor="middle">REGULAR</text>
  <text x="890" y="197" font-size="10" font-weight="700" fill="#10B981" text-anchor="middle">EMPLOYEE (×0.5)</text>
  <text x="980" y="197" font-size="10" font-weight="700" fill="#F59E0B" text-anchor="middle">HAPPY HR (bev)</text>
  <text x="1070" y="197" font-size="10" font-weight="700" fill="#8B5CF6" text-anchor="middle">VIP (−10%)</text>
  <text x="1170" y="197" font-size="10" font-weight="700" fill="#3B82F6" text-anchor="middle">WHOLESALE</text>
  <!-- Divider line -->
  <line x1="600" y1="208" x2="1366" y2="208" stroke="#2D3148" stroke-width="1"/>

  <!-- Vertical column dividers -->
  <line x1="786" y1="178" x2="786" y2="640" stroke="#2D3148" stroke-width="0.5"/>
  <line x1="852" y1="178" x2="852" y2="640" stroke="#2D3148" stroke-width="0.5"/>
  <line x1="936" y1="178" x2="936" y2="640" stroke="#2D3148" stroke-width="0.5"/>
  <line x1="1020" y1="178" x2="1020" y2="640" stroke="#2D3148" stroke-width="0.5"/>
  <line x1="1120" y1="178" x2="1120" y2="640" stroke="#2D3148" stroke-width="0.5"/>

  <!-- ROW 1: Classic Burger -->
  <rect x="600" y="208" width="766" height="36" fill="#1A1D2E"/>
  <text x="616" y="231" font-size="11" fill="#F1F5F9">Classic Burger</text>
  <text x="810" y="231" font-size="11" fill="#F1F5F9" text-anchor="middle">$18.00</text>
  <text x="890" y="231" font-size="11" fill="#10B981" text-anchor="middle">$9.00</text>
  <text x="980" y="231" font-size="10" fill="#475569" text-anchor="middle">—</text>
  <text x="1070" y="231" font-size="11" fill="#A78BFA" text-anchor="middle">$16.20</text>
  <!-- Wholesale editable cell -->
  <rect x="1128" y="216" width="80" height="22" rx="3" fill="#0F1117" stroke="#3B82F6" stroke-width="1"/>
  <text x="1168" y="231" font-size="11" fill="#93C5FD" text-anchor="middle">$14.00</text>
  <line x1="600" y1="244" x2="1366" y2="244" stroke="#1E2240" stroke-width="1"/>

  <!-- ROW 2: Caesar Salad -->
  <rect x="600" y="244" width="766" height="36" fill="#13162A"/>
  <text x="616" y="267" font-size="11" fill="#F1F5F9">Caesar Salad</text>
  <text x="810" y="267" font-size="11" fill="#F1F5F9" text-anchor="middle">$14.00</text>
  <text x="890" y="267" font-size="11" fill="#10B981" text-anchor="middle">$7.00</text>
  <text x="980" y="267" font-size="10" fill="#475569" text-anchor="middle">—</text>
  <text x="1070" y="267" font-size="11" fill="#A78BFA" text-anchor="middle">$12.60</text>
  <rect x="1128" y="252" width="80" height="22" rx="3" fill="#0F1117" stroke="#3B82F6" stroke-width="1"/>
  <text x="1168" y="267" font-size="11" fill="#93C5FD" text-anchor="middle">$11.00</text>
  <line x1="600" y1="280" x2="1366" y2="280" stroke="#1E2240" stroke-width="1"/>

  <!-- ROW 3: Margherita Pizza -->
  <rect x="600" y="280" width="766" height="36" fill="#1A1D2E"/>
  <text x="616" y="303" font-size="11" fill="#F1F5F9">Margherita Pizza</text>
  <text x="810" y="303" font-size="11" fill="#F1F5F9" text-anchor="middle">$16.00</text>
  <text x="890" y="303" font-size="11" fill="#10B981" text-anchor="middle">$8.00</text>
  <text x="980" y="303" font-size="10" fill="#475569" text-anchor="middle">—</text>
  <text x="1070" y="303" font-size="11" fill="#A78BFA" text-anchor="middle">$14.40</text>
  <rect x="1128" y="288" width="80" height="22" rx="3" fill="#0F1117" stroke="#3B82F6" stroke-width="1"/>
  <text x="1168" y="303" font-size="11" fill="#93C5FD" text-anchor="middle">$13.00</text>
  <line x1="600" y1="316" x2="1366" y2="316" stroke="#1E2240" stroke-width="1"/>

  <!-- ROW 4: Craft Beer (Stella) — Happy Hour applies -->
  <rect x="600" y="316" width="766" height="36" fill="#13162A"/>
  <text x="616" y="339" font-size="11" fill="#F1F5F9">Craft Beer (Stella)</text>
  <text x="810" y="339" font-size="11" fill="#F1F5F9" text-anchor="middle">$9.00</text>
  <text x="890" y="339" font-size="11" fill="#10B981" text-anchor="middle">$4.50</text>
  <!-- Happy Hour applies to beverages -->
  <rect x="950" y="322" width="62" height="20" rx="3" fill="#292108"/>
  <text x="981" y="335" font-size="10" fill="#FCD34D" text-anchor="middle">$7.20</text>
  <text x="1070" y="339" font-size="11" fill="#A78BFA" text-anchor="middle">$8.10</text>
  <rect x="1128" y="324" width="80" height="22" rx="3" fill="#0F1117" stroke="#3B82F6" stroke-width="1"/>
  <text x="1168" y="339" font-size="11" fill="#93C5FD" text-anchor="middle">$7.50</text>
  <line x1="600" y1="352" x2="1366" y2="352" stroke="#1E2240" stroke-width="1"/>

  <!-- ROW 5: House Wine (Glass) — Happy Hour applies -->
  <rect x="600" y="352" width="766" height="36" fill="#1A1D2E"/>
  <text x="616" y="375" font-size="11" fill="#F1F5F9">House Wine (Glass)</text>
  <text x="810" y="375" font-size="11" fill="#F1F5F9" text-anchor="middle">$12.00</text>
  <text x="890" y="375" font-size="11" fill="#10B981" text-anchor="middle">$6.00</text>
  <rect x="950" y="358" width="62" height="20" rx="3" fill="#292108"/>
  <text x="981" y="371" font-size="10" fill="#FCD34D" text-anchor="middle">$9.60</text>
  <text x="1070" y="375" font-size="11" fill="#A78BFA" text-anchor="middle">$10.80</text>
  <rect x="1128" y="360" width="80" height="22" rx="3" fill="#0F1117" stroke="#3B82F6" stroke-width="1"/>
  <text x="1168" y="375" font-size="11" fill="#93C5FD" text-anchor="middle">$9.00</text>
  <line x1="600" y1="388" x2="1366" y2="388" stroke="#1E2240" stroke-width="1"/>

  <!-- ROW 6: Cocktail — Old Fashioned — Happy Hour applies -->
  <rect x="600" y="388" width="766" height="36" fill="#13162A"/>
  <text x="616" y="411" font-size="11" fill="#F1F5F9">Cocktail — Old Fashioned</text>
  <text x="810" y="411" font-size="11" fill="#F1F5F9" text-anchor="middle">$14.00</text>
  <text x="890" y="411" font-size="11" fill="#10B981" text-anchor="middle">$7.00</text>
  <rect x="950" y="394" width="62" height="20" rx="3" fill="#292108"/>
  <text x="981" y="407" font-size="10" fill="#FCD34D" text-anchor="middle">$11.20</text>
  <text x="1070" y="411" font-size="11" fill="#A78BFA" text-anchor="middle">$12.60</text>
  <rect x="1128" y="396" width="80" height="22" rx="3" fill="#0F1117" stroke="#3B82F6" stroke-width="1"/>
  <text x="1168" y="411" font-size="11" fill="#93C5FD" text-anchor="middle">$11.00</text>
  <line x1="600" y1="424" x2="1366" y2="424" stroke="#1E2240" stroke-width="1"/>

  <!-- ROW 7: Sparkling Water — Happy Hour applies -->
  <rect x="600" y="424" width="766" height="36" fill="#1A1D2E"/>
  <text x="616" y="447" font-size="11" fill="#F1F5F9">Sparkling Water</text>
  <text x="810" y="447" font-size="11" fill="#F1F5F9" text-anchor="middle">$4.00</text>
  <text x="890" y="447" font-size="11" fill="#10B981" text-anchor="middle">$2.00</text>
  <rect x="950" y="430" width="62" height="20" rx="3" fill="#292108"/>
  <text x="981" y="443" font-size="10" fill="#FCD34D" text-anchor="middle">$3.20</text>
  <text x="1070" y="447" font-size="11" fill="#A78BFA" text-anchor="middle">$3.60</text>
  <rect x="1128" y="432" width="80" height="22" rx="3" fill="#0F1117" stroke="#3B82F6" stroke-width="1"/>
  <text x="1168" y="447" font-size="11" fill="#93C5FD" text-anchor="middle">$3.20</text>
  <line x1="600" y1="460" x2="1366" y2="460" stroke="#1E2240" stroke-width="1"/>

  <!-- ROW 8: Kids Burger -->
  <rect x="600" y="460" width="766" height="36" fill="#13162A"/>
  <text x="616" y="483" font-size="11" fill="#F1F5F9">Kids Burger</text>
  <text x="810" y="483" font-size="11" fill="#F1F5F9" text-anchor="middle">$8.00</text>
  <text x="890" y="483" font-size="11" fill="#10B981" text-anchor="middle">$4.00</text>
  <text x="980" y="483" font-size="10" fill="#475569" text-anchor="middle">—</text>
  <text x="1070" y="483" font-size="11" fill="#A78BFA" text-anchor="middle">$7.20</text>
  <rect x="1128" y="468" width="80" height="22" rx="3" fill="#0F1117" stroke="#3B82F6" stroke-width="1"/>
  <text x="1168" y="483" font-size="11" fill="#93C5FD" text-anchor="middle">$6.50</text>
  <line x1="600" y1="496" x2="1366" y2="496" stroke="#1E2240" stroke-width="1"/>

  <!-- ROW 9: Daily Special -->
  <rect x="600" y="496" width="766" height="36" fill="#1A1D2E"/>
  <text x="616" y="519" font-size="11" fill="#F1F5F9">Daily Special</text>
  <text x="810" y="519" font-size="10" fill="#64748B" text-anchor="middle">[Chef sets]</text>
  <text x="890" y="519" font-size="10" fill="#475569" text-anchor="middle">[× 0.5]</text>
  <text x="980" y="519" font-size="10" fill="#475569" text-anchor="middle">—</text>
  <text x="1070" y="519" font-size="10" fill="#64748B" text-anchor="middle">[× 0.9]</text>
  <rect x="1128" y="504" width="80" height="22" rx="3" fill="#0F1117" stroke="#374151" stroke-width="1"/>
  <text x="1168" y="519" font-size="10" fill="#64748B" text-anchor="middle">[negotiated]</text>
  <line x1="600" y1="532" x2="1366" y2="532" stroke="#1E2240" stroke-width="1"/>

  <!-- ROW 10: Open Price Item -->
  <rect x="600" y="532" width="766" height="36" fill="#13162A"/>
  <text x="616" y="555" font-size="11" fill="#94A3B8">Open Price Item</text>
  <text x="810" y="555" font-size="10" fill="#64748B" text-anchor="middle">[Entered]</text>
  <text x="890" y="555" font-size="10" fill="#475569" text-anchor="middle">[× 0.5]</text>
  <text x="980" y="555" font-size="10" fill="#475569" text-anchor="middle">—</text>
  <text x="1070" y="555" font-size="10" fill="#64748B" text-anchor="middle">[× 0.9]</text>
  <rect x="1128" y="540" width="80" height="22" rx="3" fill="#0F1117" stroke="#374151" stroke-width="1"/>
  <text x="1168" y="555" font-size="10" fill="#64748B" text-anchor="middle">[Entered]</text>
  <line x1="600" y1="568" x2="1366" y2="568" stroke="#2D3148" stroke-width="1"/>

  <!-- Inline editing note -->
  <text x="616" y="588" font-size="10" fill="#64748B">Wholesale column cells are editable (blue border). All other columns show auto-calculated prices.</text>

  <!-- Bulk / Export / Import buttons -->
  <rect x="616" y="600" width="100" height="28" rx="5" fill="#1E2240" stroke="#2D3148" stroke-width="1"/>
  <text x="666" y="618" font-size="10" font-weight="600" fill="#F1F5F9" text-anchor="middle">Bulk Update</text>
  <rect x="726" y="600" width="160" height="28" rx="5" fill="#1E2240" stroke="#2D3148" stroke-width="1"/>
  <text x="806" y="618" font-size="10" fill="#94A3B8" text-anchor="middle">Import Price Matrix (.csv)</text>
  <rect x="896" y="600" width="70" height="28" rx="5" fill="#1E2240" stroke="#2D3148" stroke-width="1"/>
  <text x="931" y="618" font-size="10" fill="#94A3B8" text-anchor="middle">Export</text>

  <!-- ===== REGISTER BEHAVIOR CARD (amber border, y=642) ===== -->
  <rect x="606" y="642" width="754" height="156" rx="6" fill="#1A1D2E" stroke="#F59E0B" stroke-width="1.5"/>
  <rect x="606" y="642" width="4" height="156" rx="2" fill="#F59E0B"/>
  <text x="626" y="662" font-size="11" font-weight="700" fill="#F59E0B">On Register:</text>
  <!-- 3-column layout for register behavior -->
  <text x="626" y="680" font-size="10" font-weight="600" fill="#94A3B8">AUTO-APPLY</text>
  <text x="626" y="695" font-size="10" fill="#D1D5DB">Staff PIN login + active shift</text>
  <text x="626" y="709" font-size="10" fill="#D1D5DB">→ Employee Meal auto-applies</text>
  <text x="626" y="724" font-size="10" fill="#D1D5DB">Customer Gold tier lookup</text>
  <text x="626" y="738" font-size="10" fill="#D1D5DB">→ VIP price auto-applies</text>

  <text x="800" y="680" font-size="10" font-weight="600" fill="#94A3B8">OVERRIDE</text>
  <text x="800" y="695" font-size="10" fill="#D1D5DB">Manager selects "Override Price</text>
  <text x="800" y="709" font-size="10" fill="#D1D5DB">Level" dropdown in order ops</text>
  <text x="800" y="724" font-size="10" fill="#D1D5DB">Ticket shows: "Price Level:</text>
  <text x="800" y="738" font-size="10" fill="#D1D5DB">Employee Meal" label</text>

  <text x="990" y="680" font-size="10" font-weight="600" fill="#94A3B8">REPORTING</text>
  <text x="990" y="695" font-size="10" fill="#D1D5DB">Receipt shows: actual price</text>
  <text x="990" y="709" font-size="10" fill="#D1D5DB">(no discount line — price level</text>
  <text x="990" y="724" font-size="10" fill="#D1D5DB">IS the price, not a deduction)</text>
  <text x="990" y="738" font-size="10" fill="#D1D5DB">Reports: revenue at actual price</text>
  <text x="990" y="752" font-size="10" fill="#D1D5DB">(not base minus discount)</text>

  <text x="626" y="784" font-size="10" fill="#92400E">Happy Hour: auto-switches 4 PM via menu schedule · Employee daily limit enforced server-side ($15/shift)</text>

  <!-- ===== WORKFLOW / SCHEMA CARD (amber border, y=810) ===== -->
  <rect x="200" y="810" width="1166" height="186" rx="0" fill="#1A1D2E" stroke="#F59E0B" stroke-width="1"/>
  <rect x="200" y="810" width="4" height="186" fill="#F59E0B"/>
  <text x="224" y="830" font-size="11" font-weight="700" fill="#F59E0B">Database Schema &amp; Workflow Integration</text>

  <!-- Schema left col -->
  <text x="224" y="850" font-size="10" font-weight="600" fill="#94A3B8">TABLES</text>
  <text x="224" y="866" font-size="10" fill="#D1D5DB">pos_price_levels: id, name_i18n jsonb, multiplier decimal, trigger_type varchar,</text>
  <text x="224" y="880" font-size="10" fill="#D1D5DB">  schedule_id, loyalty_tier, applies_to_categories int[], daily_limit_cents</text>
  <text x="224" y="895" font-size="10" fill="#D1D5DB">pos_menu_item_prices: item_id × price_level_id → override_price_cents (wholesale custom prices)</text>
  <text x="224" y="910" font-size="10" fill="#D1D5DB">pos_employee_meal_log: date + staff_id + total_cents (daily limit enforcement)</text>

  <text x="224" y="930" font-size="10" font-weight="600" fill="#94A3B8">ORDER CREATION FLOW</text>
  <text x="224" y="946" font-size="10" fill="#D1D5DB">apply_price_level() evaluates triggers in priority order → sets pos_order_items.price_level_id + actual_price_cents</text>
  <text x="224" y="961" font-size="10" fill="#D1D5DB">Reports use actual_price_cents (revenue at price level prices, not base price). Employee daily limit checked via meal log.</text>
  <text x="224" y="976" font-size="10" fill="#475569">Inline Wholesale edits → pos_menu_item_prices upsert. Multiplier-based levels computed at order time, not stored per-item.</text>

  <!-- Legend chips right side -->
  <rect x="980" y="848" width="90" height="18" rx="9" fill="#065F46"/>
  <text x="1025" y="861" font-size="9" fill="#6EE7B7" text-anchor="middle">● Employee Meal</text>
  <rect x="1080" y="848" width="78" height="18" rx="9" fill="#78350F"/>
  <text x="1119" y="861" font-size="9" fill="#FCD34D" text-anchor="middle">● Happy Hour</text>
  <rect x="980" y="872" width="68" height="18" rx="9" fill="#4C1D95"/>
  <text x="1014" y="885" font-size="9" fill="#C4B5FD" text-anchor="middle">● VIP Member</text>
  <rect x="1056" y="872" width="100" height="18" rx="9" fill="#1E3A5F"/>
  <text x="1106" y="885" font-size="9" fill="#93C5FD" text-anchor="middle">● Wholesale / Corp</text>
  <rect x="980" y="896" width="60" height="18" rx="9" fill="#374151"/>
  <text x="1010" y="909" font-size="9" fill="#D1D5DB" text-anchor="middle">● Regular</text>

</svg>
