<svg xmlns="http://www.w3.org/2000/svg" viewBox="0 0 1366 1024" font-family="system-ui,-apple-system,sans-serif">
  <!-- Background -->
  <rect width="1366" height="1024" fill="#0F1117"/>

  <!-- ===== LEFT NAV (w=180) ===== -->
  <rect x="0" y="0" width="180" height="1024" fill="#13162A"/>
  <text x="14" y="28" font-size="13" font-weight="700" fill="#F59E0B">⚙ Back Office</text>
  <text x="14" y="60" font-size="11" fill="#8B92A5">Gift Cards</text>
  <text x="14" y="84" font-size="11" fill="#8B92A5">Loyalty</text>
  <text x="14" y="108" font-size="11" fill="#8B92A5">Auto Gratuity</text>
  <rect x="0" y="118" width="180" height="32" fill="#1E2240" rx="0"/>
  <rect x="0" y="118" width="3" height="32" fill="#F59E0B"/>
  <text x="14" y="139" font-size="12" font-weight="600" fill="#F59E0B">House Accounts</text>
  <text x="14" y="168" font-size="11" fill="#8B92A5">Tax Exempt</text>
  <text x="14" y="192" font-size="11" fill="#8B92A5">Discounts</text>
  <text x="14" y="216" font-size="11" fill="#8B92A5">Cash Management</text>
  <text x="14" y="240" font-size="11" fill="#8B92A5">Price Levels</text>
  <text x="14" y="264" font-size="11" fill="#8B92A5">Employees</text>
  <text x="14" y="288" font-size="11" fill="#8B92A5">Inventory</text>
  <text x="14" y="312" font-size="11" fill="#8B92A5">Reports</text>
  <text x="14" y="336" font-size="11" fill="#8B92A5">Integrations</text>
  <text x="14" y="360" font-size="11" fill="#8B92A5">Equipment</text>
  <text x="14" y="384" font-size="11" fill="#8B92A5">Receipts</text>
  <text x="14" y="408" font-size="11" fill="#8B92A5">Taxes</text>

  <!-- ===== TOP HEADER (h=64) ===== -->
  <rect x="180" y="0" width="1186" height="64" fill="#1A1D2E"/>
  <text x="200" y="28" font-size="20" font-weight="700" fill="#F1F5F9">House Accounts</text>
  <text x="200" y="48" font-size="10.5" fill="#94A3B8">Corporate charge accounts — customers dine, charges post to their account, invoiced monthly. Common for hotel F&amp;B, corporate catering, club memberships.</text>
  <!-- Header buttons -->
  <rect x="1074" y="14" width="140" height="34" rx="6" fill="#F59E0B"/>
  <text x="1094" y="36" font-size="12" font-weight="700" fill="#000">+ New House Account</text>
  <rect x="1224" y="14" width="122" height="34" rx="6" fill="#1A1D2E" stroke="#2D3148" stroke-width="1"/>
  <text x="1248" y="36" font-size="12" fill="#F1F5F9">Export CSV</text>

  <!-- ===== STATS BAR (y=64, h=72) ===== -->
  <rect x="180" y="64" width="1186" height="72" fill="#13162A" stroke="#2D3148" stroke-width="0"/>
  <!-- Stat 1 -->
  <rect x="188" y="70" width="218" height="60" rx="8" fill="#1A1D2E"/>
  <text x="208" y="90" font-size="10" fill="#94A3B8">Active House Accounts</text>
  <text x="208" y="118" font-size="26" font-weight="700" fill="#F1F5F9">12</text>
  <!-- Stat 2 -->
  <rect x="414" y="70" width="218" height="60" rx="8" fill="#1A1D2E"/>
  <text x="434" y="90" font-size="10" fill="#94A3B8">Total Outstanding Balance</text>
  <text x="434" y="118" font-size="22" font-weight="700" fill="#F59E0B">$8,420.50</text>
  <!-- Stat 3 -->
  <rect x="640" y="70" width="200" height="60" rx="8" fill="#1A1D2E"/>
  <text x="660" y="90" font-size="10" fill="#94A3B8">Charges This Month</text>
  <text x="660" y="118" font-size="22" font-weight="700" fill="#F1F5F9">$4,240.00</text>
  <!-- Stat 4 -->
  <rect x="848" y="70" width="180" height="60" rx="8" fill="#1A1D2E"/>
  <text x="868" y="90" font-size="10" fill="#94A3B8">Invoices Overdue</text>
  <text x="868" y="115" font-size="26" font-weight="700" fill="#F97316">2</text>
  <rect x="906" y="101" width="60" height="18" rx="4" fill="#F97316" fill-opacity="0.2"/>
  <text x="911" y="114" font-size="9" font-weight="600" fill="#F97316">⚠ OVERDUE</text>
  <!-- Stat 5 -->
  <rect x="1036" y="70" width="218" height="60" rx="8" fill="#1A1D2E"/>
  <text x="1056" y="90" font-size="10" fill="#94A3B8">Payments Received</text>
  <text x="1056" y="113" font-size="20" font-weight="700" fill="#10B981">$6,180.00</text>
  <text x="1056" y="128" font-size="9" fill="#64748B">this month</text>

  <!-- ===== LEFT PANEL — Account List (x=180, w=340, y=136) ===== -->
  <rect x="180" y="136" width="340" height="888" fill="#1A1D2E" stroke="#2D3148" stroke-width="1"/>

  <!-- Search bar -->
  <rect x="196" y="150" width="306" height="34" rx="6" fill="#0F1117" stroke="#2D3148" stroke-width="1"/>
  <text x="212" y="172" font-size="11" fill="#64748B">🔍  Search accounts...</text>

  <!-- Filter tabs -->
  <rect x="196" y="194" width="305" height="28" rx="6" fill="#0F1117"/>
  <rect x="198" y="196" width="62" height="24" rx="5" fill="#F59E0B"/>
  <text x="210" y="212" font-size="10" font-weight="700" fill="#000">All (12)</text>
  <text x="270" y="212" font-size="10" fill="#94A3B8">Active</text>
  <text x="318" y="212" font-size="10" fill="#EF4444">Overdue (2)</text>
  <text x="380" y="212" font-size="10" fill="#94A3B8">Pending</text>

  <!-- Account Card 1 — Marriott (selected) -->
  <rect x="188" y="232" width="322" height="74" rx="6" fill="#1E2240" stroke="#F59E0B" stroke-width="1.5"/>
  <rect x="188" y="232" width="4" height="74" rx="2" fill="#F59E0B"/>
  <text x="204" y="252" font-size="12" font-weight="700" fill="#F1F5F9">Marriott Hotels — Corporate</text>
  <text x="204" y="268" font-size="10" fill="#94A3B8">Balance: </text>
  <text x="247" y="268" font-size="10" font-weight="600" fill="#F59E0B">$2,840.00</text>
  <rect x="380" y="257" width="50" height="16" rx="4" fill="#10B981" fill-opacity="0.2"/>
  <text x="386" y="268" font-size="9" font-weight="600" fill="#10B981">Active</text>
  <text x="204" y="284" font-size="9" fill="#64748B">Invoice due Jun 1</text>
  <text x="204" y="298" font-size="9" fill="#64748B">HOUSE-0042</text>

  <!-- Account Card 2 — City Law Firm -->
  <rect x="188" y="314" width="322" height="70" rx="6" fill="#13162A" stroke="#2D3148" stroke-width="1"/>
  <text x="204" y="334" font-size="12" font-weight="600" fill="#F1F5F9">City Law Firm LLP</text>
  <text x="204" y="350" font-size="10" fill="#94A3B8">Balance: </text>
  <text x="247" y="350" font-size="10" font-weight="600" fill="#F1F5F9">$1,620.00</text>
  <rect x="380" y="339" width="50" height="16" rx="4" fill="#10B981" fill-opacity="0.2"/>
  <text x="386" y="350" font-size="9" font-weight="600" fill="#10B981">Active</text>
  <text x="204" y="366" font-size="9" fill="#64748B">Invoice due Jun 1</text>
  <text x="204" y="378" font-size="9" fill="#64748B">HOUSE-0018</text>

  <!-- Account Card 3 — Acme Corp (OVERDUE) -->
  <rect x="188" y="392" width="322" height="70" rx="6" fill="#13162A" stroke="#EF4444" stroke-width="1"/>
  <rect x="188" y="392" width="4" height="70" rx="2" fill="#EF4444"/>
  <text x="204" y="412" font-size="12" font-weight="600" fill="#F1F5F9">Acme Corp Catering</text>
  <text x="204" y="428" font-size="10" fill="#94A3B8">Balance: </text>
  <text x="247" y="428" font-size="10" font-weight="600" fill="#EF4444">$980.00</text>
  <rect x="370" y="417" width="60" height="16" rx="4" fill="#EF4444" fill-opacity="0.2"/>
  <text x="374" y="428" font-size="9" font-weight="700" fill="#EF4444">OVERDUE</text>
  <text x="204" y="444" font-size="9" fill="#EF4444">Invoice 30 days past due</text>
  <text x="204" y="456" font-size="9" fill="#64748B">HOUSE-0031</text>

  <!-- Account Card 4 — Downtown Hotel -->
  <rect x="188" y="470" width="322" height="62" rx="6" fill="#13162A" stroke="#2D3148" stroke-width="1"/>
  <text x="204" y="490" font-size="12" font-weight="600" fill="#F1F5F9">Downtown Hotel Guests</text>
  <text x="204" y="506" font-size="10" fill="#94A3B8">Balance: </text>
  <text x="247" y="506" font-size="10" font-weight="600" fill="#F1F5F9">$640.00</text>
  <rect x="380" y="495" width="50" height="16" rx="4" fill="#10B981" fill-opacity="0.2"/>
  <text x="386" y="506" font-size="9" font-weight="600" fill="#10B981">Active</text>
  <text x="204" y="524" font-size="9" fill="#64748B">HOUSE-0007</text>

  <!-- Account Card 5 — Sunrise Academy (OVERDUE) -->
  <rect x="188" y="540" width="322" height="62" rx="6" fill="#13162A" stroke="#EF4444" stroke-width="1"/>
  <rect x="188" y="540" width="4" height="62" rx="2" fill="#EF4444"/>
  <text x="204" y="560" font-size="12" font-weight="600" fill="#F1F5F9">Sunrise Academy</text>
  <text x="204" y="576" font-size="10" fill="#94A3B8">Balance: </text>
  <text x="247" y="576" font-size="10" font-weight="600" fill="#EF4444">$580.00</text>
  <rect x="370" y="565" width="60" height="16" rx="4" fill="#EF4444" fill-opacity="0.2"/>
  <text x="374" y="576" font-size="9" font-weight="700" fill="#EF4444">OVERDUE</text>
  <text x="204" y="592" font-size="9" fill="#EF4444">15 days past due</text>

  <!-- Account Card 6 — Metro Hospital -->
  <rect x="188" y="610" width="322" height="56" rx="6" fill="#13162A" stroke="#2D3148" stroke-width="1"/>
  <text x="204" y="630" font-size="12" font-weight="600" fill="#F1F5F9">Metro Hospital Cafeteria</text>
  <text x="204" y="646" font-size="10" fill="#94A3B8">Balance: </text>
  <text x="247" y="646" font-size="10" font-weight="600" fill="#F1F5F9">$420.00</text>
  <rect x="380" y="635" width="50" height="16" rx="4" fill="#10B981" fill-opacity="0.2"/>
  <text x="386" y="646" font-size="9" font-weight="600" fill="#10B981">Active</text>
  <text x="204" y="658" font-size="9" fill="#64748B">HOUSE-0055</text>

  <!-- Account Card 7 — Senator's Club -->
  <rect x="188" y="674" width="322" height="56" rx="6" fill="#13162A" stroke="#2D3148" stroke-width="1"/>
  <text x="204" y="694" font-size="12" font-weight="600" fill="#F1F5F9">Senator's Club</text>
  <text x="204" y="710" font-size="10" fill="#94A3B8">Balance: </text>
  <text x="247" y="710" font-size="10" font-weight="600" fill="#F1F5F9">$890.00</text>
  <rect x="380" y="699" width="50" height="16" rx="4" fill="#10B981" fill-opacity="0.2"/>
  <text x="386" y="710" font-size="9" font-weight="600" fill="#10B981">Active</text>
  <text x="204" y="722" font-size="9" fill="#64748B">HOUSE-0062</text>

  <!-- Account Card 8 — TechCorp HQ -->
  <rect x="188" y="738" width="322" height="56" rx="6" fill="#13162A" stroke="#2D3148" stroke-width="1"/>
  <text x="204" y="758" font-size="12" font-weight="600" fill="#F1F5F9">TechCorp HQ Cafe</text>
  <text x="204" y="774" font-size="10" fill="#94A3B8">Balance: </text>
  <text x="247" y="774" font-size="10" font-weight="600" fill="#F1F5F9">$450.00</text>
  <rect x="380" y="763" width="50" height="16" rx="4" fill="#10B981" fill-opacity="0.2"/>
  <text x="386" y="774" font-size="9" font-weight="600" fill="#10B981">Active</text>
  <text x="204" y="786" font-size="9" fill="#64748B">HOUSE-0071</text>

  <!-- View All link -->
  <text x="270" y="816" font-size="11" fill="#8B5CF6" text-decoration="underline">View All 12 accounts →</text>

  <!-- New House Account button -->
  <rect x="196" y="830" width="306" height="36" rx="6" fill="#F59E0B"/>
  <text x="280" y="853" font-size="13" font-weight="700" fill="#000">+ New House Account</text>

  <!-- ===== CENTER PANEL — Account Detail (x=520, w=480, y=136) ===== -->
  <rect x="520" y="136" width="480" height="888" fill="#0F1117" stroke="#2D3148" stroke-width="1"/>

  <!-- Center panel header -->
  <rect x="520" y="136" width="480" height="54" fill="#1A1D2E" stroke="#2D3148" stroke-width="1"/>
  <text x="536" y="158" font-size="15" font-weight="700" fill="#F1F5F9">Marriott Hotels — Corporate</text>
  <rect x="536" y="162" width="48" height="18" rx="4" fill="#10B981" fill-opacity="0.2"/>
  <text x="542" y="174" font-size="9" font-weight="700" fill="#10B981">● Active</text>
  <rect x="830" y="144" width="52" height="28" rx="5" fill="#1A1D2E" stroke="#2D3148" stroke-width="1"/>
  <text x="843" y="162" font-size="11" fill="#F1F5F9">Edit</text>
  <rect x="890" y="144" width="100" height="28" rx="5" fill="#F59E0B"/>
  <text x="897" y="162" font-size="11" font-weight="700" fill="#000">Gen Invoice</text>

  <!-- Account Info section -->
  <rect x="528" y="200" width="462" height="230" rx="6" fill="#1A1D2E"/>
  <text x="544" y="222" font-size="12" font-weight="700" fill="#F1F5F9">Account Information</text>
  <!-- Info rows -->
  <text x="544" y="244" font-size="10" fill="#64748B">ACCOUNT #</text>
  <text x="680" y="244" font-size="10" fill="#F1F5F9">HOUSE-0042</text>
  <text x="544" y="262" font-size="10" fill="#64748B">BILLING CONTACT</text>
  <text x="680" y="262" font-size="10" fill="#F1F5F9">Jane Smith, Finance Dept — jsmith@marriott.com</text>
  <text x="544" y="280" font-size="10" fill="#64748B">BILLING CYCLE</text>
  <text x="680" y="280" font-size="10" fill="#F1F5F9">Monthly — invoiced on the 1st</text>
  <text x="544" y="298" font-size="10" fill="#64748B">PAYMENT TERMS</text>
  <text x="680" y="298" font-size="10" fill="#F1F5F9">Net 30</text>
  <text x="544" y="316" font-size="10" fill="#64748B">PRICE LEVEL</text>
  <text x="680" y="316" font-size="10" fill="#8B5CF6">Wholesale ↗</text>
  <text x="544" y="334" font-size="10" fill="#64748B">TAX STATUS</text>
  <text x="680" y="334" font-size="10" fill="#10B981">Tax-exempt — Cert #NY-CORP-2024-847 ↗</text>
  <!-- Credit limit -->
  <text x="544" y="354" font-size="10" fill="#64748B">CREDIT LIMIT</text>
  <text x="680" y="354" font-size="10" fill="#F1F5F9">$10,000.00   |   Used: $2,840 (28%)</text>
  <!-- Credit bar -->
  <rect x="544" y="360" width="430" height="8" rx="4" fill="#0F1117"/>
  <rect x="544" y="360" width="120" height="8" rx="4" fill="#10B981"/>
  <text x="544" y="384" font-size="9" fill="#10B981">$7,160.00 available</text>
  <text x="680" y="384" font-size="9" fill="#64748B">Alert at 80% ($8,000)</text>
  <text x="544" y="400" font-size="10" fill="#64748B">CREDIT AVAIL</text>
  <text x="680" y="400" font-size="10" font-weight="600" fill="#10B981">$7,160.00</text>
  <text x="544" y="416" font-size="10" fill="#64748B">ALERT THRESHOLD</text>
  <text x="680" y="416" font-size="10" fill="#F59E0B">80% of limit ($8,000.00)</text>

  <!-- Authorized Purchasers -->
  <rect x="528" y="440" width="462" height="100" rx="6" fill="#1A1D2E"/>
  <text x="544" y="460" font-size="12" font-weight="700" fill="#F1F5F9">Authorized Purchasers</text>
  <!-- Row 1 -->
  <text x="544" y="480" font-size="11" fill="#10B981">✓</text>
  <text x="560" y="480" font-size="11" fill="#F1F5F9">John Davis</text>
  <text x="640" y="480" font-size="10" fill="#64748B">ext. 201</text>
  <rect x="688" y="469" width="66" height="16" rx="4" fill="#10B981" fill-opacity="0.2"/>
  <text x="694" y="480" font-size="9" font-weight="600" fill="#10B981">Authorized</text>
  <!-- Row 2 -->
  <text x="544" y="500" font-size="11" fill="#10B981">✓</text>
  <text x="560" y="500" font-size="11" fill="#F1F5F9">Mary Chen</text>
  <text x="640" y="500" font-size="10" fill="#64748B">ext. 415</text>
  <rect x="688" y="489" width="66" height="16" rx="4" fill="#10B981" fill-opacity="0.2"/>
  <text x="694" y="500" font-size="9" font-weight="600" fill="#10B981">Authorized</text>
  <!-- Row 3 -->
  <text x="544" y="520" font-size="11" fill="#F59E0B">⚠</text>
  <text x="560" y="520" font-size="11" fill="#F1F5F9">Sam Wilson</text>
  <text x="640" y="520" font-size="10" fill="#64748B">ext. 302</text>
  <rect x="688" y="509" width="92" height="16" rx="4" fill="#F59E0B" fill-opacity="0.15"/>
  <text x="692" y="520" font-size="9" font-weight="600" fill="#F59E0B">Mgr Auth &gt;$500</text>
  <text x="544" y="532" font-size="9" fill="#64748B">Orders over $500 require manager approval</text>

  <!-- Charges Log -->
  <rect x="528" y="548" width="462" height="218" rx="6" fill="#1A1D2E"/>
  <text x="544" y="568" font-size="12" font-weight="700" fill="#F1F5F9">Charges This Month</text>
  <!-- Table header -->
  <rect x="528" y="574" width="462" height="24" fill="#13162A"/>
  <text x="544" y="590" font-size="9" font-weight="700" fill="#64748B">DATE</text>
  <text x="596" y="590" font-size="9" font-weight="700" fill="#64748B">CHECK #</text>
  <text x="660" y="590" font-size="9" font-weight="700" fill="#64748B">ITEMS</text>
  <text x="810" y="590" font-size="9" font-weight="700" fill="#64748B">SERVER</text>
  <text x="876" y="590" font-size="9" font-weight="700" fill="#64748B">AMOUNT</text>
  <text x="940" y="590" font-size="9" font-weight="700" fill="#64748B">STATUS</text>
  <!-- Row 1 -->
  <rect x="528" y="598" width="462" height="24" fill="#1A1D2E"/>
  <text x="544" y="614" font-size="10" fill="#94A3B8">May 27</text>
  <text x="596" y="614" font-size="10" fill="#94A3B8">#2406-142</text>
  <text x="660" y="614" font-size="10" fill="#F1F5F9">Business Lunch (4 guests)</text>
  <text x="810" y="614" font-size="10" fill="#94A3B8">Marcus</text>
  <text x="876" y="614" font-size="10" font-weight="600" fill="#F1F5F9">$187.40</text>
  <text x="940" y="614" font-size="10" fill="#10B981">Charged ✓</text>
  <!-- Row 2 -->
  <rect x="528" y="622" width="462" height="24" fill="#13162A"/>
  <text x="544" y="638" font-size="10" fill="#94A3B8">May 25</text>
  <text x="596" y="638" font-size="10" fill="#94A3B8">#2406-098</text>
  <text x="660" y="638" font-size="10" fill="#F1F5F9">Dinner Meeting (8 guests)</text>
  <text x="810" y="638" font-size="10" fill="#94A3B8">Sarah</text>
  <text x="876" y="638" font-size="10" font-weight="600" fill="#F1F5F9">$640.20</text>
  <text x="940" y="638" font-size="10" fill="#10B981">Charged ✓</text>
  <!-- Row 3 -->
  <rect x="528" y="646" width="462" height="24" fill="#1A1D2E"/>
  <text x="544" y="662" font-size="10" fill="#94A3B8">May 22</text>
  <text x="596" y="662" font-size="10" fill="#94A3B8">#2406-071</text>
  <text x="660" y="662" font-size="10" fill="#F1F5F9">Breakfast (12 guests)</text>
  <text x="810" y="662" font-size="10" fill="#94A3B8">Tyler</text>
  <text x="876" y="662" font-size="10" font-weight="600" fill="#F1F5F9">$384.60</text>
  <text x="940" y="662" font-size="10" fill="#10B981">Charged ✓</text>
  <!-- Row 4 -->
  <rect x="528" y="670" width="462" height="24" fill="#13162A"/>
  <text x="544" y="686" font-size="10" fill="#94A3B8">May 20</text>
  <text x="596" y="686" font-size="10" fill="#94A3B8">#2406-055</text>
  <text x="660" y="686" font-size="10" fill="#F1F5F9">Cocktail Reception</text>
  <text x="810" y="686" font-size="10" fill="#94A3B8">Marcus</text>
  <text x="876" y="686" font-size="10" font-weight="600" fill="#F1F5F9">$1,187.80</text>
  <text x="940" y="686" font-size="10" fill="#10B981">Charged ✓</text>
  <!-- Row 5 -->
  <rect x="528" y="694" width="462" height="24" fill="#1A1D2E"/>
  <text x="544" y="710" font-size="10" fill="#94A3B8">May 15</text>
  <text x="596" y="710" font-size="10" fill="#94A3B8">#2406-031</text>
  <text x="660" y="710" font-size="10" fill="#F1F5F9">Corporate Lunch (6)</text>
  <text x="810" y="710" font-size="10" fill="#94A3B8">Sarah</text>
  <text x="876" y="710" font-size="10" font-weight="600" fill="#F1F5F9">$440.00</text>
  <text x="940" y="710" font-size="10" fill="#10B981">Charged ✓</text>
  <!-- Total row -->
  <rect x="528" y="718" width="462" height="30" fill="#1E2240"/>
  <text x="810" y="737" font-size="11" font-weight="700" fill="#F1F5F9">TOTAL</text>
  <text x="876" y="737" font-size="12" font-weight="700" fill="#F59E0B">$2,840.00</text>
  <text x="940" y="737" font-size="10" fill="#64748B">5 charges</text>
  <!-- Divider line -->
  <line x1="528" y1="748" x2="990" y2="748" stroke="#2D3148" stroke-width="1"/>

  <!-- Invoice Preview -->
  <rect x="528" y="756" width="462" height="156" rx="6" fill="#1A1D2E" stroke="#2D3148" stroke-width="1"/>
  <rect x="528" y="756" width="462" height="24" rx="6" fill="#13162A"/>
  <text x="544" y="772" font-size="10" font-weight="700" fill="#64748B">INVOICE PREVIEW — INV-2026-05-042</text>
  <text x="544" y="796" font-size="10" fill="#64748B">Period:</text>
  <text x="590" y="796" font-size="10" fill="#F1F5F9">May 1–31, 2026</text>
  <text x="544" y="812" font-size="10" fill="#64748B">Account:</text>
  <text x="590" y="812" font-size="10" fill="#F1F5F9">Marriott Hotels — Corporate</text>
  <text x="544" y="828" font-size="10" fill="#64748B">Total Charges:</text>
  <text x="630" y="828" font-size="10" font-weight="600" fill="#F1F5F9">$2,840.00</text>
  <text x="544" y="844" font-size="10" fill="#64748B">Previous Balance:</text>
  <text x="650" y="844" font-size="10" fill="#10B981">$0.00 (paid on time)</text>
  <text x="544" y="860" font-size="11" font-weight="700" fill="#64748B">TOTAL DUE:</text>
  <text x="630" y="860" font-size="13" font-weight="700" fill="#F59E0B">$2,840.00</text>
  <text x="770" y="860" font-size="10" fill="#64748B">Due: June 30, 2026 (Net 30)</text>
  <!-- Invoice buttons -->
  <rect x="544" y="872" width="100" height="28" rx="5" fill="#F59E0B"/>
  <text x="564" y="890" font-size="11" font-weight="700" fill="#000">Send Invoice</text>
  <rect x="652" y="872" width="58" height="28" rx="5" fill="#1A1D2E" stroke="#2D3148" stroke-width="1"/>
  <text x="665" y="890" font-size="11" fill="#F1F5F9">Print</text>
  <rect x="718" y="872" width="92" height="28" rx="5" fill="#1A1D2E" stroke="#2D3148" stroke-width="1"/>
  <text x="728" y="890" font-size="11" fill="#F1F5F9">Preview PDF</text>

  <!-- ===== RIGHT PANEL (x=1000, w=366, y=136) ===== -->
  <rect x="1000" y="136" width="366" height="888" fill="#0F1117" stroke="#2D3148" stroke-width="1"/>

  <!-- HOW IT WORKS ON REGISTER -->
  <rect x="1010" y="144" width="346" height="220" rx="6" fill="#1A1D2E" stroke="#F59E0B" stroke-width="1"/>
  <text x="1026" y="164" font-size="12" font-weight="700" fill="#F59E0B">How It Works on Register</text>
  <rect x="1026" y="170" width="314" height="2" fill="#F59E0B" fill-opacity="0.3"/>
  <text x="1026" y="188" font-size="10" fill="#94A3B8">1.  Server selects "House Account" as payment method</text>
  <text x="1026" y="206" font-size="10" fill="#94A3B8">2.  Search account by name or account number</text>
  <text x="1026" y="224" font-size="10" fill="#94A3B8">3.  Select authorized purchaser from list</text>
  <text x="1026" y="242" font-size="10" fill="#F97316">4.  If order &gt; $500 → manager approval popup required</text>
  <text x="1026" y="260" font-size="10" fill="#94A3B8">5.  Charge posts to account immediately on approval</text>
  <text x="1026" y="278" font-size="10" fill="#94A3B8">6.  Receipt: "Charged to: Marriott Hotels (#HOUSE-0042)"</text>
  <text x="1026" y="296" font-size="10" fill="#94A3B8">7.  Customer emailed receipt (optional per account setting)</text>
  <text x="1026" y="318" font-size="9" fill="#F59E0B">Credit check: balance + order ≤ credit_limit → else BLOCK</text>
  <text x="1026" y="334" font-size="9" fill="#64748B">pos_payments.method = 'house_account' + house_account_id FK</text>

  <!-- PAYMENT RECORDING -->
  <rect x="1010" y="374" width="346" height="230" rx="6" fill="#1A1D2E"/>
  <text x="1026" y="394" font-size="12" font-weight="700" fill="#F1F5F9">Record Payment</text>
  <line x1="1026" y1="400" x2="1348" y2="400" stroke="#2D3148" stroke-width="1"/>
  <text x="1026" y="420" font-size="10" fill="#64748B">ACCOUNT</text>
  <rect x="1026" y="426" width="314" height="28" rx="5" fill="#0F1117" stroke="#2D3148" stroke-width="1"/>
  <text x="1038" y="444" font-size="10" fill="#F1F5F9">Marriott Hotels — Corporate</text>
  <text x="1026" y="470" font-size="10" fill="#64748B">INVOICE</text>
  <rect x="1026" y="476" width="314" height="28" rx="5" fill="#0F1117" stroke="#2D3148" stroke-width="1"/>
  <text x="1038" y="494" font-size="10" fill="#F1F5F9">INV-2026-05-042 — $2,840.00</text>
  <text x="1026" y="520" font-size="10" fill="#64748B">PAYMENT METHOD</text>
  <!-- Method toggles -->
  <text x="1030" y="538" font-size="10" fill="#64748B">○ Check</text>
  <text x="1082" y="538" font-size="10" fill="#64748B">○ ACH</text>
  <text x="1120" y="538" font-size="10" fill="#F59E0B">◉ Wire</text>
  <text x="1162" y="538" font-size="10" fill="#64748B">○ Card</text>
  <text x="1026" y="558" font-size="10" fill="#64748B">REFERENCE #</text>
  <rect x="1026" y="564" width="314" height="28" rx="5" fill="#0F1117" stroke="#2D3148" stroke-width="1"/>
  <text x="1038" y="582" font-size="10" fill="#F1F5F9">ACH-20260601-9284</text>
  <text x="1026" y="608" font-size="10" fill="#64748B">NOTES</text>
  <rect x="1026" y="614" width="314" height="28" rx="5" fill="#0F1117" stroke="#2D3148" stroke-width="1"/>
  <text x="1038" y="632" font-size="10" fill="#64748B">Optional notes...</text>
  <!-- Record Payment button -->
  <rect x="1026" y="650" width="142" height="32" rx="6" fill="#10B981"/>
  <text x="1044" y="670" font-size="12" font-weight="700" fill="#fff">Record Payment</text>
  <text x="1178" y="670" font-size="10" fill="#64748B">Amount: $2,840.00</text>

  <!-- OVERDUE ACCOUNTS ACTIONS -->
  <rect x="1010" y="614" width="346" height="200" rx="6" fill="#1A1D2E" stroke="#EF4444" stroke-width="1"/>
  <rect x="1010" y="614" width="346" height="28" rx="6" fill="#EF4444" fill-opacity="0.12"/>
  <text x="1026" y="633" font-size="12" font-weight="700" fill="#EF4444">Overdue Accounts — Action Required</text>
  <!-- Acme Corp card -->
  <rect x="1018" y="648" width="330" height="72" rx="5" fill="#13162A" stroke="#EF4444" stroke-width="1"/>
  <text x="1030" y="666" font-size="11" font-weight="700" fill="#F1F5F9">Acme Corp Catering</text>
  <text x="1030" y="682" font-size="10" fill="#EF4444">30 days overdue — $980.00</text>
  <!-- Action buttons -->
  <rect x="1030" y="690" width="120" height="24" rx="4" fill="#F59E0B"/>
  <text x="1038" y="706" font-size="9" font-weight="700" fill="#000">Send Reminder Email</text>
  <rect x="1158" y="690" width="120" height="24" rx="4" fill="#EF4444"/>
  <text x="1164" y="706" font-size="9" font-weight="700" fill="#fff">Put Account on Hold</text>
  <!-- Collections note -->
  <text x="1018" y="736" font-size="10" fill="#64748B">Collections Note:</text>
  <rect x="1018" y="742" width="330" height="28" rx="5" fill="#0F1117" stroke="#2D3148" stroke-width="1"/>
  <text x="1030" y="760" font-size="10" fill="#64748B">Enter collections note...</text>
  <!-- Sunrise Academy row -->
  <rect x="1018" y="778" width="330" height="28" rx="5" fill="#13162A" stroke="#EF4444" stroke-width="1"/>
  <text x="1030" y="792" font-size="10" fill="#F1F5F9">Sunrise Academy — 15 days — $580.00</text>
  <rect x="1256" y="780" width="84" height="22" rx="4" fill="#F59E0B"/>
  <text x="1261" y="795" font-size="9" font-weight="700" fill="#000">Send Reminder</text>

  <!-- ===== WORKFLOW INTEGRATION FOOTER (full width, y=876) ===== -->
  <rect x="180" y="876" width="1186" height="148" rx="0" fill="#1A1D2E" stroke="#F59E0B" stroke-width="1"/>
  <text x="200" y="898" font-size="11" font-weight="700" fill="#F59E0B">Database Schema &amp; Workflow Integration</text>
  <line x1="200" y1="904" x2="1350" y2="904" stroke="#F59E0B" stroke-width="0.5" stroke-opacity="0.4"/>
  <text x="200" y="920" font-size="9.5" fill="#94A3B8">pos_house_accounts: id, venue_id, company_name, billing_email, credit_limit_cents, balance_cents, price_level_id, tax_exempt_account_id, billing_cycle, payment_terms_days</text>
  <text x="200" y="936" font-size="9.5" fill="#94A3B8">pos_house_account_charges: charge_id, account_id, order_id, amount_cents, purchaser_name, ts</text>
  <text x="200" y="952" font-size="9.5" fill="#94A3B8">pos_invoices: invoice_id, account_id, period_start, period_end, total_cents, status (draft | sent | paid | overdue)</text>
  <text x="200" y="968" font-size="9.5" fill="#94A3B8">pos_invoice_payments: payment_id, invoice_id, method, reference, amount_cents, recorded_at</text>
  <text x="200" y="984" font-size="9.5" fill="#94A3B8">Register: pos_payments.method = 'house_account', house_account_id FK. Credit check: balance + order_amount &lt;= credit_limit else BLOCK.</text>
  <text x="200" y="1000" font-size="9.5" fill="#94A3B8">Monthly cron: generate invoices on billing_day, email via SendGrid, update status. Overdue: auto-flag at payment_terms_days + 1.</text>
  <text x="200" y="1016" font-size="9" fill="#64748B">Linked: pos_price_levels (price_level_id) · pos_tax_exempt_accounts (tax_exempt_account_id) · pos_orders (order_id) · pos_customers (purchaser)</text>
</svg>
