<svg role="img" aria-labelledby="title-settings_combos-svg" xmlns="http://www.w3.org/2000/svg" viewBox="0 0 1366 1024" font-family="-apple-system,system-ui,BlinkMacSystemFont,sans-serif">

  <!-- ============================================================
       SETTINGS: Combo Meals & Bundle Pricing
       DB: pos_combos, pos_combo_components, pos_menu_items,
           pos_menu_categories, pos_order_items
       Admin portal — all fields editable + saveable
       ============================================================ -->

  <title id="title-settings_combos-svg">Synalux POS — comUos</title>
  <desc>Synalux POS mockup screen for comUos. All UI elements admin-configurable.</desc>
  <defs>
    <!-- Gradients -->
    <linearGradient id="headerGrad" x1="0" y1="0" x2="0" y2="1">
      <stop offset="0%" stop-color="#1E2235"/>
      <stop offset="100%" stop-color="#181B30"/>
    </linearGradient>
    <linearGradient id="amberBtnGrad" x1="0" y1="0" x2="0" y2="1">
      <stop offset="0%" stop-color="#FBBF24"/>
      <stop offset="100%" stop-color="#F59E0B"/>
    </linearGradient>
    <linearGradient id="cardGrad" x1="0" y1="0" x2="0" y2="1">
      <stop offset="0%" stop-color="#1A1D2E"/>
      <stop offset="100%" stop-color="#161925"/>
    </linearGradient>
    <linearGradient id="navGrad" x1="0" y1="0" x2="1" y2="0">
      <stop offset="0%" stop-color="#10122A"/>
      <stop offset="100%" stop-color="#161930"/>
    </linearGradient>
    <linearGradient id="greenBtnGrad" x1="0" y1="0" x2="0" y2="1">
      <stop offset="0%" stop-color="#34D399"/>
      <stop offset="100%" stop-color="#22C55E"/>
    </linearGradient>

    <!-- Filters -->
    <filter id="shadow" x="-4%" y="-4%" width="108%" height="112%">
      <feDropShadow dx="0" dy="2" stdDeviation="4" flood-color="#000000" flood-opacity="0.35"/>
    </filter>
    <filter id="shadowSm" x="-2%" y="-2%" width="104%" height="108%">
      <feDropShadow dx="0" dy="1" stdDeviation="2" flood-color="#000000" flood-opacity="0.25"/>
    </filter>

    <!-- ===== SYMBOLS ===== -->

    <!-- Admin gear icon -->
    <symbol id="adminGear" viewBox="0 0 12 12">
      <path d="M6 0l.9 2.1L9 1.5l-.6 2.1H10.5L9 5.1l1.5 1.5-2.1-.6.6 2.1-1.5-1.5L6 8.7 4.5 6.6 3 8.1l.6-2.1-2.1.6L3 5.1.5 3.6H3L2.4 1.5l2.1.6z"
        fill="#F59E0B" opacity="0.7"/>
    </symbol>

    <!-- Active nav item -->
    <symbol id="navItemActive" viewBox="0 0 200 36">
      <rect width="200" height="36" fill="#1E2235"/>
  <!-- Synalux POS -->
      <rect width="3" height="36" fill="#F59E0B"/>
    </symbol>

    <!-- Toggle ON -->
    <symbol id="toggleOn" viewBox="0 0 44 20">
      <rect width="44" height="20" rx="10" fill="#22C55E"/>
      <circle cx="32" cy="10" r="8" fill="#FFFFFF"/>
    </symbol>

    <!-- Toggle OFF -->
    <symbol id="toggleOff" viewBox="0 0 36 18">
      <rect width="36" height="18" rx="9" fill="#374151"/>
      <circle cx="10" cy="9" r="7" fill="#94A3B8"/>
    </symbol>

    <!-- Radio selected -->
    <symbol id="radioOn" viewBox="0 0 10 10">
      <circle cx="5" cy="5" r="5" fill="inherit"/>
    </symbol>

    <!-- Radio unselected -->
    <symbol id="radioOff" viewBox="0 0 10 10">
      <circle cx="5" cy="5" r="5" fill="none" stroke="#64748B" stroke-width="1.5"/>
    </symbol>

    <!-- Active status badge -->
    <symbol id="activeBadge" viewBox="0 0 56 18">
      <rect width="56" height="18" rx="9" fill="#065F46"/>
      <text x="13" y="13" font-size="9" fill="#6EE7B7">Active</text>
    </symbol>

    <!-- Combo accent bar -->
    <symbol id="accentBar" viewBox="0 0 5 76">
      <rect width="5" height="76" rx="3" fill="inherit"/>
    </symbol>

    <!-- Component accent bar -->
    <symbol id="componentBar" viewBox="0 0 4 96">
      <rect width="4" height="96" rx="2" fill="inherit"/>
    </symbol>

    <!-- Required badge -->
    <symbol id="requiredBadge" viewBox="0 0 60 16">
      <rect width="60" height="16" rx="8" fill="#1E3A5F"/>
      <text x="5" y="12" font-size="9" fill="#60A5FA">REQUIRED</text>
    </symbol>

    <!-- Stat card -->
    <symbol id="statCard" viewBox="0 0 268 54">
      <rect width="268" height="54" rx="6" fill="#1A1D2E"/>
    </symbol>
  </defs>

  <!-- ===== BACKGROUND ===== -->
  <rect width="1366" height="1024" fill="#0C0E1A"/>

  <!-- ===== LEFT NAV ===== -->
  <!-- DB: pos_admin_navigation -->
  <rect x="0" y="0" width="200" height="1024" fill="url(#navGrad)"/>
  <rect x="199" y="0" width="1" height="1024" fill="#2A2E45"/>

  <text x="16" y="30" font-size="13" font-weight="700" fill="#F59E0B">Back Office</text>
  <use href="#adminGear" x="96" y="19" width="12" height="12"/>

  <text x="16" y="67" font-size="12" fill="#94A3B8">Menu Builder</text>
  <text x="16" y="103" font-size="12" fill="#94A3B8">Taxes</text>
  <text x="16" y="139" font-size="12" fill="#94A3B8">Employees</text>
  <text x="16" y="175" font-size="12" fill="#94A3B8">Equipment</text>
  <text x="16" y="211" font-size="12" fill="#94A3B8">Discounts &amp; Promos</text>
  <text x="16" y="247" font-size="12" fill="#94A3B8">Gift Cards</text>
  <text x="16" y="283" font-size="12" fill="#94A3B8">Loyalty</text>

  <!-- Active: Combo Meals -->
  <use href="#navItemActive" x="0" y="294" width="200" height="36"/>
  <text x="16" y="317" font-size="12" font-weight="600" fill="#F59E0B">Combo Meals</text>

  <text x="16" y="355" font-size="12" fill="#94A3B8">Menu Scheduling</text>
  <text x="16" y="391" font-size="12" fill="#94A3B8">Reports</text>
  <text x="16" y="427" font-size="12" fill="#94A3B8">Revenue Centers</text>
  <text x="16" y="463" font-size="12" fill="#94A3B8">Integrations</text>
  <text x="16" y="499" font-size="12" fill="#94A3B8">Recipes</text>
  <text x="16" y="535" font-size="12" fill="#94A3B8">Inventory</text>
  <text x="16" y="571" font-size="12" fill="#94A3B8">Printer Routing</text>
  <text x="16" y="607" font-size="12" fill="#94A3B8">Payroll</text>

  <!-- ===== HEADER ===== -->
  <rect x="200" y="0" width="1166" height="64" fill="url(#headerGrad)" filter="url(#shadowSm)"/>
  <text x="220" y="26" font-size="18" font-weight="700" fill="#FFFFFF">Combo Meals &amp; Bundle Pricing</text>
  <!-- DB: pos_combos feature description -->
  <text x="220" y="46" font-size="11" fill="#94A3B8">Auto-detect when combo components are added to an order. Apply bundle price automatically. Saves staff time, maximizes upsell.</text>
  <!-- Save button -->
  <rect x="1250" y="14" width="100" height="34" rx="6" fill="url(#amberBtnGrad)" filter="url(#shadowSm)"/>
  <text x="1300" y="36" font-size="12" font-weight="700" fill="#000" text-anchor="middle">Save</text>

  <!-- ===== STATS BAR ===== -->
  <!-- DB: COUNT(pos_combos WHERE active), COUNT(pos_order_items WHERE combo_id IS NOT NULL), SUM(revenue) -->
  <rect x="200" y="64" width="1166" height="72" fill="#0C0E1A" stroke="#2A2E45" stroke-width="1"/>

  <!-- Stat 1: Active Combos -->
  <!-- DB: COUNT(pos_combos WHERE active=true) -->
  <use href="#statCard" x="210" y="72" width="268" height="54"/>
  <text x="226" y="93" font-size="10" fill="#94A3B8">Active Combos</text>
  <use href="#adminGear" x="298" y="83" width="10" height="10"/>
  <text x="226" y="115" font-size="22" font-weight="700" fill="#F59E0B">8</text>

  <!-- Stat 2: Combo Orders Today -->
  <!-- DB: COUNT(pos_order_items WHERE combo_id IS NOT NULL AND date=today) -->
  <use href="#statCard" x="488" y="72" width="268" height="54"/>
  <text x="504" y="93" font-size="10" fill="#94A3B8">Combo Orders Today</text>
  <text x="504" y="115" font-size="22" font-weight="700" fill="#E2E8F0">47</text>
  <text x="548" y="115" font-size="11" fill="#22C55E"> 37% of all orders</text>

  <!-- Stat 3: Combo Revenue Today -->
  <!-- DB: SUM(pos_order_items.price WHERE combo_id IS NOT NULL AND date=today) -->
  <use href="#statCard" x="766" y="72" width="268" height="54"/>
  <text x="782" y="93" font-size="10" fill="#94A3B8">Combo Revenue Today</text>
  <text x="782" y="115" font-size="22" font-weight="700" fill="#22C55E">$1,240</text>

  <!-- Stat 4: Avg Upsell Lift -->
  <!-- DB: AVG(combo_total - alacarte_total) per order -->
  <rect x="1044" y="72" width="312" height="54" rx="6" fill="#1A1D2E"/>
  <text x="1060" y="93" font-size="10" fill="#94A3B8">Avg Upsell Lift</text>
  <text x="1060" y="115" font-size="22" font-weight="700" fill="#8B5CF6">+$3.20</text>
  <text x="1126" y="115" font-size="10" fill="#64748B"> per order vs a la carte</text>

  <!-- ===== LEFT PANEL: Combo List (x=200, w=320) ===== -->
  <!-- DB: pos_combos ORDER BY sort_order -->
  <rect x="200" y="136" width="320" height="888" fill="#0C0E1A"/>
  <text x="216" y="158" font-size="12" font-weight="700" fill="#94A3B8">COMBOS (8)</text>
  <use href="#adminGear" x="296" y="148" width="10" height="10"/>

  <!-- Row 1: Burger Combo (selected) -->
  <!-- DB: pos_combos.id=COMBO-001 -->
  <rect x="208" y="165" width="304" height="76" rx="6" fill="#1E2235" stroke="#F59E0B" stroke-width="1.5" filter="url(#shadowSm)"/>
  <rect x="208" y="165" width="5" height="76" rx="3" fill="#F59E0B"/>
  <text x="224" y="184" font-size="13" font-weight="700" fill="#F59E0B">Burger Combo</text>
  <use href="#adminGear" x="320" y="174" width="10" height="10"/>
  <text x="224" y="200" font-size="11" fill="#E2E8F0">$14.99</text>
  <text x="270" y="200" font-size="11" fill="#64748B">(vs $18.50)</text>
  <text x="224" y="216" font-size="10" fill="#22C55E">Auto-detect ON</text>
  <use href="#activeBadge" x="384" y="172" width="56" height="18"/>
  <text x="224" y="232" font-size="9" fill="#64748B">Burger + Side + Drink</text>

  <!-- Row 2: Family Meal Deal -->
  <!-- DB: pos_combos.id=COMBO-002 -->
  <rect x="208" y="249" width="304" height="68" rx="6" fill="url(#cardGrad)"/>
  <rect x="208" y="249" width="5" height="68" rx="3" fill="#22C55E"/>
  <text x="224" y="268" font-size="12" font-weight="600" fill="#E2E8F0">Family Meal Deal</text>
  <text x="224" y="284" font-size="11" fill="#E2E8F0">$34.99</text>
  <text x="270" y="284" font-size="11" fill="#64748B">(vs $44.00)</text>
  <use href="#activeBadge" x="384" y="256" width="56" height="18"/>
  <text x="224" y="308" font-size="9" fill="#64748B">2 Mains + 2 Sides + 4 Drinks</text>

  <!-- Row 3: Breakfast Bundle -->
  <!-- DB: pos_combos.id=COMBO-003 -->
  <rect x="208" y="325" width="304" height="68" rx="6" fill="url(#cardGrad)"/>
  <rect x="208" y="325" width="5" height="68" rx="3" fill="#F59E0B"/>
  <text x="224" y="344" font-size="12" font-weight="600" fill="#E2E8F0">Breakfast Bundle</text>
  <text x="224" y="360" font-size="11" fill="#E2E8F0">$12.99</text>
  <text x="270" y="360" font-size="11" fill="#64748B">(vs $16.50)</text>
  <use href="#activeBadge" x="384" y="332" width="56" height="18"/>
  <text x="224" y="384" font-size="9" fill="#64748B">Entree + Side + Coffee/Juice</text>

  <!-- Row 4: Happy Hour Bucket -->
  <!-- DB: pos_combos.id=COMBO-004, time_restricted=true -->
  <rect x="208" y="401" width="304" height="68" rx="6" fill="url(#cardGrad)"/>
  <rect x="208" y="401" width="5" height="68" rx="3" fill="#8B5CF6"/>
  <text x="224" y="420" font-size="12" font-weight="600" fill="#E2E8F0">Happy Hour Bucket</text>
  <text x="224" y="436" font-size="11" fill="#E2E8F0">$24.99</text>
  <text x="270" y="436" font-size="11" fill="#64748B">(5 beers)</text>
  <use href="#activeBadge" x="384" y="408" width="56" height="18"/>
  <text x="224" y="460" font-size="9" fill="#8B5CF6">happy hour only | 4-7 PM</text>

  <!-- Row 5: Kids Combo -->
  <!-- DB: pos_combos.id=COMBO-005 -->
  <rect x="208" y="477" width="304" height="68" rx="6" fill="url(#cardGrad)"/>
  <rect x="208" y="477" width="5" height="68" rx="3" fill="#22C55E"/>
  <text x="224" y="496" font-size="12" font-weight="600" fill="#E2E8F0">Kids Combo</text>
  <text x="224" y="512" font-size="11" fill="#E2E8F0">$9.99</text>
  <text x="260" y="512" font-size="11" fill="#64748B">(vs $13.00)</text>
  <use href="#activeBadge" x="384" y="484" width="56" height="18"/>
  <text x="224" y="536" font-size="9" fill="#64748B">Kids Meal + Side + Juice</text>

  <!-- Row 6: Pizza & Wings Deal -->
  <!-- DB: pos_combos.id=COMBO-006 -->
  <rect x="208" y="553" width="304" height="68" rx="6" fill="url(#cardGrad)"/>
  <rect x="208" y="553" width="5" height="68" rx="3" fill="#F97316"/>
  <text x="224" y="572" font-size="12" font-weight="600" fill="#E2E8F0">Pizza &amp; Wings Deal</text>
  <text x="224" y="588" font-size="11" fill="#E2E8F0">$27.99</text>
  <text x="270" y="588" font-size="11" fill="#64748B">(vs $34.00)</text>
  <use href="#activeBadge" x="384" y="560" width="56" height="18"/>
  <text x="224" y="612" font-size="9" fill="#64748B">Pizza (any) + Wings (6 pc)</text>

  <!-- Row 7: Brunch Duo -->
  <!-- DB: pos_combos.id=COMBO-007 -->
  <rect x="208" y="629" width="304" height="68" rx="6" fill="url(#cardGrad)"/>
  <rect x="208" y="629" width="5" height="68" rx="3" fill="#3B82F6"/>
  <text x="224" y="648" font-size="12" font-weight="600" fill="#E2E8F0">Brunch Duo</text>
  <text x="224" y="664" font-size="11" fill="#E2E8F0">$22.99</text>
  <text x="270" y="664" font-size="11" fill="#64748B">(vs $28.00)</text>
  <use href="#activeBadge" x="384" y="636" width="56" height="18"/>
  <text x="224" y="688" font-size="9" fill="#64748B">Brunch Entree + Mimosa/Coffee</text>

  <!-- Row 8: Appetizer Platter -->
  <!-- DB: pos_combos.id=COMBO-008 -->
  <rect x="208" y="705" width="304" height="68" rx="6" fill="url(#cardGrad)"/>
  <rect x="208" y="705" width="5" height="68" rx="3" fill="#64748B"/>
  <text x="224" y="724" font-size="12" font-weight="600" fill="#E2E8F0">Appetizer Platter</text>
  <text x="224" y="740" font-size="11" fill="#E2E8F0">$19.99</text>
  <text x="270" y="740" font-size="11" fill="#64748B">(vs $24.50)</text>
  <use href="#activeBadge" x="384" y="712" width="56" height="18"/>
  <text x="224" y="764" font-size="9" fill="#64748B">Any 4 Appetizers</text>

  <!-- Create Combo button -->
  <rect x="208" y="785" width="304" height="36" rx="6" fill="none" stroke="#F59E0B" stroke-width="1.5" stroke-dasharray="5,3"/>
  <text x="360" y="808" font-size="12" font-weight="600" fill="#F59E0B" text-anchor="middle">+ Create Combo</text>

  <!-- ===== CENTER PANEL: Combo Editor (x=520, w=680) ===== -->
  <!-- DB: pos_combos WHERE id=COMBO-001 -->
  <rect x="520" y="136" width="680" height="888" fill="#0C0E1A"/>

  <!-- Editor Header -->
  <rect x="528" y="144" width="664" height="48" rx="8" fill="url(#cardGrad)" filter="url(#shadowSm)"/>
  <text x="548" y="163" font-size="15" font-weight="700" fill="#F59E0B">Burger Combo</text>
  <use href="#adminGear" x="660" y="153" width="10" height="10"/>
  <!-- DB: pos_combos.id, auto_detect, order count -->
  <text x="548" y="181" font-size="10" fill="#94A3B8">pos_combos.id = COMBO-001 | auto_detect: true | 47 orders today</text>
  <!-- Status toggle -->
  <!-- DB: pos_combos.active -->
  <text x="1100" y="163" font-size="10" fill="#94A3B8">Status</text>
  <use href="#toggleOn" x="1100" y="168" width="44" height="20"/>

  <!-- Name + i18n -->
  <!-- DB: pos_combos.name_i18n jsonb -->
  <text x="528" y="216" font-size="10" fill="#94A3B8">NAME (name_i18n jsonb -- EN / ES / FR / ZH)</text>
  <use href="#adminGear" x="750" y="206" width="10" height="10"/>
  <rect x="528" y="222" width="664" height="30" rx="6" fill="url(#cardGrad)" stroke="#F59E0B" stroke-width="1"/>
  <text x="544" y="242" font-size="13" fill="#E2E8F0">Burger Combo</text>
  <text x="1060" y="242" font-size="10" fill="#64748B">EN</text>
  <rect x="1076" y="228" width="26" height="18" rx="4" fill="#2A2E45"/>
  <text x="1082" y="241" font-size="9" fill="#94A3B8">ES</text>
  <rect x="1108" y="228" width="26" height="18" rx="4" fill="#2A2E45"/>
  <text x="1114" y="241" font-size="9" fill="#94A3B8">FR</text>
  <rect x="1140" y="228" width="26" height="18" rx="4" fill="#2A2E45"/>
  <text x="1145" y="241" font-size="9" fill="#94A3B8">ZH</text>

  <!-- Pricing Row -->
  <!-- DB: pos_combos.price_cents -->
  <text x="528" y="276" font-size="10" fill="#94A3B8">COMBO PRICE</text>
  <use href="#adminGear" x="604" y="266" width="10" height="10"/>
  <rect x="528" y="282" width="160" height="34" rx="6" fill="url(#cardGrad)" stroke="#2A2E45" stroke-width="1"/>
  <text x="548" y="304" font-size="16" font-weight="700" fill="#F59E0B">$14.99</text>
  <!-- DB: calculated from pos_combo_components → pos_menu_items.price -->
  <text x="700" y="296" font-size="11" fill="#64748B">A-la-carte total: </text>
  <text x="790" y="296" font-size="11" fill="#94A3B8">$18.50-$26.00</text>
  <text x="700" y="312" font-size="11" fill="#22C55E">Customer savings: </text>
  <text x="796" y="312" font-size="11" font-weight="700" fill="#22C55E">Save up to $3.51!</text>
  <text x="920" y="296" font-size="10" fill="#64748B">Tax on combo price</text>
  <text x="920" y="312" font-size="10" fill="#64748B">(not individual items)</text>

  <!-- Section: Combo Components -->
  <!-- DB: pos_combo_components WHERE combo_id=COMBO-001 -->
  <text x="528" y="342" font-size="12" font-weight="700" fill="#E2E8F0">Combo Components</text>
  <use href="#adminGear" x="652" y="332" width="10" height="10"/>

  <!-- Table Header -->
  <rect x="528" y="350" width="664" height="26" rx="4" fill="url(#cardGrad)"/>
  <text x="540" y="367" font-size="10" font-weight="600" fill="#94A3B8">ITEM</text>
  <text x="700" y="367" font-size="10" font-weight="600" fill="#94A3B8">TYPE</text>
  <text x="820" y="367" font-size="10" font-weight="600" fill="#94A3B8">OPTIONS ALLOWED</text>
  <text x="1080" y="367" font-size="10" font-weight="600" fill="#94A3B8">A-LA-CARTE</text>

  <!-- Component 1: Burger (any) -->
  <!-- DB: pos_combo_components.id=CC-001, component_type=category, required=true -->
  <rect x="528" y="376" width="664" height="96" rx="6" fill="url(#cardGrad)" stroke="#2A2E45" stroke-width="1"/>
  <rect x="528" y="376" width="4" height="96" rx="2" fill="#F59E0B"/>
  <text x="540" y="395" font-size="12" font-weight="600" fill="#E2E8F0">Burger (any)</text>
  <use href="#adminGear" x="628" y="385" width="10" height="10"/>
  <use href="#requiredBadge" x="534" y="400" width="60" height="16"/>
  <text x="700" y="395" font-size="10" fill="#94A3B8">Category</text>
  <!-- DB: pos_menu_categories.name, COUNT(items) -->
  <text x="820" y="393" font-size="10" fill="#94A3B8">Any from "Burgers &amp; Sandwiches"</text>
  <text x="820" y="408" font-size="10" fill="#64748B">(13 items)</text>
  <text x="1080" y="395" font-size="10" fill="#64748B">varies</text>
  <use href="#radioOn" x="535" y="421" width="10" height="10" fill="#F59E0B"/>
  <text x="552" y="430" font-size="10" fill="#E2E8F0">Any item in category</text>
  <use href="#radioOff" x="535" y="439" width="10" height="10"/>
  <text x="552" y="448" font-size="10" fill="#64748B">Specific items only</text>
  <text x="540" y="464" font-size="9" fill="#64748B">Classic Burger $18 | Veggie Burger $15 | Chicken Burger $16 | +10 more</text>

  <!-- Component 2: Side -->
  <!-- DB: pos_combo_components.id=CC-002, component_type=specific, required=true -->
  <rect x="528" y="480" width="664" height="88" rx="6" fill="url(#cardGrad)" stroke="#2A2E45" stroke-width="1"/>
  <rect x="528" y="480" width="4" height="88" rx="2" fill="#22C55E"/>
  <text x="540" y="499" font-size="12" font-weight="600" fill="#E2E8F0">Side</text>
  <use href="#adminGear" x="566" y="489" width="10" height="10"/>
  <use href="#requiredBadge" x="534" y="504" width="60" height="16"/>
  <text x="700" y="499" font-size="10" fill="#94A3B8">Specific</text>
  <!-- DB: pos_combo_components.item_ids → pos_menu_items -->
  <text x="820" y="497" font-size="10" fill="#94A3B8">French Fries ($5.00)</text>
  <text x="820" y="512" font-size="10" fill="#94A3B8">Onion Rings ($5.50)</text>
  <text x="820" y="527" font-size="10" fill="#94A3B8">House Salad ($6.00)</text>
  <text x="1080" y="499" font-size="10" fill="#64748B">one of</text>
  <text x="1080" y="514" font-size="10" fill="#64748B">these</text>
  <use href="#radioOff" x="535" y="539" width="10" height="10"/>
  <text x="552" y="548" font-size="10" fill="#64748B">Any item in category</text>
  <use href="#radioOn" x="655" y="539" width="10" height="10" fill="#22C55E"/>
  <text x="672" y="548" font-size="10" fill="#E2E8F0">Specific items (3 selected)</text>

  <!-- Component 3: Drink -->
  <!-- DB: pos_combo_components.id=CC-003, component_type=specific, required=true -->
  <rect x="528" y="576" width="664" height="88" rx="6" fill="url(#cardGrad)" stroke="#2A2E45" stroke-width="1"/>
  <rect x="528" y="576" width="4" height="88" rx="2" fill="#3B82F6"/>
  <text x="540" y="595" font-size="12" font-weight="600" fill="#E2E8F0">Drink</text>
  <use href="#adminGear" x="572" y="585" width="10" height="10"/>
  <use href="#requiredBadge" x="534" y="600" width="60" height="16"/>
  <text x="700" y="595" font-size="10" fill="#94A3B8">Specific</text>
  <!-- DB: pos_combo_components.item_ids → pos_menu_items -->
  <text x="820" y="593" font-size="10" fill="#94A3B8">Fountain Soda ($3.00)</text>
  <text x="820" y="608" font-size="10" fill="#94A3B8">Lemonade ($3.50)</text>
  <text x="820" y="623" font-size="10" fill="#94A3B8">Bottled Water ($3.00)</text>
  <text x="1080" y="595" font-size="10" fill="#64748B">one of</text>
  <text x="1080" y="610" font-size="10" fill="#64748B">these</text>
  <use href="#radioOff" x="535" y="635" width="10" height="10"/>
  <text x="552" y="644" font-size="10" fill="#64748B">Any item in category</text>
  <use href="#radioOn" x="655" y="635" width="10" height="10" fill="#3B82F6"/>
  <text x="672" y="644" font-size="10" fill="#E2E8F0">Specific items (3 selected)</text>

  <!-- Add Component -->
  <rect x="528" y="672" width="664" height="30" rx="6" fill="none" stroke="#2A2E45" stroke-width="1" stroke-dasharray="4,3"/>
  <text x="840" y="691" font-size="11" fill="#64748B" text-anchor="middle">+ Add Component</text>

  <!-- AUTO-DETECT BEHAVIOR Section -->
  <!-- DB: pos_combos.auto_detect, pos_combos.detection_mode, pos_combos.allow_partial, pos_combos.upsell_enabled -->
  <text x="528" y="724" font-size="12" font-weight="700" fill="#E2E8F0">Auto-Detect Behavior</text>
  <use href="#adminGear" x="668" y="714" width="10" height="10"/>
  <rect x="528" y="730" width="664" height="120" rx="6" fill="url(#cardGrad)" stroke="#2A2E45" stroke-width="1"/>

  <!-- Detection mode -->
  <text x="544" y="750" font-size="10" font-weight="600" fill="#94A3B8">DETECTION MODE</text>
  <use href="#radioOn" x="545" y="760" width="10" height="10" fill="#F59E0B"/>
  <text x="562" y="769" font-size="11" fill="#E2E8F0">Automatic -- system offers combo when all required components in order</text>
  <use href="#radioOff" x="545" y="779" width="10" height="10"/>
  <text x="562" y="788" font-size="11" fill="#64748B">Staff-triggered -- staff selects "Add as Combo" manually</text>
  <use href="#radioOff" x="545" y="798" width="10" height="10"/>
  <text x="562" y="807" font-size="11" fill="#64748B">Both -- auto-detect AND staff can manually trigger</text>

  <!-- Partial combo toggle -->
  <text x="544" y="826" font-size="10" fill="#94A3B8">Allow partial combo (missing component):</text>
  <use href="#toggleOff" x="792" y="818" width="36" height="18"/>
  <text x="832" y="831" font-size="9" fill="#64748B">OFF -- all required components must be present</text>

  <!-- Upsell toggle -->
  <!-- DB: pos_combos.upsell_enabled -->
  <text x="544" y="846" font-size="10" fill="#94A3B8">Combo upsell suggestion:</text>
  <use href="#toggleOn" x="676" y="838" width="44" height="20"/>
  <text x="724" y="851" font-size="9" fill="#22C55E">ON -- suggest combo if only some components ordered</text>

  <!-- Register Pop-up Preview -->
  <!-- DB: pos_combos.popup_message_i18n -->
  <rect x="528" y="858" width="664" height="72" rx="6" fill="url(#cardGrad)" stroke="#2A2E45" stroke-width="1"/>
  <text x="544" y="878" font-size="10" font-weight="600" fill="#94A3B8">REGISTER POP-UP PREVIEW</text>
  <use href="#adminGear" x="688" y="868" width="10" height="10"/>
  <rect x="544" y="886" width="348" height="36" rx="6" fill="#0C0E1A" stroke="#F59E0B" stroke-width="1"/>
  <text x="556" y="902" font-size="10" fill="#E2E8F0">"These items qualify for Burger Combo! Save $3.51"</text>
  <text x="556" y="916" font-size="9" fill="#64748B">- apply combo price?</text>
  <rect x="900" y="886" width="100" height="18" rx="4" fill="url(#greenBtnGrad)"/>
  <text x="950" y="899" font-size="9" font-weight="600" fill="#FFFFFF" text-anchor="middle">Apply Combo</text>
  <text x="1010" y="899" font-size="9" fill="#64748B">Keep A-la-carte</text>

  <!-- CHANNEL AVAILABILITY -->
  <!-- DB: pos_combos.channel_flags jsonb -->
  <text x="528" y="944" font-size="10" font-weight="600" fill="#94A3B8">CHANNEL AVAILABILITY</text>
  <use href="#adminGear" x="664" y="934" width="10" height="10"/>
  <rect x="528" y="950" width="664" height="38" rx="6" fill="url(#cardGrad)" stroke="#2A2E45" stroke-width="1"/>
  <text x="544" y="974" font-size="10" fill="#22C55E">Register</text>
  <text x="620" y="974" font-size="10" fill="#22C55E">QR Table</text>
  <text x="700" y="974" font-size="10" fill="#22C55E">Kiosk</text>
  <text x="760" y="974" font-size="10" fill="#22C55E">Online</text>
  <text x="830" y="974" font-size="10" fill="#64748B">Phone/AI Ordering</text>
  <use href="#toggleOff" x="938" y="960" width="36" height="18"/>
  <text x="978" y="973" font-size="9" fill="#64748B">OFF (AI handles via NLP)</text>

  <!-- Save / Delete -->
  <rect x="528" y="998" width="200" height="34" rx="6" fill="url(#amberBtnGrad)" filter="url(#shadowSm)"/>
  <text x="628" y="1020" font-size="13" font-weight="700" fill="#000" text-anchor="middle">Save Changes</text>
  <text x="752" y="1020" font-size="12" fill="#EF4444">Delete Combo</text>

  <!-- ===== RIGHT PANEL: Register Preview (x=1200, w=166) ===== -->
  <!-- DB: pos_combos rendering preview -->
  <rect x="1200" y="136" width="166" height="888" fill="#0C0E1A"/>
  <text x="1214" y="158" font-size="11" font-weight="700" fill="#94A3B8">REGISTER PREVIEW</text>

  <!-- Combo Detection Pop-up -->
  <rect x="1208" y="164" width="150" height="180" rx="8" fill="url(#cardGrad)" stroke="#F59E0B" stroke-width="1.5" filter="url(#shadowSm)"/>
  <text x="1215" y="182" font-size="10" font-weight="700" fill="#F59E0B">Combo Available!</text>
  <text x="1215" y="198" font-size="9" fill="#94A3B8">In order:</text>
  <text x="1215" y="212" font-size="9" fill="#E2E8F0">Classic Burger</text>
  <text x="1215" y="225" font-size="9" fill="#E2E8F0">French Fries</text>
  <text x="1215" y="238" font-size="9" fill="#E2E8F0">Fountain Soda</text>
  <line x1="1215" y1="246" x2="1350" y2="246" stroke="#2A2E45" stroke-width="1"/>
  <text x="1215" y="260" font-size="9" fill="#64748B">A-la-carte: $26.00</text>
  <text x="1215" y="275" font-size="9" fill="#64748B">Burger Combo: $14.99</text>
  <text x="1215" y="294" font-size="13" font-weight="700" fill="#22C55E">Save $11.01!</text>
  <rect x="1215" y="302" width="135" height="22" rx="5" fill="url(#greenBtnGrad)"/>
  <text x="1282" y="317" font-size="9" font-weight="700" fill="#FFF" text-anchor="middle">Apply Combo -- $14.99</text>
  <text x="1282" y="336" font-size="9" fill="#64748B" text-anchor="middle">Keep a-la-carte $26.00</text>

  <!-- Order Ticket Preview -->
  <rect x="1208" y="356" width="150" height="130" rx="8" fill="url(#cardGrad)" stroke="#2A2E45" stroke-width="1"/>
  <text x="1215" y="374" font-size="9" font-weight="700" fill="#94A3B8">ORDER TICKET</text>
  <text x="1215" y="390" font-size="9" font-weight="600" fill="#F59E0B">Burger Combo x 1</text>
  <text x="1300" y="390" font-size="9" font-weight="700" fill="#E2E8F0">$14.99</text>
  <text x="1221" y="405" font-size="8" fill="#64748B">- Classic Burger</text>
  <text x="1240" y="418" font-size="8" fill="#64748B">(No Onions)</text>
  <text x="1221" y="432" font-size="8" fill="#64748B">- French Fries (Lg)</text>
  <text x="1221" y="446" font-size="8" fill="#64748B">- Fountain Soda (Coke)</text>
  <line x1="1215" y1="454" x2="1350" y2="454" stroke="#2A2E45" stroke-width="1" stroke-dasharray="3,2"/>
  <text x="1215" y="468" font-size="8" fill="#64748B">Components shown as</text>
  <text x="1215" y="480" font-size="8" fill="#64748B">sub-items on receipt</text>

  <!-- Upsell Suggestion -->
  <rect x="1208" y="498" width="150" height="130" rx="8" fill="url(#cardGrad)" stroke="#8B5CF6" stroke-width="1"/>
  <text x="1215" y="516" font-size="9" font-weight="700" fill="#8B5CF6">UPSELL SUGGESTION</text>
  <text x="1215" y="532" font-size="8" fill="#94A3B8">Customer ordered:</text>
  <text x="1215" y="546" font-size="9" font-weight="600" fill="#E2E8F0">Classic Burger only</text>
  <line x1="1215" y1="554" x2="1350" y2="554" stroke="#2A2E45" stroke-width="1"/>
  <text x="1215" y="568" font-size="8" fill="#E2E8F0">Add Fries + Drink?</text>
  <text x="1215" y="582" font-size="8" fill="#E2E8F0">Burger Combo $14.99</text>
  <text x="1215" y="596" font-size="9" font-weight="700" fill="#22C55E">Save $11.01!</text>
  <rect x="1215" y="604" width="135" height="20" rx="4" fill="url(#amberBtnGrad)"/>
  <text x="1282" y="618" font-size="8" font-weight="700" fill="#000" text-anchor="middle">Add Combo Items</text>
  <text x="1282" y="636" font-size="8" fill="#64748B" text-anchor="middle">No Thanks</text>

  <!-- KDS & Receipt notes -->
  <rect x="1208" y="642" width="150" height="100" rx="6" fill="#0C0E1A" stroke="#2A2E45" stroke-width="1"/>
  <text x="1215" y="660" font-size="9" font-weight="700" fill="#94A3B8">KDS &amp; RECEIPT</text>
  <text x="1215" y="676" font-size="8" fill="#64748B">KDS shows individual</text>
  <text x="1215" y="689" font-size="8" fill="#64748B">items, not "combo"</text>
  <line x1="1215" y1="697" x2="1350" y2="697" stroke="#2A2E45" stroke-width="1"/>
  <text x="1215" y="712" font-size="8" fill="#64748B">Receipt shows combo</text>
  <text x="1215" y="725" font-size="8" fill="#64748B">name + sub-lines</text>
  <text x="1215" y="738" font-size="8" fill="#64748B">Reporting: single line</text>

  <!-- ===== WORKFLOW INTEGRATION STRIP ===== -->
  <!-- DB: schema reference for pos_combos, pos_combo_components, pos_order_items -->
  <rect x="200" y="888" width="1000" height="136" fill="#0C0E1A" stroke="#F59E0B" stroke-width="1"/>
  <rect x="200" y="888" width="1000" height="3" fill="#F59E0B"/>
  <text x="216" y="908" font-size="11" font-weight="700" fill="#F59E0B">Workflow Integration &amp; Schema</text>
  <text x="216" y="926" font-size="9" fill="#64748B">pos_combos: id, name_i18n jsonb, price_cents int, active bool, auto_detect bool, channel_flags jsonb, created_at timestamptz</text>
  <text x="216" y="940" font-size="9" fill="#64748B">pos_combo_components: id, combo_id - pos_combos, component_type (category | specific), item_ids int[], required bool, sort_order int</text>
  <text x="216" y="954" font-size="9" fill="#64748B">Detection: on each pos_order_items INSERT - check_combos() Edge Function - find matching combos where all required components present AND not already combo-priced</text>
  <text x="216" y="968" font-size="9" fill="#64748B">           - fire combo_offer event to terminal WebSocket - register renders pop-up - staff/customer accepts - price_override applied</text>
  <text x="216" y="982" font-size="9" fill="#64748B">Apply: pos_order_items grouped by combo_id, price_override = combo_price_cents / components (for reporting granularity). KDS receives individual item tickets.</text>
  <text x="216" y="996" font-size="9" fill="#64748B">Receipt: combo name as header line + each component as indented sub-line. Reports: "Burger Combo x 1 $14.99" single line -- drill-down shows component split.</text>
  <text x="216" y="1010" font-size="9" fill="#64748B">Upsell edge fn: if order has 1+ component of combo but not all - push upsell_suggestion event - register shows "Add X for Burger Combo $14.99, save $11.01" CTA.</text>

</svg>
