<svg role="img" aria-labelledby="title-settings_discounts-svg" xmlns="http://www.w3.org/2000/svg" viewBox="0 0 1366 1024" font-family="-apple-system,BlinkMacSystemFont,'SF Pro Display','Segoe UI',sans-serif">
  <title id="title-settings_discounts-svg">Synalux POS — discounts</title>
  <desc>Synalux POS mockup screen for discounts. All UI elements admin-configurable.</desc>
  <defs>
    <!-- ===== GRADIENTS ===== -->
    <linearGradient id="headerGrad" x1="0" y1="0" x2="1" y2="0">
      <stop offset="0%" stop-color="#1A1D2E"/>
      <stop offset="100%" stop-color="#161930"/>
    </linearGradient>
    <linearGradient id="ctaGrad" x1="0" y1="0" x2="1" y2="1">
      <stop offset="0%" stop-color="#F59E0B"/>
      <stop offset="100%" stop-color="#D97706"/>
    </linearGradient>
    <linearGradient id="dangerGrad" x1="0" y1="0" x2="1" y2="0">
      <stop offset="0%" stop-color="#7F1D1D"/>
      <stop offset="100%" stop-color="#991B1B"/>
    </linearGradient>

    <!-- ===== FILTERS ===== -->
    <filter id="cardShadow" x="-4%" y="-4%" width="108%" height="112%">
      <feDropShadow dx="0" dy="2" stdDeviation="4" flood-color="#000000" flood-opacity="0.3"/>
    </filter>
    <filter id="glowAmber" x="-10%" y="-10%" width="120%" height="120%">
      <feDropShadow dx="0" dy="0" stdDeviation="3" flood-color="#F59E0B" flood-opacity="0.25"/>
    </filter>

    <!-- ===== SYMBOLS ===== -->

    <!-- Admin gear icon -->
    <symbol id="gearIcon" viewBox="0 0 16 16">
      <path d="M8 1l1.2.3.5 1.4.9.5 1.5-.2 1 .8-.3 1.4.3 1 1.1.9v1.2l-1.1.9-.3 1 .3 1.4-1 .8-1.5-.2-.9.5-.5 1.4H7l-.5-1.4-.9-.5-1.5.2-1-.8.3-1.4-.3-1L2.1 9V7.8l1.1-.9.3-1-.3-1.4 1-.8 1.5.2.9-.5L7 1h1zm0 4.5a2.5 2.5 0 100 5 2.5 2.5 0 000-5z" fill="#F59E0B" opacity="0.3"/>
    </symbol>

    <!-- Toggle ON -->
    <symbol id="toggleOn" viewBox="0 0 40 22">
      <rect width="40" height="22" rx="11" fill="#22C55E"/>
      <circle cx="29" cy="11" r="8" fill="#FFFFFF"/>
    </symbol>

    <!-- Toggle OFF -->
    <symbol id="toggleOff" viewBox="0 0 40 22">
      <rect width="40" height="22" rx="11" fill="#374151"/>
      <circle cx="11" cy="11" r="8" fill="#FFFFFF"/>
    </symbol>

    <!-- Form field -->
    <symbol id="formField" viewBox="0 0 200 30">
      <rect width="200" height="30" rx="6" fill="#0C0E1A" stroke="#2A2E45" stroke-width="1"/>
    </symbol>

    <!-- Form field active -->
    <symbol id="formFieldActive" viewBox="0 0 200 30">
      <rect width="200" height="30" rx="6" fill="#0C0E1A" stroke="#F59E0B" stroke-width="1.5"/>
    </symbol>

    <!-- Primary button -->
    <symbol id="btnPrimary" viewBox="0 0 160 36">
      <rect width="160" height="36" rx="6" fill="url(#ctaGrad)"/>
    </symbol>

    <!-- Secondary button -->
    <symbol id="btnSecondary" viewBox="0 0 100 36">
      <rect width="100" height="36" rx="6" fill="#161930" stroke="#2A2E45" stroke-width="1"/>
    </symbol>

    <!-- Danger button -->
    <symbol id="btnDanger" viewBox="0 0 160 36">
      <rect width="160" height="36" rx="6" fill="url(#dangerGrad)"/>
    </symbol>

    <!-- Nav item (inactive) -->
    <symbol id="navItem" viewBox="0 0 184 36">
      <rect width="184" height="36" rx="6" fill="transparent"/>
    </symbol>

    <!-- Nav item (active) -->
    <symbol id="navItemActive" viewBox="0 0 184 36">
      <rect width="184" height="36" rx="6" fill="#1A1D2E"/>
      <rect width="3" height="36" rx="1" fill="#F59E0B"/>
    </symbol>

    <!-- Discount card (inactive) -->
    <symbol id="discCard" viewBox="0 0 420 72">
      <rect width="420" height="72" rx="6" fill="#1A1D2E" stroke="#1E2235" stroke-width="1"/>
    </symbol>

    <!-- Discount card (selected) -->
    <symbol id="discCardActive" viewBox="0 0 420 72">
      <rect width="420" height="72" rx="6" fill="#1A1D2E" stroke="#F59E0B" stroke-width="1.5" filter="url(#glowAmber)"/>
    </symbol>

    <!-- Color accent stripe -->
    <symbol id="accentStripe" viewBox="0 0 6 72">
      <rect width="6" height="72" rx="3"/>
    </symbol>

    <!-- Status badge (active) -->
    <symbol id="statusActive" viewBox="0 0 56 18">
      <rect width="56" height="18" rx="9" fill="#065F46"/>
    </symbol>

    <!-- Status badge (paused) -->
    <symbol id="statusPaused" viewBox="0 0 56 18">
      <rect width="56" height="18" rx="9" fill="#374151"/>
    </symbol>

    <!-- Type selector button (active) -->
    <symbol id="typeBtnActive" viewBox="0 0 100 30">
      <rect width="100" height="30" rx="6" fill="url(#ctaGrad)"/>
    </symbol>

    <!-- Type selector button (inactive) -->
    <symbol id="typeBtnInactive" viewBox="0 0 100 30">
      <rect width="100" height="30" rx="6" fill="#161930" stroke="#2A2E45" stroke-width="1"/>
    </symbol>

    <!-- Day-of-week button (selected) -->
    <symbol id="dayBtnOn" viewBox="0 0 32 28">
      <rect width="32" height="28" rx="4" fill="url(#ctaGrad)"/>
    </symbol>

    <!-- Day-of-week button (unselected) -->
    <symbol id="dayBtnOff" viewBox="0 0 32 28">
      <rect width="32" height="28" rx="4" fill="#161930" stroke="#2A2E45" stroke-width="1"/>
    </symbol>

    <!-- Chip active -->
    <symbol id="chipActive" viewBox="0 0 80 24">
      <rect width="80" height="24" rx="4" fill="url(#ctaGrad)"/>
    </symbol>

    <!-- Chip inactive -->
    <symbol id="chipInactive" viewBox="0 0 80 24">
      <rect width="80" height="24" rx="4" fill="#161930" stroke="#2A2E45" stroke-width="1"/>
    </symbol>

    <!-- Tab (active) -->
    <symbol id="tabActive" viewBox="0 0 100 28">
      <rect width="100" height="28" rx="6" fill="#1A1D2E"/>
    </symbol>

    <!-- Tab (inactive) -->
    <symbol id="tab" viewBox="0 0 100 28">
      <rect width="100" height="28" rx="6" fill="transparent"/>
    </symbol>
  </defs>

  <!-- ===== BACKGROUND ===== -->
  <rect width="1366" height="1024" fill="#0C0E1A"/>

  <!-- ===== LEFT SIDEBAR (200px) ===== -->
  <!-- admin_path: Back Office > Settings Navigation -->
  <rect x="0" y="0" width="200" height="1024" fill="#161930"/>
  <rect x="200" y="0" width="1" height="1024" fill="#1E2235"/>
  <text x="16" y="30" font-size="14" font-weight="700" fill="#F59E0B">Synalux POS</text>
  <text x="16" y="46" font-size="10" fill="#64748B">Back Office</text>

  <!-- Nav items -->
  <use href="#navItem" x="8" y="60" width="184" height="36"/>
  <text x="24" y="83" font-size="12" fill="#94A3B8">Restaurant Info</text>

  <use href="#navItem" x="8" y="100" width="184" height="36"/>
  <text x="24" y="123" font-size="12" fill="#94A3B8">Menu Builder</text>

  <use href="#navItem" x="8" y="140" width="184" height="36"/>
  <text x="24" y="163" font-size="12" fill="#94A3B8">Taxes</text>

  <use href="#navItem" x="8" y="176" width="184" height="36"/>
  <text x="24" y="199" font-size="12" fill="#94A3B8">Employees</text>

  <use href="#navItemActive" x="8" y="212" width="184" height="36"/>
  <text x="24" y="235" font-size="12" font-weight="600" fill="#F59E0B">Discounts</text>
  <use href="#gearIcon" x="170" y="220" width="14" height="14"/>

  <use href="#navItem" x="8" y="248" width="184" height="36"/>
  <text x="24" y="271" font-size="12" fill="#94A3B8">Inventory</text>

  <use href="#navItem" x="8" y="284" width="184" height="36"/>
  <text x="24" y="307" font-size="12" fill="#94A3B8">Equipment</text>

  <use href="#navItem" x="8" y="320" width="184" height="36"/>
  <text x="24" y="343" font-size="12" fill="#94A3B8">Floor Plans</text>

  <use href="#navItem" x="8" y="356" width="184" height="36"/>
  <text x="24" y="379" font-size="12" fill="#94A3B8">Payments</text>

  <use href="#navItem" x="8" y="392" width="184" height="36"/>
  <text x="24" y="415" font-size="12" fill="#94A3B8">Reports</text>

  <use href="#navItem" x="8" y="428" width="184" height="36"/>
  <text x="24" y="451" font-size="12" fill="#94A3B8">Integrations</text>

  <!-- ===== HEADER BAR ===== -->
  <!-- admin_path: Back Office > Discounts & Promotions -->
  <rect x="201" y="0" width="1165" height="56" fill="url(#headerGrad)"/>
  <text x="220" y="28" font-size="18" font-weight="700" fill="#FFFFFF">Discounts &amp; Promotions</text>
  <use href="#gearIcon" x="430" y="16" width="16" height="16"/>
  <text x="220" y="48" font-size="11" fill="#64748B">Happy hour | Coupons | BOGO | % off | $ off | Auto promos -- stored in pos_discounts</text>

  <use href="#btnPrimary" x="1166" y="10" width="150" height="36"/>
  <text x="1196" y="33" font-size="12" font-weight="600" fill="#000">+ New Discount</text>

  <!-- ===== FILTER TABS ===== -->
  <!-- admin_path: Back Office > Discounts > Type Filter -->
  <rect x="201" y="56" width="1165" height="36" fill="#161930"/>
  <use href="#tabActive" x="208" y="60" width="80" height="28"/>
  <text x="226" y="79" font-size="11" font-weight="600" fill="#F59E0B">All (12)</text>
  <use href="#tab" x="296" y="60" width="100" height="28"/>
  <text x="308" y="79" font-size="11" fill="#94A3B8">Happy Hour (3)</text>
  <use href="#tab" x="404" y="60" width="90" height="28"/>
  <text x="418" y="79" font-size="11" fill="#94A3B8">Coupons (4)</text>
  <use href="#tab" x="502" y="60" width="70" height="28"/>
  <text x="516" y="79" font-size="11" fill="#94A3B8">BOGO (2)</text>
  <use href="#tab" x="580" y="60" width="70" height="28"/>
  <text x="594" y="79" font-size="11" fill="#94A3B8">Auto (3)</text>

  <!-- ===== LEFT: Discount List (440px) ===== -->
  <!-- db: pos_discounts list -->
  <rect x="201" y="92" width="440" height="932" fill="#161930"/>
  <rect x="641" y="92" width="1" height="932" fill="#1E2235"/>

  <!-- Discount 1: Happy Hour (selected) -->
  <!-- db: pos_discounts.id = DISC-001, discount_type = 'pct', trigger = 'time_window' -->
  <use href="#discCardActive" x="212" y="104" width="420" height="72"/>
  <use href="#accentStripe" x="212" y="104" width="6" height="72" fill="#F59E0B"/>
  <use href="#gearIcon" x="220" y="108" width="10" height="10"/>
  <text x="234" y="128" font-size="13" font-weight="700" fill="#F59E0B">Happy Hour -- 20% off drinks</text>
  <text x="234" y="146" font-size="10" fill="#64748B">Mon-Fri 4:00 PM - 6:00 PM | Alcohol category | Auto-applies</text>
  <text x="234" y="162" font-size="10" fill="#64748B">pos_discounts.id = DISC-001 | trigger: time_window</text>
  <use href="#statusActive" x="540" y="114" width="54" height="16"/>
  <text x="548" y="126" font-size="9" fill="#4ADE80">Active</text>
  <use href="#btnSecondary" x="540" y="138" width="44" height="20"/>
  <text x="550" y="152" font-size="10" fill="#CBD5E1">Edit</text>

  <!-- Discount 2: BOGO Wings -->
  <!-- db: pos_discounts.id = DISC-002, discount_type = 'bogo', trigger = 'manual' -->
  <use href="#discCard" x="212" y="184" width="420" height="72"/>
  <use href="#accentStripe" x="212" y="184" width="6" height="72" fill="#60A5FA"/>
  <use href="#gearIcon" x="220" y="188" width="10" height="10"/>
  <text x="234" y="208" font-size="13" font-weight="600" fill="#FFFFFF">BOGO Wings -- Buy 1 get 1 free</text>
  <text x="234" y="224" font-size="10" fill="#64748B">Tuesday only | Wings SKU: APP-010 | Manual apply</text>
  <text x="234" y="240" font-size="10" fill="#64748B">trigger: manual | discount_type: bogo</text>
  <use href="#statusActive" x="540" y="194" width="54" height="16"/>
  <text x="548" y="206" font-size="9" fill="#4ADE80">Active</text>

  <!-- Discount 3: Employee 30% off -->
  <!-- db: pos_discounts.id = DISC-003, discount_type = 'pct', role_required = 'manager' -->
  <use href="#discCard" x="212" y="264" width="420" height="72"/>
  <use href="#accentStripe" x="212" y="264" width="6" height="72" fill="#22C55E"/>
  <use href="#gearIcon" x="220" y="268" width="10" height="10"/>
  <text x="234" y="288" font-size="13" font-weight="600" fill="#FFFFFF">Employee Discount -- 30% off</text>
  <text x="234" y="304" font-size="10" fill="#64748B">All items | Requires manager PIN | Manual</text>
  <text x="234" y="320" font-size="10" fill="#64748B">trigger: manual | role_required: manager</text>
  <use href="#statusActive" x="540" y="274" width="54" height="16"/>
  <text x="548" y="286" font-size="9" fill="#4ADE80">Active</text>

  <!-- Discount 4: Coupon SAVE10 -->
  <!-- db: pos_discounts.id = DISC-004, discount_type = 'fixed', trigger = 'coupon_code' -->
  <use href="#discCard" x="212" y="344" width="420" height="72"/>
  <use href="#accentStripe" x="212" y="344" width="6" height="72" fill="#7C3AED"/>
  <use href="#gearIcon" x="220" y="348" width="10" height="10"/>
  <text x="234" y="368" font-size="13" font-weight="600" fill="#FFFFFF">Coupon SAVE10 -- $10 off $50+</text>
  <text x="234" y="384" font-size="10" fill="#64748B">Min order $50 | Single use | Expires 2026-06-30</text>
  <text x="234" y="400" font-size="10" fill="#64748B">trigger: coupon_code | used: 147/500</text>
  <use href="#statusActive" x="540" y="354" width="54" height="16"/>
  <text x="548" y="366" font-size="9" fill="#4ADE80">Active</text>

  <!-- Discount 5: Loyalty reward -->
  <!-- db: pos_discounts.id = DISC-005, discount_type = 'comp', trigger = 'loyalty_punch' -->
  <use href="#discCard" x="212" y="424" width="420" height="72"/>
  <use href="#accentStripe" x="212" y="424" width="6" height="72" fill="#F59E0B"/>
  <use href="#gearIcon" x="220" y="428" width="10" height="10"/>
  <text x="234" y="448" font-size="13" font-weight="600" fill="#FFFFFF">Loyalty Reward -- 5th visit free</text>
  <text x="234" y="464" font-size="10" fill="#64748B">Auto-applies to loyalty members | Entree category</text>
  <text x="234" y="480" font-size="10" fill="#64748B">trigger: loyalty_punch | punch_count: 5</text>
  <use href="#statusActive" x="540" y="434" width="54" height="16"/>
  <text x="548" y="446" font-size="9" fill="#4ADE80">Active</text>

  <!-- Discount 6: Senior Discount (paused) -->
  <!-- db: pos_discounts.id = DISC-006, is_active = false -->
  <use href="#discCard" x="212" y="504" width="420" height="72"/>
  <use href="#accentStripe" x="212" y="504" width="6" height="72" fill="#64748B"/>
  <g opacity="0.55">
    <text x="234" y="528" font-size="13" font-weight="600" fill="#64748B">Senior Discount -- 10% off</text>
    <text x="234" y="544" font-size="10" fill="#64748B">All items | Mon-Thu before 5 PM | Manual</text>
    <text x="234" y="560" font-size="10" fill="#64748B">Status: paused</text>
  </g>
  <use href="#statusPaused" x="540" y="514" width="56" height="16"/>
  <text x="548" y="526" font-size="9" fill="#94A3B8">Paused</text>

  <!-- Schema reference box -->
  <!-- db: pos_discounts schema -->
  <rect x="212" y="590" width="420" height="120" rx="6" fill="#0C0E1A" stroke="#1E2235" stroke-width="1"/>
  <text x="228" y="610" font-size="11" font-weight="600" fill="#64748B">pos_discounts schema</text>
  <use href="#gearIcon" x="360" y="598" width="12" height="12"/>
  <text x="228" y="628" font-size="10" fill="#64748B">id, name, name_i18n jsonb</text>
  <text x="228" y="644" font-size="10" fill="#64748B">discount_type: pct | fixed | bogo | comp</text>
  <text x="228" y="660" font-size="10" fill="#64748B">trigger: manual | time_window | coupon_code | loyalty_punch</text>
  <text x="228" y="676" font-size="10" fill="#64748B">applies_to: jsonb -- category_ids, item_ids, or "all"</text>
  <text x="228" y="692" font-size="10" fill="#64748B">time_start, time_end, days_of_week integer[]</text>
  <text x="228" y="708" font-size="10" fill="#F59E0B">min_order_cents, max_uses, role_required</text>

  <!-- ===== RIGHT: Edit Panel ===== -->
  <!-- admin_path: Back Office > Discounts > Edit Discount -->
  <!-- db: pos_discounts row for DISC-001 -->
  <rect x="642" y="92" width="724" height="932" fill="#0C0E1A"/>

  <!-- Panel header -->
  <rect x="656" y="104" width="696" height="44" rx="8" fill="#1A1D2E" filter="url(#cardShadow)"/>
  <text x="676" y="126" font-size="14" font-weight="700" fill="#F59E0B">Edit: Happy Hour -- 20% off drinks</text>
  <use href="#gearIcon" x="940" y="114" width="14" height="14"/>
  <text x="676" y="142" font-size="10" fill="#64748B">pos_discounts.id = DISC-001</text>

  <!-- Name field -->
  <!-- db: pos_discounts.name, pos_discounts.name_i18n -->
  <text x="656" y="172" font-size="10" fill="#64748B">NAME (name_i18n jsonb)</text>
  <use href="#gearIcon" x="784" y="160" width="12" height="12"/>
  <use href="#formFieldActive" x="656" y="176" width="696" height="28"/>
  <text x="672" y="196" font-size="12" fill="#FFFFFF">Happy Hour -- 20% off drinks</text>

  <!-- Discount type selector -->
  <!-- db: pos_discounts.discount_type -->
  <text x="656" y="224" font-size="10" fill="#64748B">DISCOUNT TYPE</text>
  <use href="#gearIcon" x="740" y="212" width="12" height="12"/>
  <use href="#typeBtnActive" x="656" y="230" width="100" height="28"/>
  <text x="668" y="249" font-size="11" font-weight="600" fill="#000">% Percentage</text>
  <use href="#typeBtnInactive" x="764" y="230" width="80" height="28"/>
  <text x="784" y="249" font-size="11" fill="#64748B">$ Fixed</text>
  <use href="#typeBtnInactive" x="852" y="230" width="70" height="28"/>
  <text x="870" y="249" font-size="11" fill="#64748B">BOGO</text>
  <use href="#typeBtnInactive" x="930" y="230" width="70" height="28"/>
  <text x="948" y="249" font-size="11" fill="#64748B">Comp</text>
  <use href="#typeBtnInactive" x="1008" y="230" width="80" height="28"/>
  <text x="1022" y="249" font-size="11" fill="#64748B">Free Item</text>
  <use href="#typeBtnInactive" x="1096" y="230" width="100" height="28"/>
  <text x="1106" y="249" font-size="11" fill="#64748B">Loyalty Punch</text>

  <!-- Value field -->
  <!-- db: pos_discounts.value_cents or pos_discounts.value_pct -->
  <text x="656" y="280" font-size="10" fill="#64748B">VALUE</text>
  <use href="#gearIcon" x="692" y="268" width="12" height="12"/>
  <use href="#formField" x="656" y="284" width="120" height="36"/>
  <text x="692" y="310" font-size="22" font-weight="700" fill="#F59E0B">20%</text>

  <!-- Trigger selector -->
  <!-- db: pos_discounts.trigger -->
  <text x="796" y="280" font-size="10" fill="#64748B">TRIGGER</text>
  <use href="#gearIcon" x="836" y="268" width="12" height="12"/>
  <rect x="796" y="284" width="556" height="36" rx="6" fill="#1A1D2E"/>
  <use href="#typeBtnActive" x="804" y="290" width="100" height="24"/>
  <text x="816" y="306" font-size="10" font-weight="600" fill="#000">Time Window</text>
  <use href="#typeBtnInactive" x="912" y="290" width="80" height="24"/>
  <text x="928" y="306" font-size="10" fill="#64748B">Manual</text>
  <use href="#typeBtnInactive" x="1000" y="290" width="100" height="24"/>
  <text x="1012" y="306" font-size="10" fill="#64748B">Coupon Code</text>
  <use href="#typeBtnInactive" x="1108" y="290" width="100" height="24"/>
  <text x="1118" y="306" font-size="10" fill="#64748B">Auto (always)</text>

  <!-- Time window config card -->
  <!-- db: pos_discounts.time_start, time_end, days_of_week -->
  <rect x="656" y="334" width="696" height="100" rx="8" fill="#1A1D2E" filter="url(#cardShadow)"/>
  <text x="676" y="356" font-size="11" font-weight="600" fill="#64748B">TIME WINDOW</text>
  <use href="#gearIcon" x="762" y="344" width="12" height="12"/>

  <text x="676" y="376" font-size="10" fill="#64748B">Start</text>
  <use href="#formField" x="676" y="380" width="90" height="26"/>
  <text x="692" y="398" font-size="11" fill="#FFFFFF">4:00 PM</text>

  <text x="780" y="376" font-size="10" fill="#64748B">End</text>
  <use href="#formField" x="780" y="380" width="90" height="26"/>
  <text x="796" y="398" font-size="11" fill="#FFFFFF">6:00 PM</text>

  <text x="890" y="376" font-size="10" fill="#64748B">Days of Week</text>
  <use href="#dayBtnOn" x="890" y="382" width="30" height="24"/>
  <text x="900" y="399" font-size="10" font-weight="600" fill="#000">M</text>
  <use href="#dayBtnOn" x="924" y="382" width="30" height="24"/>
  <text x="934" y="399" font-size="10" font-weight="600" fill="#000">T</text>
  <use href="#dayBtnOn" x="958" y="382" width="30" height="24"/>
  <text x="968" y="399" font-size="10" font-weight="600" fill="#000">W</text>
  <use href="#dayBtnOn" x="992" y="382" width="30" height="24"/>
  <text x="1000" y="399" font-size="10" font-weight="600" fill="#000">Th</text>
  <use href="#dayBtnOn" x="1026" y="382" width="30" height="24"/>
  <text x="1036" y="399" font-size="10" font-weight="600" fill="#000">F</text>
  <use href="#dayBtnOff" x="1060" y="382" width="30" height="24"/>
  <text x="1070" y="399" font-size="10" fill="#64748B">Sa</text>
  <use href="#dayBtnOff" x="1094" y="382" width="30" height="24"/>
  <text x="1104" y="399" font-size="10" fill="#64748B">Su</text>

  <text x="676" y="426" font-size="10" fill="#64748B">Revenue center: All | Override: manager PIN not required</text>

  <!-- Schedule section -->
  <!-- db: pos_discounts.schedule_start, schedule_end -->
  <rect x="656" y="444" width="696" height="50" rx="8" fill="#1A1D2E" filter="url(#cardShadow)"/>
  <text x="676" y="466" font-size="11" font-weight="600" fill="#64748B">SCHEDULE (Date Range)</text>
  <use href="#gearIcon" x="810" y="454" width="12" height="12"/>
  <text x="676" y="484" font-size="10" fill="#64748B">Start Date:</text>
  <use href="#formField" x="750" y="470" width="100" height="22"/>
  <text x="762" y="486" font-size="10" fill="#CBD5E1">No limit</text>
  <text x="870" y="484" font-size="10" fill="#64748B">End Date:</text>
  <use href="#formField" x="936" y="470" width="100" height="22"/>
  <text x="948" y="486" font-size="10" fill="#CBD5E1">No limit</text>

  <!-- Applies to -->
  <!-- db: pos_discounts.applies_to jsonb -->
  <text x="656" y="516" font-size="10" fill="#64748B">APPLIES TO</text>
  <use href="#gearIcon" x="726" y="504" width="12" height="12"/>
  <rect x="656" y="522" width="696" height="52" rx="6" fill="#1A1D2E"/>
  <use href="#chipInactive" x="672" y="532" width="70" height="22"/>
  <text x="688" y="547" font-size="10" fill="#64748B">All Items</text>
  <use href="#chipActive" x="750" y="532" width="80" height="22"/>
  <text x="762" y="547" font-size="10" font-weight="600" fill="#000">Category</text>
  <use href="#chipInactive" x="838" y="532" width="90" height="22"/>
  <text x="852" y="547" font-size="10" fill="#64748B">Specific Items</text>
  <text x="672" y="568" font-size="10" fill="#CBD5E1">Selected: <tspan fill="#F59E0B">Alcohol</tspan> | <tspan fill="#F59E0B">Drinks</tspan> | <tspan fill="#F59E0B">Cocktails</tspan></text>

  <!-- RBAC role gate -->
  <!-- db: pos_discounts.role_required, pos_discounts.min_order_cents, pos_discounts.max_uses -->
  <text x="656" y="596" font-size="10" fill="#64748B">REQUIREMENTS &amp; RBAC ROLE GATE</text>
  <use href="#gearIcon" x="840" y="584" width="12" height="12"/>
  <rect x="656" y="602" width="696" height="80" rx="6" fill="#1A1D2E"/>

  <text x="676" y="624" font-size="11" fill="#CBD5E1">Min order amount:</text>
  <use href="#formField" x="810" y="612" width="100" height="22"/>
  <text x="822" y="628" font-size="10" fill="#64748B">None</text>

  <text x="676" y="650" font-size="11" fill="#CBD5E1">Max uses per day:</text>
  <use href="#formField" x="810" y="638" width="100" height="22"/>
  <text x="822" y="654" font-size="10" fill="#64748B">Unlimited</text>

  <text x="932" y="650" font-size="11" fill="#CBD5E1">Role required:</text>
  <use href="#formField" x="1030" y="638" width="120" height="22"/>
  <text x="1042" y="654" font-size="10" fill="#64748B">None (auto)</text>

  <text x="676" y="676" font-size="10" fill="#64748B">Stackable: NO | Priority: 10</text>

  <!-- Auto-apply rules -->
  <!-- db: pos_discounts.auto_apply_rules jsonb -->
  <rect x="656" y="696" width="696" height="60" rx="6" fill="#1A1D2E"/>
  <text x="676" y="718" font-size="11" font-weight="600" fill="#64748B">AUTO-APPLY RULES</text>
  <use href="#gearIcon" x="800" y="706" width="12" height="12"/>
  <text x="676" y="738" font-size="10" fill="#CBD5E1">Time-window discounts auto-apply at register when current time falls within window.</text>
  <text x="676" y="750" font-size="10" fill="#CBD5E1">Cashier sees amber banner "Happy Hour Active -- 20% off drinks applied" on order ticket.</text>

  <!-- Workflow integration note -->
  <!-- admin_path: Back Office > Discounts > Workflow -->
  <rect x="656" y="770" width="696" height="60" rx="6" fill="#10202D" stroke="#1E3A5F" stroke-width="1"/>
  <text x="676" y="792" font-size="11" font-weight="600" fill="#93C5FD">Workflow Integration</text>
  <use href="#gearIcon" x="802" y="780" width="12" height="12"/>
  <text x="676" y="810" font-size="10" fill="#CBD5E1">Reports: discount_report RPC tracks savings amount, items discounted, revenue center split.</text>
  <text x="676" y="824" font-size="10" fill="#64748B">All discount logic server-side -- no hardcoded rules in POS client.</text>

  <!-- Save / Cancel / Delete -->
  <use href="#btnPrimary" x="656" y="846" width="160" height="36"/>
  <text x="696" y="869" font-size="13" font-weight="600" fill="#000">Save Discount</text>

  <use href="#btnSecondary" x="826" y="846" width="100" height="36"/>
  <text x="854" y="869" font-size="12" fill="#CBD5E1">Cancel</text>

  <use href="#btnDanger" x="1196" y="846" width="160" height="36"/>
  <text x="1224" y="869" font-size="12" fill="#FCA5A5">Delete Discount</text>

  <!-- Footer -->
  <text x="683" y="1010" font-size="10" text-anchor="middle" fill="#2A2E45">Synalux POS | Discounts | pos_discounts -- time-window / coupon / BOGO / auto | RBAC role gate -- no hardcodes</text>
</svg>