<svg role="img" aria-labelledby="title-settings_gift_cards-svg" xmlns="http://www.w3.org/2000/svg" viewBox="0 0 1366 1024"
     font-family="-apple-system,BlinkMacSystemFont,'SF Pro Display','Segoe UI',sans-serif">

  <!-- ============================================================ -->
  <!--  DEFS: Reusable symbols, gradients, filters                 -->
  <!-- ============================================================ -->
  <title id="title-settings_gift_cards-svg">Synalux POS — gift cards</title>
  <desc>Synalux POS mockup screen for gift cards. All UI elements admin-configurable.</desc>
  <defs>
    <!-- Drop shadow for cards -->
    <filter id="cardShadow" x="-4%" y="-4%" width="108%" height="112%">
      <feDropShadow dx="0" dy="2" stdDeviation="4" flood-color="#000" flood-opacity="0.35"/>
    </filter>

    <!-- Gradient for gift card preview -->
    <linearGradient id="gcGrad" x1="0" y1="0" x2="1" y2="1">
      <stop offset="0%" stop-color="#1E2235"/>
      <stop offset="100%" stop-color="#2A2E45"/>
    </linearGradient>

    <!-- Gradient for amber button -->
    <linearGradient id="amberBtnGrad" x1="0" y1="0" x2="0" y2="1">
      <stop offset="0%" stop-color="#FBBF24"/>
      <stop offset="100%" stop-color="#F59E0B"/>
    </linearGradient>

    <!-- ── Symbol: Gear icon (admin-configurability affordance) ── -->
    <symbol id="gearIcon" viewBox="0 0 16 16">
      <path d="M8 5.5a2.5 2.5 0 100 5 2.5 2.5 0 000-5zM6.5 8a1.5 1.5 0 113 0 1.5 1.5 0 01-3 0z" fill="currentColor"/>
      <path d="M9.405 1.05c-.413-1.4-2.397-1.4-2.81 0l-.1.34a1.464 1.464 0 01-2.105.872l-.31-.17c-1.283-.698-2.686.705-1.987 1.987l.169.311c.446.82.023 1.841-.872 2.105l-.34.1c-1.4.413-1.4 2.397 0 2.81l.34.1a1.464 1.464 0 01.872 2.105l-.17.31c-.698 1.283.705 2.686 1.987 1.987l.311-.169a1.464 1.464 0 012.105.872l.1.34c.413 1.4 2.397 1.4 2.81 0l.1-.34a1.464 1.464 0 012.105-.872l.31.17c1.283.698 2.686-.705 1.987-1.987l-.169-.311a1.464 1.464 0 01.872-2.105l.34-.1c1.4-.413 1.4-2.397 0-2.81l-.34-.1a1.464 1.464 0 01-.872-2.105l.17-.31c.698-1.283-.705-2.686-1.987-1.987l-.311.169a1.464 1.464 0 01-2.105-.872l-.1-.34zM8 10.93a2.929 2.929 0 110-5.858 2.929 2.929 0 010 5.858z" fill="currentColor"/>
    </symbol>

    <!-- ── Symbol: Stat card ── -->
    <symbol id="statCard" viewBox="0 0 220 76">
      <rect width="220" height="76" rx="8" fill="#161930" filter="url(#cardShadow)"/>
      <rect width="220" height="76" rx="8" fill="none" stroke="#1E2235" stroke-width="1"/>
    </symbol>

    <!-- ── Symbol: Toggle ON ── -->
    <symbol id="toggleOn" viewBox="0 0 44 22">
      <rect width="44" height="22" rx="11" fill="#22C55E"/>
      <circle cx="33" cy="11" r="9" fill="#FFF"/>
    </symbol>

    <!-- ── Symbol: Toggle OFF ── -->
    <symbol id="toggleOff" viewBox="0 0 44 22">
      <rect width="44" height="22" rx="11" fill="#2A2E45"/>
      <circle cx="11" cy="11" r="9" fill="#64748B"/>
    </symbol>

    <!-- ── Symbol: Denomination chip (unselected) ── -->
    <symbol id="denomChip" viewBox="0 0 70 24">
      <rect width="70" height="24" rx="4" fill="#161930" stroke="#2A2E45" stroke-width="1"/>
    </symbol>

    <!-- ── Symbol: Denomination chip (selected) ── -->
    <symbol id="denomChipActive" viewBox="0 0 70 24">
      <rect width="70" height="24" rx="4" fill="url(#amberBtnGrad)"/>
    </symbol>

    <!-- ── Symbol: Input field ── -->
    <symbol id="inputField" viewBox="0 0 200 28">
      <rect width="200" height="28" rx="5" fill="#0C0E1A" stroke="#1E2235" stroke-width="1"/>
    </symbol>

    <!-- ── Symbol: Nav item (inactive) ── -->
    <symbol id="navItem" viewBox="0 0 200 36">
      <rect width="200" height="36" fill="transparent"/>
    </symbol>

    <!-- ── Symbol: Nav item (active) ── -->
    <symbol id="navItemActive" viewBox="0 0 200 36">
      <rect width="200" height="36" fill="#1E2235" rx="4"/>
      <rect width="3" height="36" fill="#F59E0B"/>
    </symbol>

    <!-- ── Symbol: Transaction row ── -->
    <symbol id="txRow" viewBox="0 0 260 48">
      <rect width="260" height="48" rx="4" fill="#0C0E1A"/>
    </symbol>

    <!-- ── Symbol: Reload chip ── -->
    <symbol id="reloadChip" viewBox="0 0 80 24">
      <rect width="80" height="24" rx="4" fill="#161930" stroke="#2A2E45" stroke-width="1"/>
    </symbol>

    <!-- ── Symbol: Section card ── -->
    <symbol id="sectionCard" viewBox="0 0 360 120">
      <rect width="360" height="120" rx="6" fill="#0C0E1A" stroke="#1E2235" stroke-width="1"/>
    </symbol>
  </defs>

  <!-- ============================================================ -->
  <!--  BACKGROUND                                                  -->
  <!-- ============================================================ -->
  <rect width="1366" height="1024" fill="#0C0E1A"/>

  <!-- ============================================================ -->
  <!--  LEFT SETTINGS NAV SIDEBAR                                   -->
  <!--  DB: pos_config (navigation structure)                       -->
  <!-- ============================================================ -->
  <rect x="0" y="0" width="200" height="1024" fill="#161930"/>
  <rect x="200" y="0" width="1" height="1024" fill="#1E2235"/>

  <text x="16" y="30" font-size="13" font-weight="700" fill="#F59E0B">Settings</text>
  <text x="16" y="67" font-size="12" fill="#94A3B8">Discounts &amp; Promos</text>

  <!-- Active: Gift Cards -->
  <use href="#navItemActive" x="0" y="80" width="200" height="36"/>
  <text x="16" y="103" font-size="12" font-weight="600" fill="#F59E0B">Gift Cards</text>

  <text x="16" y="139" font-size="12" fill="#94A3B8">Loyalty</text>
  <text x="16" y="175" font-size="12" fill="#94A3B8">Receipts</text>
  <text x="16" y="211" font-size="12" fill="#94A3B8">Printer Routing</text>
  <text x="16" y="247" font-size="12" fill="#94A3B8">Integrations</text>
  <text x="16" y="283" font-size="12" fill="#94A3B8">Menu Scheduling</text>
  <text x="16" y="319" font-size="12" fill="#94A3B8">Rounding</text>
  <text x="16" y="355" font-size="12" fill="#94A3B8">Cash Management</text>
  <text x="16" y="391" font-size="12" fill="#94A3B8">Reports</text>
  <text x="16" y="427" font-size="12" fill="#94A3B8">Inventory</text>

  <!-- ============================================================ -->
  <!--  TOP HEADER BAR                                              -->
  <!-- ============================================================ -->
  <rect x="201" y="0" width="1165" height="56" fill="#1A1D2E"/>
  <rect x="201" y="56" width="1165" height="1" fill="#1E2235"/>

  <text x="220" y="28" font-size="18" font-weight="700" fill="#FFFFFF">Gift Cards</text>
  <!-- DB annotation -->
  <text x="220" y="48" font-size="11" fill="#94A3B8">Issue / Redeem / Reload / Balance check / Deactivate</text>
  <!-- Gear: admin settings for this screen -->
  <use href="#gearIcon" x="430" y="36" width="14" height="14" color="#94A3B8"/>

  <!-- Header buttons -->
  <rect x="1084" y="12" width="130" height="32" rx="6" fill="url(#amberBtnGrad)"/>
  <text x="1106" y="33" font-size="12" font-weight="600" fill="#000">Issue Gift Card</text>

  <rect x="1224" y="12" width="120" height="32" rx="6" fill="#161930" stroke="#2A2E45" stroke-width="1"/>
  <text x="1244" y="33" font-size="12" fill="#CBD5E1">Check Balance</text>

  <!-- ============================================================ -->
  <!--  STATS ROW                                                   -->
  <!--  DB: pos_gift_cards (aggregate queries)                      -->
  <!-- ============================================================ -->
  <!-- pos_gift_cards: COUNT(*), SUM(balance), SUM(redeemed_30d), SUM(expired_30d), COUNT(active) -->

  <use href="#statCard" x="210" y="66" width="220" height="76"/>
  <text x="230" y="90" font-size="11" fill="#94A3B8">Cards Issued</text>
  <text x="230" y="118" font-size="26" font-weight="700" fill="#FFFFFF">2,841</text>

  <use href="#statCard" x="440" y="66" width="220" height="76"/>
  <text x="460" y="90" font-size="11" fill="#94A3B8">Total Liability</text>
  <text x="460" y="118" font-size="26" font-weight="700" fill="#F59E0B">$48,320</text>
  <!-- pos_gc_liability.total_outstanding -->
  <use href="#gearIcon" x="636" y="78" width="12" height="12" color="#475569"/>

  <use href="#statCard" x="670" y="66" width="220" height="76"/>
  <text x="690" y="90" font-size="11" fill="#94A3B8">Redeemed (30d)</text>
  <text x="690" y="118" font-size="26" font-weight="700" fill="#22C55E">$12,440</text>

  <use href="#statCard" x="900" y="66" width="220" height="76"/>
  <text x="920" y="90" font-size="11" fill="#94A3B8">Expired (30d)</text>
  <text x="920" y="118" font-size="26" font-weight="700" fill="#EF4444">$820</text>

  <use href="#statCard" x="1130" y="66" width="220" height="76"/>
  <text x="1150" y="90" font-size="11" fill="#94A3B8">Active Cards</text>
  <text x="1150" y="118" font-size="26" font-weight="700" fill="#FFFFFF">1,203</text>

  <!-- ============================================================ -->
  <!--  PANEL: Issue New Gift Card                                  -->
  <!--  DB: pos_gift_cards (INSERT)                                 -->
  <!-- ============================================================ -->
  <rect x="210" y="154" width="480" height="540" rx="8" fill="#161930" filter="url(#cardShadow)"/>
  <rect x="210" y="154" width="480" height="540" rx="8" fill="none" stroke="#1E2235" stroke-width="1"/>

  <text x="234" y="182" font-size="14" font-weight="700" fill="#FFFFFF">Issue New Gift Card</text>
  <!-- Gear for card issuance settings -->
  <use href="#gearIcon" x="404" y="168" width="14" height="14" color="#94A3B8"/>

  <!-- Card preview visual -->
  <!-- pos_gift_cards: card_number, balance, expires_at, type -->
  <rect x="234" y="194" width="300" height="150" rx="12" fill="url(#gcGrad)" stroke="#2A2E45" stroke-width="1"/>
  <text x="254" y="226" font-size="16" font-weight="700" fill="#FFFFFF">Gift Card</text>
  <text x="254" y="244" font-size="12" fill="#60A5FA">The Restaurant Name</text>
  <text x="254" y="290" font-size="13" font-weight="600" fill="#FFFFFF">XXXX-XXXX-XXXX-4821</text>
  <!-- 16-character code format -->
  <text x="254" y="310" font-size="11" fill="#94A3B8">Balance: $50.00</text>
  <text x="400" y="310" font-size="11" fill="#94A3B8">Exp: 2028-05</text>
  <text x="254" y="328" font-size="10" fill="#475569">GC-4821</text>

  <!-- Card type toggle -->
  <!-- pos_gift_cards.type: 'physical' | 'digital' -->
  <text x="234" y="366" font-size="10" fill="#94A3B8">CARD TYPE</text>
  <use href="#gearIcon" x="296" y="354" width="12" height="12" color="#475569"/>
  <rect x="234" y="374" width="220" height="32" rx="6" fill="#0C0E1A"/>
  <rect x="242" y="380" width="96" height="20" rx="4" fill="url(#amberBtnGrad)"/>
  <text x="264" y="394" font-size="11" font-weight="600" fill="#000">Physical Card</text>
  <rect x="346" y="380" width="96" height="20" rx="4" fill="#161930" stroke="#2A2E45" stroke-width="1"/>
  <text x="366" y="394" font-size="11" fill="#475569">Digital / SMS</text>

  <!-- Amount / Denomination presets -->
  <!-- pos_gift_card_config.denomination_presets: integer[] -->
  <text x="234" y="428" font-size="10" fill="#94A3B8">AMOUNT (Denomination Presets)</text>
  <use href="#gearIcon" x="410" y="416" width="12" height="12" color="#475569"/>
  <rect x="234" y="436" width="440" height="40" rx="6" fill="#0C0E1A"/>

  <use href="#denomChip" x="242" y="444" width="70" height="24"/>
  <text x="264" y="460" font-size="12" fill="#CBD5E1">$25</text>

  <use href="#denomChipActive" x="320" y="444" width="70" height="24"/>
  <text x="342" y="460" font-size="12" font-weight="600" fill="#000">$50</text>

  <use href="#denomChip" x="398" y="444" width="70" height="24"/>
  <text x="420" y="460" font-size="12" fill="#CBD5E1">$100</text>

  <use href="#denomChip" x="476" y="444" width="70" height="24"/>
  <text x="496" y="460" font-size="12" fill="#CBD5E1">$200</text>

  <rect x="554" y="444" width="100" height="24" rx="4" fill="#161930" stroke="#2A2E45" stroke-width="1"/>
  <text x="570" y="460" font-size="12" fill="#475569">Custom $___</text>

  <!-- Recipient fields (for digital) -->
  <!-- pos_gift_cards.recipient_name, recipient_contact -->
  <text x="234" y="496" font-size="10" fill="#94A3B8">RECIPIENT (for digital SMS/email delivery)</text>
  <use href="#inputField" x="234" y="504" width="200" height="28"/>
  <text x="246" y="523" font-size="12" fill="#94A3B8">Name (optional)</text>
  <use href="#inputField" x="444" y="504" width="220" height="28"/>
  <text x="456" y="523" font-size="12" fill="#94A3B8">Phone or Email</text>

  <!-- Expiry -->
  <!-- pos_gift_cards.expires_at -->
  <text x="234" y="554" font-size="10" fill="#94A3B8">EXPIRY</text>
  <use href="#gearIcon" x="276" y="542" width="12" height="12" color="#475569"/>
  <text x="294" y="554" font-size="9" fill="#475569">pos_gift_cards.expires_at</text>
  <use href="#inputField" x="234" y="560" width="200" height="28"/>
  <text x="246" y="579" font-size="12" fill="#FFFFFF">2028-05-29</text>
  <text x="234" y="602" font-size="10" fill="#475569">Note: Many states prohibit expiry under 5 years -- check local law</text>

  <!-- Issue button -->
  <rect x="234" y="616" width="440" height="44" rx="8" fill="url(#amberBtnGrad)"/>
  <text x="454" y="644" font-size="15" font-weight="700" fill="#000" text-anchor="middle">Issue Gift Card -- Print + Activate</text>

  <!-- ============================================================ -->
  <!--  PANEL: Redeem / Check Balance                               -->
  <!--  DB: pos_gift_cards (SELECT / UPDATE balance)                -->
  <!-- ============================================================ -->
  <rect x="706" y="154" width="460" height="540" rx="8" fill="#161930" filter="url(#cardShadow)"/>
  <rect x="706" y="154" width="460" height="540" rx="8" fill="none" stroke="#1E2235" stroke-width="1"/>

  <text x="730" y="182" font-size="14" font-weight="700" fill="#FFFFFF">Redeem / Check Balance</text>

  <!-- Scan or enter code (16-char format) -->
  <rect x="730" y="194" width="412" height="80" rx="8" fill="#0C0E1A" stroke="#1E2235" stroke-width="1"/>
  <text x="750" y="218" font-size="12" fill="#CBD5E1">Scan barcode / swipe / type 16-char card number:</text>
  <!-- pos_gift_cards.card_number (16-char alphanumeric) -->
  <rect x="750" y="228" width="290" height="32" rx="6" fill="#1A1D2E" stroke="#F59E0B" stroke-width="1"/>
  <text x="766" y="249" font-size="13" fill="#FFFFFF">ABCD-EFGH-IJKL-4821</text>
  <rect x="1048" y="228" width="80" height="32" rx="6" fill="url(#amberBtnGrad)"/>
  <text x="1064" y="249" font-size="12" font-weight="600" fill="#000">Lookup</text>

  <!-- Card found result -->
  <!-- pos_gift_cards: card_number, balance, status, expires_at, issued_at -->
  <rect x="730" y="286" width="412" height="110" rx="8" fill="#052E16" stroke="#22C55E" stroke-width="1"/>
  <text x="754" y="310" font-size="13" font-weight="700" fill="#4ADE80">Card Found</text>
  <text x="754" y="328" font-size="12" fill="#CBD5E1">Card #: ABCD-EFGH-IJKL-4821</text>
  <text x="754" y="346" font-size="12" fill="#CBD5E1">Current Balance: <tspan font-weight="700" fill="#FFFFFF">$50.00</tspan></text>
  <text x="754" y="364" font-size="12" fill="#CBD5E1">Status: <tspan fill="#4ADE80">Active</tspan> -- Expires: 2028-05-29</text>
  <text x="754" y="380" font-size="11" fill="#94A3B8">Issued: 2026-05-29 -- No name on file</text>

  <!-- Redeem amount -->
  <text x="730" y="420" font-size="10" fill="#94A3B8">REDEEM AMOUNT (current order total: $34.50)</text>
  <rect x="730" y="428" width="200" height="40" rx="6" fill="#0C0E1A" stroke="#1E2235" stroke-width="1"/>
  <text x="750" y="454" font-size="22" font-weight="700" fill="#FFFFFF">$34.50</text>
  <text x="940" y="454" font-size="12" fill="#475569">full order amount</text>
  <text x="730" y="480" font-size="10" fill="#475569">Remaining after redeem: $15.50 stays on card</text>

  <!-- Reload section -->
  <!-- pos_gift_cards: UPDATE balance = balance + reload_amount -->
  <rect x="730" y="496" width="412" height="56" rx="8" fill="#1A1D2E" stroke="#1E2235" stroke-width="1"/>
  <text x="750" y="518" font-size="12" font-weight="600" fill="#FFFFFF">Reload Card -- Add Funds</text>
  <use href="#gearIcon" x="904" y="506" width="12" height="12" color="#94A3B8"/>

  <use href="#reloadChip" x="750" y="526" width="80" height="24"/>
  <text x="774" y="542" font-size="11" fill="#CBD5E1">+$25</text>
  <use href="#reloadChip" x="838" y="526" width="80" height="24"/>
  <text x="862" y="542" font-size="11" fill="#CBD5E1">+$50</text>
  <use href="#reloadChip" x="926" y="526" width="80" height="24"/>
  <text x="950" y="542" font-size="11" fill="#CBD5E1">+$100</text>
  <rect x="1014" y="526" width="100" height="24" rx="4" fill="#161930" stroke="#2A2E45" stroke-width="1"/>
  <text x="1032" y="542" font-size="11" fill="#475569">Custom...</text>

  <!-- Action buttons -->
  <rect x="730" y="566" width="196" height="40" rx="6" fill="#22C55E"/>
  <text x="790" y="591" font-size="13" font-weight="600" fill="#FFF">Redeem Now</text>

  <rect x="934" y="566" width="100" height="40" rx="6" fill="#161930" stroke="#2A2E45" stroke-width="1"/>
  <text x="960" y="591" font-size="13" fill="#CBD5E1">Void</text>

  <!-- Deactivate button -->
  <!-- pos_gift_cards.status = 'deactivated' -->
  <rect x="1042" y="566" width="120" height="40" rx="6" fill="#161930" stroke="#EF4444" stroke-width="1"/>
  <text x="1064" y="591" font-size="12" fill="#EF4444">Deactivate</text>

  <!-- ============================================================ -->
  <!--  PANEL: Recent Transactions                                  -->
  <!--  DB: pos_gift_card_transactions                              -->
  <!-- ============================================================ -->
  <rect x="1180" y="154" width="172" height="540" rx="8" fill="#161930" filter="url(#cardShadow)"/>
  <rect x="1180" y="154" width="172" height="540" rx="8" fill="none" stroke="#1E2235" stroke-width="1"/>

  <text x="1194" y="180" font-size="12" font-weight="600" fill="#FFFFFF">Recent Transactions</text>
  <!-- pos_gift_card_transactions: gc_id, type, amount, created_at, cashier_id -->

  <!-- Tx 1 -->
  <use href="#txRow" x="1188" y="190" width="156" height="48"/>
  <text x="1198" y="208" font-size="10" fill="#22C55E">+ $50.00 ISSUED</text>
  <text x="1198" y="220" font-size="9" fill="#475569">GC-4821 -- 2:14 PM</text>
  <text x="1198" y="232" font-size="9" fill="#475569">Cashier: Carlos</text>

  <!-- Tx 2 -->
  <use href="#txRow" x="1188" y="244" width="156" height="48"/>
  <text x="1198" y="262" font-size="10" fill="#EF4444">- $34.50 REDEEMED</text>
  <text x="1198" y="274" font-size="9" fill="#475569">GC-2211 -- 1:02 PM</text>
  <text x="1198" y="286" font-size="9" fill="#475569">Order #1841</text>

  <!-- Tx 3 -->
  <use href="#txRow" x="1188" y="298" width="156" height="48"/>
  <text x="1198" y="316" font-size="10" fill="#F59E0B">+ $25.00 RELOAD</text>
  <text x="1198" y="328" font-size="9" fill="#475569">GC-1120 -- 11:30 AM</text>
  <text x="1198" y="340" font-size="9" fill="#475569">Cashier: Maria</text>

  <!-- Tx 4 -->
  <use href="#txRow" x="1188" y="352" width="156" height="48"/>
  <text x="1198" y="370" font-size="10" fill="#EF4444">- $100.00 REDEEMED</text>
  <text x="1198" y="382" font-size="9" fill="#475569">GC-0930 -- 10:15 AM</text>
  <text x="1198" y="394" font-size="9" fill="#475569">Online order #1822</text>

  <!-- Tx 5 -->
  <use href="#txRow" x="1188" y="406" width="156" height="48"/>
  <text x="1198" y="424" font-size="10" fill="#22C55E">+ $100.00 ISSUED</text>
  <text x="1198" y="436" font-size="9" fill="#475569">GC-0930 -- May 28</text>
  <text x="1198" y="448" font-size="9" fill="#475569">Birthday gift package</text>

  <!-- ============================================================ -->
  <!--  BOTTOM: Gift Card Program Settings                          -->
  <!--  DB: pos_gift_card_config                                    -->
  <!-- ============================================================ -->
  <rect x="210" y="708" width="1142" height="190" rx="8" fill="#161930" filter="url(#cardShadow)"/>
  <rect x="210" y="708" width="1142" height="190" rx="8" fill="none" stroke="#1E2235" stroke-width="1"/>

  <text x="234" y="736" font-size="14" font-weight="700" fill="#FFFFFF">Gift Card Program Settings</text>
  <use href="#gearIcon" x="420" y="722" width="14" height="14" color="#F59E0B"/>

  <!-- Section 1: Card Design & Branding -->
  <!-- pos_gift_card_config: logo_url, card_color, barcode_type -->
  <use href="#sectionCard" x="234" y="748" width="360" height="120"/>
  <text x="254" y="770" font-size="11" font-weight="600" fill="#94A3B8">CARD DESIGN &amp; BRANDING</text>
  <use href="#gearIcon" x="426" y="758" width="12" height="12" color="#F59E0B"/>
  <text x="254" y="790" font-size="11" fill="#CBD5E1">Logo: restaurant logo (from Restaurant Info)</text>
  <text x="254" y="808" font-size="11" fill="#CBD5E1">Card color: customizable</text>
  <text x="254" y="826" font-size="11" fill="#CBD5E1">Barcode: Code128 + QR fallback</text>
  <text x="254" y="844" font-size="11" fill="#CBD5E1">Code format: 16-char alphanumeric</text>
  <!-- pos_gift_card_config.code_format -->
  <rect x="440" y="846" width="100" height="20" rx="4" fill="url(#amberBtnGrad)"/>
  <text x="456" y="860" font-size="10" font-weight="600" fill="#000">Print Template</text>

  <!-- Section 2: Financial Settings -->
  <!-- pos_gift_card_config: expiry_policy, inactivity_fee, liability_account -->
  <use href="#sectionCard" x="610" y="748" width="360" height="120"/>
  <text x="630" y="770" font-size="11" font-weight="600" fill="#94A3B8">FINANCIAL SETTINGS</text>
  <use href="#gearIcon" x="790" y="758" width="12" height="12" color="#F59E0B"/>
  <text x="630" y="790" font-size="11" fill="#CBD5E1">No expiry (recommended) or custom date</text>
  <text x="630" y="808" font-size="11" fill="#CBD5E1">Inactivity fee: allowed in some states (off)</text>
  <text x="630" y="826" font-size="11" fill="#CBD5E1">Liability: pos_gc_liability table</text>
  <text x="630" y="844" font-size="11" fill="#CBD5E1">Max reload: configurable per card</text>
  <!-- pos_gift_card_config.max_reload_amount -->

  <!-- Section 3: Workflow Integration -->
  <!-- pos_gift_card_config: sms_delivery, tender_button, online_checkout -->
  <use href="#sectionCard" x="986" y="748" width="360" height="120"/>
  <text x="1006" y="770" font-size="11" font-weight="600" fill="#94A3B8">WORKFLOW INTEGRATION</text>
  <use href="#gearIcon" x="1164" y="758" width="12" height="12" color="#F59E0B"/>
  <text x="1006" y="790" font-size="10" fill="#CBD5E1">Register: "Gift Card" tender button</text>
  <text x="1006" y="806" font-size="10" fill="#CBD5E1">Online: code entry at checkout</text>
  <text x="1006" y="822" font-size="10" fill="#CBD5E1">Reports: liability + redemption reports</text>
  <text x="1006" y="838" font-size="10" fill="#CBD5E1">SMS delivery via Twilio (digital)</text>
  <text x="1006" y="854" font-size="10" fill="#CBD5E1">Deactivate: admin-only action</text>

  <!-- Save button -->
  <rect x="210" y="912" width="1142" height="44" rx="8" fill="url(#amberBtnGrad)"/>
  <text x="781" y="940" font-size="15" font-weight="700" fill="#000" text-anchor="middle">Save Gift Card Settings</text>

  <!-- ============================================================ -->
  <!--  FOOTER                                                      -->
  <!-- ============================================================ -->
  <text x="683" y="988" font-size="10" text-anchor="middle" fill="#475569">Synalux POS -- Gift Cards -- pos_gift_cards + pos_gift_card_config + pos_gc_liability + pos_gift_card_transactions</text>
  <text x="683" y="1006" font-size="9" text-anchor="middle" fill="#2A2E45">Physical + Digital -- 16-char codes -- Twilio SMS -- Denomination presets -- Admin-configurable</text>

</svg>