<svg role="img" aria-labelledby="title-settings_employees-svg" xmlns="http://www.w3.org/2000/svg" viewBox="0 0 1366 1024" font-family="-apple-system,BlinkMacSystemFont,'SF Pro Display','Segoe UI',sans-serif">
  <title id="title-settings_employees-svg">Synalux POS — employees</title>
  <desc>Synalux POS mockup screen for employees. All UI elements admin-configurable.</desc>
  <defs>
    <!-- ===== GRADIENTS ===== -->
    <linearGradient id="headerGrad" x1="0" y1="0" x2="1" y2="0">
      <stop offset="0%" stop-color="#1A1D2E"/>
      <stop offset="100%" stop-color="#161930"/>
    </linearGradient>
    <linearGradient id="ctaGrad" x1="0" y1="0" x2="1" y2="1">
      <stop offset="0%" stop-color="#F59E0B"/>
      <stop offset="100%" stop-color="#D97706"/>
    </linearGradient>
    <linearGradient id="dangerGrad" x1="0" y1="0" x2="1" y2="0">
      <stop offset="0%" stop-color="#7F1D1D"/>
      <stop offset="100%" stop-color="#991B1B"/>
    </linearGradient>

    <!-- ===== FILTERS ===== -->
    <filter id="cardShadow" x="-4%" y="-4%" width="108%" height="112%">
      <feDropShadow dx="0" dy="2" stdDeviation="4" flood-color="#000000" flood-opacity="0.3"/>
    </filter>
    <filter id="glowAmber" x="-10%" y="-10%" width="120%" height="120%">
      <feDropShadow dx="0" dy="0" stdDeviation="3" flood-color="#F59E0B" flood-opacity="0.25"/>
    </filter>

    <!-- ===== SYMBOLS ===== -->

    <!-- Admin gear icon -->
    <symbol id="gearIcon" viewBox="0 0 16 16">
      <path d="M8 1l1.2.3.5 1.4.9.5 1.5-.2 1 .8-.3 1.4.3 1 1.1.9v1.2l-1.1.9-.3 1 .3 1.4-1 .8-1.5-.2-.9.5-.5 1.4H7l-.5-1.4-.9-.5-1.5.2-1-.8.3-1.4-.3-1L2.1 9V7.8l1.1-.9.3-1-.3-1.4 1-.8 1.5.2.9-.5L7 1h1zm0 4.5a2.5 2.5 0 100 5 2.5 2.5 0 000-5z" fill="#F59E0B" opacity="0.3"/>
    </symbol>

    <!-- Toggle ON -->
    <symbol id="toggleOn" viewBox="0 0 40 22">
      <rect width="40" height="22" rx="11" fill="#22C55E"/>
      <circle cx="29" cy="11" r="8" fill="#FFFFFF"/>
    </symbol>

    <!-- Toggle OFF -->
    <symbol id="toggleOff" viewBox="0 0 40 22">
      <rect width="40" height="22" rx="11" fill="#374151"/>
      <circle cx="11" cy="11" r="8" fill="#FFFFFF"/>
    </symbol>

    <!-- Form field -->
    <symbol id="formField" viewBox="0 0 200 30">
      <rect width="200" height="30" rx="6" fill="#0C0E1A" stroke="#2A2E45" stroke-width="1"/>
    </symbol>

    <!-- Form field active -->
    <symbol id="formFieldActive" viewBox="0 0 200 30">
      <rect width="200" height="30" rx="6" fill="#0C0E1A" stroke="#F59E0B" stroke-width="1.5"/>
    </symbol>

    <!-- Primary button -->
    <symbol id="btnPrimary" viewBox="0 0 160 36">
      <rect width="160" height="36" rx="6" fill="url(#ctaGrad)"/>
    </symbol>

    <!-- Secondary button -->
    <symbol id="btnSecondary" viewBox="0 0 100 36">
      <rect width="100" height="36" rx="6" fill="#161930" stroke="#2A2E45" stroke-width="1"/>
    </symbol>

    <!-- Danger button -->
    <symbol id="btnDanger" viewBox="0 0 160 36">
      <rect width="160" height="36" rx="6" fill="url(#dangerGrad)"/>
    </symbol>

    <!-- Nav item (inactive) -->
    <symbol id="navItem" viewBox="0 0 184 36">
      <rect width="184" height="36" rx="6" fill="transparent"/>
    </symbol>

    <!-- Nav item (active) -->
    <symbol id="navItemActive" viewBox="0 0 184 36">
      <rect width="184" height="36" rx="6" fill="#1A1D2E"/>
      <rect width="3" height="36" rx="1" fill="#F59E0B"/>
    </symbol>

    <!-- Employee card (inactive) -->
    <symbol id="empRow" viewBox="0 0 380 56">
      <rect width="380" height="56" rx="6" fill="#1A1D2E" stroke="#1E2235" stroke-width="1"/>
    </symbol>

    <!-- Employee card (selected) -->
    <symbol id="empRowActive" viewBox="0 0 380 56">
      <rect width="380" height="56" rx="6" fill="#1A1D2E" stroke="#F59E0B" stroke-width="1.5" filter="url(#glowAmber)"/>
    </symbol>

    <!-- Avatar circle -->
    <symbol id="avatar" viewBox="0 0 32 32">
      <circle cx="16" cy="16" r="16"/>
    </symbol>

    <!-- Status badge (active) -->
    <symbol id="statusActive" viewBox="0 0 56 18">
      <rect width="56" height="18" rx="9" fill="#065F46"/>
    </symbol>

    <!-- Status badge (off-duty) -->
    <symbol id="statusOff" viewBox="0 0 56 18">
      <rect width="56" height="18" rx="9" fill="#374151"/>
    </symbol>

    <!-- Role badge -->
    <symbol id="roleBadge" viewBox="0 0 70 20">
      <rect width="70" height="20" rx="10" fill="#1E3A5F"/>
    </symbol>

    <!-- RBAC permission check -->
    <symbol id="permCheck" viewBox="0 0 16 16">
      <text x="4" y="14" font-size="14" fill="#22C55E">&#x2713;</text>
    </symbol>

    <!-- RBAC permission deny -->
    <symbol id="permDeny" viewBox="0 0 16 16">
      <text x="4" y="14" font-size="14" fill="#64748B">&#x2014;</text>
    </symbol>

    <!-- PIN dot -->
    <symbol id="pinDot" viewBox="0 0 40 24">
      <rect width="40" height="24" rx="4" fill="#0C0E1A" stroke="#2A2E45" stroke-width="1"/>
      <circle cx="20" cy="12" r="4" fill="#FFFFFF"/>
    </symbol>

    <!-- Timeclock table row -->
    <symbol id="tcRow" viewBox="0 0 740 24">
      <rect width="740" height="24" fill="#1A1D2E"/>
    </symbol>

    <!-- Tab button (inactive) -->
    <symbol id="tab" viewBox="0 0 100 32">
      <rect width="100" height="32" rx="6" fill="transparent"/>
    </symbol>

    <!-- Tab button (active) -->
    <symbol id="tabActive" viewBox="0 0 100 32">
      <rect width="100" height="32" rx="6" fill="#1A1D2E"/>
    </symbol>
  </defs>

  <!-- ===== BACKGROUND ===== -->
  <rect width="1366" height="1024" fill="#0C0E1A"/>

  <!-- ===== LEFT SIDEBAR (200px) ===== -->
  <!-- admin_path: Back Office > Settings Navigation -->
  <rect x="0" y="0" width="200" height="1024" fill="#161930"/>
  <rect x="200" y="0" width="1" height="1024" fill="#1E2235"/>
  <text x="16" y="30" font-size="14" font-weight="700" fill="#F59E0B">Synalux POS</text>
  <text x="16" y="46" font-size="10" fill="#64748B">Back Office</text>

  <!-- Nav items using <use> -->
  <use href="#navItem" x="8" y="60" width="184" height="36"/>
  <text x="24" y="83" font-size="12" fill="#94A3B8">Restaurant Info</text>

  <use href="#navItem" x="8" y="100" width="184" height="36"/>
  <text x="24" y="123" font-size="12" fill="#94A3B8">Menu Builder</text>

  <use href="#navItem" x="8" y="140" width="184" height="36"/>
  <text x="24" y="163" font-size="12" fill="#94A3B8">Taxes</text>

  <use href="#navItemActive" x="8" y="176" width="184" height="36"/>
  <text x="24" y="199" font-size="12" font-weight="600" fill="#F59E0B">Employees</text>
  <use href="#gearIcon" x="170" y="184" width="14" height="14"/>

  <use href="#navItem" x="8" y="212" width="184" height="36"/>
  <text x="24" y="235" font-size="12" fill="#94A3B8">Discounts</text>

  <use href="#navItem" x="8" y="248" width="184" height="36"/>
  <text x="24" y="271" font-size="12" fill="#94A3B8">Inventory</text>

  <use href="#navItem" x="8" y="284" width="184" height="36"/>
  <text x="24" y="307" font-size="12" fill="#94A3B8">Equipment</text>

  <use href="#navItem" x="8" y="320" width="184" height="36"/>
  <text x="24" y="343" font-size="12" fill="#94A3B8">Floor Plans</text>

  <use href="#navItem" x="8" y="356" width="184" height="36"/>
  <text x="24" y="379" font-size="12" fill="#94A3B8">Payments</text>

  <use href="#navItem" x="8" y="392" width="184" height="36"/>
  <text x="24" y="415" font-size="12" fill="#94A3B8">Reports</text>

  <use href="#navItem" x="8" y="428" width="184" height="36"/>
  <text x="24" y="451" font-size="12" fill="#94A3B8">Integrations</text>

  <!-- ===== HEADER BAR ===== -->
  <!-- admin_path: Back Office > Employees & Roles -->
  <rect x="201" y="0" width="1165" height="56" fill="url(#headerGrad)"/>
  <text x="220" y="28" font-size="18" font-weight="700" fill="#FFFFFF">Employees &amp; Roles</text>
  <use href="#gearIcon" x="400" y="16" width="16" height="16"/>
  <text x="220" y="48" font-size="11" fill="#64748B">Role-based permissions | PIN auth | Timeclock | Schedules -- pos_employees / pos_roles</text>

  <!-- Header actions -->
  <use href="#btnPrimary" x="1070" y="10" width="110" height="32"/>
  <text x="1092" y="30" font-size="12" font-weight="600" fill="#000000">+ Add Staff</text>
  <use href="#btnSecondary" x="1190" y="10" width="130" height="32"/>
  <text x="1210" y="30" font-size="12" fill="#CBD5E1">Export Timeclock</text>

  <!-- ===== TABS ===== -->
  <!-- admin_path: Back Office > Employees > Tabs -->
  <rect x="201" y="56" width="1165" height="40" fill="#161930"/>
  <use href="#tabActive" x="210" y="60" width="100" height="32"/>
  <text x="230" y="81" font-size="12" font-weight="600" fill="#F59E0B">Staff List</text>
  <use href="#tab" x="318" y="60" width="100" height="32"/>
  <text x="332" y="81" font-size="12" fill="#94A3B8">Roles &amp; RBAC</text>
  <use href="#tab" x="426" y="60" width="100" height="32"/>
  <text x="446" y="81" font-size="12" fill="#94A3B8">Timeclock</text>
  <use href="#tab" x="534" y="60" width="100" height="32"/>
  <text x="552" y="81" font-size="12" fill="#94A3B8">Schedules</text>

  <!-- ===== LEFT: Staff List Panel (400px) ===== -->
  <!-- db: pos_employees table -->
  <rect x="201" y="96" width="400" height="928" fill="#161930"/>
  <rect x="601" y="96" width="1" height="928" fill="#1E2235"/>

  <!-- Search + filter -->
  <use href="#formField" x="212" y="108" width="240" height="30"/>
  <text x="228" y="128" font-size="11" fill="#64748B">Search employees...</text>
  <use href="#formField" x="462" y="108" width="128" height="30"/>
  <text x="478" y="128" font-size="11" fill="#94A3B8">All Roles &#x25BE;</text>

  <!-- Column headers -->
  <rect x="212" y="146" width="380" height="26" fill="#0C0E1A"/>
  <text x="264" y="163" font-size="10" font-weight="600" fill="#64748B">NAME</text>
  <text x="378" y="163" font-size="10" font-weight="600" fill="#64748B">ROLE</text>
  <text x="464" y="163" font-size="10" font-weight="600" fill="#64748B">STATUS</text>
  <text x="536" y="163" font-size="10" font-weight="600" fill="#64748B">CLOCKED</text>

  <!-- Employee 1: Maria Santos (selected) -->
  <!-- db: pos_employees.id = EMP-104, role_id -> Manager -->
  <use href="#empRowActive" x="212" y="176" width="380" height="56"/>
  <use href="#avatar" x="222" y="188" width="32" height="32" fill="#7C3AED"/>
  <text x="232" y="209" font-size="11" font-weight="700" fill="#FFFFFF">MS</text>
  <text x="262" y="199" font-size="12" font-weight="600" fill="#F59E0B">Maria Santos</text>
  <text x="262" y="215" font-size="10" fill="#64748B">maria@example.com</text>
  <use href="#roleBadge" x="372" y="192" width="66" height="20"/>
  <text x="382" y="206" font-size="10" fill="#93C5FD">Manager</text>
  <use href="#statusActive" x="456" y="194" width="54" height="16"/>
  <text x="462" y="206" font-size="9" fill="#4ADE80">Active</text>
  <text x="528" y="204" font-size="10" fill="#22C55E">3h 22m</text>

  <!-- Employee 2: Carlos Ruiz -->
  <!-- db: pos_employees.id = EMP-105, role_id -> Server -->
  <use href="#empRow" x="212" y="238" width="380" height="56"/>
  <use href="#avatar" x="222" y="250" width="32" height="32" fill="#0369A1"/>
  <text x="232" y="271" font-size="11" font-weight="700" fill="#FFFFFF">CR</text>
  <text x="262" y="261" font-size="12" fill="#CBD5E1">Carlos Ruiz</text>
  <text x="262" y="277" font-size="10" fill="#64748B">carlos@example.com</text>
  <rect x="372" y="254" width="50" height="20" rx="10" fill="#1F2937"/>
  <text x="384" y="268" font-size="10" fill="#94A3B8">Server</text>
  <use href="#statusActive" x="456" y="256" width="54" height="16"/>
  <text x="462" y="268" font-size="9" fill="#4ADE80">Active</text>
  <text x="528" y="266" font-size="10" fill="#22C55E">5h 08m</text>

  <!-- Employee 3: Aisha Johnson -->
  <!-- db: pos_employees.id = EMP-106, role_id -> Bartender -->
  <use href="#empRow" x="212" y="300" width="380" height="56"/>
  <use href="#avatar" x="222" y="312" width="32" height="32" fill="#B45309"/>
  <text x="232" y="333" font-size="11" font-weight="700" fill="#FFFFFF">AJ</text>
  <text x="262" y="323" font-size="12" fill="#CBD5E1">Aisha Johnson</text>
  <text x="262" y="339" font-size="10" fill="#64748B">aisha@example.com</text>
  <rect x="372" y="316" width="66" height="20" rx="10" fill="#1F2937"/>
  <text x="380" y="330" font-size="10" fill="#94A3B8">Bartender</text>
  <use href="#statusActive" x="456" y="318" width="54" height="16"/>
  <text x="462" y="330" font-size="9" fill="#4ADE80">Active</text>
  <text x="528" y="328" font-size="10" fill="#22C55E">4h 45m</text>

  <!-- Employee 4: Tom Park -->
  <!-- db: pos_employees.id = EMP-107, role_id -> Cook -->
  <use href="#empRow" x="212" y="362" width="380" height="56"/>
  <use href="#avatar" x="222" y="374" width="32" height="32" fill="#065F46"/>
  <text x="232" y="395" font-size="11" font-weight="700" fill="#FFFFFF">TP</text>
  <text x="262" y="385" font-size="12" fill="#CBD5E1">Tom Park</text>
  <text x="262" y="401" font-size="10" fill="#64748B">tom@example.com</text>
  <rect x="372" y="378" width="42" height="20" rx="10" fill="#1F2937"/>
  <text x="384" y="392" font-size="10" fill="#94A3B8">Cook</text>
  <use href="#statusActive" x="456" y="380" width="54" height="16"/>
  <text x="462" y="392" font-size="9" fill="#4ADE80">Active</text>
  <text x="528" y="390" font-size="10" fill="#22C55E">6h 02m</text>

  <!-- Employee 5: Sarah Chen (off duty) -->
  <!-- db: pos_employees.id = EMP-108, role_id -> Host -->
  <use href="#empRow" x="212" y="424" width="380" height="56"/>
  <use href="#avatar" x="222" y="436" width="32" height="32" fill="#64748B"/>
  <text x="232" y="457" font-size="11" font-weight="700" fill="#FFFFFF">SC</text>
  <text x="262" y="447" font-size="12" fill="#CBD5E1">Sarah Chen</text>
  <text x="262" y="463" font-size="10" fill="#64748B">sarah@example.com</text>
  <rect x="372" y="440" width="40" height="20" rx="10" fill="#1F2937"/>
  <text x="384" y="454" font-size="10" fill="#94A3B8">Host</text>
  <use href="#statusOff" x="456" y="442" width="56" height="16"/>
  <text x="462" y="454" font-size="9" fill="#94A3B8">Off-duty</text>

  <!-- Timeclock DB note -->
  <!-- db: pos_timeclock_entries schema reference -->
  <rect x="212" y="496" width="380" height="52" rx="6" fill="#0C0E1A" stroke="#1E2235" stroke-width="1"/>
  <text x="228" y="514" font-size="10" fill="#64748B">Clock-in/out via PIN at register</text>
  <text x="228" y="528" font-size="10" fill="#64748B">pos_timeclock_entries: employee_id, clock_in, clock_out</text>
  <text x="228" y="542" font-size="10" fill="#64748B">Payroll export: CSV / ADP / Gusto integration</text>

  <!-- ===== RIGHT PANEL: Employee Detail + RBAC ===== -->
  <!-- admin_path: Back Office > Employees > Detail -->
  <rect x="602" y="96" width="764" height="928" fill="#0C0E1A"/>

  <!-- Employee detail header card -->
  <!-- db: pos_employees row for selected employee -->
  <rect x="616" y="108" width="736" height="80" rx="8" fill="#1A1D2E" filter="url(#cardShadow)"/>
  <use href="#avatar" x="630" y="120" width="56" height="56" fill="#7C3AED"/>
  <text x="646" y="155" font-size="20" font-weight="700" fill="#FFFFFF">MS</text>
  <text x="700" y="132" font-size="16" font-weight="700" fill="#FFFFFF">Maria Santos</text>
  <use href="#gearIcon" x="830" y="120" width="14" height="14"/>
  <text x="700" y="150" font-size="11" fill="#64748B">Employee #104 | Hired 2024-03-12 | Rate: $22.50/hr</text>
  <text x="700" y="168" font-size="11" fill="#F59E0B">Role: Manager</text>

  <!-- PIN reset + Edit Profile buttons -->
  <use href="#btnSecondary" x="1140" y="118" width="100" height="28"/>
  <text x="1160" y="136" font-size="11" fill="#CBD5E1">Reset PIN</text>
  <use href="#btnSecondary" x="1248" y="118" width="92" height="28"/>
  <text x="1262" y="136" font-size="11" fill="#CBD5E1">Edit Profile</text>

  <!-- ===== PIN Section ===== -->
  <!-- db: pos_employees.pin_hash (encrypted) -->
  <rect x="616" y="200" width="360" height="84" rx="8" fill="#1A1D2E" filter="url(#cardShadow)"/>
  <text x="634" y="222" font-size="11" font-weight="600" fill="#64748B">REGISTER PIN (4-digit)</text>
  <use href="#gearIcon" x="790" y="210" width="12" height="12"/>
  <text x="634" y="240" font-size="10" fill="#64748B">Encrypted in DB -- never stored plaintext</text>
  <use href="#pinDot" x="634" y="248" width="40" height="22"/>
  <use href="#pinDot" x="680" y="248" width="40" height="22"/>
  <use href="#pinDot" x="726" y="248" width="40" height="22"/>
  <use href="#pinDot" x="772" y="248" width="40" height="22"/>
  <use href="#btnPrimary" x="824" y="248" width="100" height="24"/>
  <text x="844" y="264" font-size="10" font-weight="600" fill="#000000">Change PIN</text>

  <!-- ===== Role Selector ===== -->
  <!-- db: pos_employees.role_id -> pos_roles -->
  <rect x="988" y="200" width="368" height="84" rx="8" fill="#1A1D2E" filter="url(#cardShadow)"/>
  <text x="1006" y="222" font-size="11" font-weight="600" fill="#64748B">ROLE (pos_roles)</text>
  <use href="#gearIcon" x="1120" y="210" width="12" height="12"/>
  <use href="#formField" x="1006" y="232" width="336" height="34"/>
  <text x="1022" y="254" font-size="13" font-weight="600" fill="#FFFFFF">Manager</text>
  <text x="1324" y="254" font-size="16" fill="#64748B">&#x25BE;</text>
  <text x="1006" y="278" font-size="10" fill="#64748B">Roles define all permission gates below -- customize per-employee overrides</text>

  <!-- ===== RBAC Permissions Matrix ===== -->
  <!-- db: pos_role_permissions table, Supabase RLS enforced -->
  <text x="616" y="310" font-size="14" font-weight="700" fill="#FFFFFF">Role-Based Access Control (RBAC)</text>
  <use href="#gearIcon" x="850" y="296" width="14" height="14"/>
  <text x="616" y="328" font-size="11" fill="#64748B">pos_role_permissions table -- all permission checks server-side via Supabase RLS</text>

  <!-- Matrix header -->
  <rect x="616" y="336" width="740" height="28" fill="#161930"/>
  <text x="632" y="354" font-size="10" font-weight="600" fill="#64748B">PERMISSION</text>
  <text x="810" y="354" font-size="9" font-weight="600" fill="#64748B">OWNER</text>
  <text x="870" y="354" font-size="9" font-weight="600" fill="#64748B">MGR</text>
  <text x="930" y="354" font-size="9" font-weight="600" fill="#64748B">SUPV</text>
  <text x="990" y="354" font-size="9" font-weight="600" fill="#64748B">SERVER</text>
  <text x="1052" y="354" font-size="9" font-weight="600" fill="#64748B">BARTN</text>
  <text x="1114" y="354" font-size="9" font-weight="600" fill="#64748B">COOK</text>
  <text x="1170" y="354" font-size="9" font-weight="600" fill="#64748B">HOST</text>
  <text x="1230" y="354" font-size="9" font-weight="600" fill="#F59E0B">OVERRIDE</text>

  <!-- Permission rows using alternating background + check/deny symbols -->
  <!-- Row 1: Open / Close Day -->
  <!-- db: pos_role_permissions.permission = 'open_close_day' -->
  <rect x="616" y="364" width="740" height="28" fill="#1A1D2E"/>
  <text x="632" y="382" font-size="11" fill="#CBD5E1">Open / Close Day</text>
  <use href="#permCheck" x="816" y="370" width="14" height="14"/>
  <use href="#permCheck" x="876" y="370" width="14" height="14"/>
  <use href="#permDeny" x="936" y="370" width="14" height="14"/>
  <use href="#permDeny" x="996" y="370" width="14" height="14"/>
  <use href="#permDeny" x="1058" y="370" width="14" height="14"/>
  <use href="#permDeny" x="1120" y="370" width="14" height="14"/>
  <use href="#permDeny" x="1176" y="370" width="14" height="14"/>
  <use href="#permCheck" x="1240" y="370" width="14" height="14"/>

  <!-- Row 2: Void Items -->
  <!-- db: pos_role_permissions.permission = 'void_items' -->
  <rect x="616" y="392" width="740" height="28" fill="#161930"/>
  <text x="632" y="410" font-size="11" fill="#CBD5E1">Void Items</text>
  <use href="#permCheck" x="816" y="398" width="14" height="14"/>
  <use href="#permCheck" x="876" y="398" width="14" height="14"/>
  <use href="#permCheck" x="936" y="398" width="14" height="14"/>
  <use href="#permDeny" x="996" y="398" width="14" height="14"/>
  <use href="#permDeny" x="1058" y="398" width="14" height="14"/>
  <use href="#permDeny" x="1120" y="398" width="14" height="14"/>
  <use href="#permDeny" x="1176" y="398" width="14" height="14"/>
  <use href="#permCheck" x="1240" y="398" width="14" height="14"/>

  <!-- Row 3: Apply Discounts -->
  <!-- db: pos_role_permissions.permission = 'apply_discounts' -->
  <rect x="616" y="420" width="740" height="28" fill="#1A1D2E"/>
  <text x="632" y="438" font-size="11" fill="#CBD5E1">Apply Discounts</text>
  <use href="#permCheck" x="816" y="426" width="14" height="14"/>
  <use href="#permCheck" x="876" y="426" width="14" height="14"/>
  <use href="#permCheck" x="936" y="426" width="14" height="14"/>
  <use href="#permCheck" x="996" y="426" width="14" height="14"/>
  <use href="#permCheck" x="1058" y="426" width="14" height="14"/>
  <use href="#permDeny" x="1120" y="426" width="14" height="14"/>
  <use href="#permDeny" x="1176" y="426" width="14" height="14"/>
  <use href="#permCheck" x="1240" y="426" width="14" height="14"/>

  <!-- Row 4: Comp Meals -->
  <!-- db: pos_role_permissions.permission = 'comp_meals' -->
  <rect x="616" y="448" width="740" height="28" fill="#161930"/>
  <text x="632" y="466" font-size="11" fill="#CBD5E1">Comp Meals</text>
  <use href="#permCheck" x="816" y="454" width="14" height="14"/>
  <use href="#permCheck" x="876" y="454" width="14" height="14"/>
  <use href="#permDeny" x="936" y="454" width="14" height="14"/>
  <use href="#permDeny" x="996" y="454" width="14" height="14"/>
  <use href="#permDeny" x="1058" y="454" width="14" height="14"/>
  <use href="#permDeny" x="1120" y="454" width="14" height="14"/>
  <use href="#permDeny" x="1176" y="454" width="14" height="14"/>
  <use href="#permCheck" x="1240" y="454" width="14" height="14"/>

  <!-- Row 5: Access Reports -->
  <!-- db: pos_role_permissions.permission = 'access_reports' -->
  <rect x="616" y="476" width="740" height="28" fill="#1A1D2E"/>
  <text x="632" y="494" font-size="11" fill="#CBD5E1">Access Reports</text>
  <use href="#permCheck" x="816" y="482" width="14" height="14"/>
  <use href="#permCheck" x="876" y="482" width="14" height="14"/>
  <use href="#permCheck" x="936" y="482" width="14" height="14"/>
  <use href="#permDeny" x="996" y="482" width="14" height="14"/>
  <use href="#permDeny" x="1058" y="482" width="14" height="14"/>
  <use href="#permDeny" x="1120" y="482" width="14" height="14"/>
  <use href="#permDeny" x="1176" y="482" width="14" height="14"/>
  <use href="#permCheck" x="1240" y="482" width="14" height="14"/>

  <!-- Row 6: Edit Menu / Prices -->
  <!-- db: pos_role_permissions.permission = 'edit_menu' -->
  <rect x="616" y="504" width="740" height="28" fill="#161930"/>
  <text x="632" y="522" font-size="11" fill="#CBD5E1">Edit Menu / Prices</text>
  <use href="#permCheck" x="816" y="510" width="14" height="14"/>
  <use href="#permCheck" x="876" y="510" width="14" height="14"/>
  <use href="#permDeny" x="936" y="510" width="14" height="14"/>
  <use href="#permDeny" x="996" y="510" width="14" height="14"/>
  <use href="#permDeny" x="1058" y="510" width="14" height="14"/>
  <use href="#permDeny" x="1120" y="510" width="14" height="14"/>
  <use href="#permDeny" x="1176" y="510" width="14" height="14"/>
  <use href="#permCheck" x="1240" y="510" width="14" height="14"/>

  <!-- Row 7: Age Verification Override -->
  <!-- db: pos_role_permissions.permission = 'age_verify_override' -->
  <rect x="616" y="532" width="740" height="28" fill="#1A1D2E"/>
  <text x="632" y="550" font-size="11" fill="#CBD5E1">Age Verification Override</text>
  <use href="#permCheck" x="816" y="538" width="14" height="14"/>
  <use href="#permCheck" x="876" y="538" width="14" height="14"/>
  <use href="#permCheck" x="936" y="538" width="14" height="14"/>
  <use href="#permDeny" x="996" y="538" width="14" height="14"/>
  <use href="#permDeny" x="1058" y="538" width="14" height="14"/>
  <use href="#permDeny" x="1120" y="538" width="14" height="14"/>
  <use href="#permDeny" x="1176" y="538" width="14" height="14"/>
  <use href="#permCheck" x="1240" y="538" width="14" height="14"/>

  <!-- Row 8: Refund Payments -->
  <!-- db: pos_role_permissions.permission = 'refund_payments' -->
  <rect x="616" y="560" width="740" height="28" fill="#161930"/>
  <text x="632" y="578" font-size="11" fill="#CBD5E1">Refund Payments</text>
  <use href="#permCheck" x="816" y="566" width="14" height="14"/>
  <use href="#permCheck" x="876" y="566" width="14" height="14"/>
  <use href="#permDeny" x="936" y="566" width="14" height="14"/>
  <use href="#permDeny" x="996" y="566" width="14" height="14"/>
  <use href="#permDeny" x="1058" y="566" width="14" height="14"/>
  <use href="#permDeny" x="1120" y="566" width="14" height="14"/>
  <use href="#permDeny" x="1176" y="566" width="14" height="14"/>
  <use href="#permCheck" x="1240" y="566" width="14" height="14"/>

  <!-- ===== Timeclock Section ===== -->
  <!-- db: pos_timeclock_entries WHERE employee_id = EMP-104 -->
  <text x="616" y="614" font-size="13" font-weight="600" fill="#FFFFFF">Timeclock -- Today</text>
  <use href="#gearIcon" x="760" y="600" width="14" height="14"/>

  <rect x="616" y="624" width="740" height="110" rx="8" fill="#1A1D2E" filter="url(#cardShadow)"/>

  <!-- Timeclock table header -->
  <rect x="630" y="636" width="714" height="22" fill="#161930"/>
  <text x="642" y="651" font-size="9" fill="#64748B">DATE</text>
  <text x="730" y="651" font-size="9" fill="#64748B">CLOCK IN</text>
  <text x="820" y="651" font-size="9" fill="#64748B">CLOCK OUT</text>
  <text x="916" y="651" font-size="9" fill="#64748B">HOURS</text>
  <text x="976" y="651" font-size="9" fill="#64748B">BREAK</text>
  <text x="1036" y="651" font-size="9" fill="#64748B">TOTAL</text>
  <text x="1100" y="651" font-size="9" fill="#64748B">NOTE</text>

  <!-- Today entry -->
  <text x="642" y="676" font-size="11" fill="#CBD5E1">2026-05-30</text>
  <text x="730" y="676" font-size="11" fill="#CBD5E1">09:12 AM</text>
  <text x="820" y="676" font-size="11" fill="#64748B">-- still in</text>
  <text x="916" y="676" font-size="11" fill="#22C55E">3h 22m</text>
  <text x="976" y="676" font-size="11" fill="#64748B">30m</text>
  <text x="1036" y="676" font-size="11" fill="#22C55E">2h 52m</text>
  <text x="1100" y="676" font-size="11" fill="#64748B">Manager shift</text>

  <!-- Yesterday entry -->
  <text x="642" y="700" font-size="11" fill="#64748B">2026-05-29</text>
  <text x="730" y="700" font-size="11" fill="#64748B">11:30 AM</text>
  <text x="820" y="700" font-size="11" fill="#64748B">09:45 PM</text>
  <text x="916" y="700" font-size="11" fill="#64748B">10h 15m</text>
  <text x="976" y="700" font-size="11" fill="#64748B">45m</text>
  <text x="1036" y="700" font-size="11" fill="#64748B">9h 30m</text>
  <text x="1100" y="700" font-size="11" fill="#64748B">Closing shift</text>

  <!-- ===== Credentials / Schedule Section ===== -->
  <!-- db: pos_employees.email, pos_employees.phone -->
  <rect x="616" y="750" width="360" height="100" rx="8" fill="#1A1D2E" filter="url(#cardShadow)"/>
  <text x="634" y="772" font-size="11" font-weight="600" fill="#64748B">CREDENTIALS</text>
  <use href="#gearIcon" x="730" y="760" width="12" height="12"/>
  <text x="634" y="792" font-size="10" fill="#64748B">Email</text>
  <use href="#formField" x="634" y="796" width="320" height="24"/>
  <text x="646" y="813" font-size="11" fill="#CBD5E1">maria@example.com</text>
  <text x="634" y="840" font-size="10" fill="#64748B">Phone: (555) 012-3456</text>

  <!-- Schedule info card -->
  <!-- db: pos_schedules WHERE employee_id = EMP-104 -->
  <rect x="988" y="750" width="368" height="100" rx="8" fill="#1A1D2E" filter="url(#cardShadow)"/>
  <text x="1006" y="772" font-size="11" font-weight="600" fill="#64748B">SCHEDULE</text>
  <use href="#gearIcon" x="1070" y="760" width="12" height="12"/>
  <text x="1006" y="792" font-size="10" fill="#CBD5E1">Mon-Fri: 9:00 AM - 5:00 PM</text>
  <text x="1006" y="810" font-size="10" fill="#CBD5E1">Sat-Sun: Off</text>
  <text x="1006" y="828" font-size="10" fill="#64748B">Next shift: Tomorrow 9:00 AM</text>
  <text x="1006" y="844" font-size="10" fill="#F59E0B">Overtime this week: 2.5h</text>

  <!-- ===== Action Buttons ===== -->
  <use href="#btnPrimary" x="616" y="870" width="160" height="36"/>
  <text x="660" y="893" font-size="13" font-weight="600" fill="#000000">Save Changes</text>

  <use href="#btnSecondary" x="786" y="870" width="140" height="36"/>
  <text x="814" y="893" font-size="12" fill="#CBD5E1">View Full Timeclock</text>

  <use href="#btnDanger" x="1180" y="870" width="160" height="36"/>
  <text x="1202" y="893" font-size="12" fill="#FCA5A5">Deactivate Employee</text>

  <!-- Footer -->
  <text x="683" y="1010" font-size="10" text-anchor="middle" fill="#2A2E45">Synalux POS | Employees | All permissions via pos_role_permissions RLS -- no hardcodes</text>
</svg>