<svg xmlns="http://www.w3.org/2000/svg" width="1366" height="1024" viewBox="0 0 1366 1024" font-family="'SF Pro Display', 'Segoe UI', system-ui, -apple-system, sans-serif">
  <defs>
    <clipPath id="card-clip-1">
      <rect x="0" y="0" width="620" height="460" rx="4"/>
    </clipPath>
    <clipPath id="editor-clip">
      <rect x="0" y="0" width="474" height="680" rx="4"/>
    </clipPath>
  </defs>

  <!-- Background -->
  <rect width="1366" height="1024" fill="#0F1117"/>

  <!-- ═══════════════════════════════════════════════════ -->
  <!-- LEFT SIDEBAR (210px) -->
  <!-- ═══════════════════════════════════════════════════ -->
  <rect x="0" y="0" width="210" height="1024" fill="#1A1D2E"/>
  <rect x="210" y="0" width="1" height="1024" fill="#2D3148"/>

  <!-- Logo area -->
  <rect x="0" y="0" width="210" height="60" fill="#1A1D2E"/>
  <rect x="16" y="18" width="26" height="26" rx="6" fill="#F59E0B"/>
  <text x="29" y="35" fill="#0F1117" font-size="13" font-weight="700" text-anchor="middle">S</text>
  <text x="52" y="38" fill="#F1F5F9" font-size="14" font-weight="700">Synalux POS</text>
  <line x1="0" y1="60" x2="210" y2="60" stroke="#2D3148" stroke-width="1"/>

  <!-- Nav sections -->
  <!-- Dashboard -->
  <g>
    <rect x="8" y="70" width="194" height="36" rx="6" fill="none"/>
    <text x="16" y="63" fill="#64748B" font-size="10" font-weight="600" letter-spacing="0.8">MAIN</text>
    <rect x="16" y="72" width="16" height="16" rx="2" fill="none"/>
    <!-- house icon -->
    <text x="16" y="94" fill="#64748B" font-size="13">⌂</text>
    <text x="36" y="94" fill="#64748B" font-size="13">Dashboard</text>
  </g>

  <text x="16" y="126" fill="#64748B" font-size="13">⊞</text>
  <text x="36" y="126" fill="#64748B" font-size="13">Orders</text>

  <text x="16" y="154" fill="#64748B" font-size="13">◈</text>
  <text x="36" y="154" fill="#64748B" font-size="13">Menu</text>

  <text x="16" y="182" fill="#64748B" font-size="13">👥</text>
  <text x="36" y="182" fill="#94A3B8" font-size="13">Customers</text>

  <line x1="16" y1="198" x2="194" y2="198" stroke="#2D3148" stroke-width="1"/>

  <!-- SETTINGS section -->
  <text x="16" y="216" fill="#64748B" font-size="10" font-weight="600" letter-spacing="0.8">SETTINGS</text>

  <text x="16" y="238" fill="#64748B" font-size="13">⚙</text>
  <text x="36" y="238" fill="#64748B" font-size="13">General</text>

  <text x="16" y="262" fill="#64748B" font-size="13">💳</text>
  <text x="36" y="262" fill="#64748B" font-size="13">Payments</text>

  <text x="16" y="286" fill="#64748B" font-size="13">★</text>
  <text x="36" y="286" fill="#64748B" font-size="13">Loyalty</text>

  <!-- Marketing — HIGHLIGHTED -->
  <rect x="8" y="296" width="194" height="36" rx="6" fill="#F59E0B" fill-opacity="0.15"/>
  <rect x="8" y="296" width="3" height="36" rx="1.5" fill="#F59E0B"/>
  <text x="16" y="319" fill="#F59E0B" font-size="13">📢</text>
  <text x="36" y="319" fill="#F59E0B" font-size="13" font-weight="600">Marketing</text>

  <!-- Sub-items under Marketing -->
  <rect x="24" y="338" width="178" height="28" rx="5" fill="#F59E0B" fill-opacity="0.12"/>
  <text x="44" y="357" fill="#F59E0B" font-size="12" font-weight="600">Campaigns</text>

  <text x="44" y="381" fill="#94A3B8" font-size="12">Automations</text>
  <text x="44" y="405" fill="#94A3B8" font-size="12">Segments</text>
  <text x="44" y="429" fill="#94A3B8" font-size="12">Templates</text>

  <line x1="16" y1="448" x2="194" y2="448" stroke="#2D3148" stroke-width="1"/>

  <text x="16" y="466" fill="#64748B" font-size="13">📊</text>
  <text x="36" y="466" fill="#64748B" font-size="13">Reports</text>

  <text x="16" y="490" fill="#64748B" font-size="13">👤</text>
  <text x="36" y="490" fill="#64748B" font-size="13">Staff</text>

  <text x="16" y="514" fill="#64748B" font-size="13">🔗</text>
  <text x="36" y="514" fill="#64748B" font-size="13">Integrations</text>

  <!-- Bottom user avatar -->
  <line x1="0" y1="974" x2="210" y2="974" stroke="#2D3148" stroke-width="1"/>
  <circle cx="28" cy="998" r="14" fill="#2D3148"/>
  <text x="28" y="1003" fill="#F1F5F9" font-size="12" text-anchor="middle" font-weight="600">DM</text>
  <text x="52" y="994" fill="#F1F5F9" font-size="12" font-weight="600">Dmitri M.</text>
  <text x="52" y="1008" fill="#64748B" font-size="10">Admin</text>

  <!-- ═══════════════════════════════════════════════════ -->
  <!-- TOP BAR -->
  <!-- ═══════════════════════════════════════════════════ -->
  <rect x="211" y="0" width="1155" height="60" fill="#1A1D2E"/>
  <line x1="211" y1="60" x2="1366" y2="60" stroke="#2D3148" stroke-width="1"/>

  <!-- Breadcrumb -->
  <text x="230" y="35" fill="#64748B" font-size="13">Settings</text>
  <text x="295" y="35" fill="#64748B" font-size="13">/</text>
  <text x="310" y="35" fill="#F1F5F9" font-size="13" font-weight="600">Marketing</text>

  <!-- Top-right controls -->
  <circle cx="1320" cy="30" r="16" fill="#2D3148"/>
  <text x="1320" y="35" fill="#F1F5F9" font-size="13" text-anchor="middle">🔔</text>
  <circle cx="1350" cy="30" r="14" fill="#F59E0B" fill-opacity="0.2"/>
  <text x="1350" y="35" fill="#F59E0B" font-size="12" text-anchor="middle" font-weight="700">D</text>

  <!-- ═══════════════════════════════════════════════════ -->
  <!-- CAMPAIGNS LIST PANEL (left 640px of content) -->
  <!-- ═══════════════════════════════════════════════════ -->
  <g transform="translate(222, 72)">

    <!-- Panel header -->
    <text x="0" y="22" fill="#F1F5F9" font-size="18" font-weight="700">Marketing Campaigns</text>
    <text x="0" y="40" fill="#64748B" font-size="12">Reach your loyalty customers with targeted email and SMS campaigns.</text>

    <!-- "+ New Campaign" button -->
    <rect x="484" y="4" width="148" height="36" rx="8" fill="#F59E0B"/>
    <text x="558" y="27" fill="#0F1117" font-size="13" font-weight="700" text-anchor="middle">+ New Campaign</text>

    <!-- Stats row -->
    <g transform="translate(0, 58)">
      <!-- Stat card 1 -->
      <rect x="0" y="0" width="148" height="64" rx="8" fill="#1A1D2E" stroke="#2D3148" stroke-width="1"/>
      <text x="12" y="20" fill="#64748B" font-size="10" font-weight="600" letter-spacing="0.5">TOTAL SENT (30D)</text>
      <text x="12" y="46" fill="#F1F5F9" font-size="22" font-weight="700">1,837</text>

      <!-- Stat card 2 -->
      <rect x="160" y="0" width="148" height="64" rx="8" fill="#1A1D2E" stroke="#2D3148" stroke-width="1"/>
      <text x="12" y="20" fill="#64748B" font-size="10" font-weight="600" letter-spacing="0.5">AVG OPEN RATE</text>
      <text x="172" y="46" fill="#10B981" font-size="22" font-weight="700">34%</text>

      <!-- Stat card 3 -->
      <rect x="320" y="0" width="148" height="64" rx="8" fill="#1A1D2E" stroke="#2D3148" stroke-width="1"/>
      <text x="332" y="20" fill="#64748B" font-size="10" font-weight="600" letter-spacing="0.5">REVENUE ATTR.</text>
      <text x="332" y="46" fill="#F59E0B" font-size="22" font-weight="700">$9,150</text>

      <!-- Stat card 4 -->
      <rect x="480" y="0" width="148" height="64" rx="8" fill="#1A1D2E" stroke="#2D3148" stroke-width="1"/>
      <text x="492" y="20" fill="#64748B" font-size="10" font-weight="600" letter-spacing="0.5">ACTIVE AUTO.</text>
      <text x="492" y="46" fill="#8B5CF6" font-size="22" font-weight="700">2</text>
    </g>

    <!-- Campaigns Table -->
    <g transform="translate(0, 140)">
      <!-- Table header -->
      <rect x="0" y="0" width="632" height="36" rx="6" fill="#2D3148" fill-opacity="0.5"/>
      <text x="12" y="23" fill="#64748B" font-size="11" font-weight="600" letter-spacing="0.5">CAMPAIGN NAME</text>
      <text x="210" y="23" fill="#64748B" font-size="11" font-weight="600" letter-spacing="0.5">TYPE</text>
      <text x="272" y="23" fill="#64748B" font-size="11" font-weight="600" letter-spacing="0.5">SEGMENT</text>
      <text x="380" y="23" fill="#64748B" font-size="11" font-weight="600" letter-spacing="0.5">SENT</text>
      <text x="424" y="23" fill="#64748B" font-size="11" font-weight="600" letter-spacing="0.5">OPEN %</text>
      <text x="482" y="23" fill="#64748B" font-size="11" font-weight="600" letter-spacing="0.5">REVENUE</text>
      <text x="560" y="23" fill="#64748B" font-size="11" font-weight="600" letter-spacing="0.5">STATUS</text>

      <!-- Row 1: Spring Promo -->
      <rect x="0" y="36" width="632" height="48" rx="0" fill="#1A1D2E"/>
      <rect x="0" y="36" width="632" height="1" fill="#2D3148"/>
      <rect x="0" y="83" width="632" height="1" fill="#2D3148"/>
      <!-- Email icon -->
      <rect x="10" y="49" width="18" height="14" rx="2" fill="#8B5CF6" fill-opacity="0.3"/>
      <text x="19" y="60" fill="#8B5CF6" font-size="8" text-anchor="middle">✉</text>
      <text x="34" y="58" fill="#F1F5F9" font-size="13" font-weight="500">Spring Promo</text>
      <text x="34" y="73" fill="#64748B" font-size="10">Apr 15, 2026</text>
      <rect x="204" y="48" width="46" height="18" rx="9" fill="#8B5CF6" fill-opacity="0.2"/>
      <text x="227" y="61" fill="#8B5CF6" font-size="10" font-weight="600" text-anchor="middle">Email</text>
      <text x="272" y="58" fill="#94A3B8" font-size="12">All loyalty</text>
      <text x="380" y="58" fill="#F1F5F9" font-size="13" font-weight="500">1,240</text>
      <text x="424" y="58" fill="#10B981" font-size="13" font-weight="600">34%</text>
      <text x="482" y="58" fill="#F1F5F9" font-size="13" font-weight="500">$4,820</text>
      <rect x="554" y="48" width="68" height="20" rx="10" fill="#10B981" fill-opacity="0.15"/>
      <circle cx="562" cy="58" r="3" fill="#10B981"/>
      <text x="570" y="62" fill="#10B981" font-size="10" font-weight="600">Completed</text>

      <!-- Row 2: Win-Back -->
      <rect x="0" y="84" width="632" height="48" fill="#0F1117" fill-opacity="0.3"/>
      <rect x="0" y="131" width="632" height="1" fill="#2D3148"/>
      <!-- SMS icon -->
      <rect x="10" y="97" width="18" height="14" rx="2" fill="#10B981" fill-opacity="0.3"/>
      <text x="19" y="108" fill="#10B981" font-size="8" text-anchor="middle">💬</text>
      <text x="34" y="106" fill="#F1F5F9" font-size="13" font-weight="500">Win-Back: 30+ days</text>
      <text x="34" y="121" fill="#64748B" font-size="10">Apr 20, 2026</text>
      <rect x="204" y="96" width="40" height="18" rx="9" fill="#10B981" fill-opacity="0.2"/>
      <text x="224" y="109" fill="#10B981" font-size="10" font-weight="600" text-anchor="middle">SMS</text>
      <text x="272" y="106" fill="#94A3B8" font-size="12">Lapsed (30d)</text>
      <text x="380" y="106" fill="#F1F5F9" font-size="13" font-weight="500">387</text>
      <text x="424" y="106" fill="#64748B" font-size="12">—</text>
      <text x="482" y="106" fill="#F1F5F9" font-size="13" font-weight="500">$1,140</text>
      <rect x="554" y="96" width="68" height="20" rx="10" fill="#10B981" fill-opacity="0.15"/>
      <circle cx="562" cy="106" r="3" fill="#10B981"/>
      <text x="570" y="110" fill="#10B981" font-size="10" font-weight="600">Completed</text>

      <!-- Row 3: Happy Hour Reminder -->
      <rect x="0" y="132" width="632" height="48" fill="#1A1D2E"/>
      <rect x="0" y="179" width="632" height="1" fill="#2D3148"/>
      <rect x="10" y="145" width="18" height="14" rx="2" fill="#8B5CF6" fill-opacity="0.3"/>
      <text x="19" y="156" fill="#8B5CF6" font-size="8" text-anchor="middle">✉</text>
      <text x="34" y="154" fill="#F1F5F9" font-size="13" font-weight="500">Happy Hour Reminder</text>
      <text x="34" y="169" fill="#64748B" font-size="10">May 28, 2026 · 5:00 PM</text>
      <rect x="204" y="144" width="46" height="18" rx="9" fill="#8B5CF6" fill-opacity="0.2"/>
      <text x="227" y="157" fill="#8B5CF6" font-size="10" font-weight="600" text-anchor="middle">Email</text>
      <text x="272" y="154" fill="#94A3B8" font-size="12">Gold tier</text>
      <text x="380" y="154" fill="#F1F5F9" font-size="13" font-weight="500">210</text>
      <text x="424" y="154" fill="#10B981" font-size="13" font-weight="600">28%</text>
      <text x="482" y="154" fill="#F1F5F9" font-size="13" font-weight="500">$890</text>
      <rect x="554" y="144" width="66" height="20" rx="10" fill="#F59E0B" fill-opacity="0.15"/>
      <circle cx="562" cy="154" r="3" fill="#F59E0B"/>
      <text x="570" y="158" fill="#F59E0B" font-size="10" font-weight="600">Scheduled</text>

      <!-- Row 4: Birthday Week (automation) -->
      <rect x="0" y="180" width="632" height="48" fill="#0F1117" fill-opacity="0.3"/>
      <rect x="0" y="227" width="632" height="1" fill="#2D3148"/>
      <rect x="10" y="193" width="18" height="14" rx="2" fill="#8B5CF6" fill-opacity="0.3"/>
      <text x="19" y="204" fill="#8B5CF6" font-size="8" text-anchor="middle">⚡</text>
      <text x="34" y="202" fill="#F1F5F9" font-size="13" font-weight="500">Birthday Week</text>
      <text x="34" y="217" fill="#64748B" font-size="10">Automation · Ongoing</text>
      <rect x="200" y="192" width="60" height="18" rx="9" fill="#2D3148"/>
      <text x="230" y="205" fill="#94A3B8" font-size="9" font-weight="600" text-anchor="middle">Email+SMS</text>
      <text x="272" y="202" fill="#94A3B8" font-size="12">Birthdays</text>
      <text x="380" y="202" fill="#94A3B8" font-size="12" font-style="italic">Auto</text>
      <text x="424" y="202" fill="#10B981" font-size="13" font-weight="600">41%</text>
      <text x="482" y="202" fill="#F1F5F9" font-size="13" font-weight="500">$2,300</text>
      <rect x="554" y="192" width="54" height="20" rx="10" fill="#3B82F6" fill-opacity="0.15"/>
      <circle cx="562" cy="202" r="3" fill="#3B82F6"/>
      <text x="570" y="206" fill="#3B82F6" font-size="10" font-weight="600">Active</text>

      <!-- Row 5: Mother's Day (selected) -->
      <rect x="0" y="228" width="632" height="48" fill="#F59E0B" fill-opacity="0.06" stroke="#F59E0B" stroke-width="1" stroke-opacity="0.3"/>
      <rect x="10" y="241" width="18" height="14" rx="2" fill="#8B5CF6" fill-opacity="0.3"/>
      <text x="19" y="252" fill="#8B5CF6" font-size="8" text-anchor="middle">✉</text>
      <text x="34" y="250" fill="#F1F5F9" font-size="13" font-weight="500">Mother's Day</text>
      <text x="34" y="265" fill="#64748B" font-size="10">Draft · Editing now</text>
      <rect x="204" y="240" width="46" height="18" rx="9" fill="#8B5CF6" fill-opacity="0.2"/>
      <text x="227" y="253" fill="#8B5CF6" font-size="10" font-weight="600" text-anchor="middle">Email</text>
      <text x="272" y="250" fill="#94A3B8" font-size="12">All loyalty</text>
      <text x="380" y="250" fill="#64748B" font-size="12">Draft</text>
      <text x="424" y="250" fill="#64748B" font-size="12">—</text>
      <text x="482" y="250" fill="#64748B" font-size="12">—</text>
      <rect x="554" y="240" width="46" height="20" rx="10" fill="#64748B" fill-opacity="0.2"/>
      <text x="577" y="254" fill="#94A3B8" font-size="10" font-weight="600" text-anchor="middle">Draft</text>
    </g>

    <!-- ─── Automation Templates Row ─── -->
    <g transform="translate(0, 450)">
      <text x="0" y="16" fill="#F1F5F9" font-size="15" font-weight="700">Automation Templates</text>
      <text x="0" y="33" fill="#64748B" font-size="12">Set-and-forget campaigns triggered by customer behavior.</text>

      <!-- Card 1: Birthday Reward -->
      <rect x="0" y="46" width="200" height="90" rx="10" fill="#1A1D2E" stroke="#2D3148" stroke-width="1"/>
      <rect x="0" y="46" width="200" height="4" rx="2" fill="#F59E0B"/>
      <text x="12" y="70" fill="#F1F5F9" font-size="13" font-weight="600">Birthday Reward</text>
      <text x="12" y="87" fill="#64748B" font-size="11">Sends 3 days before birthday</text>
      <text x="12" y="102" fill="#64748B" font-size="11">with a special offer</text>
      <rect x="12" y="114" width="50" height="18" rx="9" fill="#F59E0B" fill-opacity="0.2"/>
      <circle cx="20" cy="123" r="3" fill="#F59E0B"/>
      <text x="28" y="127" fill="#F59E0B" font-size="10" font-weight="600">Active</text>

      <!-- Card 2: Win-Back -->
      <rect x="212" y="46" width="200" height="90" rx="10" fill="#1A1D2E" stroke="#2D3148" stroke-width="1"/>
      <rect x="212" y="46" width="200" height="4" rx="2" fill="#10B981"/>
      <text x="224" y="70" fill="#F1F5F9" font-size="13" font-weight="600">Win-Back (30 days)</text>
      <text x="224" y="87" fill="#64748B" font-size="11">Triggers if no visit in 30 days</text>
      <text x="224" y="102" fill="#64748B" font-size="11">with a comeback incentive</text>
      <rect x="224" y="114" width="50" height="18" rx="9" fill="#10B981" fill-opacity="0.15"/>
      <circle cx="232" cy="123" r="3" fill="#10B981"/>
      <text x="240" y="127" fill="#10B981" font-size="10" font-weight="600">Active</text>

      <!-- Card 3: Post-Visit Thank You -->
      <rect x="424" y="46" width="208" height="90" rx="10" fill="#1A1D2E" stroke="#2D3148" stroke-width="1"/>
      <rect x="424" y="46" width="208" height="4" rx="2" fill="#2D3148"/>
      <text x="436" y="70" fill="#F1F5F9" font-size="13" font-weight="600">Post-Visit Thank You</text>
      <text x="436" y="87" fill="#64748B" font-size="11">Sends 2 hours after payment</text>
      <text x="436" y="102" fill="#64748B" font-size="11">with a review request</text>
      <rect x="436" y="114" width="60" height="18" rx="9" fill="#2D3148"/>
      <circle cx="444" cy="123" r="3" fill="#64748B"/>
      <text x="452" y="127" fill="#64748B" font-size="10" font-weight="600">Inactive</text>
      <!-- Enable button -->
      <rect x="562" y="114" width="54" height="18" rx="9" fill="#2D3148" stroke="#2D3148" stroke-width="1"/>
      <text x="589" y="127" fill="#94A3B8" font-size="10" font-weight="600" text-anchor="middle">Enable</text>
    </g>

  </g>

  <!-- ═══════════════════════════════════════════════════ -->
  <!-- DIVIDER -->
  <!-- ═══════════════════════════════════════════════════ -->
  <line x1="882" y1="72" x2="882" y2="980" stroke="#2D3148" stroke-width="1"/>

  <!-- ═══════════════════════════════════════════════════ -->
  <!-- RIGHT PANEL: CAMPAIGN EDITOR -->
  <!-- ═══════════════════════════════════════════════════ -->
  <g transform="translate(894, 72)">

    <!-- Panel header -->
    <text x="0" y="22" fill="#F1F5F9" font-size="16" font-weight="700">Campaign Editor</text>
    <rect x="0" y="32" width="100" height="1" fill="#F59E0B" fill-opacity="0.4"/>

    <!-- Campaign Name -->
    <text x="0" y="60" fill="#64748B" font-size="11" font-weight="600" letter-spacing="0.5">CAMPAIGN NAME</text>
    <rect x="0" y="68" width="452" height="38" rx="8" fill="#0F1117" stroke="#F59E0B" stroke-width="1.5"/>
    <text x="14" y="92" fill="#F1F5F9" font-size="14" font-weight="500">Mother's Day Brunch Special</text>

    <!-- Type tabs -->
    <text x="0" y="130" fill="#64748B" font-size="11" font-weight="600" letter-spacing="0.5">TYPE</text>
    <rect x="0" y="138" width="452" height="38" rx="8" fill="#0F1117" stroke="#2D3148" stroke-width="1"/>
    <!-- Email tab (selected) -->
    <rect x="4" y="142" width="100" height="30" rx="6" fill="#F59E0B"/>
    <text x="54" y="161" fill="#0F1117" font-size="12" font-weight="700" text-anchor="middle">✉ Email</text>
    <!-- SMS tab -->
    <text x="156" y="161" fill="#94A3B8" font-size="12" text-anchor="middle">💬 SMS</text>
    <!-- Both tab -->
    <text x="256" y="161" fill="#94A3B8" font-size="12" text-anchor="middle">⚡ Both</text>

    <!-- Segment -->
    <text x="0" y="200" fill="#64748B" font-size="11" font-weight="600" letter-spacing="0.5">SEGMENT</text>

    <!-- Segment options -->
    <!-- All loyalty (selected) -->
    <rect x="0" y="208" width="452" height="40" rx="8" fill="#F59E0B" fill-opacity="0.1" stroke="#F59E0B" stroke-width="1.5"/>
    <circle cx="18" cy="228" r="7" fill="none" stroke="#F59E0B" stroke-width="2"/>
    <circle cx="18" cy="228" r="3.5" fill="#F59E0B"/>
    <text x="34" y="232" fill="#F1F5F9" font-size="13" font-weight="500">All loyalty customers</text>
    <rect x="308" y="218" width="130" height="20" rx="10" fill="#F59E0B" fill-opacity="0.15"/>
    <text x="373" y="232" fill="#F59E0B" font-size="11" font-weight="600" text-anchor="middle">1,240 recipients</text>

    <!-- Other segment options -->
    <g transform="translate(0, 256)">
      <text x="0" y="14" fill="#64748B" font-size="11">Other segments:</text>

      <!-- Gold tier -->
      <rect x="0" y="22" width="130" height="26" rx="6" fill="#2D3148" fill-opacity="0.6"/>
      <circle cx="14" cy="35" r="5" fill="none" stroke="#64748B" stroke-width="1.5"/>
      <text x="26" y="39" fill="#94A3B8" font-size="11">Gold tier</text>
      <text x="100" y="39" fill="#64748B" font-size="10">210</text>

      <!-- Silver -->
      <rect x="138" y="22" width="120" height="26" rx="6" fill="#2D3148" fill-opacity="0.6"/>
      <circle cx="152" cy="35" r="5" fill="none" stroke="#64748B" stroke-width="1.5"/>
      <text x="164" y="39" fill="#94A3B8" font-size="11">Silver</text>
      <text x="228" y="39" fill="#64748B" font-size="10">480</text>

      <!-- Lapsed 30d -->
      <rect x="0" y="54" width="140" height="26" rx="6" fill="#2D3148" fill-opacity="0.6"/>
      <circle cx="14" cy="67" r="5" fill="none" stroke="#64748B" stroke-width="1.5"/>
      <text x="26" y="71" fill="#94A3B8" font-size="11">Lapsed 30d</text>
      <text x="108" y="71" fill="#64748B" font-size="10">387</text>

      <!-- Lapsed 60d -->
      <rect x="148" y="54" width="140" height="26" rx="6" fill="#2D3148" fill-opacity="0.6"/>
      <circle cx="162" cy="67" r="5" fill="none" stroke="#64748B" stroke-width="1.5"/>
      <text x="174" y="71" fill="#94A3B8" font-size="11">Lapsed 60d</text>
      <text x="256" y="71" fill="#64748B" font-size="10">198</text>

      <!-- Birthdays this month -->
      <rect x="0" y="86" width="220" height="26" rx="6" fill="#2D3148" fill-opacity="0.6"/>
      <circle cx="14" cy="99" r="5" fill="none" stroke="#64748B" stroke-width="1.5"/>
      <text x="26" y="103" fill="#94A3B8" font-size="11">Birthdays (this month)</text>
      <text x="192" y="103" fill="#64748B" font-size="10">43</text>
    </g>

    <!-- Subject line -->
    <text x="0" y="436" fill="#64748B" font-size="11" font-weight="600" letter-spacing="0.5">SUBJECT LINE</text>
    <rect x="0" y="444" width="452" height="38" rx="8" fill="#0F1117" stroke="#2D3148" stroke-width="1"/>
    <text x="14" y="468" fill="#F1F5F9" font-size="13">Treat Mom to something special 🌸</text>
    <text x="432" y="468" fill="#64748B" font-size="11">38</text>

    <!-- Message preview -->
    <text x="0" y="504" fill="#64748B" font-size="11" font-weight="600" letter-spacing="0.5">MESSAGE PREVIEW</text>

    <!-- Email preview card -->
    <rect x="0" y="512" width="452" height="178" rx="8" fill="#F8F9FA" stroke="#2D3148" stroke-width="1"/>
    <!-- Email header bar -->
    <rect x="0" y="512" width="452" height="32" rx="8" fill="#E2E8F0"/>
    <rect x="0" y="528" width="452" height="16" fill="#E2E8F0"/>
    <circle cx="16" cy="528" r="5" fill="#EF4444"/>
    <circle cx="30" cy="528" r="5" fill="#F59E0B"/>
    <circle cx="44" cy="528" r="5" fill="#10B981"/>
    <!-- Brand header in email -->
    <rect x="0" y="544" width="452" height="28" fill="#F59E0B" fill-opacity="0.9"/>
    <text x="226" y="562" fill="#0F1117" font-size="12" font-weight="700" text-anchor="middle">Synalux POS · Loyalty Rewards</text>
    <!-- Email body -->
    <text x="20" y="592" fill="#1E293B" font-size="12" font-weight="500">Hi {{first_name}},</text>
    <text x="20" y="610" fill="#334155" font-size="11">Join us this Mother's Day weekend for our special</text>
    <text x="20" y="625" fill="#334155" font-size="11">brunch menu. Show this email for 10% off your bill.</text>
    <text x="20" y="640" fill="#334155" font-size="11">Valid May 10–12.</text>
    <!-- CTA button in email -->
    <rect x="152" y="652" width="148" height="30" rx="6" fill="#F59E0B"/>
    <text x="226" y="672" fill="#0F1117" font-size="12" font-weight="700" text-anchor="middle">Reserve a Table</text>
    <!-- Footer -->
    <text x="226" y="698" fill="#94A3B8" font-size="9" text-anchor="middle">Unsubscribe · Manage preferences</text>

    <!-- Send time -->
    <text x="0" y="710" fill="#64748B" font-size="11" font-weight="600" letter-spacing="0.5">SEND TIME</text>
    <rect x="0" y="718" width="452" height="38" rx="8" fill="#0F1117" stroke="#2D3148" stroke-width="1"/>
    <text x="14" y="742" fill="#94A3B8" font-size="12">📅</text>
    <text x="34" y="742" fill="#F1F5F9" font-size="13">Sunday, May 10, 2026</text>
    <text x="290" y="742" fill="#64748B" font-size="12">|</text>
    <text x="300" y="742" fill="#F1F5F9" font-size="13">9:00 AM</text>
    <text x="430" y="742" fill="#64748B" font-size="11">▾</text>

    <!-- TCPA note -->
    <rect x="0" y="764" width="452" height="32" rx="6" fill="#10B981" fill-opacity="0.08" stroke="#10B981" stroke-opacity="0.3" stroke-width="1"/>
    <text x="12" y="778" fill="#10B981" font-size="11">🔒</text>
    <text x="28" y="778" fill="#10B981" font-size="11" font-weight="500">Only sends to customers who opted in to marketing</text>
    <text x="28" y="791" fill="#64748B" font-size="10">TCPA compliant · Double opt-in verified</text>

    <!-- Action buttons -->
    <g transform="translate(0, 808)">
      <!-- Preview button -->
      <rect x="0" y="0" width="120" height="38" rx="8" fill="none" stroke="#2D3148" stroke-width="1.5"/>
      <text x="60" y="23" fill="#94A3B8" font-size="13" font-weight="500" text-anchor="middle">👁 Preview</text>

      <!-- Schedule Send -->
      <rect x="132" y="0" width="186" height="38" rx="8" fill="#F59E0B"/>
      <text x="225" y="23" fill="#0F1117" font-size="13" font-weight="700" text-anchor="middle">📅 Schedule Send</text>

      <!-- Send test link -->
      <text x="334" y="23" fill="#F59E0B" font-size="12" text-decoration="underline">Send test to me</text>
    </g>

  </g>

  <!-- ═══════════════════════════════════════════════════ -->
  <!-- Bottom status bar -->
  <!-- ═══════════════════════════════════════════════════ -->
  <rect x="0" y="1008" width="1366" height="16" fill="#1A1D2E"/>
  <circle cx="224" cy="1016" r="3" fill="#10B981"/>
  <text x="234" y="1020" fill="#64748B" font-size="10">All changes saved</text>
  <text x="600" y="1020" fill="#64748B" font-size="10" text-anchor="middle">Synalux POS v3.2.1</text>
  <text x="1340" y="1020" fill="#64748B" font-size="10" text-anchor="end">Wed, May 27 2026  ·  11:42 AM</text>

</svg>
