<svg xmlns="http://www.w3.org/2000/svg" viewBox="0 0 1366 1024" font-family="system-ui,-apple-system,sans-serif">

  <!-- ===== BACKGROUND ===== -->
  <rect width="1366" height="1024" fill="#0F1117"/>

  <!-- ===== TOP NAV BAR ===== -->
  <rect x="0" y="0" width="1366" height="54" fill="#1A1D2E"/>
  <rect x="0" y="54" width="1366" height="1" fill="#2D3148"/>
  <text x="24" y="34" fill="#F59E0B" font-size="16" font-weight="700">Synalux POS</text>
  <text x="200" y="34" fill="#E2E8F0" font-size="16" font-weight="700">&#9881; Back Office — Alcohol &amp; Server Compliance</text>
  <text x="1342" y="34" fill="#94A3B8" font-size="13" text-anchor="end">Admin · Sarah M.</text>

  <!-- ===== LEFT SIDEBAR (210px) ===== -->
  <rect x="0" y="55" width="210" height="969" fill="#13162A"/>
  <rect x="210" y="55" width="1" height="969" fill="#2D3148"/>

  <!-- Sidebar heading -->
  <text x="105" y="84" fill="#64748B" font-size="10" font-weight="700" letter-spacing="1" text-anchor="middle">BACK OFFICE</text>

  <!-- Nav items -->
  <rect x="8" y="92" width="194" height="34" rx="6" fill="#1E2235"/>
  <text x="30" y="114" fill="#94A3B8" font-size="12">&#127978; Restaurant Info</text>

  <rect x="8" y="132" width="194" height="34" rx="6" fill="#1E2235"/>
  <text x="30" y="154" fill="#94A3B8" font-size="12">&#127828; Menu Builder</text>

  <rect x="8" y="172" width="194" height="34" rx="6" fill="#1E2235"/>
  <text x="30" y="194" fill="#94A3B8" font-size="12">&#128176; Taxes</text>

  <rect x="8" y="212" width="194" height="34" rx="6" fill="#1E2235"/>
  <text x="30" y="234" fill="#94A3B8" font-size="12">&#128101; Employees</text>

  <rect x="8" y="252" width="194" height="34" rx="6" fill="#1E2235"/>
  <text x="30" y="274" fill="#94A3B8" font-size="12">&#128424; Equipment</text>

  <rect x="8" y="292" width="194" height="34" rx="6" fill="#1E2235"/>
  <text x="30" y="314" fill="#94A3B8" font-size="12">&#128208; Reports</text>

  <rect x="8" y="332" width="194" height="34" rx="6" fill="#1E2235"/>
  <text x="30" y="354" fill="#94A3B8" font-size="12">&#127873; Loyalty</text>

  <rect x="8" y="372" width="194" height="34" rx="6" fill="#1E2235"/>
  <text x="30" y="394" fill="#94A3B8" font-size="12">&#128279; Integrations</text>

  <!-- Compliance sub-section label -->
  <text x="16" y="426" fill="#64748B" font-size="10" font-weight="700" letter-spacing="1">COMPLIANCE</text>

  <rect x="8" y="432" width="194" height="34" rx="6" fill="#1E2235"/>
  <text x="30" y="454" fill="#94A3B8" font-size="12">Tax Exempt</text>

  <rect x="8" y="472" width="194" height="34" rx="6" fill="#1E2235"/>
  <text x="30" y="494" fill="#94A3B8" font-size="12">Auto-Gratuity</text>

  <!-- ACTIVE: Alcohol Compliance -->
  <rect x="8" y="512" width="194" height="36" rx="6" fill="#2D1F00"/>
  <rect x="8" y="512" width="3" height="36" rx="2" fill="#F59E0B"/>
  <text x="30" y="535" fill="#F59E0B" font-size="12" font-weight="700">&#127863; Alcohol Compliance</text>

  <rect x="8" y="554" width="194" height="34" rx="6" fill="#1E2235"/>
  <text x="30" y="576" fill="#94A3B8" font-size="12">Break Tracking</text>

  <rect x="8" y="594" width="194" height="34" rx="6" fill="#1E2235"/>
  <text x="30" y="616" fill="#94A3B8" font-size="12">Cash Management</text>

  <!-- DB schema hint at bottom of sidebar -->
  <text x="16" y="820" fill="#64748B" font-size="9" font-weight="700" letter-spacing="1">DB TABLES</text>
  <text x="16" y="836" fill="#64748B" font-size="9">pos_staff_certifications</text>
  <text x="16" y="850" fill="#64748B" font-size="9">pos_config.alcohol_cutoff_time</text>
  <text x="16" y="864" fill="#64748B" font-size="9">pos_config.alcohol_jurisdiction</text>
  <text x="16" y="878" fill="#64748B" font-size="9">pos_audit_log (7-year retention)</text>

  <!-- ===== PAGE HEADER ===== -->
  <rect x="211" y="55" width="1155" height="66" fill="#1A1D2E"/>
  <rect x="211" y="121" width="1155" height="1" fill="#2D3148"/>
  <text x="230" y="88" fill="#F1F5F9" font-size="20" font-weight="700">Alcohol &amp; Server Compliance</text>
  <text x="230" y="108" fill="#64748B" font-size="12">RBS certification tracking · Sale cutoff enforcement · TIPS certification · Dram shop liability logging</text>
  <!-- Save button -->
  <rect x="1220" y="68" width="130" height="34" rx="7" fill="#F59E0B"/>
  <text x="1285" y="90" fill="#0F1117" font-size="13" font-weight="700" text-anchor="middle">Save Settings</text>


  <!-- ================================================================ -->
  <!-- TOP SECTION — Alcohol Sale Cutoff                                -->
  <!-- ================================================================ -->

  <!-- Card -->
  <rect x="218" y="132" width="1130" height="204" rx="9" fill="#1A1D2E" stroke="#2D3148" stroke-width="1"/>

  <!-- Card header row -->
  <rect x="218" y="132" width="1130" height="44" rx="9" fill="#1E2240"/>
  <rect x="218" y="158" width="1130" height="18" fill="#1E2240"/>
  <text x="238" y="159" fill="#F1F5F9" font-size="14" font-weight="700">&#128337; Sale Cutoff Times by Jurisdiction</text>
  <text x="238" y="173" fill="#64748B" font-size="11">Enforced at POS register — register refuses alcohol ring-ups after jurisdiction cutoff</text>

  <!-- CA highlight row -->
  <rect x="230" y="183" width="1106" height="48" rx="7" fill="#0F1117" stroke="#F59E0B" stroke-width="1.2"/>
  <text x="246" y="200" fill="#F59E0B" font-size="11" font-weight="700">AUTO-DETECTED VENUE STATE</text>
  <text x="246" y="218" fill="#F1F5F9" font-size="13" font-weight="700">California (CA)</text>
  <text x="390" y="218" fill="#94A3B8" font-size="12">Hard cutoff:</text>
  <text x="468" y="218" fill="#F59E0B" font-size="14" font-weight="700">2:00 AM</text>

  <!-- Hard block toggle -->
  <text x="620" y="200" fill="#94A3B8" font-size="11">Hard block</text>
  <!-- Toggle ON green -->
  <rect x="676" y="188" width="46" height="22" rx="11" fill="#10B981"/>
  <circle cx="711" cy="199" r="9" fill="#FFFFFF"/>
  <text x="728" y="203" fill="#10B981" font-size="11" font-weight="600">ON</text>

  <text x="760" y="207" fill="#94A3B8" font-size="10">Register will refuse alcohol ring-ups after cutoff</text>

  <!-- Override PIN toggle -->
  <text x="620" y="225" fill="#94A3B8" font-size="11">Override: manager PIN required (logged to audit trail)</text>
  <!-- Toggle ON green -->
  <rect x="924" y="213" width="46" height="22" rx="11" fill="#10B981"/>
  <circle cx="959" cy="224" r="9" fill="#FFFFFF"/>
  <text x="976" y="228" fill="#10B981" font-size="11" font-weight="600">ON</text>

  <!-- Other states table header -->
  <text x="246" y="250" fill="#64748B" font-size="11" font-weight="700" letter-spacing="0.5">OTHER STATES</text>

  <!-- State mini-pills row -->
  <!-- NY -->
  <rect x="310" y="238" width="108" height="24" rx="5" fill="#13162A" stroke="#2D3148" stroke-width="1"/>
  <text x="364" y="254" fill="#94A3B8" font-size="11" text-anchor="middle">NY — 4:00 AM</text>

  <!-- TX -->
  <rect x="426" y="238" width="108" height="24" rx="5" fill="#13162A" stroke="#2D3148" stroke-width="1"/>
  <text x="480" y="254" fill="#94A3B8" font-size="11" text-anchor="middle">TX — 2:00 AM</text>

  <!-- IL -->
  <rect x="542" y="238" width="108" height="24" rx="5" fill="#13162A" stroke="#2D3148" stroke-width="1"/>
  <text x="596" y="254" fill="#94A3B8" font-size="11" text-anchor="middle">IL — 2:00 AM</text>

  <!-- FL -->
  <rect x="658" y="238" width="108" height="24" rx="5" fill="#13162A" stroke="#2D3148" stroke-width="1"/>
  <text x="712" y="254" fill="#94A3B8" font-size="11" text-anchor="middle">FL — 7:00 AM</text>

  <!-- NV -->
  <rect x="774" y="238" width="120" height="24" rx="5" fill="#13162A" stroke="#8B5CF6" stroke-width="1"/>
  <text x="834" y="254" fill="#8B5CF6" font-size="11" text-anchor="middle">NV — No cutoff</text>

  <!-- Dram shop warning banner -->
  <rect x="218" y="340" width="1130" height="36" rx="7" fill="#1C1400" stroke="#F97316" stroke-width="1.2"/>
  <text x="238" y="353" fill="#F97316" font-size="12" font-weight="700">&#9888;</text>
  <text x="255" y="353" fill="#F97316" font-size="11" font-weight="700">Dram shop liability:</text>
  <text x="370" y="353" fill="#FDE68A" font-size="11">CA requires 7-year transaction retention (Business &amp; Professions Code §25602)</text>
  <text x="238" y="367" fill="#94A3B8" font-size="10">All alcohol ring-ups, refusals, and ID verifications are logged to pos_audit_log. Deletion is blocked by system policy.</text>


  <!-- ================================================================ -->
  <!-- MIDDLE SECTION — RBS/TIPS Certification Tracker                  -->
  <!-- ================================================================ -->

  <!-- Card -->
  <rect x="218" y="384" width="1130" height="414" rx="9" fill="#1A1D2E" stroke="#2D3148" stroke-width="1"/>

  <!-- Card header -->
  <rect x="218" y="384" width="1130" height="44" rx="9" fill="#1E2240"/>
  <rect x="218" y="410" width="1130" height="18" fill="#1E2240"/>
  <text x="238" y="411" fill="#F1F5F9" font-size="14" font-weight="700">&#127894; RBS / TIPS Certification — CA AB 1221 (required Sept 2022)</text>
  <text x="238" y="425" fill="#64748B" font-size="11">All servers, bartenders, and managers must hold valid RBS or TIPS certification to ring up alcohol sales in California.</text>

  <!-- Table header row -->
  <rect x="218" y="430" width="1130" height="30" fill="#13162A"/>
  <text x="238" y="450" fill="#64748B" font-size="11" font-weight="700">STAFF NAME</text>
  <text x="368" y="450" fill="#64748B" font-size="11" font-weight="700">ROLE</text>
  <text x="458" y="450" fill="#64748B" font-size="11" font-weight="700">CERTIFICATION</text>
  <text x="608" y="450" fill="#64748B" font-size="11" font-weight="700">PROVIDER</text>
  <text x="728" y="450" fill="#64748B" font-size="11" font-weight="700">ISSUED</text>
  <text x="808" y="450" fill="#64748B" font-size="11" font-weight="700">EXPIRES</text>
  <text x="898" y="450" fill="#64748B" font-size="11" font-weight="700">STATUS</text>
  <text x="1060" y="450" fill="#64748B" font-size="11" font-weight="700">ACTIONS</text>

  <!-- Divider under header -->
  <rect x="218" y="460" width="1130" height="1" fill="#2D3148"/>

  <!-- ROW 1 — Sarah M. — Current -->
  <rect x="218" y="461" width="1130" height="38" fill="#1A1D2E"/>
  <text x="238" y="484" fill="#F1F5F9" font-size="12" font-weight="600">Sarah M.</text>
  <text x="368" y="484" fill="#94A3B8" font-size="12">Server</text>
  <text x="458" y="484" fill="#94A3B8" font-size="12">RBS Certified</text>
  <text x="608" y="484" fill="#94A3B8" font-size="12">ABC.ca.gov</text>
  <text x="728" y="484" fill="#94A3B8" font-size="12">Jan 2024</text>
  <text x="808" y="484" fill="#94A3B8" font-size="12">Jan 2026</text>
  <rect x="892" y="470" width="102" height="22" rx="5" fill="#052E16"/>
  <text x="943" y="485" fill="#10B981" font-size="11" font-weight="600" text-anchor="middle">&#10003; Current</text>
  <text x="1060" y="484" fill="#F59E0B" font-size="11" text-decoration="underline">Update cert</text>
  <text x="1140" y="484" fill="#64748B" font-size="11" text-decoration="underline">Send reminder</text>
  <rect x="218" y="499" width="1130" height="1" fill="#2D3148"/>

  <!-- ROW 2 — John D. — Expiring soon amber -->
  <rect x="218" y="500" width="1130" height="38" fill="#1A1D2E"/>
  <text x="238" y="523" fill="#F1F5F9" font-size="12" font-weight="600">John D.</text>
  <text x="368" y="523" fill="#94A3B8" font-size="12">Server</text>
  <text x="458" y="523" fill="#94A3B8" font-size="12">RBS Certified</text>
  <text x="608" y="523" fill="#94A3B8" font-size="12">ABC.ca.gov</text>
  <text x="728" y="523" fill="#94A3B8" font-size="12">Mar 2023</text>
  <text x="808" y="523" fill="#F59E0B" font-size="12" font-weight="600">Mar 2025</text>
  <rect x="892" y="509" width="152" height="22" rx="5" fill="#2D1F00"/>
  <text x="968" y="524" fill="#F59E0B" font-size="11" font-weight="600" text-anchor="middle">&#9888; Expires in 42 days</text>
  <text x="1060" y="523" fill="#F59E0B" font-size="11" text-decoration="underline">Update cert</text>
  <text x="1140" y="523" fill="#64748B" font-size="11" text-decoration="underline">Send reminder</text>
  <rect x="218" y="538" width="1130" height="1" fill="#2D3148"/>

  <!-- ROW 3 — Mike T. — Current -->
  <rect x="218" y="539" width="1130" height="38" fill="#13162A"/>
  <text x="238" y="562" fill="#F1F5F9" font-size="12" font-weight="600">Mike T.</text>
  <text x="368" y="562" fill="#94A3B8" font-size="12">Bartender</text>
  <text x="458" y="562" fill="#94A3B8" font-size="12">RBS Certified</text>
  <text x="608" y="562" fill="#94A3B8" font-size="12">ABC.ca.gov</text>
  <text x="728" y="562" fill="#94A3B8" font-size="12">Jun 2024</text>
  <text x="808" y="562" fill="#94A3B8" font-size="12">Jun 2026</text>
  <rect x="892" y="548" width="102" height="22" rx="5" fill="#052E16"/>
  <text x="943" y="563" fill="#10B981" font-size="11" font-weight="600" text-anchor="middle">&#10003; Current</text>
  <text x="1060" y="562" fill="#F59E0B" font-size="11" text-decoration="underline">Update cert</text>
  <text x="1140" y="562" fill="#64748B" font-size="11" text-decoration="underline">Send reminder</text>
  <rect x="218" y="577" width="1130" height="1" fill="#2D3148"/>

  <!-- ROW 4 — Ana L. — TIPS expiring -->
  <rect x="218" y="578" width="1130" height="38" fill="#1A1D2E"/>
  <text x="238" y="601" fill="#F1F5F9" font-size="12" font-weight="600">Ana L.</text>
  <text x="368" y="601" fill="#94A3B8" font-size="12">Cashier</text>
  <text x="458" y="601" fill="#94A3B8" font-size="12">TIPS Certified</text>
  <text x="608" y="601" fill="#94A3B8" font-size="12">TIPS Program</text>
  <text x="728" y="601" fill="#94A3B8" font-size="12">Aug 2023</text>
  <text x="808" y="601" fill="#F59E0B" font-size="12" font-weight="600">Aug 2025</text>
  <rect x="892" y="587" width="154" height="22" rx="5" fill="#2D1F00"/>
  <text x="969" y="602" fill="#F59E0B" font-size="11" font-weight="600" text-anchor="middle">&#9888; Expires in 89 days</text>
  <text x="1060" y="601" fill="#F59E0B" font-size="11" text-decoration="underline">Update cert</text>
  <text x="1140" y="601" fill="#64748B" font-size="11" text-decoration="underline">Send reminder</text>
  <rect x="218" y="616" width="1130" height="1" fill="#2D3148"/>

  <!-- ROW 5 — Carlos R. — Not required -->
  <rect x="218" y="617" width="1130" height="38" fill="#13162A"/>
  <text x="238" y="640" fill="#F1F5F9" font-size="12" font-weight="600">Carlos R.</text>
  <text x="368" y="640" fill="#94A3B8" font-size="12">Cook</text>
  <text x="458" y="640" fill="#64748B" font-size="12">N/A</text>
  <text x="608" y="640" fill="#64748B" font-size="12">—</text>
  <text x="728" y="640" fill="#64748B" font-size="12">—</text>
  <text x="808" y="640" fill="#64748B" font-size="12">—</text>
  <rect x="892" y="626" width="118" height="22" rx="5" fill="#1E2240"/>
  <text x="951" y="641" fill="#64748B" font-size="11" font-weight="600" text-anchor="middle">&#11036; Not required</text>
  <text x="1060" y="640" fill="#64748B" font-size="11" opacity="0.4">Update cert</text>
  <text x="1140" y="640" fill="#64748B" font-size="11" opacity="0.4">Send reminder</text>
  <rect x="218" y="655" width="1130" height="1" fill="#2D3148"/>

  <!-- ROW 6 — Tom W. — Current -->
  <rect x="218" y="656" width="1130" height="38" fill="#1A1D2E"/>
  <text x="238" y="679" fill="#F1F5F9" font-size="12" font-weight="600">Tom W.</text>
  <text x="368" y="679" fill="#94A3B8" font-size="12">Server</text>
  <text x="458" y="679" fill="#94A3B8" font-size="12">RBS Certified</text>
  <text x="608" y="679" fill="#94A3B8" font-size="12">ABC.ca.gov</text>
  <text x="728" y="679" fill="#94A3B8" font-size="12">Feb 2024</text>
  <text x="808" y="679" fill="#94A3B8" font-size="12">Feb 2026</text>
  <rect x="892" y="665" width="102" height="22" rx="5" fill="#052E16"/>
  <text x="943" y="680" fill="#10B981" font-size="11" font-weight="600" text-anchor="middle">&#10003; Current</text>
  <text x="1060" y="679" fill="#F59E0B" font-size="11" text-decoration="underline">Update cert</text>
  <text x="1140" y="679" fill="#64748B" font-size="11" text-decoration="underline">Send reminder</text>
  <rect x="218" y="694" width="1130" height="1" fill="#2D3148"/>

  <!-- ROW 7 — Lisa K. — Required / BLOCKED red -->
  <rect x="218" y="695" width="1130" height="40" fill="#1F0808"/>
  <text x="238" y="719" fill="#F1F5F9" font-size="12" font-weight="600">Lisa K.</text>
  <text x="368" y="719" fill="#94A3B8" font-size="12">Host</text>
  <text x="458" y="719" fill="#EF4444" font-size="12" font-weight="600">Not certified</text>
  <text x="608" y="719" fill="#64748B" font-size="12">—</text>
  <text x="728" y="719" fill="#64748B" font-size="12">—</text>
  <text x="808" y="719" fill="#64748B" font-size="12">—</text>
  <rect x="892" y="705" width="116" height="22" rx="5" fill="#2D0808"/>
  <text x="950" y="720" fill="#EF4444" font-size="11" font-weight="700" text-anchor="middle">&#128308; Required</text>
  <text x="1012" y="719" fill="#EF4444" font-size="10">Block alcohol service</text>
  <text x="1060" y="719" fill="#F59E0B" font-size="11" text-decoration="underline">Update cert</text>
  <text x="1140" y="719" fill="#64748B" font-size="11" text-decoration="underline">Send reminder</text>
  <rect x="218" y="735" width="1130" height="1" fill="#2D3148"/>

  <!-- ROW 8 — Dan O. — Expiring 155 days -->
  <rect x="218" y="736" width="1130" height="38" fill="#13162A"/>
  <text x="238" y="759" fill="#F1F5F9" font-size="12" font-weight="600">Dan O.</text>
  <text x="368" y="759" fill="#94A3B8" font-size="12">Manager</text>
  <text x="458" y="759" fill="#94A3B8" font-size="12">RBS Certified</text>
  <text x="608" y="759" fill="#94A3B8" font-size="12">ABC.ca.gov</text>
  <text x="728" y="759" fill="#94A3B8" font-size="12">Nov 2023</text>
  <text x="808" y="759" fill="#F59E0B" font-size="12">Nov 2025</text>
  <rect x="892" y="745" width="158" height="22" rx="5" fill="#2D1F00"/>
  <text x="971" y="760" fill="#F59E0B" font-size="11" font-weight="600" text-anchor="middle">&#9888; Expires in 155 days</text>
  <text x="1060" y="759" fill="#F59E0B" font-size="11" text-decoration="underline">Update cert</text>
  <text x="1140" y="759" fill="#64748B" font-size="11" text-decoration="underline">Send reminder</text>
  <rect x="218" y="774" width="1130" height="1" fill="#2D3148"/>

  <!-- Table action row -->
  <rect x="218" y="775" width="1130" height="22" fill="#1A1D2E"/>

  <!-- + Add Certification button -->
  <rect x="238" y="779" width="152" height="24" rx="5" fill="#1E2240" stroke="#2D3148" stroke-width="1"/>
  <text x="314" y="796" fill="#94A3B8" font-size="11" font-weight="600" text-anchor="middle">+ Add Certification</text>

  <!-- Export for ABC audit amber button -->
  <rect x="1068" y="779" width="162" height="24" rx="5" fill="#F59E0B"/>
  <text x="1149" y="796" fill="#0F1117" font-size="11" font-weight="700" text-anchor="middle">&#128196; Export for ABC Audit</text>

  <!-- Card bottom cap -->
  <rect x="218" y="797" width="1130" height="1" fill="#2D3148"/>


  <!-- ================================================================ -->
  <!-- BOTTOM SECTION — ID Verification Audit Log                       -->
  <!-- ================================================================ -->

  <!-- Card -->
  <rect x="218" y="804" width="1130" height="208" rx="9" fill="#1A1D2E" stroke="#2D3148" stroke-width="1"/>

  <!-- Card header -->
  <rect x="218" y="804" width="1130" height="40" rx="9" fill="#1E2240"/>
  <rect x="218" y="826" width="1130" height="18" fill="#1E2240"/>
  <text x="238" y="826" fill="#F1F5F9" font-size="13" font-weight="700">&#128196; ID Verification Audit Log — Last 10 Age Verifications</text>
  <text x="238" y="840" fill="#64748B" font-size="11">Immutable 7-year retention for dram shop defense · Business &amp; Professions Code §25602</text>

  <!-- Log table header -->
  <rect x="218" y="844" width="1130" height="24" fill="#13162A"/>
  <text x="238" y="860" fill="#64748B" font-size="10" font-weight="700">TIMESTAMP</text>
  <text x="368" y="860" fill="#64748B" font-size="10" font-weight="700">ORDER #</text>
  <text x="458" y="860" fill="#64748B" font-size="10" font-weight="700">STAFF</text>
  <text x="548" y="860" fill="#64748B" font-size="10" font-weight="700">METHOD</text>
  <text x="668" y="860" fill="#64748B" font-size="10" font-weight="700">RESULT</text>
  <text x="768" y="860" fill="#64748B" font-size="10" font-weight="700">ITEM</text>

  <!-- Log rows (compact, 13px height each) -->
  <!-- Row 1 -->
  <rect x="218" y="868" width="1130" height="16" fill="#1A1D2E"/>
  <text x="238" y="880" fill="#64748B" font-size="10">05/27 11:42 PM</text>
  <text x="368" y="880" fill="#64748B" font-size="10">#4418</text>
  <text x="458" y="880" fill="#94A3B8" font-size="10">Tom W.</text>
  <text x="548" y="880" fill="#8B5CF6" font-size="10">DL Scan</text>
  <rect x="656" y="869" width="72" height="14" rx="3" fill="#052E16"/>
  <text x="692" y="880" fill="#10B981" font-size="10" font-weight="600" text-anchor="middle">&#10003; Approved</text>
  <text x="768" y="880" fill="#64748B" font-size="10">Chardonnay glass</text>

  <!-- Row 2 -->
  <rect x="218" y="884" width="1130" height="16" fill="#13162A"/>
  <text x="238" y="896" fill="#64748B" font-size="10">05/27 11:19 PM</text>
  <text x="368" y="896" fill="#64748B" font-size="10">#4411</text>
  <text x="458" y="896" fill="#94A3B8" font-size="10">Sarah M.</text>
  <text x="548" y="896" fill="#8B5CF6" font-size="10">DL Scan</text>
  <rect x="656" y="885" width="72" height="14" rx="3" fill="#052E16"/>
  <text x="692" y="896" fill="#10B981" font-size="10" font-weight="600" text-anchor="middle">&#10003; Approved</text>
  <text x="768" y="896" fill="#64748B" font-size="10">IPA pint</text>

  <!-- Row 3 -->
  <rect x="218" y="900" width="1130" height="16" fill="#1A1D2E"/>
  <text x="238" y="912" fill="#64748B" font-size="10">05/27 10:54 PM</text>
  <text x="368" y="912" fill="#64748B" font-size="10">#4407</text>
  <text x="458" y="912" fill="#94A3B8" font-size="10">Mike T.</text>
  <text x="548" y="912" fill="#94A3B8" font-size="10">Manual check</text>
  <rect x="656" y="901" width="72" height="14" rx="3" fill="#052E16"/>
  <text x="692" y="912" fill="#10B981" font-size="10" font-weight="600" text-anchor="middle">&#10003; Approved</text>
  <text x="768" y="912" fill="#64748B" font-size="10">Margarita</text>

  <!-- Row 4 -->
  <rect x="218" y="916" width="1130" height="16" fill="#13162A"/>
  <text x="238" y="928" fill="#64748B" font-size="10">05/27 10:31 PM</text>
  <text x="368" y="928" fill="#64748B" font-size="10">#4399</text>
  <text x="458" y="928" fill="#94A3B8" font-size="10">Ana L.</text>
  <text x="548" y="928" fill="#8B5CF6" font-size="10">DL Scan</text>
  <rect x="656" y="917" width="63" height="14" rx="3" fill="#2D0808"/>
  <text x="687" y="928" fill="#EF4444" font-size="10" font-weight="600" text-anchor="middle">&#10007; Blocked</text>
  <text x="768" y="928" fill="#64748B" font-size="10">Whiskey neat (underage)</text>

  <!-- Row 5 -->
  <rect x="218" y="932" width="1130" height="16" fill="#1A1D2E"/>
  <text x="238" y="944" fill="#64748B" font-size="10">05/27 10:08 PM</text>
  <text x="368" y="944" fill="#64748B" font-size="10">#4391</text>
  <text x="458" y="944" fill="#94A3B8" font-size="10">Tom W.</text>
  <text x="548" y="944" fill="#8B5CF6" font-size="10">DL Scan</text>
  <rect x="656" y="933" width="72" height="14" rx="3" fill="#052E16"/>
  <text x="692" y="944" fill="#10B981" font-size="10" font-weight="600" text-anchor="middle">&#10003; Approved</text>
  <text x="768" y="944" fill="#64748B" font-size="10">Cider 16oz</text>

  <!-- Row 6 -->
  <rect x="218" y="948" width="1130" height="16" fill="#13162A"/>
  <text x="238" y="960" fill="#64748B" font-size="10">05/27 09:47 PM</text>
  <text x="368" y="960" fill="#64748B" font-size="10">#4382</text>
  <text x="458" y="960" fill="#94A3B8" font-size="10">Sarah M.</text>
  <text x="548" y="960" fill="#94A3B8" font-size="10">Manual check</text>
  <rect x="656" y="949" width="72" height="14" rx="3" fill="#052E16"/>
  <text x="692" y="960" fill="#10B981" font-size="10" font-weight="600" text-anchor="middle">&#10003; Approved</text>
  <text x="768" y="960" fill="#64748B" font-size="10">Red wine glass</text>

  <!-- Row 7 -->
  <rect x="218" y="964" width="1130" height="16" fill="#1A1D2E"/>
  <text x="238" y="976" fill="#64748B" font-size="10">05/27 09:22 PM</text>
  <text x="368" y="976" fill="#64748B" font-size="10">#4374</text>
  <text x="458" y="976" fill="#EF4444" font-size="10" font-weight="600">Lisa K.</text>
  <text x="548" y="976" fill="#94A3B8" font-size="10">—</text>
  <rect x="656" y="965" width="63" height="14" rx="3" fill="#2D0808"/>
  <text x="687" y="976" fill="#EF4444" font-size="10" font-weight="600" text-anchor="middle">&#10007; Blocked</text>
  <text x="768" y="976" fill="#EF4444" font-size="10">Uncertified — system block</text>

  <!-- Row 8 -->
  <rect x="218" y="980" width="1130" height="16" fill="#13162A"/>
  <text x="238" y="992" fill="#64748B" font-size="10">05/27 09:01 PM</text>
  <text x="368" y="992" fill="#64748B" font-size="10">#4368</text>
  <text x="458" y="992" fill="#94A3B8" font-size="10">Mike T.</text>
  <text x="548" y="992" fill="#8B5CF6" font-size="10">DL Scan</text>
  <rect x="656" y="981" width="72" height="14" rx="3" fill="#052E16"/>
  <text x="692" y="992" fill="#10B981" font-size="10" font-weight="600" text-anchor="middle">&#10003; Approved</text>
  <text x="768" y="992" fill="#64748B" font-size="10">Modelo bottle</text>

  <!-- Row 9 -->
  <rect x="218" y="996" width="1130" height="1" fill="#2D3148"/>

  <!-- Alert: uncertified server blocked -->
  <rect x="218" y="997" width="1130" height="14" fill="#1F0808"/>
  <text x="238" y="1008" fill="#EF4444" font-size="10" font-weight="700">&#128308; Uncertified server blocked from alcohol ring-ups: Lisa K. — 3 attempts today</text>

  <!-- Footer note -->
  <rect x="218" y="1011" width="1130" height="1" fill="#2D3148"/>
  <text x="238" y="1022" fill="#64748B" font-size="10">7-year log retention for dram shop defense · Logs cannot be deleted · Export via ABC Audit button above · pos_audit_log table</text>

</svg>
