<svg role="img" aria-labelledby="title-settings_price_levels-svg" xmlns="http://www.w3.org/2000/svg" viewBox="0 0 1366 1024" font-family="-apple-system,BlinkMacSystemFont,'Segoe UI',Roboto,sans-serif">

  <!-- ═══════════════════════════════════════════════
       REUSABLE DEFINITIONS
  ═══════════════════════════════════════════════ -->
  <title id="title-settings_price_levels-svg">Synalux POS — price levels</title>
  <desc>Synalux POS mockup screen for price levels. All UI elements admin-configurable.</desc>
  <defs>
    <!-- Background gradient for cards -->
    <linearGradient id="cardGrad" x1="0" y1="0" x2="0" y2="1">
      <stop offset="0%" stop-color="#1E2235"/>
      <stop offset="100%" stop-color="#1A1D2E"/>
    </linearGradient>
    <!-- Amber button gradient -->
    <linearGradient id="amberBtnGrad" x1="0" y1="0" x2="0" y2="1">
      <stop offset="0%" stop-color="#FBBF24"/>
      <stop offset="100%" stop-color="#F59E0B"/>
    </linearGradient>
    <!-- Header bar gradient -->
    <linearGradient id="headerGrad" x1="0" y1="0" x2="1" y2="0">
      <stop offset="0%" stop-color="#1A1D2E"/>
      <stop offset="100%" stop-color="#1E2235"/>
    </linearGradient>
    <!-- Card shadow -->
    <filter id="cardShadow" x="-2%" y="-2%" width="104%" height="108%">
      <feDropShadow dx="0" dy="2" stdDeviation="4" flood-color="#000" flood-opacity="0.4"/>
    </filter>
    <!-- Amber glow -->
    <filter id="amberGlow" x="-10%" y="-10%" width="120%" height="120%">
      <feDropShadow dx="0" dy="0" stdDeviation="3" flood-color="#F59E0B" flood-opacity="0.3"/>
    </filter>

    <!-- ── SYMBOL: Admin gear icon ── -->
    <symbol id="adminGear" viewBox="0 0 14 14">
      <path d="M7 4.5a2.5 2.5 0 100 5 2.5 2.5 0 000-5zm0 4a1.5 1.5 0 110-3 1.5 1.5 0 010 3z" fill="#F59E0B"/>
      <path d="M12.7 5.8l-1.1-.2a4.8 4.8 0 00-.4-1l.6-1a.5.5 0 00-.1-.6l-.7-.7a.5.5 0 00-.6-.1l-1 .6a4.8 4.8 0 00-1-.4L8.2 1.3a.5.5 0 00-.5-.3h-1a.5.5 0 00-.5.3l-.2 1.1a4.8 4.8 0 00-1 .4l-1-.6a.5.5 0 00-.6.1l-.7.7a.5.5 0 00-.1.6l.6 1a4.8 4.8 0 00-.4 1l-1.1.2a.5.5 0 00-.3.5v1a.5.5 0 00.3.5l1.1.2a4.8 4.8 0 00.4 1l-.6 1a.5.5 0 00.1.6l.7.7a.5.5 0 00.6.1l1-.6a4.8 4.8 0 001 .4l.2 1.1a.5.5 0 00.5.3h1a.5.5 0 00.5-.3l.2-1.1a4.8 4.8 0 001-.4l1 .6a.5.5 0 00.6-.1l.7-.7a.5.5 0 00.1-.6l-.6-1a4.8 4.8 0 00.4-1l1.1-.2a.5.5 0 00.3-.5v-1a.5.5 0 00-.3-.5z" fill="#F59E0B" opacity="0.7"/>
    </symbol>

    <!-- ── SYMBOL: Toggle ON ── -->
    <symbol id="toggleOn" viewBox="0 0 34 18">
      <rect width="34" height="18" rx="9" fill="#22C55E"/>
  <!-- Synalux POS -->
      <circle cx="25" cy="9" r="7" fill="#fff"/>
    </symbol>

    <!-- ── SYMBOL: Toggle OFF ── -->
    <symbol id="toggleOff" viewBox="0 0 34 18">
      <rect width="34" height="18" rx="9" fill="#374151"/>
      <circle cx="9" cy="9" r="7" fill="#94A3B8"/>
    </symbol>

    <!-- ── SYMBOL: Edit button ── -->
    <symbol id="editBtn" viewBox="0 0 52 20">
      <rect width="52" height="20" rx="4" fill="#1E2235" stroke="#374151" stroke-width="1"/>
      <text x="18" y="14" font-size="10" fill="#CBD5E1">Edit</text>
    </symbol>

    <!-- ── SYMBOL: Drag handle ── -->
    <symbol id="dragHandle" viewBox="0 0 12 14">
      <text x="0" y="12" font-size="10" fill="#64748B">&#x22EE;&#x22EE;</text>
    </symbol>

    <!-- ── SYMBOL: Priority badge ── -->
    <symbol id="priorityBadge" viewBox="0 0 16 16">
      <rect width="16" height="16" rx="8" fill="currentColor"/>
    </symbol>

    <!-- ── SYMBOL: Nav divider ── -->
    <symbol id="navDivider" viewBox="0 0 190 1">
      <line x1="0" y1="0" x2="190" y2="0" stroke="#2A2E45" stroke-width="1"/>
    </symbol>

    <!-- ── SYMBOL: Wholesale editable cell ── -->
    <symbol id="wsCell" viewBox="0 0 80 22">
      <rect width="80" height="22" rx="3" fill="#0C0E1A" stroke="#3B82F6" stroke-width="1"/>
    </symbol>
  </defs>

  <!-- ═══════════════════════════════════════════════
       BACKGROUND
  ═══════════════════════════════════════════════ -->
  <rect width="1366" height="1024" fill="#0C0E1A"/>

  <!-- ═══════════════════════════════════════════════
       LEFT NAV SIDEBAR (200px)
       DB: pos_admin_nav
  ═══════════════════════════════════════════════ -->
  <rect x="0" y="0" width="200" height="1024" fill="#161930"/>
  <text x="16" y="30" font-size="13" font-weight="700" fill="#F59E0B">&#x2699; Back Office</text>
  <text x="16" y="67" font-size="12" fill="#94A3B8">Menu Builder</text>
  <text x="16" y="103" font-size="12" fill="#94A3B8">Taxes</text>
  <text x="16" y="139" font-size="12" fill="#94A3B8">Employees</text>
  <text x="16" y="175" font-size="12" fill="#94A3B8">Equipment</text>
  <text x="16" y="211" font-size="12" fill="#94A3B8">Discounts &amp; Promos</text>
  <text x="16" y="247" font-size="12" fill="#94A3B8">Gift Cards</text>
  <text x="16" y="283" font-size="12" fill="#94A3B8">Loyalty</text>

  <!-- Active: Price Levels -->
  <rect x="0" y="294" width="200" height="36" fill="#1E2235"/>
  <rect x="0" y="294" width="3" height="36" fill="#F59E0B"/>
  <text x="16" y="317" font-size="12" font-weight="600" fill="#F59E0B">Price Levels</text>

  <text x="16" y="355" font-size="12" fill="#94A3B8">Menu Scheduling</text>
  <text x="16" y="391" font-size="12" fill="#94A3B8">Revenue Centers</text>
  <text x="16" y="427" font-size="12" fill="#94A3B8">Auto-Gratuity</text>
  <text x="16" y="463" font-size="12" fill="#94A3B8">Tax Exempt</text>
  <text x="16" y="499" font-size="12" fill="#94A3B8">Integrations</text>
  <text x="16" y="535" font-size="12" fill="#94A3B8">Receipts</text>

  <!-- ═══════════════════════════════════════════════
       HEADER (200..1366, h=56)
  ═══════════════════════════════════════════════ -->
  <rect x="200" y="0" width="1166" height="56" fill="url(#headerGrad)"/>
  <text x="220" y="22" font-size="18" font-weight="700" fill="#E2E8F0">Price Levels</text>
  <text x="220" y="42" font-size="10.5" fill="#94A3B8">Alternative base prices per item &#x2014; for employee meals, VIP members, happy hour pricing, wholesale accounts. Distinct from discounts.</text>

  <!-- ═══════════════════════════════════════════════
       KEY DISTINCTION NOTE
       DB: Business rule — price levels vs discounts
  ═══════════════════════════════════════════════ -->
  <rect x="200" y="56" width="1166" height="56" fill="#052E16" stroke="#22C55E" stroke-width="1.5"/>
  <rect x="200" y="56" width="4" height="56" fill="#22C55E"/>
  <text x="226" y="76" font-size="11" font-weight="700" fill="#22C55E">Price Levels vs Discounts:</text>
  <text x="360" y="76" font-size="11" fill="#D1FAE5">Price levels change the BASE PRICE shown on the ticket and receipt. Discounts are deductions from base price.</text>
  <text x="226" y="96" font-size="11" fill="#6EE7B7">Use price levels for recurring pricing structures (employee meal, VIP tier, wholesale); use discounts for one-time promotions.</text>

  <!-- ═══════════════════════════════════════════════
       LEFT PANEL (200..600, y=112)
       DB: pos_price_levels
  ═══════════════════════════════════════════════ -->
  <rect x="200" y="112" width="400" height="912" fill="#161930"/>

  <text x="216" y="136" font-size="12" font-weight="700" fill="#94A3B8" letter-spacing="0.5">ACTIVE PRICE LEVELS</text>

  <!-- ── REGULAR (Default) ── -->
  <!-- DB: pos_price_levels.id = 'regular', multiplier = 1.0 -->
  <rect x="210" y="144" width="378" height="68" rx="6" fill="url(#cardGrad)" stroke="#2A2E45" stroke-width="1" filter="url(#cardShadow)"/>
  <rect x="210" y="144" width="5" height="68" rx="3" fill="#64748B"/>
  <text x="230" y="163" font-size="13" font-weight="700" fill="#E2E8F0">Regular</text>
  <rect x="295" y="152" width="52" height="17" rx="8" fill="#374151"/>
  <text x="305" y="164" font-size="9" fill="#CBD5E1">Default</text>
  <text x="230" y="181" font-size="10" fill="#64748B">Applies to all orders unless overridden &#x2014; this is the base menu price</text>
  <text x="230" y="197" font-size="10" fill="#475569">No configuration needed</text>

  <!-- ── EMPLOYEE MEAL ── -->
  <!-- DB: pos_price_levels.id = 'employee_meal', multiplier = 0.5, trigger_type = 'clock_in' -->
  <rect x="210" y="222" width="378" height="96" rx="6" fill="url(#cardGrad)" stroke="#2A2E45" stroke-width="1" filter="url(#cardShadow)"/>
  <rect x="210" y="222" width="5" height="96" rx="3" fill="#22C55E"/>
  <use href="#toggleOn" x="540" y="232" width="34" height="18"/>
  <rect x="230" y="225" width="95" height="17" rx="8" fill="#065F46"/>
  <text x="237" y="237" font-size="9" fill="#6EE7B7">&#x25CF; Employee Meal</text>
  <!-- Admin gear — editable price level -->
  <use href="#adminGear" x="330" y="226" width="14" height="14"/>
  <text x="230" y="256" font-size="11" font-weight="600" fill="#E2E8F0">Triggered by: Staff clock-in &#x2192; auto-apply during shift</text>
  <!-- DB: pos_price_levels.multiplier = 0.5 -->
  <text x="230" y="272" font-size="10" fill="#94A3B8">Price adjustment: 50% off base price (multiplier 0.5) &#xB7; Full tax applies</text>
  <!-- DB: pos_price_levels.daily_limit_cents = 1500 -->
  <text x="230" y="287" font-size="10" fill="#94A3B8">Applies to: All items &#xB7; Daily limit: $15 per employee per shift</text>
  <use href="#editBtn" x="530" y="300" width="52" height="20"/>

  <!-- ── HAPPY HOUR ── -->
  <!-- DB: pos_price_levels.id = 'happy_hour', multiplier = 0.8, trigger_type = 'schedule' -->
  <rect x="210" y="328" width="378" height="88" rx="6" fill="url(#cardGrad)" stroke="#2A2E45" stroke-width="1" filter="url(#cardShadow)"/>
  <rect x="210" y="328" width="5" height="88" rx="3" fill="#F59E0B"/>
  <use href="#toggleOn" x="540" y="336" width="34" height="18"/>
  <rect x="230" y="331" width="82" height="17" rx="8" fill="#78350F"/>
  <text x="237" y="343" font-size="9" fill="#FCD34D">&#x25CF; Happy Hour</text>
  <use href="#adminGear" x="316" y="332" width="14" height="14"/>
  <!-- DB: pos_price_levels.schedule_id → pos_menu_schedules -->
  <text x="230" y="360" font-size="11" font-weight="600" fill="#E2E8F0">Triggered by: Schedule (Mon&#x2013;Fri 4:00 PM &#x2013; 6:00 PM)</text>
  <text x="230" y="376" font-size="10" fill="#94A3B8">Price adjustment: 20% off base price for beverages (multiplier 0.8)</text>
  <!-- DB: pos_price_levels.applies_to_categories -->
  <text x="230" y="391" font-size="10" fill="#94A3B8">Applies to: Beverages category only &#xB7; Linked to menu schedule</text>
  <use href="#editBtn" x="530" y="400" width="52" height="20"/>

  <!-- ── VIP MEMBER ── -->
  <!-- DB: pos_price_levels.id = 'vip', multiplier = 0.9, trigger_type = 'loyalty_tier' -->
  <rect x="210" y="426" width="378" height="80" rx="6" fill="url(#cardGrad)" stroke="#2A2E45" stroke-width="1" filter="url(#cardShadow)"/>
  <rect x="210" y="426" width="5" height="80" rx="3" fill="#8B5CF6"/>
  <use href="#toggleOn" x="540" y="434" width="34" height="18"/>
  <rect x="230" y="429" width="78" height="17" rx="8" fill="#4C1D95"/>
  <text x="237" y="441" font-size="9" fill="#C4B5FD">&#x25CF; VIP Member</text>
  <use href="#adminGear" x="312" y="430" width="14" height="14"/>
  <!-- DB: pos_price_levels.loyalty_tier = 'gold' -->
  <text x="230" y="459" font-size="11" font-weight="600" fill="#E2E8F0">Triggered by: Customer loyalty tier = Gold OR VIP tag</text>
  <text x="230" y="474" font-size="10" fill="#94A3B8">Price adjustment: 10% below regular (multiplier 0.9)</text>
  <text x="230" y="490" font-size="10" fill="#94A3B8">Applies to: All items</text>
  <use href="#editBtn" x="530" y="496" width="52" height="20"/>

  <!-- ── WHOLESALE / CORPORATE ── -->
  <!-- DB: pos_price_levels.id = 'wholesale', trigger_type = 'house_account', enabled = false -->
  <rect x="210" y="516" width="378" height="88" rx="6" fill="url(#cardGrad)" stroke="#2A2E45" stroke-width="1" opacity="0.7"/>
  <rect x="210" y="516" width="5" height="88" rx="3" fill="#3B82F6"/>
  <use href="#toggleOff" x="540" y="524" width="34" height="18"/>
  <rect x="230" y="519" width="110" height="17" rx="8" fill="#1E3A5F"/>
  <text x="237" y="531" font-size="9" fill="#93C5FD">&#x25CF; Wholesale / Corporate</text>
  <use href="#adminGear" x="345" y="520" width="14" height="14"/>
  <text x="530" y="528" font-size="9" fill="#64748B">OFF</text>
  <text x="230" y="549" font-size="11" font-weight="600" fill="#94A3B8">Triggered by: House account assignment OR manager override</text>
  <text x="230" y="565" font-size="10" fill="#64748B">Price adjustment: Custom per item (use price matrix)</text>
  <text x="230" y="581" font-size="10" fill="#64748B">Applies to: Configured accounts only</text>
  <use href="#editBtn" x="530" y="588" width="52" height="20"/>

  <!-- + Add Price Level button -->
  <rect x="210" y="614" width="378" height="34" rx="6" fill="none" stroke="#F59E0B" stroke-width="1.5"/>
  <text x="358" y="635" font-size="12" font-weight="600" fill="#F59E0B" text-anchor="middle">+ Add Price Level</text>

  <!-- ═══════════════════════════════════════════════
       PRIORITY ORDER
       DB: pos_price_levels.priority (drag-to-reorder)
  ═══════════════════════════════════════════════ -->
  <text x="216" y="670" font-size="12" font-weight="700" fill="#94A3B8" letter-spacing="0.5">PRICE LEVEL PRIORITY</text>
  <text x="216" y="685" font-size="10" fill="#64748B">When multiple levels apply, higher priority wins. Drag to reorder.</text>
  <use href="#adminGear" x="496" y="660" width="14" height="14"/>

  <!-- Priority Row 1 -->
  <rect x="210" y="692" width="378" height="30" rx="4" fill="#1A1D2E" stroke="#2A2E45" stroke-width="1"/>
  <use href="#dragHandle" x="224" y="697" width="12" height="14"/>
  <rect x="240" y="700" width="16" height="16" rx="8" fill="#374151"/>
  <text x="248" y="712" font-size="9" font-weight="700" fill="#E2E8F0" text-anchor="middle">1</text>
  <text x="268" y="712" font-size="11" fill="#E2E8F0">Manual override</text>
  <text x="460" y="712" font-size="10" fill="#64748B">(manager sets)</text>

  <!-- Priority Row 2 -->
  <rect x="210" y="726" width="378" height="30" rx="4" fill="#1A1D2E" stroke="#2A2E45" stroke-width="1"/>
  <use href="#dragHandle" x="224" y="731" width="12" height="14"/>
  <rect x="240" y="734" width="16" height="16" rx="8" fill="#065F46"/>
  <text x="248" y="746" font-size="9" font-weight="700" fill="#6EE7B7" text-anchor="middle">2</text>
  <text x="268" y="746" font-size="11" fill="#E2E8F0">Employee Meal</text>

  <!-- Priority Row 3 -->
  <rect x="210" y="760" width="378" height="30" rx="4" fill="#1A1D2E" stroke="#2A2E45" stroke-width="1"/>
  <use href="#dragHandle" x="224" y="765" width="12" height="14"/>
  <rect x="240" y="768" width="16" height="16" rx="8" fill="#78350F"/>
  <text x="248" y="780" font-size="9" font-weight="700" fill="#FCD34D" text-anchor="middle">3</text>
  <text x="268" y="780" font-size="11" fill="#E2E8F0">Happy Hour</text>

  <!-- Priority Row 4 -->
  <rect x="210" y="794" width="378" height="30" rx="4" fill="#1A1D2E" stroke="#2A2E45" stroke-width="1"/>
  <use href="#dragHandle" x="224" y="799" width="12" height="14"/>
  <rect x="240" y="802" width="16" height="16" rx="8" fill="#4C1D95"/>
  <text x="248" y="814" font-size="9" font-weight="700" fill="#C4B5FD" text-anchor="middle">4</text>
  <text x="268" y="814" font-size="11" fill="#E2E8F0">VIP Member</text>

  <!-- Priority Row 5 -->
  <rect x="210" y="828" width="378" height="30" rx="4" fill="#1A1D2E" stroke="#2A2E45" stroke-width="1"/>
  <use href="#dragHandle" x="224" y="833" width="12" height="14"/>
  <rect x="240" y="836" width="16" height="16" rx="8" fill="#374151"/>
  <text x="248" y="848" font-size="9" font-weight="700" fill="#94A3B8" text-anchor="middle">5</text>
  <text x="268" y="848" font-size="11" fill="#94A3B8">Regular (default)</text>

  <!-- ═══════════════════════════════════════════════
       RIGHT PANEL: Price Matrix (600..1366)
       DB: pos_menu_item_prices (item_id x price_level_id)
  ═══════════════════════════════════════════════ -->
  <rect x="600" y="112" width="766" height="912" fill="#0C0E1A"/>

  <!-- TABS bar -->
  <rect x="600" y="112" width="766" height="40" fill="#161930"/>
  <rect x="608" y="118" width="80" height="28" rx="6" fill="#1E2235"/>
  <rect x="608" y="142" width="80" height="4" fill="#F59E0B"/>
  <text x="648" y="136" font-size="11" font-weight="600" fill="#F59E0B" text-anchor="middle">All Items</text>
  <text x="712" y="136" font-size="11" fill="#64748B">Employee Meal</text>
  <text x="808" y="136" font-size="11" fill="#64748B">Happy Hour</text>
  <text x="898" y="136" font-size="11" fill="#64748B">VIP</text>
  <text x="940" y="136" font-size="11" fill="#64748B">Wholesale</text>

  <text x="616" y="170" font-size="12" font-weight="700" fill="#94A3B8" letter-spacing="0.5">PRICE MATRIX &#x2014; ITEM-LEVEL PRICES</text>
  <use href="#adminGear" x="830" y="160" width="14" height="14"/>

  <!-- TABLE HEADER -->
  <!-- DB: pos_menu_items.price_cents (regular), pos_menu_item_prices (overrides) -->
  <rect x="600" y="178" width="766" height="30" fill="url(#headerGrad)"/>
  <text x="616" y="197" font-size="10" font-weight="700" fill="#64748B">ITEM NAME</text>
  <text x="810" y="197" font-size="10" font-weight="700" fill="#64748B" text-anchor="middle">REGULAR</text>
  <!-- DB: pos_price_levels WHERE id='employee_meal' → multiplier=0.5 -->
  <text x="890" y="197" font-size="10" font-weight="700" fill="#22C55E" text-anchor="middle">EMPLOYEE (&#xD7;0.5)</text>
  <!-- DB: pos_price_levels WHERE id='happy_hour' → multiplier=0.8 -->
  <text x="980" y="197" font-size="10" font-weight="700" fill="#F59E0B" text-anchor="middle">HAPPY HR (bev)</text>
  <!-- DB: pos_price_levels WHERE id='vip' → multiplier=0.9 -->
  <text x="1070" y="197" font-size="10" font-weight="700" fill="#8B5CF6" text-anchor="middle">VIP (&#x2212;10%)</text>
  <!-- DB: pos_menu_item_prices WHERE price_level_id='wholesale' -->
  <text x="1170" y="197" font-size="10" font-weight="700" fill="#3B82F6" text-anchor="middle">WHOLESALE</text>
  <line x1="600" y1="208" x2="1366" y2="208" stroke="#2A2E45" stroke-width="1"/>

  <!-- Vertical column dividers -->
  <line x1="786" y1="178" x2="786" y2="640" stroke="#2A2E45" stroke-width="0.5"/>
  <line x1="852" y1="178" x2="852" y2="640" stroke="#2A2E45" stroke-width="0.5"/>
  <line x1="936" y1="178" x2="936" y2="640" stroke="#2A2E45" stroke-width="0.5"/>
  <line x1="1020" y1="178" x2="1020" y2="640" stroke="#2A2E45" stroke-width="0.5"/>
  <line x1="1120" y1="178" x2="1120" y2="640" stroke="#2A2E45" stroke-width="0.5"/>

  <!-- ROW 1: Classic Burger -->
  <!-- DB: pos_menu_items WHERE name='Classic Burger', price_cents=1800 -->
  <rect x="600" y="208" width="766" height="36" fill="#1A1D2E"/>
  <text x="616" y="231" font-size="11" fill="#E2E8F0">Classic Burger</text>
  <use href="#adminGear" x="710" y="222" width="14" height="14"/>
  <text x="810" y="231" font-size="11" fill="#E2E8F0" text-anchor="middle">$18.00</text>
  <text x="890" y="231" font-size="11" fill="#22C55E" text-anchor="middle">$9.00</text>
  <text x="980" y="231" font-size="10" fill="#475569" text-anchor="middle">&#x2014;</text>
  <text x="1070" y="231" font-size="11" fill="#A78BFA" text-anchor="middle">$16.20</text>
  <use href="#wsCell" x="1128" y="216" width="80" height="22"/>
  <text x="1168" y="231" font-size="11" fill="#93C5FD" text-anchor="middle">$14.00</text>
  <line x1="600" y1="244" x2="1366" y2="244" stroke="#1E2235" stroke-width="1"/>

  <!-- ROW 2: Caesar Salad -->
  <!-- DB: pos_menu_items WHERE name='Caesar Salad', price_cents=1400 -->
  <rect x="600" y="244" width="766" height="36" fill="#161930"/>
  <text x="616" y="267" font-size="11" fill="#E2E8F0">Caesar Salad</text>
  <text x="810" y="267" font-size="11" fill="#E2E8F0" text-anchor="middle">$14.00</text>
  <text x="890" y="267" font-size="11" fill="#22C55E" text-anchor="middle">$7.00</text>
  <text x="980" y="267" font-size="10" fill="#475569" text-anchor="middle">&#x2014;</text>
  <text x="1070" y="267" font-size="11" fill="#A78BFA" text-anchor="middle">$12.60</text>
  <use href="#wsCell" x="1128" y="252" width="80" height="22"/>
  <text x="1168" y="267" font-size="11" fill="#93C5FD" text-anchor="middle">$11.00</text>
  <line x1="600" y1="280" x2="1366" y2="280" stroke="#1E2235" stroke-width="1"/>

  <!-- ROW 3: Margherita Pizza -->
  <!-- DB: pos_menu_items WHERE name='Margherita Pizza', price_cents=1600 -->
  <rect x="600" y="280" width="766" height="36" fill="#1A1D2E"/>
  <text x="616" y="303" font-size="11" fill="#E2E8F0">Margherita Pizza</text>
  <text x="810" y="303" font-size="11" fill="#E2E8F0" text-anchor="middle">$16.00</text>
  <text x="890" y="303" font-size="11" fill="#22C55E" text-anchor="middle">$8.00</text>
  <text x="980" y="303" font-size="10" fill="#475569" text-anchor="middle">&#x2014;</text>
  <text x="1070" y="303" font-size="11" fill="#A78BFA" text-anchor="middle">$14.40</text>
  <use href="#wsCell" x="1128" y="288" width="80" height="22"/>
  <text x="1168" y="303" font-size="11" fill="#93C5FD" text-anchor="middle">$13.00</text>
  <line x1="600" y1="316" x2="1366" y2="316" stroke="#1E2235" stroke-width="1"/>

  <!-- ROW 4: Craft Beer (Stella) — Happy Hour applies -->
  <!-- DB: pos_menu_items WHERE name='Craft Beer (Stella)', category='Beverages', price_cents=900 -->
  <rect x="600" y="316" width="766" height="36" fill="#161930"/>
  <text x="616" y="339" font-size="11" fill="#E2E8F0">Craft Beer (Stella)</text>
  <text x="810" y="339" font-size="11" fill="#E2E8F0" text-anchor="middle">$9.00</text>
  <text x="890" y="339" font-size="11" fill="#22C55E" text-anchor="middle">$4.50</text>
  <rect x="950" y="322" width="62" height="20" rx="3" fill="#292108"/>
  <text x="981" y="335" font-size="10" fill="#FCD34D" text-anchor="middle">$7.20</text>
  <text x="1070" y="339" font-size="11" fill="#A78BFA" text-anchor="middle">$8.10</text>
  <use href="#wsCell" x="1128" y="324" width="80" height="22"/>
  <text x="1168" y="339" font-size="11" fill="#93C5FD" text-anchor="middle">$7.50</text>
  <line x1="600" y1="352" x2="1366" y2="352" stroke="#1E2235" stroke-width="1"/>

  <!-- ROW 5: House Wine (Glass) — Happy Hour -->
  <!-- DB: pos_menu_items WHERE name='House Wine (Glass)', category='Beverages', price_cents=1200 -->
  <rect x="600" y="352" width="766" height="36" fill="#1A1D2E"/>
  <text x="616" y="375" font-size="11" fill="#E2E8F0">House Wine (Glass)</text>
  <text x="810" y="375" font-size="11" fill="#E2E8F0" text-anchor="middle">$12.00</text>
  <text x="890" y="375" font-size="11" fill="#22C55E" text-anchor="middle">$6.00</text>
  <rect x="950" y="358" width="62" height="20" rx="3" fill="#292108"/>
  <text x="981" y="371" font-size="10" fill="#FCD34D" text-anchor="middle">$9.60</text>
  <text x="1070" y="375" font-size="11" fill="#A78BFA" text-anchor="middle">$10.80</text>
  <use href="#wsCell" x="1128" y="360" width="80" height="22"/>
  <text x="1168" y="375" font-size="11" fill="#93C5FD" text-anchor="middle">$9.00</text>
  <line x1="600" y1="388" x2="1366" y2="388" stroke="#1E2235" stroke-width="1"/>

  <!-- ROW 6: Cocktail — Old Fashioned — Happy Hour -->
  <rect x="600" y="388" width="766" height="36" fill="#161930"/>
  <text x="616" y="411" font-size="11" fill="#E2E8F0">Cocktail &#x2014; Old Fashioned</text>
  <text x="810" y="411" font-size="11" fill="#E2E8F0" text-anchor="middle">$14.00</text>
  <text x="890" y="411" font-size="11" fill="#22C55E" text-anchor="middle">$7.00</text>
  <rect x="950" y="394" width="62" height="20" rx="3" fill="#292108"/>
  <text x="981" y="407" font-size="10" fill="#FCD34D" text-anchor="middle">$11.20</text>
  <text x="1070" y="411" font-size="11" fill="#A78BFA" text-anchor="middle">$12.60</text>
  <use href="#wsCell" x="1128" y="396" width="80" height="22"/>
  <text x="1168" y="411" font-size="11" fill="#93C5FD" text-anchor="middle">$11.00</text>
  <line x1="600" y1="424" x2="1366" y2="424" stroke="#1E2235" stroke-width="1"/>

  <!-- ROW 7: Sparkling Water -->
  <rect x="600" y="424" width="766" height="36" fill="#1A1D2E"/>
  <text x="616" y="447" font-size="11" fill="#E2E8F0">Sparkling Water</text>
  <text x="810" y="447" font-size="11" fill="#E2E8F0" text-anchor="middle">$4.00</text>
  <text x="890" y="447" font-size="11" fill="#22C55E" text-anchor="middle">$2.00</text>
  <rect x="950" y="430" width="62" height="20" rx="3" fill="#292108"/>
  <text x="981" y="443" font-size="10" fill="#FCD34D" text-anchor="middle">$3.20</text>
  <text x="1070" y="447" font-size="11" fill="#A78BFA" text-anchor="middle">$3.60</text>
  <use href="#wsCell" x="1128" y="432" width="80" height="22"/>
  <text x="1168" y="447" font-size="11" fill="#93C5FD" text-anchor="middle">$3.20</text>
  <line x1="600" y1="460" x2="1366" y2="460" stroke="#1E2235" stroke-width="1"/>

  <!-- ROW 8: Kids Burger -->
  <rect x="600" y="460" width="766" height="36" fill="#161930"/>
  <text x="616" y="483" font-size="11" fill="#E2E8F0">Kids Burger</text>
  <text x="810" y="483" font-size="11" fill="#E2E8F0" text-anchor="middle">$8.00</text>
  <text x="890" y="483" font-size="11" fill="#22C55E" text-anchor="middle">$4.00</text>
  <text x="980" y="483" font-size="10" fill="#475569" text-anchor="middle">&#x2014;</text>
  <text x="1070" y="483" font-size="11" fill="#A78BFA" text-anchor="middle">$7.20</text>
  <use href="#wsCell" x="1128" y="468" width="80" height="22"/>
  <text x="1168" y="483" font-size="11" fill="#93C5FD" text-anchor="middle">$6.50</text>
  <line x1="600" y1="496" x2="1366" y2="496" stroke="#1E2235" stroke-width="1"/>

  <!-- ROW 9: Daily Special -->
  <rect x="600" y="496" width="766" height="36" fill="#1A1D2E"/>
  <text x="616" y="519" font-size="11" fill="#E2E8F0">Daily Special</text>
  <text x="810" y="519" font-size="10" fill="#64748B" text-anchor="middle">[Chef sets]</text>
  <text x="890" y="519" font-size="10" fill="#475569" text-anchor="middle">[&#xD7; 0.5]</text>
  <text x="980" y="519" font-size="10" fill="#475569" text-anchor="middle">&#x2014;</text>
  <text x="1070" y="519" font-size="10" fill="#64748B" text-anchor="middle">[&#xD7; 0.9]</text>
  <rect x="1128" y="504" width="80" height="22" rx="3" fill="#0C0E1A" stroke="#374151" stroke-width="1"/>
  <text x="1168" y="519" font-size="10" fill="#64748B" text-anchor="middle">[negotiated]</text>
  <line x1="600" y1="532" x2="1366" y2="532" stroke="#1E2235" stroke-width="1"/>

  <!-- ROW 10: Open Price Item -->
  <rect x="600" y="532" width="766" height="36" fill="#161930"/>
  <text x="616" y="555" font-size="11" fill="#94A3B8">Open Price Item</text>
  <text x="810" y="555" font-size="10" fill="#64748B" text-anchor="middle">[Entered]</text>
  <text x="890" y="555" font-size="10" fill="#475569" text-anchor="middle">[&#xD7; 0.5]</text>
  <text x="980" y="555" font-size="10" fill="#475569" text-anchor="middle">&#x2014;</text>
  <text x="1070" y="555" font-size="10" fill="#64748B" text-anchor="middle">[&#xD7; 0.9]</text>
  <rect x="1128" y="540" width="80" height="22" rx="3" fill="#0C0E1A" stroke="#374151" stroke-width="1"/>
  <text x="1168" y="555" font-size="10" fill="#64748B" text-anchor="middle">[Entered]</text>
  <line x1="600" y1="568" x2="1366" y2="568" stroke="#2A2E45" stroke-width="1"/>

  <!-- Note about editing -->
  <text x="616" y="588" font-size="10" fill="#64748B">Wholesale column cells are editable (blue border). All other columns show auto-calculated prices.</text>

  <!-- Bulk / Export / Import buttons -->
  <rect x="616" y="600" width="100" height="28" rx="5" fill="#1E2235" stroke="#2A2E45" stroke-width="1"/>
  <text x="666" y="618" font-size="10" font-weight="600" fill="#E2E8F0" text-anchor="middle">Bulk Update</text>
  <rect x="726" y="600" width="160" height="28" rx="5" fill="#1E2235" stroke="#2A2E45" stroke-width="1"/>
  <text x="806" y="618" font-size="10" fill="#94A3B8" text-anchor="middle">Import Price Matrix (.csv)</text>
  <rect x="896" y="600" width="70" height="28" rx="5" fill="#1E2235" stroke="#2A2E45" stroke-width="1"/>
  <text x="931" y="618" font-size="10" fill="#94A3B8" text-anchor="middle">Export</text>

  <!-- ═══════════════════════════════════════════════
       REGISTER BEHAVIOR CARD
  ═══════════════════════════════════════════════ -->
  <rect x="606" y="642" width="754" height="156" rx="6" fill="url(#cardGrad)" stroke="#F59E0B" stroke-width="1.5" filter="url(#cardShadow)"/>
  <rect x="606" y="642" width="4" height="156" rx="2" fill="#F59E0B"/>
  <text x="626" y="662" font-size="11" font-weight="700" fill="#F59E0B">On Register:</text>

  <!-- 3-column layout -->
  <text x="626" y="680" font-size="10" font-weight="600" fill="#94A3B8">AUTO-APPLY</text>
  <text x="626" y="695" font-size="10" fill="#CBD5E1">Staff PIN login + active shift</text>
  <text x="626" y="709" font-size="10" fill="#CBD5E1">&#x2192; Employee Meal auto-applies</text>
  <text x="626" y="724" font-size="10" fill="#CBD5E1">Customer Gold tier lookup</text>
  <text x="626" y="738" font-size="10" fill="#CBD5E1">&#x2192; VIP price auto-applies</text>

  <text x="800" y="680" font-size="10" font-weight="600" fill="#94A3B8">OVERRIDE</text>
  <text x="800" y="695" font-size="10" fill="#CBD5E1">Manager selects "Override Price</text>
  <text x="800" y="709" font-size="10" fill="#CBD5E1">Level" dropdown in order ops</text>
  <text x="800" y="724" font-size="10" fill="#CBD5E1">Ticket shows: "Price Level:</text>
  <text x="800" y="738" font-size="10" fill="#CBD5E1">Employee Meal" label</text>

  <text x="990" y="680" font-size="10" font-weight="600" fill="#94A3B8">REPORTING</text>
  <text x="990" y="695" font-size="10" fill="#CBD5E1">Receipt shows: actual price</text>
  <text x="990" y="709" font-size="10" fill="#CBD5E1">(no discount line &#x2014; price level</text>
  <text x="990" y="724" font-size="10" fill="#CBD5E1">IS the price, not a deduction)</text>
  <text x="990" y="738" font-size="10" fill="#CBD5E1">Reports: revenue at actual price</text>
  <text x="990" y="752" font-size="10" fill="#CBD5E1">(not base minus discount)</text>

  <text x="626" y="784" font-size="10" fill="#92400E">Happy Hour: auto-switches 4 PM via menu schedule &#xB7; Employee daily limit enforced server-side ($15/shift)</text>

  <!-- ═══════════════════════════════════════════════
       DB SCHEMA / WORKFLOW CARD (bottom, full-width)
       DB: pos_price_levels, pos_menu_item_prices, pos_employee_meal_log
  ═══════════════════════════════════════════════ -->
  <rect x="200" y="810" width="1166" height="186" fill="url(#cardGrad)" stroke="#F59E0B" stroke-width="1" filter="url(#cardShadow)"/>
  <rect x="200" y="810" width="4" height="186" fill="#F59E0B"/>
  <text x="224" y="830" font-size="11" font-weight="700" fill="#F59E0B">Database Schema &amp; Workflow Integration</text>

  <!-- Schema left col -->
  <text x="224" y="850" font-size="10" font-weight="600" fill="#94A3B8">TABLES</text>
  <!-- DB: pos_price_levels -->
  <text x="224" y="866" font-size="10" fill="#CBD5E1">pos_price_levels: id, name_i18n jsonb, multiplier decimal, trigger_type varchar,</text>
  <text x="224" y="880" font-size="10" fill="#CBD5E1">  schedule_id, loyalty_tier, applies_to_categories int[], daily_limit_cents</text>
  <!-- DB: pos_menu_item_prices (wholesale custom prices) -->
  <text x="224" y="895" font-size="10" fill="#CBD5E1">pos_menu_item_prices: item_id &#xD7; price_level_id &#x2192; override_price_cents (wholesale custom prices)</text>
  <!-- DB: pos_employee_meal_log -->
  <text x="224" y="910" font-size="10" fill="#CBD5E1">pos_employee_meal_log: date + staff_id + total_cents (daily limit enforcement)</text>

  <text x="224" y="930" font-size="10" font-weight="600" fill="#94A3B8">ORDER CREATION FLOW</text>
  <!-- DB: apply_price_level() function -->
  <text x="224" y="946" font-size="10" fill="#CBD5E1">apply_price_level() evaluates triggers in priority order &#x2192; sets pos_order_items.price_level_id + actual_price_cents</text>
  <text x="224" y="961" font-size="10" fill="#CBD5E1">Reports use actual_price_cents (revenue at price level prices, not base price). Employee daily limit checked via meal log.</text>
  <text x="224" y="976" font-size="10" fill="#475569">Inline Wholesale edits &#x2192; pos_menu_item_prices upsert. Multiplier-based levels computed at order time, not stored per-item.</text>

  <!-- Legend chips -->
  <rect x="980" y="848" width="90" height="18" rx="9" fill="#065F46"/>
  <text x="1025" y="861" font-size="9" fill="#6EE7B7" text-anchor="middle">&#x25CF; Employee Meal</text>
  <rect x="1080" y="848" width="78" height="18" rx="9" fill="#78350F"/>
  <text x="1119" y="861" font-size="9" fill="#FCD34D" text-anchor="middle">&#x25CF; Happy Hour</text>
  <rect x="980" y="872" width="68" height="18" rx="9" fill="#4C1D95"/>
  <text x="1014" y="885" font-size="9" fill="#C4B5FD" text-anchor="middle">&#x25CF; VIP Member</text>
  <rect x="1056" y="872" width="100" height="18" rx="9" fill="#1E3A5F"/>
  <text x="1106" y="885" font-size="9" fill="#93C5FD" text-anchor="middle">&#x25CF; Wholesale / Corp</text>
  <rect x="980" y="896" width="60" height="18" rx="9" fill="#374151"/>
  <text x="1010" y="909" font-size="9" fill="#CBD5E1" text-anchor="middle">&#x25CF; Regular</text>

</svg>