<svg role="img" aria-labelledby="title-settings_loyalty-svg" xmlns="http://www.w3.org/2000/svg" viewBox="0 0 1366 1024"
     font-family="-apple-system,BlinkMacSystemFont,'SF Pro Display','Segoe UI',sans-serif">

  <!-- ============================================================ -->
  <!--  DEFS: Reusable symbols, gradients, filters                 -->
  <!-- ============================================================ -->
  <title id="title-settings_loyalty-svg">Synalux POS — loyalty</title>
  <desc>Synalux POS mockup screen for loyalty. All UI elements admin-configurable.</desc>
  <defs>
    <filter id="cardShadow" x="-4%" y="-4%" width="108%" height="112%">
      <feDropShadow dx="0" dy="2" stdDeviation="4" flood-color="#000" flood-opacity="0.35"/>
    </filter>

    <linearGradient id="amberBtnGrad" x1="0" y1="0" x2="0" y2="1">
      <stop offset="0%" stop-color="#FBBF24"/>
      <stop offset="100%" stop-color="#F59E0B"/>
    </linearGradient>

    <linearGradient id="bronzeGrad" x1="0" y1="0" x2="1" y2="0">
      <stop offset="0%" stop-color="#78350F"/>
      <stop offset="100%" stop-color="#92400E"/>
    </linearGradient>

    <linearGradient id="silverGrad" x1="0" y1="0" x2="1" y2="0">
      <stop offset="0%" stop-color="#374151"/>
      <stop offset="100%" stop-color="#475569"/>
    </linearGradient>

    <linearGradient id="goldGrad" x1="0" y1="0" x2="1" y2="0">
      <stop offset="0%" stop-color="#92400E"/>
      <stop offset="100%" stop-color="#B45309"/>
    </linearGradient>

    <!-- ── Symbol: Gear icon ── -->
    <symbol id="gearIcon" viewBox="0 0 16 16">
      <path d="M8 5.5a2.5 2.5 0 100 5 2.5 2.5 0 000-5zM6.5 8a1.5 1.5 0 113 0 1.5 1.5 0 01-3 0z" fill="currentColor"/>
      <path d="M9.405 1.05c-.413-1.4-2.397-1.4-2.81 0l-.1.34a1.464 1.464 0 01-2.105.872l-.31-.17c-1.283-.698-2.686.705-1.987 1.987l.169.311c.446.82.023 1.841-.872 2.105l-.34.1c-1.4.413-1.4 2.397 0 2.81l.34.1a1.464 1.464 0 01.872 2.105l-.17.31c-.698 1.283.705 2.686 1.987 1.987l.311-.169a1.464 1.464 0 012.105.872l.1.34c.413 1.4 2.397 1.4 2.81 0l.1-.34a1.464 1.464 0 012.105-.872l.31.17c1.283.698 2.686-.705 1.987-1.987l-.169-.311a1.464 1.464 0 01.872-2.105l.34-.1c1.4-.413 1.4-2.397 0-2.81l-.34-.1a1.464 1.464 0 01-.872-2.105l.17-.31c.698-1.283-.705-2.686-1.987-1.987l-.311.169a1.464 1.464 0 01-2.105-.872l-.1-.34z" fill="currentColor"/>
    </symbol>

    <!-- ── Symbol: Stat card ── -->
    <symbol id="statCard" viewBox="0 0 210 76">
      <rect width="210" height="76" rx="8" fill="#161930" filter="url(#cardShadow)"/>
      <rect width="210" height="76" rx="8" fill="none" stroke="#1E2235" stroke-width="1"/>
    </symbol>

    <!-- ── Symbol: Toggle ON ── -->
    <symbol id="toggleOn" viewBox="0 0 38 20">
      <rect width="38" height="20" rx="10" fill="#22C55E"/>
      <circle cx="28" cy="10" r="8" fill="#FFFFFF"/>
    </symbol>

    <!-- ── Symbol: Toggle OFF ── -->
    <symbol id="toggleOff" viewBox="0 0 38 20">
      <rect width="38" height="20" rx="10" fill="#2A2E45"/>
      <circle cx="10" cy="10" r="8" fill="#64748B"/>
    </symbol>

    <!-- ── Symbol: Nav item active ── -->
    <symbol id="navItemActive" viewBox="0 0 200 36">
      <rect width="200" height="36" fill="#1E2235" rx="4"/>
      <rect width="3" height="36" fill="#F59E0B"/>
    </symbol>

    <!-- ── Symbol: Input field ── -->
    <symbol id="inputField" viewBox="0 0 264 30">
      <rect width="264" height="30" rx="6" fill="#0C0E1A" stroke="#1E2235" stroke-width="1"/>
    </symbol>

    <!-- ── Symbol: Tier row ── -->
    <symbol id="tierRow" viewBox="0 0 264 32">
      <rect width="264" height="32" rx="4"/>
    </symbol>

    <!-- ── Symbol: Reward row ── -->
    <symbol id="rewardRow" viewBox="0 0 264 28">
      <rect width="264" height="28" rx="4" fill="#0C0E1A" stroke="#1E2235" stroke-width="1"/>
    </symbol>

    <!-- ── Symbol: Signup channel row ── -->
    <symbol id="channelItem" viewBox="0 0 264 18">
      <rect width="264" height="18" fill="transparent"/>
    </symbol>

    <!-- ── Symbol: Filter chip ── -->
    <symbol id="filterChip" viewBox="0 0 70 22">
      <rect width="70" height="22" rx="11" fill="#161930" stroke="#2A2E45" stroke-width="1"/>
    </symbol>

    <!-- ── Symbol: Filter chip active ── -->
    <symbol id="filterChipActive" viewBox="0 0 52 22">
      <rect width="52" height="22" rx="11" fill="url(#amberBtnGrad)"/>
    </symbol>
  </defs>

  <!-- ============================================================ -->
  <!--  BACKGROUND                                                  -->
  <!-- ============================================================ -->
  <rect width="1366" height="1024" fill="#0C0E1A"/>

  <!-- ============================================================ -->
  <!--  LEFT SETTINGS NAV SIDEBAR                                   -->
  <!-- ============================================================ -->
  <rect x="0" y="0" width="200" height="1024" fill="#161930"/>
  <rect x="200" y="0" width="1" height="1024" fill="#1E2235"/>

  <text x="16" y="30" font-size="13" font-weight="700" fill="#F59E0B">Settings</text>
  <text x="16" y="67" font-size="12" fill="#94A3B8">Discounts &amp; Promos</text>
  <text x="16" y="103" font-size="12" fill="#94A3B8">Gift Cards</text>

  <!-- Active: Loyalty -->
  <use href="#navItemActive" x="0" y="116" width="200" height="36"/>
  <text x="16" y="139" font-size="12" font-weight="600" fill="#F59E0B">Loyalty</text>

  <text x="16" y="175" font-size="12" fill="#94A3B8">Receipts</text>
  <text x="16" y="211" font-size="12" fill="#94A3B8">Printer Routing</text>
  <text x="16" y="247" font-size="12" fill="#94A3B8">Integrations</text>
  <text x="16" y="283" font-size="12" fill="#94A3B8">Menu Scheduling</text>
  <text x="16" y="319" font-size="12" fill="#94A3B8">Inventory</text>
  <text x="16" y="355" font-size="12" fill="#94A3B8">Reports</text>

  <!-- ============================================================ -->
  <!--  TOP HEADER BAR                                              -->
  <!-- ============================================================ -->
  <rect x="201" y="0" width="1165" height="56" fill="#1A1D2E"/>
  <rect x="201" y="56" width="1165" height="1" fill="#1E2235"/>
  <text x="220" y="28" font-size="18" font-weight="700" fill="#FFFFFF">Loyalty Program Settings</text>
  <text x="220" y="48" font-size="11" fill="#94A3B8">Points rules -- Tier thresholds -- Referral bonuses -- Enrollment channels</text>
  <use href="#gearIcon" x="560" y="36" width="14" height="14" color="#94A3B8"/>

  <rect x="1224" y="12" width="124" height="32" rx="6" fill="url(#amberBtnGrad)"/>
  <text x="1244" y="33" font-size="12" font-weight="600" fill="#000">+ Add Customer</text>

  <!-- ============================================================ -->
  <!--  STATS ROW                                                   -->
  <!--  DB: pos_customers (COUNT), pos_loyalty_events (SUM)         -->
  <!-- ============================================================ -->
  <use href="#statCard" x="210" y="66" width="210" height="76"/>
  <text x="230" y="90" font-size="11" fill="#94A3B8">Total Members</text>
  <text x="230" y="118" font-size="26" font-weight="700" fill="#FFFFFF">4,821</text>

  <use href="#statCard" x="430" y="66" width="210" height="76"/>
  <text x="450" y="90" font-size="11" fill="#94A3B8">Active (30d)</text>
  <text x="450" y="118" font-size="26" font-weight="700" fill="#22C55E">1,203</text>

  <use href="#statCard" x="650" y="66" width="210" height="76"/>
  <text x="670" y="90" font-size="11" fill="#94A3B8">Points Issued (30d)</text>
  <text x="670" y="118" font-size="26" font-weight="700" fill="#F59E0B">84,200</text>

  <use href="#statCard" x="870" y="66" width="210" height="76"/>
  <text x="890" y="90" font-size="11" fill="#94A3B8">Rewards Redeemed</text>
  <text x="890" y="118" font-size="26" font-weight="700" fill="#60A5FA">$2,840</text>

  <use href="#statCard" x="1090" y="66" width="210" height="76"/>
  <text x="1110" y="90" font-size="11" fill="#94A3B8">Avg Visits / Member</text>
  <text x="1110" y="118" font-size="26" font-weight="700" fill="#FFFFFF">6.2</text>

  <!-- ============================================================ -->
  <!--  LEFT PANEL: Points Rules                                    -->
  <!--  DB: pos_loyalty_config                                      -->
  <!-- ============================================================ -->
  <rect x="210" y="154" width="360" height="430" rx="8" fill="#161930" filter="url(#cardShadow)"/>
  <rect x="210" y="154" width="360" height="430" rx="8" fill="none" stroke="#1E2235" stroke-width="1"/>

  <text x="234" y="182" font-size="14" font-weight="700" fill="#FFFFFF">Points Rules</text>
  <use href="#gearIcon" x="340" y="168" width="14" height="14" color="#F59E0B"/>
  <text x="234" y="198" font-size="9" fill="#475569">pos_loyalty_config</text>

  <!-- Earn rate -->
  <!-- pos_loyalty_config.earn_rate_points, earn_rate_per_dollar -->
  <text x="234" y="224" font-size="10" fill="#94A3B8">EARN RATE</text>
  <use href="#gearIcon" x="296" y="212" width="12" height="12" color="#475569"/>
  <use href="#inputField" x="234" y="230" width="264" height="30"/>
  <text x="252" y="250" font-size="16" font-weight="700" fill="#F59E0B">1 pt</text>
  <text x="296" y="250" font-size="13" fill="#94A3B8">per $1 spent</text>

  <!-- Bonus multiplier -->
  <!-- pos_loyalty_config.bonus_multiplier, bonus_days -->
  <text x="234" y="278" font-size="10" fill="#94A3B8">BONUS MULTIPLIER</text>
  <use href="#gearIcon" x="356" y="266" width="12" height="12" color="#475569"/>
  <use href="#inputField" x="234" y="284" width="264" height="30"/>
  <text x="252" y="304" font-size="13" fill="#CBD5E1">2x points on Tuesdays</text>

  <!-- Points expiry -->
  <!-- pos_loyalty_config.points_expiry_months -->
  <text x="234" y="334" font-size="10" fill="#94A3B8">POINTS EXPIRY</text>
  <use href="#gearIcon" x="326" y="322" width="12" height="12" color="#475569"/>
  <use href="#inputField" x="234" y="340" width="264" height="30"/>
  <text x="252" y="360" font-size="13" fill="#CBD5E1">12 months of inactivity</text>

  <!-- Minimum spend -->
  <!-- pos_loyalty_config.min_spend_for_points -->
  <text x="234" y="390" font-size="10" fill="#94A3B8">MINIMUM SPEND FOR POINTS</text>
  <use href="#gearIcon" x="430" y="378" width="12" height="12" color="#475569"/>
  <use href="#inputField" x="234" y="396" width="264" height="30"/>
  <text x="252" y="416" font-size="13" fill="#CBD5E1">$0.00 (no minimum)</text>

  <!-- Birthday bonus -->
  <!-- pos_loyalty_config.birthday_bonus_points, birthday_bonus_enabled -->
  <text x="234" y="446" font-size="10" fill="#94A3B8">BIRTHDAY BONUS</text>
  <use href="#gearIcon" x="336" y="434" width="12" height="12" color="#475569"/>
  <use href="#inputField" x="234" y="452" width="264" height="30"/>
  <text x="252" y="472" font-size="13" fill="#FFFFFF">+200 bonus points</text>
  <use href="#toggleOn" x="520" y="456" width="38" height="20"/>

  <!-- Signup bonus -->
  <!-- pos_loyalty_config.signup_bonus_points -->
  <text x="234" y="502" font-size="10" fill="#94A3B8">SIGNUP BONUS</text>
  <use href="#gearIcon" x="326" y="490" width="12" height="12" color="#475569"/>
  <use href="#inputField" x="234" y="508" width="264" height="30"/>
  <text x="252" y="528" font-size="13" fill="#FFFFFF">+50 points on enrollment</text>

  <!-- Excluded categories -->
  <text x="234" y="558" font-size="10" fill="#94A3B8">EXCLUDED CATEGORIES</text>
  <use href="#inputField" x="234" y="564" width="264" height="30"/>
  <text x="252" y="584" font-size="11" fill="#475569">Gift cards, alcohol (configurable)</text>

  <!-- ============================================================ -->
  <!--  CENTER PANEL: Tier Thresholds                               -->
  <!--  DB: pos_loyalty_tiers                                       -->
  <!-- ============================================================ -->
  <rect x="580" y="154" width="360" height="430" rx="8" fill="#161930" filter="url(#cardShadow)"/>
  <rect x="580" y="154" width="360" height="430" rx="8" fill="none" stroke="#1E2235" stroke-width="1"/>

  <text x="604" y="182" font-size="14" font-weight="700" fill="#FFFFFF">Tier Thresholds</text>
  <use href="#gearIcon" x="730" y="168" width="14" height="14" color="#F59E0B"/>
  <text x="604" y="198" font-size="9" fill="#475569">pos_loyalty_tiers</text>

  <!-- Bronze tier -->
  <!-- pos_loyalty_tiers: name='Bronze', min_points=0, multiplier=1.0 -->
  <rect x="604" y="210" width="316" height="70" rx="6" fill="url(#bronzeGrad)" stroke="#92400E" stroke-width="1"/>
  <text x="624" y="234" font-size="13" font-weight="700" fill="#FDE68A">Bronze</text>
  <use href="#gearIcon" x="690" y="222" width="12" height="12" color="#FDE68A"/>
  <text x="624" y="254" font-size="11" fill="#CBD5E1">Threshold: 0+ points</text>
  <text x="624" y="270" font-size="11" fill="#CBD5E1">Multiplier: 1.0x</text>
  <text x="870" y="234" font-size="11" fill="#FDE68A" text-anchor="end">Default</text>

  <!-- Silver tier -->
  <!-- pos_loyalty_tiers: name='Silver', min_points=1000, multiplier=1.2 -->
  <rect x="604" y="290" width="316" height="70" rx="6" fill="url(#silverGrad)" stroke="#475569" stroke-width="1"/>
  <text x="624" y="314" font-size="13" font-weight="700" fill="#CBD5E1">Silver</text>
  <use href="#gearIcon" x="678" y="302" width="12" height="12" color="#CBD5E1"/>
  <text x="624" y="334" font-size="11" fill="#CBD5E1">Threshold: 1,000+ points</text>
  <text x="624" y="350" font-size="11" fill="#CBD5E1">Multiplier: 1.2x</text>
  <text x="870" y="314" font-size="11" fill="#94A3B8" text-anchor="end">1.2x earn</text>

  <!-- Gold tier -->
  <!-- pos_loyalty_tiers: name='Gold', min_points=3000, multiplier=1.5 -->
  <rect x="604" y="370" width="316" height="70" rx="6" fill="url(#goldGrad)" stroke="#B45309" stroke-width="1"/>
  <text x="624" y="394" font-size="13" font-weight="700" fill="#FDE68A">Gold</text>
  <use href="#gearIcon" x="664" y="382" width="12" height="12" color="#FDE68A"/>
  <text x="624" y="414" font-size="11" fill="#CBD5E1">Threshold: 3,000+ points</text>
  <text x="624" y="430" font-size="11" fill="#CBD5E1">Multiplier: 1.5x</text>
  <text x="870" y="394" font-size="11" fill="#FDE68A" text-anchor="end">1.5x earn</text>

  <!-- Add tier button -->
  <rect x="604" y="452" width="120" height="26" rx="4" fill="#161930" stroke="#F59E0B" stroke-width="1"/>
  <text x="622" y="470" font-size="10" fill="#F59E0B">+ Add Tier</text>

  <!-- Rewards catalog -->
  <!-- pos_loyalty_rewards: name, points_cost, reward_type -->
  <text x="604" y="502" font-size="12" font-weight="600" fill="#FFFFFF">Rewards Catalog</text>
  <use href="#gearIcon" x="726" y="490" width="12" height="12" color="#F59E0B"/>
  <text x="604" y="516" font-size="9" fill="#475569">pos_loyalty_rewards</text>

  <use href="#rewardRow" x="604" y="524" width="316" height="28"/>
  <text x="620" y="542" font-size="11" fill="#CBD5E1">500 pts -> $5 off</text>
  <use href="#gearIcon" x="880" y="532" width="12" height="12" color="#475569"/>

  <use href="#rewardRow" x="604" y="558" width="316" height="28"/>
  <text x="620" y="576" font-size="11" fill="#CBD5E1">1,000 pts -> Free entree</text>
  <use href="#gearIcon" x="880" y="566" width="12" height="12" color="#475569"/>

  <use href="#rewardRow" x="604" y="592" width="316" height="28"/>
  <text x="620" y="610" font-size="11" fill="#CBD5E1">2,000 pts -> Free meal (2 people)</text>
  <use href="#gearIcon" x="880" y="600" width="12" height="12" color="#475569"/>

  <rect x="604" y="626" width="120" height="22" rx="4" fill="#161930" stroke="#F59E0B" stroke-width="1"/>
  <text x="620" y="641" font-size="10" fill="#F59E0B">+ Add Reward</text>

  <!-- ============================================================ -->
  <!--  RIGHT PANEL: Referral Bonuses & Enrollment                  -->
  <!--  DB: pos_loyalty_config, pos_referral_bonuses                -->
  <!-- ============================================================ -->
  <rect x="950" y="154" width="400" height="430" rx="8" fill="#161930" filter="url(#cardShadow)"/>
  <rect x="950" y="154" width="400" height="430" rx="8" fill="none" stroke="#1E2235" stroke-width="1"/>

  <!-- Referral Bonuses section -->
  <!-- pos_referral_bonuses: referrer_points, referee_points, enabled -->
  <text x="974" y="182" font-size="14" font-weight="700" fill="#FFFFFF">Referral Bonuses</text>
  <use href="#gearIcon" x="1116" y="168" width="14" height="14" color="#F59E0B"/>
  <text x="974" y="198" font-size="9" fill="#475569">pos_referral_bonuses</text>

  <text x="974" y="222" font-size="10" fill="#94A3B8">REFERRER REWARD</text>
  <use href="#gearIcon" x="1080" y="210" width="12" height="12" color="#475569"/>
  <use href="#inputField" x="974" y="228" width="264" height="30"/>
  <text x="992" y="248" font-size="13" fill="#FFFFFF">+500 bonus points</text>

  <text x="974" y="278" font-size="10" fill="#94A3B8">REFEREE (NEW MEMBER) REWARD</text>
  <use href="#gearIcon" x="1190" y="266" width="12" height="12" color="#475569"/>
  <use href="#inputField" x="974" y="284" width="264" height="30"/>
  <text x="992" y="304" font-size="13" fill="#FFFFFF">+100 welcome points</text>

  <text x="974" y="332" font-size="10" fill="#94A3B8">REFERRAL LIMIT PER MEMBER</text>
  <use href="#inputField" x="974" y="338" width="264" height="30"/>
  <text x="992" y="358" font-size="13" fill="#CBD5E1">10 referrals / month</text>

  <text x="974" y="386" font-size="10" fill="#94A3B8">REFERRAL TRACKING</text>
  <text x="974" y="402" font-size="11" fill="#CBD5E1">Unique referral code per member</text>
  <text x="974" y="418" font-size="11" fill="#CBD5E1">QR code printable at register</text>

  <!-- Enrollment Channels -->
  <!-- pos_loyalty_config.signup_channels: string[] -->
  <rect x="950" y="434" width="400" height="1" fill="#1E2235"/>
  <text x="974" y="458" font-size="12" font-weight="600" fill="#FFFFFF">Enrollment Channels</text>
  <use href="#gearIcon" x="1112" y="444" width="14" height="14" color="#F59E0B"/>
  <text x="974" y="472" font-size="9" fill="#475569">pos_loyalty_config.signup_channels</text>

  <text x="992" y="494" font-size="11" fill="#CBD5E1">Register (cashier enrolls)</text>
  <use href="#toggleOn" x="1282" y="482" width="38" height="20"/>

  <text x="992" y="518" font-size="11" fill="#CBD5E1">Online ordering checkout</text>
  <use href="#toggleOn" x="1282" y="506" width="38" height="20"/>

  <text x="992" y="542" font-size="11" fill="#CBD5E1">QR code at table</text>
  <use href="#toggleOn" x="1282" y="530" width="38" height="20"/>

  <text x="992" y="566" font-size="11" fill="#475569">Mobile app (future)</text>
  <use href="#toggleOff" x="1282" y="554" width="38" height="20"/>

  <!-- ============================================================ -->
  <!--  BOTTOM: Register Workflow & Auto-Enrollment                 -->
  <!--  DB: pos_loyalty_config (workflow settings)                  -->
  <!-- ============================================================ -->
  <rect x="210" y="600" width="1142" height="120" rx="8" fill="#161930" filter="url(#cardShadow)"/>
  <rect x="210" y="600" width="1142" height="120" rx="8" fill="none" stroke="#60A5FA" stroke-width="1"/>

  <text x="234" y="628" font-size="13" font-weight="700" fill="#60A5FA">Register Workflow</text>
  <use href="#gearIcon" x="370" y="614" width="14" height="14" color="#60A5FA"/>

  <text x="234" y="648" font-size="11" fill="#CBD5E1">Phone# lookup at checkout -- prompt: "Earn points? Enter phone"</text>
  <text x="234" y="666" font-size="11" fill="#CBD5E1">Auto-earn on payment -- points credited to pos_loyalty_events in real-time</text>
  <text x="234" y="684" font-size="11" fill="#CBD5E1">Tier auto-upgrade -- evaluated on every points credit event</text>
  <text x="234" y="702" font-size="11" fill="#CBD5E1">Birthday auto-bonus -- triggered by CRON matching pos_customers.birthday</text>

  <!-- Auto-enroll toggle -->
  <text x="900" y="648" font-size="11" fill="#94A3B8">AUTO-ENROLL ON FIRST PURCHASE</text>
  <use href="#gearIcon" x="1120" y="636" width="12" height="12" color="#475569"/>
  <use href="#toggleOff" x="1282" y="636" width="38" height="20"/>

  <text x="900" y="672" font-size="11" fill="#94A3B8">REQUIRE PHONE FOR ENROLLMENT</text>
  <use href="#toggleOn" x="1282" y="660" width="38" height="20"/>

  <text x="900" y="696" font-size="11" fill="#94A3B8">SEND WELCOME SMS ON SIGNUP</text>
  <use href="#toggleOn" x="1282" y="684" width="38" height="20"/>

  <!-- ============================================================ -->
  <!--  BOTTOM: Save Button                                         -->
  <!-- ============================================================ -->
  <rect x="210" y="740" width="1142" height="44" rx="8" fill="url(#amberBtnGrad)"/>
  <text x="781" y="768" font-size="15" font-weight="700" fill="#000" text-anchor="middle">Save Loyalty Settings</text>

  <!-- ============================================================ -->
  <!--  FOOTER                                                      -->
  <!-- ============================================================ -->
  <text x="683" y="814" font-size="10" text-anchor="middle" fill="#475569">Synalux POS -- Loyalty Program -- pos_customers + pos_loyalty_events + pos_loyalty_tiers + pos_loyalty_rewards + pos_referral_bonuses + pos_loyalty_config</text>
  <text x="683" y="832" font-size="9" text-anchor="middle" fill="#2A2E45">Phone lookup -- Bronze/Silver/Gold tiers -- Referral bonuses -- Auto-enrollment -- Admin-configurable</text>

</svg>