<svg role="img" aria-labelledby="title-settings_scheduling-svg" xmlns="http://www.w3.org/2000/svg" viewBox="0 0 1366 1024" font-family="-apple-system,system-ui,BlinkMacSystemFont,sans-serif">

  <!-- ============================================================
       SETTINGS: Staff Shift Scheduling
       DB: pos_schedules, pos_shift_templates, pos_employees,
           pos_labor_rules, pos_schedule_conflicts
       Admin portal — all fields editable + saveable
       ============================================================ -->

  <title id="title-settings_scheduling-svg">Synalux POS — scheduling</title>
  <desc>Synalux POS mockup screen for scheduling. All UI elements admin-configurable.</desc>
  <defs>
    <!-- Gradient: header bar -->
    <linearGradient id="headerGrad" x1="0" y1="0" x2="0" y2="1">
      <stop offset="0%" stop-color="#1E2235"/>
      <stop offset="100%" stop-color="#181B30"/>
    </linearGradient>
    <!-- Gradient: amber button -->
    <linearGradient id="amberBtnGrad" x1="0" y1="0" x2="0" y2="1">
      <stop offset="0%" stop-color="#FBBF24"/>
      <stop offset="100%" stop-color="#F59E0B"/>
    </linearGradient>
    <!-- Gradient: card surface -->
    <linearGradient id="cardGrad" x1="0" y1="0" x2="0" y2="1">
      <stop offset="0%" stop-color="#1A1D2E"/>
      <stop offset="100%" stop-color="#161925"/>
    </linearGradient>
    <!-- Gradient: nav sidebar -->
    <linearGradient id="navGrad" x1="0" y1="0" x2="1" y2="0">
      <stop offset="0%" stop-color="#10122A"/>
      <stop offset="100%" stop-color="#161930"/>
    </linearGradient>
    <!-- Shadow filter -->
    <filter id="shadow" x="-4%" y="-4%" width="108%" height="112%">
      <feDropShadow dx="0" dy="2" stdDeviation="4" flood-color="#000000" flood-opacity="0.35"/>
    </filter>
    <filter id="shadowSm" x="-2%" y="-2%" width="104%" height="108%">
      <feDropShadow dx="0" dy="1" stdDeviation="2" flood-color="#000000" flood-opacity="0.25"/>
    </filter>

    <!-- ===== SYMBOLS FOR REPEATED ELEMENTS ===== -->

    <!-- Admin gear icon (12x12) — placed on editable fields -->
    <symbol id="adminGear" viewBox="0 0 12 12">
      <path d="M6 0l.9 2.1L9 1.5l-.6 2.1H10.5L9 5.1l1.5 1.5-2.1-.6.6 2.1-1.5-1.5L6 8.7 4.5 6.6 3 8.1l.6-2.1-2.1.6L3 5.1.5 3.6H3L2.4 1.5l2.1.6z"
        fill="#F59E0B" opacity="0.7"/>
    </symbol>

    <!-- Nav item (inactive) -->
    <symbol id="navItem" viewBox="0 0 210 32">
      <rect width="210" height="32" fill="transparent"/>
  <!-- Synalux POS -->
    </symbol>

    <!-- Nav item (active) -->
    <symbol id="navItemActive" viewBox="0 0 210 36">
      <rect width="210" height="36" fill="#1E2235"/>
      <rect width="3" height="36" fill="#F59E0B"/>
    </symbol>

    <!-- Shift block template (colored time block in grid) -->
    <symbol id="shiftBlock" viewBox="0 0 80 30">
      <rect width="80" height="30" rx="4" fill="inherit" opacity="0.85"/>
    </symbol>

    <!-- Dropdown chevron -->
    <symbol id="chevronDown" viewBox="0 0 10 6">
      <path d="M0 0l5 6 5-6z" fill="#64748B"/>
    </symbol>

    <!-- Toggle switch ON -->
    <symbol id="toggleOn" viewBox="0 0 40 20">
      <rect width="40" height="20" rx="10" fill="#22C55E"/>
      <circle cx="28" cy="10" r="8" fill="#FFFFFF"/>
    </symbol>

    <!-- Toggle switch OFF -->
    <symbol id="toggleOff" viewBox="0 0 40 20">
      <rect width="40" height="20" rx="10" fill="#374151"/>
      <circle cx="12" cy="10" r="8" fill="#94A3B8"/>
    </symbol>

    <!-- Employee avatar circle -->
    <symbol id="avatar" viewBox="0 0 20 20">
      <circle cx="10" cy="10" r="10" fill="inherit"/>
    </symbol>

    <!-- OT warning badge -->
    <symbol id="otBadge" viewBox="0 0 34 16">
      <rect width="34" height="16" rx="4" fill="#7F1D1D"/>
      <text x="17" y="12" font-size="9" font-weight="700" fill="#FCA5A5" text-anchor="middle">OT</text>
    </symbol>

    <!-- Radio button: selected -->
    <symbol id="radioOn" viewBox="0 0 14 14">
      <circle cx="7" cy="7" r="7" fill="none" stroke="#F59E0B" stroke-width="2"/>
      <circle cx="7" cy="7" r="3" fill="#F59E0B"/>
    </symbol>

    <!-- Radio button: unselected -->
    <symbol id="radioOff" viewBox="0 0 14 14">
      <circle cx="7" cy="7" r="7" fill="none" stroke="#2A2E45" stroke-width="2"/>
    </symbol>

    <!-- Warning banner accent -->
    <symbol id="warnAccent" viewBox="0 0 4 38">
      <rect width="4" height="38" fill="#F59E0B"/>
    </symbol>

    <!-- Role color swatch -->
    <symbol id="colorSwatch" viewBox="0 0 12 12">
      <rect width="12" height="12" rx="2" fill="inherit"/>
    </symbol>
  </defs>

  <!-- ===== BACKGROUND ===== -->
  <!-- DB: pos_venue_settings.theme -->
  <rect width="1366" height="1024" fill="#0C0E1A"/>

  <!-- ===== LEFT NAV SIDEBAR (210px) ===== -->
  <!-- DB: pos_admin_navigation -->
  <rect x="0" y="0" width="210" height="1024" fill="url(#navGrad)"/>
  <rect x="209" y="0" width="1" height="1024" fill="#2A2E45"/>

  <text x="16" y="32" font-size="13" font-weight="700" fill="#F59E0B">Back Office</text>
  <use href="#adminGear" x="96" y="21" width="12" height="12"/>

  <!-- DB: pos_admin_nav_items — ordered by sort_order -->
  <text x="16" y="68" font-size="12" fill="#64748B">Restaurant Info</text>
  <text x="16" y="100" font-size="12" fill="#64748B">Menu Builder</text>
  <text x="16" y="132" font-size="12" fill="#64748B">Taxes</text>
  <text x="16" y="164" font-size="12" fill="#64748B">Employees</text>
  <text x="16" y="196" font-size="12" fill="#64748B">Equipment</text>
  <text x="16" y="228" font-size="12" fill="#64748B">Floor Plans</text>
  <text x="16" y="260" font-size="12" fill="#64748B">Payments</text>
  <text x="16" y="292" font-size="12" fill="#64748B">Timeclock</text>

  <!-- Scheduling — active nav item -->
  <use href="#navItemActive" x="0" y="305" width="210" height="36"/>
  <text x="16" y="329" font-size="12" font-weight="700" fill="#F59E0B">Scheduling</text>

  <text x="16" y="372" font-size="12" fill="#64748B">Reports</text>
  <text x="16" y="404" font-size="12" fill="#64748B">Revenue Centers</text>
  <text x="16" y="436" font-size="12" fill="#64748B">Integrations</text>
  <text x="16" y="468" font-size="12" fill="#64748B">Gift Cards</text>
  <text x="16" y="500" font-size="12" fill="#64748B">Loyalty</text>
  <text x="16" y="532" font-size="12" fill="#64748B">Tip Pooling</text>
  <text x="16" y="564" font-size="12" fill="#64748B">Discounts</text>
  <text x="16" y="596" font-size="12" fill="#64748B">Price Levels</text>
  <text x="16" y="628" font-size="12" fill="#64748B">Vendors</text>
  <text x="16" y="660" font-size="12" fill="#64748B">Inventory</text>
  <text x="16" y="692" font-size="12" fill="#64748B">Recipes</text>
  <text x="16" y="724" font-size="12" fill="#64748B">Payroll</text>
  <text x="16" y="756" font-size="12" fill="#64748B">Combos</text>

  <!-- ============================================================
       MAIN CONTENT AREA (starts x=210)
       Grid area: x=210 to x=990 (780px)
       Right panel: x=990 to x=1366 (376px)
       ============================================================ -->

  <!-- Header bar -->
  <!-- DB: pos_schedules.week_start_date -->
  <rect x="210" y="0" width="1156" height="58" fill="url(#headerGrad)" filter="url(#shadowSm)"/>
  <text x="228" y="26" font-size="17" font-weight="700" fill="#E2E8F0">Schedule – Week of May 26 - Jun 1, 2026</text>
  <text x="228" y="46" font-size="11" fill="#64748B">Predictive scheduling | Conflict detection | Labor cost tracking</text>
  <use href="#adminGear" x="580" y="36" width="12" height="12"/>

  <!-- Header buttons -->
  <!-- DB: pos_schedules.status (draft/published) -->
  <rect x="762" y="12" width="134" height="32" rx="6" fill="url(#amberBtnGrad)" filter="url(#shadowSm)"/>
  <text x="783" y="33" font-size="12" font-weight="700" fill="#000000">Publish Schedule</text>

  <rect x="904" y="12" width="86" height="32" rx="6" fill="#1A1D2E" stroke="#2A2E45" stroke-width="1"/>
  <text x="924" y="33" font-size="12" fill="#E2E8F0">+ Add Shift</text>

  <rect x="998" y="12" width="114" height="32" rx="6" fill="#1A1D2E" stroke="#2A2E45" stroke-width="1"/>
  <text x="1014" y="33" font-size="12" fill="#94A3B8">Copy Last Week</text>

  <!-- ===== WARNING BANNER ===== -->
  <!-- DB: pos_labor_rules.predictive_scheduling_enabled, pos_labor_rules.jurisdiction -->
  <rect x="210" y="58" width="780" height="38" fill="#2D1F0A" stroke="#F59E0B" stroke-width="1"/>
  <use href="#warnAccent" x="210" y="58" width="4" height="38"/>
  <text x="222" y="73" font-size="11" font-weight="700" fill="#F59E0B">Predictive Scheduling: Chicago Fair Workweek</text>
  <use href="#adminGear" x="460" y="63" width="12" height="12"/>
  <text x="222" y="89" font-size="11" fill="#FCD34D">7 days advance notice required. 3 staff not yet notified. Publish now to avoid compliance penalty.</text>

  <!-- ============================================================
       WEEKLY SCHEDULE GRID
       DB: pos_schedules → pos_schedule_shifts (employee_id, date, start_time, end_time, break_min, station)
       Starts y=96
       ============================================================ -->

  <!-- Grid background -->
  <rect x="210" y="96" width="780" height="848" fill="#0C0E1A"/>

  <!-- Column header background -->
  <rect x="210" y="96" width="780" height="36" fill="url(#headerGrad)"/>

  <!-- Column header texts -->
  <!-- DB: generated from week_start_date -->
  <text x="220" y="119" font-size="11" font-weight="700" fill="#64748B">STAFF</text>
  <text x="360" y="119" font-size="11" font-weight="700" fill="#94A3B8">MON 5/26</text>
  <text x="446" y="119" font-size="11" font-weight="700" fill="#94A3B8">TUE 5/27</text>
  <text x="532" y="119" font-size="11" font-weight="700" fill="#94A3B8">WED 5/28</text>
  <text x="618" y="119" font-size="11" font-weight="700" fill="#94A3B8">THU 5/29</text>
  <text x="704" y="119" font-size="11" font-weight="700" fill="#94A3B8">FRI 5/30</text>
  <text x="790" y="119" font-size="11" font-weight="700" fill="#94A3B8">SAT 5/31</text>
  <text x="876" y="119" font-size="11" font-weight="700" fill="#94A3B8">SUN 6/1</text>
  <text x="944" y="119" font-size="11" font-weight="700" fill="#64748B">HRS</text>

  <!-- Vertical column separators -->
  <line x1="340" y1="96" x2="340" y2="910" stroke="#2A2E45" stroke-width="1"/>
  <line x1="426" y1="96" x2="426" y2="910" stroke="#2A2E45" stroke-width="1"/>
  <line x1="512" y1="96" x2="512" y2="910" stroke="#2A2E45" stroke-width="1"/>
  <line x1="598" y1="96" x2="598" y2="910" stroke="#2A2E45" stroke-width="1"/>
  <line x1="684" y1="96" x2="684" y2="910" stroke="#2A2E45" stroke-width="1"/>
  <line x1="770" y1="96" x2="770" y2="910" stroke="#2A2E45" stroke-width="1"/>
  <line x1="856" y1="96" x2="856" y2="910" stroke="#2A2E45" stroke-width="1"/>
  <line x1="942" y1="96" x2="942" y2="910" stroke="#2A2E45" stroke-width="1"/>

  <!-- ============================================================
       SCHEDULE ROWS
       DB: pos_schedule_shifts JOIN pos_employees
       Each row = employee, 7 day slots, total hours
       Row height: 72px
       ============================================================ -->

  <!-- ROW 1: Sarah M. – Server (blue) -->
  <!-- DB: pos_employees.id=1001, role=server -->
  <rect x="210" y="132" width="780" height="72" fill="#0C0E1A"/>
  <line x1="210" y1="132" x2="990" y2="132" stroke="#2A2E45" stroke-width="1"/>
  <circle cx="228" cy="162" r="10" fill="#1D4ED8"/>
  <text x="222" y="166" font-size="9" font-weight="700" fill="#FFFFFF">SM</text>
  <text x="244" y="158" font-size="12" font-weight="600" fill="#E2E8F0">Sarah M.</text>
  <text x="244" y="173" font-size="10" fill="#64748B">Server</text>
  <use href="#adminGear" x="290" y="149" width="10" height="10"/>
  <!-- Mon 10a-4p -->
  <rect x="343" y="137" width="80" height="30" rx="4" fill="#1D4ED8" opacity="0.85"/>
  <text x="348" y="150" font-size="9" font-weight="600" fill="#BFDBFE">10a-4p</text>
  <text x="348" y="162" font-size="8" fill="#93C5FD">6h</text>
  <!-- Tue 10a-4p -->
  <rect x="429" y="137" width="80" height="30" rx="4" fill="#1D4ED8" opacity="0.85"/>
  <text x="434" y="150" font-size="9" font-weight="600" fill="#BFDBFE">10a-4p</text>
  <text x="434" y="162" font-size="8" fill="#93C5FD">6h</text>
  <!-- Wed: off -->
  <text x="540" y="160" font-size="10" fill="#2A2E45">--</text>
  <!-- Thu 5p-11p -->
  <rect x="601" y="137" width="80" height="30" rx="4" fill="#1D4ED8" opacity="0.85"/>
  <text x="606" y="150" font-size="9" font-weight="600" fill="#BFDBFE">5p-11p</text>
  <text x="606" y="162" font-size="8" fill="#93C5FD">6h</text>
  <!-- Fri 5p-11p -->
  <rect x="687" y="137" width="80" height="30" rx="4" fill="#1D4ED8" opacity="0.85"/>
  <text x="692" y="150" font-size="9" font-weight="600" fill="#BFDBFE">5p-11p</text>
  <text x="692" y="162" font-size="8" fill="#93C5FD">6h</text>
  <!-- Sat 5p-11p -->
  <rect x="773" y="137" width="80" height="30" rx="4" fill="#1D4ED8" opacity="0.85"/>
  <text x="778" y="150" font-size="9" font-weight="600" fill="#BFDBFE">5p-11p</text>
  <text x="778" y="162" font-size="8" fill="#93C5FD">6h</text>
  <!-- Sun: off -->
  <text x="882" y="160" font-size="10" fill="#2A2E45">--</text>
  <!-- Total -->
  <text x="946" y="165" font-size="12" font-weight="700" fill="#E2E8F0">30h</text>

  <!-- ROW 2: John D. – Server (blue) -->
  <!-- DB: pos_employees.id=1002, role=server -->
  <rect x="210" y="204" width="780" height="72" fill="#111325"/>
  <line x1="210" y1="204" x2="990" y2="204" stroke="#2A2E45" stroke-width="1"/>
  <circle cx="228" cy="234" r="10" fill="#1D4ED8"/>
  <text x="222" y="238" font-size="9" font-weight="700" fill="#FFFFFF">JD</text>
  <text x="244" y="230" font-size="12" font-weight="600" fill="#E2E8F0">John D.</text>
  <text x="244" y="245" font-size="10" fill="#64748B">Server</text>
  <use href="#adminGear" x="290" y="221" width="10" height="10"/>
  <!-- Mon 5p-11p -->
  <rect x="343" y="209" width="80" height="30" rx="4" fill="#1D4ED8" opacity="0.85"/>
  <text x="348" y="222" font-size="9" font-weight="600" fill="#BFDBFE">5p-11p</text>
  <text x="348" y="234" font-size="8" fill="#93C5FD">6h</text>
  <!-- Tue: off -->
  <text x="454" y="232" font-size="10" fill="#2A2E45">--</text>
  <!-- Wed 5p-11p -->
  <rect x="515" y="209" width="80" height="30" rx="4" fill="#1D4ED8" opacity="0.85"/>
  <text x="520" y="222" font-size="9" font-weight="600" fill="#BFDBFE">5p-11p</text>
  <text x="520" y="234" font-size="8" fill="#93C5FD">6h</text>
  <!-- Thu 5p-11p -->
  <rect x="601" y="209" width="80" height="30" rx="4" fill="#1D4ED8" opacity="0.85"/>
  <text x="606" y="222" font-size="9" font-weight="600" fill="#BFDBFE">5p-11p</text>
  <text x="606" y="234" font-size="8" fill="#93C5FD">6h</text>
  <!-- Fri: off -->
  <text x="712" y="232" font-size="10" fill="#2A2E45">--</text>
  <!-- Sat: vacation -->
  <!-- DB: pos_time_off_requests.status=approved -->
  <rect x="773" y="209" width="80" height="30" rx="4" fill="#78350F" stroke="#F59E0B" stroke-width="1"/>
  <text x="784" y="222" font-size="9" font-weight="600" fill="#FCD34D">Vacation</text>
  <text x="786" y="234" font-size="8" fill="#F59E0B">OFF</text>
  <!-- Sun 10a-4p -->
  <rect x="859" y="209" width="80" height="30" rx="4" fill="#1D4ED8" opacity="0.85"/>
  <text x="864" y="222" font-size="9" font-weight="600" fill="#BFDBFE">10a-4p</text>
  <text x="864" y="234" font-size="8" fill="#93C5FD">6h</text>
  <!-- Total -->
  <text x="946" y="237" font-size="12" font-weight="700" fill="#E2E8F0">24h</text>

  <!-- ROW 3: Mike T. – Bartender (purple) -->
  <!-- DB: pos_employees.id=1003, role=bartender -->
  <rect x="210" y="276" width="780" height="72" fill="#0C0E1A"/>
  <line x1="210" y1="276" x2="990" y2="276" stroke="#2A2E45" stroke-width="1"/>
  <circle cx="228" cy="306" r="10" fill="#7C3AED"/>
  <text x="222" y="310" font-size="9" font-weight="700" fill="#FFFFFF">MT</text>
  <text x="244" y="302" font-size="12" font-weight="600" fill="#E2E8F0">Mike T.</text>
  <text x="244" y="317" font-size="10" fill="#64748B">Bartender</text>
  <use href="#adminGear" x="305" y="293" width="10" height="10"/>
  <!-- Mon-Tue: off -->
  <text x="370" y="304" font-size="10" fill="#2A2E45">--</text>
  <text x="454" y="304" font-size="10" fill="#2A2E45">--</text>
  <!-- Wed-Sat 5p-11p -->
  <rect x="515" y="281" width="80" height="30" rx="4" fill="#6D28D9" opacity="0.85"/>
  <text x="520" y="294" font-size="9" font-weight="600" fill="#DDD6FE">5p-11p</text>
  <text x="520" y="306" font-size="8" fill="#C4B5FD">6h</text>
  <rect x="601" y="281" width="80" height="30" rx="4" fill="#6D28D9" opacity="0.85"/>
  <text x="606" y="294" font-size="9" font-weight="600" fill="#DDD6FE">5p-11p</text>
  <text x="606" y="306" font-size="8" fill="#C4B5FD">6h</text>
  <rect x="687" y="281" width="80" height="30" rx="4" fill="#6D28D9" opacity="0.85"/>
  <text x="692" y="294" font-size="9" font-weight="600" fill="#DDD6FE">5p-11p</text>
  <text x="692" y="306" font-size="8" fill="#C4B5FD">6h</text>
  <rect x="773" y="281" width="80" height="30" rx="4" fill="#6D28D9" opacity="0.85"/>
  <text x="778" y="294" font-size="9" font-weight="600" fill="#DDD6FE">5p-11p</text>
  <text x="778" y="306" font-size="8" fill="#C4B5FD">6h</text>
  <!-- Sun: off -->
  <text x="882" y="304" font-size="10" fill="#2A2E45">--</text>
  <text x="946" y="309" font-size="12" font-weight="700" fill="#E2E8F0">24h</text>

  <!-- ROW 4: Ana L. – Cashier (green) -->
  <!-- DB: pos_employees.id=1004, role=cashier -->
  <rect x="210" y="348" width="780" height="72" fill="#111325"/>
  <line x1="210" y1="348" x2="990" y2="348" stroke="#2A2E45" stroke-width="1"/>
  <circle cx="228" cy="378" r="10" fill="#065F46"/>
  <text x="222" y="382" font-size="9" font-weight="700" fill="#FFFFFF">AL</text>
  <text x="244" y="374" font-size="12" font-weight="600" fill="#E2E8F0">Ana L.</text>
  <text x="244" y="389" font-size="10" fill="#64748B">Cashier</text>
  <use href="#adminGear" x="290" y="365" width="10" height="10"/>
  <!-- Mon-Fri 9a-2p -->
  <rect x="343" y="353" width="80" height="30" rx="4" fill="#065F46" opacity="0.9"/>
  <text x="348" y="366" font-size="9" font-weight="600" fill="#A7F3D0">9a-2p</text>
  <text x="348" y="378" font-size="8" fill="#6EE7B7">5h</text>
  <rect x="429" y="353" width="80" height="30" rx="4" fill="#065F46" opacity="0.9"/>
  <text x="434" y="366" font-size="9" font-weight="600" fill="#A7F3D0">9a-2p</text>
  <text x="434" y="378" font-size="8" fill="#6EE7B7">5h</text>
  <rect x="515" y="353" width="80" height="30" rx="4" fill="#065F46" opacity="0.9"/>
  <text x="520" y="366" font-size="9" font-weight="600" fill="#A7F3D0">9a-2p</text>
  <text x="520" y="378" font-size="8" fill="#6EE7B7">5h</text>
  <rect x="601" y="353" width="80" height="30" rx="4" fill="#065F46" opacity="0.9"/>
  <text x="606" y="366" font-size="9" font-weight="600" fill="#A7F3D0">9a-2p</text>
  <text x="606" y="378" font-size="8" fill="#6EE7B7">5h</text>
  <rect x="687" y="353" width="80" height="30" rx="4" fill="#065F46" opacity="0.9"/>
  <text x="692" y="366" font-size="9" font-weight="600" fill="#A7F3D0">9a-2p</text>
  <text x="692" y="378" font-size="8" fill="#6EE7B7">5h</text>
  <!-- Sat-Sun: off -->
  <text x="800" y="376" font-size="10" fill="#2A2E45">--</text>
  <text x="882" y="376" font-size="10" fill="#2A2E45">--</text>
  <text x="946" y="381" font-size="12" font-weight="700" fill="#E2E8F0">25h</text>

  <!-- ROW 5: Carlos R. – Cook (amber) – OVERTIME -->
  <!-- DB: pos_employees.id=1005, role=cook -->
  <!-- DB: pos_schedule_conflicts.type=overtime, employee_id=1005, threshold_hours=40 -->
  <rect x="210" y="420" width="780" height="72" fill="#0C0E1A"/>
  <line x1="210" y1="420" x2="990" y2="420" stroke="#2A2E45" stroke-width="1"/>
  <circle cx="228" cy="450" r="10" fill="#B45309"/>
  <text x="222" y="454" font-size="9" font-weight="700" fill="#FFFFFF">CR</text>
  <text x="244" y="446" font-size="12" font-weight="600" fill="#E2E8F0">Carlos R.</text>
  <text x="244" y="461" font-size="10" fill="#64748B">Cook</text>
  <use href="#adminGear" x="278" y="437" width="10" height="10"/>
  <!-- Mon-Sat 8a-4p -->
  <rect x="343" y="425" width="80" height="30" rx="4" fill="#B45309" opacity="0.85"/>
  <text x="348" y="438" font-size="9" font-weight="600" fill="#FDE68A">8a-4p</text>
  <text x="348" y="450" font-size="8" fill="#FCD34D">8h</text>
  <rect x="429" y="425" width="80" height="30" rx="4" fill="#B45309" opacity="0.85"/>
  <text x="434" y="438" font-size="9" font-weight="600" fill="#FDE68A">8a-4p</text>
  <text x="434" y="450" font-size="8" fill="#FCD34D">8h</text>
  <rect x="515" y="425" width="80" height="30" rx="4" fill="#B45309" opacity="0.85"/>
  <text x="520" y="438" font-size="9" font-weight="600" fill="#FDE68A">8a-4p</text>
  <text x="520" y="450" font-size="8" fill="#FCD34D">8h</text>
  <rect x="601" y="425" width="80" height="30" rx="4" fill="#B45309" opacity="0.85"/>
  <text x="606" y="438" font-size="9" font-weight="600" fill="#FDE68A">8a-4p</text>
  <text x="606" y="450" font-size="8" fill="#FCD34D">8h</text>
  <rect x="687" y="425" width="80" height="30" rx="4" fill="#B45309" opacity="0.85"/>
  <text x="692" y="438" font-size="9" font-weight="600" fill="#FDE68A">8a-4p</text>
  <text x="692" y="450" font-size="8" fill="#FCD34D">8h</text>
  <rect x="773" y="425" width="80" height="30" rx="4" fill="#B45309" opacity="0.85"/>
  <text x="778" y="438" font-size="9" font-weight="600" fill="#FDE68A">8a-4p</text>
  <text x="778" y="450" font-size="8" fill="#FCD34D">8h</text>
  <!-- Sun: off -->
  <text x="882" y="448" font-size="10" fill="#2A2E45">--</text>
  <!-- Total + OT badge -->
  <text x="946" y="447" font-size="12" font-weight="700" fill="#EF4444">48h</text>
  <use href="#otBadge" x="942" y="450" width="34" height="16"/>

  <!-- ROW 6: Lisa K. – Host (teal) -->
  <!-- DB: pos_employees.id=1006, role=host -->
  <rect x="210" y="492" width="780" height="72" fill="#111325"/>
  <line x1="210" y1="492" x2="990" y2="492" stroke="#2A2E45" stroke-width="1"/>
  <circle cx="228" cy="522" r="10" fill="#0F766E"/>
  <text x="222" y="526" font-size="9" font-weight="700" fill="#FFFFFF">LK</text>
  <text x="244" y="518" font-size="12" font-weight="600" fill="#E2E8F0">Lisa K.</text>
  <text x="244" y="533" font-size="10" fill="#64748B">Host</text>
  <use href="#adminGear" x="275" y="509" width="10" height="10"/>
  <!-- Mon-Thu: off -->
  <text x="370" y="520" font-size="10" fill="#2A2E45">--</text>
  <text x="454" y="520" font-size="10" fill="#2A2E45">--</text>
  <text x="540" y="520" font-size="10" fill="#2A2E45">--</text>
  <text x="626" y="520" font-size="10" fill="#2A2E45">--</text>
  <!-- Fri 5p-10p -->
  <rect x="687" y="497" width="80" height="30" rx="4" fill="#0F766E" opacity="0.85"/>
  <text x="692" y="510" font-size="9" font-weight="600" fill="#99F6E4">5p-10p</text>
  <text x="692" y="522" font-size="8" fill="#5EEAD4">5h</text>
  <!-- Sat 12p-8p -->
  <rect x="773" y="497" width="80" height="30" rx="4" fill="#0F766E" opacity="0.85"/>
  <text x="778" y="510" font-size="9" font-weight="600" fill="#99F6E4">12p-8p</text>
  <text x="778" y="522" font-size="8" fill="#5EEAD4">8h</text>
  <!-- Sun 12p-6p -->
  <rect x="859" y="497" width="80" height="30" rx="4" fill="#0F766E" opacity="0.85"/>
  <text x="864" y="510" font-size="9" font-weight="600" fill="#99F6E4">12p-6p</text>
  <text x="864" y="522" font-size="8" fill="#5EEAD4">6h</text>
  <text x="946" y="525" font-size="12" font-weight="700" fill="#E2E8F0">19h</text>

  <!-- ROW 7: Tom W. – Server (blue) -->
  <!-- DB: pos_employees.id=1007, role=server -->
  <rect x="210" y="564" width="780" height="72" fill="#0C0E1A"/>
  <line x1="210" y1="564" x2="990" y2="564" stroke="#2A2E45" stroke-width="1"/>
  <circle cx="228" cy="594" r="10" fill="#1D4ED8"/>
  <text x="222" y="598" font-size="9" font-weight="700" fill="#FFFFFF">TW</text>
  <text x="244" y="590" font-size="12" font-weight="600" fill="#E2E8F0">Tom W.</text>
  <text x="244" y="605" font-size="10" fill="#64748B">Server</text>
  <use href="#adminGear" x="290" y="581" width="10" height="10"/>
  <!-- Mon: off -->
  <text x="370" y="592" font-size="10" fill="#2A2E45">--</text>
  <!-- Tue 11a-5p -->
  <rect x="429" y="569" width="80" height="30" rx="4" fill="#1D4ED8" opacity="0.85"/>
  <text x="434" y="582" font-size="9" font-weight="600" fill="#BFDBFE">11a-5p</text>
  <text x="434" y="594" font-size="8" fill="#93C5FD">6h</text>
  <!-- Wed 11a-5p -->
  <rect x="515" y="569" width="80" height="30" rx="4" fill="#1D4ED8" opacity="0.85"/>
  <text x="520" y="582" font-size="9" font-weight="600" fill="#BFDBFE">11a-5p</text>
  <text x="520" y="594" font-size="8" fill="#93C5FD">6h</text>
  <!-- Thu-Sat: off -->
  <text x="626" y="592" font-size="10" fill="#2A2E45">--</text>
  <text x="712" y="592" font-size="10" fill="#2A2E45">--</text>
  <text x="800" y="592" font-size="10" fill="#2A2E45">--</text>
  <!-- Sun 5p-10p -->
  <rect x="859" y="569" width="80" height="30" rx="4" fill="#1D4ED8" opacity="0.85"/>
  <text x="864" y="582" font-size="9" font-weight="600" fill="#BFDBFE">5p-10p</text>
  <text x="864" y="594" font-size="8" fill="#93C5FD">5h</text>
  <text x="946" y="597" font-size="12" font-weight="700" fill="#E2E8F0">17h</text>

  <!-- ROW 8: Amy S. – Busser (sky blue) -->
  <!-- DB: pos_employees.id=1008, role=busser -->
  <rect x="210" y="636" width="780" height="72" fill="#111325"/>
  <line x1="210" y1="636" x2="990" y2="636" stroke="#2A2E45" stroke-width="1"/>
  <circle cx="228" cy="666" r="10" fill="#0369A1"/>
  <text x="222" y="670" font-size="9" font-weight="700" fill="#FFFFFF">AS</text>
  <text x="244" y="662" font-size="12" font-weight="600" fill="#E2E8F0">Amy S.</text>
  <text x="244" y="677" font-size="10" fill="#64748B">Busser</text>
  <use href="#adminGear" x="290" y="653" width="10" height="10"/>
  <!-- Mon-Thu: off -->
  <text x="370" y="664" font-size="10" fill="#2A2E45">--</text>
  <text x="454" y="664" font-size="10" fill="#2A2E45">--</text>
  <text x="540" y="664" font-size="10" fill="#2A2E45">--</text>
  <text x="626" y="664" font-size="10" fill="#2A2E45">--</text>
  <!-- Fri 5p-11p -->
  <rect x="687" y="641" width="80" height="30" rx="4" fill="#0369A1" opacity="0.85"/>
  <text x="692" y="654" font-size="9" font-weight="600" fill="#BAE6FD">5p-11p</text>
  <text x="692" y="666" font-size="8" fill="#7DD3FC">6h</text>
  <!-- Sat 5p-11p -->
  <rect x="773" y="641" width="80" height="30" rx="4" fill="#0369A1" opacity="0.85"/>
  <text x="778" y="654" font-size="9" font-weight="600" fill="#BAE6FD">5p-11p</text>
  <text x="778" y="666" font-size="8" fill="#7DD3FC">6h</text>
  <!-- Sun 12p-5p -->
  <rect x="859" y="641" width="80" height="30" rx="4" fill="#0369A1" opacity="0.85"/>
  <text x="864" y="654" font-size="9" font-weight="600" fill="#BAE6FD">12p-5p</text>
  <text x="864" y="666" font-size="8" fill="#7DD3FC">5h</text>
  <text x="946" y="669" font-size="12" font-weight="700" fill="#E2E8F0">17h</text>

  <!-- ROW 9: Dan O. – Manager (red) -->
  <!-- DB: pos_employees.id=1009, role=manager -->
  <rect x="210" y="708" width="780" height="72" fill="#0C0E1A"/>
  <line x1="210" y1="708" x2="990" y2="708" stroke="#2A2E45" stroke-width="1"/>
  <circle cx="228" cy="738" r="10" fill="#991B1B"/>
  <text x="222" y="742" font-size="9" font-weight="700" fill="#FFFFFF">DO</text>
  <text x="244" y="734" font-size="12" font-weight="600" fill="#E2E8F0">Dan O.</text>
  <text x="244" y="749" font-size="10" fill="#64748B">Manager</text>
  <use href="#adminGear" x="300" y="725" width="10" height="10"/>
  <!-- Mon-Fri 9a-5p -->
  <rect x="343" y="713" width="80" height="30" rx="4" fill="#991B1B" opacity="0.85"/>
  <text x="348" y="726" font-size="9" font-weight="600" fill="#FECACA">9a-5p</text>
  <text x="348" y="738" font-size="8" fill="#FCA5A5">8h</text>
  <rect x="429" y="713" width="80" height="30" rx="4" fill="#991B1B" opacity="0.85"/>
  <text x="434" y="726" font-size="9" font-weight="600" fill="#FECACA">9a-5p</text>
  <text x="434" y="738" font-size="8" fill="#FCA5A5">8h</text>
  <rect x="515" y="713" width="80" height="30" rx="4" fill="#991B1B" opacity="0.85"/>
  <text x="520" y="726" font-size="9" font-weight="600" fill="#FECACA">9a-5p</text>
  <text x="520" y="738" font-size="8" fill="#FCA5A5">8h</text>
  <rect x="601" y="713" width="80" height="30" rx="4" fill="#991B1B" opacity="0.85"/>
  <text x="606" y="726" font-size="9" font-weight="600" fill="#FECACA">9a-5p</text>
  <text x="606" y="738" font-size="8" fill="#FCA5A5">8h</text>
  <rect x="687" y="713" width="80" height="30" rx="4" fill="#991B1B" opacity="0.85"/>
  <text x="692" y="726" font-size="9" font-weight="600" fill="#FECACA">9a-5p</text>
  <text x="692" y="738" font-size="8" fill="#FCA5A5">8h</text>
  <!-- Sat-Sun: off -->
  <text x="800" y="736" font-size="10" fill="#2A2E45">--</text>
  <text x="882" y="736" font-size="10" fill="#2A2E45">--</text>
  <text x="946" y="741" font-size="12" font-weight="700" fill="#E2E8F0">40h</text>

  <!-- ROW 10: Maya R. – Host (teal) -->
  <!-- DB: pos_employees.id=1010, role=host -->
  <rect x="210" y="780" width="780" height="72" fill="#111325"/>
  <line x1="210" y1="780" x2="990" y2="780" stroke="#2A2E45" stroke-width="1"/>
  <circle cx="228" cy="810" r="10" fill="#0F766E"/>
  <text x="222" y="814" font-size="9" font-weight="700" fill="#FFFFFF">MR</text>
  <text x="244" y="806" font-size="12" font-weight="600" fill="#E2E8F0">Maya R.</text>
  <text x="244" y="821" font-size="10" fill="#64748B">Host</text>
  <use href="#adminGear" x="275" y="797" width="10" height="10"/>
  <!-- Mon-Wed 11a-5p -->
  <rect x="343" y="785" width="80" height="30" rx="4" fill="#0F766E" opacity="0.85"/>
  <text x="348" y="798" font-size="9" font-weight="600" fill="#99F6E4">11a-5p</text>
  <text x="348" y="810" font-size="8" fill="#5EEAD4">6h</text>
  <rect x="429" y="785" width="80" height="30" rx="4" fill="#0F766E" opacity="0.85"/>
  <text x="434" y="798" font-size="9" font-weight="600" fill="#99F6E4">11a-5p</text>
  <text x="434" y="810" font-size="8" fill="#5EEAD4">6h</text>
  <rect x="515" y="785" width="80" height="30" rx="4" fill="#0F766E" opacity="0.85"/>
  <text x="520" y="798" font-size="9" font-weight="600" fill="#99F6E4">11a-5p</text>
  <text x="520" y="810" font-size="8" fill="#5EEAD4">6h</text>
  <!-- Thu-Sun: off -->
  <text x="626" y="808" font-size="10" fill="#2A2E45">--</text>
  <text x="712" y="808" font-size="10" fill="#2A2E45">--</text>
  <text x="800" y="808" font-size="10" fill="#2A2E45">--</text>
  <text x="882" y="808" font-size="10" fill="#2A2E45">--</text>
  <text x="946" y="813" font-size="12" font-weight="700" fill="#E2E8F0">18h</text>

  <!-- Bottom border of grid -->
  <line x1="210" y1="852" x2="990" y2="852" stroke="#2A2E45" stroke-width="1"/>

  <!-- ===== TOTALS ROW ===== -->
  <!-- DB: SUM(pos_schedule_shifts.hours) for week -->
  <rect x="210" y="852" width="780" height="42" fill="url(#headerGrad)"/>
  <text x="220" y="878" font-size="11" font-weight="700" fill="#94A3B8">Total labor hours:</text>
  <text x="330" y="878" font-size="12" font-weight="700" fill="#E2E8F0">264h</text>
  <text x="400" y="878" font-size="11" fill="#64748B">|</text>
  <text x="414" y="878" font-size="11" font-weight="700" fill="#94A3B8">Est. labor cost:</text>
  <use href="#adminGear" x="514" y="868" width="10" height="10"/>
  <text x="530" y="878" font-size="12" font-weight="700" fill="#22C55E">$3,960</text>
  <text x="594" y="878" font-size="11" fill="#64748B">|</text>
  <text x="608" y="878" font-size="11" font-weight="700" fill="#94A3B8">Labor % today:</text>
  <text x="714" y="878" font-size="12" font-weight="700" fill="#F59E0B">28.4%</text>

  <!-- ===== INTEGRATIONS ROW ===== -->
  <!-- DB: pos_integrations WHERE type=scheduling -->
  <rect x="210" y="900" width="780" height="52" fill="#0C0E1A" stroke="#2A2E45" stroke-width="1"/>
  <text x="226" y="922" font-size="11" font-weight="600" fill="#64748B">Sync to:</text>
  <use href="#adminGear" x="270" y="912" width="12" height="12"/>

  <rect x="288" y="910" width="72" height="28" rx="5" fill="#1A1D2E" stroke="#2A2E45" stroke-width="1"/>
  <text x="300" y="929" font-size="11" font-weight="600" fill="#F59E0B">7shifts</text>
  <rect x="368" y="910" width="76" height="28" rx="5" fill="#1A1D2E" stroke="#2A2E45" stroke-width="1"/>
  <text x="374" y="929" font-size="11" font-weight="600" fill="#22C55E">Homebase</text>
  <rect x="452" y="910" width="52" height="28" rx="5" fill="#1A1D2E" stroke="#2A2E45" stroke-width="1"/>
  <text x="462" y="929" font-size="11" font-weight="600" fill="#94A3B8">ADP</text>
  <rect x="512" y="910" width="56" height="28" rx="5" fill="#1A1D2E" stroke="#2A2E45" stroke-width="1"/>
  <text x="518" y="929" font-size="11" font-weight="600" fill="#94A3B8">Gusto</text>

  <!-- ============================================================
       RIGHT PANEL – Add/Edit Shift (x=990, w=376)
       DB: pos_schedule_shifts (INSERT/UPDATE)
       Admin portal – fully editable
       ============================================================ -->
  <rect x="990" y="0" width="376" height="1024" fill="url(#cardGrad)" stroke="#2A2E45" stroke-width="1"/>

  <!-- Panel header -->
  <rect x="990" y="0" width="376" height="58" fill="url(#headerGrad)" filter="url(#shadowSm)"/>
  <text x="1006" y="26" font-size="15" font-weight="700" fill="#E2E8F0">Add / Edit Shift</text>
  <text x="1006" y="46" font-size="11" fill="#64748B">Editing: Sarah M. – Thu May 29</text>

  <line x1="990" y1="58" x2="1366" y2="58" stroke="#2A2E45" stroke-width="1"/>

  <!-- FIELD: Staff -->
  <!-- DB: pos_schedule_shifts.employee_id → pos_employees -->
  <text x="1006" y="90" font-size="11" font-weight="600" fill="#94A3B8">STAFF</text>
  <use href="#adminGear" x="1038" y="80" width="10" height="10"/>
  <rect x="1006" y="97" width="340" height="34" rx="6" fill="#0C0E1A" stroke="#2A2E45" stroke-width="1"/>
  <text x="1022" y="119" font-size="12" fill="#E2E8F0">Sarah M.</text>
  <use href="#chevronDown" x="1326" y="111" width="10" height="6"/>

  <!-- FIELD: Role (auto-filled from employee) -->
  <!-- DB: pos_employees.role_id → pos_roles -->
  <text x="1006" y="150" font-size="11" font-weight="600" fill="#94A3B8">ROLE</text>
  <rect x="1006" y="157" width="340" height="34" rx="6" fill="#162035" stroke="#1D4ED8" stroke-width="1"/>
  <text x="1022" y="179" font-size="12" fill="#93C5FD">Server</text>
  <text x="1280" y="174" font-size="9" fill="#64748B">auto-filled</text>

  <!-- FIELD: Date -->
  <!-- DB: pos_schedule_shifts.shift_date -->
  <text x="1006" y="211" font-size="11" font-weight="600" fill="#94A3B8">DATE</text>
  <use href="#adminGear" x="1034" y="201" width="10" height="10"/>
  <rect x="1006" y="218" width="340" height="34" rx="6" fill="#0C0E1A" stroke="#2A2E45" stroke-width="1"/>
  <text x="1022" y="240" font-size="12" fill="#E2E8F0">Thursday, May 29, 2026</text>

  <!-- FIELD: Start / End Time -->
  <!-- DB: pos_schedule_shifts.start_time, pos_schedule_shifts.end_time -->
  <text x="1006" y="273" font-size="11" font-weight="600" fill="#94A3B8">START TIME</text>
  <use href="#adminGear" x="1076" y="263" width="10" height="10"/>
  <text x="1190" y="273" font-size="11" font-weight="600" fill="#94A3B8">END TIME</text>
  <use href="#adminGear" x="1248" y="263" width="10" height="10"/>
  <rect x="1006" y="280" width="160" height="34" rx="6" fill="#0C0E1A" stroke="#2A2E45" stroke-width="1"/>
  <text x="1022" y="302" font-size="12" fill="#E2E8F0">5:00 PM</text>
  <use href="#chevronDown" x="1148" y="297" width="10" height="6"/>
  <rect x="1186" y="280" width="160" height="34" rx="6" fill="#0C0E1A" stroke="#2A2E45" stroke-width="1"/>
  <text x="1202" y="302" font-size="12" fill="#E2E8F0">11:00 PM</text>
  <use href="#chevronDown" x="1328" y="297" width="10" height="6"/>

  <!-- FIELD: Break -->
  <!-- DB: pos_schedule_shifts.break_minutes -->
  <text x="1006" y="335" font-size="11" font-weight="600" fill="#94A3B8">BREAK</text>
  <use href="#adminGear" x="1042" y="325" width="10" height="10"/>
  <rect x="1006" y="342" width="160" height="34" rx="6" fill="#0C0E1A" stroke="#2A2E45" stroke-width="1"/>
  <text x="1022" y="364" font-size="12" fill="#E2E8F0">30 min</text>
  <use href="#chevronDown" x="1148" y="359" width="10" height="6"/>

  <!-- FIELD: Station -->
  <!-- DB: pos_schedule_shifts.station_id → pos_stations -->
  <text x="1190" y="335" font-size="11" font-weight="600" fill="#94A3B8">STATION</text>
  <use href="#adminGear" x="1240" y="325" width="10" height="10"/>
  <rect x="1186" y="342" width="160" height="34" rx="6" fill="#0C0E1A" stroke="#2A2E45" stroke-width="1"/>
  <text x="1202" y="364" font-size="12" fill="#E2E8F0">Dining Room</text>
  <use href="#chevronDown" x="1328" y="359" width="10" height="6"/>

  <!-- FIELD: Notes -->
  <!-- DB: pos_schedule_shifts.notes -->
  <text x="1006" y="397" font-size="11" font-weight="600" fill="#94A3B8">NOTES</text>
  <use href="#adminGear" x="1044" y="387" width="10" height="10"/>
  <rect x="1006" y="404" width="340" height="52" rx="6" fill="#0C0E1A" stroke="#2A2E45" stroke-width="1"/>
  <text x="1022" y="424" font-size="11" fill="#94A3B8">Double - needs help with new menu</text>

  <!-- FIELD: Repeat -->
  <!-- DB: pos_schedule_shifts.repeat_type (none/weekly/biweekly) -->
  <text x="1006" y="476" font-size="11" font-weight="600" fill="#94A3B8">REPEAT</text>
  <use href="#adminGear" x="1050" y="466" width="10" height="10"/>
  <rect x="1006" y="483" width="340" height="34" rx="6" fill="#0C0E1A" stroke="#2A2E45" stroke-width="1"/>
  <use href="#radioOn" x="1013" y="493" width="14" height="14"/>
  <text x="1032" y="504" font-size="11" fill="#E2E8F0">None</text>
  <use href="#radioOff" x="1091" y="493" width="14" height="14"/>
  <text x="1110" y="504" font-size="11" fill="#64748B">Weekly</text>
  <use href="#radioOff" x="1181" y="493" width="14" height="14"/>
  <text x="1200" y="504" font-size="11" fill="#64748B">Biweekly</text>

  <!-- ===== AVAILABILITY CONFLICT WARNING ===== -->
  <!-- DB: pos_schedule_conflicts WHERE employee_id=1001 AND type=availability -->
  <rect x="1006" y="530" width="340" height="52" rx="6" fill="#2D1F0A" stroke="#F59E0B" stroke-width="1" filter="url(#shadowSm)"/>
  <rect x="1006" y="530" width="4" height="52" rx="2" fill="#F59E0B"/>
  <text x="1018" y="548" font-size="11" font-weight="700" fill="#F59E0B">Availability Conflict</text>
  <text x="1018" y="565" font-size="11" fill="#FCD34D">Sarah requested this day off.</text>
  <text x="1018" y="578" font-size="10" fill="#D97706">Review before scheduling.</text>

  <!-- OVERRIDE TOGGLE -->
  <!-- DB: pos_schedule_shifts.override_conflict (boolean) -->
  <text x="1006" y="604" font-size="11" font-weight="600" fill="#94A3B8">OVERRIDE REQUEST</text>
  <use href="#adminGear" x="1130" y="594" width="10" height="10"/>
  <rect x="1250" y="592" width="40" height="20" rx="10" fill="#EF4444"/>
  <circle cx="1280" cy="602" r="8" fill="#FFFFFF"/>
  <text x="1006" y="620" font-size="10" fill="#64748B">Toggle on to override availability conflict</text>

  <!-- OVERRIDE REASON -->
  <!-- DB: pos_schedule_shifts.override_reason -->
  <text x="1006" y="645" font-size="11" font-weight="600" fill="#64748B">OVERRIDE REASON</text>
  <use href="#adminGear" x="1120" y="635" width="10" height="10"/>
  <rect x="1006" y="652" width="340" height="34" rx="6" fill="#0D0F1A" stroke="#1E2235" stroke-width="1"/>
  <text x="1022" y="674" font-size="11" fill="#2A2E45">Enter manager reason...</text>

  <!-- SAVE/DELETE BUTTONS -->
  <rect x="1006" y="702" width="340" height="40" rx="8" fill="url(#amberBtnGrad)" filter="url(#shadow)"/>
  <text x="1176" y="727" font-size="14" font-weight="700" fill="#000000" text-anchor="middle">Save Shift</text>

  <text x="1176" y="763" font-size="12" fill="#EF4444" text-anchor="middle" text-decoration="underline">Delete Shift</text>

  <!-- ===== ROLE LEGEND ===== -->
  <!-- DB: pos_roles (id, name, color_hex) -->
  <rect x="1006" y="780" width="340" height="120" rx="6" fill="#0C0E1A" stroke="#2A2E45" stroke-width="1"/>
  <text x="1022" y="800" font-size="11" font-weight="700" fill="#94A3B8">ROLE COLOR KEY</text>
  <use href="#adminGear" x="1116" y="790" width="10" height="10"/>

  <rect x="1022" y="810" width="12" height="12" rx="2" fill="#1D4ED8"/>
  <text x="1040" y="821" font-size="10" fill="#94A3B8">Server</text>
  <rect x="1110" y="810" width="12" height="12" rx="2" fill="#6D28D9"/>
  <text x="1128" y="821" font-size="10" fill="#94A3B8">Bartender</text>
  <rect x="1218" y="810" width="12" height="12" rx="2" fill="#065F46"/>
  <text x="1236" y="821" font-size="10" fill="#94A3B8">Cashier</text>

  <rect x="1022" y="832" width="12" height="12" rx="2" fill="#B45309"/>
  <text x="1040" y="843" font-size="10" fill="#94A3B8">Cook</text>
  <rect x="1110" y="832" width="12" height="12" rx="2" fill="#0F766E"/>
  <text x="1128" y="843" font-size="10" fill="#94A3B8">Host</text>
  <rect x="1218" y="832" width="12" height="12" rx="2" fill="#991B1B"/>
  <text x="1236" y="843" font-size="10" fill="#94A3B8">Manager</text>

  <rect x="1022" y="854" width="12" height="12" rx="2" fill="#0369A1"/>
  <text x="1040" y="865" font-size="10" fill="#94A3B8">Busser</text>
  <rect x="1110" y="854" width="12" height="12" rx="2" fill="#78350F" stroke="#F59E0B" stroke-width="1"/>
  <text x="1128" y="865" font-size="10" fill="#FCD34D">Vacation</text>

  <rect x="1022" y="876" width="12" height="12" rx="2" fill="#7F1D1D"/>
  <text x="1040" y="887" font-size="10" fill="#FCA5A5">OT = &gt;40h</text>

  <!-- ===== COMPLIANCE STATUS BOX ===== -->
  <!-- DB: pos_labor_rules, pos_schedule_conflicts -->
  <rect x="1006" y="915" width="340" height="86" rx="6" fill="#0A1F12" stroke="#22C55E" stroke-width="1" filter="url(#shadowSm)"/>
  <text x="1022" y="934" font-size="11" font-weight="700" fill="#22C55E">Compliance Status</text>
  <use href="#adminGear" x="1130" y="924" width="10" height="10"/>
  <text x="1022" y="952" font-size="10" fill="#6EE7B7">7-day notice: 7 of 10 staff notified</text>
  <text x="1022" y="967" font-size="10" fill="#F59E0B">3 staff pending notification</text>
  <text x="1022" y="982" font-size="10" fill="#6EE7B7">Predictive premium tracked</text>
  <text x="1022" y="997" font-size="10" fill="#EF4444">Carlos R. over 40h OT threshold</text>

</svg>
