<svg role="img" aria-labelledby="title-settings_chargebacks-svg" xmlns="http://www.w3.org/2000/svg" viewBox="0 0 1366 1024" font-family="-apple-system,system-ui,BlinkMacSystemFont,'Segoe UI',sans-serif">

  <title id="title-settings_chargebacks-svg">Synalux POS — chargeUacks</title>
  <desc>Synalux POS mockup screen for chargeUacks. All UI elements admin-configurable.</desc>
  <defs>
    <!-- ==================== REUSABLE DEFINITIONS ==================== -->

    <linearGradient id="headerGrad" x1="0" y1="0" x2="0" y2="1">
      <stop offset="0%" stop-color="#1E2235"/>
      <stop offset="100%" stop-color="#181B30"/>
    </linearGradient>

    <linearGradient id="amberBtnGrad" x1="0" y1="0" x2="0" y2="1">
      <stop offset="0%" stop-color="#FBBF24"/>
      <stop offset="100%" stop-color="#F59E0B"/>
    </linearGradient>

    <linearGradient id="greenBtnGrad" x1="0" y1="0" x2="0" y2="1">
      <stop offset="0%" stop-color="#34D399"/>
      <stop offset="100%" stop-color="#22C55E"/>
    </linearGradient>

    <linearGradient id="cardGrad" x1="0" y1="0" x2="0" y2="1">
      <stop offset="0%" stop-color="#1A1D2E"/>
      <stop offset="100%" stop-color="#161929"/>
    </linearGradient>

    <filter id="cardShadow" x="-2%" y="-2%" width="104%" height="108%">
      <feDropShadow dx="0" dy="2" stdDeviation="4" flood-color="#000000" flood-opacity="0.35"/>
    </filter>
    <filter id="btnShadow" x="-4%" y="-8%" width="108%" height="120%">
      <feDropShadow dx="0" dy="1" stdDeviation="2" flood-color="#F59E0B" flood-opacity="0.3"/>
    </filter>

    <!-- SYMBOL: Admin gear icon (16x16) -->
    <symbol id="adminGear" viewBox="0 0 16 16">
      <path d="M8 5.5a2.5 2.5 0 100 5 2.5 2.5 0 000-5zM6.5 8a1.5 1.5 0 113 0 1.5 1.5 0 01-3 0z" fill="#F59E0B"/>
      <path d="M7.3 1h1.4l.3 1.5c.3.1.6.3.9.5l1.4-.6.7.7.7.7-.6 1.4c.2.3.4.6.5.9l1.5.3v1.4l-1.5.3c-.1.3-.3.6-.5.9l.6 1.4-.7.7-.7.7-1.4-.6c-.3.2-.6.4-.9.5L8.7 15H7.3l-.3-1.5c-.3-.1-.6-.3-.9-.5l-1.4.6-.7-.7-.7-.7.6-1.4c-.2-.3-.4-.6-.5-.9L2 9.6V8.2l1.5-.3c.1-.3.3-.6.5-.9l-.6-1.4.7-.7.7-.7 1.4.6c.3-.2.6-.4.9-.5L7.3 1z" fill="none" stroke="#F59E0B" stroke-width="0.8"/>
    </symbol>

    <!-- SYMBOL: Left nav active indicator -->
    <symbol id="navActive" viewBox="0 0 210 34">
      <rect width="210" height="34" fill="#1E2235"/>
  <!-- Synalux POS -->
      <rect width="3" height="34" fill="#F59E0B"/>
    </symbol>

    <!-- SYMBOL: KPI chip -->
    <symbol id="kpiChipRed" viewBox="0 0 90 38">
      <rect width="90" height="38" rx="6" fill="#2D1A1A" stroke="#EF4444" stroke-width="1.5"/>
    </symbol>
    <symbol id="kpiChipGreen" viewBox="0 0 90 38">
      <rect width="90" height="38" rx="6" fill="#0D2318" stroke="#22C55E" stroke-width="1.5"/>
    </symbol>

    <!-- SYMBOL: Status badge - Needs Evidence (amber) -->
    <symbol id="statusNeedsEvidence" viewBox="0 0 122 22">
      <rect width="122" height="22" rx="4" fill="#2A1F00" stroke="#F59E0B" stroke-width="1"/>
      <text x="10" y="15" font-size="10" fill="#F59E0B" font-family="-apple-system,system-ui,sans-serif">&#9888; Needs Evidence</text>
    </symbol>

    <!-- SYMBOL: Status badge - Submitted (blue) -->
    <symbol id="statusSubmitted" viewBox="0 0 100 22">
      <rect width="100" height="22" rx="4" fill="#0D1A2E" stroke="#3B82F6" stroke-width="1"/>
      <text x="10" y="15" font-size="10" fill="#3B82F6" font-family="-apple-system,system-ui,sans-serif">&#8635; Submitted</text>
    </symbol>

    <!-- SYMBOL: Status badge - Won (green) -->
    <symbol id="statusWon" viewBox="0 0 78 22">
      <rect width="78" height="22" rx="4" fill="#0D2318" stroke="#22C55E" stroke-width="1"/>
      <text x="10" y="15" font-size="10" fill="#22C55E" font-family="-apple-system,system-ui,sans-serif">&#10003; Won</text>
    </symbol>

    <!-- SYMBOL: Status badge - Lost (red) -->
    <symbol id="statusLost" viewBox="0 0 72 22">
      <rect width="72" height="22" rx="4" fill="#2D1A1A" stroke="#EF4444" stroke-width="1"/>
      <text x="10" y="15" font-size="10" fill="#EF4444" font-family="-apple-system,system-ui,sans-serif">&#10007; Lost</text>
    </symbol>

    <!-- SYMBOL: Evidence checkmark -->
    <symbol id="evidenceCheck" viewBox="0 0 14 14">
      <text x="0" y="13" font-size="14" fill="#22C55E" font-family="-apple-system,system-ui,sans-serif">&#10003;</text>
    </symbol>

    <!-- SYMBOL: Auto-pack ready indicator -->
    <symbol id="autoPackReady" viewBox="0 0 120 14">
      <circle cx="4" cy="7" r="4" fill="#22C55E"/>
      <text x="12" y="11" font-size="11" fill="#22C55E" font-family="-apple-system,system-ui,sans-serif">Auto-pack ready</text>
    </symbol>

  </defs>

  <!-- ==================== BACKGROUND ==================== -->
  <rect width="1366" height="1024" fill="#0C0E1A"/>

  <!-- ==================== LEFT NAV SIDEBAR (210px) ==================== -->
  <rect x="0" y="0" width="210" height="1024" fill="#111425"/>
  <rect x="210" y="0" width="1" height="1024" fill="#2A2E45"/>

  <text x="16" y="30" font-size="13" font-weight="700" fill="#F59E0B">&#9881; Back Office</text>

  <text x="16" y="67" font-size="12" fill="#94A3B8">Restaurant Info</text>
  <text x="16" y="99" font-size="12" fill="#94A3B8">Menu Builder</text>
  <text x="16" y="131" font-size="12" fill="#94A3B8">Taxes</text>
  <text x="16" y="163" font-size="12" fill="#94A3B8">Employees</text>
  <text x="16" y="195" font-size="12" fill="#94A3B8">Equipment</text>
  <text x="16" y="227" font-size="12" fill="#94A3B8">Floor Plans</text>

  <text x="16" y="264" font-size="10" font-weight="700" fill="#64748B" letter-spacing="1">PAYMENTS</text>
  <text x="16" y="292" font-size="12" fill="#94A3B8">Payment Settings</text>
  <text x="16" y="320" font-size="12" fill="#94A3B8">Tip Pooling</text>
  <text x="16" y="348" font-size="12" fill="#94A3B8">Auto-Gratuity</text>
  <text x="16" y="376" font-size="12" fill="#94A3B8">Gift Cards</text>
  <text x="16" y="404" font-size="12" fill="#94A3B8">House Accounts</text>

  <!-- Active: Chargebacks -->
  <use href="#navActive" x="0" y="416" width="210" height="34"/>
  <text x="16" y="438" font-size="12" font-weight="700" fill="#F59E0B">Chargebacks</text>

  <text x="16" y="470" font-size="12" fill="#94A3B8">Cash Management</text>
  <text x="16" y="498" font-size="12" fill="#94A3B8">Revenue Centers</text>
  <text x="16" y="526" font-size="12" fill="#94A3B8">Discounts &amp; Promos</text>
  <text x="16" y="554" font-size="12" fill="#94A3B8">RBS Compliance</text>
  <text x="16" y="582" font-size="12" fill="#94A3B8">Loyalty</text>
  <text x="16" y="610" font-size="12" fill="#94A3B8">Integrations</text>
  <text x="16" y="638" font-size="12" fill="#94A3B8">Reports</text>

  <!-- ==================== HEADER BAR ==================== -->
  <rect x="211" y="0" width="1155" height="58" fill="url(#headerGrad)"/>
  <rect x="211" y="58" width="1155" height="1" fill="#2A2E45"/>
  <text x="228" y="35" font-size="20" font-weight="700" fill="#E2E8F0">Chargeback Management</text>
  <!-- DB: pos_chargebacks -->
  <text x="228" y="51" font-size="11" fill="#64748B">Monitor disputes, auto-assemble evidence, and submit directly to Stripe from your POS data.</text>

  <!-- KPI chips -->
  <!-- DB: pos_chargebacks aggregate by status -->
  <use href="#kpiChipRed" x="760" y="10" width="90" height="38"/>
  <text x="805" y="25" font-size="10" fill="#94A3B8" text-anchor="middle">Open</text>
  <text x="805" y="42" font-size="16" font-weight="700" fill="#EF4444" text-anchor="middle">3</text>

  <use href="#kpiChipGreen" x="858" y="10" width="90" height="38"/>
  <text x="903" y="25" font-size="10" fill="#94A3B8" text-anchor="middle">Won</text>
  <text x="903" y="42" font-size="16" font-weight="700" fill="#22C55E" text-anchor="middle">12</text>

  <use href="#kpiChipRed" x="956" y="10" width="90" height="38"/>
  <text x="1001" y="25" font-size="10" fill="#94A3B8" text-anchor="middle">Lost</text>
  <text x="1001" y="42" font-size="16" font-weight="700" fill="#EF4444" text-anchor="middle">2</text>

  <rect x="1054" y="10" width="110" height="38" rx="6" fill="#0D2318" stroke="#22C55E" stroke-width="1.5"/>
  <text x="1109" y="25" font-size="10" fill="#94A3B8" text-anchor="middle">Win Rate</text>
  <text x="1109" y="42" font-size="16" font-weight="700" fill="#22C55E" text-anchor="middle">86%</text>

  <!-- Save Settings button -->
  <rect x="1220" y="10" width="130" height="38" rx="7" fill="url(#amberBtnGrad)" filter="url(#btnShadow)"/>
  <text x="1285" y="34" font-size="13" font-weight="700" fill="#0C0E1A" text-anchor="middle">Save Settings</text>

  <!-- ==================== ACTIVE DISPUTES TABLE ==================== -->
  <text x="228" y="82" font-size="11" font-weight="700" fill="#94A3B8" letter-spacing="1">ACTIVE DISPUTES</text>

  <!-- DB: pos_chargebacks table -->
  <rect x="219" y="89" width="1128" height="275" rx="8" fill="url(#cardGrad)" stroke="#2A2E45" stroke-width="1" filter="url(#cardShadow)"/>

  <!-- Table header row -->
  <rect x="219" y="89" width="1128" height="32" rx="8" fill="#1E2235"/>
  <rect x="219" y="105" width="1128" height="16" fill="#1E2235"/>
  <text x="232" y="109" font-size="10" font-weight="700" fill="#64748B">DATE FILED</text>
  <text x="310" y="109" font-size="10" font-weight="700" fill="#64748B">ORDER #</text>
  <text x="380" y="109" font-size="10" font-weight="700" fill="#64748B">AMOUNT</text>
  <text x="445" y="109" font-size="10" font-weight="700" fill="#64748B">CARD</text>
  <text x="516" y="109" font-size="10" font-weight="700" fill="#64748B">REASON</text>
  <text x="682" y="109" font-size="10" font-weight="700" fill="#64748B">STATUS</text>
  <text x="808" y="109" font-size="10" font-weight="700" fill="#64748B">DAYS LEFT</text>
  <text x="882" y="109" font-size="10" font-weight="700" fill="#64748B">EVIDENCE</text>
  <text x="1074" y="109" font-size="10" font-weight="700" fill="#64748B">ACTION</text>

  <rect x="219" y="121" width="1128" height="1" fill="#2A2E45"/>

  <!-- ROW 1: May 22 / #4721 -->
  <!-- DB: pos_chargebacks WHERE id = ... -->
  <rect x="219" y="122" width="1128" height="42" fill="#1A1D2E"/>
  <text x="232" y="148" font-size="12" fill="#E2E8F0">May 22</text>
  <text x="310" y="148" font-size="12" fill="#8B5CF6">#4721</text>
  <text x="380" y="148" font-size="12" font-weight="700" fill="#E2E8F0">$87.40</text>
  <text x="445" y="148" font-size="11" fill="#94A3B8">&#8226;&#8226;&#8226;&#8226;4242</text>
  <!-- DB: pos_chargebacks.reason_code -->
  <text x="516" y="148" font-size="11" fill="#94A3B8">Product not received</text>
  <use href="#statusNeedsEvidence" x="678" y="134" width="122" height="22"/>
  <!-- DB: pos_chargebacks.respond_by -->
  <text x="812" y="148" font-size="12" font-weight="700" fill="#F97316">12 days</text>
  <use href="#adminGear" x="860" y="137" width="14" height="14"/>
  <use href="#autoPackReady" x="882" y="137" width="120" height="14"/>
  <!-- Submit Evidence button (editable action) -->
  <rect x="1068" y="133" width="126" height="24" rx="5" fill="url(#amberBtnGrad)" filter="url(#btnShadow)"/>
  <text x="1131" y="149" font-size="11" font-weight="700" fill="#0C0E1A" text-anchor="middle">Submit Evidence</text>

  <rect x="219" y="164" width="1128" height="1" fill="#2A2E45"/>

  <!-- ROW 2: May 19 / #4680 -->
  <rect x="219" y="165" width="1128" height="42" fill="#1A1D2E"/>
  <text x="232" y="191" font-size="12" fill="#E2E8F0">May 19</text>
  <text x="310" y="191" font-size="12" fill="#8B5CF6">#4680</text>
  <text x="380" y="191" font-size="12" font-weight="700" fill="#E2E8F0">$124.00</text>
  <text x="445" y="191" font-size="11" fill="#94A3B8">&#8226;&#8226;&#8226;&#8226;8831</text>
  <text x="516" y="191" font-size="11" fill="#94A3B8">Unauthorized transaction</text>
  <use href="#statusNeedsEvidence" x="678" y="177" width="122" height="22"/>
  <text x="812" y="191" font-size="12" font-weight="700" fill="#EF4444">8 days</text>
  <use href="#adminGear" x="860" y="180" width="14" height="14"/>
  <use href="#autoPackReady" x="882" y="180" width="120" height="14"/>
  <rect x="1068" y="176" width="126" height="24" rx="5" fill="url(#amberBtnGrad)" filter="url(#btnShadow)"/>
  <text x="1131" y="192" font-size="11" font-weight="700" fill="#0C0E1A" text-anchor="middle">Submit Evidence</text>

  <rect x="219" y="207" width="1128" height="1" fill="#2A2E45"/>

  <!-- ROW 3: May 15 / #4601 — Submitted -->
  <rect x="219" y="208" width="1128" height="42" fill="#1A1D2E"/>
  <text x="232" y="234" font-size="12" fill="#E2E8F0">May 15</text>
  <text x="310" y="234" font-size="12" fill="#8B5CF6">#4601</text>
  <text x="380" y="234" font-size="12" font-weight="700" fill="#E2E8F0">$43.50</text>
  <text x="445" y="234" font-size="11" fill="#94A3B8">&#8226;&#8226;&#8226;&#8226;5599</text>
  <text x="516" y="234" font-size="11" fill="#94A3B8">Duplicate charge</text>
  <use href="#statusSubmitted" x="678" y="220" width="100" height="22"/>
  <!-- DB: pos_chargebacks.evidence_submitted_at -->
  <text x="812" y="234" font-size="12" fill="#94A3B8">15 days</text>
  <text x="882" y="234" font-size="11" fill="#64748B">Submitted May 16</text>
  <rect x="1068" y="219" width="106" height="24" rx="5" fill="none" stroke="#3B82F6" stroke-width="1.5"/>
  <text x="1121" y="235" font-size="11" fill="#3B82F6" text-anchor="middle">View Status</text>

  <rect x="219" y="250" width="1128" height="1" fill="#2A2E45"/>

  <!-- ROW 4: Apr 30 / #4488 — Won -->
  <!-- DB: pos_chargebacks.outcome = 'won' -->
  <rect x="219" y="251" width="1128" height="42" fill="#1A1D2E"/>
  <text x="232" y="277" font-size="12" fill="#E2E8F0">Apr 30</text>
  <text x="310" y="277" font-size="12" fill="#8B5CF6">#4488</text>
  <text x="380" y="277" font-size="12" font-weight="700" fill="#E2E8F0">$211.00</text>
  <text x="445" y="277" font-size="11" fill="#94A3B8">&#8226;&#8226;&#8226;&#8226;2277</text>
  <text x="516" y="277" font-size="11" fill="#94A3B8">Credit not processed</text>
  <use href="#statusWon" x="678" y="263" width="78" height="22"/>
  <text x="812" y="277" font-size="12" fill="#64748B">&#8212;</text>
  <text x="882" y="277" font-size="11" fill="#64748B">&#8212;</text>
  <rect x="1068" y="262" width="60" height="24" rx="5" fill="none" stroke="#2A2E45" stroke-width="1.5"/>
  <text x="1098" y="278" font-size="11" fill="#94A3B8" text-anchor="middle">View</text>

  <rect x="219" y="293" width="1128" height="1" fill="#2A2E45"/>

  <!-- ROW 5: Apr 22 / #4401 — Lost -->
  <!-- DB: pos_chargebacks.outcome = 'lost' -->
  <rect x="219" y="294" width="1128" height="42" fill="#1A1D2E"/>
  <text x="232" y="320" font-size="12" fill="#E2E8F0">Apr 22</text>
  <text x="310" y="320" font-size="12" fill="#8B5CF6">#4401</text>
  <text x="380" y="320" font-size="12" font-weight="700" fill="#E2E8F0">$67.00</text>
  <text x="445" y="320" font-size="11" fill="#94A3B8">&#8226;&#8226;&#8226;&#8226;9913</text>
  <text x="516" y="320" font-size="11" fill="#94A3B8">Unrecognized charge</text>
  <use href="#statusLost" x="678" y="306" width="72" height="22"/>
  <text x="812" y="320" font-size="12" fill="#64748B">&#8212;</text>
  <text x="882" y="320" font-size="11" fill="#64748B">&#8212;</text>
  <rect x="1068" y="305" width="60" height="24" rx="5" fill="none" stroke="#2A2E45" stroke-width="1.5"/>
  <text x="1098" y="321" font-size="11" fill="#94A3B8" text-anchor="middle">View</text>

  <!-- ==================== EVIDENCE AUTO-PACK CARD ==================== -->
  <!-- DB: pos_chargeback_evidence (auto-generated from POS data) -->
  <rect x="219" y="378" width="564" height="284" rx="8" fill="url(#cardGrad)" stroke="#F59E0B" stroke-width="1.5" filter="url(#cardShadow)"/>

  <rect x="219" y="378" width="564" height="36" rx="8" fill="#1E1A00"/>
  <rect x="219" y="398" width="564" height="16" fill="#1E1A00"/>
  <text x="236" y="400" font-size="13" font-weight="700" fill="#F59E0B">Evidence Package &#8212; Auto-assembled from POS Data</text>
  <use href="#adminGear" x="540" y="388" width="14" height="14"/>
  <text x="236" y="416" font-size="11" fill="#F59E0B">Order #4721 &#183; $87.40 &#183; May 14, 2024</text>

  <rect x="219" y="420" width="564" height="1" fill="#2A2E45"/>

  <!-- Evidence items (using reusable checkmark symbol) -->
  <!-- DB: pos_chargeback_evidence.evidence_type -->
  <use href="#evidenceCheck" x="236" y="430" width="14" height="14"/>
  <text x="256" y="444" font-size="12" font-weight="600" fill="#E2E8F0">Original receipt (PDF)</text>
  <text x="452" y="444" font-size="11" fill="#64748B">May 14, 8:47 pm</text>

  <use href="#evidenceCheck" x="236" y="452" width="14" height="14"/>
  <text x="256" y="466" font-size="12" font-weight="600" fill="#E2E8F0">KDS timestamp</text>
  <text x="380" y="466" font-size="11" fill="#64748B">Order fired 8:44 pm, bumped 8:52 pm</text>

  <use href="#evidenceCheck" x="236" y="474" width="14" height="14"/>
  <text x="256" y="488" font-size="12" font-weight="600" fill="#E2E8F0">Card capture</text>
  <text x="350" y="488" font-size="11" fill="#64748B">EMV chip tap, approved &#8212; Stripe TXN: pi_xxx</text>

  <use href="#evidenceCheck" x="236" y="496" width="14" height="14"/>
  <text x="256" y="510" font-size="12" font-weight="600" fill="#E2E8F0">Server signature</text>
  <text x="368" y="510" font-size="11" fill="#64748B">Sarah M. served table 7</text>

  <use href="#evidenceCheck" x="236" y="518" width="14" height="14"/>
  <text x="256" y="532" font-size="12" font-weight="600" fill="#E2E8F0">Tip capture</text>
  <text x="336" y="532" font-size="11" fill="#64748B">$12.00 added by customer on display</text>

  <use href="#evidenceCheck" x="236" y="540" width="14" height="14"/>
  <text x="256" y="554" font-size="12" font-weight="600" fill="#E2E8F0">Order photo</text>
  <text x="336" y="554" font-size="11" fill="#64748B">Kitchen camera (if enabled)</text>

  <rect x="219" y="566" width="564" height="1" fill="#2A2E45"/>

  <!-- Evidence upload button (editable) -->
  <text x="236" y="584" font-size="11" fill="#94A3B8">Additional evidence:</text>
  <use href="#adminGear" x="350" y="573" width="14" height="14"/>
  <rect x="370" y="574" width="140" height="22" rx="5" fill="#1E2235" stroke="#2A2E45" stroke-width="1"/>
  <text x="394" y="589" font-size="10" fill="#94A3B8">Upload file...</text>

  <!-- Action buttons -->
  <rect x="236" y="602" width="170" height="34" rx="6" fill="url(#greenBtnGrad)"/>
  <text x="321" y="623" font-size="12" font-weight="700" fill="#0C0E1A" text-anchor="middle">Submit to Stripe</text>

  <rect x="416" y="602" width="188" height="34" rx="6" fill="none" stroke="#64748B" stroke-width="1.5"/>
  <text x="510" y="623" font-size="12" fill="#94A3B8" text-anchor="middle">Download Package PDF</text>

  <!-- Auto-assembled note -->
  <rect x="219" y="644" width="564" height="18" rx="4" fill="#111425"/>
  <!-- DB: pos_orders, pos_payments, pos_kds_tickets -->
  <text x="236" y="656" font-size="10" fill="#64748B">Auto-assembled from</text>
  <text x="349" y="656" font-size="10" font-weight="600" fill="#8B5CF6">pos_orders</text>
  <text x="404" y="656" font-size="10" fill="#64748B">+</text>
  <text x="413" y="656" font-size="10" font-weight="600" fill="#8B5CF6">pos_payments</text>
  <text x="483" y="656" font-size="10" fill="#64748B">+</text>
  <text x="492" y="656" font-size="10" font-weight="600" fill="#8B5CF6">pos_kds_tickets</text>

  <!-- ==================== CHARTS PANEL ==================== -->
  <rect x="795" y="378" width="552" height="284" rx="8" fill="url(#cardGrad)" stroke="#2A2E45" stroke-width="1" filter="url(#cardShadow)"/>

  <!-- Win/Loss Trend -->
  <text x="812" y="401" font-size="12" font-weight="700" fill="#E2E8F0">Win / Loss Trend &#8212; Last 6 Months</text>

  <!-- Bar chart -->
  <rect x="812" y="408" width="516" height="160" rx="4" fill="#111425"/>

  <!-- Y-axis labels -->
  <text x="816" y="422" font-size="9" fill="#64748B">10</text>
  <text x="816" y="462" font-size="9" fill="#64748B">7</text>
  <text x="816" y="502" font-size="9" fill="#64748B">4</text>
  <text x="816" y="542" font-size="9" fill="#64748B">1</text>

  <!-- Y gridlines -->
  <line x1="832" y1="418" x2="1320" y2="418" stroke="#2A2E45" stroke-width="0.5"/>
  <line x1="832" y1="458" x2="1320" y2="458" stroke="#2A2E45" stroke-width="0.5"/>
  <line x1="832" y1="498" x2="1320" y2="498" stroke="#2A2E45" stroke-width="0.5"/>
  <line x1="832" y1="538" x2="1320" y2="538" stroke="#2A2E45" stroke-width="0.5"/>

  <!-- Bars per month -->
  <rect x="845" y="497" width="18" height="48" rx="2" fill="#22C55E" opacity="0.85"/>
  <rect x="865" y="533" width="18" height="12" rx="2" fill="#EF4444" opacity="0.85"/>
  <text x="857" y="557" font-size="9" fill="#64748B" text-anchor="middle">Dec</text>

  <rect x="910" y="509" width="18" height="36" rx="2" fill="#22C55E" opacity="0.85"/>
  <rect x="930" y="533" width="18" height="12" rx="2" fill="#EF4444" opacity="0.85"/>
  <text x="922" y="557" font-size="9" fill="#64748B" text-anchor="middle">Jan</text>

  <rect x="975" y="497" width="18" height="48" rx="2" fill="#22C55E" opacity="0.85"/>
  <rect x="995" y="529" width="18" height="16" rx="2" fill="#EF4444" opacity="0.85"/>
  <text x="987" y="557" font-size="9" fill="#64748B" text-anchor="middle">Feb</text>

  <rect x="1040" y="485" width="18" height="60" rx="2" fill="#22C55E" opacity="0.85"/>
  <rect x="1060" y="533" width="18" height="12" rx="2" fill="#EF4444" opacity="0.85"/>
  <text x="1052" y="557" font-size="9" fill="#64748B" text-anchor="middle">Mar</text>

  <rect x="1105" y="493" width="18" height="52" rx="2" fill="#22C55E" opacity="0.85"/>
  <rect x="1125" y="529" width="18" height="16" rx="2" fill="#EF4444" opacity="0.85"/>
  <text x="1117" y="557" font-size="9" fill="#64748B" text-anchor="middle">Apr</text>

  <rect x="1170" y="501" width="18" height="44" rx="2" fill="#22C55E" opacity="0.85"/>
  <rect x="1190" y="533" width="18" height="12" rx="2" fill="#EF4444" opacity="0.85"/>
  <text x="1182" y="557" font-size="9" fill="#64748B" text-anchor="middle">May</text>

  <!-- Legend -->
  <rect x="1230" y="420" width="10" height="10" rx="2" fill="#22C55E"/>
  <text x="1244" y="430" font-size="10" fill="#94A3B8">Won</text>
  <rect x="1230" y="438" width="10" height="10" rx="2" fill="#EF4444"/>
  <text x="1244" y="448" font-size="10" fill="#94A3B8">Lost</text>

  <!-- Reason Code Breakdown -->
  <!-- DB: pos_chargebacks.reason_code distribution -->
  <text x="812" y="578" font-size="12" font-weight="700" fill="#E2E8F0">Reason Code Breakdown</text>
  <rect x="812" y="582" width="516" height="1" fill="#2A2E45"/>

  <!-- Donut chart -->
  <path d="M912,635 L974,635 A62,62 0 0,1 893.5,695.2 Z" fill="#F59E0B" opacity="0.9"/>
  <path d="M912,635 L893.5,695.2 A62,62 0 0,1 912,573 Z" fill="#EF4444" opacity="0.85"/>
  <path d="M912,635 L912,573 A62,62 0 0,1 962.5,604 Z" fill="#8B5CF6" opacity="0.85"/>
  <path d="M912,635 L962.5,604 A62,62 0 0,1 974,635 Z" fill="#64748B" opacity="0.85"/>
  <circle cx="912" cy="635" r="28" fill="url(#cardGrad)"/>
  <text x="912" y="632" font-size="10" font-weight="700" fill="#E2E8F0" text-anchor="middle">86%</text>
  <text x="912" y="643" font-size="9" fill="#94A3B8" text-anchor="middle">win rate</text>

  <!-- Legend for pie -->
  <rect x="990" y="598" width="10" height="10" rx="2" fill="#F59E0B"/>
  <text x="1004" y="608" font-size="10" fill="#94A3B8">Product not received 45%</text>
  <rect x="990" y="618" width="10" height="10" rx="2" fill="#EF4444"/>
  <text x="1004" y="628" font-size="10" fill="#94A3B8">Unauthorized txn 30%</text>
  <rect x="990" y="638" width="10" height="10" rx="2" fill="#8B5CF6"/>
  <text x="1004" y="648" font-size="10" fill="#94A3B8">Duplicate charge 15%</text>
  <rect x="990" y="658" width="10" height="10" rx="2" fill="#64748B"/>
  <text x="1004" y="668" font-size="10" fill="#94A3B8">Other 10%</text>

  <!-- ==================== CHARGEBACK SETTINGS (editable) ==================== -->
  <!-- DB: pos_config.chargeback_* settings -->
  <rect x="219" y="674" width="564" height="86" rx="8" fill="url(#cardGrad)" stroke="#2A2E45" stroke-width="1" filter="url(#cardShadow)"/>
  <text x="236" y="694" font-size="12" font-weight="700" fill="#E2E8F0">Chargeback Settings</text>
  <use href="#adminGear" x="370" y="682" width="14" height="14"/>

  <!-- DB: pos_config.chargeback_auto_evidence (boolean) -->
  <text x="236" y="714" font-size="11" fill="#94A3B8">Auto-assemble evidence on new dispute:</text>
  <use href="#adminGear" x="492" y="703" width="14" height="14"/>
  <rect x="512" y="704" width="44" height="20" rx="10" fill="#22C55E"/>
  <circle cx="542" cy="714" r="8" fill="#FFFFFF"/>
  <text x="562" y="718" font-size="11" fill="#22C55E">ON</text>

  <!-- DB: pos_config.chargeback_deadline_alert_days -->
  <text x="236" y="738" font-size="11" fill="#94A3B8">Alert when deadline within (days):</text>
  <use href="#adminGear" x="462" y="727" width="14" height="14"/>
  <rect x="482" y="728" width="50" height="20" rx="4" fill="#0C0E1A" stroke="#374151" stroke-width="1"/>
  <text x="500" y="742" font-size="11" fill="#E2E8F0" text-anchor="middle">14</text>
  <text x="538" y="742" font-size="10" fill="#64748B">days before respond_by</text>

  <!-- ==================== DB SCHEMA FOOTER ==================== -->
  <!-- DB: pos_chargebacks, pos_chargeback_evidence -->
  <rect x="219" y="772" width="1128" height="118" rx="8" fill="#0D0F1A" stroke="#2A2E45" stroke-width="1"/>
  <text x="236" y="792" font-size="10" font-weight="700" fill="#8B5CF6" letter-spacing="1">DATABASE SCHEMA</text>
  <rect x="219" y="797" width="1128" height="1" fill="#2A2E45"/>

  <text x="236" y="814" font-size="11" font-family="'Menlo','Consolas',monospace" fill="#94A3B8">pos_chargebacks (</text>
  <text x="256" y="830" font-size="11" font-family="'Menlo','Consolas',monospace" fill="#94A3B8">id, payment_id,</text>
  <text x="452" y="830" font-size="11" font-family="'Menlo','Consolas',monospace" fill="#22C55E">stripe_dispute_id,</text>
  <text x="648" y="830" font-size="11" font-family="'Menlo','Consolas',monospace" fill="#94A3B8">amount_cents,</text>
  <text x="808" y="830" font-size="11" font-family="'Menlo','Consolas',monospace" fill="#F59E0B">reason_code,</text>
  <text x="256" y="846" font-size="11" font-family="'Menlo','Consolas',monospace" fill="#F59E0B">status,</text>
  <text x="314" y="846" font-size="11" font-family="'Menlo','Consolas',monospace" fill="#94A3B8">filed_at, respond_by, evidence_submitted_at,</text>
  <text x="700" y="846" font-size="11" font-family="'Menlo','Consolas',monospace" fill="#F59E0B">outcome</text>
  <text x="744" y="846" font-size="11" font-family="'Menlo','Consolas',monospace" fill="#94A3B8">)</text>
  <text x="236" y="862" font-size="11" font-family="'Menlo','Consolas',monospace" fill="#94A3B8">pos_chargeback_evidence (</text>
  <text x="436" y="862" font-size="11" font-family="'Menlo','Consolas',monospace" fill="#94A3B8">chargeback_id,</text>
  <text x="556" y="862" font-size="11" font-family="'Menlo','Consolas',monospace" fill="#22C55E">evidence_type,</text>
  <text x="676" y="862" font-size="11" font-family="'Menlo','Consolas',monospace" fill="#94A3B8">content,</text>
  <text x="736" y="862" font-size="11" font-family="'Menlo','Consolas',monospace" fill="#F59E0B">auto_generated bool</text>
  <text x="892" y="862" font-size="11" font-family="'Menlo','Consolas',monospace" fill="#94A3B8">)</text>
  <text x="236" y="880" font-size="10" fill="#64748B">Indexes: stripe_dispute_id (unique), status, respond_by &#183; Row-level security: restaurant_id scoped</text>

</svg>