<svg role="img" aria-labelledby="title-settings_printer_routing-svg" xmlns="http://www.w3.org/2000/svg" viewBox="0 0 1366 1024"
     font-family="-apple-system,BlinkMacSystemFont,'SF Pro Display','Segoe UI',sans-serif">

  <!-- ============================================================ -->
  <!--  DEFS: Reusable symbols, gradients, filters                 -->
  <!-- ============================================================ -->
  <title id="title-settings_printer_routing-svg">Synalux POS — printer routing</title>
  <desc>Synalux POS mockup screen for printer routing. All UI elements admin-configurable.</desc>
  <defs>
    <filter id="cardShadow" x="-4%" y="-4%" width="108%" height="112%">
      <feDropShadow dx="0" dy="2" stdDeviation="4" flood-color="#000" flood-opacity="0.35"/>
    </filter>

    <linearGradient id="amberBtnGrad" x1="0" y1="0" x2="0" y2="1">
      <stop offset="0%" stop-color="#FBBF24"/>
      <stop offset="100%" stop-color="#F59E0B"/>
    </linearGradient>

    <!-- ── Symbol: Gear icon (admin-configurability) ── -->
    <symbol id="gearIcon" viewBox="0 0 16 16">
      <path d="M8 5.5a2.5 2.5 0 100 5 2.5 2.5 0 000-5zM6.5 8a1.5 1.5 0 113 0 1.5 1.5 0 01-3 0z" fill="currentColor"/>
      <path d="M9.405 1.05c-.413-1.4-2.397-1.4-2.81 0l-.1.34a1.464 1.464 0 01-2.105.872l-.31-.17c-1.283-.698-2.686.705-1.987 1.987l.169.311c.446.82.023 1.841-.872 2.105l-.34.1c-1.4.413-1.4 2.397 0 2.81l.34.1a1.464 1.464 0 01.872 2.105l-.17.31c-.698 1.283.705 2.686 1.987 1.987l.311-.169a1.464 1.464 0 012.105.872l.1.34c.413 1.4 2.397 1.4 2.81 0l.1-.34a1.464 1.464 0 012.105-.872l.31.17c1.283.698 2.686-.705 1.987-1.987l-.169-.311a1.464 1.464 0 01.872-2.105l.34-.1c1.4-.413 1.4-2.397 0-2.81l-.34-.1a1.464 1.464 0 01-.872-2.105l.17-.31c.698-1.283-.705-2.686-1.987-1.987l-.311.169a1.464 1.464 0 01-2.105-.872l-.1-.34z" fill="currentColor"/>
    </symbol>

    <!-- ── Symbol: Nav item active ── -->
    <symbol id="navItemActive" viewBox="0 0 200 36">
      <rect width="200" height="36" fill="#1E2235" rx="4"/>
  <!-- Synalux POS -->
      <rect width="3" height="36" fill="#F59E0B"/>
    </symbol>

    <!-- ── Checkmark symbols for each station color ── -->
    <!-- pos_printer_routes: printer_ids[], kds_ids[] -->
    <symbol id="ckAmber" viewBox="0 0 22 22">
      <circle cx="11" cy="11" r="11" fill="#92400E" opacity="0.5"/>
      <circle cx="11" cy="11" r="11" fill="none" stroke="#F59E0B" stroke-width="1.5"/>
      <text x="6" y="16" font-size="13" fill="#F59E0B">&#10003;</text>
    </symbol>

    <symbol id="ckGreen" viewBox="0 0 22 22">
      <circle cx="11" cy="11" r="11" fill="#064E3B" opacity="0.6"/>
      <circle cx="11" cy="11" r="11" fill="none" stroke="#22C55E" stroke-width="1.5"/>
      <text x="6" y="16" font-size="13" fill="#22C55E">&#10003;</text>
    </symbol>

    <symbol id="ckBlue" viewBox="0 0 22 22">
      <circle cx="11" cy="11" r="11" fill="#1E3A5F" opacity="0.6"/>
      <circle cx="11" cy="11" r="11" fill="none" stroke="#60A5FA" stroke-width="1.5"/>
      <text x="6" y="16" font-size="13" fill="#60A5FA">&#10003;</text>
    </symbol>

    <symbol id="ckBarBlue" viewBox="0 0 22 22">
      <circle cx="11" cy="11" r="11" fill="#1E3A5F" opacity="0.6"/>
      <circle cx="11" cy="11" r="11" fill="none" stroke="#60A5FA" stroke-width="1.5"/>
      <text x="6" y="16" font-size="13" fill="#60A5FA">&#10003;</text>
    </symbol>

    <symbol id="ckPurple" viewBox="0 0 22 22">
      <circle cx="11" cy="11" r="11" fill="#3B0764" opacity="0.6"/>
      <circle cx="11" cy="11" r="11" fill="none" stroke="#8B5CF6" stroke-width="1.5"/>
      <text x="6" y="16" font-size="13" fill="#8B5CF6">&#10003;</text>
    </symbol>

    <!-- ── Symbol: Dash (not routed) ── -->
    <symbol id="dashMark" viewBox="0 0 22 22">
      <text x="5" y="17" font-size="16" fill="#2A2E45">&#8212;</text>
    </symbol>

    <!-- ── Symbol: Bump badge ── -->
    <symbol id="bumpGreen" viewBox="0 0 36 18">
      <rect width="36" height="18" rx="4" fill="#064E3B" opacity="0.7"/>
      <rect width="36" height="18" rx="4" fill="none" stroke="#22C55E" stroke-width="1"/>
      <text x="6" y="13" font-size="9" fill="#4ADE80">bump</text>
    </symbol>

    <symbol id="bumpBlue" viewBox="0 0 36 18">
      <rect width="36" height="18" rx="4" fill="#1E3A5F" opacity="0.7"/>
      <rect width="36" height="18" rx="4" fill="none" stroke="#60A5FA" stroke-width="1"/>
      <text x="6" y="13" font-size="9" fill="#60A5FA">bump</text>
    </symbol>

    <symbol id="bumpPurple" viewBox="0 0 36 18">
      <rect width="36" height="18" rx="4" fill="#3B0764" opacity="0.6"/>
      <rect width="36" height="18" rx="4" fill="none" stroke="#8B5CF6" stroke-width="1"/>
      <text x="6" y="13" font-size="9" fill="#C4B5FD">bump</text>
    </symbol>

    <!-- ── Symbol: Device legend chip ── -->
    <symbol id="legendChip" viewBox="0 0 160 22">
      <rect width="160" height="22" rx="11" fill="none"/>
    </symbol>

    <!-- ── Symbol: Input field ── -->
    <symbol id="inputField" viewBox="0 0 264 30">
      <rect width="264" height="30" rx="6" fill="#0C0E1A" stroke="#1E2235" stroke-width="1"/>
    </symbol>

    <!-- ── Symbol: Checkbox checked ── -->
    <symbol id="checkboxOn" viewBox="0 0 14 14">
      <rect width="14" height="14" rx="3" stroke-width="1.5"/>
      <text x="2" y="12" font-size="10">&#10003;</text>
    </symbol>

    <!-- ── Symbol: Checkbox unchecked ── -->
    <symbol id="checkboxOff" viewBox="0 0 14 14">
      <rect width="14" height="14" rx="3" fill="#0C0E1A" stroke="#2A2E45" stroke-width="1.5"/>
    </symbol>

    <!-- ── Symbol: Toggle ON ── -->
    <symbol id="toggleOn" viewBox="0 0 40 20">
      <rect width="40" height="20" rx="10" fill="#22C55E"/>
      <circle cx="30" cy="10" r="8" fill="#FFF"/>
    </symbol>

    <!-- ── Symbol: Notes chip ── -->
    <symbol id="notesChip" viewBox="0 0 100 18">
      <rect width="100" height="18" rx="4" fill="#1E2235"/>
    </symbol>
  </defs>

  <!-- ============================================================ -->
  <!--  BACKGROUND                                                  -->
  <!-- ============================================================ -->
  <rect width="1366" height="1024" fill="#0C0E1A"/>

  <!-- ============================================================ -->
  <!--  LEFT SETTINGS NAV SIDEBAR                                   -->
  <!-- ============================================================ -->
  <rect x="0" y="0" width="200" height="1024" fill="#161930"/>
  <rect x="200" y="0" width="1" height="1024" fill="#1E2235"/>

  <text x="16" y="30" font-size="13" font-weight="700" fill="#F59E0B">Settings</text>
  <text x="16" y="67" font-size="12" fill="#94A3B8">Restaurant Info</text>
  <text x="16" y="103" font-size="12" fill="#94A3B8">Menu Builder</text>
  <text x="16" y="139" font-size="12" fill="#94A3B8">Taxes</text>
  <text x="16" y="175" font-size="12" fill="#94A3B8">Employees</text>
  <text x="16" y="211" font-size="12" fill="#94A3B8">Equipment</text>

  <!-- Active: Printer Routing -->
  <use href="#navItemActive" x="0" y="224" width="200" height="36"/>
  <text x="16" y="247" font-size="12" font-weight="600" fill="#F59E0B">Printer Routing</text>

  <text x="16" y="283" font-size="12" fill="#94A3B8">Floor Plans</text>
  <text x="16" y="319" font-size="12" fill="#94A3B8">Payments</text>
  <text x="16" y="355" font-size="12" fill="#94A3B8">Revenue Centers</text>
  <text x="16" y="391" font-size="12" fill="#94A3B8">Reports</text>
  <text x="16" y="427" font-size="12" fill="#94A3B8">Integrations</text>
  <text x="16" y="463" font-size="12" fill="#94A3B8">Loyalty</text>
  <text x="16" y="499" font-size="12" fill="#94A3B8">Gift Cards</text>

  <!-- ============================================================ -->
  <!--  TOP HEADER BAR                                              -->
  <!-- ============================================================ -->
  <rect x="201" y="0" width="1165" height="56" fill="#1A1D2E"/>
  <rect x="201" y="56" width="1165" height="1" fill="#1E2235"/>

  <text x="220" y="28" font-size="18" font-weight="700" fill="#FFFFFF">Printer &amp; KDS Routing</text>
  <text x="220" y="48" font-size="11" fill="#94A3B8">Define which menu categories print to which devices</text>
  <use href="#gearIcon" x="506" y="36" width="14" height="14" color="#94A3B8"/>
  <text x="530" y="48" font-size="9" fill="#475569">pos_printer_routes</text>

  <!-- Info + Add buttons -->
  <rect x="980" y="13" width="110" height="30" rx="6" fill="#161930" stroke="#1E2235" stroke-width="1"/>
  <text x="1000" y="32" font-size="11" fill="#94A3B8">How it works</text>
  <rect x="1100" y="13" width="100" height="30" rx="6" fill="url(#amberBtnGrad)"/>
  <text x="1118" y="32" font-size="12" font-weight="600" fill="#000">+ Add Rule</text>

  <!-- ============================================================ -->
  <!--  LEGEND BAR                                                  -->
  <!--  DB: pos_devices (printer + KDS device list)                 -->
  <!-- ============================================================ -->
  <rect x="201" y="57" width="1165" height="38" fill="#161930" stroke="#1E2235" stroke-width="1"/>
  <text x="220" y="80" font-size="11" fill="#475569">Devices:</text>

  <!-- Receipt Printer chip -->
  <rect x="280" y="68" width="186" height="22" rx="11" fill="#92400E" opacity="0.6"/>
  <rect x="280" y="68" width="186" height="22" rx="11" fill="none" stroke="#F59E0B" stroke-width="1"/>
  <circle cx="296" cy="79" r="5" fill="#F59E0B"/>
  <text x="306" y="83" font-size="10" fill="#FCD34D">Receipt Printer (Star TSP143IV)</text>
  <use href="#gearIcon" x="448" y="71" width="12" height="12" color="#FCD34D"/>

  <!-- KDS Grill chip -->
  <rect x="478" y="68" width="130" height="22" rx="11" fill="#064E3B" opacity="0.7"/>
  <rect x="478" y="68" width="130" height="22" rx="11" fill="none" stroke="#22C55E" stroke-width="1"/>
  <circle cx="494" cy="79" r="5" fill="#22C55E"/>
  <text x="504" y="83" font-size="10" fill="#4ADE80">KDS -- Grill Station</text>

  <!-- KDS Fryer chip -->
  <rect x="620" y="68" width="130" height="22" rx="11" fill="#1E3A5F" opacity="0.7"/>
  <rect x="620" y="68" width="130" height="22" rx="11" fill="none" stroke="#60A5FA" stroke-width="1"/>
  <circle cx="636" cy="79" r="5" fill="#60A5FA"/>
  <text x="646" y="83" font-size="10" fill="#60A5FA">KDS -- Fryer Station</text>

  <!-- KDS Bar chip -->
  <rect x="762" y="68" width="120" height="22" rx="11" fill="#1E3A5F" opacity="0.7"/>
  <rect x="762" y="68" width="120" height="22" rx="11" fill="none" stroke="#60A5FA" stroke-width="1"/>
  <circle cx="778" cy="79" r="5" fill="#60A5FA"/>
  <text x="788" y="83" font-size="10" fill="#60A5FA">KDS -- Bar Station</text>

  <!-- KDS Expo chip -->
  <rect x="894" y="68" width="130" height="22" rx="11" fill="#3B0764" opacity="0.5"/>
  <rect x="894" y="68" width="130" height="22" rx="11" fill="none" stroke="#8B5CF6" stroke-width="1"/>
  <circle cx="910" cy="79" r="5" fill="#8B5CF6"/>
  <text x="920" y="83" font-size="10" fill="#C4B5FD">KDS -- Expo Station</text>

  <!-- ============================================================ -->
  <!--  MAIN TABLE: Routing Rules Grid                              -->
  <!--  DB: pos_printer_routes                                      -->
  <!--  Columns: CATEGORY | RECEIPT | GRILL | FRYER | BAR | EXPO | COPIES | FIRE DELAY | NOTES -->
  <!-- ============================================================ -->
  <rect x="201" y="96" width="866" height="760" fill="#0C0E1A"/>

  <!-- Column headers -->
  <!-- pos_printer_routes: category_id, printer_ids[], kds_ids[], copies, fire_delay_sec -->
  <rect x="201" y="96" width="866" height="36" fill="#1A1D2E" stroke="#1E2235" stroke-width="1"/>
  <text x="210" y="118" font-size="10" font-weight="700" fill="#94A3B8" letter-spacing="0.5">CATEGORY</text>
  <text x="374" y="110" font-size="9" font-weight="700" fill="#F59E0B">RECEIPT</text>
  <text x="372" y="122" font-size="9" font-weight="700" fill="#F59E0B">PRINTER</text>
  <text x="468" y="110" font-size="9" font-weight="700" fill="#22C55E">KDS:</text>
  <text x="466" y="122" font-size="9" font-weight="700" fill="#22C55E">GRILL</text>
  <text x="548" y="110" font-size="9" font-weight="700" fill="#60A5FA">KDS:</text>
  <text x="546" y="122" font-size="9" font-weight="700" fill="#60A5FA">FRYER</text>
  <text x="628" y="110" font-size="9" font-weight="700" fill="#60A5FA">KDS:</text>
  <text x="632" y="122" font-size="9" font-weight="700" fill="#60A5FA">BAR</text>
  <text x="708" y="110" font-size="9" font-weight="700" fill="#8B5CF6">KDS:</text>
  <text x="708" y="122" font-size="9" font-weight="700" fill="#8B5CF6">EXPO</text>
  <text x="788" y="110" font-size="9" font-weight="700" fill="#94A3B8">TICKET</text>
  <text x="788" y="122" font-size="9" font-weight="700" fill="#94A3B8">COPIES</text>
  <text x="848" y="110" font-size="9" font-weight="700" fill="#94A3B8">FIRE</text>
  <text x="848" y="122" font-size="9" font-weight="700" fill="#94A3B8">DELAY</text>
  <text x="910" y="118" font-size="9" font-weight="700" fill="#94A3B8">NOTES</text>

  <!-- Vertical dividers -->
  <line x1="368" y1="96" x2="368" y2="856" stroke="#1E2235" stroke-width="1"/>
  <line x1="460" y1="96" x2="460" y2="856" stroke="#1E2235" stroke-width="1"/>
  <line x1="540" y1="96" x2="540" y2="856" stroke="#1E2235" stroke-width="1"/>
  <line x1="620" y1="96" x2="620" y2="856" stroke="#1E2235" stroke-width="1"/>
  <line x1="700" y1="96" x2="700" y2="856" stroke="#1E2235" stroke-width="1"/>
  <line x1="780" y1="96" x2="780" y2="856" stroke="#1E2235" stroke-width="1"/>
  <line x1="838" y1="96" x2="838" y2="856" stroke="#1E2235" stroke-width="1"/>
  <line x1="900" y1="96" x2="900" y2="856" stroke="#1E2235" stroke-width="1"/>

  <!-- ── ROW 1: Burgers & Sandwiches (SELECTED) ── -->
  <!-- pos_printer_routes WHERE category_id=101 -->
  <rect x="201" y="132" width="866" height="52" fill="#1E2235" stroke="#F59E0B" stroke-width="1" opacity="0.9"/>
  <rect x="201" y="132" width="3" height="52" fill="#F59E0B"/>
  <text x="210" y="152" font-size="12" font-weight="600" fill="#FFFFFF">Burgers &amp; Sandwiches</text>
  <text x="210" y="168" font-size="10" fill="#475569">category_id: 101</text>
  <use href="#ckAmber" x="403" y="147" width="22" height="22"/>
  <use href="#ckGreen" x="489" y="147" width="22" height="22"/>
  <use href="#dashMark" x="563" y="147" width="22" height="22"/>
  <use href="#dashMark" x="645" y="147" width="22" height="22"/>
  <use href="#ckPurple" x="729" y="147" width="22" height="22"/>
  <text x="809" y="163" font-size="13" font-weight="600" fill="#FFFFFF" text-anchor="middle">1</text>
  <text x="869" y="163" font-size="12" fill="#94A3B8" text-anchor="middle">0s</text>
  <text x="950" y="163" font-size="11" fill="#475569">--</text>

  <!-- ── ROW 2: Appetizers ── -->
  <!-- pos_printer_routes WHERE category_id=102 -->
  <rect x="201" y="184" width="866" height="52" fill="#0C0E1A"/>
  <rect x="201" y="235" width="866" height="1" fill="#1E2235"/>
  <text x="210" y="204" font-size="12" fill="#FFFFFF">Appetizers</text>
  <text x="210" y="220" font-size="10" fill="#475569">category_id: 102</text>
  <use href="#ckAmber" x="403" y="199" width="22" height="22"/>
  <use href="#ckGreen" x="489" y="199" width="22" height="22"/>
  <use href="#dashMark" x="563" y="199" width="22" height="22"/>
  <use href="#dashMark" x="645" y="199" width="22" height="22"/>
  <use href="#dashMark" x="729" y="199" width="22" height="22"/>
  <text x="809" y="215" font-size="13" font-weight="600" fill="#FFFFFF" text-anchor="middle">1</text>
  <rect x="845" y="202" width="40" height="18" rx="4" fill="#7C2D12" opacity="0.6"/>
  <text x="865" y="215" font-size="12" fill="#F97316" text-anchor="middle">30s</text>
  <use href="#notesChip" x="908" y="202" width="100" height="18"/>
  <text x="915" y="215" font-size="10" fill="#94A3B8">Fire with mains</text>

  <!-- ── ROW 3: Fried Items ── -->
  <rect x="201" y="236" width="866" height="52" fill="#161930"/>
  <rect x="201" y="287" width="866" height="1" fill="#1E2235"/>
  <text x="210" y="256" font-size="12" fill="#FFFFFF">Fried Items</text>
  <text x="210" y="272" font-size="10" fill="#475569">category_id: 103</text>
  <use href="#ckAmber" x="403" y="251" width="22" height="22"/>
  <use href="#dashMark" x="489" y="251" width="22" height="22"/>
  <use href="#ckBlue" x="569" y="251" width="22" height="22"/>
  <use href="#dashMark" x="645" y="251" width="22" height="22"/>
  <use href="#dashMark" x="729" y="251" width="22" height="22"/>
  <text x="809" y="267" font-size="13" font-weight="600" fill="#FFFFFF" text-anchor="middle">1</text>
  <text x="869" y="267" font-size="12" fill="#94A3B8" text-anchor="middle">0s</text>
  <text x="950" y="267" font-size="11" fill="#475569">--</text>

  <!-- ── ROW 4: Salads ── -->
  <rect x="201" y="288" width="866" height="52" fill="#0C0E1A"/>
  <rect x="201" y="339" width="866" height="1" fill="#1E2235"/>
  <text x="210" y="308" font-size="12" fill="#FFFFFF">Salads</text>
  <text x="210" y="324" font-size="10" fill="#475569">category_id: 104</text>
  <use href="#ckAmber" x="403" y="303" width="22" height="22"/>
  <use href="#ckGreen" x="489" y="303" width="22" height="22"/>
  <use href="#dashMark" x="563" y="303" width="22" height="22"/>
  <use href="#dashMark" x="645" y="303" width="22" height="22"/>
  <use href="#dashMark" x="729" y="303" width="22" height="22"/>
  <text x="809" y="319" font-size="13" font-weight="600" fill="#FFFFFF" text-anchor="middle">1</text>
  <text x="869" y="319" font-size="12" fill="#94A3B8" text-anchor="middle">0s</text>
  <text x="950" y="319" font-size="11" fill="#475569">--</text>

  <!-- ── ROW 5: Beverages - Alcohol ── -->
  <rect x="201" y="340" width="866" height="52" fill="#161930"/>
  <rect x="201" y="391" width="866" height="1" fill="#1E2235"/>
  <text x="210" y="360" font-size="12" fill="#FFFFFF">Beverages -- Alcohol</text>
  <text x="210" y="376" font-size="10" fill="#475569">category_id: 107</text>
  <use href="#ckAmber" x="403" y="355" width="22" height="22"/>
  <use href="#dashMark" x="489" y="355" width="22" height="22"/>
  <use href="#dashMark" x="563" y="355" width="22" height="22"/>
  <use href="#ckBarBlue" x="649" y="355" width="22" height="22"/>
  <use href="#dashMark" x="729" y="355" width="22" height="22"/>
  <text x="809" y="371" font-size="13" font-weight="600" fill="#FFFFFF" text-anchor="middle">1</text>
  <text x="869" y="371" font-size="12" fill="#94A3B8" text-anchor="middle">0s</text>
  <use href="#notesChip" x="908" y="358" width="70" height="18"/>
  <text x="915" y="371" font-size="10" fill="#94A3B8">Bar only</text>

  <!-- ── ROW 6: Cocktails ── -->
  <rect x="201" y="392" width="866" height="52" fill="#0C0E1A"/>
  <rect x="201" y="443" width="866" height="1" fill="#1E2235"/>
  <text x="210" y="412" font-size="12" fill="#FFFFFF">Cocktails</text>
  <text x="210" y="428" font-size="10" fill="#475569">category_id: 108</text>
  <use href="#ckAmber" x="403" y="407" width="22" height="22"/>
  <use href="#dashMark" x="489" y="407" width="22" height="22"/>
  <use href="#dashMark" x="563" y="407" width="22" height="22"/>
  <use href="#ckBarBlue" x="649" y="407" width="22" height="22"/>
  <use href="#dashMark" x="729" y="407" width="22" height="22"/>
  <text x="809" y="423" font-size="13" font-weight="600" fill="#FFFFFF" text-anchor="middle">1</text>
  <text x="869" y="423" font-size="12" fill="#94A3B8" text-anchor="middle">0s</text>
  <text x="950" y="423" font-size="11" fill="#475569">--</text>

  <!-- ── ROW 7: Desserts ── -->
  <rect x="201" y="444" width="866" height="52" fill="#161930"/>
  <rect x="201" y="495" width="866" height="1" fill="#1E2235"/>
  <text x="210" y="464" font-size="12" fill="#FFFFFF">Desserts</text>
  <text x="210" y="480" font-size="10" fill="#475569">category_id: 110</text>
  <use href="#ckAmber" x="403" y="459" width="22" height="22"/>
  <use href="#dashMark" x="489" y="459" width="22" height="22"/>
  <use href="#dashMark" x="563" y="459" width="22" height="22"/>
  <use href="#dashMark" x="645" y="459" width="22" height="22"/>
  <use href="#ckPurple" x="729" y="459" width="22" height="22"/>
  <text x="809" y="475" font-size="13" font-weight="600" fill="#FFFFFF" text-anchor="middle">1</text>
  <text x="869" y="475" font-size="12" fill="#94A3B8" text-anchor="middle">0s</text>
  <use href="#notesChip" x="908" y="462" width="90" height="18"/>
  <text x="915" y="475" font-size="10" fill="#94A3B8">Expo plates</text>

  <!-- ── ROW 8: Kids Menu ── -->
  <rect x="201" y="496" width="866" height="52" fill="#0C0E1A"/>
  <rect x="201" y="547" width="866" height="1" fill="#1E2235"/>
  <text x="210" y="516" font-size="12" fill="#FFFFFF">Kids Menu</text>
  <text x="210" y="532" font-size="10" fill="#475569">category_id: 111</text>
  <use href="#ckAmber" x="403" y="511" width="22" height="22"/>
  <use href="#ckGreen" x="489" y="511" width="22" height="22"/>
  <use href="#dashMark" x="563" y="511" width="22" height="22"/>
  <use href="#dashMark" x="645" y="511" width="22" height="22"/>
  <use href="#dashMark" x="729" y="511" width="22" height="22"/>
  <text x="809" y="527" font-size="13" font-weight="600" fill="#FFFFFF" text-anchor="middle">1</text>
  <text x="869" y="527" font-size="12" fill="#94A3B8" text-anchor="middle">0s</text>
  <text x="950" y="527" font-size="11" fill="#475569">--</text>

  <!-- ── ROW 9: Daily Specials ── -->
  <rect x="201" y="548" width="866" height="52" fill="#161930"/>
  <rect x="201" y="599" width="866" height="1" fill="#1E2235"/>
  <text x="210" y="568" font-size="12" fill="#FFFFFF">Daily Specials</text>
  <text x="210" y="584" font-size="10" fill="#475569">category_id: 112</text>
  <use href="#ckAmber" x="403" y="563" width="22" height="22"/>
  <use href="#ckGreen" x="489" y="563" width="22" height="22"/>
  <use href="#dashMark" x="563" y="563" width="22" height="22"/>
  <use href="#dashMark" x="645" y="563" width="22" height="22"/>
  <use href="#ckPurple" x="729" y="563" width="22" height="22"/>
  <rect x="796" y="564" width="26" height="20" rx="4" fill="#7C2D12" opacity="0.5"/>
  <text x="809" y="579" font-size="13" font-weight="700" fill="#F97316" text-anchor="middle">2</text>
  <text x="869" y="579" font-size="12" fill="#94A3B8" text-anchor="middle">0s</text>
  <use href="#notesChip" x="908" y="566" width="70" height="18"/>
  <text x="915" y="579" font-size="10" fill="#94A3B8">2 copies</text>

  <!-- ── ROW 10: Modifications (special row) ── -->
  <rect x="201" y="600" width="866" height="52" fill="#0C0E1A"/>
  <rect x="201" y="651" width="866" height="1" fill="#1E2235"/>
  <rect x="201" y="600" width="3" height="52" fill="#8B5CF6"/>
  <text x="210" y="620" font-size="12" font-style="italic" fill="#C4B5FD">Modifications</text>
  <text x="210" y="636" font-size="10" fill="#475569">category_id: * (override)</text>
  <use href="#dashMark" x="403" y="615" width="22" height="22"/>
  <use href="#bumpGreen" x="482" y="618" width="36" height="18"/>
  <use href="#bumpBlue" x="562" y="618" width="36" height="18"/>
  <use href="#bumpBlue" x="642" y="618" width="36" height="18"/>
  <use href="#bumpPurple" x="722" y="618" width="36" height="18"/>
  <use href="#dashMark" x="800" y="615" width="22" height="22"/>
  <use href="#dashMark" x="860" y="615" width="22" height="22"/>
  <use href="#notesChip" x="908" y="618" width="90" height="18"/>
  <text x="915" y="631" font-size="10" fill="#C4B5FD">Mods to all</text>

  <!-- ── Add Category Row ── -->
  <rect x="201" y="652" width="866" height="36" fill="#161930" stroke="#1E2235" stroke-width="1" stroke-dasharray="4 3"/>
  <rect x="220" y="660" width="26" height="20" rx="4" fill="url(#amberBtnGrad)"/>
  <text x="233" y="675" font-size="14" font-weight="700" fill="#000" text-anchor="middle">+</text>
  <text x="258" y="675" font-size="12" fill="#F59E0B">Add Category Rule</text>

  <!-- ============================================================ -->
  <!--  SIDE PANEL: Routing Rule Editor                             -->
  <!--  DB: pos_printer_routes (UPDATE for selected category)       -->
  <!-- ============================================================ -->
  <rect x="1067" y="96" width="299" height="760" fill="#1A1D2E" stroke="#1E2235" stroke-width="1"/>

  <!-- Panel header -->
  <rect x="1067" y="96" width="299" height="48" fill="#1E2235" stroke="#1E2235" stroke-width="1"/>
  <text x="1083" y="116" font-size="13" font-weight="700" fill="#FFFFFF">Edit Rule</text>
  <use href="#gearIcon" x="1156" y="104" width="14" height="14" color="#F59E0B"/>
  <text x="1083" y="132" font-size="11" fill="#F59E0B">Burgers &amp; Sandwiches</text>
  <text x="1346" y="124" font-size="14" fill="#475569" text-anchor="middle">x</text>

  <!-- Category selector -->
  <!-- pos_printer_routes.category_id FK -> pos_menu_categories -->
  <text x="1083" y="164" font-size="10" font-weight="600" fill="#94A3B8" letter-spacing="0.5">CATEGORY</text>
  <use href="#inputField" x="1083" y="170" width="264" height="30"/>
  <text x="1097" y="190" font-size="12" fill="#FFFFFF">Burgers &amp; Sandwiches</text>

  <!-- Route to devices checkboxes -->
  <!-- pos_printer_routes.printer_ids[], kds_ids[] -->
  <text x="1083" y="222" font-size="10" font-weight="600" fill="#94A3B8" letter-spacing="0.5">ROUTE TO DEVICES</text>
  <use href="#gearIcon" x="1214" y="210" width="12" height="12" color="#475569"/>

  <!-- Receipt Printer (checked) -->
  <rect x="1083" y="228" width="14" height="14" rx="3" fill="#92400E" stroke="#F59E0B" stroke-width="1.5"/>
  <text x="1086" y="240" font-size="10" fill="#F59E0B">&#10003;</text>
  <circle cx="1107" cy="235" r="5" fill="#F59E0B" opacity="0.7"/>
  <text x="1115" y="240" font-size="11" fill="#FFFFFF">Receipt Printer (Star TSP143IV)</text>

  <!-- KDS Grill (checked) -->
  <rect x="1083" y="252" width="14" height="14" rx="3" fill="#064E3B" stroke="#22C55E" stroke-width="1.5"/>
  <text x="1086" y="264" font-size="10" fill="#22C55E">&#10003;</text>
  <circle cx="1107" cy="259" r="5" fill="#22C55E" opacity="0.7"/>
  <text x="1115" y="264" font-size="11" fill="#FFFFFF">KDS -- Grill Station</text>

  <!-- KDS Fryer (unchecked) -->
  <use href="#checkboxOff" x="1083" y="276" width="14" height="14"/>
  <circle cx="1107" cy="283" r="5" fill="#60A5FA" opacity="0.3"/>
  <text x="1115" y="288" font-size="11" fill="#475569">KDS -- Fryer Station</text>

  <!-- KDS Bar (unchecked) -->
  <use href="#checkboxOff" x="1083" y="300" width="14" height="14"/>
  <circle cx="1107" cy="307" r="5" fill="#60A5FA" opacity="0.3"/>
  <text x="1115" y="312" font-size="11" fill="#475569">KDS -- Bar Station</text>

  <!-- KDS Expo (checked) -->
  <rect x="1083" y="324" width="14" height="14" rx="3" fill="#3B0764" stroke="#8B5CF6" stroke-width="1.5"/>
  <text x="1086" y="336" font-size="10" fill="#8B5CF6">&#10003;</text>
  <circle cx="1107" cy="331" r="5" fill="#8B5CF6" opacity="0.7"/>
  <text x="1115" y="336" font-size="11" fill="#FFFFFF">KDS -- Expo Station</text>

  <line x1="1083" y1="352" x2="1347" y2="352" stroke="#1E2235" stroke-width="1"/>

  <!-- Ticket copies stepper -->
  <!-- pos_printer_routes.copies -->
  <text x="1083" y="374" font-size="10" font-weight="600" fill="#94A3B8" letter-spacing="0.5">TICKET COPIES</text>
  <use href="#gearIcon" x="1186" y="362" width="12" height="12" color="#475569"/>
  <rect x="1083" y="380" width="100" height="30" rx="6" fill="#0C0E1A" stroke="#1E2235" stroke-width="1"/>
  <rect x="1083" y="380" width="30" height="30" rx="6" fill="#1E2235"/>
  <text x="1098" y="400" font-size="16" fill="#94A3B8" text-anchor="middle">-</text>
  <text x="1133" y="400" font-size="13" font-weight="600" fill="#FFFFFF" text-anchor="middle">1</text>
  <rect x="1153" y="380" width="30" height="30" rx="6" fill="#1E2235"/>
  <text x="1168" y="400" font-size="16" fill="#F59E0B" text-anchor="middle">+</text>

  <line x1="1083" y1="424" x2="1347" y2="424" stroke="#1E2235" stroke-width="1"/>

  <!-- Fire delay slider -->
  <!-- pos_printer_routes.fire_delay_sec -->
  <text x="1083" y="446" font-size="10" font-weight="600" fill="#94A3B8" letter-spacing="0.5">FIRE DELAY</text>
  <use href="#gearIcon" x="1162" y="434" width="12" height="12" color="#475569"/>
  <text x="1340" y="446" font-size="11" font-weight="600" fill="#FFFFFF" text-anchor="end">0s</text>
  <rect x="1083" y="454" width="264" height="6" rx="3" fill="#2A2E45"/>
  <circle cx="1083" cy="457" r="8" fill="#F59E0B" stroke="#0C0E1A" stroke-width="2"/>
  <text x="1083" y="476" font-size="9" fill="#475569">0s</text>
  <text x="1347" y="476" font-size="9" fill="#475569" text-anchor="end">120s</text>

  <line x1="1083" y1="490" x2="1347" y2="490" stroke="#1E2235" stroke-width="1"/>

  <!-- Modifier behavior -->
  <text x="1083" y="512" font-size="10" font-weight="600" fill="#94A3B8" letter-spacing="0.5">MODIFIER BEHAVIOR</text>
  <rect x="1083" y="518" width="264" height="40" rx="4" fill="#0C0E1A" stroke="#1E2235" stroke-width="1"/>
  <text x="1093" y="534" font-size="10" fill="#94A3B8">Send mods to all stations</text>
  <text x="1093" y="548" font-size="10" fill="#94A3B8">that received the base item</text>
  <use href="#toggleOn" x="1297" y="524" width="40" height="20"/>

  <line x1="1083" y1="570" x2="1347" y2="570" stroke="#1E2235" stroke-width="1"/>

  <!-- IP config -->
  <!-- pos_devices: ip_address, port, protocol -->
  <text x="1083" y="590" font-size="10" font-weight="600" fill="#94A3B8" letter-spacing="0.5">DEVICE IP CONFIG</text>
  <use href="#gearIcon" x="1210" y="578" width="12" height="12" color="#F59E0B"/>
  <text x="1083" y="604" font-size="9" fill="#475569">pos_devices.ip_address</text>
  <rect x="1083" y="610" width="264" height="26" rx="4" fill="#0C0E1A" stroke="#1E2235" stroke-width="1"/>
  <text x="1095" y="628" font-size="11" fill="#FFFFFF">192.168.1.100:9100</text>
  <text x="1340" y="628" font-size="10" fill="#22C55E" text-anchor="end">Online</text>

  <rect x="1083" y="642" width="264" height="26" rx="4" fill="#0C0E1A" stroke="#1E2235" stroke-width="1"/>
  <text x="1095" y="660" font-size="11" fill="#FFFFFF">192.168.1.101 (KDS Grill)</text>
  <text x="1340" y="660" font-size="10" fill="#22C55E" text-anchor="end">Online</text>

  <rect x="1083" y="674" width="264" height="26" rx="4" fill="#0C0E1A" stroke="#1E2235" stroke-width="1"/>
  <text x="1095" y="692" font-size="11" fill="#FFFFFF">192.168.1.102 (KDS Expo)</text>
  <text x="1340" y="692" font-size="10" fill="#22C55E" text-anchor="end">Online</text>

  <line x1="1083" y1="712" x2="1347" y2="712" stroke="#1E2235" stroke-width="1"/>

  <!-- Save / Delete -->
  <rect x="1083" y="720" width="264" height="34" rx="6" fill="url(#amberBtnGrad)"/>
  <text x="1215" y="742" font-size="13" font-weight="700" fill="#000" text-anchor="middle">Save Rule</text>

  <text x="1215" y="774" font-size="11" fill="#EF4444" text-anchor="middle" text-decoration="underline">Delete Rule</text>

  <!-- ============================================================ -->
  <!--  BOTTOM: Workflow Integration Box                            -->
  <!--  DB: pos_printer_routes schema reference                     -->
  <!-- ============================================================ -->
  <rect x="201" y="898" width="866" height="118" rx="6" fill="#1A1D2E" stroke="#F59E0B" stroke-width="1"/>
  <rect x="201" y="898" width="4" height="118" rx="2" fill="#F59E0B"/>

  <text x="216" y="918" font-size="11" font-weight="700" fill="#F59E0B">Workflow Integration</text>
  <text x="216" y="936" font-size="10" fill="#94A3B8">Routing evaluated at: order submit + course fire + void</text>
  <text x="216" y="952" font-size="10" fill="#94A3B8">pos_printer_routes: category_id -> [printer_id], [kds_id], copies, fire_delay_sec</text>
  <text x="216" y="968" font-size="10" fill="#94A3B8">Modifications inherit parent item's route unless overridden</text>
  <text x="216" y="984" font-size="10" fill="#94A3B8">Course fire (seat mode) respects fire_delay independently</text>
  <text x="216" y="1000" font-size="10" fill="#94A3B8">KDS bump propagates void to all stations on the route</text>

  <!-- DB Schema Reference box -->
  <rect x="1067" y="898" width="299" height="118" rx="6" fill="#1A1D2E" stroke="#1E2235" stroke-width="1"/>
  <text x="1083" y="918" font-size="11" font-weight="700" fill="#94A3B8">DB Schema Reference</text>
  <text x="1083" y="936" font-size="9" fill="#475569">pos_printer_routes</text>
  <text x="1083" y="950" font-size="9" fill="#475569">  category_id  INTEGER FK -> pos_menu_categories</text>
  <text x="1083" y="964" font-size="9" fill="#475569">  printer_ids  INTEGER[] FK -> pos_devices</text>
  <text x="1083" y="978" font-size="9" fill="#475569">  kds_ids      INTEGER[] FK -> pos_devices</text>
  <text x="1083" y="992" font-size="9" fill="#475569">  copies       SMALLINT DEFAULT 1</text>
  <text x="1083" y="1006" font-size="9" fill="#475569">  fire_delay_sec SMALLINT DEFAULT 0</text>

  <!-- Frame border -->
  <rect x="0" y="0" width="1366" height="1024" fill="none" stroke="#1E2235" stroke-width="1"/>

</svg>