<svg role="img" aria-labelledby="title-settings_marketing-svg" xmlns="http://www.w3.org/2000/svg" viewBox="0 0 1366 1024" font-family="-apple-system,BlinkMacSystemFont,'SF Pro Display','Segoe UI',sans-serif">

  <!-- ============================================================ -->
  <!--  REUSABLE DEFINITIONS                                        -->
  <title id="title-settings_marketing-svg">Synalux POS — marketing</title>
  <desc>Synalux POS mockup screen for marketing. All UI elements admin-configurable.</desc>
  <!--  <defs>: gradients, filters, symbols – zero copy-paste      -->
  <!-- ============================================================ -->
  <title id="title-settings_marketing-svg">Synalux POS — marketing</title>
  <desc>Synalux POS mockup screen for marketing. All UI elements admin-configurable.</desc>
  <defs>
    <!-- Background gradient -->
    <linearGradient id="bgGrad" x1="0" y1="0" x2="0" y2="1">
      <stop offset="0%" stop-color="#0C0E1A"/>
      <stop offset="100%" stop-color="#0A0C16"/>
    </linearGradient>

    <!-- Sidebar gradient -->
    <linearGradient id="sidebarGrad" x1="0" y1="0" x2="0" y2="1">
      <stop offset="0%" stop-color="#141730"/>
      <stop offset="100%" stop-color="#0F1226"/>
    </linearGradient>

    <!-- Header gradient -->
    <linearGradient id="headerGrad" x1="0" y1="0" x2="1" y2="0">
      <stop offset="0%" stop-color="#1A1D2E"/>
      <stop offset="100%" stop-color="#1E2138"/>
    </linearGradient>

    <!-- Card shadow filter -->
    <filter id="cardShadow" x="-4%" y="-4%" width="108%" height="108%">
      <feDropShadow dx="0" dy="2" stdDeviation="4" flood-color="#000" flood-opacity="0.3"/>
    </filter>

    <!-- Amber glow -->
    <filter id="amberGlow" x="-20%" y="-20%" width="140%" height="140%">
      <feDropShadow dx="0" dy="0" stdDeviation="6" flood-color="#F59E0B" flood-opacity="0.25"/>
    </filter>

    <!-- ════════════════════════════════════════════════ -->
    <!--  SYMBOL: Admin gear icon (30% opacity default)  -->
    <!--  Placed on ALL editable/configurable fields     -->
    <!-- ════════════════════════════════════════════════ -->
    <symbol id="adminGear" viewBox="0 0 16 16">
      <path d="M8 1l1.2.4.6-1L11.4 1.8l-.2 1.2 1 .6 1.2-.2.8 1.4-1 .8.2 1.2 1 .6-.4 1.6H13l-.4 1 .8 1-.8 1.4-1.2-.2-.6 1-1.2.4L8 15l-1.2-.4-.6 1L4.6 14.2l.2-1.2-1-.6-1.2.2L1.8 11.2l1-.8-.2-1.2-1-.6.4-1.6H3l.4-1-.8-1 .8-1.4 1.2.2.6-1L6.8 1.4 8 1z" fill="none" stroke="#F59E0B" stroke-width="1.2" stroke-linejoin="round"/>
      <circle cx="8" cy="8" r="2.5" fill="none" stroke="#F59E0B" stroke-width="1.2"/>
    </symbol>

    <!-- ════════════════════════════════════════════════ -->
    <!--  SYMBOL: Nav item (sidebar row, inactive)       -->
    <!-- ════════════════════════════════════════════════ -->
    <symbol id="navItem" viewBox="0 0 210 36">
      <rect x="0" y="0" width="210" height="36" fill="none"/>
    </symbol>

    <!-- ════════════════════════════════════════════════ -->
    <!--  SYMBOL: Active nav item with amber highlight   -->
    <!-- ════════════════════════════════════════════════ -->
    <symbol id="navItemActive" viewBox="0 0 194 36">
      <rect x="0" y="0" width="194" height="36" rx="6" fill="#F59E0B" fill-opacity="0.15"/>
      <rect x="0" y="0" width="3" height="36" rx="1.5" fill="#F59E0B"/>
    </symbol>

    <!-- ════════════════════════════════════════════════ -->
    <!--  SYMBOL: Stat card (reused for 4 top stats)     -->
    <!-- ════════════════════════════════════════════════ -->
    <symbol id="statCard" viewBox="0 0 148 64">
      <rect x="0" y="0" width="148" height="64" rx="8" fill="#1A1D2E" stroke="#2A2E45" stroke-width="1"/>
    </symbol>

    <!-- ════════════════════════════════════════════════ -->
    <!--  SYMBOL: Campaign type badge (Email)            -->
    <!-- ════════════════════════════════════════════════ -->
    <symbol id="typeBadgeEmail" viewBox="0 0 46 18">
      <rect x="0" y="0" width="46" height="18" rx="9" fill="#8B5CF6" fill-opacity="0.2"/>
    </symbol>

    <!-- ════════════════════════════════════════════════ -->
    <!--  SYMBOL: Campaign type badge (SMS)              -->
    <!-- ════════════════════════════════════════════════ -->
    <symbol id="typeBadgeSMS" viewBox="0 0 40 18">
      <rect x="0" y="0" width="40" height="18" rx="9" fill="#22C55E" fill-opacity="0.2"/>
    </symbol>

    <!-- ════════════════════════════════════════════════ -->
    <!--  SYMBOL: Status badge (Completed)               -->
    <!-- ════════════════════════════════════════════════ -->
    <symbol id="statusCompleted" viewBox="0 0 68 20">
      <rect x="0" y="0" width="68" height="20" rx="10" fill="#22C55E" fill-opacity="0.15"/>
      <circle cx="8" cy="10" r="3" fill="#22C55E"/>
    </symbol>

    <!-- ════════════════════════════════════════════════ -->
    <!--  SYMBOL: Status badge (Scheduled)               -->
    <!-- ════════════════════════════════════════════════ -->
    <symbol id="statusScheduled" viewBox="0 0 66 20">
      <rect x="0" y="0" width="66" height="20" rx="10" fill="#F59E0B" fill-opacity="0.15"/>
      <circle cx="8" cy="10" r="3" fill="#F59E0B"/>
    </symbol>

    <!-- ════════════════════════════════════════════════ -->
    <!--  SYMBOL: Status badge (Active / automation)     -->
    <!-- ════════════════════════════════════════════════ -->
    <symbol id="statusActive" viewBox="0 0 54 20">
      <rect x="0" y="0" width="54" height="20" rx="10" fill="#60A5FA" fill-opacity="0.15"/>
      <circle cx="8" cy="10" r="3" fill="#60A5FA"/>
    </symbol>

    <!-- ════════════════════════════════════════════════ -->
    <!--  SYMBOL: Status badge (Draft)                   -->
    <!-- ════════════════════════════════════════════════ -->
    <symbol id="statusDraft" viewBox="0 0 46 20">
      <rect x="0" y="0" width="46" height="20" rx="10" fill="#64748B" fill-opacity="0.2"/>
    </symbol>

    <!-- ════════════════════════════════════════════════ -->
    <!--  SYMBOL: Email icon placeholder (table row)     -->
    <!-- ════════════════════════════════════════════════ -->
    <symbol id="emailIcon" viewBox="0 0 18 14">
      <rect x="0" y="0" width="18" height="14" rx="2" fill="#8B5CF6" fill-opacity="0.3"/>
    </symbol>

    <!-- ════════════════════════════════════════════════ -->
    <!--  SYMBOL: Segment radio (selected)               -->
    <!-- ════════════════════════════════════════════════ -->
    <symbol id="radioSelected" viewBox="0 0 14 14">
      <circle cx="7" cy="7" r="7" fill="none" stroke="#F59E0B" stroke-width="2"/>
      <circle cx="7" cy="7" r="3.5" fill="#F59E0B"/>
    </symbol>

    <!-- ════════════════════════════════════════════════ -->
    <!--  SYMBOL: Segment radio (unselected)             -->
    <!-- ════════════════════════════════════════════════ -->
    <symbol id="radioUnselected" viewBox="0 0 10 10">
      <circle cx="5" cy="5" r="5" fill="none" stroke="#64748B" stroke-width="1.5"/>
    </symbol>

    <!-- ════════════════════════════════════════════════ -->
    <!--  SYMBOL: Segment chip (unselected)              -->
    <!-- ════════════════════════════════════════════════ -->
    <symbol id="segmentChip" viewBox="0 0 130 26">
      <rect x="0" y="0" width="130" height="26" rx="6" fill="#2A2E45" fill-opacity="0.6"/>
    </symbol>

    <!-- ════════════════════════════════════════════════ -->
    <!--  SYMBOL: Automation template card               -->
    <!--  Reused for each automation type                -->
    <!-- ════════════════════════════════════════════════ -->
    <symbol id="autoCard" viewBox="0 0 200 90">
      <rect x="0" y="0" width="200" height="90" rx="10" fill="#1A1D2E" stroke="#2A2E45" stroke-width="1"/>
    </symbol>

    <!-- ════════════════════════════════════════════════ -->
    <!--  SYMBOL: Form field                             -->
    <!-- ════════════════════════════════════════════════ -->
    <symbol id="formField" viewBox="0 0 452 38">
      <rect x="0" y="0" width="452" height="38" rx="8" fill="#0C0E1A" stroke="#2A2E45" stroke-width="1"/>
    </symbol>
  </defs>

  <!-- ============================================================ -->
  <!--  BACKGROUND                                                  -->
  <!-- ============================================================ -->
  <rect width="1366" height="1024" fill="url(#bgGrad)"/>

  <!-- ============================================================ -->
  <!--  LEFT SIDEBAR (210px)                                        -->
  <!--  DB: pos_admin_navigation                                    -->
  <!-- ============================================================ -->
  <rect x="0" y="0" width="210" height="1024" fill="url(#sidebarGrad)"/>
  <rect x="210" y="0" width="1" height="1024" fill="#2A2E45"/>

  <!-- Logo area -->
  <!-- DB: pos_restaurant_info.name, .branding -->
  <rect x="16" y="18" width="26" height="26" rx="6" fill="#F59E0B"/>
  <text x="29" y="35" fill="#0C0E1A" font-size="13" font-weight="700" text-anchor="middle">S</text>
  <text x="52" y="38" fill="#E2E8F0" font-size="14" font-weight="700">Synalux POS</text>
  <use href="#adminGear" x="180" y="26" width="12" height="12" opacity="0.3"/>
  <line x1="0" y1="60" x2="210" y2="60" stroke="#2A2E45" stroke-width="1"/>

  <!-- MAIN section -->
  <!-- DB: pos_navigation_items -->
  <text x="16" y="78" fill="#64748B" font-size="10" font-weight="600" letter-spacing="0.8">MAIN</text>
  <text x="36" y="98" fill="#64748B" font-size="13">Dashboard</text>
  <use href="#adminGear" x="186" y="88" width="10" height="10" opacity="0.3"/>
  <text x="36" y="122" fill="#64748B" font-size="13">Orders</text>
  <use href="#adminGear" x="186" y="112" width="10" height="10" opacity="0.3"/>
  <text x="36" y="146" fill="#64748B" font-size="13">Menu</text>
  <use href="#adminGear" x="186" y="136" width="10" height="10" opacity="0.3"/>
  <text x="36" y="170" fill="#94A3B8" font-size="13">Customers</text>
  <use href="#adminGear" x="186" y="160" width="10" height="10" opacity="0.3"/>

  <line x1="16" y1="186" x2="194" y2="186" stroke="#2A2E45" stroke-width="1"/>

  <!-- SETTINGS section -->
  <text x="16" y="204" fill="#64748B" font-size="10" font-weight="600" letter-spacing="0.8">SETTINGS</text>
  <text x="36" y="226" fill="#64748B" font-size="13">General</text>
  <use href="#adminGear" x="186" y="216" width="10" height="10" opacity="0.3"/>
  <text x="36" y="250" fill="#64748B" font-size="13">Payments</text>
  <use href="#adminGear" x="186" y="240" width="10" height="10" opacity="0.3"/>
  <text x="36" y="274" fill="#64748B" font-size="13">Loyalty</text>
  <use href="#adminGear" x="186" y="264" width="10" height="10" opacity="0.3"/>

  <!-- Marketing – HIGHLIGHTED -->
  <!-- DB: pos_navigation_items.active = true -->
  <use href="#navItemActive" x="8" y="284"/>
  <text x="36" y="307" fill="#F59E0B" font-size="13" font-weight="600">Marketing</text>
  <use href="#adminGear" x="182" y="294" width="12" height="12" opacity="0.3"/>

  <!-- Sub-items under Marketing -->
  <!-- DB: pos_navigation_items (sub-routes) -->
  <rect x="24" y="326" width="178" height="28" rx="5" fill="#F59E0B" fill-opacity="0.12"/>
  <text x="44" y="345" fill="#F59E0B" font-size="12" font-weight="600">Campaigns</text>
  <use href="#adminGear" x="186" y="335" width="10" height="10" opacity="0.3"/>
  <text x="44" y="369" fill="#94A3B8" font-size="12">Automations</text>
  <use href="#adminGear" x="186" y="359" width="10" height="10" opacity="0.3"/>
  <text x="44" y="393" fill="#94A3B8" font-size="12">Segments</text>
  <use href="#adminGear" x="186" y="383" width="10" height="10" opacity="0.3"/>
  <text x="44" y="417" fill="#94A3B8" font-size="12">Templates</text>
  <use href="#adminGear" x="186" y="407" width="10" height="10" opacity="0.3"/>

  <line x1="16" y1="436" x2="194" y2="436" stroke="#2A2E45" stroke-width="1"/>

  <text x="36" y="454" fill="#64748B" font-size="13">Reports</text>
  <use href="#adminGear" x="186" y="444" width="10" height="10" opacity="0.3"/>
  <text x="36" y="478" fill="#64748B" font-size="13">Staff</text>
  <use href="#adminGear" x="186" y="468" width="10" height="10" opacity="0.3"/>
  <text x="36" y="502" fill="#64748B" font-size="13">Integrations</text>
  <use href="#adminGear" x="186" y="492" width="10" height="10" opacity="0.3"/>

  <!-- Bottom user avatar -->
  <line x1="0" y1="974" x2="210" y2="974" stroke="#2A2E45" stroke-width="1"/>
  <circle cx="28" cy="998" r="14" fill="#2A2E45"/>
  <text x="28" y="1003" fill="#E2E8F0" font-size="12" text-anchor="middle" font-weight="600">DM</text>
  <text x="52" y="994" fill="#E2E8F0" font-size="12" font-weight="600">Dmitri M.</text>
  <text x="52" y="1008" fill="#64748B" font-size="10">Admin</text>

  <!-- ============================================================ -->
  <!--  TOP BAR                                                     -->
  <!--  DB: pos_admin_breadcrumbs                                   -->
  <!-- ============================================================ -->
  <rect x="211" y="0" width="1155" height="60" fill="url(#headerGrad)"/>
  <line x1="211" y1="60" x2="1366" y2="60" stroke="#2A2E45" stroke-width="1"/>

  <text x="230" y="35" fill="#64748B" font-size="13">Settings</text>
  <text x="295" y="35" fill="#64748B" font-size="13">/</text>
  <text x="310" y="35" fill="#E2E8F0" font-size="13" font-weight="600">Marketing</text>

  <!-- Top-right controls -->
  <circle cx="1320" cy="30" r="16" fill="#2A2E45"/>
  <text x="1320" y="35" fill="#E2E8F0" font-size="11" text-anchor="middle">Bell</text>
  <circle cx="1350" cy="30" r="14" fill="#F59E0B" fill-opacity="0.2"/>
  <text x="1350" y="35" fill="#F59E0B" font-size="12" text-anchor="middle" font-weight="700">D</text>

  <!-- ============================================================ -->
  <!--  CAMPAIGNS LIST PANEL (left 640px of content area)           -->
  <!--  DB: pos_marketing_campaigns (all rows)                      -->
  <!-- ============================================================ -->
  <g transform="translate(222, 72)">

    <text x="0" y="22" fill="#E2E8F0" font-size="18" font-weight="700">Marketing Campaigns</text>
    <text x="0" y="40" fill="#64748B" font-size="12">Reach your loyalty customers with targeted email and SMS campaigns.</text>
    <use href="#adminGear" x="470" y="10" width="12" height="12" opacity="0.3"/>

    <!-- "+ New Campaign" button -->
    <!-- DB: INSERT INTO pos_marketing_campaigns -->
    <rect x="484" y="4" width="148" height="36" rx="8" fill="#F59E0B" filter="url(#amberGlow)"/>
    <text x="558" y="27" fill="#0C0E1A" font-size="13" font-weight="700" text-anchor="middle">+ New Campaign</text>

    <!-- Stats row -->
    <!-- DB: pos_marketing_campaigns aggregate metrics -->
    <g transform="translate(0, 58)">
      <use href="#statCard" x="0" y="0"/>
      <text x="12" y="20" fill="#64748B" font-size="10" font-weight="600" letter-spacing="0.5">TOTAL SENT (30D)</text>
      <text x="12" y="46" fill="#E2E8F0" font-size="22" font-weight="700">1,837</text>
      <use href="#adminGear" x="126" y="10" width="10" height="10" opacity="0.3"/>

      <use href="#statCard" x="160" y="0"/>
      <text x="172" y="20" fill="#64748B" font-size="10" font-weight="600" letter-spacing="0.5">AVG OPEN RATE</text>
      <text x="172" y="46" fill="#22C55E" font-size="22" font-weight="700">34%</text>
      <use href="#adminGear" x="286" y="10" width="10" height="10" opacity="0.3"/>

      <use href="#statCard" x="320" y="0"/>
      <text x="332" y="20" fill="#64748B" font-size="10" font-weight="600" letter-spacing="0.5">REVENUE ATTR.</text>
      <text x="332" y="46" fill="#F59E0B" font-size="22" font-weight="700">$9,150</text>
      <use href="#adminGear" x="446" y="10" width="10" height="10" opacity="0.3"/>

      <use href="#statCard" x="480" y="0"/>
      <text x="492" y="20" fill="#64748B" font-size="10" font-weight="600" letter-spacing="0.5">ACTIVE AUTO.</text>
      <text x="492" y="46" fill="#8B5CF6" font-size="22" font-weight="700">2</text>
      <use href="#adminGear" x="606" y="10" width="10" height="10" opacity="0.3"/>
    </g>

    <!-- Campaigns Table -->
    <!-- DB: pos_marketing_campaigns ORDER BY created_at DESC -->
    <g transform="translate(0, 140)">
      <!-- Table header -->
      <rect x="0" y="0" width="632" height="36" rx="6" fill="#2A2E45" fill-opacity="0.5"/>
      <text x="12" y="23" fill="#64748B" font-size="11" font-weight="600" letter-spacing="0.5">CAMPAIGN NAME</text>
      <text x="210" y="23" fill="#64748B" font-size="11" font-weight="600" letter-spacing="0.5">TYPE</text>
      <text x="272" y="23" fill="#64748B" font-size="11" font-weight="600" letter-spacing="0.5">SEGMENT</text>
      <text x="380" y="23" fill="#64748B" font-size="11" font-weight="600" letter-spacing="0.5">SENT</text>
      <text x="424" y="23" fill="#64748B" font-size="11" font-weight="600" letter-spacing="0.5">OPEN %</text>
      <text x="482" y="23" fill="#64748B" font-size="11" font-weight="600" letter-spacing="0.5">REVENUE</text>
      <text x="560" y="23" fill="#64748B" font-size="11" font-weight="600" letter-spacing="0.5">STATUS</text>
      <use href="#adminGear" x="610" y="10" width="10" height="10" opacity="0.3"/>

      <!-- Row 1: Spring Promo -->
      <!-- DB: pos_marketing_campaigns.id = 'CAMP-001' -->
      <rect x="0" y="36" width="632" height="48" fill="#1A1D2E"/>
      <rect x="0" y="36" width="632" height="1" fill="#2A2E45"/>
      <rect x="0" y="83" width="632" height="1" fill="#2A2E45"/>
      <use href="#emailIcon" x="10" y="49"/>
      <!-- DB: pos_marketing_campaigns.name -->
      <text x="34" y="58" fill="#E2E8F0" font-size="13" font-weight="500">Spring Promo</text>
      <!-- DB: pos_marketing_campaigns.created_at -->
      <text x="34" y="73" fill="#64748B" font-size="10">Apr 15, 2026</text>
      <!-- DB: pos_marketing_campaigns.channel -->
      <use href="#typeBadgeEmail" x="204" y="48"/>
      <text x="227" y="61" fill="#8B5CF6" font-size="10" font-weight="600" text-anchor="middle">Email</text>
      <!-- DB: pos_marketing_campaigns.segment_id -->
      <text x="272" y="58" fill="#94A3B8" font-size="12">All loyalty</text>
      <!-- DB: pos_marketing_campaigns.sent_count -->
      <text x="380" y="58" fill="#E2E8F0" font-size="13" font-weight="500">1,240</text>
      <!-- DB: pos_marketing_campaigns.open_rate -->
      <text x="424" y="58" fill="#22C55E" font-size="13" font-weight="600">34%</text>
      <!-- DB: pos_marketing_campaigns.revenue_attributed -->
      <text x="482" y="58" fill="#E2E8F0" font-size="13" font-weight="500">$4,820</text>
      <use href="#statusCompleted" x="554" y="48"/>
      <text x="570" y="62" fill="#22C55E" font-size="10" font-weight="600">Completed</text>
      <use href="#adminGear" x="614" y="54" width="8" height="8" opacity="0.3"/>

      <!-- Row 2: Win-Back -->
      <!-- DB: pos_marketing_campaigns.id = 'CAMP-002' -->
      <rect x="0" y="84" width="632" height="48" fill="#0C0E1A" fill-opacity="0.3"/>
      <rect x="0" y="131" width="632" height="1" fill="#2A2E45"/>
      <rect x="10" y="97" width="18" height="14" rx="2" fill="#22C55E" fill-opacity="0.3"/>
      <text x="34" y="106" fill="#E2E8F0" font-size="13" font-weight="500">Win-Back: 30+ days</text>
      <text x="34" y="121" fill="#64748B" font-size="10">Apr 20, 2026</text>
      <use href="#typeBadgeSMS" x="204" y="96"/>
      <text x="224" y="109" fill="#22C55E" font-size="10" font-weight="600" text-anchor="middle">SMS</text>
      <text x="272" y="106" fill="#94A3B8" font-size="12">Lapsed (30d)</text>
      <text x="380" y="106" fill="#E2E8F0" font-size="13" font-weight="500">387</text>
      <text x="424" y="106" fill="#64748B" font-size="12">--</text>
      <text x="482" y="106" fill="#E2E8F0" font-size="13" font-weight="500">$1,140</text>
      <use href="#statusCompleted" x="554" y="96"/>
      <text x="570" y="110" fill="#22C55E" font-size="10" font-weight="600">Completed</text>
      <use href="#adminGear" x="614" y="102" width="8" height="8" opacity="0.3"/>

      <!-- Row 3: Happy Hour Reminder -->
      <!-- DB: pos_marketing_campaigns.id = 'CAMP-003' -->
      <rect x="0" y="132" width="632" height="48" fill="#1A1D2E"/>
      <rect x="0" y="179" width="632" height="1" fill="#2A2E45"/>
      <use href="#emailIcon" x="10" y="145"/>
      <text x="34" y="154" fill="#E2E8F0" font-size="13" font-weight="500">Happy Hour Reminder</text>
      <!-- DB: pos_marketing_campaigns.scheduled_at -->
      <text x="34" y="169" fill="#64748B" font-size="10">May 28, 2026 – 5:00 PM</text>
      <use href="#typeBadgeEmail" x="204" y="144"/>
      <text x="227" y="157" fill="#8B5CF6" font-size="10" font-weight="600" text-anchor="middle">Email</text>
      <text x="272" y="154" fill="#94A3B8" font-size="12">Gold tier</text>
      <text x="380" y="154" fill="#E2E8F0" font-size="13" font-weight="500">210</text>
      <text x="424" y="154" fill="#22C55E" font-size="13" font-weight="600">28%</text>
      <text x="482" y="154" fill="#E2E8F0" font-size="13" font-weight="500">$890</text>
      <use href="#statusScheduled" x="554" y="144"/>
      <text x="570" y="158" fill="#F59E0B" font-size="10" font-weight="600">Scheduled</text>
      <use href="#adminGear" x="614" y="150" width="8" height="8" opacity="0.3"/>

      <!-- Row 4: Birthday Week (automation) -->
      <!-- DB: pos_marketing_campaigns.id = 'CAMP-004', type = 'automation' -->
      <rect x="0" y="180" width="632" height="48" fill="#0C0E1A" fill-opacity="0.3"/>
      <rect x="0" y="227" width="632" height="1" fill="#2A2E45"/>
      <use href="#emailIcon" x="10" y="193"/>
      <text x="34" y="202" fill="#E2E8F0" font-size="13" font-weight="500">Birthday Week</text>
      <text x="34" y="217" fill="#64748B" font-size="10">Automation – Ongoing</text>
      <rect x="200" y="192" width="60" height="18" rx="9" fill="#2A2E45"/>
      <text x="230" y="205" fill="#94A3B8" font-size="9" font-weight="600" text-anchor="middle">Email+SMS</text>
      <text x="272" y="202" fill="#94A3B8" font-size="12">Birthdays</text>
      <text x="380" y="202" fill="#94A3B8" font-size="12" font-style="italic">Auto</text>
      <text x="424" y="202" fill="#22C55E" font-size="13" font-weight="600">41%</text>
      <text x="482" y="202" fill="#E2E8F0" font-size="13" font-weight="500">$2,300</text>
      <use href="#statusActive" x="554" y="192"/>
      <text x="570" y="206" fill="#60A5FA" font-size="10" font-weight="600">Active</text>
      <use href="#adminGear" x="614" y="198" width="8" height="8" opacity="0.3"/>

      <!-- Row 5: Mother's Day (selected/editing) -->
      <!-- DB: pos_marketing_campaigns.id = 'CAMP-005', status = 'draft' -->
      <rect x="0" y="228" width="632" height="48" fill="#F59E0B" fill-opacity="0.06" stroke="#F59E0B" stroke-width="1" stroke-opacity="0.3"/>
      <use href="#emailIcon" x="10" y="241"/>
      <text x="34" y="250" fill="#E2E8F0" font-size="13" font-weight="500">Mother's Day</text>
      <text x="34" y="265" fill="#64748B" font-size="10">Draft – Editing now</text>
      <use href="#typeBadgeEmail" x="204" y="240"/>
      <text x="227" y="253" fill="#8B5CF6" font-size="10" font-weight="600" text-anchor="middle">Email</text>
      <text x="272" y="250" fill="#94A3B8" font-size="12">All loyalty</text>
      <text x="380" y="250" fill="#64748B" font-size="12">Draft</text>
      <text x="424" y="250" fill="#64748B" font-size="12">--</text>
      <text x="482" y="250" fill="#64748B" font-size="12">--</text>
      <use href="#statusDraft" x="554" y="240"/>
      <text x="577" y="254" fill="#94A3B8" font-size="10" font-weight="600" text-anchor="middle">Draft</text>
      <use href="#adminGear" x="614" y="246" width="8" height="8" opacity="0.3"/>
    </g>

    <!-- ── Automation Templates Row ── -->
    <!-- DB: pos_marketing_automations -->
    <g transform="translate(0, 450)">
      <text x="0" y="16" fill="#E2E8F0" font-size="15" font-weight="700">Automation Templates</text>
      <text x="0" y="33" fill="#64748B" font-size="12">Set-and-forget campaigns triggered by customer behavior.</text>
      <use href="#adminGear" x="420" y="4" width="12" height="12" opacity="0.3"/>

      <!-- Card 1: Birthday Reward -->
      <!-- DB: pos_marketing_automations.id = 'AUTO-001' -->
      <use href="#autoCard" x="0" y="46"/>
      <rect x="0" y="46" width="200" height="4" rx="2" fill="#F59E0B"/>
      <!-- DB: pos_marketing_automations.name -->
      <text x="12" y="70" fill="#E2E8F0" font-size="13" font-weight="600">Birthday Reward</text>
      <!-- DB: pos_marketing_automations.trigger_description -->
      <text x="12" y="87" fill="#64748B" font-size="11">Sends 3 days before birthday</text>
      <text x="12" y="102" fill="#64748B" font-size="11">with a special offer</text>
      <rect x="12" y="114" width="50" height="18" rx="9" fill="#F59E0B" fill-opacity="0.2"/>
      <circle cx="20" cy="123" r="3" fill="#F59E0B"/>
      <text x="28" y="127" fill="#F59E0B" font-size="10" font-weight="600">Active</text>
      <use href="#adminGear" x="170" y="58" width="10" height="10" opacity="0.3"/>

      <!-- Card 2: Win-Back -->
      <!-- DB: pos_marketing_automations.id = 'AUTO-002' -->
      <use href="#autoCard" x="212" y="46"/>
      <rect x="212" y="46" width="200" height="4" rx="2" fill="#22C55E"/>
      <text x="224" y="70" fill="#E2E8F0" font-size="13" font-weight="600">Win-Back (30 days)</text>
      <text x="224" y="87" fill="#64748B" font-size="11">Triggers if no visit in 30 days</text>
      <text x="224" y="102" fill="#64748B" font-size="11">with a comeback incentive</text>
      <rect x="224" y="114" width="50" height="18" rx="9" fill="#22C55E" fill-opacity="0.15"/>
      <circle cx="232" cy="123" r="3" fill="#22C55E"/>
      <text x="240" y="127" fill="#22C55E" font-size="10" font-weight="600">Active</text>
      <use href="#adminGear" x="382" y="58" width="10" height="10" opacity="0.3"/>

      <!-- Card 3: Post-Visit Thank You -->
      <!-- DB: pos_marketing_automations.id = 'AUTO-003', status = 'inactive' -->
      <rect x="424" y="46" width="208" height="90" rx="10" fill="#1A1D2E" stroke="#2A2E45" stroke-width="1"/>
      <rect x="424" y="46" width="208" height="4" rx="2" fill="#2A2E45"/>
      <text x="436" y="70" fill="#E2E8F0" font-size="13" font-weight="600">Post-Visit Thank You</text>
      <text x="436" y="87" fill="#64748B" font-size="11">Sends 2 hours after payment</text>
      <text x="436" y="102" fill="#64748B" font-size="11">with a review request</text>
      <rect x="436" y="114" width="60" height="18" rx="9" fill="#2A2E45"/>
      <circle cx="444" cy="123" r="3" fill="#64748B"/>
      <text x="452" y="127" fill="#64748B" font-size="10" font-weight="600">Inactive</text>
      <rect x="562" y="114" width="54" height="18" rx="9" fill="#2A2E45" stroke="#2A2E45" stroke-width="1"/>
      <text x="589" y="127" fill="#94A3B8" font-size="10" font-weight="600" text-anchor="middle">Enable</text>
      <use href="#adminGear" x="602" y="58" width="10" height="10" opacity="0.3"/>
    </g>

  </g>

  <!-- ============================================================ -->
  <!--  DIVIDER                                                     -->
  <!-- ============================================================ -->
  <line x1="882" y1="72" x2="882" y2="980" stroke="#2A2E45" stroke-width="1"/>

  <!-- ============================================================ -->
  <!--  RIGHT PANEL: CAMPAIGN EDITOR                                -->
  <!--  DB: pos_marketing_campaigns.id = 'CAMP-005' (editable form) -->
  <!--  Admin portal: all fields editable + saveable                -->
  <!-- ============================================================ -->
  <g transform="translate(894, 72)">

    <text x="0" y="22" fill="#E2E8F0" font-size="16" font-weight="700">Campaign Editor</text>
    <rect x="0" y="32" width="100" height="1" fill="#F59E0B" fill-opacity="0.4"/>
    <use href="#adminGear" x="140" y="10" width="14" height="14" opacity="0.3"/>

    <!-- Campaign Name -->
    <!-- DB: pos_marketing_campaigns.name -->
    <text x="0" y="60" fill="#64748B" font-size="11" font-weight="600" letter-spacing="0.5">CAMPAIGN NAME</text>
    <use href="#adminGear" x="120" y="50" width="10" height="10" opacity="0.3"/>
    <rect x="0" y="68" width="452" height="38" rx="8" fill="#0C0E1A" stroke="#F59E0B" stroke-width="1.5"/>
    <text x="14" y="92" fill="#E2E8F0" font-size="14" font-weight="500">Mother's Day Brunch Special</text>

    <!-- Type tabs -->
    <!-- DB: pos_marketing_campaigns.channel ('email' | 'sms' | 'both') -->
    <text x="0" y="130" fill="#64748B" font-size="11" font-weight="600" letter-spacing="0.5">TYPE</text>
    <use href="#adminGear" x="40" y="120" width="10" height="10" opacity="0.3"/>
    <rect x="0" y="138" width="452" height="38" rx="8" fill="#0C0E1A" stroke="#2A2E45" stroke-width="1"/>
    <rect x="4" y="142" width="100" height="30" rx="6" fill="#F59E0B"/>
    <text x="54" y="161" fill="#0C0E1A" font-size="12" font-weight="700" text-anchor="middle">Email</text>
    <text x="156" y="161" fill="#94A3B8" font-size="12" text-anchor="middle">SMS</text>
    <text x="256" y="161" fill="#94A3B8" font-size="12" text-anchor="middle">Both</text>

    <!-- Segment -->
    <!-- DB: pos_marketing_campaigns.segment_id (FK to pos_customer_segments) -->
    <text x="0" y="200" fill="#64748B" font-size="11" font-weight="600" letter-spacing="0.5">SEGMENT</text>
    <use href="#adminGear" x="70" y="190" width="10" height="10" opacity="0.3"/>

    <!-- All loyalty (selected) -->
    <rect x="0" y="208" width="452" height="40" rx="8" fill="#F59E0B" fill-opacity="0.1" stroke="#F59E0B" stroke-width="1.5"/>
    <use href="#radioSelected" x="11" y="221"/>
    <text x="34" y="232" fill="#E2E8F0" font-size="13" font-weight="500">All loyalty customers</text>
    <rect x="308" y="218" width="130" height="20" rx="10" fill="#F59E0B" fill-opacity="0.15"/>
    <text x="373" y="232" fill="#F59E0B" font-size="11" font-weight="600" text-anchor="middle">1,240 recipients</text>

    <!-- Other segments -->
    <!-- DB: pos_customer_segments (all available segments) -->
    <g transform="translate(0, 256)">
      <text x="0" y="14" fill="#64748B" font-size="11">Other segments:</text>

      <use href="#segmentChip" x="0" y="22"/>
      <use href="#radioUnselected" x="9" y="30"/>
      <text x="26" y="39" fill="#94A3B8" font-size="11">Gold tier</text>
      <text x="100" y="39" fill="#64748B" font-size="10">210</text>

      <use href="#segmentChip" x="138" y="22" width="120" height="26"/>
      <use href="#radioUnselected" x="147" y="30"/>
      <text x="164" y="39" fill="#94A3B8" font-size="11">Silver</text>
      <text x="228" y="39" fill="#64748B" font-size="10">480</text>

      <use href="#segmentChip" x="0" y="54" width="140" height="26"/>
      <use href="#radioUnselected" x="9" y="62"/>
      <text x="26" y="71" fill="#94A3B8" font-size="11">Lapsed 30d</text>
      <text x="108" y="71" fill="#64748B" font-size="10">387</text>

      <use href="#segmentChip" x="148" y="54" width="140" height="26"/>
      <use href="#radioUnselected" x="157" y="62"/>
      <text x="174" y="71" fill="#94A3B8" font-size="11">Lapsed 60d</text>
      <text x="256" y="71" fill="#64748B" font-size="10">198</text>

      <rect x="0" y="86" width="220" height="26" rx="6" fill="#2A2E45" fill-opacity="0.6"/>
      <use href="#radioUnselected" x="9" y="94"/>
      <text x="26" y="103" fill="#94A3B8" font-size="11">Birthdays (this month)</text>
      <text x="192" y="103" fill="#64748B" font-size="10">43</text>
    </g>

    <!-- Subject line -->
    <!-- DB: pos_marketing_campaigns.subject -->
    <text x="0" y="436" fill="#64748B" font-size="11" font-weight="600" letter-spacing="0.5">SUBJECT LINE</text>
    <use href="#adminGear" x="100" y="426" width="10" height="10" opacity="0.3"/>
    <use href="#formField" x="0" y="444"/>
    <text x="14" y="468" fill="#E2E8F0" font-size="13">Treat Mom to something special</text>
    <text x="432" y="468" fill="#64748B" font-size="11">38</text>

    <!-- Message preview -->
    <!-- DB: pos_marketing_campaigns.body_html -->
    <text x="0" y="504" fill="#64748B" font-size="11" font-weight="600" letter-spacing="0.5">MESSAGE PREVIEW</text>
    <use href="#adminGear" x="130" y="494" width="10" height="10" opacity="0.3"/>

    <!-- Email preview card -->
    <rect x="0" y="512" width="452" height="178" rx="8" fill="#F8F9FA" stroke="#2A2E45" stroke-width="1"/>
    <rect x="0" y="512" width="452" height="32" rx="8" fill="#E2E8F0"/>
    <rect x="0" y="528" width="452" height="16" fill="#E2E8F0"/>
    <circle cx="16" cy="528" r="5" fill="#EF4444"/>
    <circle cx="30" cy="528" r="5" fill="#F59E0B"/>
    <circle cx="44" cy="528" r="5" fill="#22C55E"/>
    <rect x="0" y="544" width="452" height="28" fill="#F59E0B" fill-opacity="0.9"/>
    <text x="226" y="562" fill="#0C0E1A" font-size="12" font-weight="700" text-anchor="middle">Synalux POS – Loyalty Rewards</text>
    <text x="20" y="592" fill="#1E293B" font-size="12" font-weight="500">Hi {{first_name}},</text>
    <text x="20" y="610" fill="#334155" font-size="11">Join us this Mother's Day weekend for our special</text>
    <text x="20" y="625" fill="#334155" font-size="11">brunch menu. Show this email for 10% off your bill.</text>
    <text x="20" y="640" fill="#334155" font-size="11">Valid May 10-12.</text>
    <rect x="152" y="652" width="148" height="30" rx="6" fill="#F59E0B"/>
    <text x="226" y="672" fill="#0C0E1A" font-size="12" font-weight="700" text-anchor="middle">Reserve a Table</text>
    <text x="226" y="698" fill="#94A3B8" font-size="9" text-anchor="middle">Unsubscribe – Manage preferences</text>

    <!-- Send time -->
    <!-- DB: pos_marketing_campaigns.scheduled_at -->
    <text x="0" y="710" fill="#64748B" font-size="11" font-weight="600" letter-spacing="0.5">SEND TIME</text>
    <use href="#adminGear" x="80" y="700" width="10" height="10" opacity="0.3"/>
    <use href="#formField" x="0" y="718"/>
    <text x="34" y="742" fill="#E2E8F0" font-size="13">Sunday, May 10, 2026</text>
    <text x="290" y="742" fill="#64748B" font-size="12">|</text>
    <text x="300" y="742" fill="#E2E8F0" font-size="13">9:00 AM</text>
    <text x="430" y="742" fill="#64748B" font-size="11">&#9662;</text>

    <!-- TCPA compliance note -->
    <rect x="0" y="764" width="452" height="32" rx="6" fill="#22C55E" fill-opacity="0.08" stroke="#22C55E" stroke-opacity="0.3" stroke-width="1"/>
    <text x="28" y="778" fill="#22C55E" font-size="11" font-weight="500">Only sends to customers who opted in to marketing</text>
    <text x="28" y="791" fill="#64748B" font-size="10">TCPA compliant – Double opt-in verified</text>

    <!-- Action buttons -->
    <!-- DB: UPDATE pos_marketing_campaigns SET ... WHERE id = 'CAMP-005' -->
    <g transform="translate(0, 808)">
      <rect x="0" y="0" width="120" height="38" rx="8" fill="none" stroke="#2A2E45" stroke-width="1.5"/>
      <text x="60" y="23" fill="#94A3B8" font-size="13" font-weight="500" text-anchor="middle">Preview</text>

      <rect x="132" y="0" width="186" height="38" rx="8" fill="#F59E0B" filter="url(#amberGlow)"/>
      <text x="225" y="23" fill="#0C0E1A" font-size="13" font-weight="700" text-anchor="middle">Schedule Send</text>

      <text x="334" y="23" fill="#F59E0B" font-size="12" text-decoration="underline">Send test to me</text>

      <!-- Save Draft button – admin portal saveable -->
      <rect x="0" y="48" width="120" height="38" rx="8" fill="#1A1D2E" stroke="#F59E0B" stroke-width="1"/>
      <text x="60" y="71" fill="#F59E0B" font-size="13" font-weight="600" text-anchor="middle">Save Draft</text>
      <use href="#adminGear" x="130" y="56" width="10" height="10" opacity="0.3"/>
    </g>

  </g>

  <!-- ============================================================ -->
  <!--  Bottom status bar                                           -->
  <!-- ============================================================ -->
  <rect x="0" y="1008" width="1366" height="16" fill="#1A1D2E"/>
  <circle cx="224" cy="1016" r="3" fill="#22C55E"/>
  <text x="234" y="1020" fill="#64748B" font-size="10">All changes saved</text>
  <text x="600" y="1020" fill="#64748B" font-size="10" text-anchor="middle">Synalux POS Admin Portal v3.2.1</text>
  <text x="1340" y="1020" fill="#64748B" font-size="10" text-anchor="end">pos_marketing_campaigns – editable admin view</text>

</svg>
