<svg xmlns="http://www.w3.org/2000/svg" viewBox="0 0 1366 1024" font-family="system-ui,-apple-system,sans-serif">

  <!-- Background -->
  <rect width="1366" height="1024" fill="#0F1117"/>

  <!-- ===== LEFT NAV ===== -->
  <rect x="0" y="0" width="200" height="1024" fill="#13162A"/>
  <rect x="200" y="0" width="1" height="1024" fill="#2D3148"/>

  <text x="16" y="30" font-size="13" font-weight="700" fill="#F59E0B">⚙ Back Office</text>

  <text x="16" y="67" font-size="12" fill="#8B92A5">Restaurant Info</text>
  <text x="16" y="103" font-size="12" fill="#8B92A5">Menu Builder</text>
  <text x="16" y="139" font-size="12" fill="#8B92A5">Taxes</text>
  <text x="16" y="175" font-size="12" fill="#8B92A5">Employees</text>
  <text x="16" y="211" font-size="12" fill="#8B92A5">Equipment</text>
  <text x="16" y="247" font-size="12" fill="#8B92A5">Floor Plans</text>
  <text x="16" y="283" font-size="12" fill="#8B92A5">Payments</text>
  <text x="16" y="319" font-size="12" fill="#8B92A5">Discounts &amp; Promos</text>
  <text x="16" y="355" font-size="12" fill="#8B92A5">Gift Cards</text>
  <text x="16" y="391" font-size="12" fill="#8B92A5">Loyalty</text>

  <!-- Active nav item: Auto-Gratuity -->
  <rect x="0" y="404" width="200" height="36" fill="#1E2240"/>
  <rect x="0" y="404" width="3" height="36" fill="#F59E0B"/>
  <text x="16" y="427" font-size="12" font-weight="700" fill="#F59E0B">Auto-Gratuity</text>

  <text x="16" y="463" font-size="12" fill="#8B92A5">Cash Management</text>
  <text x="16" y="499" font-size="12" fill="#8B92A5">Revenue Centers</text>
  <text x="16" y="535" font-size="12" fill="#8B92A5">Menu Scheduling</text>
  <text x="16" y="571" font-size="12" fill="#8B92A5">Reports</text>
  <text x="16" y="607" font-size="12" fill="#8B92A5">Advantage Prog.</text>
  <text x="16" y="643" font-size="12" fill="#8B92A5">Integrations</text>
  <text x="16" y="679" font-size="12" fill="#8B92A5">Tax Exempt</text>
  <text x="16" y="715" font-size="12" fill="#8B92A5">Label Printer</text>
  <text x="16" y="751" font-size="12" fill="#8B92A5">Training Mode</text>

  <!-- ===== MAIN CONTENT AREA ===== -->

  <!-- Page header bar -->
  <rect x="200" y="0" width="1166" height="60" fill="#1A1D2E"/>
  <rect x="200" y="60" width="1166" height="1" fill="#2D3148"/>
  <text x="220" y="34" font-size="20" font-weight="700" fill="#F1F5F9">Auto-Gratuity</text>
  <text x="220" y="52" font-size="11" fill="#64748B">Automatic service charge for large parties. Legally distinct from voluntary tip — configurable per revenue center.</text>
  <!-- Save button in header -->
  <rect x="1230" y="12" width="120" height="36" rx="7" fill="#F59E0B"/>
  <text x="1290" y="35" font-size="13" font-weight="700" fill="#0F1117" text-anchor="middle">Save Settings</text>

  <!-- ===== LEGAL NOTE BANNER ===== -->
  <rect x="208" y="70" width="1150" height="72" rx="7" fill="#1A1208" stroke="#F59E0B" stroke-width="1.5"/>
  <text x="224" y="93" font-size="12" font-weight="700" fill="#F59E0B">⚖ Legal Distinction:</text>
  <text x="334" y="93" font-size="12" fill="#FDE68A">Auto-gratuity is a SERVICE CHARGE (mandatory), not a voluntary TIP.</text>
  <text x="224" y="111" font-size="11" fill="#FCD34D">Under IRS Rev. Rul. 2012-18, mandatory service charges are restaurant revenue — servers receive them as WAGES (subject to withholding), not tips.</text>
  <text x="224" y="129" font-size="11" fill="#94A3B8">Voluntary tips are employee income reported by employee. Configure carefully.</text>

  <!-- ===== TWO-PANEL LAYOUT ===== -->

  <!-- LEFT PANEL BACKGROUND -->
  <rect x="208" y="152" width="464" height="832" rx="0" fill="#0F1117"/>

  <!-- Divider between panels -->
  <rect x="672" y="152" width="1" height="860" fill="#2D3148"/>

  <!-- RIGHT PANEL BACKGROUND -->
  <rect x="673" y="152" width="685" height="860" fill="#0F1117"/>

  <!-- ============================================================ -->
  <!-- LEFT PANEL: CONFIGURATION                                    -->
  <!-- ============================================================ -->

  <!-- == Section: Auto-Gratuity Rules == -->
  <text x="216" y="178" font-size="13" font-weight="700" fill="#94A3B8" letter-spacing="1">AUTO-GRATUITY RULES</text>
  <rect x="208" y="184" width="456" height="1" fill="#2D3148"/>

  <!-- Enable toggle -->
  <rect x="208" y="192" width="456" height="44" rx="7" fill="#1A1D2E"/>
  <text x="222" y="218" font-size="13" font-weight="600" fill="#F1F5F9">Enable Auto-Gratuity</text>
  <!-- Toggle ON -->
  <rect x="600" y="203" width="50" height="22" rx="11" fill="#10B981"/>
  <circle cx="639" cy="214" r="9" fill="#FFFFFF"/>
  <text x="662" y="218" font-size="11" fill="#10B981">ON</text>

  <!-- Apply to revenue centers label -->
  <text x="216" y="254" font-size="12" font-weight="600" fill="#94A3B8">Apply to Revenue Centers:</text>

  <!-- Revenue center checkboxes -->
  <!-- Main Dining Room ✓ -->
  <rect x="216" y="262" width="14" height="14" rx="3" fill="#F59E0B"/>
  <text x="217" y="274" font-size="11" font-weight="700" fill="#0F1117">✓</text>
  <text x="236" y="274" font-size="12" fill="#F1F5F9">Main Dining Room</text>

  <!-- Patio ✓ -->
  <rect x="216" y="282" width="14" height="14" rx="3" fill="#F59E0B"/>
  <text x="217" y="294" font-size="11" font-weight="700" fill="#0F1117">✓</text>
  <text x="236" y="294" font-size="12" fill="#F1F5F9">Patio</text>

  <!-- Private Room ✓ -->
  <rect x="216" y="302" width="14" height="14" rx="3" fill="#F59E0B"/>
  <text x="217" y="314" font-size="11" font-weight="700" fill="#0F1117">✓</text>
  <text x="236" y="314" font-size="12" fill="#F1F5F9">Private Room / Events</text>

  <!-- Bar ○ -->
  <rect x="216" y="322" width="14" height="14" rx="3" fill="none" stroke="#2D3148" stroke-width="1.5"/>
  <text x="236" y="334" font-size="12" fill="#64748B">Bar</text>
  <text x="310" y="334" font-size="10" fill="#475569">(bar tabs typically excluded)</text>

  <!-- Takeout ○ -->
  <rect x="216" y="342" width="14" height="14" rx="3" fill="none" stroke="#2D3148" stroke-width="1.5"/>
  <text x="236" y="354" font-size="12" fill="#64748B">Takeout</text>

  <!-- Online Orders ○ -->
  <rect x="216" y="362" width="14" height="14" rx="3" fill="none" stroke="#2D3148" stroke-width="1.5"/>
  <text x="236" y="374" font-size="12" fill="#64748B">Online Orders</text>

  <!-- Party Size Threshold -->
  <rect x="208" y="386" width="456" height="60" rx="7" fill="#1A1D2E"/>
  <text x="222" y="407" font-size="13" font-weight="600" fill="#F1F5F9">Party Size Threshold</text>
  <text x="222" y="423" font-size="11" fill="#64748B">Below threshold: voluntary tip shown · At or above: auto-grat applied</text>
  <!-- Stepper -->
  <rect x="570" y="396" width="28" height="28" rx="5" fill="#2D3148"/>
  <text x="584" y="415" font-size="16" fill="#F1F5F9" text-anchor="middle">−</text>
  <rect x="602" y="396" width="36" height="28" rx="5" fill="#0F1117" stroke="#F59E0B" stroke-width="1"/>
  <text x="620" y="415" font-size="14" font-weight="700" fill="#F59E0B" text-anchor="middle">6</text>
  <rect x="642" y="396" width="28" height="28" rx="5" fill="#2D3148"/>
  <text x="656" y="415" font-size="16" fill="#F1F5F9" text-anchor="middle">+</text>
  <text x="640" y="438" font-size="10" fill="#64748B" text-anchor="middle">guests (2–20)</text>

  <!-- Auto-Grat Rate slider -->
  <rect x="208" y="454" width="456" height="68" rx="7" fill="#1A1D2E"/>
  <text x="222" y="475" font-size="13" font-weight="600" fill="#F1F5F9">Auto-Grat Rate</text>
  <text x="652" y="475" font-size="16" font-weight="700" fill="#F59E0B" text-anchor="end">18%</text>
  <!-- Slider track -->
  <rect x="222" y="483" width="420" height="6" rx="3" fill="#2D3148"/>
  <rect x="222" y="483" width="252" height="6" rx="3" fill="#F59E0B"/>
  <circle cx="474" cy="486" r="9" fill="#F59E0B" stroke="#0F1117" stroke-width="2"/>
  <text x="222" y="508" font-size="10" fill="#64748B">10%</text>
  <text x="534" y="508" font-size="10" fill="#64748B" text-anchor="middle">Standard: 18% (common) / 20% (upscale)</text>
  <text x="652" y="508" font-size="10" fill="#64748B" text-anchor="end">25%</text>

  <!-- Override toggle -->
  <rect x="208" y="530" width="456" height="58" rx="7" fill="#1A1D2E"/>
  <text x="222" y="552" font-size="13" font-weight="600" fill="#F1F5F9">Allow Manager to Waive Auto-Grat</text>
  <!-- Toggle ON -->
  <rect x="600" y="541" width="50" height="22" rx="11" fill="#10B981"/>
  <circle cx="639" cy="552" r="9" fill="#FFFFFF"/>
  <text x="662" y="556" font-size="11" fill="#10B981">ON</text>
  <text x="222" y="570" font-size="11" fill="#64748B">Manager PIN required + reason required for waiver</text>

  <!-- == Section: How It Appears == -->
  <text x="216" y="606" font-size="13" font-weight="700" fill="#94A3B8" letter-spacing="1">HOW IT APPEARS</text>
  <rect x="208" y="611" width="456" height="1" fill="#2D3148"/>

  <!-- Label on check -->
  <rect x="208" y="619" width="456" height="44" rx="7" fill="#1A1D2E"/>
  <text x="222" y="640" font-size="12" fill="#94A3B8">Label on check:</text>
  <rect x="320" y="627" width="336" height="26" rx="5" fill="#0F1117" stroke="#2D3148" stroke-width="1"/>
  <text x="330" y="645" font-size="12" fill="#F1F5F9">Auto Gratuity (18%)</text>

  <!-- Label on receipt -->
  <rect x="208" y="669" width="456" height="36" rx="7" fill="#1A1D2E"/>
  <text x="222" y="690" font-size="12" fill="#94A3B8">Label on receipt:</text>
  <text x="320" y="690" font-size="12" fill="#F1F5F9">Automatic Service Charge — 18%</text>

  <!-- Label on customer display -->
  <rect x="208" y="711" width="456" height="36" rx="7" fill="#1A1D2E"/>
  <text x="222" y="732" font-size="12" fill="#94A3B8">Customer display:</text>
  <text x="322" y="732" font-size="11" fill="#F1F5F9">Auto Gratuity — Included for parties of 6+</text>

  <!-- Position radios -->
  <text x="216" y="762" font-size="12" fill="#94A3B8">Position on check:</text>
  <circle cx="300" cy="758" r="6" fill="#F59E0B"/>
  <circle cx="300" cy="758" r="3" fill="#0F1117"/>
  <text x="311" y="762" font-size="12" fill="#F1F5F9">Below subtotal</text>
  <circle cx="418" cy="758" r="6" fill="none" stroke="#2D3148" stroke-width="1.5"/>
  <text x="429" y="762" font-size="12" fill="#64748B">Below tax</text>
  <circle cx="512" cy="758" r="6" fill="none" stroke="#2D3148" stroke-width="1.5"/>
  <text x="523" y="762" font-size="12" fill="#64748B">Above tax</text>

  <!-- Taxable radios -->
  <text x="216" y="785" font-size="12" fill="#94A3B8">Taxable:</text>
  <circle cx="277" cy="781" r="6" fill="#F59E0B"/>
  <circle cx="277" cy="781" r="3" fill="#0F1117"/>
  <text x="288" y="785" font-size="12" fill="#10B981" font-weight="600">Yes (taxed same as food)</text>
  <circle cx="440" cy="781" r="6" fill="none" stroke="#2D3148" stroke-width="1.5"/>
  <text x="451" y="785" font-size="12" fill="#64748B">No (jurisdiction-dependent)</text>
  <text x="216" y="800" font-size="10" fill="#64748B">⚠ Some jurisdictions tax mandatory service charges. Verify with accountant.</text>

  <!-- == Section: Accounting and Payroll == -->
  <text x="216" y="824" font-size="13" font-weight="700" fill="#94A3B8" letter-spacing="1">ACCOUNTING &amp; PAYROLL</text>
  <rect x="208" y="829" width="456" height="1" fill="#2D3148"/>

  <!-- Track auto-grat as -->
  <text x="216" y="850" font-size="12" fill="#94A3B8">Track auto-grat as:</text>
  <circle cx="216" cy="868" r="6" fill="#F59E0B"/>
  <circle cx="216" cy="868" r="3" fill="#0F1117"/>
  <text x="228" y="872" font-size="12" fill="#F1F5F9" font-weight="600">Restaurant Revenue</text>
  <text x="348" y="872" font-size="11" fill="#64748B">(paid as wages — withholding applies)</text>
  <circle cx="216" cy="888" r="6" fill="none" stroke="#2D3148" stroke-width="1.5"/>
  <text x="228" y="892" font-size="12" fill="#64748B">Pass-through to staff</text>
  <text x="348" y="892" font-size="11" fill="#64748B">(no W-2 withholding for auto-grat)</text>

  <!-- Distribute to tip pool toggle -->
  <rect x="208" y="900" width="456" height="44" rx="7" fill="#1A1D2E"/>
  <text x="222" y="921" font-size="12" font-weight="600" fill="#F1F5F9">Distribute to Tip Pool</text>
  <rect x="600" y="910" width="50" height="22" rx="11" fill="#10B981"/>
  <circle cx="639" cy="921" r="9" fill="#FFFFFF"/>
  <text x="662" y="925" font-size="11" fill="#10B981">ON</text>
  <!-- Pool distribution -->
  <text x="222" y="938" font-size="11" fill="#64748B">Server 70%</text>
  <text x="300" y="938" font-size="11" fill="#64748B">·</text>
  <text x="312" y="938" font-size="11" fill="#64748B">Busser 15%</text>
  <text x="394" y="938" font-size="11" fill="#64748B">·</text>
  <text x="406" y="938" font-size="11" fill="#64748B">Host 15%</text>
  <text x="600" y="938" font-size="10" fill="#8B5CF6">Gusto sync</text>

  <!-- Print disclosure toggle -->
  <rect x="208" y="950" width="456" height="36" rx="7" fill="#1A1D2E"/>
  <text x="222" y="970" font-size="12" font-weight="600" fill="#F1F5F9">Print Disclosure on Menu</text>
  <rect x="600" y="958" width="50" height="22" rx="11" fill="#10B981"/>
  <circle cx="639" cy="969" r="9" fill="#FFFFFF"/>
  <text x="662" y="973" font-size="11" fill="#10B981">ON</text>
  <text x="222" y="983" font-size="10" fill="#64748B">"An automatic gratuity of 18% will be added to parties of 6 or more."</text>

  <!-- ============================================================ -->
  <!-- RIGHT PANEL: LIVE PREVIEW + REGISTER BEHAVIOR               -->
  <!-- ============================================================ -->

  <!-- Panel label -->
  <text x="685" y="174" font-size="13" font-weight="700" fill="#94A3B8" letter-spacing="1">LIVE PREVIEW + REGISTER BEHAVIOR</text>

  <!-- == REGISTER VIEW MOCKUP == -->
  <rect x="681" y="182" width="669" height="340" rx="8" fill="#1A1D2E" stroke="#2D3148" stroke-width="1"/>
  <rect x="681" y="182" width="669" height="36" rx="8" fill="#13162A"/>
  <rect x="681" y="206" width="669" height="12" fill="#13162A"/>
  <text x="697" y="205" font-size="12" font-weight="700" fill="#94A3B8">How it looks on the register</text>
  <text x="900" y="205" font-size="12" fill="#F59E0B" font-weight="700">— Party of 7</text>

  <!-- Order items abbreviated -->
  <text x="697" y="232" font-size="11" fill="#64748B">7× items (Salmon $28, Ribeye $42, Pasta $18 ×2, Salads $14 ×2, Apps $13)</text>
  <line x1="697" y1="240" x2="1335" y2="240" stroke="#2D3148" stroke-width="1"/>

  <!-- Subtotal -->
  <text x="697" y="256" font-size="12" fill="#94A3B8">Subtotal</text>
  <text x="1327" y="256" font-size="12" fill="#F1F5F9" text-anchor="end">$147.00</text>

  <!-- Auto-grat line (highlighted) -->
  <rect x="686" y="261" width="641" height="26" rx="4" fill="#1C1608"/>
  <text x="697" y="278" font-size="13" font-weight="700" fill="#F59E0B">Auto Gratuity (18%)</text>
  <!-- AUTO badge -->
  <rect x="855" y="263" width="44" height="18" rx="9" fill="#92400E"/>
  <text x="877" y="276" font-size="10" font-weight="700" fill="#FCD34D" text-anchor="middle">AUTO</text>
  <text x="1327" y="278" font-size="13" font-weight="700" fill="#F59E0B" text-anchor="end">$26.46</text>

  <!-- Tax -->
  <text x="697" y="300" font-size="12" fill="#94A3B8">Tax (8.875%) on $173.46</text>
  <text x="1327" y="300" font-size="12" fill="#F1F5F9" text-anchor="end">$15.39</text>

  <line x1="697" y1="308" x2="1327" y2="308" stroke="#2D3148" stroke-width="1"/>

  <!-- Total -->
  <text x="697" y="326" font-size="15" font-weight="700" fill="#F1F5F9">TOTAL</text>
  <text x="1327" y="326" font-size="15" font-weight="700" fill="#F1F5F9" text-anchor="end">$188.85</text>

  <!-- Notes -->
  <text x="697" y="346" font-size="11" fill="#64748B" font-style="italic">Voluntary tip field is HIDDEN for this check (party of 7)</text>
  <text x="697" y="362" font-size="11" fill="#64748B">Manager can waive auto-grat</text>
  <text x="830" y="362" font-size="11" fill="#3B82F6" text-decoration="underline">→ Waive</text>

  <!-- CHARGE button -->
  <rect x="1160" y="372" width="180" height="40" rx="7" fill="#F59E0B"/>
  <text x="1250" y="397" font-size="14" font-weight="700" fill="#0F1117" text-anchor="middle">CHARGE $188.85</text>

  <!-- == CUSTOMER DISPLAY MOCKUP == -->
  <rect x="681" y="534" width="328" height="188" rx="8" fill="#1A1D2E" stroke="#2D3148" stroke-width="1"/>
  <rect x="681" y="534" width="328" height="30" rx="8" fill="#13162A"/>
  <rect x="681" y="552" width="328" height="12" fill="#13162A"/>
  <text x="697" y="551" font-size="11" font-weight="700" fill="#94A3B8">Customer Display — Table 6 (Party of 7)</text>

  <text x="697" y="575" font-size="11" fill="#64748B">Subtotal</text>
  <text x="999" y="575" font-size="11" fill="#F1F5F9" text-anchor="end">$147.00</text>

  <text x="697" y="593" font-size="11" fill="#F59E0B">Auto Gratuity (18%) — for parties of 6+</text>
  <text x="697" y="607" font-size="10" fill="#64748B" font-style="italic">  ⓘ An automatic gratuity of 18% is included for parties of 6 or more.</text>
  <text x="999" y="593" font-size="11" font-weight="700" fill="#F59E0B" text-anchor="end">$26.46</text>

  <text x="697" y="626" font-size="11" fill="#64748B">Tax</text>
  <text x="999" y="626" font-size="11" fill="#F1F5F9" text-anchor="end">$15.39</text>

  <line x1="697" y1="632" x2="1000" y2="632" stroke="#2D3148" stroke-width="1"/>
  <text x="697" y="648" font-size="13" font-weight="700" fill="#F1F5F9">Total</text>
  <text x="999" y="648" font-size="13" font-weight="700" fill="#F1F5F9" text-anchor="end">$188.85</text>

  <rect x="697" y="657" width="298" height="54" rx="7" fill="#0D4F38"/>
  <text x="846" y="676" font-size="12" font-weight="700" fill="#10B981" text-anchor="middle">Pay with Card</text>
  <text x="846" y="695" font-size="10" fill="#6EE7B7" text-anchor="middle">Tap · Chip · Swipe · Apple Pay</text>

  <!-- == RECEIPT PREVIEW MOCKUP == -->
  <rect x="1021" y="534" width="329" height="270" rx="8" fill="#FAFAF9" stroke="#2D3148" stroke-width="1"/>
  <rect x="1021" y="534" width="329" height="30" rx="8" fill="#E7E5E4"/>
  <rect x="1021" y="552" width="329" height="12" fill="#E7E5E4"/>
  <text x="1037" y="551" font-size="11" font-weight="700" fill="#44403C">Receipt Preview — Paper receipt output</text>

  <!-- Receipt content (monospace style) -->
  <text x="1037" y="575" font-size="10" fill="#44403C" font-family="monospace">SYNALUX RESTAURANT</text>
  <text x="1037" y="589" font-size="10" fill="#78716C" font-family="monospace">Table 6 · Server: Alex · Party of 7</text>
  <line x1="1037" y1="596" x2="1340" y2="596" stroke="#D6D3D1" stroke-width="0.5" stroke-dasharray="2,2"/>
  <text x="1037" y="610" font-size="10" fill="#44403C" font-family="monospace">Salmon, Ribeye, 2× Pasta, 2× Salad, Apps</text>
  <line x1="1037" y1="617" x2="1340" y2="617" stroke="#D6D3D1" stroke-width="0.5" stroke-dasharray="2,2"/>
  <text x="1037" y="631" font-size="10" fill="#44403C" font-family="monospace">Subtotal ................. $147.00</text>

  <!-- Auto-grat line highlighted -->
  <rect x="1028" y="636" width="313" height="16" fill="#FEF3C7"/>
  <text x="1037" y="649" font-size="10" fill="#92400E" font-family="monospace" font-weight="700">Auto Gratuity (18%) ...... $26.46</text>

  <text x="1037" y="667" font-size="10" fill="#44403C" font-family="monospace">Tax (8.875%) ............. $15.39</text>
  <line x1="1037" y1="673" x2="1340" y2="673" stroke="#44403C" stroke-width="1"/>
  <text x="1037" y="687" font-size="11" fill="#44403C" font-family="monospace" font-weight="700">TOTAL ................... $188.85</text>
  <line x1="1037" y1="692" x2="1340" y2="692" stroke="#D6D3D1" stroke-width="0.5" stroke-dasharray="2,2"/>

  <text x="1037" y="706" font-size="9" fill="#78716C" font-family="monospace">Automatic Service Charge Disclosure:</text>
  <text x="1037" y="718" font-size="9" fill="#78716C" font-family="monospace">A mandatory gratuity of 18% has been</text>
  <text x="1037" y="730" font-size="9" fill="#78716C" font-family="monospace">applied to your check for parties of 6+.</text>
  <line x1="1037" y1="737" x2="1340" y2="737" stroke="#D6D3D1" stroke-width="0.5" stroke-dasharray="2,2"/>
  <text x="1175" y="752" font-size="9" fill="#78716C" font-family="monospace" text-anchor="middle">Thank you for dining with us!</text>
  <text x="1175" y="765" font-size="9" fill="#78716C" font-family="monospace" text-anchor="middle">★ ★ ★ ★ ★</text>
  <text x="1175" y="780" font-size="9" fill="#78716C" font-family="monospace" text-anchor="middle">synalux.com/review</text>
  <text x="1175" y="795" font-size="9" fill="#78716C" font-family="monospace" text-anchor="middle">synalux.com/review</text>

  <!-- == WAIVER FLOW CARD == -->
  <rect x="681" y="732" width="328" height="182" rx="8" fill="#1A1D2E" stroke="#2D3148" stroke-width="1"/>
  <rect x="681" y="732" width="328" height="30" rx="8" fill="#13162A"/>
  <rect x="681" y="750" width="328" height="12" fill="#13162A"/>
  <text x="697" y="751" font-size="11" font-weight="700" fill="#94A3B8">Waive Auto-Gratuity Flow</text>

  <text x="697" y="775" font-size="11" fill="#64748B">1.</text>
  <text x="710" y="775" font-size="11" fill="#F1F5F9">Manager selects "Waive Auto-Grat" from order</text>
  <text x="697" y="791" font-size="11" fill="#64748B">2.</text>
  <text x="710" y="791" font-size="11" fill="#F1F5F9">Manager PIN required</text>
  <text x="697" y="807" font-size="11" fill="#64748B">3.</text>
  <text x="710" y="807" font-size="11" fill="#F1F5F9">Reason required:</text>

  <!-- Reason dropdown -->
  <rect x="710" y="812" width="290" height="24" rx="5" fill="#0F1117" stroke="#2D3148" stroke-width="1"/>
  <text x="720" y="828" font-size="11" fill="#94A3B8">Guest Request / Dissatisfied / VIP / Error / Other</text>
  <text x="992" y="828" font-size="11" fill="#64748B" text-anchor="end">▼</text>

  <text x="697" y="851" font-size="11" fill="#64748B">4.</text>
  <text x="710" y="851" font-size="11" fill="#F1F5F9">Logged: pos_auto_grat_waiver + manager_id</text>
  <text x="697" y="867" font-size="11" fill="#64748B">5.</text>
  <text x="710" y="867" font-size="11" fill="#F1F5F9">Voluntary tip prompt shown after waiver</text>

  <!-- Reason tags -->
  <rect x="697" y="875" width="80" height="18" rx="9" fill="#312E81"/>
  <text x="737" y="888" font-size="9" fill="#A5B4FC" text-anchor="middle">pos_audit_log</text>
  <rect x="783" y="875" width="120" height="18" rx="9" fill="#312E81"/>
  <text x="843" y="888" font-size="9" fill="#A5B4FC" text-anchor="middle">pos_auto_grat_waivers</text>
  <rect x="909" y="875" width="94" height="18" rx="9" fill="#312E81"/>
  <text x="956" y="888" font-size="9" fill="#A5B4FC" text-anchor="middle">waiver_reason</text>

  <!-- == DISCLOSURE SECTION == -->
  <!-- Moved into left panel as final field, shown with textarea representation -->
  <!-- Already rendered as last items in left panel above -->
  <!-- Keep the receipt preview card full height without overlap -->

  <!-- ============================================================ -->
  <!-- WORKFLOW INTEGRATION BANNER (full width bottom)             -->
  <!-- ============================================================ -->
  <rect x="208" y="960" width="1150" height="54" rx="7" fill="#1A1208" stroke="#F59E0B" stroke-width="1.5"/>
  <text x="224" y="976" font-size="11" font-weight="700" fill="#F59E0B">Workflow Integration:</text>
  <text x="352" y="976" font-size="11" fill="#FDE68A">pos_orders.party_size >= pos_config.auto_grat_threshold → auto_grat_cents = subtotal × rate.</text>
  <text x="224" y="991" font-size="10" fill="#94A3B8">Stored: pos_payments.auto_grat_cents (separate from tip_cents). Tax: if taxable=true, auto_grat added to taxable base before tax calc.</text>
  <text x="224" y="1006" font-size="10" fill="#94A3B8">Payroll: pos_auto_grat_distributions → Gusto export. Report: Tip Report shows auto-grat vs voluntary tip separately. IRS: auto-grat as wages on W-2, not tip income.</text>

  <!-- ============================================================ -->
  <!-- BOTTOM SAVE BUTTON (left panel)                             -->
  <!-- ============================================================ -->
  <!-- Already placed in header -->

</svg>
