<svg xmlns="http://www.w3.org/2000/svg" viewBox="0 0 1366 1024" font-family="system-ui,-apple-system,sans-serif">

  <!-- Background -->
  <rect width="1366" height="1024" fill="#0F1117"/>

  <!-- ===== LEFT NAV (Back Office) ===== -->
  <rect x="0" y="0" width="200" height="1024" fill="#13162A"/>
  <rect x="200" y="0" width="1" height="1024" fill="#2D3148"/>

  <text x="16" y="30" font-size="13" font-weight="700" fill="#F59E0B">⚙ Back Office</text>

  <text x="16" y="67"  font-size="12" fill="#8B92A5">Restaurant Info</text>
  <text x="16" y="103" font-size="12" fill="#8B92A5">Menu Builder</text>
  <text x="16" y="139" font-size="12" fill="#8B92A5">Taxes</text>
  <text x="16" y="175" font-size="12" fill="#8B92A5">Employees</text>
  <text x="16" y="211" font-size="12" fill="#8B92A5">Scheduling</text>
  <text x="16" y="247" font-size="12" fill="#8B92A5">Tip Pooling</text>
  <text x="16" y="283" font-size="12" fill="#8B92A5">Auto-Gratuity</text>
  <text x="16" y="319" font-size="12" fill="#8B92A5">Overtime</text>
  <text x="16" y="355" font-size="12" fill="#8B92A5">Break Tracking</text>

  <!-- Active nav item: Payroll -->
  <rect x="0" y="367" width="200" height="36" fill="#1E2240"/>
  <rect x="0" y="367" width="3" height="36" fill="#F59E0B"/>
  <text x="16" y="390" font-size="12" font-weight="700" fill="#F59E0B">Payroll</text>

  <text x="16" y="427" font-size="12" fill="#8B92A5">Tax Filings</text>
  <text x="16" y="463" font-size="12" fill="#8B92A5">Cash Management</text>
  <text x="16" y="499" font-size="12" fill="#8B92A5">Revenue Centers</text>
  <text x="16" y="535" font-size="12" fill="#8B92A5">Discounts &amp; Promos</text>
  <text x="16" y="571" font-size="12" fill="#8B92A5">Gift Cards</text>
  <text x="16" y="607" font-size="12" fill="#8B92A5">Reports</text>
  <text x="16" y="643" font-size="12" fill="#8B92A5">Integrations</text>
  <text x="16" y="679" font-size="12" fill="#8B92A5">Inventory</text>
  <text x="16" y="715" font-size="12" fill="#8B92A5">Label Printer</text>
  <text x="16" y="751" font-size="12" fill="#8B92A5">Training Mode</text>

  <!-- ================================================================
       LEFT PANEL  x=200 w=340  (cols 200–540)
       ================================================================ -->

  <!-- Panel header bar -->
  <rect x="200" y="0" width="340" height="58" fill="#1A1D2E"/>
  <rect x="200" y="58" width="340" height="1" fill="#2D3148"/>
  <text x="218" y="25" font-size="18" font-weight="700" fill="#F1F5F9">Payroll</text>
  <text x="218" y="45" font-size="11" fill="#64748B">May 19–25, 2026 · Weekly</text>

  <!-- Run Payroll button -->
  <rect x="432" y="11" width="98" height="32" rx="6" fill="#F59E0B"/>
  <text x="481" y="32" font-size="12" font-weight="700" fill="#0F1117" text-anchor="middle">Run Payroll</text>

  <!-- Pay period selector -->
  <rect x="208" y="66" width="324" height="38" rx="6" fill="#1A1D2E" stroke="#2D3148" stroke-width="1"/>
  <!-- Prev arrow -->
  <polygon points="222,85 232,79 232,91" fill="#94A3B8"/>
  <!-- Period label -->
  <text x="370" y="89" font-size="12" font-weight="600" fill="#F1F5F9" text-anchor="middle">May 19–25, 2026 (Weekly)</text>
  <!-- Next arrow -->
  <polygon points="518,85 508,79 508,91" fill="#94A3B8"/>

  <!-- Employee list header row -->
  <rect x="208" y="112" width="324" height="24" rx="4" fill="#13162A"/>
  <text x="220" y="128" font-size="10" font-weight="700" fill="#64748B">EMPLOYEE</text>
  <text x="360" y="128" font-size="10" font-weight="700" fill="#64748B">HRS</text>
  <text x="404" y="128" font-size="10" font-weight="700" fill="#64748B">GROSS</text>
  <text x="516" y="128" font-size="10" font-weight="700" fill="#64748B" text-anchor="end">ST</text>

  <!-- Row 1: Sarah M. (ready) -->
  <rect x="208" y="138" width="324" height="50" rx="4" fill="#1A1D2E"/>
  <rect x="208" y="188" width="324" height="1" fill="#2D3148"/>
  <circle cx="219" cy="163" r="5" fill="#10B981"/>
  <text x="232" y="160" font-size="13" font-weight="600" fill="#F1F5F9">Sarah M.</text>
  <text x="232" y="175" font-size="10" fill="#94A3B8">Server</text>
  <text x="354" y="160" font-size="12" fill="#F1F5F9" text-anchor="end">38.5h</text>
  <text x="520" y="160" font-size="13" font-weight="600" fill="#10B981" text-anchor="end">$892.45</text>

  <!-- Row 2: John K. (ready) -->
  <rect x="208" y="190" width="324" height="50" rx="4" fill="#1A1D2E"/>
  <rect x="208" y="240" width="324" height="1" fill="#2D3148"/>
  <circle cx="219" cy="215" r="5" fill="#10B981"/>
  <text x="232" y="212" font-size="13" font-weight="600" fill="#F1F5F9">John K.</text>
  <text x="232" y="227" font-size="10" fill="#94A3B8">Bartender</text>
  <text x="354" y="212" font-size="12" fill="#F1F5F9" text-anchor="end">42.0h</text>
  <text x="520" y="212" font-size="13" font-weight="600" fill="#10B981" text-anchor="end">$1,104.20</text>

  <!-- Row 3: Maria G. (ready) -->
  <rect x="208" y="242" width="324" height="50" rx="4" fill="#1A1D2E"/>
  <rect x="208" y="292" width="324" height="1" fill="#2D3148"/>
  <circle cx="219" cy="267" r="5" fill="#10B981"/>
  <text x="232" y="264" font-size="13" font-weight="600" fill="#F1F5F9">Maria G.</text>
  <text x="232" y="279" font-size="10" fill="#94A3B8">Host</text>
  <text x="354" y="264" font-size="12" fill="#F1F5F9" text-anchor="end">32.0h</text>
  <text x="520" y="264" font-size="13" font-weight="600" fill="#10B981" text-anchor="end">$688.00</text>

  <!-- Row 4: Carlos R. (selected + needs review) -->
  <rect x="208" y="294" width="324" height="50" rx="4" fill="#1E2240" stroke="#F59E0B" stroke-width="1.5"/>
  <circle cx="219" cy="319" r="5" fill="#F59E0B"/>
  <text x="232" y="316" font-size="13" font-weight="700" fill="#F59E0B">Carlos R.</text>
  <text x="232" y="331" font-size="10" fill="#94A3B8">Cook</text>
  <text x="354" y="316" font-size="12" fill="#F1F5F9" text-anchor="end">44.5h</text>
  <text x="520" y="316" font-size="13" font-weight="700" fill="#F59E0B" text-anchor="end">$1,022.50</text>
  <!-- OT badge -->
  <rect x="362" y="326" width="50" height="13" rx="3" fill="#451A03"/>
  <text x="387" y="336" font-size="9" font-weight="700" fill="#F97316" text-anchor="middle">NEEDS OT REVIEW</text>

  <!-- Row 5: Lisa T. (ready) -->
  <rect x="208" y="350" width="324" height="50" rx="4" fill="#1A1D2E"/>
  <rect x="208" y="400" width="324" height="1" fill="#2D3148"/>
  <circle cx="219" cy="375" r="5" fill="#10B981"/>
  <text x="232" y="372" font-size="13" font-weight="600" fill="#F1F5F9">Lisa T.</text>
  <text x="232" y="387" font-size="10" fill="#94A3B8">Manager</text>
  <text x="354" y="372" font-size="12" fill="#F1F5F9" text-anchor="end">40.0h</text>
  <text x="520" y="372" font-size="13" font-weight="600" fill="#10B981" text-anchor="end">$1,440.00</text>

  <!-- Row 6: Tom B. (ready) -->
  <rect x="208" y="402" width="324" height="50" rx="4" fill="#1A1D2E"/>
  <rect x="208" y="452" width="324" height="1" fill="#2D3148"/>
  <circle cx="219" cy="427" r="5" fill="#10B981"/>
  <text x="232" y="424" font-size="13" font-weight="600" fill="#F1F5F9">Tom B.</text>
  <text x="232" y="439" font-size="10" fill="#94A3B8">Busser</text>
  <text x="354" y="424" font-size="12" fill="#F1F5F9" text-anchor="end">28.0h</text>
  <text x="520" y="424" font-size="13" font-weight="600" fill="#10B981" text-anchor="end">$476.00</text>

  <!-- Left panel footer -->
  <rect x="208" y="458" width="324" height="36" rx="4" fill="#13162A" stroke="#2D3148" stroke-width="1"/>
  <text x="370" y="470" font-size="10" fill="#64748B" text-anchor="middle">6 employees</text>
  <text x="370" y="486" font-size="12" font-weight="700" fill="#F1F5F9" text-anchor="middle">Total Gross: $5,623.15</text>

  <!-- Left panel tabs -->
  <rect x="208" y="502" width="324" height="34" rx="0" fill="#13162A" stroke="#2D3148" stroke-width="1"/>
  <!-- Tab: This Period (active) -->
  <rect x="208" y="502" width="108" height="34" fill="#1E2240"/>
  <rect x="208" y="534" width="108" height="2" fill="#F59E0B"/>
  <text x="262" y="523" font-size="11" font-weight="700" fill="#F59E0B" text-anchor="middle">This Period</text>
  <!-- Tab: History -->
  <text x="370" y="523" font-size="11" fill="#64748B" text-anchor="middle">History</text>
  <!-- Tab: Tax Filings -->
  <text x="478" y="523" font-size="11" fill="#64748B" text-anchor="middle">Tax Filings</text>
  <!-- tab dividers -->
  <rect x="316" y="510" width="1" height="18" fill="#2D3148"/>
  <rect x="424" y="510" width="1" height="18" fill="#2D3148"/>

  <!-- Vertical divider between left and center -->
  <rect x="540" y="0" width="1" height="1024" fill="#2D3148"/>

  <!-- ================================================================
       CENTER PANEL  x=540 w=626  (cols 540–1166)
       Employee Payroll Detail — Carlos R.
       ================================================================ -->

  <!-- Center panel header -->
  <rect x="540" y="0" width="626" height="58" fill="#1A1D2E"/>
  <rect x="540" y="58" width="626" height="1" fill="#2D3148"/>
  <text x="558" y="24" font-size="17" font-weight="700" fill="#F1F5F9">Carlos R. — Line Cook</text>
  <text x="558" y="44" font-size="11" fill="#64748B">Pay Period: May 19–25, 2026 · Employee #1042</text>
  <!-- Edit button -->
  <rect x="1076" y="13" width="80" height="30" rx="5" fill="#1A1D2E" stroke="#2D3148" stroke-width="1"/>
  <text x="1116" y="32" font-size="11" fill="#94A3B8" text-anchor="middle">Edit Hours</text>

  <!-- CA OT notice banner -->
  <rect x="548" y="66" width="610" height="36" rx="5" fill="#1C1108" stroke="#F97316" stroke-width="1"/>
  <text x="562" y="81" font-size="11" font-weight="700" fill="#F97316">⚠ CA Labor Code §510</text>
  <text x="562" y="96" font-size="10" fill="#FED7AA">Daily OT: Day 5 exceeded 8h → 1.5× rate applied automatically. Verify daily punch log before approving.</text>

  <!-- EARNINGS section -->
  <text x="558" y="126" font-size="13" font-weight="700" fill="#94A3B8">EARNINGS</text>
  <rect x="548" y="132" width="610" height="192" rx="6" fill="#1A1D2E" stroke="#2D3148" stroke-width="1"/>

  <!-- Earnings table header -->
  <rect x="548" y="132" width="610" height="28" rx="6" fill="#13162A"/>
  <text x="566" y="150" font-size="10" font-weight="700" fill="#64748B">TYPE</text>
  <text x="890" y="150" font-size="10" font-weight="700" fill="#64748B" text-anchor="end">RATE / QTY</text>
  <text x="1150" y="150" font-size="10" font-weight="700" fill="#64748B" text-anchor="end">AMOUNT</text>

  <!-- Earning rows -->
  <!-- Regular -->
  <rect x="548" y="160" width="610" height="1" fill="#2D3148"/>
  <text x="566" y="178" font-size="12" fill="#F1F5F9">Regular Pay</text>
  <text x="890" y="178" font-size="11" fill="#94A3B8" text-anchor="end">40h × $22.50/h</text>
  <text x="1150" y="178" font-size="13" font-weight="600" fill="#F1F5F9" text-anchor="end">$900.00</text>

  <!-- Overtime -->
  <rect x="548" y="186" width="610" height="1" fill="#2D3148"/>
  <text x="566" y="204" font-size="12" fill="#F97316">Overtime (1.5×)</text>
  <text x="890" y="204" font-size="11" fill="#94A3B8" text-anchor="end">4.5h × $33.75/h</text>
  <text x="1150" y="204" font-size="13" font-weight="600" fill="#F97316" text-anchor="end">$151.88</text>
  <!-- OT detail chip -->
  <rect x="566" y="208" width="150" height="13" rx="3" fill="#2C1810"/>
  <text x="641" y="218" font-size="9" fill="#F97316" text-anchor="middle">CA Daily OT — Day 5 &gt;8h</text>

  <!-- Tips Declared -->
  <rect x="548" y="224" width="610" height="1" fill="#2D3148"/>
  <text x="566" y="242" font-size="12" fill="#F1F5F9">Tips Declared</text>
  <text x="890" y="242" font-size="11" fill="#64748B" text-anchor="end">Self-reported</text>
  <text x="1150" y="242" font-size="13" fill="#64748B" text-anchor="end">$0.00</text>

  <!-- IRS Allocated Tips -->
  <rect x="548" y="250" width="610" height="1" fill="#2D3148"/>
  <text x="566" y="268" font-size="12" fill="#F1F5F9">Tip Allocated (IRS 8%)</text>
  <text x="890" y="268" font-size="11" fill="#64748B" text-anchor="end">IRS Form 8027</text>
  <text x="1150" y="268" font-size="13" fill="#64748B" text-anchor="end">$0.00</text>

  <!-- Gross total row -->
  <rect x="548" y="276" width="610" height="1" fill="#2D3148"/>
  <rect x="548" y="277" width="610" height="47" rx="0" fill="#1A1D2E"/>
  <rect x="548" y="323" width="610" height="1" fill="#2D3148"/>
  <text x="566" y="308" font-size="14" font-weight="700" fill="#F1F5F9">Gross Pay</text>
  <text x="1150" y="308" font-size="16" font-weight="800" fill="#10B981" text-anchor="end">$1,051.88</text>

  <!-- DEDUCTIONS section -->
  <text x="558" y="346" font-size="13" font-weight="700" fill="#94A3B8">DEDUCTIONS</text>
  <rect x="548" y="352" width="610" height="238" rx="6" fill="#1A1D2E" stroke="#2D3148" stroke-width="1"/>

  <!-- Deductions table header -->
  <rect x="548" y="352" width="610" height="28" rx="6" fill="#13162A"/>
  <text x="566" y="370" font-size="10" font-weight="700" fill="#64748B">DEDUCTION</text>
  <text x="890" y="370" font-size="10" font-weight="700" fill="#64748B" text-anchor="end">RATE</text>
  <text x="1150" y="370" font-size="10" font-weight="700" fill="#64748B" text-anchor="end">AMOUNT</text>

  <!-- Federal Income Tax -->
  <rect x="548" y="380" width="610" height="1" fill="#2D3148"/>
  <text x="566" y="398" font-size="12" fill="#F1F5F9">Federal Income Tax</text>
  <text x="890" y="398" font-size="11" fill="#94A3B8" text-anchor="end">22%</text>
  <text x="1150" y="398" font-size="13" fill="#EF4444" text-anchor="end">-$188.45</text>

  <!-- State Tax -->
  <rect x="548" y="406" width="610" height="1" fill="#2D3148"/>
  <text x="566" y="424" font-size="12" fill="#F1F5F9">State Tax (CA)</text>
  <text x="890" y="424" font-size="11" fill="#94A3B8" text-anchor="end">9.3%</text>
  <text x="1150" y="424" font-size="13" fill="#EF4444" text-anchor="end">-$97.82</text>

  <!-- FICA Employee -->
  <rect x="548" y="432" width="610" height="1" fill="#2D3148"/>
  <text x="566" y="450" font-size="12" fill="#F1F5F9">FICA (Employee)</text>
  <text x="890" y="450" font-size="11" fill="#94A3B8" text-anchor="end">7.65%</text>
  <text x="1150" y="450" font-size="13" fill="#EF4444" text-anchor="end">-$80.47</text>

  <!-- Health Insurance -->
  <rect x="548" y="458" width="610" height="1" fill="#2D3148"/>
  <text x="566" y="476" font-size="12" fill="#F1F5F9">Health Insurance</text>
  <text x="890" y="476" font-size="11" fill="#64748B" text-anchor="end">pre-tax</text>
  <text x="1150" y="476" font-size="13" fill="#EF4444" text-anchor="end">-$85.00</text>

  <!-- 401k -->
  <rect x="548" y="484" width="610" height="1" fill="#2D3148"/>
  <text x="566" y="502" font-size="12" fill="#F1F5F9">401(k) Contribution</text>
  <text x="890" y="502" font-size="11" fill="#94A3B8" text-anchor="end">4%</text>
  <text x="1150" y="502" font-size="13" fill="#EF4444" text-anchor="end">-$42.08</text>

  <!-- Total Deductions -->
  <rect x="548" y="510" width="610" height="1" fill="#2D3148"/>
  <rect x="548" y="511" width="610" height="37" fill="#1A1D2E"/>
  <rect x="548" y="548" width="610" height="1" fill="#2D3148"/>
  <rect x="548" y="549" width="610" height="1" fill="#2D3148"/>
  <text x="566" y="536" font-size="13" font-weight="700" fill="#F1F5F9">Total Deductions</text>
  <text x="1150" y="536" font-size="15" font-weight="700" fill="#EF4444" text-anchor="end">-$493.82</text>

  <!-- NET PAY card -->
  <rect x="548" y="560" width="610" height="76" rx="8" fill="#0C2A1C" stroke="#10B981" stroke-width="2"/>
  <text x="566" y="588" font-size="13" font-weight="700" fill="#10B981">NET PAY</text>
  <text x="1150" y="608" font-size="32" font-weight="800" fill="#10B981" text-anchor="end">$558.06</text>
  <text x="566" y="625" font-size="11" fill="#86EFAC">Direct Deposit → Chase ••6721 · Est. arrival May 26</text>

  <!-- EMPLOYER COSTS row -->
  <rect x="548" y="648" width="610" height="48" rx="6" fill="#1A1D2E" stroke="#2D3148" stroke-width="1"/>
  <text x="566" y="666" font-size="10" font-weight="700" fill="#64748B">EMPLOYER COSTS (not deducted from employee)</text>
  <text x="566" y="686" font-size="11" fill="#94A3B8">FICA ER Match: $80.47</text>
  <text x="750" y="686" font-size="11" fill="#94A3B8">FUTA: $7.36</text>
  <text x="870" y="686" font-size="11" fill="#94A3B8">CA SUTA: $42.08</text>
  <text x="1020" y="686" font-size="11" fill="#94A3B8">Total ER: $129.91</text>

  <!-- CA Daily OT audit trail -->
  <rect x="548" y="708" width="610" height="42" rx="5" fill="#1C1108" stroke="#2D3148" stroke-width="1"/>
  <text x="566" y="725" font-size="10" font-weight="700" fill="#F97316">CA Labor Code §510 — Daily OT Calculation</text>
  <text x="566" y="742" font-size="10" fill="#FED7AA">Day 5 (Thu May 23): 9.5h worked → 8h regular + 1.5h OT @ 1.5× · Weekly total regular capped at 40h</text>

  <!-- Vertical divider between center and right -->
  <rect x="1166" y="0" width="1" height="1024" fill="#2D3148"/>

  <!-- ================================================================
       RIGHT PANEL  x=1166 w=200  → actual usable area 1166–1366
       Payroll Run Dashboard
       ================================================================ -->

  <!-- Right panel header -->
  <rect x="1166" y="0" width="200" height="58" fill="#1A1D2E"/>
  <rect x="1166" y="58" width="200" height="1" fill="#2D3148"/>
  <text x="1180" y="26" font-size="14" font-weight="700" fill="#F1F5F9">Pay Period Actions</text>
  <text x="1180" y="44" font-size="10" fill="#64748B">May 19–25, 2026</text>

  <!-- ACH Status card -->
  <rect x="1174" y="68" width="184" height="120" rx="7" fill="#1A1D2E" stroke="#2D3148" stroke-width="1"/>
  <text x="1183" y="85" font-size="11" font-weight="700" fill="#F1F5F9">ACH Batch #2847</text>
  <text x="1183" y="100" font-size="10" fill="#64748B">Scheduled: May 26 · 8:00 AM</text>
  <!-- Divider -->
  <rect x="1174" y="106" width="184" height="1" fill="#2D3148"/>
  <text x="1183" y="120" font-size="10" fill="#94A3B8">Total Disbursement</text>
  <text x="1183" y="135" font-size="15" font-weight="700" fill="#F1F5F9">$18,432.17</text>
  <!-- Status badge -->
  <rect x="1183" y="143" width="88" height="16" rx="4" fill="#292108"/>
  <text x="1227" y="154" font-size="9" font-weight="700" fill="#F59E0B" text-anchor="middle">⏳ PENDING APPROVAL</text>
  <!-- Approve button -->
  <rect x="1183" y="163" width="170" height="22" rx="5" fill="#F59E0B"/>
  <text x="1268" y="178" font-size="10" font-weight="700" fill="#0F1117" text-anchor="middle">Approve &amp; Send</text>

  <!-- Tax Deposit card -->
  <rect x="1174" y="198" width="184" height="128" rx="7" fill="#1A1D2E" stroke="#2D3148" stroke-width="1"/>
  <text x="1183" y="215" font-size="11" font-weight="700" fill="#F1F5F9">Tax Deposits</text>
  <text x="1183" y="229" font-size="10" fill="#64748B">EFTPS Due: May 31, 2026</text>
  <rect x="1174" y="234" width="184" height="1" fill="#2D3148"/>
  <!-- 941 Federal -->
  <text x="1183" y="250" font-size="10" fill="#94A3B8">941 Federal Payroll Tax</text>
  <text x="1350" y="250" font-size="11" font-weight="600" fill="#F1F5F9" text-anchor="end">$3,841.20</text>
  <!-- CA EDD -->
  <text x="1183" y="268" font-size="10" fill="#94A3B8">CA EDD (State)</text>
  <text x="1350" y="268" font-size="11" font-weight="600" fill="#F1F5F9" text-anchor="end">$892.40</text>
  <!-- Not Filed badge -->
  <rect x="1183" y="278" width="80" height="16" rx="4" fill="#2C0A0A"/>
  <text x="1223" y="289" font-size="9" font-weight="700" fill="#EF4444" text-anchor="middle">⚠ NOT FILED</text>
  <!-- File Now button -->
  <rect x="1183" y="300" width="170" height="22" rx="5" fill="#EF4444"/>
  <text x="1268" y="315" font-size="10" font-weight="700" fill="#FFFFFF" text-anchor="middle">File Now</text>

  <!-- YTD / W-2 card -->
  <rect x="1174" y="336" width="184" height="88" rx="7" fill="#1A1D2E" stroke="#2D3148" stroke-width="1"/>
  <text x="1183" y="354" font-size="11" font-weight="700" fill="#F1F5F9">Year-to-Date</text>
  <rect x="1174" y="360" width="184" height="1" fill="#2D3148"/>
  <text x="1183" y="377" font-size="10" fill="#94A3B8">W-2 Progress</text>
  <text x="1350" y="377" font-size="11" font-weight="600" fill="#F1F5F9" text-anchor="end">6 employees</text>
  <text x="1183" y="394" font-size="10" fill="#94A3B8">YTD Gross (All Staff)</text>
  <text x="1350" y="394" font-size="11" font-weight="600" fill="#F1F5F9" text-anchor="end">$141,428.00</text>
  <text x="1183" y="416" font-size="10" fill="#64748B">W-2s ready: Jan 31, 2027</text>

  <!-- On-Demand Pay card -->
  <rect x="1174" y="434" width="184" height="74" rx="7" fill="#1A1D2E" stroke="#8B5CF6" stroke-width="1"/>
  <!-- purple left accent -->
  <rect x="1174" y="434" width="3" height="74" rx="2" fill="#8B5CF6"/>
  <text x="1186" y="452" font-size="11" font-weight="700" fill="#F1F5F9">On-Demand Pay</text>
  <text x="1186" y="467" font-size="10" fill="#C4B5FD">2 requests pending</text>
  <text x="1186" y="481" font-size="9" fill="#64748B">via Branch integration</text>
  <!-- Review button -->
  <rect x="1186" y="488" width="164" height="18" rx="4" fill="#4C1D95"/>
  <text x="1268" y="500" font-size="10" font-weight="700" fill="#C4B5FD" text-anchor="middle">Review Requests</text>

  <!-- Integrations row -->
  <rect x="1174" y="520" width="184" height="120" rx="7" fill="#1A1D2E" stroke="#2D3148" stroke-width="1"/>
  <text x="1183" y="537" font-size="10" font-weight="700" fill="#64748B">INTEGRATIONS</text>
  <rect x="1174" y="542" width="184" height="1" fill="#2D3148"/>

  <!-- ADP Sync -->
  <rect x="1183" y="550" width="166" height="24" rx="5" fill="#13162A" stroke="#2D3148" stroke-width="1"/>
  <text x="1266" y="566" font-size="10" font-weight="600" fill="#94A3B8" text-anchor="middle">ADP Sync</text>
  <circle cx="1336" cy="562" r="4" fill="#10B981"/>

  <!-- QuickBooks -->
  <rect x="1183" y="580" width="166" height="24" rx="5" fill="#13162A" stroke="#2D3148" stroke-width="1"/>
  <text x="1266" y="596" font-size="10" font-weight="600" fill="#94A3B8" text-anchor="middle">QuickBooks Export</text>
  <circle cx="1336" cy="592" r="4" fill="#10B981"/>

  <!-- Gusto Export -->
  <rect x="1183" y="610" width="166" height="24" rx="5" fill="#13162A" stroke="#2D3148" stroke-width="1"/>
  <text x="1266" y="626" font-size="10" font-weight="600" fill="#94A3B8" text-anchor="middle">Gusto Export</text>
  <circle cx="1336" cy="622" r="4" fill="#F59E0B"/>

  <!-- Help / audit log footer -->
  <rect x="1174" y="654" width="184" height="48" rx="7" fill="#13162A" stroke="#2D3148" stroke-width="1"/>
  <text x="1266" y="673" font-size="10" fill="#64748B" text-anchor="middle">Payroll Audit Log</text>
  <text x="1266" y="689" font-size="9" fill="#64748B" text-anchor="middle">Last run: May 19 · by admin</text>
  <text x="1266" y="697" font-size="9" fill="#64748B" text-anchor="middle">View full log →</text>

  <!-- ================================================================
       BOTTOM STATUS BAR (full width)
       ================================================================ -->
  <rect x="200" y="990" width="1166" height="34" fill="#13162A" stroke="#2D3148" stroke-width="1"/>
  <!-- Left side: period info -->
  <text x="216" y="1011" font-size="10" fill="#64748B">Pay Period: May 19–25, 2026</text>
  <text x="370" y="1011" font-size="10" fill="#64748B">·</text>
  <text x="380" y="1011" font-size="10" fill="#64748B">6 employees</text>
  <text x="448" y="1011" font-size="10" fill="#64748B">·</text>
  <text x="458" y="1011" font-size="10" fill="#64748B">Gross: $5,623.15</text>
  <text x="556" y="1011" font-size="10" fill="#64748B">·</text>
  <text x="566" y="1011" font-size="10" fill="#64748B">Net: $18,432.17 (all staff)</text>
  <!-- Right side: user + timestamp -->
  <text x="1350" y="1011" font-size="10" fill="#64748B" text-anchor="end">admin · May 27, 2026 09:14 AM</text>

</svg>
