<svg xmlns="http://www.w3.org/2000/svg" viewBox="0 0 1440 900" font-family="system-ui,-apple-system,sans-serif">
  <!-- Background -->
  <rect width="1440" height="900" fill="#0F1117"/>

  <!-- Left Nav Sidebar -->
  <rect x="0" y="0" width="200" height="900" fill="#13162A"/>
  <text x="16" y="30" font-size="13" font-weight="700" fill="#F59E0B">⚙ Back Office</text>
  <!-- Nav items -->
  <rect x="0" y="44" width="200" height="36" fill="none"/>
  <text x="16" y="67" font-size="12" fill="#8B92A5">Restaurant Info</text>
  <rect x="0" y="80" width="200" height="36" fill="#1E2240" rx="4"/>
  <rect x="0" y="80" width="3" height="36" fill="#F59E0B"/>
  <text x="16" y="103" font-size="12" font-weight="600" fill="#F59E0B">Menu Builder</text>
  <rect x="0" y="116" width="200" height="36" fill="none"/>
  <text x="16" y="139" font-size="12" fill="#8B92A5">Taxes</text>
  <rect x="0" y="152" width="200" height="36" fill="none"/>
  <text x="16" y="175" font-size="12" fill="#8B92A5">Employees</text>
  <rect x="0" y="188" width="200" height="36" fill="none"/>
  <text x="16" y="211" font-size="12" fill="#8B92A5">Equipment</text>
  <rect x="0" y="224" width="200" height="36" fill="none"/>
  <text x="16" y="247" font-size="12" fill="#8B92A5">Floor Plans</text>
  <rect x="0" y="260" width="200" height="36" fill="none"/>
  <text x="16" y="283" font-size="12" fill="#8B92A5">Payments</text>
  <rect x="0" y="296" width="200" height="36" fill="none"/>
  <text x="16" y="319" font-size="12" fill="#8B92A5">Reports</text>
  <rect x="0" y="332" width="200" height="36" fill="none"/>
  <text x="16" y="355" font-size="12" fill="#8B92A5">Advantage Prog.</text>
  <rect x="0" y="368" width="200" height="36" fill="none"/>
  <text x="16" y="391" font-size="12" fill="#8B92A5">Revenue Centers</text>
  <rect x="0" y="404" width="200" height="36" fill="none"/>
  <text x="16" y="427" font-size="12" fill="#8B92A5">Integrations</text>

  <!-- Header -->
  <rect x="200" y="0" width="1240" height="56" fill="#1A1D2E"/>
  <text x="220" y="34" font-size="18" font-weight="700" fill="#FFFFFF">Menu Builder</text>
  <text x="220" y="50" font-size="11" fill="#8B92A5">All menu data stored in DB — no rebuild needed for content changes · i18n via name_i18n jsonb</text>
  <!-- Header actions -->
  <rect x="1140" y="12" width="100" height="32" rx="6" fill="#F59E0B"/>
  <text x="1162" y="32" font-size="12" font-weight="600" fill="#000000">+ Add Item</text>
  <rect x="1250" y="12" width="110" height="32" rx="6" fill="#1E2240" stroke="#374151" stroke-width="1"/>
  <text x="1268" y="32" font-size="12" fill="#D1D5DB">+ Add Category</text>

  <!-- ===== LEFT PANEL: Category Tree ===== -->
  <rect x="200" y="56" width="260" height="844" fill="#13162A"/>
  <text x="215" y="85" font-size="13" font-weight="600" fill="#FFFFFF">Categories</text>
  <text x="360" y="85" font-size="11" fill="#8B92A5">drag to reorder</text>

  <!-- Search categories -->
  <rect x="212" y="92" width="236" height="32" rx="6" fill="#0F1117" stroke="#374151" stroke-width="1"/>
  <text x="228" y="113" font-size="12" fill="#6B7280">🔍 Search categories…</text>

  <!-- Category rows -->
  <!-- Appetizers active -->
  <rect x="208" y="132" width="244" height="44" rx="6" fill="#1E2240" stroke="#F59E0B" stroke-width="1"/>
  <text x="224" y="149" font-size="11" fill="#F59E0B">⠿</text>
  <text x="240" y="149" font-size="12" font-weight="600" fill="#F59E0B">Appetizers</text>
  <text x="240" y="166" font-size="10" fill="#8B92A5">8 items · pos: 1</text>
  <rect x="420" y="143" width="20" height="20" rx="4" fill="#10B981"/>
  <text x="424" y="157" font-size="10" fill="#FFF">✓</text>

  <!-- Burgers -->
  <rect x="208" y="182" width="244" height="44" rx="6" fill="#1A1D2E"/>
  <text x="224" y="199" font-size="11" fill="#6B7280">⠿</text>
  <text x="240" y="199" font-size="12" fill="#D1D5DB">Burgers</text>
  <text x="240" y="216" font-size="10" fill="#8B92A5">12 items · pos: 2</text>
  <rect x="420" y="193" width="20" height="20" rx="4" fill="#10B981"/>
  <text x="424" y="207" font-size="10" fill="#FFF">✓</text>

  <!-- Pizzas -->
  <rect x="208" y="232" width="244" height="44" rx="6" fill="#1A1D2E"/>
  <text x="224" y="249" font-size="11" fill="#6B7280">⠿</text>
  <text x="240" y="249" font-size="12" fill="#D1D5DB">Pizzas</text>
  <text x="240" y="266" font-size="10" fill="#8B92A5">9 items · pos: 3</text>
  <rect x="420" y="243" width="20" height="20" rx="4" fill="#10B981"/>
  <text x="424" y="257" font-size="10" fill="#FFF">✓</text>

  <!-- Salads -->
  <rect x="208" y="282" width="244" height="44" rx="6" fill="#1A1D2E"/>
  <text x="224" y="299" font-size="11" fill="#6B7280">⠿</text>
  <text x="240" y="299" font-size="12" fill="#D1D5DB">Salads</text>
  <text x="240" y="316" font-size="10" fill="#8B92A5">6 items · pos: 4</text>
  <rect x="420" y="293" width="20" height="20" rx="4" fill="#10B981"/>
  <text x="424" y="307" font-size="10" fill="#FFF">✓</text>

  <!-- Drinks -->
  <rect x="208" y="332" width="244" height="44" rx="6" fill="#1A1D2E"/>
  <text x="224" y="349" font-size="11" fill="#6B7280">⠿</text>
  <text x="240" y="349" font-size="12" fill="#D1D5DB">Drinks</text>
  <text x="240" y="366" font-size="10" fill="#8B92A5">14 items · pos: 5</text>
  <rect x="420" y="343" width="20" height="20" rx="4" fill="#10B981"/>
  <text x="424" y="357" font-size="10" fill="#FFF">✓</text>

  <!-- Alcohol -->
  <rect x="208" y="382" width="244" height="44" rx="6" fill="#1A1D2E"/>
  <text x="224" y="399" font-size="11" fill="#6B7280">⠿</text>
  <text x="240" y="399" font-size="12" fill="#D1D5DB">Alcohol</text>
  <text x="240" y="416" font-size="10" fill="#8B92A5">22 items · pos: 6</text>
  <rect x="402" y="388" width="42" height="18" rx="9" fill="#991B1B"/>
  <text x="406" y="401" font-size="9" fill="#FCA5A5">21+ only</text>

  <!-- Desserts -->
  <rect x="208" y="432" width="244" height="44" rx="6" fill="#1A1D2E"/>
  <text x="224" y="449" font-size="11" fill="#6B7280">⠿</text>
  <text x="240" y="449" font-size="12" fill="#D1D5DB">Desserts</text>
  <text x="240" y="466" font-size="10" fill="#8B92A5">5 items · pos: 7</text>

  <!-- Kids Menu — disabled -->
  <rect x="208" y="482" width="244" height="44" rx="6" fill="#1A1D2E" opacity="0.5"/>
  <text x="224" y="499" font-size="11" fill="#6B7280">⠿</text>
  <text x="240" y="499" font-size="12" fill="#6B7280">Kids Menu</text>
  <text x="240" y="516" font-size="10" fill="#4B5563">3 items · hidden</text>

  <!-- Note box -->
  <rect x="208" y="540" width="244" height="60" rx="6" fill="#1E2240" stroke="#374151" stroke-width="1"/>
  <text x="222" y="558" font-size="10" fill="#8B92A5">DB field: pos_categories.sort_order</text>
  <text x="222" y="572" font-size="10" fill="#8B92A5">i18n: name_i18n jsonb</text>
  <text x="222" y="586" font-size="10" fill="#8B92A5">age_restricted: boolean</text>
  <text x="222" y="600" font-size="10" fill="#8B92A5">No hardcodes — all from DB</text>

  <!-- ===== CENTER PANEL: Items List ===== -->
  <rect x="460" y="56" width="540" height="844" fill="#0F1117"/>

  <!-- Panel header -->
  <rect x="460" y="56" width="540" height="52" fill="#1A1D2E"/>
  <text x="476" y="82" font-size="14" font-weight="600" fill="#FFFFFF">Appetizers</text>
  <text x="476" y="98" font-size="11" fill="#8B92A5">8 items · drag to reorder · click to edit</text>
  <!-- Column headers -->
  <rect x="460" y="108" width="540" height="32" fill="#13162A"/>
  <text x="556" y="128" font-size="11" font-weight="600" fill="#8B92A5">NAME / i18n</text>
  <text x="720" y="128" font-size="11" font-weight="600" fill="#8B92A5">PRICE</text>
  <text x="790" y="128" font-size="11" font-weight="600" fill="#8B92A5">COST</text>
  <text x="850" y="128" font-size="11" font-weight="600" fill="#8B92A5">FLAGS</text>
  <text x="930" y="128" font-size="11" font-weight="600" fill="#8B92A5">AVAIL.</text>

  <!-- Item rows -->
  <!-- Mozzarella Sticks - active row (editing) -->
  <rect x="460" y="140" width="540" height="58" fill="#1E2240" stroke="#F59E0B" stroke-width="1"/>
  <text x="476" y="157" font-size="11" fill="#9CA3AF">⠿</text>
  <rect x="492" y="147" width="38" height="38" rx="4" fill="#2D2F44"/>
  <text x="504" y="172" font-size="18">🧀</text>
  <text x="538" y="160" font-size="12" font-weight="600" fill="#F59E0B">Mozzarella Sticks</text>
  <text x="538" y="176" font-size="10" fill="#6B7280">name_i18n: en/es/fr/zh ·  sku: APP-001</text>
  <text x="716" y="163" font-size="13" font-weight="700" fill="#FFFFFF">$9.99</text>
  <text x="786" y="163" font-size="12" fill="#10B981">$2.40</text>
  <rect x="844" y="148" width="22" height="14" rx="3" fill="#065F46"/>
  <text x="847" y="159" font-size="8" fill="#6EE7B7">GF</text>
  <rect x="870" y="148" width="24" height="14" rx="3" fill="#1E3A5F"/>
  <text x="873" y="159" font-size="8" fill="#93C5FD">VEG</text>
  <!-- Toggle on -->
  <rect x="930" y="153" width="38" height="20" rx="10" fill="#10B981"/>
  <circle cx="958" cy="163" r="8" fill="#FFFFFF"/>

  <!-- Nachos Supreme -->
  <rect x="460" y="200" width="540" height="58" fill="#1A1D2E"/>
  <text x="476" y="217" font-size="11" fill="#6B7280">⠿</text>
  <rect x="492" y="207" width="38" height="38" rx="4" fill="#2D2F44"/>
  <text x="504" y="232" font-size="18">🌮</text>
  <text x="538" y="220" font-size="12" fill="#D1D5DB">Nachos Supreme</text>
  <text x="538" y="236" font-size="10" fill="#6B7280">name_i18n: en/es/fr/zh ·  sku: APP-002</text>
  <text x="716" y="223" font-size="13" font-weight="700" fill="#FFFFFF">$12.99</text>
  <text x="786" y="223" font-size="12" fill="#10B981">$3.20</text>
  <rect x="844" y="208" width="30" height="14" rx="3" fill="#7C2D12"/>
  <text x="847" y="219" font-size="8" fill="#FCA5A5">SPICY</text>
  <rect x="930" y="213" width="38" height="20" rx="10" fill="#10B981"/>
  <circle cx="958" cy="223" r="8" fill="#FFFFFF"/>

  <!-- Wings - 86'd -->
  <rect x="460" y="260" width="540" height="58" fill="#1A1D2E"/>
  <text x="476" y="277" font-size="11" fill="#6B7280">⠿</text>
  <rect x="492" y="267" width="38" height="38" rx="4" fill="#2D2F44" opacity="0.5"/>
  <text x="504" y="292" font-size="18" opacity="0.4">🍗</text>
  <text x="538" y="280" font-size="12" fill="#6B7280" text-decoration="line-through">Buffalo Wings</text>
  <rect x="538" y="272" width="28" height="14" rx="3" fill="#7F1D1D"/>
  <text x="541" y="283" font-size="8" fill="#FCA5A5">86'd</text>
  <text x="570" y="283" font-size="10" fill="#EF4444"> OUT OF STOCK</text>
  <text x="716" y="283" font-size="13" fill="#6B7280">$13.99</text>
  <text x="786" y="283" font-size="12" fill="#6B7280">$4.10</text>
  <!-- Toggle off -->
  <rect x="930" y="273" width="38" height="20" rx="10" fill="#374151"/>
  <circle cx="942" cy="283" r="8" fill="#FFFFFF"/>

  <!-- Calamari -->
  <rect x="460" y="320" width="540" height="58" fill="#1A1D2E"/>
  <text x="476" y="337" font-size="11" fill="#6B7280">⠿</text>
  <rect x="492" y="327" width="38" height="38" rx="4" fill="#2D2F44"/>
  <text x="504" y="352" font-size="18">🦑</text>
  <text x="538" y="340" font-size="12" fill="#D1D5DB">Fried Calamari</text>
  <text x="538" y="356" font-size="10" fill="#6B7280">name_i18n: en/es/fr/zh ·  sku: APP-003</text>
  <text x="716" y="343" font-size="13" font-weight="700" fill="#FFFFFF">$14.99</text>
  <text x="786" y="343" font-size="12" fill="#10B981">$3.80</text>
  <rect x="844" y="328" width="32" height="14" rx="3" fill="#7C2D12"/>
  <text x="847" y="339" font-size="8" fill="#FCA5A5">SHELL</text>
  <rect x="930" y="333" width="38" height="20" rx="10" fill="#10B981"/>
  <circle cx="958" cy="343" r="8" fill="#FFFFFF"/>

  <!-- Spring Rolls -->
  <rect x="460" y="380" width="540" height="58" fill="#1A1D2E"/>
  <text x="476" y="397" font-size="11" fill="#6B7280">⠿</text>
  <rect x="492" y="387" width="38" height="38" rx="4" fill="#2D2F44"/>
  <text x="504" y="412" font-size="18">🥢</text>
  <text x="538" y="400" font-size="12" fill="#D1D5DB">Spring Rolls (4pc)</text>
  <text x="538" y="416" font-size="10" fill="#6B7280">name_i18n: en/es/fr/zh ·  sku: APP-004</text>
  <text x="716" y="403" font-size="13" font-weight="700" fill="#FFFFFF">$8.99</text>
  <text x="786" y="403" font-size="12" fill="#10B981">$1.90</text>
  <rect x="844" y="388" width="28" height="14" rx="3" fill="#065F46"/>
  <text x="847" y="399" font-size="8" fill="#6EE7B7">VGN</text>
  <rect x="930" y="393" width="38" height="20" rx="10" fill="#10B981"/>
  <circle cx="958" cy="403" r="8" fill="#FFFFFF"/>

  <!-- ===== RIGHT PANEL: Item Detail Editor ===== -->
  <rect x="1000" y="56" width="440" height="844" fill="#1A1D2E"/>
  <rect x="1000" y="56" width="440" height="52" fill="#13162A"/>
  <text x="1016" y="82" font-size="14" font-weight="600" fill="#FFFFFF">Edit: Mozzarella Sticks</text>
  <text x="1016" y="98" font-size="11" fill="#8B92A5">pos_menu_items.id = APP-001</text>

  <!-- Image upload -->
  <rect x="1016" y="116" width="120" height="90" rx="8" fill="#0F1117" stroke="#374151" stroke-width="1" stroke-dasharray="4"/>
  <text x="1048" y="156" font-size="22">🧀</text>
  <text x="1030" y="178" font-size="10" fill="#6B7280">Click to change</text>
  <text x="1024" y="192" font-size="9" fill="#4B5563">JPG/PNG · max 2MB</text>

  <!-- SKU / Sort -->
  <text x="1152" y="130" font-size="10" fill="#8B92A5">SKU</text>
  <rect x="1152" y="134" width="100" height="28" rx="4" fill="#0F1117" stroke="#374151" stroke-width="1"/>
  <text x="1162" y="153" font-size="12" fill="#FFFFFF">APP-001</text>
  <text x="1268" y="130" font-size="10" fill="#8B92A5">Sort Order</text>
  <rect x="1268" y="134" width="60" height="28" rx="4" fill="#0F1117" stroke="#374151" stroke-width="1"/>
  <text x="1280" y="153" font-size="12" fill="#FFFFFF">1</text>

  <!-- i18n Name fields -->
  <text x="1016" y="226" font-size="11" font-weight="600" fill="#8B92A5">NAME (i18n) — stored in name_i18n jsonb</text>
  <text x="1016" y="244" font-size="10" fill="#8B92A5">en-US</text>
  <rect x="1016" y="248" width="400" height="28" rx="4" fill="#0F1117" stroke="#F59E0B" stroke-width="1"/>
  <text x="1028" y="267" font-size="12" fill="#FFFFFF">Mozzarella Sticks</text>
  <text x="1016" y="290" font-size="10" fill="#8B92A5">es</text>
  <rect x="1016" y="294" width="190" height="28" rx="4" fill="#0F1117" stroke="#374151" stroke-width="1"/>
  <text x="1028" y="313" font-size="12" fill="#D1D5DB">Palitos de Mozzarella</text>
  <text x="1222" y="290" font-size="10" fill="#8B92A5">fr</text>
  <rect x="1222" y="294" width="194" height="28" rx="4" fill="#0F1117" stroke="#374151" stroke-width="1"/>
  <text x="1234" y="313" font-size="12" fill="#D1D5DB">Bâtonnets de Mozza</text>
  <text x="1016" y="338" font-size="10" fill="#8B92A5">zh</text>
  <rect x="1016" y="342" width="190" height="28" rx="4" fill="#0F1117" stroke="#374151" stroke-width="1"/>
  <text x="1028" y="361" font-size="12" fill="#D1D5DB">芝士条</text>
  <text x="1222" y="338" font-size="10" fill="#8B92A5">+ Add locale</text>
  <rect x="1222" y="342" width="80" height="28" rx="4" fill="#1E2240" stroke="#374151" stroke-width="1"/>
  <text x="1238" y="361" font-size="12" fill="#F59E0B">+ locale</text>

  <!-- Description -->
  <text x="1016" y="390" font-size="10" fill="#8B92A5">DESCRIPTION</text>
  <rect x="1016" y="394" width="400" height="52" rx="4" fill="#0F1117" stroke="#374151" stroke-width="1"/>
  <text x="1028" y="412" font-size="11" fill="#D1D5DB">Golden-fried mozzarella with marinara.</text>
  <text x="1028" y="428" font-size="10" fill="#6B7280">desc_i18n jsonb — same pattern as name_i18n</text>

  <!-- Price / Cost -->
  <text x="1016" y="462" font-size="10" fill="#8B92A5">PRICE</text>
  <rect x="1016" y="466" width="120" height="30" rx="4" fill="#0F1117" stroke="#374151" stroke-width="1"/>
  <text x="1028" y="486" font-size="14" font-weight="700" fill="#FFFFFF">$ 9.99</text>
  <text x="1148" y="462" font-size="10" fill="#8B92A5">COST (optional)</text>
  <rect x="1148" y="466" width="120" height="30" rx="4" fill="#0F1117" stroke="#374151" stroke-width="1"/>
  <text x="1160" y="486" font-size="14" fill="#10B981">$ 2.40</text>
  <text x="1280" y="462" font-size="10" fill="#8B92A5">MARGIN</text>
  <text x="1280" y="486" font-size="14" font-weight="600" fill="#10B981">76%</text>

  <!-- Tax category -->
  <text x="1016" y="516" font-size="10" fill="#8B92A5">TAX CATEGORY (→ pos_tax_zones.applies_to)</text>
  <rect x="1016" y="520" width="190" height="28" rx="4" fill="#0F1117" stroke="#374151" stroke-width="1"/>
  <text x="1028" y="539" font-size="12" fill="#FFFFFF">food</text>
  <text x="1222" y="539" font-size="20" fill="#6B7280">▾</text>

  <!-- Dietary flags -->
  <text x="1016" y="568" font-size="10" fill="#8B92A5">DIETARY FLAGS</text>
  <rect x="1016" y="572" width="42" height="24" rx="4" fill="#065F46"/>
  <text x="1028" y="589" font-size="11" fill="#6EE7B7">GF</text>
  <rect x="1064" y="572" width="44" height="24" rx="4" fill="#1E3A5F"/>
  <text x="1075" y="589" font-size="11" fill="#93C5FD">VEG</text>
  <rect x="1114" y="572" width="46" height="24" rx="4" fill="#1A1D2E" stroke="#374151" stroke-width="1"/>
  <text x="1122" y="589" font-size="11" fill="#6B7280">VGN</text>
  <rect x="1166" y="572" width="54" height="24" rx="4" fill="#1A1D2E" stroke="#374151" stroke-width="1"/>
  <text x="1172" y="589" font-size="11" fill="#6B7280">SPICY</text>
  <rect x="1226" y="572" width="56" height="24" rx="4" fill="#1A1D2E" stroke="#374151" stroke-width="1"/>
  <text x="1234" y="589" font-size="11" fill="#6B7280">KETO</text>
  <rect x="1288" y="572" width="60" height="24" rx="4" fill="#1A1D2E" stroke="#374151" stroke-width="1"/>
  <text x="1295" y="589" font-size="11" fill="#6B7280">POPULAR</text>

  <!-- Allergens -->
  <text x="1016" y="618" font-size="10" fill="#8B92A5">ALLERGENS (pos_menu_items.allergens jsonb)</text>
  <rect x="1016" y="622" width="52" height="24" rx="4" fill="#7C2D12"/>
  <text x="1024" y="639" font-size="11" fill="#FCA5A5">DAIRY ✓</text>
  <rect x="1074" y="622" width="52" height="24" rx="4" fill="#1A1D2E" stroke="#374151" stroke-width="1"/>
  <text x="1082" y="639" font-size="11" fill="#6B7280">GLUTEN</text>
  <rect x="1132" y="622" width="46" height="24" rx="4" fill="#1A1D2E" stroke="#374151" stroke-width="1"/>
  <text x="1140" y="639" font-size="11" fill="#6B7280">EGGS</text>
  <rect x="1184" y="622" width="46" height="24" rx="4" fill="#1A1D2E" stroke="#374151" stroke-width="1"/>
  <text x="1192" y="639" font-size="11" fill="#6B7280">NUTS</text>
  <rect x="1236" y="622" width="46" height="24" rx="4" fill="#1A1D2E" stroke="#374151" stroke-width="1"/>
  <text x="1244" y="639" font-size="11" fill="#6B7280">SOY</text>
  <rect x="1288" y="622" width="52" height="24" rx="4" fill="#7C2D12"/>
  <text x="1296" y="639" font-size="11" fill="#FCA5A5">SHELL ✓</text>

  <!-- Modifiers section -->
  <text x="1016" y="672" font-size="11" font-weight="600" fill="#8B92A5">MODIFIER GROUPS (pos_modifier_groups)</text>
  <!-- Dipping Sauce mod group -->
  <rect x="1016" y="678" width="400" height="64" rx="6" fill="#0F1117" stroke="#374151" stroke-width="1"/>
  <text x="1030" y="698" font-size="12" font-weight="600" fill="#FFFFFF">Dipping Sauce</text>
  <text x="1030" y="712" font-size="10" fill="#8B92A5">choose 1 · required</text>
  <text x="1150" y="698" font-size="10" fill="#6B7280">• Marinara  • Ranch  • Honey Mustard  • BBQ</text>
  <rect x="1358" y="682" width="44" height="22" rx="4" fill="#1E2240" stroke="#374151" stroke-width="1"/>
  <text x="1368" y="697" font-size="10" fill="#8B92A5">Edit</text>
  <rect x="1016" y="728" width="80" height="24" rx="4" fill="#1E2240" stroke="#374151" stroke-width="1"/>
  <text x="1028" y="745" font-size="11" fill="#F59E0B">+ Add Mod Group</text>

  <!-- 86'd toggle -->
  <rect x="1016" y="762" width="400" height="44" rx="6" fill="#7F1D1D" stroke="#991B1B" stroke-width="1"/>
  <text x="1036" y="782" font-size="13" font-weight="600" fill="#FCA5A5">86 This Item (out of stock)</text>
  <text x="1036" y="798" font-size="10" fill="#FCA5A5">Grays out item on register &amp; online menu until toggled back</text>
  <rect x="1352" y="772" width="48" height="24" rx="12" fill="#374151"/>
  <circle cx="1368" cy="784" r="10" fill="#FFFFFF"/>

  <!-- Save / Cancel -->
  <rect x="1016" y="820" width="190" height="36" rx="6" fill="#F59E0B"/>
  <text x="1076" y="843" font-size="13" font-weight="600" fill="#000000">Save Changes</text>
  <rect x="1216" y="820" width="100" height="36" rx="6" fill="#1E2240" stroke="#374151" stroke-width="1"/>
  <text x="1247" y="843" font-size="13" fill="#D1D5DB">Cancel</text>
  <rect x="1326" y="820" width="90" height="36" rx="6" fill="#7F1D1D"/>
  <text x="1350" y="843" font-size="13" fill="#FCA5A5">Delete</text>

  <!-- Title at top of page -->
  <text x="720" y="890" font-size="11" text-anchor="middle" fill="#4B5563">Synalux POS · Menu Builder · All content stored in pos_menu_items — no hardcodes, no rebuilds</text>
</svg>
