<svg xmlns="http://www.w3.org/2000/svg" viewBox="0 0 1440 900" font-family="system-ui,-apple-system,sans-serif">
  <rect width="1440" height="900" fill="#0F1117"/>
  <!-- Left Nav -->
  <rect x="0" y="0" width="200" height="900" fill="#13162A"/>
  <text x="16" y="30" font-size="13" font-weight="700" fill="#F59E0B">⚙ Back Office</text>
  <text x="16" y="67" font-size="12" fill="#8B92A5">Discounts &amp; Promos</text>
  <text x="16" y="103" font-size="12" fill="#8B92A5">Gift Cards</text>
  <text x="16" y="139" font-size="12" fill="#8B92A5">Rounding</text>
  <rect x="0" y="152" width="200" height="36" fill="#1E2240" rx="4"/>
  <rect x="0" y="152" width="3" height="36" fill="#F59E0B"/>
  <text x="16" y="175" font-size="12" font-weight="600" fill="#F59E0B">Cash Management</text>
  <text x="16" y="211" font-size="12" fill="#8B92A5">Inventory</text>
  <text x="16" y="247" font-size="12" fill="#8B92A5">Receipts</text>
  <text x="16" y="283" font-size="12" fill="#8B92A5">Reports</text>
  <text x="16" y="319" font-size="12" fill="#8B92A5">EOD</text>

  <!-- Header -->
  <rect x="200" y="0" width="1240" height="56" fill="#1A1D2E"/>
  <text x="220" y="34" font-size="18" font-weight="700" fill="#FFFFFF">Cash Management</text>
  <text x="220" y="50" font-size="11" fill="#8B92A5">Paid-In · Paid-Out · Petty cash · Open day drawer · Safe drops — pos_cash_events table</text>

  <!-- Today cash status bar -->
  <rect x="202" y="58" width="230" height="76" rx="8" fill="#1A1D2E"/>
  <text x="222" y="82" font-size="12" fill="#8B92A5">Drawer Balance</text>
  <text x="222" y="108" font-size="28" font-weight="700" fill="#10B981">$1,282.40</text>
  <rect x="444" y="58" width="230" height="76" rx="8" fill="#1A1D2E"/>
  <text x="464" y="82" font-size="12" fill="#8B92A5">Opening Float</text>
  <text x="464" y="108" font-size="28" font-weight="700" fill="#FFFFFF">$200.00</text>
  <rect x="686" y="58" width="230" height="76" rx="8" fill="#1A1D2E"/>
  <text x="706" y="82" font-size="12" fill="#8B92A5">Paid-In Today</text>
  <text x="706" y="108" font-size="28" font-weight="700" fill="#10B981">+$45.00</text>
  <rect x="928" y="58" width="230" height="76" rx="8" fill="#1A1D2E"/>
  <text x="948" y="82" font-size="12" fill="#8B92A5">Paid-Out Today</text>
  <text x="948" y="108" font-size="28" font-weight="700" fill="#EF4444">−$22.80</text>
  <rect x="1170" y="58" width="268" height="76" rx="8" fill="#1A1D2E"/>
  <text x="1190" y="82" font-size="12" fill="#8B92A5">Safe Drops Today</text>
  <text x="1190" y="108" font-size="28" font-weight="700" fill="#F59E0B">$500.00</text>

  <!-- Left: Quick actions -->
  <rect x="200" y="144" width="420" height="756" fill="#13162A"/>
  <text x="220" y="172" font-size="14" font-weight="700" fill="#FFFFFF">Record Cash Event</text>

  <!-- Event type buttons -->
  <rect x="212" y="184" width="396" height="52" rx="8" fill="#1A1D2E"/>
  <rect x="220" y="192" width="115" height="36" rx="6" fill="#10B981"/>
  <text x="252" y="215" font-size="12" font-weight="700" fill="#FFF">Paid-In</text>
  <rect x="341" y="192" width="115" height="36" rx="6" fill="#1E2240" stroke="#374151" stroke-width="1"/>
  <text x="370" y="215" font-size="12" fill="#D1D5DB">Paid-Out</text>
  <rect x="462" y="192" width="138" height="36" rx="6" fill="#1E2240" stroke="#374151" stroke-width="1"/>
  <text x="486" y="215" font-size="12" fill="#D1D5DB">Safe Drop</text>

  <!-- Amount entry -->
  <text x="212" y="262" font-size="10" fill="#8B92A5">AMOUNT</text>
  <rect x="212" y="268" width="396" height="52" rx="8" fill="#0F1117" stroke="#F59E0B" stroke-width="1"/>
  <text x="228" y="302" font-size="28" font-weight="700" fill="#FFFFFF">$ 45.00</text>

  <!-- Reason / category -->
  <text x="212" y="344" font-size="10" fill="#8B92A5">REASON (pos_cash_events.reason)</text>
  <rect x="212" y="350" width="396" height="32" rx="6" fill="#0F1117" stroke="#374151" stroke-width="1"/>
  <text x="228" y="371" font-size="13" fill="#FFFFFF">Vendor payment — produce delivery</text>
  <text x="580" y="371" font-size="16" fill="#6B7280">▾</text>

  <!-- Preset reasons -->
  <rect x="212" y="390" width="396" height="80" rx="6" fill="#1A1D2E"/>
  <text x="228" y="410" font-size="10" fill="#8B92A5">QUICK REASONS</text>
  <rect x="228" y="418" width="90" height="22" rx="4" fill="#1E2240" stroke="#374151" stroke-width="1"/>
  <text x="238" y="433" font-size="10" fill="#D1D5DB">Produce</text>
  <rect x="326" y="418" width="100" height="22" rx="4" fill="#1E2240" stroke="#374151" stroke-width="1"/>
  <text x="336" y="433" font-size="10" fill="#D1D5DB">Liquor order</text>
  <rect x="434" y="418" width="80" height="22" rx="4" fill="#1E2240" stroke="#374151" stroke-width="1"/>
  <text x="444" y="433" font-size="10" fill="#D1D5DB">Supplies</text>
  <rect x="228" y="446" width="80" height="22" rx="4" fill="#1E2240" stroke="#374151" stroke-width="1"/>
  <text x="238" y="461" font-size="10" fill="#D1D5DB">Tips payout</text>
  <rect x="316" y="446" width="80" height="22" rx="4" fill="#1E2240" stroke="#374151" stroke-width="1"/>
  <text x="326" y="461" font-size="10" fill="#D1D5DB">Petty cash</text>
  <rect x="404" y="446" width="90" height="22" rx="4" fill="#1E2240" stroke="#374151" stroke-width="1"/>
  <text x="414" y="461" font-size="10" fill="#D1D5DB">Other (custom)</text>

  <!-- Manager PIN -->
  <text x="212" y="494" font-size="10" fill="#8B92A5">MANAGER PIN (required for paid-out)</text>
  <rect x="212" y="500" width="180" height="32" rx="6" fill="#0F1117" stroke="#374151" stroke-width="1"/>
  <text x="228" y="521" font-size="20" fill="#FFFFFF">● ● ● ●</text>

  <!-- Receipt option -->
  <rect x="212" y="544" width="396" height="32" rx="6" fill="#0F1117" stroke="#374151" stroke-width="1"/>
  <text x="228" y="565" font-size="12" fill="#D1D5DB">Print receipt for this event</text>
  <rect x="556" y="550" width="44" height="20" rx="10" fill="#374151"/>
  <circle cx="568" cy="560" r="8" fill="#FFFFFF"/>

  <!-- Submit -->
  <rect x="212" y="590" width="396" height="44" rx="8" fill="#10B981"/>
  <text x="368" y="618" font-size="14" font-weight="700" fill="#FFF" text-anchor="middle">Record Paid-In</text>

  <!-- Open day settings -->
  <text x="212" y="660" font-size="12" font-weight="600" fill="#FFFFFF">Open Day Settings</text>
  <rect x="212" y="668" width="396" height="80" rx="8" fill="#1A1D2E"/>
  <text x="228" y="692" font-size="11" fill="#D1D5DB">Starting float amount:</text>
  <rect x="380" y="682" width="120" height="24" rx="4" fill="#0F1117" stroke="#374151" stroke-width="1"/>
  <text x="396" y="699" font-size="12" fill="#FFFFFF">$200.00</text>
  <text x="228" y="720" font-size="10" fill="#6B7280">pos_config.opening_float_cents — set once, applies every open</text>
  <text x="228" y="736" font-size="10" fill="#6B7280">Prompt cashier to verify count at Open Day</text>

  <!-- ===== Center + Right: Event Log ===== -->
  <rect x="620" y="144" width="820" height="756" fill="#0F1117"/>
  <text x="640" y="172" font-size="14" font-weight="700" fill="#FFFFFF">Cash Event Log — Today</text>
  <text x="640" y="188" font-size="10" fill="#8B92A5">All events timestamped + cashier logged · pos_cash_events</text>

  <!-- Column headers -->
  <rect x="636" y="196" width="788" height="32" fill="#1A1D2E"/>
  <text x="652" y="216" font-size="10" font-weight="600" fill="#6B7280">TIME</text>
  <text x="730" y="216" font-size="10" font-weight="600" fill="#6B7280">TYPE</text>
  <text x="870" y="216" font-size="10" font-weight="600" fill="#6B7280">AMOUNT</text>
  <text x="970" y="216" font-size="10" font-weight="600" fill="#6B7280">REASON</text>
  <text x="1200" y="216" font-size="10" font-weight="600" fill="#6B7280">CASHIER</text>
  <text x="1320" y="216" font-size="10" font-weight="600" fill="#6B7280">RUNNING BAL.</text>

  <!-- Rows -->
  <rect x="636" y="228" width="788" height="32" fill="#1A1D2E"/>
  <text x="652" y="248" font-size="11" fill="#8B92A5">9:00 AM</text>
  <rect x="718" y="234" width="80" height="20" rx="4" fill="#1E3A5F"/>
  <text x="726" y="248" font-size="10" fill="#93C5FD">OPEN DAY</text>
  <text x="870" y="248" font-size="11" fill="#FFFFFF">$200.00</text>
  <text x="970" y="248" font-size="10" fill="#8B92A5">Opening float</text>
  <text x="1200" y="248" font-size="11" fill="#D1D5DB">Maria S.</text>
  <text x="1320" y="248" font-size="11" fill="#FFFFFF">$200.00</text>

  <rect x="636" y="260" width="788" height="32" fill="#13162A"/>
  <text x="652" y="280" font-size="11" fill="#8B92A5">10:34 AM</text>
  <rect x="718" y="266" width="68" height="20" rx="4" fill="#065F46"/>
  <text x="728" y="280" font-size="10" fill="#6EE7B7">PAID-IN</text>
  <text x="870" y="280" font-size="11" fill="#10B981">+$45.00</text>
  <text x="970" y="280" font-size="10" fill="#8B92A5">Vendor — produce delivery</text>
  <text x="1200" y="280" font-size="11" fill="#D1D5DB">Carlos R.</text>
  <text x="1320" y="280" font-size="11" fill="#FFFFFF">$245.00</text>

  <rect x="636" y="292" width="788" height="32" fill="#1A1D2E"/>
  <text x="652" y="312" font-size="11" fill="#8B92A5">11:48 AM</text>
  <rect x="718" y="298" width="74" height="20" rx="4" fill="#7F1D1D"/>
  <text x="726" y="312" font-size="10" fill="#FCA5A5">PAID-OUT</text>
  <text x="870" y="312" font-size="11" fill="#EF4444">−$22.80</text>
  <text x="970" y="312" font-size="10" fill="#8B92A5">Petty cash — stamps + office supply</text>
  <text x="1200" y="312" font-size="11" fill="#D1D5DB">Maria S.</text>
  <text x="1320" y="312" font-size="11" fill="#FFFFFF">$222.20</text>

  <rect x="636" y="324" width="788" height="32" fill="#13162A"/>
  <text x="652" y="344" font-size="11" fill="#8B92A5">2:15 PM</text>
  <rect x="718" y="330" width="74" height="20" rx="4" fill="#B45309"/>
  <text x="726" y="344" font-size="10" fill="#FDE68A">SAFE DROP</text>
  <text x="870" y="344" font-size="11" fill="#F59E0B">$500.00</text>
  <text x="970" y="344" font-size="10" fill="#8B92A5">Mid-day safe drop</text>
  <text x="1200" y="344" font-size="11" fill="#D1D5DB">Maria S.</text>
  <text x="1320" y="344" font-size="11" fill="#FFFFFF">$782.40+sales</text>

  <rect x="636" y="356" width="788" height="32" fill="#1A1D2E"/>
  <text x="652" y="376" font-size="11" fill="#8B92A5">4:02 PM</text>
  <rect x="718" y="362" width="68" height="20" rx="4" fill="#065F46"/>
  <text x="728" y="376" font-size="10" fill="#6EE7B7">PAID-IN</text>
  <text x="870" y="376" font-size="11" fill="#10B981">+$120.00</text>
  <text x="970" y="376" font-size="10" fill="#8B92A5">Change drawer — got $100 from bar</text>
  <text x="1200" y="376" font-size="11" fill="#D1D5DB">Carlos R.</text>
  <text x="1320" y="376" font-size="11" fill="#FFFFFF">$922.40+sales</text>

  <rect x="636" y="388" width="788" height="32" fill="#13162A"/>
  <text x="652" y="408" font-size="11" fill="#8B92A5">6:30 PM</text>
  <rect x="718" y="394" width="68" height="20" rx="4" fill="#065F46"/>
  <text x="728" y="408" font-size="10" fill="#6EE7B7">TIPS OUT</text>
  <text x="870" y="408" font-size="11" fill="#EF4444">−$180.00</text>
  <text x="970" y="408" font-size="10" fill="#8B92A5">Server tips paid out (3 servers)</text>
  <text x="1200" y="408" font-size="11" fill="#D1D5DB">Maria S.</text>
  <text x="1320" y="408" font-size="11" fill="#FFFFFF">$1,282.40</text>

  <!-- Summary chart area -->
  <rect x="636" y="436" width="788" height="200" rx="8" fill="#1A1D2E"/>
  <text x="656" y="462" font-size="12" font-weight="600" fill="#FFFFFF">Cash Flow — Today (bar chart)</text>
  <!-- Simple bar chart visualization -->
  <rect x="680" y="548" width="60" height="60" rx="3" fill="#065F46"/>
  <text x="686" y="622" font-size="9" fill="#6B7280">9am Open</text>
  <text x="686" y="542" font-size="9" fill="#6EE7B7">$200</text>

  <rect x="780" y="524" width="60" height="84" rx="3" fill="#10B981"/>
  <text x="786" y="622" font-size="9" fill="#6B7280">10am Paid-In</text>
  <text x="786" y="518" font-size="9" fill="#6EE7B7">$245</text>

  <rect x="880" y="488" width="60" height="120" rx="3" fill="#374151"/>
  <text x="886" y="622" font-size="9" fill="#6B7280">11am Out</text>
  <text x="886" y="482" font-size="9" fill="#9CA3AF">$222</text>

  <rect x="980" y="392" width="60" height="216" rx="3" fill="#B45309"/>
  <text x="986" y="622" font-size="9" fill="#6B7280">Sales flow</text>
  <text x="986" y="386" font-size="9" fill="#FDE68A">$1,282</text>

  <rect x="1080" y="448" width="60" height="160" rx="3" fill="#F59E0B"/>
  <text x="1086" y="622" font-size="9" fill="#6B7280">Safe drop</text>
  <text x="1086" y="442" font-size="9" fill="#FDE68A">After drop</text>

  <rect x="1180" y="488" width="60" height="120" rx="3" fill="#10B981"/>
  <text x="1186" y="622" font-size="9" fill="#6B7280">Current</text>
  <text x="1186" y="482" font-size="9" fill="#6EE7B7">$1,282</text>

  <!-- Petty cash config -->
  <rect x="636" y="648" width="380" height="120" rx="8" fill="#1A1D2E"/>
  <text x="656" y="672" font-size="12" font-weight="600" fill="#FFFFFF">Petty Cash Settings</text>
  <text x="656" y="692" font-size="11" fill="#8B92A5">Daily petty cash limit:</text>
  <rect x="810" y="682" width="100" height="24" rx="4" fill="#0F1117" stroke="#374151" stroke-width="1"/>
  <text x="826" y="699" font-size="12" fill="#FFFFFF">$100.00</text>
  <text x="656" y="720" font-size="11" fill="#8B92A5">Requires manager PIN for paid-out:</text>
  <rect x="950" y="710" width="44" height="20" rx="10" fill="#10B981"/>
  <circle cx="984" cy="720" r="8" fill="#FFFFFF"/>
  <text x="656" y="744" font-size="10" fill="#6B7280">Receipts required for paid-out over:</text>
  <rect x="898" y="734" width="100" height="20" rx="4" fill="#0F1117" stroke="#374151" stroke-width="1"/>
  <text x="914" y="749" font-size="11" fill="#FFFFFF">$25.00</text>
  <text x="656" y="760" font-size="9" fill="#4B5563">pos_config.petty_cash_limit_cents / require_receipt_cents</text>

  <!-- Export -->
  <rect x="1028" y="648" width="396" height="120" rx="8" fill="#1A1D2E"/>
  <text x="1048" y="672" font-size="12" font-weight="600" fill="#FFFFFF">Export &amp; Reporting</text>
  <text x="1048" y="700" font-size="11" fill="#D1D5DB">Cash event log exports to CSV / PDF</text>
  <text x="1048" y="718" font-size="11" fill="#D1D5DB">Integrates with QuickBooks / Xero</text>
  <text x="1048" y="736" font-size="11" fill="#D1D5DB">EOD cash reconciliation auto-cross-check</text>
  <rect x="1048" y="748" width="180" height="28" rx="6" fill="#F59E0B"/>
  <text x="1096" y="767" font-size="12" font-weight="600" fill="#000">Export to CSV</text>

  <text x="720" y="890" font-size="11" text-anchor="middle" fill="#4B5563">Synalux POS · Cash Management · pos_cash_events — paid-in/out · safe drop · petty cash · EOD reconcile</text>
</svg>
