<svg role="img" aria-labelledby="title-settings_forms-svg" xmlns="http://www.w3.org/2000/svg" xmlns:xlink="http://www.w3.org/1999/xlink"
     viewBox="0 0 1366 1024" font-family="-apple-system,system-ui,BlinkMacSystemFont,'Segoe UI',sans-serif">

  <!-- ==========================================================
       DEFS — Reusable symbols
       ========================================================== -->
  <title id="title-settings_forms-svg">Synalux POS — forms</title>
  <desc>Synalux POS mockup screen for forms. All UI elements admin-configurable.</desc>
  <defs>
    <linearGradient id="cardHeaderGrad" x1="0" y1="0" x2="1" y2="0">
      <stop offset="0%" stop-color="#1E2235"/>
      <stop offset="100%" stop-color="#1A1D2E"/>
    </linearGradient>
    <linearGradient id="amberGrad" x1="0" y1="0" x2="0" y2="1">
      <stop offset="0%" stop-color="#FBBF24"/>
      <stop offset="100%" stop-color="#F59E0B"/>
    </linearGradient>
    <filter id="cardShadow" x="-2%" y="-2%" width="104%" height="108%">
      <feDropShadow dx="0" dy="2" stdDeviation="4" flood-color="#000000" flood-opacity="0.3"/>
    </filter>
    <!-- Paper shadow for receipt preview -->
    <filter id="paperShadow" x="-4%" y="-1%" width="108%" height="104%">
      <feDropShadow dx="3" dy="4" stdDeviation="6" flood-color="#000000" flood-opacity="0.4"/>
    </filter>

    <!-- Admin gear icon -->
    <symbol id="gearIcon" viewBox="0 0 16 16">
      <path d="M7.07 1.29A1 1 0 0 1 8.93 1.29l.47 1.06a1 1 0 0 0 .94.58l1.15-.08a1 1 0 0 1 .92 1.45l-.68.93a1 1 0 0 0 0 1.1l.68.93a1 1 0 0 1-.92 1.45l-1.15-.08a1 1 0 0 0-.94.58l-.47 1.06a1 1 0 0 1-1.86 0l-.47-1.06a1 1 0 0 0-.94-.58l-1.15.08a1 1 0 0 1-.92-1.45l.68-.93a1 1 0 0 0 0-1.1l-.68-.93A1 1 0 0 1 4.51 2.85l1.15.08a1 1 0 0 0 .94-.58z"
            fill="none" stroke="#F59E0B" stroke-width="1.2"/>
      <circle cx="8" cy="8" r="2.5" fill="none" stroke="#F59E0B" stroke-width="1.2"/>
    </symbol>

    <!-- Toggle ON -->
    <symbol id="toggleOn" viewBox="0 0 44 24">
      <rect width="44" height="24" rx="12" fill="#059669"/>
      <circle cx="32" cy="12" r="9" fill="#FFFFFF"/>
    </symbol>

    <!-- Toggle OFF -->
    <symbol id="toggleOff" viewBox="0 0 44 24">
      <rect width="44" height="24" rx="12" fill="#374151"/>
      <circle cx="12" cy="12" r="9" fill="#94A3B8"/>
    </symbol>

    <!-- Save button -->
    <symbol id="saveBtn" viewBox="0 0 140 36">
      <rect width="140" height="36" rx="6" fill="url(#amberGrad)"/>
      <text x="70" y="23" font-size="12" font-weight="700" fill="#0C0E1A" text-anchor="middle">Save Settings</text>
    </symbol>

    <!-- Dropdown arrow -->
    <symbol id="dropdown" viewBox="0 0 12 8">
      <path d="M1 1l5 5 5-5" fill="none" stroke="#64748B" stroke-width="1.5" stroke-linecap="round"/>
    </symbol>

    <!-- Form card — reused 12 times in left panel -->
    <symbol id="formCard" viewBox="0 0 356 58">
      <rect width="356" height="58" rx="6" fill="#1A1D2E" stroke="#2A2E45" stroke-width="1"/>
    </symbol>

    <!-- Print button (small amber) — reused per form card -->
    <symbol id="printBtn" viewBox="0 0 50 22">
      <rect width="50" height="22" rx="4" fill="url(#amberGrad)"/>
      <text x="25" y="15" font-size="9" font-weight="700" fill="#0C0E1A" text-anchor="middle">Print</text>
    </symbol>

    <!-- PDF button (small outline) — reused per form card -->
    <symbol id="pdfBtn" viewBox="0 0 50 22">
      <rect width="50" height="22" rx="4" fill="#1A1D2E" stroke="#2A2E45" stroke-width="1"/>
      <text x="25" y="15" font-size="9" fill="#94A3B8" text-anchor="middle">PDF</text>
    </symbol>

    <!-- Dashed input line for receipt forms -->
    <symbol id="inputLine" viewBox="0 0 100 2">
      <line x1="0" y1="1" x2="100" y2="1" stroke="#94A3B8" stroke-width="0.8" stroke-dasharray="3,2"/>
    </symbol>
  </defs>

  <!-- ==========================================================
       BACKGROUND
       ========================================================== -->
  <rect width="1366" height="1024" fill="#0C0E1A"/>

  <!-- ==========================================================
       LEFT NAV SIDEBAR — x=0, w=200
       ========================================================== -->
  <rect x="0" y="0" width="200" height="1024" fill="#161930"/>
  <rect x="12" y="12" width="28" height="28" rx="6" fill="#F59E0B"/>
  <text x="18" y="31" font-size="14" font-weight="800" fill="#0C0E1A">S</text>
  <text x="48" y="32" font-size="14" font-weight="700" fill="#E2E8F0">Synalux POS</text>
  <line x1="12" y1="48" x2="188" y2="48" stroke="#2A2E45" stroke-width="1"/>

  <text x="16" y="72" font-size="12" fill="#94A3B8">Restaurant Info</text>
  <text x="16" y="100" font-size="12" fill="#94A3B8">Menu Builder</text>
  <text x="16" y="128" font-size="12" fill="#94A3B8">Taxes</text>
  <text x="16" y="156" font-size="12" fill="#94A3B8">Employees</text>
  <text x="16" y="184" font-size="12" fill="#94A3B8">Equipment</text>
  <text x="16" y="212" font-size="12" fill="#94A3B8">Payments</text>
  <text x="16" y="240" font-size="12" fill="#94A3B8">Inventory</text>
  <text x="16" y="268" font-size="12" fill="#94A3B8">Reports</text>
  <text x="16" y="296" font-size="12" fill="#94A3B8">Integrations</text>
  <text x="16" y="324" font-size="12" fill="#94A3B8">Floor Plans</text>
  <text x="16" y="352" font-size="12" fill="#94A3B8">Training Mode</text>
  <!-- Active: Forms -->
  <rect x="0" y="364" width="200" height="36" fill="#1E2235" rx="4"/>
  <rect x="0" y="364" width="3" height="36" fill="#F59E0B"/>
  <text x="16" y="387" font-size="12" font-weight="600" fill="#F59E0B">Forms</text>
  <text x="16" y="416" font-size="12" fill="#94A3B8">Multi-Location</text>
  <text x="16" y="444" font-size="12" fill="#94A3B8">Franchise</text>

  <!-- ==========================================================
       HEADER
       DB: pos_forms_templates
       ========================================================== -->
  <rect x="200" y="0" width="1166" height="56" fill="#1A1D2E"/>
  <text x="220" y="24" font-size="18" font-weight="700" fill="#E2E8F0">Form Generator</text>
  <text x="220" y="44" font-size="11" fill="#94A3B8">12 operational forms: cash count, void auth, tax-exempt cert, catering BEO, etc. -- DB: pos_forms_templates</text>
  <use xlink:href="#gearIcon" x="680" y="14" width="16" height="16"/>

  <!-- Tab: Forms Library (active) -->
  <rect x="920" y="10" width="130" height="36" rx="6" fill="url(#amberGrad)"/>
  <text x="985" y="33" font-size="12" font-weight="700" fill="#0C0E1A" text-anchor="middle">Forms Library</text>
  <!-- Tab: Custom Forms -->
  <rect x="1060" y="10" width="120" height="36" rx="6" fill="#1A1D2E" stroke="#2A2E45" stroke-width="1"/>
  <text x="1120" y="33" font-size="12" fill="#94A3B8" text-anchor="middle">Custom Forms</text>
  <use xlink:href="#saveBtn" x="1200" y="10" width="140" height="36"/>
  <line x1="200" y1="56" x2="1366" y2="56" stroke="#2A2E45" stroke-width="1"/>

  <!-- ==========================================================
       LEFT PANEL — Forms Library (12 forms)
       x=200, w=380
       DB: pos_forms_templates
       ========================================================== -->
  <rect x="200" y="56" width="380" height="968" fill="#161930"/>
  <line x1="580" y1="56" x2="580" y2="1024" stroke="#2A2E45" stroke-width="1"/>

  <text x="216" y="80" font-size="12" font-weight="700" fill="#E2E8F0">Forms Library</text>
  <text x="552" y="80" font-size="10" fill="#64748B" text-anchor="end">12 forms</text>

  <!-- Search bar -->
  <rect x="212" y="88" width="356" height="30" rx="7" fill="#0C0E1A" stroke="#2A2E45" stroke-width="1"/>
  <text x="230" y="108" font-size="11" fill="#64748B">Search forms...</text>

  <!-- Form Card 1: Cash Count Sheet (selected) — DB: pos_forms_templates.id = form_cash_count -->
  <rect x="212" y="124" width="356" height="58" rx="6" fill="#1E2235" stroke="#F59E0B" stroke-width="1.5"/>
  <rect x="212" y="124" width="3" height="58" rx="2" fill="#F59E0B"/>
  <text x="228" y="144" font-size="11" font-weight="600" fill="#E2E8F0">Cash Count Sheet</text>
  <text x="228" y="158" font-size="9" fill="#94A3B8">End-of-day denomination tally with variance</text>
  <use xlink:href="#gearIcon" x="228" y="164" width="10" height="10"/>
  <use xlink:href="#printBtn" x="444" y="130" width="50" height="22"/>
  <use xlink:href="#pdfBtn" x="500" y="130" width="50" height="22"/>

  <!-- Form Card 2: Void Authorization — DB: pos_forms_templates.id = form_void_auth -->
  <use xlink:href="#formCard" x="212" y="186" width="356" height="58"/>
  <text x="228" y="206" font-size="11" font-weight="600" fill="#E2E8F0">Void Authorization</text>
  <text x="228" y="220" font-size="9" fill="#94A3B8">Manager sign-off for voided transactions</text>
  <use xlink:href="#gearIcon" x="228" y="226" width="10" height="10"/>
  <use xlink:href="#printBtn" x="444" y="192" width="50" height="22"/>
  <use xlink:href="#pdfBtn" x="500" y="192" width="50" height="22"/>

  <!-- Form Card 3: Tax-Exempt Certificate — DB: pos_forms_templates.id = form_tax_exempt -->
  <use xlink:href="#formCard" x="212" y="248" width="356" height="58"/>
  <text x="228" y="268" font-size="11" font-weight="600" fill="#E2E8F0">Tax-Exempt Certificate</text>
  <text x="228" y="282" font-size="9" fill="#94A3B8">Sales tax exemption (IRS 501(c)/state cert)</text>
  <use xlink:href="#gearIcon" x="228" y="288" width="10" height="10"/>
  <use xlink:href="#printBtn" x="444" y="254" width="50" height="22"/>
  <use xlink:href="#pdfBtn" x="500" y="254" width="50" height="22"/>

  <!-- Form Card 4: Catering Order Form — DB: pos_forms_templates.id = form_catering -->
  <use xlink:href="#formCard" x="212" y="310" width="356" height="58"/>
  <text x="228" y="330" font-size="11" font-weight="600" fill="#E2E8F0">Catering Order / BEO</text>
  <text x="228" y="344" font-size="9" fill="#94A3B8">Multi-page proposal with deposit, menu, timeline</text>
  <use xlink:href="#gearIcon" x="228" y="350" width="10" height="10"/>
  <use xlink:href="#printBtn" x="444" y="316" width="50" height="22"/>
  <use xlink:href="#pdfBtn" x="500" y="316" width="50" height="22"/>

  <!-- Form Card 5: Server Tip Declaration — DB: pos_forms_templates.id = form_tip_decl -->
  <use xlink:href="#formCard" x="212" y="372" width="356" height="58"/>
  <text x="228" y="392" font-size="11" font-weight="600" fill="#E2E8F0">Server Tip Declaration</text>
  <text x="228" y="406" font-size="9" fill="#94A3B8">Daily tip report for payroll/IRS compliance</text>
  <use xlink:href="#gearIcon" x="228" y="412" width="10" height="10"/>
  <use xlink:href="#printBtn" x="444" y="378" width="50" height="22"/>
  <use xlink:invoke="#pdfBtn" x="500" y="378" width="50" height="22"/>

  <!-- Form Card 6: Inventory Count Sheet — DB: pos_forms_templates.id = form_inv_count -->
  <use xlink:href="#formCard" x="212" y="434" width="356" height="58"/>
  <text x="228" y="454" font-size="11" font-weight="600" fill="#E2E8F0">Inventory Count Sheet</text>
  <text x="228" y="468" font-size="9" fill="#94A3B8">Current stock list with on-hand count fields</text>
  <use xlink:href="#gearIcon" x="228" y="474" width="10" height="10"/>
  <use xlink:href="#printBtn" x="444" y="440" width="50" height="22"/>
  <use xlink:href="#pdfBtn" x="500" y="440" width="50" height="22"/>

  <!-- Form Card 7: Time-Off Request — DB: pos_forms_templates.id = form_time_off -->
  <use xlink:href="#formCard" x="212" y="496" width="356" height="58"/>
  <text x="228" y="516" font-size="11" font-weight="600" fill="#E2E8F0">Time-Off Request</text>
  <text x="228" y="530" font-size="9" fill="#94A3B8">Employee leave with manager approval</text>
  <use xlink:href="#gearIcon" x="228" y="536" width="10" height="10"/>
  <use xlink:href="#printBtn" x="444" y="502" width="50" height="22"/>
  <use xlink:href="#pdfBtn" x="500" y="502" width="50" height="22"/>

  <!-- Form Card 8: Purchase Order — DB: pos_forms_templates.id = form_po -->
  <use xlink:href="#formCard" x="212" y="558" width="356" height="58"/>
  <text x="228" y="578" font-size="11" font-weight="600" fill="#E2E8F0">Purchase Order</text>
  <text x="228" y="592" font-size="9" fill="#94A3B8">Vendor PO with line items, costs, delivery</text>
  <use xlink:href="#gearIcon" x="228" y="598" width="10" height="10"/>
  <use xlink:href="#printBtn" x="444" y="564" width="50" height="22"/>
  <use xlink:href="#pdfBtn" x="500" y="564" width="50" height="22"/>

  <!-- Form Card 9: Incident/Waste Log — DB: pos_forms_templates.id = form_incident -->
  <use xlink:href="#formCard" x="212" y="620" width="356" height="58"/>
  <text x="228" y="640" font-size="11" font-weight="600" fill="#E2E8F0">Incident / Waste Log</text>
  <text x="228" y="654" font-size="9" fill="#94A3B8">Food waste, accidents, near-misses, root cause</text>
  <use xlink:href="#gearIcon" x="228" y="660" width="10" height="10"/>
  <use xlink:href="#printBtn" x="444" y="626" width="50" height="22"/>
  <use xlink:href="#pdfBtn" x="500" y="626" width="50" height="22"/>

  <!-- Form Card 10: Daily Specials Board — DB: pos_forms_templates.id = form_specials -->
  <use xlink:href="#formCard" x="212" y="682" width="356" height="58"/>
  <text x="228" y="702" font-size="11" font-weight="600" fill="#E2E8F0">Daily Specials Board</text>
  <text x="228" y="716" font-size="9" fill="#94A3B8">Server-facing specials, allergens, 86's</text>
  <use xlink:href="#gearIcon" x="228" y="722" width="10" height="10"/>
  <use xlink:href="#printBtn" x="444" y="688" width="50" height="22"/>
  <use xlink:href="#pdfBtn" x="500" y="688" width="50" height="22"/>

  <!-- Form Card 11: Prep List — DB: pos_forms_templates.id = form_prep -->
  <use xlink:href="#formCard" x="212" y="744" width="356" height="58"/>
  <text x="228" y="764" font-size="11" font-weight="600" fill="#E2E8F0">Prep List</text>
  <text x="228" y="778" font-size="9" fill="#94A3B8">Kitchen opening/closing prep tasks by station</text>
  <use xlink:href="#gearIcon" x="228" y="784" width="10" height="10"/>
  <use xlink:href="#printBtn" x="444" y="750" width="50" height="22"/>
  <use xlink:href="#pdfBtn" x="500" y="750" width="50" height="22"/>

  <!-- Form Card 12: Server Checkout — DB: pos_forms_templates.id = form_checkout -->
  <use xlink:href="#formCard" x="212" y="806" width="356" height="58"/>
  <text x="228" y="826" font-size="11" font-weight="600" fill="#E2E8F0">Server Checkout</text>
  <text x="228" y="840" font-size="9" fill="#94A3B8">End-of-shift cash turn-in reconciliation</text>
  <use xlink:href="#gearIcon" x="228" y="846" width="10" height="10"/>
  <use xlink:href="#printBtn" x="444" y="812" width="50" height="22"/>
  <use xlink:href="#pdfBtn" x="500" y="812" width="50" height="22"/>

  <!-- ==========================================================
       CENTER PANEL — Form Preview (receipt paper)
       x=580, w=430
       DB: pos_forms_templates.template_body (selected: Cash Count Sheet)
       ========================================================== -->
  <rect x="580" y="56" width="430" height="968" fill="#0C0E1A"/>
  <line x1="1010" y1="56" x2="1010" y2="1024" stroke="#2A2E45" stroke-width="1"/>

  <!-- Center header bar -->
  <rect x="580" y="56" width="430" height="46" fill="#1A1D2E"/>
  <line x1="580" y1="102" x2="1010" y2="102" stroke="#2A2E45" stroke-width="1"/>
  <text x="596" y="84" font-size="13" font-weight="700" fill="#E2E8F0">Cash Count Sheet</text>
  <use xlink:href="#gearIcon" x="720" y="72" width="12" height="12"/>
  <!-- Print -->
  <rect x="760" y="66" width="66" height="28" rx="6" fill="url(#amberGrad)"/>
  <text x="793" y="84" font-size="10" font-weight="700" fill="#0C0E1A" text-anchor="middle">Print</text>
  <!-- Export PDF -->
  <rect x="832" y="66" width="80" height="28" rx="6" fill="#1A1D2E" stroke="#2A2E45" stroke-width="1"/>
  <text x="872" y="84" font-size="10" fill="#94A3B8" text-anchor="middle">Export PDF</text>
  <!-- Customize -->
  <rect x="918" y="66" width="80" height="28" rx="6" fill="#8B5CF6"/>
  <text x="958" y="84" font-size="10" font-weight="600" fill="#FFF" text-anchor="middle">Customize</text>

  <!-- Receipt paper body — white area -->
  <rect x="620" y="112" width="350" height="720" rx="2" fill="#FAFAFA" filter="url(#paperShadow)"/>

  <!-- Tear edge top -->
  <path d="M620,112 Q626,108 632,112 Q638,108 644,112 Q650,108 656,112 Q662,108 668,112 Q674,108 680,112 Q686,108 692,112 Q698,108 704,112 Q710,108 716,112 Q722,108 728,112 Q734,108 740,112 Q746,108 752,112 Q758,108 764,112 Q770,108 776,112 Q782,108 788,112 Q794,108 800,112 Q806,108 812,112 Q818,108 824,112 Q830,108 836,112 Q842,108 848,112 Q854,108 860,112 Q866,108 872,112 Q878,108 884,112 Q890,108 896,112 Q902,108 908,112 Q914,108 920,112 Q926,108 932,112 Q938,108 944,112 Q950,108 956,112 Q962,108 968,112 L970,112" fill="none" stroke="#E2E8F0" stroke-width="1"/>

  <!-- Business name — DB: pos_config.business_name -->
  <text x="795" y="140" font-size="12" font-weight="700" fill="#1E293B" text-anchor="middle">THE BISTRO</text>
  <text x="795" y="155" font-size="9" fill="#64748B" text-anchor="middle">123 Main St -- (555) 867-5309</text>

  <!-- Title -->
  <text x="795" y="184" font-size="13" font-weight="800" fill="#0F172A" text-anchor="middle" letter-spacing="2">CASH COUNT SHEET</text>
  <line x1="640" y1="190" x2="950" y2="190" stroke="#CBD5E1" stroke-width="1.5"/>

  <!-- Date/Shift -->
  <text x="644" y="210" font-size="10" fill="#334155">Date:</text>
  <use xlink:href="#inputLine" x="672" y="212" width="90" height="2"/>
  <text x="772" y="210" font-size="10" fill="#334155">Shift:</text>
  <circle cx="810" cy="208" r="8" fill="none" stroke="#334155" stroke-width="1"/>
  <text x="810" y="212" font-size="7" fill="#334155" text-anchor="middle">AM</text>
  <circle cx="830" cy="208" r="8" fill="none" stroke="#334155" stroke-width="1"/>
  <text x="830" y="212" font-size="7" fill="#334155" text-anchor="middle">PM</text>

  <!-- Cashier/Manager -->
  <text x="644" y="232" font-size="10" fill="#334155">Cashier:</text>
  <use xlink:href="#inputLine" x="690" y="234" width="120" height="2"/>
  <text x="820" y="232" font-size="10" fill="#334155">Manager:</text>
  <use xlink:href="#inputLine" x="870" y="234" width="80" height="2"/>
  <line x1="640" y1="244" x2="950" y2="244" stroke="#CBD5E1" stroke-width="1"/>

  <!-- BILLS section -->
  <text x="644" y="258" font-size="9" font-weight="700" fill="#64748B" letter-spacing="1">BILLS</text>
  <!-- Bill denomination rows (reuses inputLine) -->
  <text x="644" y="274" font-size="10" fill="#1E293B">$100 x</text>
  <use xlink:href="#inputLine" x="682" y="276" width="50" height="2"/>
  <text x="738" y="274" font-size="10" fill="#334155">= $</text>
  <use xlink:href="#inputLine" x="756" y="276" width="50" height="2"/>

  <text x="644" y="290" font-size="10" fill="#1E293B">$50 x</text>
  <use xlink:href="#inputLine" x="682" y="292" width="50" height="2"/>
  <text x="738" y="290" font-size="10" fill="#334155">= $</text>
  <use xlink:href="#inputLine" x="756" y="292" width="50" height="2"/>

  <text x="644" y="306" font-size="10" fill="#1E293B">$20 x</text>
  <use xlink:href="#inputLine" x="682" y="308" width="50" height="2"/>
  <text x="738" y="306" font-size="10" fill="#334155">= $</text>
  <use xlink:href="#inputLine" x="756" y="308" width="50" height="2"/>

  <text x="644" y="322" font-size="10" fill="#1E293B">$10 x</text>
  <use xlink:href="#inputLine" x="682" y="324" width="50" height="2"/>
  <text x="738" y="322" font-size="10" fill="#334155">= $</text>
  <use xlink:href="#inputLine" x="756" y="324" width="50" height="2"/>

  <text x="644" y="338" font-size="10" fill="#1E293B">$5 x</text>
  <use xlink:href="#inputLine" x="682" y="340" width="50" height="2"/>
  <text x="738" y="338" font-size="10" fill="#334155">= $</text>
  <use xlink:href="#inputLine" x="756" y="340" width="50" height="2"/>

  <text x="644" y="354" font-size="10" fill="#1E293B">$1 x</text>
  <use xlink:href="#inputLine" x="682" y="356" width="50" height="2"/>
  <text x="738" y="354" font-size="10" fill="#334155">= $</text>
  <use xlink:href="#inputLine" x="756" y="356" width="50" height="2"/>

  <!-- Bills subtotal -->
  <rect x="640" y="362" width="200" height="16" fill="#E2E8F0"/>
  <text x="644" y="374" font-size="10" font-weight="700" fill="#0F172A">Bills Subtotal: $</text>
  <use xlink:href="#inputLine" x="750" y="376" width="60" height="2"/>

  <!-- COINS section -->
  <line x1="640" y1="384" x2="950" y2="384" stroke="#CBD5E1" stroke-width="1"/>
  <text x="644" y="398" font-size="9" font-weight="700" fill="#64748B" letter-spacing="1">COINS</text>

  <text x="644" y="414" font-size="10" fill="#1E293B">Quarters x</text>
  <use xlink:href="#inputLine" x="710" y="416" width="40" height="2"/>
  <text x="756" y="414" font-size="10" fill="#334155">= $</text>
  <use xlink:href="#inputLine" x="774" y="416" width="50" height="2"/>

  <text x="644" y="430" font-size="10" fill="#1E293B">Dimes x</text>
  <use xlink:href="#inputLine" x="710" y="432" width="40" height="2"/>
  <text x="756" y="430" font-size="10" fill="#334155">= $</text>
  <use xlink:href="#inputLine" x="774" y="432" width="50" height="2"/>

  <text x="644" y="446" font-size="10" fill="#1E293B">Nickels x</text>
  <use xlink:href="#inputLine" x="710" y="448" width="40" height="2"/>
  <text x="756" y="446" font-size="10" fill="#334155">= $</text>
  <use xlink:href="#inputLine" x="774" y="448" width="50" height="2"/>

  <text x="644" y="462" font-size="10" fill="#1E293B">Pennies x</text>
  <use xlink:href="#inputLine" x="710" y="464" width="40" height="2"/>
  <text x="756" y="462" font-size="10" fill="#334155">= $</text>
  <use xlink:href="#inputLine" x="774" y="464" width="50" height="2"/>

  <!-- Coins subtotal -->
  <rect x="640" y="470" width="200" height="16" fill="#E2E8F0"/>
  <text x="644" y="482" font-size="10" font-weight="700" fill="#0F172A">Coins Subtotal: $</text>
  <use xlink:href="#inputLine" x="760" y="484" width="60" height="2"/>

  <!-- TOTAL / VARIANCE -->
  <line x1="640" y1="494" x2="950" y2="494" stroke="#334155" stroke-width="1.5"/>
  <rect x="640" y="498" width="310" height="20" fill="#EFF6FF"/>
  <text x="644" y="512" font-size="11" font-weight="800" fill="#0F172A">TOTAL COUNTED: $</text>
  <use xlink:href="#inputLine" x="780" y="514" width="80" height="2"/>

  <text x="644" y="532" font-size="10" fill="#334155">Expected Float: $</text>
  <use xlink:href="#inputLine" x="746" y="534" width="80" height="2"/>

  <rect x="640" y="538" width="310" height="20" fill="#FEF3C7"/>
  <text x="644" y="552" font-size="11" font-weight="800" fill="#92400E">VARIANCE (+/-): $</text>
  <use xlink:href="#inputLine" x="780" y="554" width="80" height="2"/>

  <!-- Signatures -->
  <line x1="640" y1="570" x2="950" y2="570" stroke="#CBD5E1" stroke-width="1"/>
  <text x="644" y="586" font-size="10" fill="#334155">Cashier Signature:</text>
  <line x1="740" y1="588" x2="860" y2="588" stroke="#334155" stroke-width="0.8"/>
  <text x="644" y="606" font-size="10" fill="#334155">Manager Signature:</text>
  <line x1="740" y1="608" x2="860" y2="608" stroke="#334155" stroke-width="0.8"/>

  <!-- Footer -->
  <text x="795" y="630" font-size="7" fill="#94A3B8" text-anchor="middle">Synalux POS -- pos_forms_templates -- v2.1</text>

  <!-- Tear edge bottom -->
  <path d="M620,832 Q626,836 632,832 Q638,836 644,832 Q650,836 656,832 Q662,836 668,832 Q674,836 680,832 Q686,836 692,832 Q698,836 704,832 Q710,836 716,832 Q722,836 728,832 Q734,836 740,832 Q746,836 752,832 Q758,836 764,832 Q770,836 776,832 Q782,836 788,832 Q794,836 800,832 Q806,836 812,832 Q818,836 824,832 Q830,836 836,832 Q842,836 848,832 Q854,836 860,832 Q866,836 872,832 Q878,836 884,832 Q890,836 896,832 Q902,836 908,832 Q914,836 920,832 Q926,836 932,832 Q938,836 944,832 Q950,836 956,832 Q962,836 968,832 L970,832" fill="none" stroke="#E2E8F0" stroke-width="1"/>

  <!-- ==========================================================
       RIGHT PANEL — Customize Form Settings
       x=1010, w=356
       DB: pos_forms_templates.config JSONB
       ========================================================== -->
  <rect x="1010" y="56" width="356" height="968" fill="#161930"/>

  <!-- Panel header -->
  <rect x="1010" y="56" width="356" height="46" fill="#1A1D2E"/>
  <line x1="1010" y1="102" x2="1366" y2="102" stroke="#2A2E45" stroke-width="1"/>
  <text x="1026" y="84" font-size="13" font-weight="700" fill="#E2E8F0">Customize Form</text>
  <use xlink:href="#gearIcon" x="1130" y="72" width="12" height="12"/>
  <text x="1346" y="84" font-size="10" fill="#64748B" text-anchor="end">Cash Count Sheet</text>

  <!-- PRINT OPTIONS — DB: pos_forms_templates.config.print_options -->
  <text x="1026" y="122" font-size="10" font-weight="700" fill="#64748B" letter-spacing="1">PRINT OPTIONS</text>

  <!-- Printer dropdown — DB: pos_printer_config -->
  <text x="1026" y="142" font-size="11" fill="#94A3B8">Printer</text>
  <use xlink:href="#gearIcon" x="1070" y="132" width="10" height="10"/>
  <rect x="1026" y="148" width="320" height="30" rx="6" fill="#0C0E1A" stroke="#2A2E45" stroke-width="1"/>
  <text x="1038" y="168" font-size="10" fill="#E2E8F0">Receipt Printer (Star TSP143IV)</text>
  <use xlink:href="#dropdown" x="1332" y="159" width="12" height="8"/>

  <!-- Copies — DB: pos_forms_templates.config.copies -->
  <text x="1026" y="196" font-size="11" fill="#94A3B8">Copies</text>
  <use xlink:href="#gearIcon" x="1068" y="186" width="10" height="10"/>
  <rect x="1026" y="202" width="320" height="30" rx="6" fill="#0C0E1A" stroke="#2A2E45" stroke-width="1"/>
  <rect x="1034" y="208" width="22" height="18" rx="4" fill="#1A1D2E" stroke="#2A2E45" stroke-width="1"/>
  <text x="1045" y="221" font-size="12" fill="#F59E0B" text-anchor="middle">-</text>
  <text x="1086" y="221" font-size="12" font-weight="700" fill="#E2E8F0" text-anchor="middle">1</text>
  <rect x="1112" y="208" width="22" height="18" rx="4" fill="#1A1D2E" stroke="#2A2E45" stroke-width="1"/>
  <text x="1123" y="221" font-size="12" fill="#F59E0B" text-anchor="middle">+</text>

  <!-- Auto-print trigger — DB: pos_forms_templates.config.auto_trigger -->
  <text x="1026" y="250" font-size="11" fill="#94A3B8">Auto-print trigger</text>
  <use xlink:href="#gearIcon" x="1128" y="240" width="10" height="10"/>
  <rect x="1026" y="256" width="320" height="30" rx="6" fill="#0C0E1A" stroke="#2A2E45" stroke-width="1"/>
  <text x="1038" y="276" font-size="10" fill="#E2E8F0">Manual only</text>
  <use xlink:href="#dropdown" x="1332" y="267" width="12" height="8"/>

  <!-- FORM FIELDS — DB: pos_forms_templates.config.fields JSONB -->
  <line x1="1010" y1="296" x2="1366" y2="296" stroke="#2A2E45" stroke-width="1"/>
  <text x="1026" y="316" font-size="10" font-weight="700" fill="#64748B" letter-spacing="1">FORM FIELDS</text>

  <!-- Show logo — DB: pos_forms_templates.config.fields.show_logo -->
  <text x="1026" y="338" font-size="11" fill="#E2E8F0">Show logo</text>
  <use xlink:href="#toggleOn" x="1300" y="326" width="38" height="20"/>
  <use xlink:href="#gearIcon" x="1280" y="330" width="10" height="10"/>

  <!-- Manager sig — DB: pos_forms_templates.config.fields.manager_sig -->
  <text x="1026" y="362" font-size="11" fill="#E2E8F0">Show manager signature line</text>
  <use xlink:href="#toggleOn" x="1300" y="350" width="38" height="20"/>
  <use xlink:invoke="#gearIcon" x="1280" y="354" width="10" height="10"/>

  <!-- Cashier sig — DB: pos_forms_templates.config.fields.cashier_sig -->
  <text x="1026" y="386" font-size="11" fill="#E2E8F0">Show cashier signature line</text>
  <use xlink:href="#toggleOn" x="1300" y="374" width="38" height="20"/>
  <use xlink:href="#gearIcon" x="1280" y="378" width="10" height="10"/>

  <!-- Barcode/QR — DB: pos_forms_templates.config.fields.include_qr -->
  <text x="1026" y="410" font-size="11" fill="#E2E8F0">Include barcode / QR code</text>
  <text x="1026" y="424" font-size="9" fill="#64748B">Scans to digital version</text>
  <use xlink:href="#toggleOn" x="1300" y="398" width="38" height="20"/>
  <use xlink:href="#gearIcon" x="1280" y="402" width="10" height="10"/>

  <!-- Auto-fill date — DB: pos_forms_templates.config.fields.auto_date -->
  <text x="1026" y="448" font-size="11" fill="#E2E8F0">Auto-fill date / time</text>
  <use xlink:href="#toggleOn" x="1300" y="436" width="38" height="20"/>
  <use xlink:href="#gearIcon" x="1280" y="440" width="10" height="10"/>

  <!-- Pre-fill float — DB: pos_config.expected_float_cents -->
  <text x="1026" y="472" font-size="11" fill="#E2E8F0">Pre-fill expected float</text>
  <text x="1026" y="486" font-size="9" fill="#64748B">from pos_config.expected_float_cents</text>
  <use xlink:href="#toggleOn" x="1300" y="460" width="38" height="20"/>
  <use xlink:href="#gearIcon" x="1280" y="464" width="10" height="10"/>

  <!-- Custom header — OFF -->
  <line x1="1010" y1="500" x2="1366" y2="500" stroke="#2A2E45" stroke-width="1"/>
  <text x="1026" y="520" font-size="11" fill="#94A3B8">Custom Header text</text>
  <text x="1026" y="534" font-size="9" fill="#64748B">Add custom text above form</text>
  <use xlink:href="#toggleOff" x="1300" y="508" width="38" height="20"/>
  <use xlink:href="#gearIcon" x="1280" y="512" width="10" height="10"/>

  <!-- Language — DB: pos_forms_templates.config.language -->
  <line x1="1010" y1="548" x2="1366" y2="548" stroke="#2A2E45" stroke-width="1"/>
  <text x="1026" y="568" font-size="11" fill="#94A3B8">Language</text>
  <use xlink:href="#gearIcon" x="1076" y="558" width="10" height="10"/>
  <rect x="1026" y="574" width="320" height="30" rx="6" fill="#0C0E1A" stroke="#2A2E45" stroke-width="1"/>
  <text x="1038" y="594" font-size="10" fill="#E2E8F0">English</text>
  <use xlink:href="#dropdown" x="1332" y="585" width="12" height="8"/>
  <rect x="1200" y="580" width="56" height="18" rx="9" fill="#1A1D2E" stroke="#8B5CF6" stroke-width="1"/>
  <text x="1228" y="593" font-size="8" fill="#8B5CF6" text-anchor="middle">Bilingual</text>

  <!-- Save Settings button -->
  <use xlink:href="#saveBtn" x="1026" y="616" width="320" height="36"/>

  <!-- CUSTOM FORMS section -->
  <line x1="1010" y1="662" x2="1366" y2="662" stroke="#2A2E45" stroke-width="1"/>
  <text x="1026" y="682" font-size="10" font-weight="700" fill="#64748B" letter-spacing="1">CUSTOM FORMS</text>

  <rect x="1026" y="690" width="150" height="30" rx="6" fill="#8B5CF6"/>
  <text x="1101" y="710" font-size="10" font-weight="600" fill="#FFF" text-anchor="middle">+ Create Custom Form</text>

  <rect x="1186" y="690" width="152" height="30" rx="6" fill="#1A1D2E" stroke="#2A2E45" stroke-width="1"/>
  <text x="1262" y="710" font-size="10" fill="#94A3B8" text-anchor="middle">Import (.json)</text>

  <!-- Handlebars template note -->
  <rect x="1026" y="730" width="320" height="56" rx="6" fill="#1A1D2E" stroke="#2A2E45" stroke-width="1"/>
  <text x="1038" y="746" font-size="9" fill="#64748B">Custom forms use Handlebars templates with POS tokens:</text>
  <text x="1038" y="760" font-size="9" fill="#8B5CF6">{{business_name}} {{date}} {{cashier_name}}</text>
  <text x="1038" y="774" font-size="9" fill="#8B5CF6">{{expected_float}} {{shift}} ...</text>

  <!-- WORKFLOW INTEGRATION — DB schema refs -->
  <rect x="1026" y="798" width="320" height="120" rx="7" fill="#1A1D2E" stroke="#F59E0B" stroke-width="1.5"/>
  <text x="1038" y="814" font-size="9" font-weight="700" fill="#F59E0B">WORKFLOW INTEGRATION</text>
  <line x1="1026" y1="820" x2="1346" y2="820" stroke="#F59E0B" stroke-width="0.5" opacity="0.4"/>
  <circle cx="1038" cy="834" r="2.5" fill="#F59E0B"/>
  <text x="1048" y="838" font-size="9" fill="#94A3B8">Forms auto-populate from pos_config +</text>
  <text x="1048" y="850" font-size="9" fill="#94A3B8">pos_employees + pos_cash_events</text>
  <circle cx="1038" cy="862" r="2.5" fill="#F59E0B"/>
  <text x="1048" y="866" font-size="9" fill="#94A3B8">Print via PrintBridge.swift (WKWebView native)</text>
  <circle cx="1038" cy="880" r="2.5" fill="#F59E0B"/>
  <text x="1048" y="884" font-size="9" fill="#94A3B8">PDF: /api/pos/forms/[form_type].pdf</text>
  <circle cx="1038" cy="898" r="2.5" fill="#F59E0B"/>
  <text x="1048" y="902" font-size="9" fill="#94A3B8">Templates: pos_forms_templates (customizable)</text>

  <!-- Footer -->
  <line x1="1010" y1="976" x2="1366" y2="976" stroke="#2A2E45" stroke-width="1"/>
  <text x="1188" y="996" font-size="9" fill="#2A2E45" text-anchor="middle">Synalux POS -- settings_forms</text>

</svg>