<svg role="img" aria-labelledby="title-settings_tax_exempt-svg" xmlns="http://www.w3.org/2000/svg" viewBox="0 0 1366 1024" font-family="-apple-system,system-ui,BlinkMacSystemFont,sans-serif">
  <title id="title-settings_tax_exempt-svg">Synalux POS — tax exempt</title>
  <desc>Synalux POS mockup screen for tax exempt. All UI elements admin-configurable.</desc>
  <defs>
    <!-- Background gradient for cards -->
    <linearGradient id="cardGrad" x1="0" y1="0" x2="0" y2="1">
      <stop offset="0%" stop-color="#1E2235"/>
      <stop offset="100%" stop-color="#1A1D2E"/>
    </linearGradient>
    <linearGradient id="amberGrad" x1="0" y1="0" x2="1" y2="1">
      <stop offset="0%" stop-color="#F59E0B"/>
      <stop offset="100%" stop-color="#D97706"/>
    </linearGradient>
    <linearGradient id="headerGrad" x1="0" y1="0" x2="0" y2="1">
      <stop offset="0%" stop-color="#1F2337"/>
      <stop offset="100%" stop-color="#1A1D2E"/>
    </linearGradient>

    <!-- Drop shadow filter -->
    <filter id="shadow" x="-4%" y="-4%" width="108%" height="116%">
      <feDropShadow dx="0" dy="2" stdDeviation="4" flood-color="#000" flood-opacity="0.3"/>
    </filter>
    <filter id="shadowSm" x="-2%" y="-2%" width="104%" height="112%">
      <feDropShadow dx="0" dy="1" stdDeviation="2" flood-color="#000" flood-opacity="0.2"/>
    </filter>

    <!-- Admin gear icon (reusable) -->
    <symbol id="gear" viewBox="0 0 16 16">
      <path d="M8 1l1.2.3.5 1.3.9-.6 1.2.7-.2 1.4 1.1.8-.6 1.2L13.4 7l.3 1.2-1.1.8.2 1.4-1.2.7-.9-.6-.5 1.3L8 12l-1.2-.3-.5-1.3-.9.6-1.2-.7.2-1.4-1.1-.8.6-1.2L2.6 7l-.3-1.2 1.1-.8-.2-1.4 1.2-.7.9.6.5-1.3z" fill="none" stroke="#F59E0B" stroke-width="1"/>
      <circle cx="8" cy="7" r="2" fill="none" stroke="#F59E0B" stroke-width="1"/>
    </symbol>

    <!-- Toggle ON symbol -->
    <symbol id="toggleOn" viewBox="0 0 44 22">
      <rect width="44" height="22" rx="11" fill="#22C55E"/>
      <circle cx="33" cy="11" r="8" fill="white"/>
    </symbol>

    <!-- Toggle OFF symbol -->
    <symbol id="toggleOff" viewBox="0 0 44 22">
      <rect width="44" height="22" rx="11" fill="#374151"/>
      <circle cx="11" cy="11" r="8" fill="white"/>
    </symbol>

    <!-- Status dot symbol -->
    <symbol id="dotActive" viewBox="0 0 10 10">
      <circle cx="5" cy="5" r="4" fill="#22C55E"/>
    </symbol>
    <symbol id="dotWarning" viewBox="0 0 10 10">
      <circle cx="5" cy="5" r="4" fill="#F59E0B"/>
    </symbol>
    <symbol id="dotError" viewBox="0 0 10 10">
      <circle cx="5" cy="5" r="4" fill="#EF4444"/>
    </symbol>

    <!-- Nav item row background -->
    <symbol id="navItem" viewBox="0 0 184 36">
      <rect width="184" height="36" rx="7" fill="#1E2235"/>
    </symbol>
    <symbol id="navItemActive" viewBox="0 0 184 36">
      <rect width="184" height="36" rx="7" fill="url(#amberGrad)"/>
    </symbol>

    <!-- Stat card -->
    <symbol id="statCard" viewBox="0 0 260 50">
      <rect width="260" height="50" rx="8" fill="#1A1D2E" filter="url(#shadowSm)"/>
    </symbol>

    <!-- Button primary -->
    <symbol id="btnPrimary" viewBox="0 0 274 32">
      <rect width="274" height="32" rx="7" fill="url(#amberGrad)"/>
    </symbol>

    <!-- Table row stripe -->
    <symbol id="rowEven" viewBox="0 0 543 22">
      <rect width="543" height="22" rx="3" fill="#0C0E1A"/>
    </symbol>
    <symbol id="rowOdd" viewBox="0 0 543 22">
      <rect width="543" height="22" rx="3" fill="#1A1D2E"/>
    </symbol>

    <!-- Step badge -->
    <symbol id="stepBadge" viewBox="0 0 18 18">
      <circle cx="9" cy="9" r="9" fill="url(#amberGrad)"/>
    </symbol>
  </defs>

  <!-- ===== CANVAS BACKGROUND ===== -->
  <rect width="1366" height="1024" fill="#0C0E1A"/>

  <!-- ===== TOP NAV BAR ===== -->
  <rect x="0" y="0" width="1366" height="54" fill="url(#headerGrad)"/>
  <rect x="0" y="54" width="1366" height="1" fill="#2A2E45"/>
  <text x="24" y="34" fill="#F59E0B" font-size="16" font-weight="700">Synalux POS</text>
  <text x="200" y="34" fill="#E2E8F0" font-size="16" font-weight="700">Back Office — Tax-Exempt Sales</text>
  <!-- DB: pos_users.role = 'admin' -->
  <text x="1342" y="34" fill="#94A3B8" font-size="13" text-anchor="end">Admin · John S.</text>

  <!-- ===== LEFT NAV SIDEBAR ===== -->
  <rect x="0" y="55" width="200" height="969" fill="#11142A"/>
  <rect x="200" y="55" width="1" height="969" fill="#2A2E45"/>
  <text x="100" y="90" fill="#64748B" font-size="10" font-weight="700" letter-spacing="1" text-anchor="middle">BACK OFFICE</text>

  <!-- Nav items using <use> -->
  <use href="#navItem" x="8" y="98" width="184" height="36"/>
  <text x="50" y="121" fill="#CBD5E1" font-size="13">Restaurant Info</text>
  <use href="#navItem" x="8" y="140" width="184" height="36"/>
  <text x="50" y="163" fill="#CBD5E1" font-size="13">Menu Builder</text>
  <!-- Active nav item -->
  <use href="#navItemActive" x="8" y="182" width="184" height="36"/>
  <text x="50" y="205" fill="#0C0E1A" font-size="13" font-weight="700">Taxes</text>
  <use href="#navItem" x="8" y="224" width="184" height="36"/>
  <text x="50" y="247" fill="#CBD5E1" font-size="13">Employees</text>
  <use href="#navItem" x="8" y="266" width="184" height="36"/>
  <text x="50" y="289" fill="#CBD5E1" font-size="13">Equipment</text>
  <use href="#navItem" x="8" y="308" width="184" height="36"/>
  <text x="50" y="331" fill="#CBD5E1" font-size="13">Reports</text>
  <use href="#navItem" x="8" y="350" width="184" height="36"/>
  <text x="50" y="373" fill="#CBD5E1" font-size="13">Loyalty</text>
  <use href="#navItem" x="8" y="392" width="184" height="36"/>
  <text x="50" y="415" fill="#CBD5E1" font-size="13">Integrations</text>

  <!-- Tax sub-nav -->
  <text x="16" y="458" fill="#64748B" font-size="10" font-weight="700" letter-spacing="1">TAX SETTINGS</text>
  <rect x="8" y="464" width="184" height="34" rx="6" fill="#1E2235"/>
  <text x="50" y="486" fill="#94A3B8" font-size="12">Tax Zones</text>
  <!-- Active sub-nav: Tax-Exempt Sales -->
  <rect x="8" y="504" width="184" height="34" rx="6" fill="#2D1F00"/>
  <rect x="8" y="504" width="3" height="34" rx="2" fill="#F59E0B"/>
  <text x="50" y="526" fill="#F59E0B" font-size="12" font-weight="600">Tax-Exempt Sales</text>
  <rect x="8" y="544" width="184" height="34" rx="6" fill="#1E2235"/>
  <text x="50" y="566" fill="#94A3B8" font-size="12">Tax Reports</text>

  <!-- ===== PAGE HEADER ===== -->
  <rect x="210" y="55" width="1156" height="70" fill="url(#headerGrad)"/>
  <rect x="210" y="125" width="1156" height="1" fill="#2A2E45"/>
  <text x="228" y="90" fill="#E2E8F0" font-size="20" font-weight="700">Tax-Exempt Sales</text>
  <!-- DB: pos_tax_exempt_accounts -->
  <text x="228" y="112" fill="#64748B" font-size="13">Manage tax-exempt customers, nonprofits, government accounts, and catering orders</text>
  <!-- Admin gear for page-level settings -->
  <use href="#gear" x="1330" y="80" width="16" height="16"/>

  <!-- ===== STATS BAR ===== -->
  <!-- DB: aggregated from pos_tax_exempt_events + pos_tax_exempt_accounts -->
  <rect x="210" y="126" width="1156" height="72" fill="#11142A"/>
  <rect x="210" y="198" width="1156" height="1" fill="#2A2E45"/>

  <!-- Stat 1: Transactions this month -->
  <use href="#statCard" x="224" y="136" width="260" height="50"/>
  <text x="244" y="157" fill="#64748B" font-size="11" font-weight="600">TAX-EXEMPT TRANSACTIONS</text>
  <!-- DB: COUNT(*) FROM pos_tax_exempt_events WHERE created_at >= month_start -->
  <text x="244" y="177" fill="#E2E8F0" font-size="18" font-weight="700">47</text>
  <text x="294" y="177" fill="#64748B" font-size="11">this month</text>

  <!-- Stat 2: Tax waived -->
  <use href="#statCard" x="500" y="136" width="230" height="50"/>
  <text x="520" y="157" fill="#64748B" font-size="11" font-weight="600">TAX WAIVED</text>
  <!-- DB: SUM(tax_waived_cents) FROM pos_payments WHERE tax_exempt_account_id IS NOT NULL -->
  <text x="520" y="177" fill="#22C55E" font-size="18" font-weight="700">$892.40</text>
  <text x="614" y="177" fill="#64748B" font-size="11">this month</text>

  <!-- Stat 3: Accounts on file -->
  <use href="#statCard" x="746" y="136" width="230" height="50"/>
  <text x="766" y="157" fill="#64748B" font-size="11" font-weight="600">EXEMPT ACCOUNTS ON FILE</text>
  <!-- DB: COUNT(*) FROM pos_tax_exempt_accounts WHERE status = 'active' -->
  <text x="766" y="177" fill="#E2E8F0" font-size="18" font-weight="700">12</text>
  <text x="798" y="177" fill="#64748B" font-size="11">accounts</text>

  <!-- Stat 4: Pending cert renewal (amber alert) -->
  <rect x="992" y="136" width="256" height="50" rx="8" fill="#2D1A00" filter="url(#shadowSm)"/>
  <rect x="992" y="136" width="256" height="50" rx="8" fill="none" stroke="#F59E0B" stroke-width="1" opacity="0.5"/>
  <text x="1012" y="157" fill="#F59E0B" font-size="11" font-weight="600">PENDING CERT RENEWAL</text>
  <!-- DB: COUNT(*) FROM pos_tax_exempt_accounts WHERE cert_expires_at < NOW() + '60 days' -->
  <text x="1012" y="177" fill="#F59E0B" font-size="18" font-weight="700">2</text>
  <text x="1038" y="177" fill="#F59E0B" font-size="11">expiring soon</text>

  <!-- ===== THREE-PANEL LAYOUT ===== -->

  <!-- ===== LEFT PANEL: Account List ===== -->
  <rect x="210" y="199" width="290" height="825" fill="#0C0E1A"/>
  <rect x="500" y="199" width="1" height="825" fill="#2A2E45"/>

  <!-- Search bar -->
  <rect x="218" y="208" width="274" height="32" rx="7" fill="#1A1D2E" filter="url(#shadowSm)"/>
  <rect x="218" y="208" width="274" height="32" rx="7" fill="none" stroke="#2A2E45" stroke-width="1"/>
  <text x="232" y="228" fill="#64748B" font-size="12">Search accounts...</text>

  <!-- Tabs -->
  <rect x="218" y="248" width="274" height="28" rx="6" fill="#11142A"/>
  <rect x="220" y="250" width="60" height="24" rx="5" fill="url(#amberGrad)"/>
  <text x="250" y="266" fill="#0C0E1A" font-size="10" font-weight="700" text-anchor="middle">All (12)</text>
  <text x="312" y="266" fill="#94A3B8" font-size="10" text-anchor="middle">Active (10)</text>
  <text x="373" y="266" fill="#94A3B8" font-size="10" text-anchor="middle">Expir (2)</text>
  <text x="436" y="266" fill="#94A3B8" font-size="10" text-anchor="middle">Exp'd</text>

  <!-- Card 1: City of New York (SELECTED) -->
  <!-- DB: pos_tax_exempt_accounts WHERE id = 'acct-001' -->
  <rect x="218" y="284" width="274" height="60" rx="7" fill="url(#cardGrad)" filter="url(#shadow)"/>
  <rect x="218" y="284" width="274" height="60" rx="7" fill="none" stroke="#F59E0B" stroke-width="1.5"/>
  <use href="#dotActive" x="225" y="294" width="10" height="10"/>
  <text x="241" y="302" fill="#E2E8F0" font-size="12" font-weight="600">City of New York</text>
  <rect x="350" y="290" width="60" height="16" rx="4" fill="#1D4ED8"/>
  <text x="380" y="302" fill="#BFDBFE" font-size="9" font-weight="600" text-anchor="middle">Government</text>
  <text x="241" y="320" fill="#64748B" font-size="10">Cert expires: Never</text>
  <text x="241" y="335" fill="#22C55E" font-size="9">Active — Full Exempt</text>

  <!-- Card 2: St. Mary's Church -->
  <!-- DB: pos_tax_exempt_accounts WHERE id = 'acct-002' -->
  <rect x="218" y="350" width="274" height="58" rx="7" fill="#1A1D2E"/>
  <use href="#dotActive" x="225" y="360" width="10" height="10"/>
  <text x="241" y="368" fill="#E2E8F0" font-size="12" font-weight="600">St. Mary's Church</text>
  <rect x="355" y="357" width="58" height="16" rx="4" fill="#4C1D95"/>
  <text x="384" y="369" fill="#DDD6FE" font-size="9" font-weight="600" text-anchor="middle">Nonprofit</text>
  <text x="241" y="386" fill="#64748B" font-size="10">Cert expires: Dec 31, 2026</text>
  <text x="241" y="400" fill="#22C55E" font-size="9">Active</text>

  <!-- Card 3: Sunrise Academy — EXPIRING -->
  <!-- DB: pos_tax_exempt_accounts WHERE id = 'acct-003' AND cert_expires_at < NOW() + '60d' -->
  <rect x="218" y="414" width="274" height="58" rx="7" fill="#1A1D2E"/>
  <rect x="218" y="414" width="274" height="58" rx="7" fill="none" stroke="#F59E0B" stroke-width="1" opacity="0.7"/>
  <use href="#dotWarning" x="225" y="424" width="10" height="10"/>
  <text x="241" y="432" fill="#E2E8F0" font-size="12" font-weight="600">Sunrise Academy</text>
  <rect x="351" y="421" width="58" height="16" rx="4" fill="#134E4A"/>
  <text x="380" y="433" fill="#99F6E4" font-size="9" font-weight="600" text-anchor="middle">Education</text>
  <text x="241" y="450" fill="#64748B" font-size="10">Cert expires: Jun 30, 2026</text>
  <rect x="241" y="456" width="56" height="12" rx="3" fill="#78350F"/>
  <text x="269" y="465" fill="#FDE68A" font-size="8" font-weight="700" text-anchor="middle">EXPIRING</text>

  <!-- Card 4: Metro Hospital -->
  <!-- DB: pos_tax_exempt_accounts WHERE id = 'acct-004' -->
  <rect x="218" y="478" width="274" height="58" rx="7" fill="#1A1D2E"/>
  <use href="#dotActive" x="225" y="488" width="10" height="10"/>
  <text x="241" y="496" fill="#E2E8F0" font-size="12" font-weight="600">Metro Hospital</text>
  <rect x="345" y="485" width="64" height="16" rx="4" fill="#881337"/>
  <text x="377" y="497" fill="#FECDD3" font-size="9" font-weight="600" text-anchor="middle">Healthcare</text>
  <text x="241" y="514" fill="#64748B" font-size="10">Cert expires: Mar 31, 2027</text>
  <text x="241" y="528" fill="#22C55E" font-size="9">Active</text>

  <!-- Card 5: US Federal Agency -->
  <!-- DB: pos_tax_exempt_accounts WHERE id = 'acct-005' -->
  <rect x="218" y="542" width="274" height="58" rx="7" fill="#1A1D2E"/>
  <use href="#dotActive" x="225" y="552" width="10" height="10"/>
  <text x="241" y="560" fill="#E2E8F0" font-size="12" font-weight="600">US Federal Agency</text>
  <rect x="355" y="549" width="50" height="16" rx="4" fill="#1E3A5F"/>
  <text x="380" y="561" fill="#BAE6FD" font-size="9" font-weight="600" text-anchor="middle">Federal</text>
  <text x="241" y="578" fill="#64748B" font-size="10">No expiry</text>
  <text x="241" y="592" fill="#22C55E" font-size="9">Active</text>

  <!-- Card 6: ABC Corp -->
  <!-- DB: pos_tax_exempt_accounts WHERE id = 'acct-006' -->
  <rect x="218" y="606" width="274" height="58" rx="7" fill="#1A1D2E"/>
  <use href="#dotActive" x="225" y="616" width="10" height="10"/>
  <text x="241" y="624" fill="#E2E8F0" font-size="12" font-weight="600">ABC Corp (Catering)</text>
  <rect x="380" y="613" width="56" height="16" rx="4" fill="#1F2937"/>
  <text x="408" y="625" fill="#94A3B8" font-size="9" font-weight="600" text-anchor="middle">Corporate</text>
  <text x="241" y="642" fill="#64748B" font-size="10">Cert expires: Aug 31, 2026</text>
  <text x="241" y="656" fill="#22C55E" font-size="9">Active</text>

  <!-- Card 7: Oakwood Nonprofit — EXPIRED -->
  <!-- DB: pos_tax_exempt_accounts WHERE id = 'acct-007' AND cert_expires_at < NOW() -->
  <rect x="218" y="670" width="274" height="58" rx="7" fill="#1A1D2E"/>
  <rect x="218" y="670" width="274" height="58" rx="7" fill="none" stroke="#EF4444" stroke-width="1" opacity="0.6"/>
  <use href="#dotError" x="225" y="680" width="10" height="10"/>
  <text x="241" y="688" fill="#E2E8F0" font-size="12" font-weight="600">Oakwood Nonprofit</text>
  <rect x="355" y="677" width="58" height="16" rx="4" fill="#4C1D95"/>
  <text x="384" y="689" fill="#DDD6FE" font-size="9" font-weight="600" text-anchor="middle">Nonprofit</text>
  <text x="241" y="706" fill="#64748B" font-size="10">Cert expires: Jan 15, 2026</text>
  <rect x="241" y="712" width="48" height="12" rx="3" fill="#7F1D1D"/>
  <text x="265" y="721" fill="#FECACA" font-size="8" font-weight="700" text-anchor="middle">EXPIRED</text>

  <!-- Card 8: Brooklyn Food Bank -->
  <!-- DB: pos_tax_exempt_accounts WHERE id = 'acct-008' -->
  <rect x="218" y="734" width="274" height="58" rx="7" fill="#1A1D2E"/>
  <use href="#dotActive" x="225" y="744" width="10" height="10"/>
  <text x="241" y="752" fill="#E2E8F0" font-size="12" font-weight="600">Brooklyn Food Bank</text>
  <rect x="363" y="741" width="58" height="16" rx="4" fill="#4C1D95"/>
  <text x="392" y="753" fill="#DDD6FE" font-size="9" font-weight="600" text-anchor="middle">Nonprofit</text>
  <text x="241" y="770" fill="#64748B" font-size="10">Cert expires: Dec 31, 2027</text>
  <text x="241" y="784" fill="#22C55E" font-size="9">Active</text>

  <!-- View All -->
  <text x="355" y="808" fill="#60A5FA" font-size="11" text-anchor="middle">View All 12 Accounts</text>

  <!-- Add Button -->
  <use href="#btnPrimary" x="218" y="816" width="274" height="32"/>
  <text x="355" y="836" fill="#0C0E1A" font-size="12" font-weight="700" text-anchor="middle">+ Add Exempt Account</text>

  <!-- ===== CENTER PANEL: Account Detail ===== -->
  <rect x="501" y="199" width="560" height="825" fill="#0C0E1A"/>
  <rect x="1061" y="199" width="1" height="825" fill="#2A2E45"/>

  <!-- Detail Card Header -->
  <!-- DB: pos_tax_exempt_accounts WHERE id = 'acct-001' -->
  <rect x="509" y="208" width="543" height="48" rx="7" fill="url(#cardGrad)" filter="url(#shadow)"/>
  <rect x="509" y="208" width="543" height="48" rx="7" fill="none" stroke="#2A2E45" stroke-width="1"/>
  <text x="523" y="228" fill="#E2E8F0" font-size="15" font-weight="700">City of New York</text>
  <rect x="670" y="213" width="72" height="18" rx="4" fill="#1D4ED8"/>
  <!-- DB: pos_tax_exempt_accounts.exemption_type -->
  <text x="706" y="226" fill="#BFDBFE" font-size="10" font-weight="600" text-anchor="middle">Government</text>
  <!-- DB: pos_tax_exempt_accounts.exemption_id -->
  <text x="523" y="247" fill="#64748B" font-size="11">Exemption ID: NY-GOV-2024-00847</text>
  <use href="#gear" x="930" y="218" width="14" height="14"/>
  <rect x="950" y="213" width="44" height="22" rx="5" fill="#1E2235"/>
  <text x="972" y="228" fill="#94A3B8" font-size="11" text-anchor="middle">Edit</text>
  <rect x="1000" y="213" width="44" height="22" rx="5" fill="#1A1D2E"/>
  <text x="1022" y="228" fill="#EF4444" font-size="11" text-anchor="middle">Delete</text>

  <!-- Section: Organization Details -->
  <!-- DB: pos_tax_exempt_accounts.gov_level -->
  <text x="517" y="272" fill="#64748B" font-size="9" font-weight="700" letter-spacing="1">ORGANIZATION DETAILS</text>

  <!-- Gov level selector (editable) -->
  <text x="517" y="291" fill="#94A3B8" font-size="11">Government Level:</text>
  <use href="#gear" x="605" y="282" width="12" height="12"/>
  <rect x="620" y="278" width="56" height="20" rx="4" fill="#1E2235"/>
  <text x="648" y="292" fill="#94A3B8" font-size="10" text-anchor="middle">Federal</text>
  <rect x="682" y="278" width="46" height="20" rx="4" fill="#1E2235"/>
  <text x="705" y="292" fill="#94A3B8" font-size="10" text-anchor="middle">State</text>
  <rect x="734" y="278" width="44" height="20" rx="4" fill="#1D4ED8"/>
  <text x="756" y="292" fill="#BFDBFE" font-size="10" font-weight="600" text-anchor="middle">Local</text>

  <!-- Certificate upload (editable) -->
  <!-- DB: pos_tax_exempt_accounts.certificate_url (Supabase Storage, bucket: tax-certificates) -->
  <text x="517" y="313" fill="#94A3B8" font-size="11">Certificate:</text>
  <use href="#gear" x="579" y="304" width="12" height="12"/>
  <rect x="595" y="300" width="248" height="26" rx="5" fill="#1A1D2E" stroke="#2A2E45" stroke-width="1"/>
  <text x="607" y="317" fill="#60A5FA" font-size="11">NYC_TaxExempt_2024.pdf</text>
  <rect x="849" y="302" width="38" height="22" rx="4" fill="#1E2235"/>
  <text x="868" y="317" fill="#94A3B8" font-size="10" text-anchor="middle">View</text>
  <rect x="893" y="302" width="52" height="22" rx="4" fill="#1E2235"/>
  <text x="919" y="317" fill="#94A3B8" font-size="10" text-anchor="middle">Replace</text>

  <!-- Section: Tax Exemption Scope -->
  <!-- DB: pos_tax_exempt_accounts.exempt_state_tax, pos_tax_exempt_accounts.exempt_city_tax -->
  <text x="517" y="344" fill="#64748B" font-size="9" font-weight="700" letter-spacing="1">TAX EXEMPTION SCOPE</text>

  <!-- State Tax row (editable toggle) -->
  <rect x="509" y="350" width="543" height="34" rx="5" fill="#1A1D2E"/>
  <text x="523" y="371" fill="#E2E8F0" font-size="12">State Sales Tax</text>
  <text x="650" y="371" fill="#64748B" font-size="11">4.00% waived</text>
  <use href="#gear" x="784" y="360" width="12" height="12"/>
  <use href="#toggleOn" x="800" y="357" width="48" height="20"/>
  <rect x="858" y="356" width="60" height="20" rx="4" fill="#134E4A"/>
  <text x="888" y="370" fill="#6EE7B7" font-size="10" font-weight="600" text-anchor="middle">EXEMPT</text>

  <!-- City Tax row (editable toggle) -->
  <rect x="509" y="388" width="543" height="34" rx="5" fill="#0C0E1A"/>
  <text x="523" y="409" fill="#E2E8F0" font-size="12">City Sales Tax</text>
  <text x="650" y="409" fill="#64748B" font-size="11">4.875% waived</text>
  <use href="#gear" x="784" y="398" width="12" height="12"/>
  <use href="#toggleOn" x="800" y="395" width="48" height="20"/>
  <rect x="858" y="394" width="60" height="20" rx="4" fill="#134E4A"/>
  <text x="888" y="408" fill="#6EE7B7" font-size="10" font-weight="600" text-anchor="middle">EXEMPT</text>

  <!-- Full exempt summary -->
  <rect x="509" y="426" width="543" height="24" rx="4" fill="#052E16"/>
  <text x="523" y="442" fill="#22C55E" font-size="11" font-weight="700">All taxes waived — FULL EXEMPT (8.875% total)</text>

  <!-- Section: Authorized Contacts -->
  <!-- DB: pos_tax_exempt_contacts WHERE account_id = 'acct-001' -->
  <text x="517" y="466" fill="#64748B" font-size="9" font-weight="700" letter-spacing="1">AUTHORIZED CONTACTS</text>
  <use href="#gear" x="630" y="457" width="12" height="12"/>

  <rect x="509" y="472" width="543" height="30" rx="5" fill="#1A1D2E"/>
  <text x="523" y="491" fill="#E2E8F0" font-size="12">John Smith</text>
  <text x="617" y="491" fill="#64748B" font-size="11">jsmith@nyc.gov</text>
  <rect x="830" y="479" width="120" height="16" rx="3" fill="#1E3A5F"/>
  <text x="890" y="491" fill="#93C5FD" font-size="10" text-anchor="middle">Authorized Purchaser</text>

  <rect x="509" y="506" width="543" height="30" rx="5" fill="#1A1D2E"/>
  <text x="523" y="525" fill="#E2E8F0" font-size="12">Mary Davis</text>
  <text x="617" y="525" fill="#64748B" font-size="11">mdavis@nyc.gov</text>
  <rect x="830" y="513" width="120" height="16" rx="3" fill="#1E3A5F"/>
  <text x="890" y="525" fill="#93C5FD" font-size="10" text-anchor="middle">Authorized Purchaser</text>

  <text x="523" y="552" fill="#60A5FA" font-size="11">+ Add Contact</text>

  <!-- Section: Notes and Purchase Order -->
  <!-- DB: pos_tax_exempt_accounts.notes, pos_tax_exempt_accounts.po_required, pos_tax_exempt_accounts.po_threshold_cents -->
  <text x="517" y="572" fill="#64748B" font-size="9" font-weight="700" letter-spacing="1">NOTES &amp; PURCHASE ORDER</text>
  <use href="#gear" x="660" y="563" width="12" height="12"/>
  <rect x="509" y="578" width="543" height="36" rx="5" fill="#1A1D2E" stroke="#2A2E45" stroke-width="1"/>
  <text x="523" y="594" fill="#94A3B8" font-size="11">City purchasing account — PO required for orders over $500</text>
  <text x="523" y="607" fill="#64748B" font-size="10">(Internal note — not printed on receipts)</text>

  <text x="517" y="633" fill="#94A3B8" font-size="11">PO Required:</text>
  <use href="#gear" x="590" y="624" width="12" height="12"/>
  <use href="#toggleOn" x="604" y="620" width="48" height="20"/>
  <text x="660" y="633" fill="#64748B" font-size="11">Threshold:</text>
  <rect x="730" y="620" width="50" height="20" rx="5" fill="#1A1D2E" stroke="#2A2E45" stroke-width="1"/>
  <text x="755" y="634" fill="#E2E8F0" font-size="11" font-weight="600" text-anchor="middle">$500</text>

  <!-- Section: Transaction Log -->
  <!-- DB: pos_tax_exempt_events JOIN pos_orders WHERE account_id = 'acct-001' ORDER BY created_at DESC -->
  <text x="517" y="658" fill="#64748B" font-size="9" font-weight="700" letter-spacing="1">RECENT TAX-EXEMPT SALES — CITY OF NEW YORK</text>

  <!-- Table header -->
  <rect x="509" y="664" width="543" height="24" rx="4" fill="#1A1D2E"/>
  <text x="517" y="680" fill="#64748B" font-size="9" font-weight="700">DATE</text>
  <text x="562" y="680" fill="#64748B" font-size="9" font-weight="700">CHECK #</text>
  <text x="630" y="680" fill="#64748B" font-size="9" font-weight="700">SERVER</text>
  <text x="690" y="680" fill="#64748B" font-size="9" font-weight="700">ITEMS</text>
  <text x="786" y="680" fill="#64748B" font-size="9" font-weight="700">SUBTOTAL</text>
  <text x="848" y="680" fill="#64748B" font-size="9" font-weight="700">TAX WAIVED</text>
  <text x="924" y="680" fill="#64748B" font-size="9" font-weight="700">CHARGED</text>
  <text x="994" y="680" fill="#64748B" font-size="9" font-weight="700">STATUS</text>

  <!-- Row 1 -->
  <use href="#rowEven" x="509" y="690" width="543" height="22"/>
  <text x="517" y="705" fill="#94A3B8" font-size="10">May 27</text>
  <text x="562" y="705" fill="#94A3B8" font-size="10">#2406-089</text>
  <text x="630" y="705" fill="#94A3B8" font-size="10">Marcus</text>
  <text x="690" y="705" fill="#94A3B8" font-size="10">Catering Set</text>
  <text x="786" y="705" fill="#E2E8F0" font-size="10">$340.00</text>
  <text x="848" y="705" fill="#22C55E" font-size="10">$30.17</text>
  <text x="924" y="705" fill="#E2E8F0" font-size="10">$340.00</text>
  <rect x="990" y="694" width="40" height="14" rx="3" fill="#064E3B"/>
  <text x="1010" y="705" fill="#6EE7B7" font-size="9" text-anchor="middle">Closed</text>

  <!-- Row 2 -->
  <use href="#rowOdd" x="509" y="714" width="543" height="22"/>
  <text x="517" y="729" fill="#94A3B8" font-size="10">May 25</text>
  <text x="562" y="729" fill="#94A3B8" font-size="10">#2406-071</text>
  <text x="630" y="729" fill="#94A3B8" font-size="10">Sara</text>
  <text x="690" y="729" fill="#94A3B8" font-size="10">Lunch Order</text>
  <text x="786" y="729" fill="#E2E8F0" font-size="10">$127.50</text>
  <text x="848" y="729" fill="#22C55E" font-size="10">$11.31</text>
  <text x="924" y="729" fill="#E2E8F0" font-size="10">$127.50</text>
  <rect x="990" y="718" width="40" height="14" rx="3" fill="#064E3B"/>
  <text x="1010" y="729" fill="#6EE7B7" font-size="9" text-anchor="middle">Closed</text>

  <!-- Row 3 -->
  <use href="#rowEven" x="509" y="738" width="543" height="22"/>
  <text x="517" y="753" fill="#94A3B8" font-size="10">May 22</text>
  <text x="562" y="753" fill="#94A3B8" font-size="10">#2406-058</text>
  <text x="630" y="753" fill="#94A3B8" font-size="10">Marcus</text>
  <text x="690" y="753" fill="#94A3B8" font-size="10">Dept Meeting</text>
  <text x="786" y="753" fill="#E2E8F0" font-size="10">$214.00</text>
  <text x="848" y="753" fill="#22C55E" font-size="10">$18.99</text>
  <text x="924" y="753" fill="#E2E8F0" font-size="10">$214.00</text>
  <rect x="990" y="742" width="40" height="14" rx="3" fill="#064E3B"/>
  <text x="1010" y="753" fill="#6EE7B7" font-size="9" text-anchor="middle">Closed</text>

  <!-- Row 4 -->
  <use href="#rowOdd" x="509" y="762" width="543" height="22"/>
  <text x="517" y="777" fill="#94A3B8" font-size="10">May 19</text>
  <text x="562" y="777" fill="#94A3B8" font-size="10">#2406-044</text>
  <text x="630" y="777" fill="#94A3B8" font-size="10">Jordan</text>
  <text x="690" y="777" fill="#94A3B8" font-size="10">Staff Lunch x8</text>
  <text x="786" y="777" fill="#E2E8F0" font-size="10">$186.40</text>
  <text x="848" y="777" fill="#22C55E" font-size="10">$16.54</text>
  <text x="924" y="777" fill="#E2E8F0" font-size="10">$186.40</text>
  <rect x="990" y="766" width="40" height="14" rx="3" fill="#064E3B"/>
  <text x="1010" y="777" fill="#6EE7B7" font-size="9" text-anchor="middle">Closed</text>

  <!-- Row 5 -->
  <use href="#rowEven" x="509" y="786" width="543" height="22"/>
  <text x="517" y="801" fill="#94A3B8" font-size="10">May 15</text>
  <text x="562" y="801" fill="#94A3B8" font-size="10">#2406-029</text>
  <text x="630" y="801" fill="#94A3B8" font-size="10">Sara</text>
  <text x="690" y="801" fill="#94A3B8" font-size="10">Reception Pkg</text>
  <text x="786" y="801" fill="#E2E8F0" font-size="10">$560.00</text>
  <text x="848" y="801" fill="#22C55E" font-size="10">$49.70</text>
  <text x="924" y="801" fill="#E2E8F0" font-size="10">$560.00</text>
  <rect x="990" y="790" width="40" height="14" rx="3" fill="#064E3B"/>
  <text x="1010" y="801" fill="#6EE7B7" font-size="9" text-anchor="middle">Closed</text>

  <!-- Export CSV -->
  <text x="1043" y="824" fill="#60A5FA" font-size="11" text-anchor="end">Export to CSV</text>

  <!-- ===== RIGHT PANEL: Per-Transaction Exemption ===== -->
  <rect x="1062" y="199" width="304" height="825" fill="#0C0E1A"/>

  <!-- Panel header -->
  <rect x="1070" y="208" width="286" height="36" rx="7" fill="url(#cardGrad)" filter="url(#shadow)"/>
  <text x="1213" y="222" fill="#E2E8F0" font-size="13" font-weight="700" text-anchor="middle">Apply Exemption to Order</text>
  <text x="1213" y="238" fill="#64748B" font-size="10" text-anchor="middle">Mark an order tax-exempt at the register</text>

  <!-- Step 1: Select Order -->
  <!-- DB: pos_orders WHERE status = 'open' -->
  <rect x="1070" y="252" width="286" height="50" rx="6" fill="#1A1D2E" stroke="#2A2E45" stroke-width="1"/>
  <use href="#stepBadge" x="1074" y="256" width="18" height="18"/>
  <text x="1083" y="269" fill="#0C0E1A" font-size="9" font-weight="700" text-anchor="middle">1</text>
  <text x="1100" y="265" fill="#94A3B8" font-size="10" font-weight="600">SELECT ORDER</text>
  <use href="#gear" x="1330" y="256" width="12" height="12"/>
  <rect x="1078" y="272" width="196" height="22" rx="4" fill="#11142A" stroke="#2A2E45" stroke-width="1"/>
  <text x="1090" y="287" fill="#E2E8F0" font-size="11">Order #2406-112</text>
  <text x="1284" y="287" fill="#60A5FA" font-size="10">Current</text>

  <!-- Step 2: Select Account -->
  <!-- DB: pos_tax_exempt_accounts WHERE status = 'active' -->
  <rect x="1070" y="308" width="286" height="50" rx="6" fill="#1A1D2E" stroke="#2A2E45" stroke-width="1"/>
  <use href="#stepBadge" x="1074" y="312" width="18" height="18"/>
  <text x="1083" y="325" fill="#0C0E1A" font-size="9" font-weight="700" text-anchor="middle">2</text>
  <text x="1100" y="321" fill="#94A3B8" font-size="10" font-weight="600">SELECT EXEMPT ACCOUNT</text>
  <use href="#gear" x="1330" y="312" width="12" height="12"/>
  <rect x="1078" y="328" width="270" height="22" rx="4" fill="#11142A" stroke="#2A2E45" stroke-width="1"/>
  <text x="1090" y="343" fill="#E2E8F0" font-size="11">City of New York</text>

  <!-- Step 3: Verify Identity -->
  <!-- DB: pos_tax_exempt_contacts WHERE account_id = selected -->
  <rect x="1070" y="364" width="286" height="60" rx="6" fill="#1A1D2E" stroke="#2A2E45" stroke-width="1"/>
  <use href="#stepBadge" x="1074" y="368" width="18" height="18"/>
  <text x="1083" y="381" fill="#0C0E1A" font-size="9" font-weight="700" text-anchor="middle">3</text>
  <text x="1100" y="377" fill="#94A3B8" font-size="10" font-weight="600">VERIFY IDENTITY</text>
  <text x="1078" y="395" fill="#64748B" font-size="10">Authorized purchaser name:</text>
  <rect x="1078" y="400" width="186" height="18" rx="4" fill="#11142A" stroke="#2A2E45" stroke-width="1"/>
  <text x="1090" y="413" fill="#94A3B8" font-size="10">John Smith</text>
  <rect x="1274" y="400" width="16" height="16" rx="3" fill="#22C55E"/>
  <text x="1294" y="413" fill="#64748B" font-size="9">ID</text>

  <!-- Step 4: Exemption Reason -->
  <!-- DB: pos_tax_exempt_events.reason -->
  <rect x="1070" y="430" width="286" height="50" rx="6" fill="#1A1D2E" stroke="#2A2E45" stroke-width="1"/>
  <use href="#stepBadge" x="1074" y="434" width="18" height="18"/>
  <text x="1083" y="447" fill="#0C0E1A" font-size="9" font-weight="700" text-anchor="middle">4</text>
  <text x="1100" y="443" fill="#94A3B8" font-size="10" font-weight="600">EXEMPTION REASON</text>
  <use href="#gear" x="1330" y="434" width="12" height="12"/>
  <rect x="1078" y="450" width="270" height="22" rx="4" fill="#11142A" stroke="#2A2E45" stroke-width="1"/>
  <text x="1090" y="465" fill="#E2E8F0" font-size="11">Government Purchase</text>

  <!-- Step 5: PO Number -->
  <!-- DB: pos_tax_exempt_events.po_number -->
  <rect x="1070" y="486" width="286" height="50" rx="6" fill="#1A1D2E" stroke="#2A2E45" stroke-width="1"/>
  <use href="#stepBadge" x="1074" y="490" width="18" height="18"/>
  <text x="1083" y="503" fill="#0C0E1A" font-size="9" font-weight="700" text-anchor="middle">5</text>
  <text x="1100" y="499" fill="#94A3B8" font-size="10" font-weight="600">PO NUMBER (REQUIRED)</text>
  <rect x="1078" y="506" width="270" height="22" rx="4" fill="#11142A" stroke="#F59E0B" stroke-width="1" opacity="0.5"/>
  <text x="1090" y="521" fill="#E2E8F0" font-size="11">PO-2026-4847</text>

  <!-- Step 6: Preview -->
  <!-- DB: calculated from pos_orders.subtotal_cents and applicable tax rates -->
  <rect x="1070" y="542" width="286" height="86" rx="6" fill="#1A1D2E" stroke="#2A2E45" stroke-width="1"/>
  <use href="#stepBadge" x="1074" y="546" width="18" height="18"/>
  <text x="1083" y="559" fill="#0C0E1A" font-size="9" font-weight="700" text-anchor="middle">6</text>
  <text x="1100" y="555" fill="#94A3B8" font-size="10" font-weight="600">PREVIEW</text>
  <text x="1082" y="572" fill="#94A3B8" font-size="11">Order Total</text>
  <text x="1346" y="572" fill="#E2E8F0" font-size="11" text-anchor="end">$340.00</text>
  <text x="1082" y="589" fill="#94A3B8" font-size="11">Sales Tax (was)</text>
  <text x="1346" y="589" fill="#94A3B8" font-size="11" text-anchor="end">$30.17</text>
  <text x="1082" y="606" fill="#22C55E" font-size="11" font-weight="600">Tax Waived</text>
  <text x="1346" y="606" fill="#22C55E" font-size="11" font-weight="700" text-anchor="end">-$30.17</text>
  <rect x="1070" y="612" width="286" height="1" fill="#2A2E45"/>
  <text x="1082" y="624" fill="#F59E0B" font-size="13" font-weight="700">TOTAL CHARGED</text>
  <text x="1346" y="624" fill="#F59E0B" font-size="13" font-weight="700" text-anchor="end">$340.00</text>

  <!-- Apply Button -->
  <rect x="1070" y="634" width="286" height="36" rx="7" fill="url(#amberGrad)" filter="url(#shadow)"/>
  <text x="1213" y="656" fill="#0C0E1A" font-size="13" font-weight="700" text-anchor="middle">Apply Tax Exemption</text>

  <!-- Manager PIN -->
  <!-- DB: pos_users WHERE role = 'manager' AND pin_hash matches -->
  <rect x="1070" y="676" width="286" height="44" rx="6" fill="#1A1D2E" stroke="#2A2E45" stroke-width="1"/>
  <text x="1082" y="691" fill="#94A3B8" font-size="10">Manager PIN</text>
  <use href="#gear" x="1150" y="682" width="12" height="12"/>
  <text x="1082" y="708" fill="#64748B" font-size="9">Required for exemptions &gt; $100</text>
  <rect x="1200" y="680" width="148" height="22" rx="4" fill="#11142A" stroke="#2A2E45" stroke-width="1"/>

  <!-- Certificate Renewal Section -->
  <!-- DB: pos_tax_exempt_accounts WHERE cert_expires_at < NOW() + interval '60 days' -->
  <text x="1078" y="738" fill="#64748B" font-size="9" font-weight="700" letter-spacing="1">CERTIFICATE RENEWAL</text>
  <use href="#gear" x="1210" y="729" width="12" height="12"/>

  <!-- Alert -->
  <rect x="1070" y="744" width="286" height="26" rx="5" fill="#2D1A00" stroke="#F59E0B" stroke-width="1" opacity="0.6"/>
  <text x="1082" y="761" fill="#FDE68A" font-size="10" font-weight="600">2 certificates expiring within 60 days</text>

  <!-- Renewal rows -->
  <rect x="1070" y="776" width="286" height="32" rx="5" fill="#1A1D2E"/>
  <text x="1082" y="789" fill="#E2E8F0" font-size="10" font-weight="600">Sunrise Academy</text>
  <text x="1082" y="802" fill="#F59E0B" font-size="9">Expires Jun 30, 2026</text>
  <rect x="1248" y="779" width="100" height="22" rx="4" fill="#1E2235"/>
  <text x="1298" y="794" fill="#60A5FA" font-size="9" text-anchor="middle">Send Renewal</text>

  <rect x="1070" y="812" width="286" height="32" rx="5" fill="#1A1D2E"/>
  <text x="1082" y="825" fill="#E2E8F0" font-size="10" font-weight="600">ABC Corp (Catering)</text>
  <text x="1082" y="838" fill="#F59E0B" font-size="9">Expires Aug 31, 2026</text>
  <rect x="1248" y="815" width="100" height="22" rx="4" fill="#1E2235"/>
  <text x="1298" y="830" fill="#60A5FA" font-size="9" text-anchor="middle">Send Renewal</text>

  <!-- Auto-reminder toggle (editable) -->
  <!-- DB: pos_config.tax_exempt_auto_reminder_enabled -->
  <text x="1082" y="862" fill="#94A3B8" font-size="10">Auto-reminder:</text>
  <use href="#gear" x="1152" y="853" width="12" height="12"/>
  <use href="#toggleOn" x="1166" y="849" width="40" height="18"/>
  <text x="1212" y="862" fill="#64748B" font-size="9">60 days before, email contact</text>

  <!-- ===== WORKFLOW / SAVE BAR ===== -->
  <rect x="210" y="930" width="1156" height="1" fill="#2A2E45"/>
  <rect x="210" y="931" width="1156" height="93" fill="#0C0E1A"/>

  <!-- Save button -->
  <rect x="1186" y="944" width="160" height="36" rx="7" fill="url(#amberGrad)" filter="url(#shadow)"/>
  <text x="1266" y="966" fill="#0C0E1A" font-size="13" font-weight="700" text-anchor="middle">Save Changes</text>

  <!-- DB integration note -->
  <!-- DB: pos_tax_exempt_accounts, pos_orders.tax_exempt_account_id, pos_payments.tax_waived_cents,
       pos_tax_exempt_events, Supabase Storage (bucket: tax-certificates) -->
  <rect x="218" y="944" width="950" height="66" rx="8" fill="#1A1200" stroke="#F59E0B" stroke-width="1" opacity="0.5"/>
  <text x="232" y="960" fill="#F59E0B" font-size="10" font-weight="700" letter-spacing="1">WORKFLOW INTEGRATION</text>
  <text x="232" y="976" fill="#94A3B8" font-size="10">Tax exemption stored in pos_tax_exempt_accounts. Applied to order via pos_orders.tax_exempt_account_id.</text>
  <text x="232" y="990" fill="#94A3B8" font-size="10">Tax waived logged in pos_payments.tax_waived_cents. Certificates in Supabase Storage (private bucket, signed URLs).</text>
  <text x="232" y="1004" fill="#64748B" font-size="9">Tables: pos_tax_exempt_accounts | pos_orders | pos_payments | pos_tax_exempt_events | pos_tax_exempt_contacts</text>

</svg>