<svg xmlns="http://www.w3.org/2000/svg" viewBox="0 0 1366 1024" font-family="system-ui,-apple-system,sans-serif">

  <!-- Background -->
  <rect width="1366" height="1024" fill="#0F1117"/>

  <!-- ===== LEFT NAV (210px) ===== -->
  <rect x="0" y="0" width="210" height="1024" fill="#13162A"/>
  <rect x="210" y="0" width="1" height="1024" fill="#2D3148"/>

  <text x="16" y="30" font-size="13" font-weight="700" fill="#F59E0B">⚙ Back Office</text>

  <!-- Nav items -->
  <text x="16" y="67"  font-size="12" fill="#8B92A5">Restaurant Info</text>
  <text x="16" y="99"  font-size="12" fill="#8B92A5">Menu Builder</text>
  <text x="16" y="131" font-size="12" fill="#8B92A5">Taxes</text>
  <text x="16" y="163" font-size="12" fill="#8B92A5">Employees</text>
  <text x="16" y="195" font-size="12" fill="#8B92A5">Equipment</text>
  <text x="16" y="227" font-size="12" fill="#8B92A5">Floor Plans</text>

  <!-- Payments section header -->
  <text x="16" y="264" font-size="10" font-weight="700" fill="#64748B" letter-spacing="1">PAYMENTS</text>
  <text x="16" y="292" font-size="12" fill="#8B92A5">Payment Settings</text>
  <text x="16" y="320" font-size="12" fill="#8B92A5">Tip Pooling</text>
  <text x="16" y="348" font-size="12" fill="#8B92A5">Auto-Gratuity</text>
  <text x="16" y="376" font-size="12" fill="#8B92A5">Gift Cards</text>
  <text x="16" y="404" font-size="12" fill="#8B92A5">House Accounts</text>

  <!-- Active: Chargebacks -->
  <rect x="0" y="416" width="210" height="34" fill="#1E2240"/>
  <rect x="0" y="416" width="3" height="34" fill="#F59E0B"/>
  <text x="16" y="438" font-size="12" font-weight="700" fill="#F59E0B">Chargebacks</text>

  <text x="16" y="470" font-size="12" fill="#8B92A5">Cash Management</text>
  <text x="16" y="498" font-size="12" fill="#8B92A5">Revenue Centers</text>
  <text x="16" y="526" font-size="12" fill="#8B92A5">Discounts &amp; Promos</text>
  <text x="16" y="554" font-size="12" fill="#8B92A5">Tax Exempt</text>
  <text x="16" y="582" font-size="12" fill="#8B92A5">Loyalty</text>
  <text x="16" y="610" font-size="12" fill="#8B92A5">Integrations</text>
  <text x="16" y="638" font-size="12" fill="#8B92A5">Reports</text>
  <text x="16" y="666" font-size="12" fill="#8B92A5">Advantage Prog.</text>
  <text x="16" y="694" font-size="12" fill="#8B92A5">Training Mode</text>
  <text x="16" y="722" font-size="12" fill="#8B92A5">Label Printer</text>

  <!-- ===== MAIN CONTENT (x=211) ===== -->

  <!-- Header bar -->
  <rect x="211" y="0" width="1155" height="58" fill="#1A1D2E"/>
  <rect x="211" y="58" width="1155" height="1" fill="#2D3148"/>
  <text x="228" y="35" font-size="20" font-weight="700" fill="#F1F5F9">Chargeback Management</text>
  <text x="228" y="51" font-size="11" fill="#64748B">Monitor disputes, auto-assemble evidence, and submit directly to Stripe from your POS data.</text>

  <!-- KPI chips -->
  <!-- Open (3) red -->
  <rect x="760" y="10" width="90" height="38" rx="6" fill="#2D1A1A" stroke="#EF4444" stroke-width="1.5"/>
  <text x="805" y="25" font-size="10" fill="#94A3B8" text-anchor="middle">Open</text>
  <text x="805" y="42" font-size="16" font-weight="700" fill="#EF4444" text-anchor="middle">3</text>

  <!-- Won (12) green -->
  <rect x="858" y="10" width="90" height="38" rx="6" fill="#0D2318" stroke="#10B981" stroke-width="1.5"/>
  <text x="903" y="25" font-size="10" fill="#94A3B8" text-anchor="middle">Won</text>
  <text x="903" y="42" font-size="16" font-weight="700" fill="#10B981" text-anchor="middle">12</text>

  <!-- Lost (2) red -->
  <rect x="956" y="10" width="90" height="38" rx="6" fill="#2D1A1A" stroke="#EF4444" stroke-width="1.5"/>
  <text x="1001" y="25" font-size="10" fill="#94A3B8" text-anchor="middle">Lost</text>
  <text x="1001" y="42" font-size="16" font-weight="700" fill="#EF4444" text-anchor="middle">2</text>

  <!-- Win Rate (86%) green -->
  <rect x="1054" y="10" width="110" height="38" rx="6" fill="#0D2318" stroke="#10B981" stroke-width="1.5"/>
  <text x="1109" y="25" font-size="10" fill="#94A3B8" text-anchor="middle">Win Rate</text>
  <text x="1109" y="42" font-size="16" font-weight="700" fill="#10B981" text-anchor="middle">86%</text>

  <!-- ===== ACTIVE DISPUTES TABLE ===== -->
  <text x="228" y="82" font-size="11" font-weight="700" fill="#94A3B8" letter-spacing="1">ACTIVE DISPUTES</text>

  <!-- Table card -->
  <rect x="219" y="89" width="1128" height="275" rx="8" fill="#1A1D2E" stroke="#2D3148" stroke-width="1"/>

  <!-- Table header row -->
  <rect x="219" y="89" width="1128" height="32" rx="8" fill="#1E2240"/>
  <rect x="219" y="105" width="1128" height="16" fill="#1E2240"/>
  <!-- header text -->
  <text x="232" y="109" font-size="10" font-weight="700" fill="#64748B">DATE FILED</text>
  <text x="310" y="109" font-size="10" font-weight="700" fill="#64748B">ORDER #</text>
  <text x="380" y="109" font-size="10" font-weight="700" fill="#64748B">AMOUNT</text>
  <text x="445" y="109" font-size="10" font-weight="700" fill="#64748B">CARD</text>
  <text x="516" y="109" font-size="10" font-weight="700" fill="#64748B">REASON</text>
  <text x="682" y="109" font-size="10" font-weight="700" fill="#64748B">STATUS</text>
  <text x="808" y="109" font-size="10" font-weight="700" fill="#64748B">DAYS LEFT</text>
  <text x="882" y="109" font-size="10" font-weight="700" fill="#64748B">EVIDENCE</text>
  <text x="1074" y="109" font-size="10" font-weight="700" fill="#64748B">ACTION</text>

  <!-- Divider under header -->
  <rect x="219" y="121" width="1128" height="1" fill="#2D3148"/>

  <!-- ROW 1: May 22 / #4721 — Needs evidence, 12 days -->
  <rect x="219" y="122" width="1128" height="42" fill="#1A1D2E"/>
  <text x="232" y="148" font-size="12" fill="#F1F5F9">May 22</text>
  <text x="310" y="148" font-size="12" fill="#8B5CF6">#4721</text>
  <text x="380" y="148" font-size="12" font-weight="700" fill="#F1F5F9">$87.40</text>
  <text x="445" y="148" font-size="11" fill="#94A3B8">••••4242</text>
  <text x="516" y="148" font-size="11" fill="#94A3B8">Product not received</text>
  <!-- Status chip: Needs evidence amber -->
  <rect x="678" y="134" width="122" height="22" rx="4" fill="#2A1F00" stroke="#F59E0B" stroke-width="1"/>
  <text x="689" y="149" font-size="10" fill="#F59E0B">⚠ Needs Evidence</text>
  <text x="812" y="148" font-size="12" font-weight="700" fill="#F97316">12 days</text>
  <!-- Green dot + text -->
  <circle cx="888" cy="143" r="4" fill="#10B981"/>
  <text x="896" y="148" font-size="11" fill="#10B981">Auto-pack ready</text>
  <!-- Submit Evidence button -->
  <rect x="1068" y="133" width="126" height="24" rx="5" fill="#F59E0B"/>
  <text x="1131" y="149" font-size="11" font-weight="700" fill="#0F1117" text-anchor="middle">Submit Evidence</text>

  <rect x="219" y="164" width="1128" height="1" fill="#2D3148"/>

  <!-- ROW 2: May 19 / #4680 — Needs evidence, 8 days -->
  <rect x="219" y="165" width="1128" height="42" fill="#1A1D2E"/>
  <text x="232" y="191" font-size="12" fill="#F1F5F9">May 19</text>
  <text x="310" y="191" font-size="12" fill="#8B5CF6">#4680</text>
  <text x="380" y="191" font-size="12" font-weight="700" fill="#F1F5F9">$124.00</text>
  <text x="445" y="191" font-size="11" fill="#94A3B8">••••8831</text>
  <text x="516" y="191" font-size="11" fill="#94A3B8">Unauthorized transaction</text>
  <rect x="678" y="177" width="122" height="22" rx="4" fill="#2A1F00" stroke="#F59E0B" stroke-width="1"/>
  <text x="689" y="192" font-size="10" fill="#F59E0B">⚠ Needs Evidence</text>
  <text x="812" y="191" font-size="12" font-weight="700" fill="#EF4444">8 days</text>
  <circle cx="888" cy="186" r="4" fill="#10B981"/>
  <text x="896" y="191" font-size="11" fill="#10B981">Auto-pack ready</text>
  <rect x="1068" y="176" width="126" height="24" rx="5" fill="#F59E0B"/>
  <text x="1131" y="192" font-size="11" font-weight="700" fill="#0F1117" text-anchor="middle">Submit Evidence</text>

  <rect x="219" y="207" width="1128" height="1" fill="#2D3148"/>

  <!-- ROW 3: May 15 / #4601 — Submitted, 15 days -->
  <rect x="219" y="208" width="1128" height="42" fill="#1A1D2E"/>
  <text x="232" y="234" font-size="12" fill="#F1F5F9">May 15</text>
  <text x="310" y="234" font-size="12" fill="#8B5CF6">#4601</text>
  <text x="380" y="234" font-size="12" font-weight="700" fill="#F1F5F9">$43.50</text>
  <text x="445" y="234" font-size="11" fill="#94A3B8">••••5599</text>
  <text x="516" y="234" font-size="11" fill="#94A3B8">Duplicate charge</text>
  <!-- Status: Submitted (blue) -->
  <rect x="678" y="220" width="100" height="22" rx="4" fill="#0D1A2E" stroke="#3B82F6" stroke-width="1"/>
  <text x="689" y="235" font-size="10" fill="#3B82F6">↻ Submitted</text>
  <text x="812" y="234" font-size="12" fill="#94A3B8">15 days</text>
  <text x="882" y="234" font-size="11" fill="#64748B">Submitted May 16</text>
  <!-- View Status btn outline -->
  <rect x="1068" y="219" width="106" height="24" rx="5" fill="none" stroke="#3B82F6" stroke-width="1.5"/>
  <text x="1121" y="235" font-size="11" fill="#3B82F6" text-anchor="middle">View Status</text>

  <rect x="219" y="250" width="1128" height="1" fill="#2D3148"/>

  <!-- ROW 4: Apr 30 / #4488 — Won -->
  <rect x="219" y="251" width="1128" height="42" fill="#1A1D2E"/>
  <text x="232" y="277" font-size="12" fill="#F1F5F9">Apr 30</text>
  <text x="310" y="277" font-size="12" fill="#8B5CF6">#4488</text>
  <text x="380" y="277" font-size="12" font-weight="700" fill="#F1F5F9">$211.00</text>
  <text x="445" y="277" font-size="11" fill="#94A3B8">••••2277</text>
  <text x="516" y="277" font-size="11" fill="#94A3B8">Credit not processed</text>
  <!-- Status: Won green -->
  <rect x="678" y="263" width="78" height="22" rx="4" fill="#0D2318" stroke="#10B981" stroke-width="1"/>
  <text x="689" y="278" font-size="10" fill="#10B981">✓ Won</text>
  <text x="812" y="277" font-size="12" fill="#64748B">—</text>
  <text x="882" y="277" font-size="11" fill="#64748B">—</text>
  <rect x="1068" y="262" width="60" height="24" rx="5" fill="none" stroke="#2D3148" stroke-width="1.5"/>
  <text x="1098" y="278" font-size="11" fill="#94A3B8" text-anchor="middle">View</text>

  <rect x="219" y="293" width="1128" height="1" fill="#2D3148"/>

  <!-- ROW 5: Apr 22 / #4401 — Lost -->
  <rect x="219" y="294" width="1128" height="42" rx="0" fill="#1A1D2E"/>
  <!-- bottom corners rounded via clip would be complex; approximate -->
  <text x="232" y="320" font-size="12" fill="#F1F5F9">Apr 22</text>
  <text x="310" y="320" font-size="12" fill="#8B5CF6">#4401</text>
  <text x="380" y="320" font-size="12" font-weight="700" fill="#F1F5F9">$67.00</text>
  <text x="445" y="320" font-size="11" fill="#94A3B8">••••9913</text>
  <text x="516" y="320" font-size="11" fill="#94A3B8">Unrecognized charge</text>
  <!-- Status: Lost red -->
  <rect x="678" y="306" width="72" height="22" rx="4" fill="#2D1A1A" stroke="#EF4444" stroke-width="1"/>
  <text x="689" y="321" font-size="10" fill="#EF4444">✕ Lost</text>
  <text x="812" y="320" font-size="12" fill="#64748B">—</text>
  <text x="882" y="320" font-size="11" fill="#64748B">—</text>
  <rect x="1068" y="305" width="60" height="24" rx="5" fill="none" stroke="#2D3148" stroke-width="1.5"/>
  <text x="1098" y="321" font-size="11" fill="#94A3B8" text-anchor="middle">View</text>

  <!-- ===== BOTTOM SECTION (two columns) ===== -->
  <!-- Bottom left: Evidence Auto-Pack (x=219, w=570) -->
  <!-- Bottom right: Charts (x=800, w=547) -->

  <!-- Evidence Auto-Pack card with amber border -->
  <rect x="219" y="378" width="564" height="372" rx="8" fill="#1A1D2E" stroke="#F59E0B" stroke-width="1.5"/>

  <!-- Card header bar -->
  <rect x="219" y="378" width="564" height="36" rx="8" fill="#1E1A00"/>
  <rect x="219" y="398" width="564" height="16" fill="#1E1A00"/>
  <text x="236" y="400" font-size="13" font-weight="700" fill="#F59E0B">Evidence Package — Auto-assembled from POS Data</text>
  <text x="236" y="416" font-size="11" fill="#F59E0B">Order #4721  ·  $87.40  ·  May 14, 2024</text>

  <rect x="219" y="420" width="564" height="1" fill="#2D3148"/>

  <!-- Evidence items -->
  <!-- Row 1 -->
  <text x="236" y="444" font-size="14" fill="#10B981">✓</text>
  <text x="256" y="444" font-size="12" font-weight="600" fill="#F1F5F9">Original receipt (PDF)</text>
  <text x="452" y="444" font-size="11" fill="#64748B">May 14, 8:47 pm</text>

  <!-- Row 2 -->
  <text x="236" y="466" font-size="14" fill="#10B981">✓</text>
  <text x="256" y="466" font-size="12" font-weight="600" fill="#F1F5F9">KDS timestamp</text>
  <text x="380" y="466" font-size="11" fill="#64748B">Order fired 8:44 pm, bumped 8:52 pm</text>

  <!-- Row 3 -->
  <text x="236" y="488" font-size="14" fill="#10B981">✓</text>
  <text x="256" y="488" font-size="12" font-weight="600" fill="#F1F5F9">Card capture</text>
  <text x="350" y="488" font-size="11" fill="#64748B">EMV chip tap, approved — Stripe TXN: pi_xxx</text>

  <!-- Row 4 -->
  <text x="236" y="510" font-size="14" fill="#10B981">✓</text>
  <text x="256" y="510" font-size="12" font-weight="600" fill="#F1F5F9">Server signature</text>
  <text x="368" y="510" font-size="11" fill="#64748B">Sarah M. served table 7</text>

  <!-- Row 5 -->
  <text x="236" y="532" font-size="14" fill="#10B981">✓</text>
  <text x="256" y="532" font-size="12" font-weight="600" fill="#F1F5F9">Tip capture</text>
  <text x="336" y="532" font-size="11" fill="#64748B">$12.00 added by customer on display</text>

  <!-- Row 6 -->
  <text x="236" y="554" font-size="14" fill="#10B981">✓</text>
  <text x="256" y="554" font-size="12" font-weight="600" fill="#F1F5F9">Order photo</text>
  <text x="336" y="554" font-size="11" fill="#64748B">Kitchen camera (if enabled)</text>

  <rect x="219" y="566" width="564" height="1" fill="#2D3148"/>

  <!-- Action buttons -->
  <rect x="236" y="575" width="170" height="34" rx="6" fill="#10B981"/>
  <text x="321" y="596" font-size="12" font-weight="700" fill="#0F1117" text-anchor="middle">Submit to Stripe</text>

  <rect x="416" y="575" width="188" height="34" rx="6" fill="none" stroke="#64748B" stroke-width="1.5"/>
  <text x="510" y="596" font-size="12" fill="#94A3B8" text-anchor="middle">Download Package PDF</text>

  <!-- Auto-assembled note -->
  <rect x="219" y="619" width="564" height="28" rx="0" fill="#13162A"/>
  <rect x="219" y="619" width="564" height="28" rx="0" fill="#13162A"/>
  <!-- bottom-round the note -->
  <rect x="219" y="633" width="564" height="14" fill="#13162A"/>
  <rect x="219" y="633" width="564" height="28" rx="8" fill="#13162A"/>
  <text x="236" y="639" font-size="10" fill="#64748B">⚡ Auto-assembled in 0.3s from</text>
  <text x="388" y="639" font-size="10" font-weight="600" fill="#8B5CF6">pos_orders</text>
  <text x="443" y="639" font-size="10" fill="#64748B">+</text>
  <text x="452" y="639" font-size="10" font-weight="600" fill="#8B5CF6">pos_payments</text>
  <text x="522" y="639" font-size="10" fill="#64748B">+</text>
  <text x="531" y="639" font-size="10" font-weight="600" fill="#8B5CF6">pos_kds_tickets</text>

  <!-- ===== BOTTOM RIGHT: Charts panel ===== -->
  <rect x="795" y="378" width="552" height="372" rx="8" fill="#1A1D2E" stroke="#2D3148" stroke-width="1"/>

  <!-- Win/Loss Trend title -->
  <text x="812" y="401" font-size="12" font-weight="700" fill="#F1F5F9">Win / Loss Trend — Last 6 Months</text>

  <!-- Bar chart background -->
  <rect x="812" y="408" width="516" height="160" rx="4" fill="#13162A"/>

  <!-- Y-axis labels -->
  <text x="816" y="422" font-size="9" fill="#64748B">10</text>
  <text x="816" y="462" font-size="9" fill="#64748B">7</text>
  <text x="816" y="502" font-size="9" fill="#64748B">4</text>
  <text x="816" y="542" font-size="9" fill="#64748B">1</text>
  <!-- Y gridlines -->
  <line x1="832" y1="418" x2="1320" y2="418" stroke="#2D3148" stroke-width="0.5"/>
  <line x1="832" y1="458" x2="1320" y2="458" stroke="#2D3148" stroke-width="0.5"/>
  <line x1="832" y1="498" x2="1320" y2="498" stroke="#2D3148" stroke-width="0.5"/>
  <line x1="832" y1="538" x2="1320" y2="538" stroke="#2D3148" stroke-width="0.5"/>

  <!-- Bars: 6 months, each month has green won + red lost bars side by side -->
  <!-- Scale: max 10 bars → 120px height per unit × (value/10) -->
  <!-- Bar bottom = 545, bar height = value * 12 -->

  <!-- Dec -->
  <rect x="845" y="497" width="18" height="48" rx="2" fill="#10B981" opacity="0.85"/>
  <rect x="865" y="533" width="18" height="12" rx="2" fill="#EF4444" opacity="0.85"/>
  <text x="857" y="557" font-size="9" fill="#64748B" text-anchor="middle">Dec</text>

  <!-- Jan -->
  <rect x="910" y="509" width="18" height="36" rx="2" fill="#10B981" opacity="0.85"/>
  <rect x="930" y="533" width="18" height="12" rx="2" fill="#EF4444" opacity="0.85"/>
  <text x="922" y="557" font-size="9" fill="#64748B" text-anchor="middle">Jan</text>

  <!-- Feb -->
  <rect x="975" y="497" width="18" height="48" rx="2" fill="#10B981" opacity="0.85"/>
  <rect x="995" y="529" width="18" height="16" rx="2" fill="#EF4444" opacity="0.85"/>
  <text x="987" y="557" font-size="9" fill="#64748B" text-anchor="middle">Feb</text>

  <!-- Mar -->
  <rect x="1040" y="485" width="18" height="60" rx="2" fill="#10B981" opacity="0.85"/>
  <rect x="1060" y="533" width="18" height="12" rx="2" fill="#EF4444" opacity="0.85"/>
  <text x="1052" y="557" font-size="9" fill="#64748B" text-anchor="middle">Mar</text>

  <!-- Apr -->
  <rect x="1105" y="493" width="18" height="52" rx="2" fill="#10B981" opacity="0.85"/>
  <rect x="1125" y="529" width="18" height="16" rx="2" fill="#EF4444" opacity="0.85"/>
  <text x="1117" y="557" font-size="9" fill="#64748B" text-anchor="middle">Apr</text>

  <!-- May -->
  <rect x="1170" y="501" width="18" height="44" rx="2" fill="#10B981" opacity="0.85"/>
  <rect x="1190" y="533" width="18" height="12" rx="2" fill="#EF4444" opacity="0.85"/>
  <text x="1182" y="557" font-size="9" fill="#64748B" text-anchor="middle">May</text>

  <!-- Legend -->
  <rect x="1230" y="420" width="10" height="10" rx="2" fill="#10B981"/>
  <text x="1244" y="430" font-size="10" fill="#94A3B8">Won</text>
  <rect x="1230" y="438" width="10" height="10" rx="2" fill="#EF4444"/>
  <text x="1244" y="448" font-size="10" fill="#94A3B8">Lost</text>

  <!-- Reason Code Breakdown title -->
  <text x="812" y="578" font-size="12" font-weight="700" fill="#F1F5F9">Reason Code Breakdown</text>
  <rect x="812" y="582" width="516" height="1" fill="#2D3148"/>

  <!-- Pie chart (manual arcs) — center 912,655 r=62 -->
  <!-- product_not_received 45% → 162° (starting 0°) -->
  <!-- unauthorized 30% → 108° -->
  <!-- duplicate 15% → 54° -->
  <!-- other 10% → 36° -->
  <!-- 45% arc: 0° to 162° -->
  <path d="M912,655 L974,655 A62,62 0 0,1 893.5,715.2 Z" fill="#F59E0B" opacity="0.9"/>
  <!-- 30% arc: 162° to 270° -->
  <path d="M912,655 L893.5,715.2 A62,62 0 0,1 912,593 Z" fill="#EF4444" opacity="0.85"/>
  <!-- 15% arc: 270° to 324° -->
  <path d="M912,655 L912,593 A62,62 0 0,1 962.5,624 Z" fill="#8B5CF6" opacity="0.85"/>
  <!-- other 10%: 324° to 360° -->
  <path d="M912,655 L962.5,624 A62,62 0 0,1 974,655 Z" fill="#64748B" opacity="0.85"/>
  <!-- inner circle for donut effect -->
  <circle cx="912" cy="655" r="28" fill="#1A1D2E"/>
  <text x="912" y="652" font-size="10" font-weight="700" fill="#F1F5F9" text-anchor="middle">86%</text>
  <text x="912" y="663" font-size="9" fill="#94A3B8" text-anchor="middle">win rate</text>

  <!-- Legend for pie -->
  <rect x="990" y="608" width="10" height="10" rx="2" fill="#F59E0B"/>
  <text x="1004" y="618" font-size="10" fill="#94A3B8">Product not received  45%</text>
  <rect x="990" y="628" width="10" height="10" rx="2" fill="#EF4444"/>
  <text x="1004" y="638" font-size="10" fill="#94A3B8">Unauthorized txn  30%</text>
  <rect x="990" y="648" width="10" height="10" rx="2" fill="#8B5CF6"/>
  <text x="1004" y="658" font-size="10" fill="#94A3B8">Duplicate charge  15%</text>
  <rect x="990" y="668" width="10" height="10" rx="2" fill="#64748B"/>
  <text x="1004" y="678" font-size="10" fill="#94A3B8">Other  10%</text>

  <!-- ===== DB SCHEMA FOOTER ===== -->
  <rect x="219" y="762" width="1128" height="118" rx="8" fill="#0D0F1A" stroke="#2D3148" stroke-width="1"/>
  <text x="236" y="782" font-size="10" font-weight="700" fill="#8B5CF6" letter-spacing="1">DATABASE SCHEMA</text>
  <rect x="219" y="787" width="1128" height="1" fill="#2D3148"/>
  <!-- monospace SQL using font override -->
  <text x="236" y="804" font-size="11" font-family="'Menlo','Consolas','monospace'" fill="#94A3B8">pos_chargebacks (</text>
  <text x="256" y="820" font-size="11" font-family="'Menlo','Consolas','monospace'" fill="#94A3B8">id, payment_id,</text>
  <text x="452" y="820" font-size="11" font-family="'Menlo','Consolas','monospace'" fill="#10B981">stripe_dispute_id,</text>
  <text x="648" y="820" font-size="11" font-family="'Menlo','Consolas','monospace'" fill="#94A3B8">amount_cents,</text>
  <text x="808" y="820" font-size="11" font-family="'Menlo','Consolas','monospace'" fill="#F59E0B">reason_code,</text>
  <text x="256" y="836" font-size="11" font-family="'Menlo','Consolas','monospace'" fill="#F59E0B">status,</text>
  <text x="314" y="836" font-size="11" font-family="'Menlo','Consolas','monospace'" fill="#94A3B8">filed_at, respond_by, evidence_submitted_at,</text>
  <text x="700" y="836" font-size="11" font-family="'Menlo','Consolas','monospace'" fill="#F59E0B">outcome</text>
  <text x="744" y="836" font-size="11" font-family="'Menlo','Consolas','monospace'" fill="#94A3B8">)</text>
  <text x="236" y="852" font-size="11" font-family="'Menlo','Consolas','monospace'" fill="#94A3B8">pos_chargeback_evidence (</text>
  <text x="436" y="852" font-size="11" font-family="'Menlo','Consolas','monospace'" fill="#94A3B8">chargeback_id,</text>
  <text x="556" y="852" font-size="11" font-family="'Menlo','Consolas','monospace'" fill="#10B981">evidence_type,</text>
  <text x="676" y="852" font-size="11" font-family="'Menlo','Consolas','monospace'" fill="#94A3B8">content,</text>
  <text x="736" y="852" font-size="11" font-family="'Menlo','Consolas','monospace'" fill="#F59E0B">auto_generated bool</text>
  <text x="892" y="852" font-size="11" font-family="'Menlo','Consolas','monospace'" fill="#94A3B8">)</text>
  <text x="236" y="870" font-size="10" fill="#64748B">Indexes: stripe_dispute_id (unique), status, respond_by  ·  Row-level security: restaurant_id scoped</text>

</svg>
