<svg role="img" aria-labelledby="title-settings_menu_engineering-svg" xmlns="http://www.w3.org/2000/svg" viewBox="0 0 1366 1024" font-family="-apple-system,BlinkMacSystemFont,'SF Pro Display','Segoe UI',sans-serif">

  <!-- ============================================================ -->
  <!--  REUSABLE DEFINITIONS                                        -->
  <title id="title-settings_menu_engineering-svg">Synalux POS — menu engineering</title>
  <desc>Synalux POS mockup screen for menu engineering. All UI elements admin-configurable.</desc>
  <!--  <defs>: gradients, filters, symbols – zero copy-paste      -->
  <!-- ============================================================ -->
  <title id="title-settings_menu_engineering-svg">Synalux POS — menu engineering</title>
  <desc>Synalux POS mockup screen for menu engineering. All UI elements admin-configurable.</desc>
  <defs>
    <!-- Background gradient -->
    <linearGradient id="bgGrad" x1="0" y1="0" x2="0" y2="1">
      <stop offset="0%" stop-color="#0C0E1A"/>
      <stop offset="100%" stop-color="#0A0C16"/>
    </linearGradient>

    <!-- Sidebar gradient -->
    <linearGradient id="sidebarGrad" x1="0" y1="0" x2="0" y2="1">
      <stop offset="0%" stop-color="#141730"/>
      <stop offset="100%" stop-color="#0F1226"/>
    </linearGradient>

    <!-- Header gradient -->
    <linearGradient id="headerGrad" x1="0" y1="0" x2="1" y2="0">
      <stop offset="0%" stop-color="#1A1D2E"/>
      <stop offset="100%" stop-color="#1E2138"/>
    </linearGradient>

    <!-- Card shadow filter -->
    <filter id="cardShadow" x="-4%" y="-4%" width="108%" height="108%">
      <feDropShadow dx="0" dy="2" stdDeviation="4" flood-color="#000" flood-opacity="0.3"/>
    </filter>

    <!-- Glow filter for accent elements -->
    <filter id="amberGlow" x="-20%" y="-20%" width="140%" height="140%">
      <feDropShadow dx="0" dy="0" stdDeviation="6" flood-color="#F59E0B" flood-opacity="0.25"/>
    </filter>

    <!-- ════════════════════════════════════════════════ -->
    <!--  SYMBOL: Admin gear icon (30% opacity default)  -->
    <!--  Placed on ALL editable/configurable fields     -->
    <!-- ════════════════════════════════════════════════ -->
    <symbol id="adminGear" viewBox="0 0 16 16">
      <path d="M8 1l1.2.4.6-1L11.4 1.8l-.2 1.2 1 .6 1.2-.2.8 1.4-1 .8.2 1.2 1 .6-.4 1.6H13l-.4 1 .8 1-.8 1.4-1.2-.2-.6 1-1.2.4L8 15l-1.2-.4-.6 1L4.6 14.2l.2-1.2-1-.6-1.2.2L1.8 11.2l1-.8-.2-1.2-1-.6.4-1.6H3l.4-1-.8-1 .8-1.4 1.2.2.6-1L6.8 1.4 8 1z" fill="none" stroke="#F59E0B" stroke-width="1.2" stroke-linejoin="round"/>
      <circle cx="8" cy="8" r="2.5" fill="none" stroke="#F59E0B" stroke-width="1.2"/>
    </symbol>

    <!-- ════════════════════════════════════════════════ -->
    <!--  SYMBOL: Nav item (sidebar row, inactive)       -->
    <!-- ════════════════════════════════════════════════ -->
    <symbol id="navItem" viewBox="0 0 210 32">
      <rect x="0" y="0" width="210" height="32" fill="none"/>
    </symbol>

    <!-- ════════════════════════════════════════════════ -->
    <!--  SYMBOL: Active nav item (highlighted)          -->
    <!-- ════════════════════════════════════════════════ -->
    <symbol id="navItemActive" viewBox="0 0 210 36">
      <rect x="0" y="0" width="210" height="36" fill="#1E2235"/>
      <rect x="0" y="0" width="3" height="36" fill="#F59E0B"/>
    </symbol>

    <!-- ════════════════════════════════════════════════ -->
    <!--  SYMBOL: Metric card background                 -->
    <!-- ════════════════════════════════════════════════ -->
    <symbol id="metricCard" viewBox="0 0 238 96">
      <rect x="0" y="0" width="238" height="96" rx="6" fill="#0C0E1A"/>
    </symbol>

    <!-- ════════════════════════════════════════════════ -->
    <!--  SYMBOL: Item row in quadrant card              -->
    <!-- ════════════════════════════════════════════════ -->
    <symbol id="itemRow" viewBox="0 0 238 36">
      <rect x="0" y="0" width="238" height="36" rx="6" fill="#0C0E1A"/>
    </symbol>

    <!-- ════════════════════════════════════════════════ -->
    <!--  SYMBOL: Status dot indicator                   -->
    <!-- ════════════════════════════════════════════════ -->
    <symbol id="statusDot" viewBox="0 0 10 10">
      <circle cx="5" cy="5" r="5"/>
    </symbol>

    <!-- ════════════════════════════════════════════════ -->
    <!--  SYMBOL: Pill badge (item count)                -->
    <!-- ════════════════════════════════════════════════ -->
    <symbol id="pillBadge" viewBox="0 0 62 20">
      <rect x="0" y="0" width="62" height="20" rx="10" opacity="0.2"/>
    </symbol>

    <!-- ════════════════════════════════════════════════ -->
    <!--  SYMBOL: Outline button                         -->
    <!-- ════════════════════════════════════════════════ -->
    <symbol id="outlineBtn" viewBox="0 0 120 32">
      <rect x="0" y="0" width="120" height="32" rx="6" fill="#1A1D2E" stroke="#2A2E45" stroke-width="1"/>
    </symbol>

    <!-- ════════════════════════════════════════════════ -->
    <!--  SYMBOL: Quadrant action button (filled)        -->
    <!-- ════════════════════════════════════════════════ -->
    <symbol id="actionBtn" viewBox="0 0 238 34">
      <rect x="0" y="0" width="238" height="34" rx="6"/>
    </symbol>
  </defs>

  <!-- ============================================================ -->
  <!--  BACKGROUND                                                  -->
  <!-- ============================================================ -->
  <rect width="1366" height="1024" fill="url(#bgGrad)"/>

  <!-- ============================================================ -->
  <!--  LEFT SIDEBAR (210px)                                        -->
  <!--  DB: pos_admin_navigation                                    -->
  <!-- ============================================================ -->
  <rect x="0" y="0" width="210" height="1024" fill="url(#sidebarGrad)"/>
  <rect x="210" y="0" width="1" height="1024" fill="#2A2E45"/>

  <!-- Logo / branding -->
  <!-- DB: pos_restaurant_info.name -->
  <text x="16" y="30" font-size="13" font-weight="700" fill="#F59E0B">Back Office</text>
  <use href="#adminGear" x="130" y="18" width="14" height="14" opacity="0.3"/>

  <!-- Nav group: SETTINGS -->
  <!-- DB: pos_navigation_items -->
  <use href="#navItem" x="0" y="44"/>
  <text x="16" y="65" font-size="12" fill="#64748B">Restaurant Info</text>
  <use href="#adminGear" x="186" y="55" width="10" height="10" opacity="0.3"/>

  <use href="#navItem" x="0" y="76"/>
  <text x="16" y="97" font-size="12" fill="#94A3B8">Menu Builder</text>
  <use href="#adminGear" x="186" y="87" width="10" height="10" opacity="0.3"/>

  <use href="#navItem" x="0" y="108"/>
  <text x="16" y="129" font-size="12" fill="#94A3B8">Taxes</text>
  <use href="#adminGear" x="186" y="119" width="10" height="10" opacity="0.3"/>

  <use href="#navItem" x="0" y="140"/>
  <text x="16" y="161" font-size="12" fill="#94A3B8">Employees</text>
  <use href="#adminGear" x="186" y="151" width="10" height="10" opacity="0.3"/>

  <use href="#navItem" x="0" y="172"/>
  <text x="16" y="193" font-size="12" fill="#94A3B8">Equipment</text>
  <use href="#adminGear" x="186" y="183" width="10" height="10" opacity="0.3"/>

  <use href="#navItem" x="0" y="204"/>
  <text x="16" y="225" font-size="12" fill="#94A3B8">Floor Plans</text>
  <use href="#adminGear" x="186" y="215" width="10" height="10" opacity="0.3"/>

  <use href="#navItem" x="0" y="236"/>
  <text x="16" y="257" font-size="12" fill="#94A3B8">Payments</text>
  <use href="#adminGear" x="186" y="247" width="10" height="10" opacity="0.3"/>

  <!-- Section header: REPORTS -->
  <text x="16" y="292" font-size="10" font-weight="700" fill="#64748B" letter-spacing="0.08em">REPORTS</text>

  <use href="#navItem" x="0" y="300"/>
  <text x="16" y="321" font-size="12" fill="#94A3B8">Sales Summary</text>
  <use href="#adminGear" x="186" y="311" width="10" height="10" opacity="0.3"/>

  <use href="#navItem" x="0" y="332"/>
  <text x="16" y="353" font-size="12" fill="#94A3B8">Labor Report</text>
  <use href="#adminGear" x="186" y="343" width="10" height="10" opacity="0.3"/>

  <!-- Menu Engineering – HIGHLIGHTED (active nav) -->
  <!-- DB: pos_navigation_items.active = true -->
  <use href="#navItemActive" x="0" y="364"/>
  <text x="16" y="386" font-size="12" font-weight="700" fill="#F59E0B">Menu Engineering</text>
  <use href="#adminGear" x="186" y="376" width="10" height="10" opacity="0.3"/>

  <use href="#navItem" x="0" y="400"/>
  <text x="16" y="421" font-size="12" fill="#94A3B8">Item Mix</text>
  <use href="#adminGear" x="186" y="411" width="10" height="10" opacity="0.3"/>

  <use href="#navItem" x="0" y="432"/>
  <text x="16" y="453" font-size="12" fill="#94A3B8">Void / Comp Report</text>
  <use href="#adminGear" x="186" y="443" width="10" height="10" opacity="0.3"/>

  <use href="#navItem" x="0" y="476"/>
  <text x="16" y="497" font-size="12" fill="#94A3B8">Inventory</text>
  <use href="#adminGear" x="186" y="487" width="10" height="10" opacity="0.3"/>

  <use href="#navItem" x="0" y="508"/>
  <text x="16" y="529" font-size="12" fill="#94A3B8">Integrations</text>
  <use href="#adminGear" x="186" y="519" width="10" height="10" opacity="0.3"/>

  <use href="#navItem" x="0" y="540"/>
  <text x="16" y="561" font-size="12" fill="#94A3B8">Advantage Prog.</text>
  <use href="#adminGear" x="186" y="551" width="10" height="10" opacity="0.3"/>

  <!-- ============================================================ -->
  <!--  TOP HEADER BAR                                              -->
  <!--  DB: pos_report_config (report type, date range)             -->
  <!-- ============================================================ -->
  <rect x="210" y="0" width="1156" height="56" fill="url(#headerGrad)" filter="url(#cardShadow)"/>
  <rect x="210" y="55" width="1156" height="1" fill="#2A2E45"/>
  <text x="228" y="24" font-size="18" font-weight="700" fill="#E2E8F0">Menu Engineering</text>
  <text x="228" y="44" font-size="11" fill="#64748B">Star / Plow Horse / Puzzle / Dog – Popularity x Contribution Margin analysis</text>
  <!-- Admin gear – editable report config -->
  <use href="#adminGear" x="440" y="10" width="14" height="14" opacity="0.3"/>

  <!-- Date range selector -->
  <!-- DB: pos_report_config.date_range -->
  <rect x="938" y="12" width="148" height="32" rx="6" fill="#1A1D2E" stroke="#2A2E45" stroke-width="1"/>
  <text x="952" y="32" font-size="12" fill="#94A3B8">Last 30 days  &#9662;</text>
  <use href="#adminGear" x="1064" y="18" width="12" height="12" opacity="0.3"/>

  <!-- Export to CSV -->
  <use href="#outlineBtn" x="1094" y="12" width="110" height="32"/>
  <text x="1106" y="32" font-size="12" fill="#94A3B8">Export to CSV</text>

  <!-- Print Report (primary button) -->
  <rect x="1212" y="12" width="100" height="32" rx="6" fill="#F59E0B" filter="url(#amberGlow)"/>
  <text x="1226" y="32" font-size="12" font-weight="700" fill="#000">Print Report</text>

  <!-- ============================================================ -->
  <!--  QUADRANT CHART SECTION (420px tall)                         -->
  <!--  DB: pos_menu_items JOIN pos_order_items (aggregated)        -->
  <!--  Quadrant = f(popularity_rank, contribution_margin)          -->
  <!-- ============================================================ -->

  <!-- Card background -->
  <rect x="218" y="64" width="1130" height="426" rx="8" fill="#1A1D2E" stroke="#2A2E45" stroke-width="1" filter="url(#cardShadow)"/>

  <!-- Section title -->
  <text x="234" y="88" font-size="14" font-weight="700" fill="#E2E8F0">Performance Quadrant</text>
  <text x="830" y="88" font-size="11" fill="#64748B">Bubble size = revenue volume  –  Apr 27 - May 26, 2026</text>
  <!-- Admin gear – editable quadrant thresholds -->
  <!-- DB: pos_menu_engineering.popularity_threshold, .margin_threshold -->
  <use href="#adminGear" x="370" y="76" width="12" height="12" opacity="0.3"/>

  <!-- ─────────────────────────────────────────────── -->
  <!--  CHART AREA                                     -->
  <!--  Origin: y-axis left, x-axis bottom             -->
  <!--  Inner box: x=[260..1340], y=[96..466]          -->
  <!--  Midpoint: x=800, y=281                         -->
  <!--  DB: Computed from pos_menu_items.cost,          -->
  <!--      pos_menu_items.price, pos_order_items.qty   -->
  <!-- ─────────────────────────────────────────────── -->

  <!-- Y-axis label -->
  <text transform="translate(234,290) rotate(-90)" text-anchor="middle" font-size="12" font-weight="600" fill="#94A3B8">Contribution Margin ($)</text>
  <text x="243" y="460" font-size="10" fill="#64748B" text-anchor="middle">Low</text>
  <text x="243" y="282" font-size="10" fill="#64748B" text-anchor="middle">Mid</text>
  <text x="243" y="105" font-size="10" fill="#64748B" text-anchor="middle">High</text>

  <!-- X-axis label -->
  <text x="830" y="490" text-anchor="middle" font-size="12" font-weight="600" fill="#94A3B8">Popularity (Orders)</text>
  <text x="351" y="476" font-size="10" fill="#64748B" text-anchor="middle">Low</text>
  <text x="830" y="476" font-size="10" fill="#64748B" text-anchor="middle">Mid</text>
  <text x="1309" y="476" font-size="10" fill="#64748B" text-anchor="middle">High</text>

  <!-- Chart border box -->
  <rect x="260" y="96" width="1080" height="370" rx="4" fill="#0C0E1A" stroke="#2A2E45" stroke-width="1"/>

  <!-- Midpoint dashed dividers -->
  <line x1="800" y1="96" x2="800" y2="466" stroke="#64748B" stroke-width="1" stroke-dasharray="6,4"/>
  <line x1="260" y1="281" x2="1340" y2="281" stroke="#64748B" stroke-width="1" stroke-dasharray="6,4"/>

  <!-- ── Quadrant labels ── -->

  <!-- TOP LEFT: PLOW HORSE (amber) -->
  <!-- DB: pos_menu_engineering.quadrant = 'plow_horse' -->
  <text x="290" y="126" font-size="16" font-weight="800" fill="#F59E0B" opacity="0.85">PLOW HORSE</text>
  <text x="290" y="144" font-size="11" fill="#F59E0B" opacity="0.6">High volume, low margin</text>

  <!-- TOP RIGHT: STAR (green) -->
  <!-- DB: pos_menu_engineering.quadrant = 'star' -->
  <text x="830" y="126" font-size="16" font-weight="800" fill="#22C55E" opacity="0.85">STAR</text>
  <text x="830" y="144" font-size="11" fill="#22C55E" opacity="0.6">High volume, high margin</text>

  <!-- BOTTOM LEFT: DOG (red) -->
  <!-- DB: pos_menu_engineering.quadrant = 'dog' -->
  <text x="290" y="430" font-size="16" font-weight="800" fill="#EF4444" opacity="0.85">DOG</text>
  <text x="290" y="448" font-size="11" fill="#EF4444" opacity="0.6">Low volume, low margin</text>

  <!-- BOTTOM RIGHT: PUZZLE (purple) -->
  <!-- DB: pos_menu_engineering.quadrant = 'puzzle' -->
  <text x="830" y="430" font-size="16" font-weight="800" fill="#8B5CF6" opacity="0.85">PUZZLE</text>
  <text x="830" y="448" font-size="11" fill="#8B5CF6" opacity="0.6">Low volume, high margin</text>

  <!-- ════════════════════════════════════════════════ -->
  <!--  PLOT DOTS                                      -->
  <!--  Each dot = one pos_menu_items row              -->
  <!--  cx = popularity rank mapped to x-axis          -->
  <!--  cy = contribution_margin mapped to y-axis      -->
  <!--  r  = revenue volume (scaled)                   -->
  <!--  DB: pos_menu_items JOIN pos_order_items         -->
  <!-- ════════════════════════════════════════════════ -->

  <!-- ── STARS (green) ── -->
  <!-- DB: pos_menu_items.id = 'classic-burger', quadrant = 'star' -->
  <circle cx="1220" cy="140" r="20" fill="#22C55E" opacity="0.85"/>
  <text x="1198" y="120" font-size="11" font-weight="700" fill="#22C55E">Classic Burger</text>

  <!-- DB: pos_menu_items.id = 'french-fries', quadrant = 'star' -->
  <circle cx="1090" cy="170" r="14" fill="#22C55E" opacity="0.8"/>
  <text x="1068" y="156" font-size="11" fill="#22C55E">French Fries</text>

  <!-- DB: pos_menu_items.id = 'draft-beer', quadrant = 'star' -->
  <circle cx="1000" cy="200" r="12" fill="#22C55E" opacity="0.75"/>
  <text x="978" y="186" font-size="11" fill="#22C55E">Draft Beer</text>

  <!-- ── PLOW HORSES (amber) ── -->
  <!-- DB: pos_menu_items.id = 'kids-mac-cheese', quadrant = 'plow_horse' -->
  <circle cx="680" cy="148" r="15" fill="#F59E0B" opacity="0.85"/>
  <text x="640" y="135" font-size="11" font-weight="600" fill="#F59E0B">Kids Mac &amp; Cheese</text>

  <!-- DB: pos_menu_items.id = 'house-salad', quadrant = 'plow_horse' -->
  <circle cx="560" cy="172" r="12" fill="#F59E0B" opacity="0.8"/>
  <text x="538" y="158" font-size="11" fill="#F59E0B">House Salad</text>

  <!-- DB: pos_menu_items.id = 'soft-drinks', quadrant = 'plow_horse' -->
  <circle cx="720" cy="250" r="11" fill="#F59E0B" opacity="0.75"/>
  <text x="698" y="238" font-size="11" fill="#F59E0B">Soft Drinks</text>

  <!-- ── DOGS (red) ── -->
  <!-- DB: pos_menu_items.id = 'onion-rings', quadrant = 'dog' -->
  <circle cx="400" cy="380" r="10" fill="#EF4444" opacity="0.85"/>
  <text x="378" y="366" font-size="11" fill="#EF4444">Onion Rings</text>

  <!-- DB: pos_menu_items.id = 'chicken-tenders', quadrant = 'dog' -->
  <circle cx="520" cy="410" r="9" fill="#EF4444" opacity="0.8"/>
  <text x="498" y="396" font-size="11" fill="#EF4444">Chicken Tenders</text>

  <!-- DB: pos_menu_items.id = 'veggie-wrap', quadrant = 'dog' -->
  <circle cx="350" cy="440" r="8" fill="#EF4444" opacity="0.75"/>
  <text x="328" y="428" font-size="11" fill="#EF4444">Veggie Wrap</text>

  <!-- DB: pos_menu_items.id = 'decaf-coffee', quadrant = 'dog' -->
  <circle cx="450" cy="450" r="7" fill="#EF4444" opacity="0.7"/>
  <text x="428" y="440" font-size="11" fill="#EF4444">Decaf Coffee</text>

  <!-- ── PUZZLES (purple) ── -->
  <!-- DB: pos_menu_items.id = 'wagyu-burger', quadrant = 'puzzle' -->
  <circle cx="870" cy="160" r="13" fill="#8B5CF6" opacity="0.85"/>
  <text x="848" y="147" font-size="11" font-weight="600" fill="#8B5CF6">Wagyu Burger</text>

  <!-- DB: pos_menu_items.id = 'lobster-bisque', quadrant = 'puzzle' -->
  <circle cx="950" cy="240" r="10" fill="#8B5CF6" opacity="0.8"/>
  <text x="928" y="228" font-size="11" fill="#8B5CF6">Lobster Bisque</text>

  <!-- ============================================================ -->
  <!--  RECOMMENDATION CARDS (4 quadrant action cards)              -->
  <!--  DB: pos_menu_engineering_actions                            -->
  <!--  Admin can edit recommendations, thresholds, actions         -->
  <!-- ============================================================ -->

  <text x="234" y="524" font-size="14" font-weight="700" fill="#E2E8F0">Recommendations &amp; Actions</text>
  <!-- Admin gear – editable action templates -->
  <!-- DB: pos_menu_engineering_actions (global config) -->
  <use href="#adminGear" x="430" y="512" width="12" height="12" opacity="0.3"/>

  <!-- ── Card 1: STARS (green) ── -->
  <!-- DB: pos_menu_engineering_actions WHERE quadrant = 'star' -->
  <rect x="218" y="534" width="270" height="390" rx="8" fill="#0D2B22" stroke="#22C55E" stroke-width="1.5" filter="url(#cardShadow)"/>
  <rect x="218" y="534" width="270" height="4" rx="2" fill="#22C55E"/>

  <text x="234" y="564" font-size="13" font-weight="800" fill="#22C55E">STARS</text>
  <use href="#pillBadge" x="334" y="549" width="62" height="20" fill="#22C55E"/>
  <text x="344" y="563" font-size="11" font-weight="700" fill="#22C55E">3 items</text>

  <!-- DB: pos_menu_engineering_actions.recommendation_text -->
  <text x="234" y="588" font-size="11" fill="#94A3B8">Promote heavily. Feature on menu</text>
  <text x="234" y="604" font-size="11" fill="#94A3B8">board. Train servers to suggest.</text>
  <use href="#adminGear" x="462" y="580" width="10" height="10" opacity="0.3"/>

  <line x1="234" y1="616" x2="472" y2="616" stroke="#2A2E45" stroke-width="1"/>

  <!-- Item rows using reusable symbol -->
  <!-- DB: pos_menu_items WHERE quadrant = 'star' -->
  <use href="#itemRow" x="234" y="626"/>
  <use href="#statusDot" x="244" y="639" width="10" height="10" fill="#22C55E"/>
  <text x="262" y="649" font-size="12" font-weight="600" fill="#E2E8F0">Classic Burger</text>
  <text x="420" y="649" font-size="11" fill="#22C55E">Top</text>
  <use href="#adminGear" x="460" y="639" width="10" height="10" opacity="0.3"/>

  <use href="#itemRow" x="234" y="670"/>
  <use href="#statusDot" x="244" y="683" width="10" height="10" fill="#22C55E"/>
  <text x="262" y="693" font-size="12" fill="#E2E8F0">French Fries</text>
  <use href="#adminGear" x="460" y="683" width="10" height="10" opacity="0.3"/>

  <use href="#itemRow" x="234" y="714"/>
  <use href="#statusDot" x="244" y="727" width="10" height="10" fill="#22C55E"/>
  <text x="262" y="737" font-size="12" fill="#E2E8F0">Draft Beer</text>
  <use href="#adminGear" x="460" y="727" width="10" height="10" opacity="0.3"/>

  <!-- Key metric -->
  <!-- DB: AVG(pos_menu_items.contribution_margin) WHERE quadrant = 'star' -->
  <use href="#metricCard" x="234" y="768"/>
  <text x="249" y="790" font-size="11" fill="#64748B">Avg contribution margin</text>
  <text x="249" y="812" font-size="22" font-weight="800" fill="#22C55E">$6.40</text>
  <use href="#adminGear" x="460" y="782" width="10" height="10" opacity="0.3"/>
  <!-- DB: SUM(pos_order_items.quantity) WHERE quadrant = 'star' -->
  <text x="249" y="834" font-size="11" fill="#64748B">Combined monthly orders</text>
  <text x="249" y="852" font-size="18" font-weight="700" fill="#E2E8F0">2,847</text>

  <!-- Action button -->
  <rect x="234" y="880" width="238" height="34" rx="6" fill="#22C55E"/>
  <text x="321" y="901" font-size="12" font-weight="700" fill="#000" text-anchor="middle">Feature on Board</text>

  <!-- ── Card 2: PLOW HORSES (amber) ── -->
  <!-- DB: pos_menu_engineering_actions WHERE quadrant = 'plow_horse' -->
  <rect x="504" y="534" width="270" height="390" rx="8" fill="#2B1F08" stroke="#F59E0B" stroke-width="1.5" filter="url(#cardShadow)"/>
  <rect x="504" y="534" width="270" height="4" rx="2" fill="#F59E0B"/>

  <text x="520" y="564" font-size="13" font-weight="800" fill="#F59E0B">PLOW HORSES</text>
  <use href="#pillBadge" x="638" y="549" width="62" height="20" fill="#F59E0B"/>
  <text x="648" y="563" font-size="11" font-weight="700" fill="#F59E0B">3 items</text>

  <!-- DB: pos_menu_engineering_actions.recommendation_text -->
  <text x="520" y="588" font-size="11" fill="#94A3B8">Increase price gradually. Reduce</text>
  <text x="520" y="604" font-size="11" fill="#94A3B8">portion cost. They drive traffic.</text>
  <use href="#adminGear" x="748" y="580" width="10" height="10" opacity="0.3"/>

  <line x1="520" y1="616" x2="758" y2="616" stroke="#2A2E45" stroke-width="1"/>

  <!-- DB: pos_menu_items WHERE quadrant = 'plow_horse' -->
  <use href="#itemRow" x="520" y="626"/>
  <use href="#statusDot" x="530" y="639" width="10" height="10" fill="#F59E0B"/>
  <text x="548" y="649" font-size="12" fill="#E2E8F0">Kids Mac &amp; Cheese</text>
  <use href="#adminGear" x="746" y="639" width="10" height="10" opacity="0.3"/>

  <use href="#itemRow" x="520" y="670"/>
  <use href="#statusDot" x="530" y="683" width="10" height="10" fill="#F59E0B"/>
  <text x="548" y="693" font-size="12" fill="#E2E8F0">House Salad</text>
  <use href="#adminGear" x="746" y="683" width="10" height="10" opacity="0.3"/>

  <use href="#itemRow" x="520" y="714"/>
  <use href="#statusDot" x="530" y="727" width="10" height="10" fill="#F59E0B"/>
  <text x="548" y="737" font-size="12" fill="#E2E8F0">Soft Drinks</text>
  <use href="#adminGear" x="746" y="727" width="10" height="10" opacity="0.3"/>

  <!-- DB: AVG(pos_menu_items.contribution_margin) WHERE quadrant = 'plow_horse' -->
  <use href="#metricCard" x="520" y="768"/>
  <text x="535" y="790" font-size="11" fill="#64748B">Avg contribution margin</text>
  <text x="535" y="812" font-size="22" font-weight="800" fill="#F59E0B">$1.85</text>
  <use href="#adminGear" x="746" y="782" width="10" height="10" opacity="0.3"/>
  <text x="535" y="834" font-size="11" fill="#64748B">Combined monthly orders</text>
  <text x="535" y="852" font-size="18" font-weight="700" fill="#E2E8F0">3,192</text>

  <rect x="520" y="880" width="238" height="34" rx="6" fill="#F59E0B"/>
  <text x="607" y="901" font-size="12" font-weight="700" fill="#000" text-anchor="middle">Adjust Pricing</text>

  <!-- ── Card 3: PUZZLES (purple) ── -->
  <!-- DB: pos_menu_engineering_actions WHERE quadrant = 'puzzle' -->
  <rect x="790" y="534" width="270" height="390" rx="8" fill="#1A1230" stroke="#8B5CF6" stroke-width="1.5" filter="url(#cardShadow)"/>
  <rect x="790" y="534" width="270" height="4" rx="2" fill="#8B5CF6"/>

  <text x="806" y="564" font-size="13" font-weight="800" fill="#8B5CF6">PUZZLES</text>
  <use href="#pillBadge" x="908" y="549" width="62" height="20" fill="#8B5CF6"/>
  <text x="918" y="563" font-size="11" font-weight="700" fill="#8B5CF6">2 items</text>

  <!-- DB: pos_menu_engineering_actions.recommendation_text -->
  <text x="806" y="588" font-size="11" fill="#94A3B8">Reposition on menu. Reduce</text>
  <text x="806" y="604" font-size="11" fill="#94A3B8">price to test volume. Train staff.</text>
  <use href="#adminGear" x="1034" y="580" width="10" height="10" opacity="0.3"/>

  <line x1="806" y1="616" x2="1044" y2="616" stroke="#2A2E45" stroke-width="1"/>

  <!-- DB: pos_menu_items WHERE quadrant = 'puzzle' -->
  <use href="#itemRow" x="806" y="626"/>
  <use href="#statusDot" x="816" y="639" width="10" height="10" fill="#8B5CF6"/>
  <text x="834" y="649" font-size="12" fill="#E2E8F0">Wagyu Burger</text>
  <!-- DB: pos_menu_items.price -->
  <text x="996" y="649" font-size="11" fill="#8B5CF6">$18.50</text>
  <use href="#adminGear" x="1032" y="639" width="10" height="10" opacity="0.3"/>

  <use href="#itemRow" x="806" y="670"/>
  <use href="#statusDot" x="816" y="683" width="10" height="10" fill="#8B5CF6"/>
  <text x="834" y="693" font-size="12" fill="#E2E8F0">Lobster Bisque</text>
  <text x="996" y="693" font-size="11" fill="#8B5CF6">$12.80</text>
  <use href="#adminGear" x="1032" y="683" width="10" height="10" opacity="0.3"/>

  <!-- DB: AVG(pos_menu_items.contribution_margin) WHERE quadrant = 'puzzle' -->
  <use href="#metricCard" x="806" y="768"/>
  <text x="821" y="790" font-size="11" fill="#64748B">Avg contribution margin</text>
  <text x="821" y="812" font-size="22" font-weight="800" fill="#8B5CF6">$15.65</text>
  <use href="#adminGear" x="1032" y="782" width="10" height="10" opacity="0.3"/>
  <text x="821" y="834" font-size="11" fill="#64748B">Combined monthly orders</text>
  <text x="821" y="852" font-size="18" font-weight="700" fill="#E2E8F0">312</text>

  <rect x="806" y="880" width="238" height="34" rx="6" fill="#8B5CF6"/>
  <text x="893" y="901" font-size="12" font-weight="700" fill="#fff" text-anchor="middle">Reposition Items</text>

  <!-- ── Card 4: DOGS (red) ── -->
  <!-- DB: pos_menu_engineering_actions WHERE quadrant = 'dog' -->
  <rect x="1076" y="534" width="270" height="390" rx="8" fill="#2B0A0A" stroke="#EF4444" stroke-width="1.5" filter="url(#cardShadow)"/>
  <rect x="1076" y="534" width="270" height="4" rx="2" fill="#EF4444"/>

  <text x="1092" y="564" font-size="13" font-weight="800" fill="#EF4444">DOGS</text>
  <use href="#pillBadge" x="1162" y="549" width="62" height="20" fill="#EF4444"/>
  <text x="1172" y="563" font-size="11" font-weight="700" fill="#EF4444">4 items</text>

  <!-- DB: pos_menu_engineering_actions.recommendation_text -->
  <text x="1092" y="588" font-size="11" fill="#94A3B8">Consider removing. If keeping,</text>
  <text x="1092" y="604" font-size="11" fill="#94A3B8">raise price. Avoid promoting.</text>
  <use href="#adminGear" x="1320" y="580" width="10" height="10" opacity="0.3"/>

  <line x1="1092" y1="616" x2="1330" y2="616" stroke="#2A2E45" stroke-width="1"/>

  <!-- DB: pos_menu_items WHERE quadrant = 'dog' -->
  <use href="#itemRow" x="1092" y="626"/>
  <use href="#statusDot" x="1102" y="639" width="10" height="10" fill="#EF4444"/>
  <text x="1120" y="649" font-size="12" fill="#E2E8F0">Onion Rings</text>
  <use href="#adminGear" x="1318" y="639" width="10" height="10" opacity="0.3"/>

  <use href="#itemRow" x="1092" y="670"/>
  <use href="#statusDot" x="1102" y="683" width="10" height="10" fill="#EF4444"/>
  <text x="1120" y="693" font-size="12" fill="#E2E8F0">Chicken Tenders</text>
  <use href="#adminGear" x="1318" y="683" width="10" height="10" opacity="0.3"/>

  <use href="#itemRow" x="1092" y="714"/>
  <use href="#statusDot" x="1102" y="727" width="10" height="10" fill="#EF4444"/>
  <text x="1120" y="737" font-size="12" fill="#E2E8F0">Veggie Wrap</text>
  <use href="#adminGear" x="1318" y="727" width="10" height="10" opacity="0.3"/>

  <use href="#itemRow" x="1092" y="758"/>
  <use href="#statusDot" x="1102" y="771" width="10" height="10" fill="#EF4444"/>
  <text x="1120" y="781" font-size="12" fill="#E2E8F0">Decaf Coffee</text>
  <use href="#adminGear" x="1318" y="771" width="10" height="10" opacity="0.3"/>

  <!-- DB: AVG(pos_menu_items.contribution_margin) WHERE quadrant = 'dog' -->
  <rect x="1092" y="808" width="238" height="56" rx="6" fill="#0C0E1A"/>
  <text x="1107" y="828" font-size="11" fill="#64748B">Avg contribution margin</text>
  <text x="1107" y="850" font-size="22" font-weight="800" fill="#EF4444">$0.92</text>
  <use href="#adminGear" x="1318" y="822" width="10" height="10" opacity="0.3"/>

  <rect x="1092" y="880" width="238" height="34" rx="6" fill="#EF4444"/>
  <text x="1179" y="901" font-size="12" font-weight="700" fill="#fff" text-anchor="middle">Review &amp; Remove</text>

  <!-- ============================================================ -->
  <!--  BOTTOM ACTION BAR                                           -->
  <!--  DB: pos_report_config (export settings, sharing)            -->
  <!-- ============================================================ -->
  <rect x="218" y="936" width="1130" height="52" rx="8" fill="#1A1D2E" stroke="#2A2E45" stroke-width="1"/>

  <!-- DB: pos_report_config.date_range -->
  <text x="234" y="967" font-size="12" fill="#64748B">Report period:</text>
  <rect x="326" y="948" width="148" height="28" rx="6" fill="#0C0E1A" stroke="#2A2E45" stroke-width="1"/>
  <text x="340" y="967" font-size="12" fill="#94A3B8">Last 30 days  &#9662;</text>
  <use href="#adminGear" x="454" y="955" width="10" height="10" opacity="0.3"/>

  <text x="500" y="967" font-size="12" fill="#64748B">Apr 27 - May 26, 2026</text>

  <line x1="700" y1="952" x2="700" y2="980" stroke="#2A2E45" stroke-width="1"/>

  <!-- Export to CSV -->
  <rect x="716" y="948" width="120" height="28" rx="6" fill="#0C0E1A" stroke="#2A2E45" stroke-width="1"/>
  <text x="736" y="967" font-size="12" fill="#94A3B8">Export to CSV</text>

  <!-- Print Report -->
  <rect x="848" y="948" width="110" height="28" rx="6" fill="#0C0E1A" stroke="#2A2E45" stroke-width="1"/>
  <text x="866" y="967" font-size="12" fill="#94A3B8">Print Report</text>

  <!-- Share with Manager (primary action) -->
  <!-- DB: pos_report_sharing -->
  <rect x="970" y="948" width="148" height="28" rx="6" fill="#F59E0B"/>
  <text x="990" y="967" font-size="12" font-weight="700" fill="#000">Share with Manager</text>
  <use href="#adminGear" x="1130" y="953" width="10" height="10" opacity="0.3"/>

  <!-- Save Config button – admin portal saveable -->
  <!-- DB: pos_report_config (persists admin preferences) -->
  <rect x="1186" y="948" width="150" height="28" rx="6" fill="#1A1D2E" stroke="#F59E0B" stroke-width="1"/>
  <text x="1208" y="967" font-size="12" font-weight="600" fill="#F59E0B">Save Config</text>
  <use href="#adminGear" x="1316" y="953" width="10" height="10" opacity="0.3"/>

  <!-- Generated timestamp -->
  <text x="234" y="1004" font-size="10" fill="#64748B">Generated May 26, 2026 – Synalux POS Admin Portal</text>

</svg>
