<svg xmlns="http://www.w3.org/2000/svg" viewBox="0 0 1366 1024" font-family="system-ui,-apple-system,BlinkMacSystemFont,'Segoe UI',sans-serif">

  <!-- Background -->
  <rect width="1366" height="1024" fill="#0F1117"/>

  <!-- ══════════════════════════════════════════════
       HEADER (full width)
  ══════════════════════════════════════════════ -->
  <rect x="0" y="0" width="1366" height="64" fill="#1A1D2E"/>
  <rect x="0" y="63" width="1366" height="1" fill="#2D3148"/>

  <!-- Header title area -->
  <text x="24" y="26" font-size="19" font-weight="700" fill="#F1F5F9">Form Generator</text>
  <text x="24" y="48" font-size="11" fill="#94A3B8">Print operational forms on demand — ESC/POS receipt printer or PDF</text>

  <!-- Tabs -->
  <rect x="860" y="12" width="148" height="36" rx="6" fill="#F59E0B"/>
  <text x="921" y="34" font-size="12" font-weight="700" fill="#0F1117" text-anchor="middle">Forms Library</text>
  <rect x="1016" y="12" width="140" height="36" rx="6" fill="#1A1D2E" stroke="#2D3148" stroke-width="1"/>
  <text x="1086" y="34" font-size="12" fill="#94A3B8" text-anchor="middle">Custom Forms</text>

  <!-- ══════════════════════════════════════════════
       LEFT PANEL — Forms Library (x=0, w=380)
  ══════════════════════════════════════════════ -->
  <rect x="0" y="64" width="380" height="960" fill="#13162A"/>
  <rect x="380" y="64" width="1" height="960" fill="#2D3148"/>

  <!-- Panel header -->
  <text x="16" y="92" font-size="13" font-weight="700" fill="#F1F5F9">Forms Library</text>
  <text x="348" y="92" font-size="11" fill="#64748B" text-anchor="end">12 forms</text>

  <!-- Search bar -->
  <rect x="12" y="100" width="356" height="34" rx="7" fill="#0F1117" stroke="#2D3148" stroke-width="1"/>
  <text x="36" y="122" font-size="12" fill="#64748B">🔍 Search forms...</text>

  <!-- ── Form card helper: each card is 356w × 68h, spaced 4px apart ── -->
  <!-- Card 1: Cash Count Sheet -->
  <rect x="12" y="142" width="356" height="64" rx="6" fill="#1A1D2E" stroke="#2D3148" stroke-width="1"/>
  <rect x="12" y="142" width="3" height="64" rx="2" fill="#F59E0B"/>
  <text x="28" y="164" font-size="18">📋</text>
  <text x="56" y="162" font-size="12" font-weight="600" fill="#F1F5F9">Cash Count Sheet</text>
  <text x="56" y="177" font-size="10" fill="#94A3B8">End-of-day denomination tally with variance</text>
  <rect x="246" y="151" width="50" height="22" rx="4" fill="#F59E0B"/>
  <text x="271" y="166" font-size="10" font-weight="700" fill="#0F1117" text-anchor="middle">Print</text>
  <rect x="302" y="151" width="58" height="22" rx="4" fill="#1A1D2E" stroke="#2D3148" stroke-width="1"/>
  <text x="331" y="166" font-size="10" fill="#94A3B8" text-anchor="middle">PDF</text>

  <!-- Card 2: Void Authorization -->
  <rect x="12" y="210" width="356" height="64" rx="6" fill="#1E2240" stroke="#2D3148" stroke-width="1"/>
  <text x="28" y="232" font-size="18">✅</text>
  <text x="56" y="230" font-size="12" font-weight="600" fill="#F1F5F9">Void Authorization</text>
  <text x="56" y="245" font-size="10" fill="#94A3B8">Manager sign-off for voided transactions</text>
  <rect x="246" y="219" width="50" height="22" rx="4" fill="#F59E0B"/>
  <text x="271" y="234" font-size="10" font-weight="700" fill="#0F1117" text-anchor="middle">Print</text>
  <rect x="302" y="219" width="58" height="22" rx="4" fill="#1A1D2E" stroke="#2D3148" stroke-width="1"/>
  <text x="331" y="234" font-size="10" fill="#94A3B8" text-anchor="middle">PDF</text>

  <!-- Card 3: Tax-Exempt Certificate -->
  <rect x="12" y="278" width="356" height="64" rx="6" fill="#1A1D2E" stroke="#2D3148" stroke-width="1"/>
  <text x="28" y="300" font-size="18">🏛️</text>
  <text x="56" y="298" font-size="12" font-weight="600" fill="#F1F5F9">Tax-Exempt Certificate</text>
  <text x="56" y="313" font-size="10" fill="#94A3B8">Sales tax exemption (IRS 501(c)/state cert)</text>
  <rect x="246" y="287" width="50" height="22" rx="4" fill="#F59E0B"/>
  <text x="271" y="302" font-size="10" font-weight="700" fill="#0F1117" text-anchor="middle">Print</text>
  <rect x="302" y="287" width="58" height="22" rx="4" fill="#1A1D2E" stroke="#2D3148" stroke-width="1"/>
  <text x="331" y="302" font-size="10" fill="#94A3B8" text-anchor="middle">PDF</text>

  <!-- Card 4: Catering Order Form -->
  <rect x="12" y="346" width="356" height="64" rx="6" fill="#1E2240" stroke="#2D3148" stroke-width="1"/>
  <text x="28" y="368" font-size="18">🍽️</text>
  <text x="56" y="366" font-size="12" font-weight="600" fill="#F1F5F9">Catering Order Form</text>
  <text x="56" y="381" font-size="10" fill="#94A3B8">Multi-page proposal with deposit, menu, timeline</text>
  <rect x="246" y="355" width="50" height="22" rx="4" fill="#F59E0B"/>
  <text x="271" y="370" font-size="10" font-weight="700" fill="#0F1117" text-anchor="middle">Print</text>
  <rect x="302" y="355" width="58" height="22" rx="4" fill="#1A1D2E" stroke="#2D3148" stroke-width="1"/>
  <text x="331" y="370" font-size="10" fill="#94A3B8" text-anchor="middle">PDF</text>

  <!-- Card 5: Server Tip Declaration -->
  <rect x="12" y="414" width="356" height="64" rx="6" fill="#1A1D2E" stroke="#2D3148" stroke-width="1"/>
  <text x="28" y="436" font-size="18">💵</text>
  <text x="56" y="434" font-size="12" font-weight="600" fill="#F1F5F9">Server Tip Declaration</text>
  <text x="56" y="449" font-size="10" fill="#94A3B8">Daily tip report for payroll/IRS compliance</text>
  <rect x="246" y="423" width="50" height="22" rx="4" fill="#F59E0B"/>
  <text x="271" y="438" font-size="10" font-weight="700" fill="#0F1117" text-anchor="middle">Print</text>
  <rect x="302" y="423" width="58" height="22" rx="4" fill="#1A1D2E" stroke="#2D3148" stroke-width="1"/>
  <text x="331" y="438" font-size="10" fill="#94A3B8" text-anchor="middle">PDF</text>

  <!-- Card 6: Inventory Count Sheet -->
  <rect x="12" y="482" width="356" height="64" rx="6" fill="#1E2240" stroke="#2D3148" stroke-width="1"/>
  <text x="28" y="504" font-size="18">📦</text>
  <text x="56" y="502" font-size="12" font-weight="600" fill="#F1F5F9">Inventory Count Sheet</text>
  <text x="56" y="517" font-size="10" fill="#94A3B8">Current stock list with on-hand count fields</text>
  <rect x="246" y="491" width="50" height="22" rx="4" fill="#F59E0B"/>
  <text x="271" y="506" font-size="10" font-weight="700" fill="#0F1117" text-anchor="middle">Print</text>
  <rect x="302" y="491" width="58" height="22" rx="4" fill="#1A1D2E" stroke="#2D3148" stroke-width="1"/>
  <text x="331" y="506" font-size="10" fill="#94A3B8" text-anchor="middle">PDF</text>

  <!-- Card 7: Time-Off Request -->
  <rect x="12" y="550" width="356" height="64" rx="6" fill="#1A1D2E" stroke="#2D3148" stroke-width="1"/>
  <text x="28" y="572" font-size="18">🗓️</text>
  <text x="56" y="570" font-size="12" font-weight="600" fill="#F1F5F9">Time-Off Request</text>
  <text x="56" y="585" font-size="10" fill="#94A3B8">Employee leave with manager approval signature</text>
  <rect x="246" y="559" width="50" height="22" rx="4" fill="#F59E0B"/>
  <text x="271" y="574" font-size="10" font-weight="700" fill="#0F1117" text-anchor="middle">Print</text>
  <rect x="302" y="559" width="58" height="22" rx="4" fill="#1A1D2E" stroke="#2D3148" stroke-width="1"/>
  <text x="331" y="574" font-size="10" fill="#94A3B8" text-anchor="middle">PDF</text>

  <!-- Card 8: Purchase Order -->
  <rect x="12" y="618" width="356" height="64" rx="6" fill="#1E2240" stroke="#2D3148" stroke-width="1"/>
  <text x="28" y="640" font-size="18">🛒</text>
  <text x="56" y="638" font-size="12" font-weight="600" fill="#F1F5F9">Purchase Order</text>
  <text x="56" y="653" font-size="10" fill="#94A3B8">Vendor PO with line items, costs, delivery date</text>
  <rect x="246" y="627" width="50" height="22" rx="4" fill="#F59E0B"/>
  <text x="271" y="642" font-size="10" font-weight="700" fill="#0F1117" text-anchor="middle">Print</text>
  <rect x="302" y="627" width="58" height="22" rx="4" fill="#1A1D2E" stroke="#2D3148" stroke-width="1"/>
  <text x="331" y="642" font-size="10" fill="#94A3B8" text-anchor="middle">PDF</text>

  <!-- Card 9: Incident/Waste Log -->
  <rect x="12" y="686" width="356" height="64" rx="6" fill="#1A1D2E" stroke="#2D3148" stroke-width="1"/>
  <text x="28" y="708" font-size="18">⚠️</text>
  <text x="56" y="706" font-size="12" font-weight="600" fill="#F1F5F9">Incident / Waste Log</text>
  <text x="56" y="721" font-size="10" fill="#94A3B8">Food waste, accidents, near-misses, root cause</text>
  <rect x="246" y="695" width="50" height="22" rx="4" fill="#F59E0B"/>
  <text x="271" y="710" font-size="10" font-weight="700" fill="#0F1117" text-anchor="middle">Print</text>
  <rect x="302" y="695" width="58" height="22" rx="4" fill="#1A1D2E" stroke="#2D3148" stroke-width="1"/>
  <text x="331" y="710" font-size="10" fill="#94A3B8" text-anchor="middle">PDF</text>

  <!-- Card 10: Daily Specials Board -->
  <rect x="12" y="754" width="356" height="64" rx="6" fill="#1E2240" stroke="#2D3148" stroke-width="1"/>
  <text x="28" y="776" font-size="18">⭐</text>
  <text x="56" y="774" font-size="12" font-weight="600" fill="#F1F5F9">Daily Specials Board</text>
  <text x="56" y="789" font-size="10" fill="#94A3B8">Server-facing specials, allergens, 86's</text>
  <rect x="246" y="763" width="50" height="22" rx="4" fill="#F59E0B"/>
  <text x="271" y="778" font-size="10" font-weight="700" fill="#0F1117" text-anchor="middle">Print</text>
  <rect x="302" y="763" width="58" height="22" rx="4" fill="#1A1D2E" stroke="#2D3148" stroke-width="1"/>
  <text x="331" y="778" font-size="10" fill="#94A3B8" text-anchor="middle">PDF</text>

  <!-- Card 11: Prep List -->
  <rect x="12" y="822" width="356" height="64" rx="6" fill="#1A1D2E" stroke="#2D3148" stroke-width="1"/>
  <text x="28" y="844" font-size="18">📑</text>
  <text x="56" y="842" font-size="12" font-weight="600" fill="#F1F5F9">Prep List</text>
  <text x="56" y="857" font-size="10" fill="#94A3B8">Kitchen opening/closing prep tasks by station</text>
  <rect x="246" y="831" width="50" height="22" rx="4" fill="#F59E0B"/>
  <text x="271" y="846" font-size="10" font-weight="700" fill="#0F1117" text-anchor="middle">Print</text>
  <rect x="302" y="831" width="58" height="22" rx="4" fill="#1A1D2E" stroke="#2D3148" stroke-width="1"/>
  <text x="331" y="846" font-size="10" fill="#94A3B8" text-anchor="middle">PDF</text>

  <!-- Card 12: Server Checkout -->
  <rect x="12" y="890" width="356" height="64" rx="6" fill="#1E2240" stroke="#2D3148" stroke-width="1"/>
  <text x="28" y="912" font-size="18">🕐</text>
  <text x="56" y="910" font-size="12" font-weight="600" fill="#F1F5F9">Server Checkout</text>
  <text x="56" y="925" font-size="10" fill="#94A3B8">End-of-shift cash turn-in reconciliation</text>
  <rect x="246" y="899" width="50" height="22" rx="4" fill="#F59E0B"/>
  <text x="271" y="914" font-size="10" font-weight="700" fill="#0F1117" text-anchor="middle">Print</text>
  <rect x="302" y="899" width="58" height="22" rx="4" fill="#1A1D2E" stroke="#2D3148" stroke-width="1"/>
  <text x="331" y="914" font-size="10" fill="#94A3B8" text-anchor="middle">PDF</text>

  <!-- ══════════════════════════════════════════════
       CENTER PANEL — Form Preview (x=381, w=619)
  ══════════════════════════════════════════════ -->
  <rect x="381" y="64" width="619" height="960" fill="#0F1117"/>
  <rect x="1000" y="64" width="1" height="960" fill="#2D3148"/>

  <!-- Center panel header bar -->
  <rect x="381" y="64" width="619" height="52" fill="#1A1D2E"/>
  <rect x="381" y="115" width="619" height="1" fill="#2D3148"/>
  <text x="397" y="94" font-size="13" font-weight="700" fill="#F1F5F9">Cash Count Sheet</text>
  <!-- Print button -->
  <rect x="750" y="74" width="72" height="30" rx="6" fill="#F59E0B"/>
  <text x="786" y="93" font-size="11" font-weight="700" fill="#0F1117" text-anchor="middle">⎙ Print</text>
  <!-- Export PDF button -->
  <rect x="828" y="74" width="90" height="30" rx="6" fill="#1A1D2E" stroke="#2D3148" stroke-width="1"/>
  <text x="873" y="93" font-size="11" fill="#94A3B8" text-anchor="middle">Export PDF</text>
  <!-- Customize button -->
  <rect x="924" y="74" width="70" height="30" rx="6" fill="#8B5CF6"/>
  <text x="959" y="93" font-size="11" font-weight="600" fill="#FFF" text-anchor="middle">Customize</text>

  <!-- Receipt paper preview — white area centered -->
  <!-- Shadow -->
  <rect x="472" y="126" width="446" height="900" rx="2" fill="#00000044"/>
  <!-- Paper body -->
  <rect x="469" y="122" width="446" height="896" rx="2" fill="#FAFAFA"/>

  <!-- Tear-edge effect top -->
  <path d="M469,122 Q475,118 481,122 Q487,118 493,122 Q499,118 505,122 Q511,118 517,122 Q523,118 529,122 Q535,118 541,122 Q547,118 553,122 Q559,118 565,122 Q571,118 577,122 Q583,118 589,122 Q595,118 601,122 Q607,118 613,122 Q619,118 625,122 Q631,118 637,122 Q643,118 649,122 Q655,118 661,122 Q667,118 673,122 Q679,118 685,122 Q691,118 697,122 Q703,118 709,122 Q715,118 721,122 Q727,118 733,122 Q739,118 745,122 Q751,118 757,122 Q763,118 769,122 Q775,118 781,122 Q787,118 793,122 Q799,118 805,122 Q811,118 817,122 Q823,118 829,122 Q835,118 841,122 Q847,118 853,122 Q859,118 865,122 Q871,118 877,122 Q883,118 889,122 Q895,118 901,122 Q907,118 913,122 L915,122" fill="none" stroke="#E2E8F0" stroke-width="1"/>

  <!-- Logo area placeholder -->
  <rect x="540" y="136" width="90" height="50" rx="4" fill="#E2E8F0"/>
  <text x="585" y="166" font-size="9" fill="#94A3B8" text-anchor="middle">LOGO</text>

  <!-- Business name -->
  <text x="692" y="152" font-size="11" font-weight="700" fill="#1E293B" text-anchor="middle">THE BISTRO</text>
  <text x="692" y="165" font-size="9" fill="#64748B" text-anchor="middle">123 Main St · (555) 867-5309</text>

  <!-- Main title -->
  <text x="692" y="208" font-size="14" font-weight="800" fill="#0F172A" text-anchor="middle" letter-spacing="2">CASH COUNT SHEET</text>
  <line x1="490" y1="214" x2="894" y2="214" stroke="#CBD5E1" stroke-width="1.5"/>

  <!-- Date/Shift row -->
  <text x="492" y="234" font-size="10" fill="#334155">Date:</text>
  <line x1="520" y1="236" x2="620" y2="236" stroke="#94A3B8" stroke-width="0.8" stroke-dasharray="3,2"/>
  <text x="630" y="234" font-size="10" fill="#334155">Shift:</text>
  <!-- Shift circles -->
  <circle cx="672" cy="232" r="9" fill="none" stroke="#334155" stroke-width="1"/>
  <text x="672" y="236" font-size="8" fill="#334155" text-anchor="middle">AM</text>
  <circle cx="693" cy="232" r="9" fill="none" stroke="#334155" stroke-width="1"/>
  <text x="693" y="236" font-size="8" fill="#334155" text-anchor="middle">PM</text>
  <circle cx="716" cy="232" r="9" fill="none" stroke="#334155" stroke-width="1"/>
  <text x="716" y="236" font-size="8" fill="#334155" text-anchor="middle">EVE</text>

  <!-- Cashier/Manager row -->
  <text x="492" y="256" font-size="10" fill="#334155">Cashier:</text>
  <line x1="534" y1="258" x2="664" y2="258" stroke="#94A3B8" stroke-width="0.8" stroke-dasharray="3,2"/>
  <text x="672" y="256" font-size="10" fill="#334155">Manager:</text>
  <line x1="716" y1="258" x2="845" y2="258" stroke="#94A3B8" stroke-width="0.8" stroke-dasharray="3,2"/>

  <!-- Section divider -->
  <line x1="490" y1="270" x2="894" y2="270" stroke="#CBD5E1" stroke-width="1"/>

  <!-- BILLS section header -->
  <text x="492" y="286" font-size="9" font-weight="700" fill="#64748B" letter-spacing="1">BILLS</text>

  <!-- Bill rows -->
  <!-- $100 -->
  <text x="492" y="302" font-size="10" fill="#1E293B">$100</text>
  <text x="524" y="302" font-size="10" fill="#334155">×</text>
  <line x1="534" y1="304" x2="584" y2="304" stroke="#94A3B8" stroke-width="0.8" stroke-dasharray="3,2"/>
  <text x="592" y="302" font-size="10" fill="#334155">=  $</text>
  <line x1="615" y1="304" x2="660" y2="304" stroke="#94A3B8" stroke-width="0.8" stroke-dasharray="3,2"/>

  <!-- $50 -->
  <text x="492" y="318" font-size="10" fill="#1E293B">$50</text>
  <text x="524" y="318" font-size="10" fill="#334155">×</text>
  <line x1="534" y1="320" x2="584" y2="320" stroke="#94A3B8" stroke-width="0.8" stroke-dasharray="3,2"/>
  <text x="592" y="318" font-size="10" fill="#334155">=  $</text>
  <line x1="615" y1="320" x2="660" y2="320" stroke="#94A3B8" stroke-width="0.8" stroke-dasharray="3,2"/>

  <!-- $20 -->
  <text x="492" y="334" font-size="10" fill="#1E293B">$20</text>
  <text x="524" y="334" font-size="10" fill="#334155">×</text>
  <line x1="534" y1="336" x2="584" y2="336" stroke="#94A3B8" stroke-width="0.8" stroke-dasharray="3,2"/>
  <text x="592" y="334" font-size="10" fill="#334155">=  $</text>
  <line x1="615" y1="336" x2="660" y2="336" stroke="#94A3B8" stroke-width="0.8" stroke-dasharray="3,2"/>

  <!-- $10 -->
  <text x="492" y="350" font-size="10" fill="#1E293B">$10</text>
  <text x="524" y="350" font-size="10" fill="#334155">×</text>
  <line x1="534" y1="352" x2="584" y2="352" stroke="#94A3B8" stroke-width="0.8" stroke-dasharray="3,2"/>
  <text x="592" y="350" font-size="10" fill="#334155">=  $</text>
  <line x1="615" y1="352" x2="660" y2="352" stroke="#94A3B8" stroke-width="0.8" stroke-dasharray="3,2"/>

  <!-- $5 -->
  <text x="492" y="366" font-size="10" fill="#1E293B">$5</text>
  <text x="524" y="366" font-size="10" fill="#334155">×</text>
  <line x1="534" y1="368" x2="584" y2="368" stroke="#94A3B8" stroke-width="0.8" stroke-dasharray="3,2"/>
  <text x="592" y="366" font-size="10" fill="#334155">=  $</text>
  <line x1="615" y1="368" x2="660" y2="368" stroke="#94A3B8" stroke-width="0.8" stroke-dasharray="3,2"/>

  <!-- $2 -->
  <text x="492" y="382" font-size="10" fill="#1E293B">$2</text>
  <text x="524" y="382" font-size="10" fill="#334155">×</text>
  <line x1="534" y1="384" x2="584" y2="384" stroke="#94A3B8" stroke-width="0.8" stroke-dasharray="3,2"/>
  <text x="592" y="382" font-size="10" fill="#334155">=  $</text>
  <line x1="615" y1="384" x2="660" y2="384" stroke="#94A3B8" stroke-width="0.8" stroke-dasharray="3,2"/>

  <!-- $1 -->
  <text x="492" y="398" font-size="10" fill="#1E293B">$1</text>
  <text x="524" y="398" font-size="10" fill="#334155">×</text>
  <line x1="534" y1="400" x2="584" y2="400" stroke="#94A3B8" stroke-width="0.8" stroke-dasharray="3,2"/>
  <text x="592" y="398" font-size="10" fill="#334155">=  $</text>
  <line x1="615" y1="400" x2="660" y2="400" stroke="#94A3B8" stroke-width="0.8" stroke-dasharray="3,2"/>

  <!-- Bills Subtotal -->
  <rect x="490" y="408" width="200" height="18" fill="#F1F5F9"/>
  <text x="492" y="420" font-size="10" font-weight="700" fill="#0F172A">Bills Subtotal:</text>
  <text x="592" y="420" font-size="10" fill="#334155">$</text>
  <line x1="600" y1="422" x2="660" y2="422" stroke="#94A3B8" stroke-width="0.8" stroke-dasharray="3,2"/>

  <!-- COINS section header -->
  <line x1="490" y1="434" x2="894" y2="434" stroke="#CBD5E1" stroke-width="1"/>
  <text x="492" y="448" font-size="9" font-weight="700" fill="#64748B" letter-spacing="1">COINS</text>

  <!-- Quarters -->
  <text x="492" y="464" font-size="10" fill="#1E293B">Quarters ($0.25)</text>
  <text x="590" y="464" font-size="10" fill="#334155">×</text>
  <line x1="600" y1="466" x2="640" y2="466" stroke="#94A3B8" stroke-width="0.8" stroke-dasharray="3,2"/>
  <text x="648" y="464" font-size="10" fill="#334155">=  $</text>
  <line x1="671" y1="466" x2="720" y2="466" stroke="#94A3B8" stroke-width="0.8" stroke-dasharray="3,2"/>

  <!-- Dimes -->
  <text x="492" y="480" font-size="10" fill="#1E293B">Dimes ($0.10)</text>
  <text x="590" y="480" font-size="10" fill="#334155">×</text>
  <line x1="600" y1="482" x2="640" y2="482" stroke="#94A3B8" stroke-width="0.8" stroke-dasharray="3,2"/>
  <text x="648" y="480" font-size="10" fill="#334155">=  $</text>
  <line x1="671" y1="482" x2="720" y2="482" stroke="#94A3B8" stroke-width="0.8" stroke-dasharray="3,2"/>

  <!-- Nickels -->
  <text x="492" y="496" font-size="10" fill="#1E293B">Nickels ($0.05)</text>
  <text x="590" y="496" font-size="10" fill="#334155">×</text>
  <line x1="600" y1="498" x2="640" y2="498" stroke="#94A3B8" stroke-width="0.8" stroke-dasharray="3,2"/>
  <text x="648" y="496" font-size="10" fill="#334155">=  $</text>
  <line x1="671" y1="498" x2="720" y2="498" stroke="#94A3B8" stroke-width="0.8" stroke-dasharray="3,2"/>

  <!-- Pennies -->
  <text x="492" y="512" font-size="10" fill="#1E293B">Pennies ($0.01)</text>
  <text x="590" y="512" font-size="10" fill="#334155">×</text>
  <line x1="600" y1="514" x2="640" y2="514" stroke="#94A3B8" stroke-width="0.8" stroke-dasharray="3,2"/>
  <text x="648" y="512" font-size="10" fill="#334155">=  $</text>
  <line x1="671" y1="514" x2="720" y2="514" stroke="#94A3B8" stroke-width="0.8" stroke-dasharray="3,2"/>

  <!-- Coins Subtotal -->
  <rect x="490" y="522" width="240" height="18" fill="#F1F5F9"/>
  <text x="492" y="534" font-size="10" font-weight="700" fill="#0F172A">Coins Subtotal:</text>
  <text x="592" y="534" font-size="10" fill="#334155">$</text>
  <line x1="600" y1="536" x2="660" y2="536" stroke="#94A3B8" stroke-width="0.8" stroke-dasharray="3,2"/>

  <!-- Thick divider -->
  <line x1="490" y1="548" x2="894" y2="548" stroke="#334155" stroke-width="1.5"/>

  <!-- TOTAL COUNTED -->
  <rect x="490" y="554" width="410" height="22" fill="#EFF6FF"/>
  <text x="492" y="569" font-size="11" font-weight="800" fill="#0F172A">TOTAL COUNTED:</text>
  <text x="630" y="569" font-size="11" font-weight="700" fill="#0F172A">$</text>
  <line x1="644" y1="571" x2="730" y2="571" stroke="#334155" stroke-width="1"/>

  <!-- Expected Float -->
  <text x="492" y="590" font-size="10" fill="#334155">Expected Float:</text>
  <text x="600" y="590" font-size="10" fill="#334155">$</text>
  <line x1="614" y1="592" x2="700" y2="592" stroke="#94A3B8" stroke-width="0.8" stroke-dasharray="3,2"/>

  <!-- VARIANCE -->
  <rect x="490" y="598" width="410" height="22" fill="#FEF3C7"/>
  <text x="492" y="613" font-size="11" font-weight="800" fill="#92400E">VARIANCE (+/−):</text>
  <text x="630" y="613" font-size="11" font-weight="700" fill="#92400E">$</text>
  <line x1="644" y1="615" x2="730" y2="615" stroke="#D97706" stroke-width="1"/>

  <!-- Variance Reason -->
  <text x="492" y="632" font-size="10" fill="#334155">Variance Reason:</text>
  <line x1="572" y1="634" x2="894" y2="634" stroke="#94A3B8" stroke-width="0.8" stroke-dasharray="3,2"/>

  <!-- Divider -->
  <line x1="490" y1="644" x2="894" y2="644" stroke="#CBD5E1" stroke-width="1"/>

  <!-- Paid-In / Paid-Out / Safe Drop row -->
  <text x="492" y="660" font-size="10" fill="#334155">Paid-In: $</text>
  <line x1="540" y1="662" x2="580" y2="662" stroke="#94A3B8" stroke-width="0.8" stroke-dasharray="3,2"/>
  <text x="592" y="660" font-size="10" fill="#334155">Paid-Out: $</text>
  <line x1="644" y1="662" x2="684" y2="662" stroke="#94A3B8" stroke-width="0.8" stroke-dasharray="3,2"/>
  <text x="696" y="660" font-size="10" fill="#334155">Safe Drop: $</text>
  <line x1="754" y1="662" x2="800" y2="662" stroke="#94A3B8" stroke-width="0.8" stroke-dasharray="3,2"/>

  <!-- Divider -->
  <line x1="490" y1="672" x2="894" y2="672" stroke="#CBD5E1" stroke-width="1"/>

  <!-- Cashier signature row -->
  <text x="492" y="690" font-size="10" fill="#334155">Cashier Signature:</text>
  <line x1="578" y1="692" x2="730" y2="692" stroke="#334155" stroke-width="0.8"/>
  <text x="742" y="690" font-size="10" fill="#334155">Date:</text>
  <line x1="766" y1="692" x2="840" y2="692" stroke="#334155" stroke-width="0.8"/>

  <!-- Manager signature row -->
  <text x="492" y="712" font-size="10" fill="#334155">Manager Signature:</text>
  <line x1="578" y1="714" x2="730" y2="714" stroke="#334155" stroke-width="0.8"/>
  <text x="742" y="712" font-size="10" fill="#334155">Date:</text>
  <line x1="766" y1="714" x2="840" y2="714" stroke="#334155" stroke-width="0.8"/>

  <!-- Divider -->
  <line x1="490" y1="724" x2="894" y2="724" stroke="#CBD5E1" stroke-width="1" stroke-dasharray="6,4"/>

  <!-- Footer -->
  <text x="692" y="740" font-size="7" fill="#94A3B8" text-anchor="middle">Synalux POS · pos_forms_templates · v2.1 · Generated automatically on print</text>

  <!-- Bottom tear edge -->
  <path d="M469,1018 Q475,1022 481,1018 Q487,1022 493,1018 Q499,1022 505,1018 Q511,1022 517,1018 Q523,1022 529,1018 Q535,1022 541,1018 Q547,1022 553,1018 Q559,1022 565,1018 Q571,1022 577,1018 Q583,1022 589,1018 Q595,1022 601,1018 Q607,1022 613,1018 Q619,1022 625,1018 Q631,1022 637,1018 Q643,1022 649,1018 Q655,1022 661,1018 Q667,1022 673,1018 Q679,1022 685,1018 Q691,1022 697,1018 Q703,1022 709,1018 Q715,1022 721,1018 Q727,1022 733,1018 Q739,1022 745,1018 Q751,1022 757,1018 Q763,1022 769,1018 Q775,1022 781,1018 Q787,1022 793,1018 Q799,1022 805,1018 Q811,1022 817,1018 Q823,1022 829,1018 Q835,1022 841,1018 Q847,1022 853,1018 Q859,1022 865,1018 Q871,1022 877,1018 Q883,1022 889,1018 Q895,1022 901,1018 Q907,1022 913,1018 L915,1018" fill="none" stroke="#E2E8F0" stroke-width="1"/>

  <!-- ══════════════════════════════════════════════
       RIGHT PANEL — Form Settings (x=1001, w=365)
  ══════════════════════════════════════════════ -->
  <rect x="1001" y="64" width="365" height="960" fill="#13162A"/>

  <!-- Panel header -->
  <rect x="1001" y="64" width="365" height="48" fill="#1A1D2E"/>
  <rect x="1001" y="111" width="365" height="1" fill="#2D3148"/>
  <text x="1017" y="94" font-size="14" font-weight="700" fill="#F1F5F9">Customize Form</text>
  <text x="1340" y="94" font-size="10" fill="#64748B" text-anchor="end">Cash Count Sheet</text>

  <!-- ── PRINT OPTIONS section ── -->
  <text x="1017" y="132" font-size="10" font-weight="700" fill="#64748B" letter-spacing="1">PRINT OPTIONS</text>

  <!-- Printer dropdown -->
  <text x="1017" y="152" font-size="11" fill="#94A3B8">Printer</text>
  <rect x="1017" y="156" width="333" height="32" rx="6" fill="#0F1117" stroke="#2D3148" stroke-width="1"/>
  <text x="1029" y="176" font-size="11" fill="#F1F5F9">Receipt Printer (Star TSP143IV)</text>
  <text x="1330" y="176" font-size="13" fill="#64748B" text-anchor="end">▾</text>

  <!-- Copies stepper -->
  <text x="1017" y="204" font-size="11" fill="#94A3B8">Copies</text>
  <rect x="1017" y="208" width="333" height="32" rx="6" fill="#0F1117" stroke="#2D3148" stroke-width="1"/>
  <!-- minus button -->
  <rect x="1025" y="214" width="24" height="20" rx="4" fill="#1A1D2E" stroke="#2D3148" stroke-width="1"/>
  <text x="1037" y="228" font-size="14" fill="#F59E0B" text-anchor="middle">−</text>
  <text x="1093" y="228" font-size="13" font-weight="700" fill="#F1F5F9" text-anchor="middle">1</text>
  <!-- plus button -->
  <rect x="1133" y="214" width="24" height="20" rx="4" fill="#1A1D2E" stroke="#2D3148" stroke-width="1"/>
  <text x="1145" y="228" font-size="14" fill="#F59E0B" text-anchor="middle">+</text>
  <text x="1220" y="228" font-size="10" fill="#64748B">max 5</text>

  <!-- Auto-print trigger dropdown -->
  <text x="1017" y="256" font-size="11" fill="#94A3B8">Auto-print trigger</text>
  <rect x="1017" y="260" width="333" height="32" rx="6" fill="#0F1117" stroke="#2D3148" stroke-width="1"/>
  <text x="1029" y="280" font-size="11" fill="#F1F5F9">Manual only</text>
  <text x="1330" y="280" font-size="13" fill="#64748B" text-anchor="end">▾</text>

  <!-- ── FORM FIELDS section ── -->
  <rect x="1001" y="302" width="365" height="1" fill="#2D3148"/>
  <text x="1017" y="322" font-size="10" font-weight="700" fill="#64748B" letter-spacing="1">FORM FIELDS</text>

  <!-- Toggle row helper: label left, toggle right -->
  <!-- Show logo: ON -->
  <text x="1017" y="344" font-size="11" fill="#F1F5F9">Show logo</text>
  <!-- toggle ON -->
  <rect x="1295" y="333" width="40" height="20" rx="10" fill="#10B981"/>
  <circle cx="1325" cy="343" r="8" fill="#FFF"/>

  <!-- Show manager signature line: ON -->
  <text x="1017" y="370" font-size="11" fill="#F1F5F9">Show manager signature line</text>
  <rect x="1295" y="359" width="40" height="20" rx="10" fill="#10B981"/>
  <circle cx="1325" cy="369" r="8" fill="#FFF"/>

  <!-- Show cashier signature line: ON -->
  <text x="1017" y="396" font-size="11" fill="#F1F5F9">Show cashier signature line</text>
  <rect x="1295" y="385" width="40" height="20" rx="10" fill="#10B981"/>
  <circle cx="1325" cy="395" r="8" fill="#FFF"/>

  <!-- Include barcode/QR: ON -->
  <text x="1017" y="422" font-size="11" fill="#F1F5F9">Include barcode / QR code</text>
  <text x="1017" y="434" font-size="9" fill="#64748B">Scans to digital version</text>
  <rect x="1295" y="411" width="40" height="20" rx="10" fill="#10B981"/>
  <circle cx="1325" cy="421" r="8" fill="#FFF"/>

  <!-- Auto-fill date/time: ON -->
  <text x="1017" y="458" font-size="11" fill="#F1F5F9">Auto-fill date / time</text>
  <rect x="1295" y="447" width="40" height="20" rx="10" fill="#10B981"/>
  <circle cx="1325" cy="457" r="8" fill="#FFF"/>

  <!-- Pre-fill expected float: ON -->
  <text x="1017" y="482" font-size="11" fill="#F1F5F9">Pre-fill expected float</text>
  <text x="1017" y="494" font-size="9" fill="#64748B">from pos_config</text>
  <rect x="1295" y="471" width="40" height="20" rx="10" fill="#10B981"/>
  <circle cx="1325" cy="481" r="8" fill="#FFF"/>

  <!-- Custom Header toggle: OFF -->
  <rect x="1001" y="506" width="365" height="1" fill="#2D3148"/>
  <text x="1017" y="526" font-size="11" fill="#94A3B8">Custom Header text</text>
  <text x="1017" y="538" font-size="9" fill="#64748B">Add custom text above form</text>
  <!-- toggle OFF -->
  <rect x="1295" y="515" width="40" height="20" rx="10" fill="#374151"/>
  <circle cx="1305" cy="525" r="8" fill="#FFF"/>

  <!-- Language dropdown -->
  <rect x="1001" y="550" width="365" height="1" fill="#2D3148"/>
  <text x="1017" y="570" font-size="11" fill="#94A3B8">Language</text>
  <rect x="1017" y="574" width="333" height="32" rx="6" fill="#0F1117" stroke="#2D3148" stroke-width="1"/>
  <text x="1029" y="594" font-size="11" fill="#F1F5F9">English</text>
  <text x="1330" y="594" font-size="13" fill="#64748B" text-anchor="end">▾</text>
  <!-- Bilingual badge -->
  <rect x="1185" y="580" width="60" height="18" rx="9" fill="#1A1D2E" stroke="#8B5CF6" stroke-width="1"/>
  <text x="1215" y="593" font-size="9" fill="#8B5CF6" text-anchor="middle">Bilingual</text>

  <!-- Save Settings button -->
  <rect x="1017" y="618" width="333" height="36" rx="7" fill="#F59E0B"/>
  <text x="1183" y="641" font-size="13" font-weight="700" fill="#0F1117" text-anchor="middle">Save Settings</text>

  <!-- ── Divider ── -->
  <rect x="1001" y="664" width="365" height="1" fill="#2D3148"/>

  <!-- ── CUSTOM FORMS section ── -->
  <text x="1017" y="684" font-size="10" font-weight="700" fill="#64748B" letter-spacing="1">CUSTOM FORMS</text>

  <!-- Create Custom Form button -->
  <rect x="1017" y="690" width="160" height="32" rx="6" fill="#8B5CF6"/>
  <text x="1097" y="710" font-size="11" font-weight="600" fill="#FFF" text-anchor="middle">+ Create Custom Form</text>

  <!-- Import Form Template button -->
  <rect x="1185" y="690" width="165" height="32" rx="6" fill="#1A1D2E" stroke="#2D3148" stroke-width="1"/>
  <text x="1268" y="710" font-size="10" fill="#94A3B8" text-anchor="middle">⬆ Import (.json)</text>

  <!-- Handlebars note box -->
  <rect x="1017" y="730" width="333" height="62" rx="6" fill="#1A1D2E" stroke="#2D3148" stroke-width="1"/>
  <text x="1025" y="747" font-size="9" fill="#64748B">Custom forms use Handlebars templates with</text>
  <text x="1025" y="760" font-size="9" fill="#64748B">POS data tokens:</text>
  <text x="1025" y="773" font-size="9" fill="#8B5CF6">{{business_name}}  {{date}}  {{cashier_name}}</text>
  <text x="1025" y="785" font-size="9" fill="#8B5CF6">{{expected_float}}  {{shift}}  ...</text>

  <!-- ── WORKFLOW INTEGRATION box (amber border) ── -->
  <rect x="1017" y="804" width="333" height="160" rx="7" fill="#1A1D2E" stroke="#F59E0B" stroke-width="1.5"/>
  <text x="1027" y="820" font-size="9" font-weight="700" fill="#F59E0B" letter-spacing="0.5">WORKFLOW INTEGRATION</text>
  <!-- divider under heading -->
  <line x1="1017" y1="826" x2="1350" y2="826" stroke="#F59E0B" stroke-width="0.5" opacity="0.4"/>
  <!-- bullet lines -->
  <circle cx="1028" cy="841" r="2.5" fill="#F59E0B"/>
  <text x="1038" y="845" font-size="9" fill="#94A3B8">Forms auto-populate from pos_config +</text>
  <text x="1038" y="857" font-size="9" fill="#94A3B8">pos_employees + pos_cash_events</text>

  <circle cx="1028" cy="869" r="2.5" fill="#F59E0B"/>
  <text x="1038" y="873" font-size="9" fill="#94A3B8">Print jobs routed via PrintBridge.swift</text>
  <text x="1038" y="885" font-size="9" fill="#64748B">(WKWebView native)</text>

  <circle cx="1028" cy="897" r="2.5" fill="#F59E0B"/>
  <text x="1038" y="901" font-size="9" fill="#94A3B8">PDF export: /api/pos/forms/[form_type].pdf</text>

  <circle cx="1028" cy="917" r="2.5" fill="#F59E0B"/>
  <text x="1038" y="921" font-size="9" fill="#94A3B8">Templates: pos_forms_templates</text>
  <text x="1038" y="933" font-size="9" fill="#64748B">(fully customizable)</text>

  <!-- ── Bottom attribution ── -->
  <rect x="1001" y="975" width="365" height="1" fill="#2D3148"/>
  <text x="1183" y="995" font-size="9" fill="#2D3148" text-anchor="middle">Synalux POS · settings_forms</text>

</svg>
