<svg xmlns="http://www.w3.org/2000/svg" viewBox="0 0 1366 1024" font-family="system-ui,-apple-system,sans-serif">
  <!-- Background -->
  <rect width="1366" height="1024" fill="#0F1117"/>

  <!-- Left Nav -->
  <rect x="0" y="0" width="200" height="1024" fill="#13162A"/>
  <text x="16" y="30" font-size="13" font-weight="700" fill="#F59E0B">⚙ Back Office</text>
  <text x="16" y="67" font-size="12" fill="#8B92A5">Menu Builder</text>
  <text x="16" y="103" font-size="12" fill="#8B92A5">Taxes</text>
  <text x="16" y="139" font-size="12" fill="#8B92A5">Employees</text>
  <text x="16" y="175" font-size="12" fill="#8B92A5">Equipment</text>
  <text x="16" y="211" font-size="12" fill="#8B92A5">Discounts &amp; Promos</text>
  <text x="16" y="247" font-size="12" fill="#8B92A5">Gift Cards</text>
  <text x="16" y="283" font-size="12" fill="#8B92A5">Loyalty</text>
  <!-- Active: Combo Meals -->
  <rect x="0" y="294" width="200" height="36" fill="#1E2240" rx="4"/>
  <rect x="0" y="294" width="3" height="36" fill="#F59E0B"/>
  <text x="16" y="317" font-size="12" font-weight="600" fill="#F59E0B">Combo Meals</text>
  <text x="16" y="355" font-size="12" fill="#8B92A5">Menu Scheduling</text>
  <text x="16" y="391" font-size="12" fill="#8B92A5">Reports</text>
  <text x="16" y="427" font-size="12" fill="#8B92A5">Revenue Centers</text>
  <text x="16" y="463" font-size="12" fill="#8B92A5">Integrations</text>
  <text x="16" y="499" font-size="12" fill="#8B92A5">Recipes</text>
  <text x="16" y="535" font-size="12" fill="#8B92A5">Inventory</text>
  <text x="16" y="571" font-size="12" fill="#8B92A5">Printer Routing</text>

  <!-- ===== HEADER ===== -->
  <rect x="200" y="0" width="1166" height="64" fill="#1A1D2E"/>
  <text x="220" y="26" font-size="18" font-weight="700" fill="#FFFFFF">Combo Meals &amp; Bundle Pricing</text>
  <text x="220" y="46" font-size="11" fill="#8B92A5">Auto-detect when combo components are added to an order → apply bundle price automatically. Saves staff time, maximizes upsell.</text>
  <!-- Save button top right -->
  <rect x="1250" y="14" width="100" height="34" rx="6" fill="#F59E0B"/>
  <text x="1283" y="36" font-size="12" font-weight="700" fill="#000">Save</text>

  <!-- ===== STATS BAR ===== -->
  <rect x="200" y="64" width="1166" height="72" fill="#13162A" stroke="#2D3148" stroke-width="1"/>
  <!-- Stat 1 -->
  <rect x="210" y="72" width="268" height="54" rx="6" fill="#1A1D2E"/>
  <text x="226" y="93" font-size="10" fill="#94A3B8">Active Combos</text>
  <text x="226" y="115" font-size="22" font-weight="700" fill="#F59E0B">8</text>
  <!-- Stat 2 -->
  <rect x="488" y="72" width="268" height="54" rx="6" fill="#1A1D2E"/>
  <text x="504" y="93" font-size="10" fill="#94A3B8">Combo Orders Today</text>
  <text x="504" y="115" font-size="22" font-weight="700" fill="#F1F5F9">47</text>
  <text x="548" y="115" font-size="11" fill="#10B981"> 37% of all orders</text>
  <!-- Stat 3 -->
  <rect x="766" y="72" width="268" height="54" rx="6" fill="#1A1D2E"/>
  <text x="782" y="93" font-size="10" fill="#94A3B8">Combo Revenue Today</text>
  <text x="782" y="115" font-size="22" font-weight="700" fill="#10B981">$1,240</text>
  <!-- Stat 4 -->
  <rect x="1044" y="72" width="312" height="54" rx="6" fill="#1A1D2E"/>
  <text x="1060" y="93" font-size="10" fill="#94A3B8">Avg Upsell Lift</text>
  <text x="1060" y="115" font-size="22" font-weight="700" fill="#8B5CF6">+$3.20</text>
  <text x="1126" y="115" font-size="10" fill="#64748B"> per order vs a la carte</text>

  <!-- ===== LEFT PANEL: Combo List ===== -->
  <rect x="200" y="136" width="320" height="888" fill="#13162A"/>
  <text x="216" y="158" font-size="12" font-weight="700" fill="#94A3B8">COMBOS (8)</text>

  <!-- Row 1: Burger Combo (selected) -->
  <rect x="208" y="165" width="304" height="76" rx="6" fill="#1E2240" stroke="#F59E0B" stroke-width="1.5"/>
  <rect x="208" y="165" width="5" height="76" rx="3" fill="#F59E0B"/>
  <text x="224" y="184" font-size="13" font-weight="700" fill="#F59E0B">Burger Combo</text>
  <text x="224" y="200" font-size="11" fill="#F1F5F9">$14.99 <tspan fill="#64748B">(vs $18.50)</tspan></text>
  <text x="224" y="216" font-size="10" fill="#10B981">Auto-detect ON</text>
  <rect x="384" y="172" width="56" height="18" rx="9" fill="#065F46"/>
  <text x="397" y="185" font-size="9" fill="#6EE7B7">● Active</text>
  <text x="224" y="232" font-size="9" fill="#64748B">Burger + Side + Drink</text>

  <!-- Row 2 -->
  <rect x="208" y="249" width="304" height="68" rx="6" fill="#1A1D2E"/>
  <rect x="208" y="249" width="5" height="68" rx="3" fill="#10B981"/>
  <text x="224" y="268" font-size="12" font-weight="600" fill="#F1F5F9">Family Meal Deal</text>
  <text x="224" y="284" font-size="11" fill="#F1F5F9">$34.99 <tspan fill="#64748B">(vs $44.00)</tspan></text>
  <rect x="384" y="256" width="56" height="18" rx="9" fill="#065F46"/>
  <text x="397" y="269" font-size="9" fill="#6EE7B7">● Active</text>
  <text x="224" y="308" font-size="9" fill="#64748B">2 Mains + 2 Sides + 4 Drinks</text>

  <!-- Row 3 -->
  <rect x="208" y="325" width="304" height="68" rx="6" fill="#1A1D2E"/>
  <rect x="208" y="325" width="5" height="68" rx="3" fill="#F59E0B"/>
  <text x="224" y="344" font-size="12" font-weight="600" fill="#F1F5F9">Breakfast Bundle</text>
  <text x="224" y="360" font-size="11" fill="#F1F5F9">$12.99 <tspan fill="#64748B">(vs $16.50)</tspan></text>
  <rect x="384" y="332" width="56" height="18" rx="9" fill="#065F46"/>
  <text x="397" y="345" font-size="9" fill="#6EE7B7">● Active</text>
  <text x="224" y="384" font-size="9" fill="#64748B">Entrée + Side + Coffee/Juice</text>

  <!-- Row 4 -->
  <rect x="208" y="401" width="304" height="68" rx="6" fill="#1A1D2E"/>
  <rect x="208" y="401" width="5" height="68" rx="3" fill="#8B5CF6"/>
  <text x="224" y="420" font-size="12" font-weight="600" fill="#F1F5F9">Happy Hour Bucket</text>
  <text x="224" y="436" font-size="11" fill="#F1F5F9">$24.99 <tspan fill="#64748B">(5 beers)</tspan></text>
  <rect x="384" y="408" width="56" height="18" rx="9" fill="#065F46"/>
  <text x="397" y="421" font-size="9" fill="#6EE7B7">● Active</text>
  <text x="224" y="460" font-size="9" fill="#8B5CF6">happy hour only · 4–7 PM</text>

  <!-- Row 5 -->
  <rect x="208" y="477" width="304" height="68" rx="6" fill="#1A1D2E"/>
  <rect x="208" y="477" width="5" height="68" rx="3" fill="#10B981"/>
  <text x="224" y="496" font-size="12" font-weight="600" fill="#F1F5F9">Kids Combo</text>
  <text x="224" y="512" font-size="11" fill="#F1F5F9">$9.99 <tspan fill="#64748B">(vs $13.00)</tspan></text>
  <rect x="384" y="484" width="56" height="18" rx="9" fill="#065F46"/>
  <text x="397" y="497" font-size="9" fill="#6EE7B7">● Active</text>
  <text x="224" y="536" font-size="9" fill="#64748B">Kids Meal + Side + Juice</text>

  <!-- Row 6 -->
  <rect x="208" y="553" width="304" height="68" rx="6" fill="#1A1D2E"/>
  <rect x="208" y="553" width="5" height="68" rx="3" fill="#F97316"/>
  <text x="224" y="572" font-size="12" font-weight="600" fill="#F1F5F9">Pizza &amp; Wings Deal</text>
  <text x="224" y="588" font-size="11" fill="#F1F5F9">$27.99 <tspan fill="#64748B">(vs $34.00)</tspan></text>
  <rect x="384" y="560" width="56" height="18" rx="9" fill="#065F46"/>
  <text x="397" y="573" font-size="9" fill="#6EE7B7">● Active</text>
  <text x="224" y="612" font-size="9" fill="#64748B">Pizza (any) + Wings (6 pc)</text>

  <!-- Row 7 -->
  <rect x="208" y="629" width="304" height="68" rx="6" fill="#1A1D2E"/>
  <rect x="208" y="629" width="5" height="68" rx="3" fill="#3B82F6"/>
  <text x="224" y="648" font-size="12" font-weight="600" fill="#F1F5F9">Brunch Duo</text>
  <text x="224" y="664" font-size="11" fill="#F1F5F9">$22.99 <tspan fill="#64748B">(vs $28.00)</tspan></text>
  <rect x="384" y="636" width="56" height="18" rx="9" fill="#065F46"/>
  <text x="397" y="649" font-size="9" fill="#6EE7B7">● Active</text>
  <text x="224" y="688" font-size="9" fill="#64748B">Brunch Entrée + Mimosa/Coffee</text>

  <!-- Row 8 -->
  <rect x="208" y="705" width="304" height="68" rx="6" fill="#1A1D2E"/>
  <rect x="208" y="705" width="5" height="68" rx="3" fill="#64748B"/>
  <text x="224" y="724" font-size="12" font-weight="600" fill="#F1F5F9">Appetizer Platter</text>
  <text x="224" y="740" font-size="11" fill="#F1F5F9">$19.99 <tspan fill="#64748B">(vs $24.50)</tspan></text>
  <rect x="384" y="712" width="56" height="18" rx="9" fill="#065F46"/>
  <text x="397" y="725" font-size="9" fill="#6EE7B7">● Active</text>
  <text x="224" y="764" font-size="9" fill="#64748B">Any 4 Appetizers</text>

  <!-- Create Combo button -->
  <rect x="208" y="785" width="304" height="36" rx="6" fill="none" stroke="#F59E0B" stroke-width="1.5" stroke-dasharray="5,3"/>
  <text x="316" y="808" font-size="12" font-weight="600" fill="#F59E0B" text-anchor="middle">+ Create Combo</text>

  <!-- ===== CENTER PANEL: Combo Editor ===== -->
  <rect x="520" y="136" width="680" height="888" fill="#0F1117"/>

  <!-- Editor Header -->
  <rect x="528" y="144" width="664" height="48" rx="8" fill="#1A1D2E"/>
  <text x="548" y="163" font-size="15" font-weight="700" fill="#F59E0B">Burger Combo</text>
  <text x="548" y="181" font-size="10" fill="#8B92A5">pos_combos.id = COMBO-001 · auto_detect: true · 47 orders today</text>
  <!-- Status toggle -->
  <text x="1100" y="163" font-size="10" fill="#94A3B8">Status</text>
  <rect x="1100" y="168" width="44" height="20" rx="10" fill="#10B981"/>
  <circle cx="1134" cy="178" r="8" fill="#FFFFFF"/>
  <text x="1108" y="182" font-size="9" fill="#FFFFFF">ON</text>

  <!-- Name + i18n -->
  <text x="528" y="216" font-size="10" fill="#94A3B8">NAME (name_i18n jsonb — EN / ES / FR / ZH)</text>
  <rect x="528" y="222" width="664" height="30" rx="6" fill="#1A1D2E" stroke="#F59E0B" stroke-width="1"/>
  <text x="544" y="242" font-size="13" fill="#F1F5F9">Burger Combo</text>
  <text x="1060" y="242" font-size="10" fill="#64748B">EN</text>
  <rect x="1076" y="228" width="26" height="18" rx="4" fill="#2D3148"/>
  <text x="1082" y="241" font-size="9" fill="#94A3B8">ES</text>
  <rect x="1108" y="228" width="26" height="18" rx="4" fill="#2D3148"/>
  <text x="1114" y="241" font-size="9" fill="#94A3B8">FR</text>
  <rect x="1140" y="228" width="26" height="18" rx="4" fill="#2D3148"/>
  <text x="1145" y="241" font-size="9" fill="#94A3B8">ZH</text>

  <!-- Pricing Row -->
  <text x="528" y="276" font-size="10" fill="#94A3B8">COMBO PRICE</text>
  <rect x="528" y="282" width="160" height="34" rx="6" fill="#1A1D2E" stroke="#2D3148" stroke-width="1"/>
  <text x="548" y="304" font-size="16" font-weight="700" fill="#F59E0B">$14.99</text>
  <text x="700" y="296" font-size="11" fill="#64748B">A-la-carte total: </text>
  <text x="790" y="296" font-size="11" fill="#94A3B8">$18.50–$26.00</text>
  <text x="700" y="312" font-size="11" fill="#10B981">Customer savings: </text>
  <text x="796" y="312" font-size="11" font-weight="700" fill="#10B981">Save up to $3.51!</text>
  <text x="920" y="296" font-size="10" fill="#64748B">Tax on combo price</text>
  <text x="920" y="312" font-size="10" fill="#64748B">(not individual items)</text>

  <!-- Section: Combo Components -->
  <text x="528" y="342" font-size="12" font-weight="700" fill="#F1F5F9">Combo Components</text>
  <!-- Table Header -->
  <rect x="528" y="350" width="664" height="26" rx="4" fill="#1A1D2E"/>
  <text x="540" y="367" font-size="10" font-weight="600" fill="#94A3B8">ITEM</text>
  <text x="700" y="367" font-size="10" font-weight="600" fill="#94A3B8">TYPE</text>
  <text x="820" y="367" font-size="10" font-weight="600" fill="#94A3B8">OPTIONS ALLOWED</text>
  <text x="1080" y="367" font-size="10" font-weight="600" fill="#94A3B8">A-LA-CARTE</text>

  <!-- Component Row 1: Burger -->
  <rect x="528" y="376" width="664" height="96" rx="6" fill="#1A1D2E" stroke="#2D3148" stroke-width="1"/>
  <rect x="528" y="376" width="4" height="96" rx="2" fill="#F59E0B"/>
  <text x="540" y="395" font-size="12" font-weight="600" fill="#F1F5F9">Burger (any)</text>
  <rect x="534" y="400" width="60" height="16" rx="8" fill="#1E3A5F"/>
  <text x="540" y="412" font-size="9" fill="#60A5FA">REQUIRED</text>
  <text x="700" y="395" font-size="10" fill="#94A3B8">Category</text>
  <text x="820" y="393" font-size="10" fill="#94A3B8">Any from "Burgers &amp; Sandwiches"</text>
  <text x="820" y="408" font-size="10" fill="#64748B">(13 items)</text>
  <text x="1080" y="395" font-size="10" fill="#64748B">varies</text>
  <!-- sub-options -->
  <circle cx="540" cy="426" r="5" fill="#F59E0B"/>
  <text x="552" y="430" font-size="10" fill="#F1F5F9">Any item in category</text>
  <circle cx="540" cy="444" r="5" fill="none" stroke="#64748B" stroke-width="1.5"/>
  <text x="552" y="448" font-size="10" fill="#64748B">Specific items only</text>
  <text x="540" y="464" font-size="9" fill="#64748B">Classic Burger $18 · Veggie Burger $15 · Chicken Burger $16 · +10 more</text>

  <!-- Component Row 2: Side -->
  <rect x="528" y="480" width="664" height="88" rx="6" fill="#1A1D2E" stroke="#2D3148" stroke-width="1"/>
  <rect x="528" y="480" width="4" height="88" rx="2" fill="#10B981"/>
  <text x="540" y="499" font-size="12" font-weight="600" fill="#F1F5F9">Side</text>
  <rect x="534" y="504" width="60" height="16" rx="8" fill="#1E3A5F"/>
  <text x="540" y="516" font-size="9" fill="#60A5FA">REQUIRED</text>
  <text x="700" y="499" font-size="10" fill="#94A3B8">Specific</text>
  <text x="820" y="497" font-size="10" fill="#94A3B8">French Fries ($5.00)</text>
  <text x="820" y="512" font-size="10" fill="#94A3B8">Onion Rings ($5.50)</text>
  <text x="820" y="527" font-size="10" fill="#94A3B8">House Salad ($6.00)</text>
  <text x="1080" y="499" font-size="10" fill="#64748B">one of</text>
  <text x="1080" y="514" font-size="10" fill="#64748B">these</text>
  <circle cx="540" cy="544" r="5" fill="none" stroke="#64748B" stroke-width="1.5"/>
  <text x="552" y="548" font-size="10" fill="#64748B">Any item in category</text>
  <circle cx="660" cy="544" r="5" fill="#10B981"/>
  <text x="672" y="548" font-size="10" fill="#F1F5F9">Specific items (3 selected)</text>

  <!-- Component Row 3: Drink -->
  <rect x="528" y="576" width="664" height="88" rx="6" fill="#1A1D2E" stroke="#2D3148" stroke-width="1"/>
  <rect x="528" y="576" width="4" height="88" rx="2" fill="#3B82F6"/>
  <text x="540" y="595" font-size="12" font-weight="600" fill="#F1F5F9">Drink</text>
  <rect x="534" y="600" width="60" height="16" rx="8" fill="#1E3A5F"/>
  <text x="540" y="612" font-size="9" fill="#60A5FA">REQUIRED</text>
  <text x="700" y="595" font-size="10" fill="#94A3B8">Specific</text>
  <text x="820" y="593" font-size="10" fill="#94A3B8">Fountain Soda ($3.00)</text>
  <text x="820" y="608" font-size="10" fill="#94A3B8">Lemonade ($3.50)</text>
  <text x="820" y="623" font-size="10" fill="#94A3B8">Bottled Water ($3.00)</text>
  <text x="1080" y="595" font-size="10" fill="#64748B">one of</text>
  <text x="1080" y="610" font-size="10" fill="#64748B">these</text>
  <circle cx="540" cy="640" r="5" fill="none" stroke="#64748B" stroke-width="1.5"/>
  <text x="552" y="644" font-size="10" fill="#64748B">Any item in category</text>
  <circle cx="660" cy="640" r="5" fill="#3B82F6"/>
  <text x="672" y="644" font-size="10" fill="#F1F5F9">Specific items (3 selected)</text>

  <!-- Add Component -->
  <rect x="528" y="672" width="664" height="30" rx="6" fill="none" stroke="#2D3148" stroke-width="1" stroke-dasharray="4,3"/>
  <text x="840" y="691" font-size="11" fill="#64748B" text-anchor="middle">+ Add Component</text>

  <!-- AUTO-DETECT BEHAVIOR Section -->
  <text x="528" y="724" font-size="12" font-weight="700" fill="#F1F5F9">Auto-Detect Behavior</text>
  <rect x="528" y="730" width="664" height="120" rx="6" fill="#1A1D2E" stroke="#2D3148" stroke-width="1"/>
  <!-- Detection mode -->
  <text x="544" y="750" font-size="10" font-weight="600" fill="#94A3B8">DETECTION MODE</text>
  <circle cx="550" cy="765" r="5" fill="#F59E0B"/>
  <text x="562" y="769" font-size="11" fill="#F1F5F9">Automatic — system offers combo when all required components in order</text>
  <circle cx="550" cy="784" r="5" fill="none" stroke="#64748B" stroke-width="1.5"/>
  <text x="562" y="788" font-size="11" fill="#64748B">Staff-triggered — staff selects "Add as Combo" manually</text>
  <circle cx="550" cy="803" r="5" fill="none" stroke="#64748B" stroke-width="1.5"/>
  <text x="562" y="807" font-size="11" fill="#64748B">Both — auto-detect AND staff can manually trigger</text>
  <!-- Partial combo toggle -->
  <text x="544" y="826" font-size="10" fill="#94A3B8">Allow partial combo (missing component):</text>
  <rect x="792" y="818" width="36" height="18" rx="9" fill="#374151"/>
  <circle cx="800" cy="827" r="7" fill="#9CA3AF"/>
  <text x="832" y="831" font-size="9" fill="#64748B">OFF — all required components must be present</text>
  <!-- Upsell toggle -->
  <text x="544" y="846" font-size="10" fill="#94A3B8">Combo upsell suggestion:</text>
  <rect x="682" y="838" width="36" height="18" rx="9" fill="#10B981"/>
  <circle cx="708" cy="847" r="7" fill="#FFFFFF"/>
  <text x="722" y="851" font-size="9" fill="#10B981">ON — suggest combo if only some components ordered</text>

  <!-- Combo Pop-up Preview inline -->
  <rect x="528" y="858" width="664" height="72" rx="6" fill="#1A1D2E" stroke="#2D3148" stroke-width="1"/>
  <text x="544" y="878" font-size="10" font-weight="600" fill="#94A3B8">REGISTER POP-UP PREVIEW</text>
  <rect x="544" y="886" width="348" height="36" rx="6" fill="#0F1117" stroke="#F59E0B" stroke-width="1"/>
  <text x="556" y="902" font-size="10" fill="#F1F5F9">"These items qualify for Burger Combo! Save $3.51"</text>
  <text x="556" y="916" font-size="9" fill="#64748B">→ apply combo price?</text>
  <rect x="900" y="886" width="100" height="18" rx="4" fill="#10B981"/>
  <text x="930" y="899" font-size="9" font-weight="600" fill="#FFFFFF" text-anchor="middle">Apply Combo</text>
  <text x="1010" y="899" font-size="9" fill="#64748B">Keep A-la-carte</text>

  <!-- CHANNEL AVAILABILITY Row -->
  <text x="528" y="944" font-size="10" font-weight="600" fill="#94A3B8">CHANNEL AVAILABILITY</text>
  <rect x="528" y="950" width="664" height="38" rx="6" fill="#1A1D2E" stroke="#2D3148" stroke-width="1"/>
  <text x="544" y="974" font-size="10" fill="#10B981">✓ Register</text>
  <text x="620" y="974" font-size="10" fill="#10B981">✓ QR Table</text>
  <text x="700" y="974" font-size="10" fill="#10B981">✓ Kiosk</text>
  <text x="760" y="974" font-size="10" fill="#10B981">✓ Online</text>
  <text x="830" y="974" font-size="10" fill="#64748B">○ Phone/AI Ordering</text>
  <rect x="938" y="960" width="36" height="18" rx="9" fill="#374151"/>
  <circle cx="946" cy="969" r="7" fill="#9CA3AF"/>
  <text x="978" y="973" font-size="9" fill="#64748B">OFF (AI handles via NLP)</text>

  <!-- Save / Delete row bottom of center -->
  <rect x="528" y="998" width="200" height="34" rx="6" fill="#F59E0B"/>
  <text x="611" y="1020" font-size="13" font-weight="700" fill="#000" text-anchor="middle">Save Changes</text>
  <text x="752" y="1020" font-size="12" fill="#EF4444">Delete Combo</text>

  <!-- ===== RIGHT PANEL: Register Preview ===== -->
  <rect x="1200" y="136" width="166" height="888" fill="#13162A"/>
  <text x="1214" y="158" font-size="11" font-weight="700" fill="#94A3B8">REGISTER PREVIEW</text>

  <!-- Combo Detection Pop-up -->
  <rect x="1208" y="164" width="150" height="180" rx="8" fill="#1A1D2E" stroke="#F59E0B" stroke-width="1.5"/>
  <text x="1215" y="182" font-size="10" font-weight="700" fill="#F59E0B">🎉 Combo Available!</text>
  <text x="1215" y="198" font-size="9" fill="#94A3B8">In order:</text>
  <text x="1215" y="212" font-size="9" fill="#F1F5F9">Classic Burger</text>
  <text x="1215" y="225" font-size="9" fill="#F1F5F9">French Fries</text>
  <text x="1215" y="238" font-size="9" fill="#F1F5F9">Fountain Soda</text>
  <line x1="1215" y1="246" x2="1350" y2="246" stroke="#2D3148" stroke-width="1"/>
  <text x="1215" y="260" font-size="9" fill="#64748B">A-la-carte: $26.00</text>
  <text x="1215" y="275" font-size="9" fill="#64748B">Burger Combo: $14.99</text>
  <text x="1215" y="294" font-size="13" font-weight="700" fill="#10B981">Save $11.01!</text>
  <rect x="1215" y="302" width="135" height="22" rx="5" fill="#10B981"/>
  <text x="1255" y="317" font-size="9" font-weight="700" fill="#FFF" text-anchor="middle">Apply Combo — $14.99</text>
  <text x="1255" y="336" font-size="9" fill="#64748B" text-anchor="middle">Keep a-la-carte $26.00</text>

  <!-- Order Ticket Preview -->
  <rect x="1208" y="356" width="150" height="130" rx="8" fill="#1A1D2E" stroke="#2D3148" stroke-width="1"/>
  <text x="1215" y="374" font-size="9" font-weight="700" fill="#94A3B8">ORDER TICKET</text>
  <text x="1215" y="390" font-size="9" font-weight="600" fill="#F59E0B">Burger Combo × 1</text>
  <text x="1300" y="390" font-size="9" font-weight="700" fill="#F1F5F9">$14.99</text>
  <text x="1221" y="405" font-size="8" fill="#64748B">→ Classic Burger</text>
  <text x="1240" y="418" font-size="8" fill="#64748B">(No Onions)</text>
  <text x="1221" y="432" font-size="8" fill="#64748B">→ French Fries (Lg)</text>
  <text x="1221" y="446" font-size="8" fill="#64748B">→ Fountain Soda (Coke)</text>
  <line x1="1215" y1="454" x2="1350" y2="454" stroke="#2D3148" stroke-width="1" stroke-dasharray="3,2"/>
  <text x="1215" y="468" font-size="8" fill="#64748B">Components shown as</text>
  <text x="1215" y="480" font-size="8" fill="#64748B">sub-items on receipt</text>

  <!-- Upsell Suggestion -->
  <rect x="1208" y="498" width="150" height="130" rx="8" fill="#1A1D2E" stroke="#8B5CF6" stroke-width="1"/>
  <text x="1215" y="516" font-size="9" font-weight="700" fill="#8B5CF6">UPSELL SUGGESTION</text>
  <text x="1215" y="532" font-size="8" fill="#94A3B8">Customer ordered:</text>
  <text x="1215" y="546" font-size="9" font-weight="600" fill="#F1F5F9">Classic Burger only</text>
  <line x1="1215" y1="554" x2="1350" y2="554" stroke="#2D3148" stroke-width="1"/>
  <text x="1215" y="568" font-size="8" fill="#F1F5F9">Add Fries + Drink?</text>
  <text x="1215" y="582" font-size="8" fill="#F1F5F9">Burger Combo $14.99</text>
  <text x="1215" y="596" font-size="9" font-weight="700" fill="#10B981">Save $11.01!</text>
  <rect x="1215" y="604" width="135" height="20" rx="4" fill="#F59E0B"/>
  <text x="1255" y="618" font-size="8" font-weight="700" fill="#000" text-anchor="middle">Add Combo Items</text>
  <text x="1255" y="636" font-size="8" fill="#64748B" text-anchor="middle">No Thanks</text>

  <!-- KDS / Receipt notes -->
  <rect x="1208" y="642" width="150" height="100" rx="6" fill="#0F1117" stroke="#2D3148" stroke-width="1"/>
  <text x="1215" y="660" font-size="9" font-weight="700" fill="#94A3B8">KDS &amp; RECEIPT</text>
  <text x="1215" y="676" font-size="8" fill="#64748B">KDS shows individual</text>
  <text x="1215" y="689" font-size="8" fill="#64748B">items, not "combo"</text>
  <line x1="1215" y1="697" x2="1350" y2="697" stroke="#2D3148" stroke-width="1"/>
  <text x="1215" y="712" font-size="8" fill="#64748B">Receipt shows combo</text>
  <text x="1215" y="725" font-size="8" fill="#64748B">name + sub-lines</text>
  <text x="1215" y="738" font-size="8" fill="#64748B">Reporting: single line</text>

  <!-- ===== WORKFLOW INTEGRATION: Full-width Bottom ===== -->
  <rect x="200" y="888" width="1166" height="136" rx="0" fill="#0F1117" stroke="#F59E0B" stroke-width="1"/>
  <rect x="200" y="888" width="1166" height="3" fill="#F59E0B"/>
  <text x="216" y="908" font-size="11" font-weight="700" fill="#F59E0B">Workflow Integration &amp; Schema</text>
  <text x="216" y="926" font-size="9" fill="#64748B">pos_combos: id, name_i18n jsonb, price_cents int, active bool, auto_detect bool, channel_flags jsonb, created_at timestamptz</text>
  <text x="216" y="940" font-size="9" fill="#64748B">pos_combo_components: id, combo_id → pos_combos, component_type (category | specific), item_ids int[], required bool, sort_order int</text>
  <text x="216" y="954" font-size="9" fill="#64748B">Detection: on each pos_order_items INSERT → check_combos() Edge Function → find matching combos where all required components present AND not already combo-priced</text>
  <text x="216" y="968" font-size="9" fill="#64748B">           → fire combo_offer event to terminal WebSocket → register renders pop-up → staff/customer accepts → price_override applied</text>
  <text x="216" y="982" font-size="9" fill="#64748B">Apply: pos_order_items grouped by combo_id, price_override = combo_price_cents / components (for reporting granularity). KDS receives individual item tickets.</text>
  <text x="216" y="996" font-size="9" fill="#64748B">Receipt: combo name as header line + each component as indented sub-line. Reports: "Burger Combo × 1 $14.99" single line — drill-down shows component split.</text>
  <text x="216" y="1010" font-size="9" fill="#64748B">Upsell edge fn: if order has ≥1 component of combo but not all → push upsell_suggestion event → register shows "Add X for Burger Combo $14.99, save $11.01" CTA.</text>
</svg>
