<svg role="img" aria-labelledby="title-settings_training_mode-svg" xmlns="http://www.w3.org/2000/svg" xmlns:xlink="http://www.w3.org/1999/xlink"
     viewBox="0 0 1366 1024" font-family="-apple-system,system-ui,BlinkMacSystemFont,'Segoe UI',sans-serif">

  <!-- ==========================================================
       DEFS — Reusable symbols
       ========================================================== -->
  <title id="title-settings_training_mode-svg">Synalux POS — training mode</title>
  <desc>Synalux POS mockup screen for training mode. All UI elements admin-configurable.</desc>
  <defs>
    <linearGradient id="cardHeaderGrad" x1="0" y1="0" x2="1" y2="0">
      <stop offset="0%" stop-color="#1E2235"/>
      <stop offset="100%" stop-color="#1A1D2E"/>
    </linearGradient>
    <linearGradient id="amberGrad" x1="0" y1="0" x2="0" y2="1">
      <stop offset="0%" stop-color="#FBBF24"/>
      <stop offset="100%" stop-color="#F59E0B"/>
    </linearGradient>
    <linearGradient id="purpleGrad" x1="0" y1="0" x2="0" y2="1">
      <stop offset="0%" stop-color="#A78BFA"/>
      <stop offset="100%" stop-color="#8B5CF6"/>
    </linearGradient>
    <filter id="cardShadow" x="-2%" y="-2%" width="104%" height="108%">
      <feDropShadow dx="0" dy="2" stdDeviation="4" flood-color="#000000" flood-opacity="0.3"/>
    </filter>

    <!-- Admin gear icon -->
    <symbol id="gearIcon" viewBox="0 0 16 16">
      <path d="M7.07 1.29A1 1 0 0 1 8.93 1.29l.47 1.06a1 1 0 0 0 .94.58l1.15-.08a1 1 0 0 1 .92 1.45l-.68.93a1 1 0 0 0 0 1.1l.68.93a1 1 0 0 1-.92 1.45l-1.15-.08a1 1 0 0 0-.94.58l-.47 1.06a1 1 0 0 1-1.86 0l-.47-1.06a1 1 0 0 0-.94-.58l-1.15.08a1 1 0 0 1-.92-1.45l.68-.93a1 1 0 0 0 0-1.1l-.68-.93A1 1 0 0 1 4.51 2.85l1.15.08a1 1 0 0 0 .94-.58z"
            fill="none" stroke="#F59E0B" stroke-width="1.2"/>
      <circle cx="8" cy="8" r="2.5" fill="none" stroke="#F59E0B" stroke-width="1.2"/>
    </symbol>

    <!-- Toggle ON (green) -->
    <symbol id="toggleOn" viewBox="0 0 52 28">
      <rect width="52" height="28" rx="14" fill="#059669"/>
      <circle cx="38" cy="14" r="11" fill="#FFFFFF"/>
    </symbol>

    <!-- Toggle OFF (gray) -->
    <symbol id="toggleOff" viewBox="0 0 52 28">
      <rect width="52" height="28" rx="14" fill="#374151"/>
      <circle cx="14" cy="14" r="11" fill="#94A3B8"/>
    </symbol>

    <!-- Save button -->
    <symbol id="saveBtn" viewBox="0 0 200 36">
      <rect width="200" height="36" rx="6" fill="url(#amberGrad)"/>
      <text x="100" y="23" font-size="12" font-weight="700" fill="#0C0E1A" text-anchor="middle">Save Settings</text>
    </symbol>

    <!-- Dropdown arrow -->
    <symbol id="dropdown" viewBox="0 0 12 8">
      <path d="M1 1l5 5 5-5" fill="none" stroke="#64748B" stroke-width="1.5" stroke-linecap="round"/>
    </symbol>

    <!-- Checkbox checked (purple) -->
    <symbol id="checkboxOn" viewBox="0 0 14 14">
      <rect width="14" height="14" rx="3" fill="#8B5CF6"/>
      <path d="M3 7l3 3 5-6" fill="none" stroke="#FFFFFF" stroke-width="2" stroke-linecap="round" stroke-linejoin="round"/>
    </symbol>

    <!-- Checkbox unchecked -->
    <symbol id="checkboxOff" viewBox="0 0 14 14">
      <rect width="14" height="14" rx="3" fill="none" stroke="#475569" stroke-width="1.5"/>
    </symbol>

    <!-- Radio selected -->
    <symbol id="radioOn" viewBox="0 0 14 14">
      <circle cx="7" cy="7" r="7" fill="none" stroke="#8B5CF6" stroke-width="2"/>
      <circle cx="7" cy="7" r="3.5" fill="#8B5CF6"/>
    </symbol>

    <!-- Radio unselected -->
    <symbol id="radioOff" viewBox="0 0 14 14">
      <circle cx="7" cy="7" r="7" fill="none" stroke="#475569" stroke-width="1.5"/>
    </symbol>

    <!-- Training badge (small purple T) — reused on product tiles -->
    <symbol id="trainingBadge" viewBox="0 0 16 16">
      <rect width="16" height="16" rx="4" fill="#8B5CF6"/>
      <text x="8" y="12" font-size="10" font-weight="700" fill="#FFF" text-anchor="middle">T</text>
    </symbol>

    <!-- Simulated check mark row -->
    <symbol id="simCheck" viewBox="0 0 10 10">
      <text x="5" y="9" font-size="10" fill="#22C55E" text-anchor="middle">&#10003;</text>
    </symbol>

    <!-- Excluded X mark row -->
    <symbol id="simX" viewBox="0 0 10 10">
      <text x="5" y="9" font-size="10" fill="#EF4444" text-anchor="middle">&#10007;</text>
    </symbol>
  </defs>

  <!-- ==========================================================
       BACKGROUND
       ========================================================== -->
  <rect width="1366" height="1024" fill="#0C0E1A"/>

  <!-- ==========================================================
       LEFT NAV SIDEBAR — x=0, w=200
       ========================================================== -->
  <rect x="0" y="0" width="200" height="1024" fill="#161930"/>
  <rect x="12" y="12" width="28" height="28" rx="6" fill="#F59E0B"/>
  <text x="18" y="31" font-size="14" font-weight="800" fill="#0C0E1A">S</text>
  <text x="48" y="32" font-size="14" font-weight="700" fill="#E2E8F0">Synalux POS</text>
  <line x1="12" y1="48" x2="188" y2="48" stroke="#2A2E45" stroke-width="1"/>

  <text x="16" y="72" font-size="12" fill="#94A3B8">Restaurant Info</text>
  <text x="16" y="100" font-size="12" fill="#94A3B8">Menu Builder</text>
  <text x="16" y="128" font-size="12" fill="#94A3B8">Taxes</text>
  <text x="16" y="156" font-size="12" fill="#94A3B8">Employees</text>
  <text x="16" y="184" font-size="12" fill="#94A3B8">Equipment</text>
  <text x="16" y="212" font-size="12" fill="#94A3B8">Payments</text>
  <text x="16" y="240" font-size="12" fill="#94A3B8">Inventory</text>
  <text x="16" y="268" font-size="12" fill="#94A3B8">Reports</text>
  <text x="16" y="296" font-size="12" fill="#94A3B8">Integrations</text>
  <text x="16" y="324" font-size="12" fill="#94A3B8">Floor Plans</text>
  <!-- Active: Training Mode -->
  <rect x="0" y="336" width="200" height="36" fill="#1E2235" rx="4"/>
  <rect x="0" y="336" width="3" height="36" fill="#8B5CF6"/>
  <text x="16" y="359" font-size="12" font-weight="600" fill="#8B5CF6">Training Mode</text>
  <text x="16" y="388" font-size="12" fill="#94A3B8">Forms</text>
  <text x="16" y="416" font-size="12" fill="#94A3B8">Multi-Location</text>
  <text x="16" y="444" font-size="12" fill="#94A3B8">Franchise</text>

  <!-- ==========================================================
       LEFT SETTINGS PANEL — Training Mode Configuration
       x=200, w=470
       DB: pos_config, pos_training_sessions
       ========================================================== -->

  <!-- Header -->
  <rect x="200" y="0" width="470" height="56" fill="#1A1D2E"/>
  <text x="220" y="24" font-size="18" font-weight="700" fill="#E2E8F0">Training Mode</text>
  <!-- BETA badge -->
  <rect x="360" y="12" width="42" height="20" rx="10" fill="url(#purpleGrad)"/>
  <text x="381" y="26" font-size="9" font-weight="700" fill="#FFFFFF" text-anchor="middle">BETA</text>
  <text x="220" y="44" font-size="10" fill="#94A3B8">Let staff practice without real transactions, inventory, or charges -- DB: pos_config</text>
  <use xlink:href="#gearIcon" x="640" y="14" width="14" height="14"/>
  <line x1="200" y1="56" x2="670" y2="56" stroke="#2A2E45" stroke-width="1"/>

  <!-- ==========================================================
       STATUS CARD — Training Mode toggle
       DB: pos_config.training_mode_active
       ========================================================== -->
  <rect x="212" y="68" width="446" height="90" rx="10" fill="#1A1D2E" stroke="#2A2E45" stroke-width="1.5" filter="url(#cardShadow)"/>
  <text x="232" y="94" font-size="13" font-weight="700" fill="#E2E8F0">Training Mode</text>
  <!-- DB: pos_config.training_mode_active boolean -->
  <use xlink:href="#toggleOff" x="588" y="80" width="52" height="28"/>
  <use xlink:href="#gearIcon" x="564" y="86" width="12" height="12"/>
  <text x="232" y="114" font-size="10" fill="#94A3B8">When ON: purple banner appears on all register screens</text>
  <text x="232" y="130" font-size="10" fill="#94A3B8">Training sessions are completely isolated from production data</text>
  <!-- Status pill -->
  <rect x="232" y="136" width="76" height="18" rx="9" fill="#1E2235" stroke="#374151" stroke-width="1"/>
  <circle cx="246" cy="145" r="4" fill="#64748B"/>
  <text x="253" y="149" font-size="9" fill="#94A3B8">INACTIVE</text>

  <!-- ==========================================================
       CONFIG SECTION
       DB: pos_config training fields
       ========================================================== -->
  <text x="212" y="178" font-size="10" font-weight="700" fill="#64748B" letter-spacing="1">TRAINING MODE SETTINGS</text>
  <rect x="212" y="186" width="446" height="268" rx="10" fill="#1A1D2E" stroke="#2A2E45" stroke-width="1"/>

  <!-- Enable for: radio group — DB: pos_config.training_scope -->
  <text x="228" y="208" font-size="11" font-weight="600" fill="#E2E8F0">Enable Training Mode for:</text>
  <use xlink:href="#gearIcon" x="400" y="197" width="12" height="12"/>
  <use xlink:href="#radioOn" x="228" y="218" width="14" height="14"/>
  <text x="248" y="230" font-size="10" fill="#E2E8F0">This terminal only</text>
  <use xlink:href="#radioOff" x="228" y="236" width="14" height="14"/>
  <text x="248" y="248" font-size="10" fill="#94A3B8">All terminals</text>
  <use xlink:href="#radioOff" x="228" y="254" width="14" height="14"/>
  <text x="248" y="266" font-size="10" fill="#94A3B8">Specific terminals (select)</text>

  <line x1="228" y1="278" x2="646" y2="278" stroke="#2A2E45" stroke-width="1"/>

  <!-- Auto-disable — DB: pos_config.training_auto_disable_hours -->
  <text x="228" y="296" font-size="11" font-weight="600" fill="#E2E8F0">Auto-disable after:</text>
  <use xlink:href="#gearIcon" x="350" y="285" width="12" height="12"/>
  <rect x="430" y="282" width="200" height="26" rx="5" fill="#0C0E1A" stroke="#2A2E45" stroke-width="1"/>
  <text x="442" y="300" font-size="10" fill="#E2E8F0">4 hours</text>
  <use xlink:href="#dropdown" x="616" y="291" width="12" height="8"/>

  <line x1="228" y1="314" x2="646" y2="314" stroke="#2A2E45" stroke-width="1"/>

  <!-- Allow trainer override — DB: pos_config.trainer_override_enabled -->
  <text x="228" y="332" font-size="11" font-weight="600" fill="#E2E8F0">Allow trainer override</text>
  <text x="228" y="346" font-size="9" fill="#64748B">Manager can toggle without full settings access</text>
  <use xlink:href="#toggleOn" x="590" y="322" width="48" height="26"/>
  <use xlink:href="#gearIcon" x="568" y="328" width="12" height="12"/>

  <line x1="228" y1="358" x2="646" y2="358" stroke="#2A2E45" stroke-width="1"/>

  <!-- Trainer PIN — DB: pos_config.trainer_pin_hash -->
  <text x="228" y="376" font-size="11" font-weight="600" fill="#E2E8F0">Trainer PIN:</text>
  <use xlink:href="#gearIcon" x="302" y="365" width="12" height="12"/>
  <rect x="430" y="362" width="100" height="26" rx="5" fill="#0C0E1A" stroke="#2A2E45" stroke-width="1"/>
  <text x="450" y="380" font-size="13" fill="#E2E8F0" letter-spacing="4">****</text>
  <text x="228" y="394" font-size="9" fill="#64748B">Separate from manager PIN -- share with trainers only</text>

  <line x1="228" y1="404" x2="646" y2="404" stroke="#2A2E45" stroke-width="1"/>

  <!-- Reset training data — DB: pos_config.auto_reset_training -->
  <text x="228" y="422" font-size="11" font-weight="600" fill="#E2E8F0">Reset training data automatically</text>
  <text x="228" y="436" font-size="9" fill="#64748B">Clears all training orders when session ends</text>
  <use xlink:href="#toggleOn" x="590" y="412" width="48" height="26"/>
  <use xlink:href="#gearIcon" x="568" y="418" width="12" height="12"/>
  <text x="228" y="450" font-size="9" fill="#64748B">Last reset: May 26, 2026 at end of session</text>

  <!-- ==========================================================
       PERMISSIONS — who can activate
       DB: pos_rbac_policies.training_mode_access
       ========================================================== -->
  <text x="212" y="474" font-size="10" font-weight="700" fill="#64748B" letter-spacing="1">PERMISSIONS</text>
  <rect x="212" y="482" width="446" height="112" rx="10" fill="#1A1D2E" stroke="#2A2E45" stroke-width="1"/>

  <text x="228" y="502" font-size="11" font-weight="600" fill="#E2E8F0">Who can activate training mode:</text>
  <use xlink:href="#gearIcon" x="422" y="491" width="12" height="12"/>

  <use xlink:href="#checkboxOn" x="228" y="510" width="14" height="14"/>
  <text x="248" y="522" font-size="10" fill="#E2E8F0">Owner / Admin</text>

  <use xlink:href="#checkboxOn" x="228" y="528" width="14" height="14"/>
  <text x="248" y="540" font-size="10" fill="#E2E8F0">Manager</text>

  <use xlink:href="#checkboxOn" x="228" y="546" width="14" height="14"/>
  <text x="248" y="558" font-size="10" fill="#E2E8F0">Supervisor</text>

  <use xlink:href="#checkboxOff" x="228" y="564" width="14" height="14"/>
  <text x="248" y="576" font-size="10" fill="#64748B">Server (unchecked)</text>

  <text x="228" y="590" font-size="9" fill="#64748B">Trainees use their normal PIN -- same RBAC applies</text>

  <!-- ==========================================================
       WHAT'S SIMULATED
       DB: pos_training_sessions isolation rules
       ========================================================== -->
  <text x="212" y="614" font-size="10" font-weight="700" fill="#64748B" letter-spacing="1">WHAT'S SIMULATED</text>
  <rect x="212" y="622" width="446" height="178" rx="10" fill="#1A1D2E" stroke="#2A2E45" stroke-width="1"/>

  <!-- Left column: Fully Simulated -->
  <text x="228" y="640" font-size="10" font-weight="700" fill="#22C55E">Fully Simulated (no real effect):</text>
  <use xlink:href="#simCheck" x="228" y="646" width="10" height="10"/>
  <text x="242" y="656" font-size="9" fill="#94A3B8">Order creation &amp; modification</text>
  <use xlink:href="#simCheck" x="228" y="660" width="10" height="10"/>
  <text x="242" y="670" font-size="9" fill="#94A3B8">Payment processing (Stripe test)</text>
  <use xlink:href="#simCheck" x="228" y="674" width="10" height="10"/>
  <text x="242" y="684" font-size="9" fill="#94A3B8">Receipt printing (marked TRAINING)</text>
  <use xlink:href="#simCheck" x="228" y="688" width="10" height="10"/>
  <text x="242" y="698" font-size="9" fill="#94A3B8">KDS ticket display (marked TRAINING)</text>
  <use xlink:href="#simCheck" x="228" y="702" width="10" height="10"/>
  <text x="242" y="712" font-size="9" fill="#94A3B8">Discount &amp; promo application</text>
  <use xlink:href="#simCheck" x="228" y="716" width="10" height="10"/>
  <text x="242" y="726" font-size="9" fill="#94A3B8">Reports (training-only dashboard)</text>

  <!-- Right column: NOT affected -->
  <line x1="432" y1="630" x2="432" y2="792" stroke="#2A2E45" stroke-width="1"/>
  <text x="442" y="640" font-size="10" font-weight="700" fill="#EF4444">NOT affected by training:</text>
  <use xlink:href="#simX" x="442" y="646" width="10" height="10"/>
  <text x="456" y="656" font-size="9" fill="#94A3B8">Production inventory</text>
  <use xlink:href="#simX" x="442" y="660" width="10" height="10"/>
  <text x="456" y="670" font-size="9" fill="#94A3B8">Production reports</text>
  <use xlink:href="#simX" x="442" y="674" width="10" height="10"/>
  <text x="456" y="684" font-size="9" fill="#94A3B8">Real card charges</text>
  <use xlink:href="#simX" x="442" y="688" width="10" height="10"/>
  <text x="456" y="698" font-size="9" fill="#94A3B8">Loyalty points</text>
  <use xlink:href="#simX" x="442" y="702" width="10" height="10"/>
  <text x="456" y="712" font-size="9" fill="#94A3B8">Real receipts to customers</text>
  <use xlink:href="#simX" x="442" y="716" width="10" height="10"/>
  <text x="456" y="726" font-size="9" fill="#94A3B8">Z-report / EOD</text>

  <!-- Note about cash drawer -->
  <line x1="228" y1="738" x2="646" y2="738" stroke="#2A2E45" stroke-width="1"/>
  <text x="228" y="754" font-size="9" fill="#8B5CF6">Cash drawer physically opens during training (same hw signal)</text>
  <text x="228" y="768" font-size="9" fill="#64748B">but no entry in pos_cash_movements for training sessions</text>
  <text x="228" y="782" font-size="9" fill="#64748B">(training_session_id IS NOT NULL filters from EOD)</text>

  <!-- ==========================================================
       STRIPE TEST CARDS
       DB: Stripe test mode when pos_config.training_mode_active
       ========================================================== -->
  <rect x="212" y="806" width="446" height="86" rx="10" fill="#1A1D2E" stroke="#8B5CF6" stroke-width="1.5"/>
  <text x="228" y="824" font-size="11" font-weight="700" fill="#8B5CF6">Stripe Test Cards for Training:</text>
  <rect x="228" y="830" width="410" height="16" rx="3" fill="#0C0E1A"/>
  <text x="234" y="842" font-size="9" fill="#22C55E" font-family="monospace">4242 4242 4242 4242</text>
  <text x="370" y="842" font-size="9" fill="#94A3B8">-- Success (any CVV, any future)</text>
  <rect x="228" y="848" width="410" height="16" rx="3" fill="#0C0E1A"/>
  <text x="234" y="860" font-size="9" fill="#EF4444" font-family="monospace">4000 0000 0000 0002</text>
  <text x="370" y="860" font-size="9" fill="#94A3B8">-- Card declined</text>
  <rect x="228" y="866" width="410" height="16" rx="3" fill="#0C0E1A"/>
  <text x="234" y="878" font-size="9" fill="#F59E0B" font-family="monospace">4000 0025 0000 3155</text>
  <text x="370" y="878" font-size="9" fill="#94A3B8">-- 3DS authentication required</text>

  <!-- Training history — DB: pos_training_sessions -->
  <text x="212" y="910" font-size="10" font-weight="600" fill="#94A3B8">Last session: May 26, 2026 -- 2h 14min -- Marcus, Jennifer, New Hire #3</text>
  <text x="212" y="926" font-size="9" fill="#64748B">47 training orders | 23 payments processed | </text>
  <text x="426" y="926" font-size="9" fill="#8B5CF6" text-decoration="underline">View Training Log</text>

  <!-- Action buttons -->
  <use xlink:href="#saveBtn" x="212" y="940" width="220" height="32"/>
  <rect x="446" y="940" width="212" height="32" rx="5" fill="none" stroke="#EF4444" stroke-width="1.5"/>
  <text x="552" y="961" font-size="11" font-weight="600" fill="#EF4444" text-anchor="middle">Reset Training Data</text>

  <!-- ==========================================================
       VERTICAL DIVIDER
       ========================================================== -->
  <line x1="670" y1="0" x2="670" y2="1024" stroke="#2A2E45" stroke-width="2"/>

  <!-- ==========================================================
       RIGHT PANEL — Live Training Mode Preview
       x=670, w=696
       DB: pos_config.training_mode_active = true preview
       ========================================================== -->
  <rect x="670" y="0" width="696" height="1024" fill="#0C0E1A"/>

  <!-- Preview header -->
  <rect x="670" y="0" width="696" height="40" fill="#1A1D2E"/>
  <text x="690" y="18" font-size="10" font-weight="700" fill="#94A3B8" letter-spacing="1">LIVE PREVIEW -- REGISTER WITH TRAINING MODE ACTIVE</text>
  <text x="690" y="32" font-size="9" fill="#64748B">What staff see on the register terminal when training mode is ON</text>

  <!-- Register mockup frame -->
  <rect x="680" y="46" width="676" height="970" rx="12" fill="#161930" stroke="#8B5CF6" stroke-width="2"/>

  <!-- TRAINING MODE BANNER (purple) — DB: shown when pos_config.training_mode_active -->
  <rect x="680" y="46" width="676" height="36" rx="12" fill="url(#purpleGrad)"/>
  <rect x="680" y="70" width="676" height="12" fill="#8B5CF6"/>
  <text x="1018" y="70" font-size="10" font-weight="700" fill="#FFFFFF" text-anchor="middle">TRAINING MODE ACTIVE -- No real transactions. Stripe test mode. Excluded from reports.</text>

  <!-- Register top nav -->
  <rect x="680" y="82" width="676" height="40" fill="#1A1D2E"/>
  <text x="700" y="107" font-size="12" font-weight="700" fill="#F59E0B">Synalux POS</text>
  <!-- Training badge (reuses symbol) -->
  <use xlink:href="#trainingBadge" x="800" y="95" width="16" height="16"/>
  <text x="820" y="107" font-size="9" font-weight="700" fill="#8B5CF6">TRAINING</text>
  <text x="960" y="104" font-size="10" fill="#94A3B8">Tables</text>
  <text x="1010" y="104" font-size="10" fill="#94A3B8">KDS</text>
  <text x="1050" y="104" font-size="10" fill="#94A3B8">Reports</text>
  <circle cx="1226" cy="103" r="12" fill="#1E2235" stroke="#2A2E45" stroke-width="1"/>
  <text x="1221" y="107" font-size="9" fill="#E2E8F0">MK</text>
  <text x="1244" y="100" font-size="9" fill="#94A3B8">Marcus K.</text>
  <text x="1244" y="112" font-size="8" fill="#8B5CF6">Training Mode</text>
  <text x="1330" y="104" font-size="9" fill="#64748B">7:42 PM</text>

  <!-- ==========================================================
       Register body — 3-column layout
       ========================================================== -->

  <!-- Left: Category panel (w=110) -->
  <rect x="680" y="122" width="110" height="894" fill="#161930" stroke="#2A2E45" stroke-width="1"/>
  <text x="692" y="144" font-size="9" font-weight="600" fill="#F59E0B">All Items</text>
  <!-- Active category (purple accent for training) -->
  <rect x="680" y="150" width="110" height="30" fill="#1E2235"/>
  <rect x="680" y="150" width="3" height="30" fill="#8B5CF6"/>
  <text x="695" y="170" font-size="9" font-weight="600" fill="#8B5CF6">Burgers</text>
  <text x="695" y="200" font-size="9" fill="#94A3B8">Drinks</text>
  <text x="695" y="226" font-size="9" fill="#94A3B8">Sides</text>
  <text x="695" y="252" font-size="9" fill="#94A3B8">Pizza</text>
  <text x="695" y="278" font-size="9" fill="#94A3B8">Desserts</text>
  <text x="695" y="304" font-size="9" fill="#94A3B8">Beer</text>

  <!-- Center: Product grid (w=370) -->
  <rect x="790" y="122" width="370" height="894" fill="#0C0E1A"/>

  <!-- Search bar -->
  <rect x="800" y="130" width="350" height="28" rx="6" fill="#1A1D2E" stroke="#2A2E45" stroke-width="1"/>
  <text x="816" y="149" font-size="10" fill="#64748B">Search menu items...</text>

  <text x="800" y="176" font-size="9" font-weight="700" fill="#94A3B8" letter-spacing="1">BURGERS</text>

  <!-- Product tile 1: Classic Burger (uses trainingBadge) -->
  <rect x="800" y="184" width="108" height="96" rx="8" fill="#1A1D2E" stroke="#2A2E45" stroke-width="1"/>
  <use xlink:href="#trainingBadge" x="886" y="188" width="16" height="16"/>
  <rect x="814" y="200" width="32" height="32" rx="6" fill="#2A2E45"/>
  <text x="820" y="221" font-size="16">&#127828;</text>
  <text x="814" y="246" font-size="9" font-weight="600" fill="#E2E8F0">Classic Burger</text>
  <text x="814" y="268" font-size="10" font-weight="700" fill="#F59E0B">$18.00</text>

  <!-- Product tile 2: BBQ Bacon -->
  <rect x="916" y="184" width="108" height="96" rx="8" fill="#1A1D2E" stroke="#2A2E45" stroke-width="1"/>
  <use xlink:href="#trainingBadge" x="1002" y="188" width="16" height="16"/>
  <rect x="930" y="200" width="32" height="32" rx="6" fill="#2A2E45"/>
  <text x="936" y="221" font-size="16">&#127829;</text>
  <text x="930" y="246" font-size="9" font-weight="600" fill="#E2E8F0">BBQ Bacon</text>
  <text x="930" y="268" font-size="10" font-weight="700" fill="#F59E0B">$22.00</text>

  <!-- Product tile 3: Veggie -->
  <rect x="1032" y="184" width="108" height="96" rx="8" fill="#1A1D2E" stroke="#2A2E45" stroke-width="1"/>
  <use xlink:href="#trainingBadge" x="1118" y="188" width="16" height="16"/>
  <rect x="1046" y="200" width="32" height="32" rx="6" fill="#2A2E45"/>
  <text x="1052" y="221" font-size="16">&#127807;</text>
  <text x="1046" y="246" font-size="9" font-weight="600" fill="#E2E8F0">Veggie Burger</text>
  <text x="1046" y="268" font-size="10" font-weight="700" fill="#F59E0B">$17.00</text>

  <!-- Product tile 4: Craft Beer -->
  <rect x="800" y="288" width="108" height="96" rx="8" fill="#1A1D2E" stroke="#2A2E45" stroke-width="1"/>
  <use xlink:href="#trainingBadge" x="886" y="292" width="16" height="16"/>
  <rect x="814" y="304" width="32" height="32" rx="6" fill="#2A2E45"/>
  <text x="820" y="325" font-size="16">&#127866;</text>
  <text x="814" y="350" font-size="9" font-weight="600" fill="#E2E8F0">Craft Beer</text>
  <text x="814" y="372" font-size="10" font-weight="700" fill="#F59E0B">$9.00</text>

  <!-- Product tile 5: House Fries -->
  <rect x="916" y="288" width="108" height="96" rx="8" fill="#1A1D2E" stroke="#2A2E45" stroke-width="1"/>
  <use xlink:href="#trainingBadge" x="1002" y="292" width="16" height="16"/>
  <rect x="930" y="304" width="32" height="32" rx="6" fill="#2A2E45"/>
  <text x="936" y="325" font-size="16">&#127839;</text>
  <text x="930" y="350" font-size="9" font-weight="600" fill="#E2E8F0">House Fries</text>
  <text x="930" y="372" font-size="10" font-weight="700" fill="#F59E0B">$7.00</text>

  <!-- Product tile 6: Soft Drink -->
  <rect x="1032" y="288" width="108" height="96" rx="8" fill="#1A1D2E" stroke="#2A2E45" stroke-width="1"/>
  <use xlink:href="#trainingBadge" x="1118" y="292" width="16" height="16"/>
  <rect x="1046" y="304" width="32" height="32" rx="6" fill="#2A2E45"/>
  <text x="1052" y="325" font-size="16">&#127848;</text>
  <text x="1046" y="350" font-size="9" font-weight="600" fill="#E2E8F0">Soft Drink</text>
  <text x="1046" y="372" font-size="10" font-weight="700" fill="#F59E0B">$4.00</text>

  <!-- Training notice under grid -->
  <rect x="800" y="392" width="350" height="20" rx="5" fill="#2D1F6E"/>
  <text x="975" y="406" font-size="8" fill="#C4B5FD" text-anchor="middle">All items tagged with purple T -- no inventory depleted.</text>

  <!-- ==========================================================
       PAYMENT SCREEN PREVIEW (inset)
       ========================================================== -->
  <rect x="800" y="420" width="350" height="190" rx="10" fill="#1A1D2E" stroke="#8B5CF6" stroke-width="1.5"/>
  <text x="816" y="438" font-size="9" font-weight="700" fill="#A78BFA">PAYMENT SCREEN PREVIEW</text>

  <rect x="816" y="444" width="318" height="158" rx="6" fill="#0C0E1A" stroke="#2A2E45" stroke-width="1"/>
  <rect x="816" y="444" width="318" height="24" rx="6" fill="#2D1F6E"/>
  <text x="975" y="460" font-size="9" font-weight="700" fill="#C4B5FD" text-anchor="middle">TRAINING MODE -- TEST PAYMENT</text>

  <!-- TRAINING watermark -->
  <text x="975" y="528" font-size="32" font-weight="900" fill="#8B5CF6" opacity="0.1" text-anchor="middle" transform="rotate(-25 975 528)">TRAINING</text>

  <!-- Amount -->
  <text x="975" y="490" font-size="16" font-weight="700" fill="#E2E8F0" text-anchor="middle">$29.39</text>
  <text x="975" y="504" font-size="8" fill="#A78BFA" text-anchor="middle">(SIMULATED -- no real charge)</text>

  <!-- Card input -->
  <rect x="836" y="512" width="278" height="20" rx="4" fill="#1A1D2E" stroke="#8B5CF6" stroke-width="1"/>
  <text x="846" y="526" font-size="8" fill="#A78BFA" font-family="monospace">4242 4242 4242 4242  12/27  123</text>

  <!-- Charge button (purple for training) -->
  <rect x="836" y="538" width="278" height="28" rx="6" fill="#7C3AED"/>
  <text x="975" y="557" font-size="10" font-weight="700" fill="#FFF" text-anchor="middle">Charge $29.39 (SIMULATED)</text>

  <!-- Training receipt note -->
  <rect x="836" y="572" width="278" height="24" rx="4" fill="#FFF5F5" stroke="#EF4444" stroke-width="1"/>
  <text x="975" y="585" font-size="7" font-weight="900" fill="#EF4444" text-anchor="middle">TRAINING RECEIPT -- NOT A REAL TRANSACTION</text>
  <text x="975" y="594" font-size="6" fill="#B91C1C" text-anchor="middle">Table 4 | $29.39 | Stripe Test Mode | Session #7</text>

  <!-- Right: Order Ticket (w=196) -->
  <rect x="1160" y="122" width="196" height="894" fill="#1A1D2E" stroke="#2A2E45" stroke-width="1"/>

  <!-- Ticket header -->
  <rect x="1160" y="122" width="196" height="32" fill="#2D1F6E"/>
  <text x="1258" y="137" font-size="9" font-weight="700" fill="#C4B5FD" text-anchor="middle">TABLE 4</text>
  <text x="1258" y="149" font-size="7" fill="#A78BFA" text-anchor="middle">TRAINING SESSION</text>

  <!-- Order items -->
  <text x="1172" y="176" font-size="9" font-weight="600" fill="#E2E8F0">Classic Burger</text>
  <text x="1172" y="188" font-size="8" fill="#64748B">x 1</text>
  <text x="1340" y="176" font-size="9" fill="#E2E8F0" text-anchor="end">$18.00</text>

  <text x="1172" y="208" font-size="9" font-weight="600" fill="#E2E8F0">Craft Beer</text>
  <text x="1172" y="220" font-size="8" fill="#64748B">x 1</text>
  <text x="1340" y="208" font-size="9" fill="#E2E8F0" text-anchor="end">$9.00</text>

  <line x1="1172" y1="232" x2="1340" y2="232" stroke="#2A2E45" stroke-width="1" stroke-dasharray="4,3"/>

  <!-- Totals -->
  <text x="1172" y="248" font-size="9" fill="#94A3B8">Subtotal</text>
  <text x="1340" y="248" font-size="9" fill="#E2E8F0" text-anchor="end">$27.00</text>
  <text x="1172" y="264" font-size="9" fill="#94A3B8">Tax (SIMULATED)</text>
  <text x="1340" y="264" font-size="9" fill="#94A3B8" text-anchor="end">$2.39</text>
  <line x1="1172" y1="272" x2="1340" y2="272" stroke="#2A2E45" stroke-width="1"/>
  <text x="1172" y="290" font-size="11" font-weight="700" fill="#E2E8F0">Total</text>
  <text x="1340" y="290" font-size="11" font-weight="700" fill="#E2E8F0" text-anchor="end">$29.39</text>

  <!-- Charge button: PURPLE -->
  <rect x="1172" y="300" width="168" height="36" rx="8" fill="#7C3AED"/>
  <text x="1256" y="323" font-size="10" font-weight="700" fill="#FFFFFF" text-anchor="middle">CHARGE $29.39</text>

  <!-- Test card hint -->
  <rect x="1172" y="342" width="168" height="20" rx="5" fill="#1E1B4B"/>
  <text x="1256" y="356" font-size="7" fill="#A78BFA" text-anchor="middle">Test: 4242 4242 4242 4242</text>

  <!-- Discount/Note buttons -->
  <rect x="1172" y="370" width="80" height="24" rx="5" fill="#1E2235" stroke="#2A2E45" stroke-width="1"/>
  <text x="1212" y="386" font-size="8" fill="#94A3B8" text-anchor="middle">Discount</text>
  <rect x="1260" y="370" width="80" height="24" rx="5" fill="#1E2235" stroke="#2A2E45" stroke-width="1"/>
  <text x="1300" y="386" font-size="8" fill="#94A3B8" text-anchor="middle">Add Note</text>

  <rect x="1172" y="400" width="168" height="24" rx="5" fill="none" stroke="#EF4444" stroke-width="1"/>
  <text x="1256" y="416" font-size="8" fill="#EF4444" text-anchor="middle">Void (Training)</text>

  <!-- Training session tracker -->
  <rect x="1172" y="432" width="168" height="52" rx="6" fill="#0C0E1A" stroke="#2D1F6E" stroke-width="1"/>
  <text x="1256" y="448" font-size="8" font-weight="700" fill="#A78BFA" text-anchor="middle">TRAINING SESSION</text>
  <text x="1256" y="462" font-size="9" font-weight="700" fill="#C4B5FD" text-anchor="middle">Session #7</text>
  <text x="1256" y="474" font-size="7" fill="#64748B" text-anchor="middle">Trainee: Marcus K. | 0:23:14</text>

  <!-- ==========================================================
       TRAINEE PROGRESS TRACKING (bottom right)
       DB: pos_training_sessions.progress JSONB
       ========================================================== -->
  <rect x="1160" y="500" width="196" height="200" rx="8" fill="#1A1D2E" stroke="#8B5CF6" stroke-width="1"/>
  <text x="1172" y="518" font-size="9" font-weight="700" fill="#A78BFA">TRAINEE PROGRESS</text>
  <use xlink:href="#gearIcon" x="1270" y="508" width="12" height="12"/>

  <!-- Progress items — DB: pos_training_sessions.progress JSONB -->
  <use xlink:href="#simCheck" x="1172" y="524" width="10" height="10"/>
  <text x="1186" y="534" font-size="8" fill="#22C55E">Create order</text>
  <use xlink:href="#simCheck" x="1172" y="540" width="10" height="10"/>
  <text x="1186" y="550" font-size="8" fill="#22C55E">Add items to order</text>
  <use xlink:href="#simCheck" x="1172" y="556" width="10" height="10"/>
  <text x="1186" y="566" font-size="8" fill="#22C55E">Apply modifier</text>
  <use xlink:href="#simCheck" x="1172" y="572" width="10" height="10"/>
  <text x="1186" y="582" font-size="8" fill="#22C55E">Process payment</text>
  <use xlink:href="#simCheck" x="1172" y="588" width="10" height="10"/>
  <text x="1186" y="598" font-size="8" fill="#22C55E">Apply discount</text>
  <use xlink:href="#simX" x="1172" y="604" width="10" height="10"/>
  <text x="1186" y="614" font-size="8" fill="#94A3B8">Split check</text>
  <use xlink:href="#simX" x="1172" y="620" width="10" height="10"/>
  <text x="1186" y="630" font-size="8" fill="#94A3B8">Process refund</text>
  <use xlink:href="#simX" x="1172" y="636" width="10" height="10"/>
  <text x="1186" y="646" font-size="8" fill="#94A3B8">Transfer table</text>

  <!-- Progress bar -->
  <rect x="1172" y="658" width="168" height="8" rx="4" fill="#2A2E45"/>
  <rect x="1172" y="658" width="105" height="8" rx="4" fill="url(#purpleGrad)"/>
  <text x="1256" y="680" font-size="8" font-weight="700" fill="#A78BFA" text-anchor="middle">5/8 tasks complete (63%)</text>
  <text x="1256" y="692" font-size="7" fill="#64748B" text-anchor="middle">Session started 0:23 ago</text>

  <!-- ==========================================================
       WORKFLOW INTEGRATION NOTE (bottom of preview)
       ========================================================== -->
  <rect x="680" y="620" width="470" height="120" rx="8" fill="#1A1D2E" stroke="#F59E0B" stroke-width="1.5"/>
  <text x="696" y="636" font-size="9" font-weight="700" fill="#F59E0B">WORKFLOW INTEGRATION</text>
  <text x="696" y="650" font-size="8" fill="#94A3B8" font-family="monospace">pos_config.training_mode_active boolean</text>
  <text x="696" y="662" font-size="8" fill="#94A3B8" font-family="monospace">pos_orders.training_session_id UUID (non-null = training)</text>
  <text x="696" y="674" font-size="8" fill="#94A3B8" font-family="monospace">Reports: WHERE training_session_id IS NOT NULL excluded</text>
  <text x="696" y="686" font-size="8" fill="#94A3B8" font-family="monospace">Stripe: STRIPE_TEST_KEY when training active</text>
  <text x="696" y="698" font-size="8" fill="#94A3B8" font-family="monospace">KDS: training flag -&gt; purple display</text>
  <text x="696" y="710" font-size="8" fill="#94A3B8" font-family="monospace">Inventory: Edge Fn skips depletion for training</text>
  <text x="696" y="722" font-size="8" fill="#94A3B8" font-family="monospace">EOD: training orders excluded from Z-report</text>
  <text x="696" y="734" font-size="8" fill="#94A3B8" font-family="monospace">Purge: DELETE WHERE training_session_id = X on end</text>

</svg>