<svg xmlns="http://www.w3.org/2000/svg" viewBox="0 0 1366 1024" font-family="system-ui,-apple-system,sans-serif">
  <!-- Background -->
  <rect width="1366" height="1024" fill="#0F1117"/>

  <!-- ===== LEFT NAV (w=180) ===== -->
  <rect x="0" y="0" width="180" height="1024" fill="#13162A"/>
  <text x="14" y="28" font-size="13" font-weight="700" fill="#F59E0B">⚙ Back Office</text>
  <text x="14" y="60" font-size="11" fill="#8B92A5">Menu Builder</text>
  <text x="14" y="84" font-size="11" fill="#8B92A5">Cash Management</text>
  <text x="14" y="108" font-size="11" fill="#8B92A5">Inventory</text>
  <!-- Active item -->
  <rect x="0" y="116" width="180" height="32" fill="#1E2240" rx="4"/>
  <rect x="0" y="116" width="3" height="32" fill="#F59E0B"/>
  <text x="14" y="136" font-size="11" font-weight="600" fill="#F59E0B">Recipes &amp; Food Cost</text>
  <text x="14" y="164" font-size="11" fill="#8B92A5">Employees</text>
  <text x="14" y="188" font-size="11" fill="#8B92A5">Taxes</text>
  <text x="14" y="212" font-size="11" fill="#8B92A5">Discounts</text>
  <text x="14" y="236" font-size="11" fill="#8B92A5">Loyalty</text>
  <text x="14" y="260" font-size="11" fill="#8B92A5">Gift Cards</text>
  <text x="14" y="284" font-size="11" fill="#8B92A5">Integrations</text>
  <text x="14" y="308" font-size="11" fill="#8B92A5">Reports</text>
  <text x="14" y="332" font-size="11" fill="#8B92A5">Receipts</text>
  <text x="14" y="356" font-size="11" fill="#8B92A5">Printers</text>

  <!-- ===== MAIN AREA (x=180) ===== -->

  <!-- HEADER BAR -->
  <rect x="180" y="0" width="1186" height="58" fill="#1A1D2E"/>
  <text x="198" y="24" font-size="17" font-weight="700" fill="#F1F5F9">Recipe Management &amp; Food Cost</text>
  <text x="198" y="44" font-size="10" fill="#64748B">Define recipes → system tracks theoretical food cost. Compare actual vs theoretical to detect waste, theft, portioning errors.</text>
  <!-- Header action buttons -->
  <rect x="1090" y="12" width="136" height="30" rx="6" fill="#F59E0B"/>
  <text x="1106" y="31" font-size="11" font-weight="600" fill="#000">+ Import Recipes</text>
  <rect x="1234" y="12" width="120" height="30" rx="6" fill="#1E2240" stroke="#2D3148" stroke-width="1"/>
  <text x="1250" y="31" font-size="11" fill="#94A3B8">Export CSV</text>

  <!-- ===== STATS BAR (y=58, h=72) ===== -->
  <rect x="180" y="58" width="1186" height="72" fill="#13162A" stroke="#2D3148" stroke-width="1"/>

  <!-- Stat 1: Theoretical Food Cost -->
  <rect x="188" y="66" width="218" height="54" rx="6" fill="#0F2820" stroke="#10B981" stroke-width="1"/>
  <text x="200" y="84" font-size="9" fill="#94A3B8">THEORETICAL FOOD COST %</text>
  <text x="200" y="103" font-size="19" font-weight="700" fill="#10B981">28.4%</text>
  <text x="200" y="116" font-size="9" fill="#10B981">✓ Under 30% target</text>

  <!-- Stat 2: Actual Food Cost -->
  <rect x="414" y="66" width="200" height="54" rx="6" fill="#1C1A0A" stroke="#F59E0B" stroke-width="1"/>
  <text x="426" y="84" font-size="9" fill="#94A3B8">ACTUAL FOOD COST %</text>
  <text x="426" y="103" font-size="19" font-weight="700" fill="#F59E0B">31.2%</text>
  <text x="426" y="116" font-size="9" fill="#F59E0B">+2.8% over theoretical</text>

  <!-- Stat 3: Variance -->
  <rect x="622" y="66" width="200" height="54" rx="6" fill="#1F0A0A" stroke="#EF4444" stroke-width="1"/>
  <text x="634" y="84" font-size="9" fill="#94A3B8">VARIANCE THIS MONTH</text>
  <text x="634" y="103" font-size="19" font-weight="700" fill="#EF4444">+$847</text>
  <text x="634" y="116" font-size="9" fill="#EF4444">Actual cost above theoretical</text>

  <!-- Stat 4: Recipes Defined -->
  <rect x="830" y="66" width="200" height="54" rx="6" fill="#1A1D2E" stroke="#2D3148" stroke-width="1"/>
  <text x="842" y="84" font-size="9" fill="#94A3B8">RECIPES DEFINED</text>
  <text x="842" y="103" font-size="19" font-weight="700" fill="#F1F5F9">94 / 127</text>
  <text x="842" y="116" font-size="9" fill="#64748B">items with recipes</text>

  <!-- Stat 5: Alert -->
  <rect x="1038" y="66" width="320" height="54" rx="6" fill="#1C1500" stroke="#F59E0B" stroke-width="1"/>
  <text x="1054" y="84" font-size="10" font-weight="700" fill="#F59E0B">⚠ Alert: 33 items have no recipe</text>
  <text x="1054" y="100" font-size="9" fill="#F59E0B">Food cost data is incomplete for 33 menu items.</text>
  <text x="1054" y="116" font-size="9" fill="#F59E0B">Actual vs theoretical comparison will be skewed.</text>

  <!-- ===== THREE-PANEL LAYOUT (y=130) ===== -->

  <!-- ===== LEFT PANEL: Recipe List (x=180, w=300) ===== -->
  <rect x="180" y="130" width="300" height="894" fill="#1A1D2E" stroke="#2D3148" stroke-width="1"/>

  <!-- Search bar -->
  <rect x="188" y="138" width="284" height="30" rx="6" fill="#0F1117" stroke="#2D3148" stroke-width="1"/>
  <text x="200" y="157" font-size="11" fill="#64748B">🔍 Search recipes...</text>

  <!-- Filter tabs -->
  <rect x="188" y="176" width="54" height="22" rx="4" fill="#F59E0B"/>
  <text x="197" y="191" font-size="9" font-weight="600" fill="#000">All (94)</text>
  <rect x="248" y="176" width="74" height="22" rx="4" fill="#1C1500" stroke="#F59E0B" stroke-width="1"/>
  <text x="253" y="191" font-size="9" fill="#F59E0B">Missing (33)</text>
  <rect x="328" y="176" width="62" height="22" rx="4" fill="#0F1117" stroke="#2D3148" stroke-width="1"/>
  <text x="334" y="191" font-size="9" fill="#64748B">Over Target</text>
  <rect x="396" y="176" width="68" height="22" rx="4" fill="#0F1117" stroke="#2D3148" stroke-width="1"/>
  <text x="400" y="191" font-size="9" fill="#64748B">Under Target</text>

  <!-- Recipe List Header -->
  <rect x="180" y="204" width="300" height="20" fill="#13162A"/>
  <text x="190" y="218" font-size="9" font-weight="600" fill="#64748B">RECIPE NAME</text>
  <text x="370" y="218" font-size="9" font-weight="600" fill="#64748B">COST%</text>

  <!-- Recipe item 1: Classic Burger — SELECTED -->
  <rect x="180" y="224" width="300" height="38" fill="#1E2240"/>
  <rect x="180" y="224" width="3" height="38" fill="#F59E0B"/>
  <text x="190" y="239" font-size="11" font-weight="600" fill="#F1F5F9">Classic Burger</text>
  <text x="190" y="254" font-size="9" fill="#64748B">Ground beef, brioche bun</text>
  <text x="358" y="240" font-size="11" font-weight="700" fill="#10B981">24.3%</text>
  <rect x="345" y="245" width="60" height="13" rx="6" fill="#064E3B"/>
  <text x="352" y="255" font-size="8" fill="#10B981">Under 30%</text>

  <!-- Recipe item 2: Caesar Salad -->
  <rect x="180" y="262" width="300" height="36" fill="#0F1117"/>
  <text x="190" y="276" font-size="11" fill="#F1F5F9">Caesar Salad</text>
  <text x="190" y="290" font-size="9" fill="#64748B">Romaine, parmesan, croutons</text>
  <text x="358" y="278" font-size="11" font-weight="700" fill="#10B981">18.2%</text>
  <rect x="345" y="283" width="60" height="13" rx="6" fill="#064E3B"/>
  <text x="352" y="293" font-size="8" fill="#10B981">Under 30%</text>

  <!-- Recipe item 3: Margherita Pizza -->
  <rect x="180" y="298" width="300" height="36" fill="#1A1D2E"/>
  <text x="190" y="312" font-size="11" fill="#F1F5F9">Margherita Pizza</text>
  <text x="190" y="326" font-size="9" fill="#64748B">Dough, tomato, mozzarella</text>
  <text x="358" y="314" font-size="11" font-weight="700" fill="#F59E0B">31.5%</text>
  <rect x="345" y="319" width="56" height="13" rx="6" fill="#1C1500"/>
  <text x="352" y="329" font-size="8" fill="#F59E0B">At Target</text>

  <!-- Recipe item 4: Ribeye Steak — RED -->
  <rect x="180" y="334" width="300" height="36" fill="#1F0A0A"/>
  <text x="190" y="348" font-size="11" fill="#FCA5A5">Ribeye Steak</text>
  <text x="190" y="362" font-size="9" fill="#EF4444">⚠ High food cost</text>
  <text x="358" y="350" font-size="11" font-weight="700" fill="#EF4444">44.2%</text>
  <rect x="342" y="355" width="64" height="13" rx="6" fill="#7F1D1D"/>
  <text x="349" y="365" font-size="8" fill="#EF4444">Over 30% !</text>

  <!-- Recipe item 5: Craft Beer -->
  <rect x="180" y="370" width="300" height="36" fill="#0F1117"/>
  <text x="190" y="384" font-size="11" fill="#F1F5F9">Craft Beer (Stella)</text>
  <text x="190" y="398" font-size="9" fill="#64748B">Draught, 16oz pour</text>
  <text x="358" y="386" font-size="11" font-weight="700" fill="#10B981">22.1%</text>
  <rect x="345" y="391" width="60" height="13" rx="6" fill="#064E3B"/>
  <text x="352" y="401" font-size="8" fill="#10B981">Under 30%</text>

  <!-- Recipe item 6: House Wine -->
  <rect x="180" y="406" width="300" height="36" fill="#1A1D2E"/>
  <text x="190" y="420" font-size="11" fill="#F1F5F9">House Wine (Glass)</text>
  <text x="190" y="434" font-size="9" fill="#64748B">6oz pour, house red</text>
  <text x="358" y="422" font-size="11" font-weight="700" fill="#F59E0B">38.0%</text>
  <rect x="351" y="427" width="54" height="13" rx="6" fill="#1C1500"/>
  <text x="356" y="437" font-size="8" fill="#F59E0B">Over 30%</text>

  <!-- Recipe item 7: Mac and Cheese -->
  <rect x="180" y="442" width="300" height="36" fill="#0F1117"/>
  <text x="190" y="456" font-size="11" fill="#F1F5F9">Mac &amp; Cheese</text>
  <text x="190" y="470" font-size="9" fill="#64748B">Pasta, cheddar, breadcrumb top</text>
  <text x="358" y="458" font-size="11" font-weight="700" fill="#10B981">19.4%</text>
  <rect x="345" y="463" width="60" height="13" rx="6" fill="#064E3B"/>
  <text x="352" y="473" font-size="8" fill="#10B981">Under 30%</text>

  <!-- Recipe item 8: Fish Tacos -->
  <rect x="180" y="478" width="300" height="36" fill="#1A1D2E"/>
  <text x="190" y="492" font-size="11" fill="#F1F5F9">Fish Tacos</text>
  <text x="190" y="506" font-size="9" fill="#64748B">Mahi-mahi, slaw, lime crema</text>
  <text x="358" y="494" font-size="11" font-weight="700" fill="#10B981">27.8%</text>
  <rect x="345" y="499" width="60" height="13" rx="6" fill="#064E3B"/>
  <text x="352" y="509" font-size="8" fill="#10B981">Under 30%</text>

  <!-- Recipe item 9: Lobster Bisque — RED -->
  <rect x="180" y="514" width="300" height="36" fill="#1F0A0A"/>
  <text x="190" y="528" font-size="11" fill="#FCA5A5">Lobster Bisque</text>
  <text x="190" y="542" font-size="9" fill="#EF4444">⚠ High food cost</text>
  <text x="358" y="530" font-size="11" font-weight="700" fill="#EF4444">42.1%</text>
  <rect x="342" y="535" width="64" height="13" rx="6" fill="#7F1D1D"/>
  <text x="349" y="545" font-size="8" fill="#EF4444">Over 30% !</text>

  <!-- Recipe item 10: Veggie Wrap -->
  <rect x="180" y="550" width="300" height="36" fill="#0F1117"/>
  <text x="190" y="564" font-size="11" fill="#F1F5F9">Veggie Wrap</text>
  <text x="190" y="578" font-size="9" fill="#64748B">Hummus, roasted veg, spinach</text>
  <text x="358" y="566" font-size="11" font-weight="700" fill="#10B981">16.9%</text>
  <rect x="345" y="571" width="60" height="13" rx="6" fill="#064E3B"/>
  <text x="352" y="581" font-size="8" fill="#10B981">Under 30%</text>

  <!-- Divider -->
  <rect x="180" y="590" width="300" height="1" fill="#2D3148"/>

  <!-- Missing Recipes Section -->
  <rect x="180" y="591" width="300" height="34" fill="#13162A"/>
  <text x="190" y="605" font-size="10" font-weight="600" fill="#64748B">▶ 33 items — No Recipe</text>
  <!-- Amber badge -->
  <rect x="290" y="596" width="20" height="16" rx="8" fill="#92400E"/>
  <text x="296" y="608" font-size="9" font-weight="700" fill="#F59E0B">!</text>
  <text x="316" y="605" font-size="9" fill="#F59E0B">33</text>
  <text x="190" y="618" font-size="9" fill="#64748B">Click to expand — food cost incomplete</text>

  <!-- Missing items preview (grayed) -->
  <rect x="180" y="625" width="300" height="24" fill="#0F1117" opacity="0.7"/>
  <text x="196" y="640" font-size="10" fill="#475569">Chicken Parm, BLT Sandwich...</text>

  <!-- Add Recipe button -->
  <rect x="188" y="660" width="160" height="32" rx="6" fill="#F59E0B"/>
  <text x="210" y="680" font-size="11" font-weight="700" fill="#000">+ Add Recipe</text>
  <rect x="356" y="660" width="116" height="32" rx="6" fill="#1A1D2E" stroke="#2D3148" stroke-width="1"/>
  <text x="366" y="680" font-size="11" fill="#94A3B8">Bulk Import</text>

  <!-- ===== CENTER PANEL: Recipe Editor (x=480, w=540) ===== -->
  <rect x="480" y="130" width="540" height="894" fill="#0F1117" stroke="#2D3148" stroke-width="1"/>

  <!-- Recipe Editor Header -->
  <rect x="480" y="130" width="540" height="52" fill="#1A1D2E"/>
  <text x="492" y="152" font-size="15" font-weight="700" fill="#F1F5F9">Classic Burger</text>
  <text x="492" y="170" font-size="10" fill="#94A3B8">Selling price:</text>
  <text x="554" y="170" font-size="10" font-weight="700" fill="#10B981">$18.00</text>
  <!-- Edit button -->
  <rect x="890" y="140" width="60" height="26" rx="5" fill="#F59E0B"/>
  <text x="905" y="157" font-size="10" font-weight="600" fill="#000">Edit</text>
  <!-- Duplicate button -->
  <rect x="958" y="140" width="54" height="26" rx="5" fill="#1E2240" stroke="#2D3148" stroke-width="1"/>
  <text x="967" y="157" font-size="10" fill="#94A3B8">Copy</text>

  <!-- Ingredients Table Header -->
  <rect x="480" y="182" width="540" height="26" fill="#1E2240"/>
  <text x="490" y="199" font-size="9" font-weight="600" fill="#64748B">INGREDIENT</text>
  <text x="640" y="199" font-size="9" font-weight="600" fill="#64748B">UNIT</text>
  <text x="682" y="199" font-size="9" font-weight="600" fill="#64748B">QTY</text>
  <text x="716" y="199" font-size="9" font-weight="600" fill="#64748B">UNIT COST</text>
  <text x="778" y="199" font-size="9" font-weight="600" fill="#64748B">RECIPE COST</text>
  <text x="848" y="199" font-size="9" font-weight="600" fill="#64748B">WASTE %</text>
  <text x="900" y="199" font-size="9" font-weight="600" fill="#64748B">✕</text>

  <!-- Ingredient row 1: Ground Beef -->
  <rect x="480" y="208" width="540" height="30" fill="#13162A"/>
  <text x="490" y="227" font-size="10" fill="#F1F5F9">Ground Beef (80/20)</text>
  <text x="640" y="227" font-size="10" fill="#94A3B8">lb</text>
  <text x="680" y="227" font-size="10" fill="#F1F5F9">0.35</text>
  <text x="716" y="227" font-size="10" fill="#94A3B8">$4.80/lb</text>
  <text x="782" y="227" font-size="10" font-weight="600" fill="#F59E0B">$1.68</text>
  <rect x="845" y="215" width="40" height="16" rx="3" fill="#1E2240" stroke="#2D3148" stroke-width="1"/>
  <text x="855" y="227" font-size="9" fill="#F97316">10%</text>
  <text x="902" y="227" font-size="11" fill="#64748B">✕</text>

  <!-- Ingredient row 2: Brioche Bun -->
  <rect x="480" y="238" width="540" height="30" fill="#0F1117"/>
  <text x="490" y="257" font-size="10" fill="#F1F5F9">Brioche Bun</text>
  <text x="640" y="257" font-size="10" fill="#94A3B8">each</text>
  <text x="680" y="257" font-size="10" fill="#F1F5F9">1</text>
  <text x="716" y="257" font-size="10" fill="#94A3B8">$0.45/ea</text>
  <text x="782" y="257" font-size="10" font-weight="600" fill="#F59E0B">$0.45</text>
  <rect x="845" y="245" width="40" height="16" rx="3" fill="#1E2240" stroke="#2D3148" stroke-width="1"/>
  <text x="857" y="257" font-size="9" fill="#64748B">5%</text>
  <text x="902" y="257" font-size="11" fill="#64748B">✕</text>

  <!-- Ingredient row 3: American Cheese -->
  <rect x="480" y="268" width="540" height="30" fill="#13162A"/>
  <text x="490" y="287" font-size="10" fill="#F1F5F9">American Cheese</text>
  <text x="640" y="287" font-size="10" fill="#94A3B8">slice</text>
  <text x="680" y="287" font-size="10" fill="#F1F5F9">1.5</text>
  <text x="716" y="287" font-size="10" fill="#94A3B8">$0.18/sl</text>
  <text x="782" y="287" font-size="10" font-weight="600" fill="#F59E0B">$0.27</text>
  <rect x="845" y="275" width="40" height="16" rx="3" fill="#1E2240" stroke="#2D3148" stroke-width="1"/>
  <text x="857" y="287" font-size="9" fill="#64748B">2%</text>
  <text x="902" y="287" font-size="11" fill="#64748B">✕</text>

  <!-- Ingredient row 4: Lettuce -->
  <rect x="480" y="298" width="540" height="30" fill="#0F1117"/>
  <text x="490" y="317" font-size="10" fill="#F1F5F9">Lettuce</text>
  <text x="640" y="317" font-size="10" fill="#94A3B8">oz</text>
  <text x="680" y="317" font-size="10" fill="#F1F5F9">1.5</text>
  <text x="716" y="317" font-size="10" fill="#94A3B8">$0.08/oz</text>
  <text x="782" y="317" font-size="10" font-weight="600" fill="#F59E0B">$0.12</text>
  <rect x="845" y="305" width="40" height="16" rx="3" fill="#1E2240" stroke="#2D3148" stroke-width="1"/>
  <text x="851" y="317" font-size="9" fill="#F97316">15%</text>
  <text x="902" y="317" font-size="11" fill="#64748B">✕</text>

  <!-- Ingredient row 5: Tomato -->
  <rect x="480" y="328" width="540" height="30" fill="#13162A"/>
  <text x="490" y="347" font-size="10" fill="#F1F5F9">Tomato</text>
  <text x="640" y="347" font-size="10" fill="#94A3B8">slice</text>
  <text x="680" y="347" font-size="10" fill="#F1F5F9">2</text>
  <text x="716" y="347" font-size="10" fill="#94A3B8">$0.06/sl</text>
  <text x="782" y="347" font-size="10" font-weight="600" fill="#F59E0B">$0.12</text>
  <rect x="845" y="335" width="40" height="16" rx="3" fill="#1E2240" stroke="#2D3148" stroke-width="1"/>
  <text x="851" y="347" font-size="9" fill="#F97316">20%</text>
  <text x="902" y="347" font-size="11" fill="#64748B">✕</text>

  <!-- Ingredient row 6: Pickles -->
  <rect x="480" y="358" width="540" height="30" fill="#0F1117"/>
  <text x="490" y="377" font-size="10" fill="#F1F5F9">Pickles</text>
  <text x="640" y="377" font-size="10" fill="#94A3B8">oz</text>
  <text x="680" y="377" font-size="10" fill="#F1F5F9">0.5</text>
  <text x="716" y="377" font-size="10" fill="#94A3B8">$0.04/oz</text>
  <text x="782" y="377" font-size="10" font-weight="600" fill="#F59E0B">$0.02</text>
  <rect x="845" y="365" width="40" height="16" rx="3" fill="#1E2240" stroke="#2D3148" stroke-width="1"/>
  <text x="857" y="377" font-size="9" fill="#64748B">0%</text>
  <text x="902" y="377" font-size="11" fill="#64748B">✕</text>

  <!-- Ingredient row 7: Red Onion -->
  <rect x="480" y="388" width="540" height="30" fill="#13162A"/>
  <text x="490" y="407" font-size="10" fill="#F1F5F9">Red Onion</text>
  <text x="640" y="407" font-size="10" fill="#94A3B8">oz</text>
  <text x="680" y="407" font-size="10" fill="#F1F5F9">0.5</text>
  <text x="716" y="407" font-size="10" fill="#94A3B8">$0.05/oz</text>
  <text x="782" y="407" font-size="10" font-weight="600" fill="#F59E0B">$0.03</text>
  <rect x="845" y="395" width="40" height="16" rx="3" fill="#1E2240" stroke="#2D3148" stroke-width="1"/>
  <text x="851" y="407" font-size="9" fill="#64748B">10%</text>
  <text x="902" y="407" font-size="11" fill="#64748B">✕</text>

  <!-- Ingredient row 8: Ketchup/Mustard -->
  <rect x="480" y="418" width="540" height="30" fill="#0F1117"/>
  <text x="490" y="437" font-size="10" fill="#F1F5F9">Ketchup/Mustard</text>
  <text x="640" y="437" font-size="10" fill="#94A3B8">oz</text>
  <text x="680" y="437" font-size="10" fill="#F1F5F9">1</text>
  <text x="716" y="437" font-size="10" fill="#94A3B8">$0.03/oz</text>
  <text x="782" y="437" font-size="10" font-weight="600" fill="#F59E0B">$0.03</text>
  <rect x="845" y="425" width="40" height="16" rx="3" fill="#1E2240" stroke="#2D3148" stroke-width="1"/>
  <text x="857" y="437" font-size="9" fill="#64748B">0%</text>
  <text x="902" y="437" font-size="11" fill="#64748B">✕</text>

  <!-- Ingredient row 9: Burger Sauce -->
  <rect x="480" y="448" width="540" height="30" fill="#13162A"/>
  <text x="490" y="467" font-size="10" fill="#F1F5F9">Burger Sauce</text>
  <text x="640" y="467" font-size="10" fill="#94A3B8">oz</text>
  <text x="680" y="467" font-size="10" fill="#F1F5F9">1</text>
  <text x="716" y="467" font-size="10" fill="#94A3B8">$0.12/oz</text>
  <text x="782" y="467" font-size="10" font-weight="600" fill="#F59E0B">$0.12</text>
  <rect x="845" y="455" width="40" height="16" rx="3" fill="#1E2240" stroke="#2D3148" stroke-width="1"/>
  <text x="857" y="467" font-size="9" fill="#64748B">0%</text>
  <text x="902" y="467" font-size="11" fill="#64748B">✕</text>

  <!-- Ingredient row 10: Fry Oil -->
  <rect x="480" y="478" width="540" height="30" fill="#0F1117"/>
  <text x="490" y="497" font-size="10" fill="#F1F5F9">Fry Oil (portion)</text>
  <text x="640" y="497" font-size="10" fill="#94A3B8">oz</text>
  <text x="680" y="497" font-size="10" fill="#F1F5F9">0.25</text>
  <text x="716" y="497" font-size="10" fill="#94A3B8">$0.08/oz</text>
  <text x="782" y="497" font-size="10" font-weight="600" fill="#F59E0B">$0.02</text>
  <rect x="845" y="485" width="40" height="16" rx="3" fill="#1E2240" stroke="#2D3148" stroke-width="1"/>
  <text x="857" y="497" font-size="9" fill="#64748B">0%</text>
  <text x="902" y="497" font-size="11" fill="#64748B">✕</text>

  <!-- Add ingredient row -->
  <rect x="480" y="508" width="540" height="28" fill="#13162A" stroke="#2D3148" stroke-width="1" stroke-dasharray="4,3"/>
  <text x="560" y="526" font-size="10" fill="#F59E0B">+ Add Ingredient</text>

  <!-- Divider -->
  <rect x="480" y="540" width="540" height="1" fill="#2D3148"/>

  <!-- COST SUMMARY (two columns) -->
  <rect x="480" y="541" width="540" height="22" fill="#1E2240"/>
  <text x="492" y="556" font-size="10" font-weight="700" fill="#94A3B8">COST SUMMARY</text>
  <text x="740" y="556" font-size="10" font-weight="700" fill="#94A3B8">TIME &amp; LABOR</text>

  <!-- Left cost column -->
  <rect x="480" y="563" width="256" height="208" fill="#0F1117"/>
  <text x="490" y="580" font-size="10" fill="#64748B">Raw ingredient cost:</text>
  <text x="660" y="580" font-size="10" font-weight="600" fill="#F1F5F9">$2.86</text>
  <text x="490" y="598" font-size="10" fill="#64748B">Waste-adjusted cost:</text>
  <text x="660" y="598" font-size="10" font-weight="600" fill="#F97316">$3.18</text>
  <text x="490" y="614" font-size="9" fill="#475569">(includes per-ingredient waste %)</text>
  <text x="490" y="632" font-size="10" fill="#64748B">Portion cost:</text>
  <text x="660" y="632" font-size="10" font-weight="600" fill="#F1F5F9">$3.18</text>
  <text x="490" y="650" font-size="10" fill="#64748B">Food cost %:</text>
  <text x="660" y="650" font-size="12" font-weight="700" fill="#10B981">17.7%</text>
  <text x="490" y="666" font-size="9" fill="#475569">($3.18 / $18.00 sell price)</text>
  <text x="490" y="684" font-size="10" fill="#64748B">Target food cost:</text>
  <text x="660" y="684" font-size="10" fill="#94A3B8">30%</text>
  <text x="490" y="702" font-size="10" font-weight="600" fill="#10B981">✓ Under target</text>
  <rect x="480" y="710" width="256" height="1" fill="#2D3148"/>
  <text x="490" y="726" font-size="10" fill="#64748B">Contribution margin:</text>
  <text x="660" y="726" font-size="10" font-weight="700" fill="#10B981">$14.82 / plate</text>
  <text x="490" y="744" font-size="10" fill="#64748B">Batch size:</text>
  <text x="660" y="744" font-size="10" fill="#94A3B8">1 portion</text>
  <text x="490" y="762" font-size="10" fill="#64748B">Menu category:</text>
  <text x="660" y="762" font-size="10" fill="#94A3B8">Burgers &amp; Mains</text>

  <!-- Right time/labor column -->
  <rect x="736" y="563" width="284" height="208" fill="#0F1117"/>
  <text x="746" y="580" font-size="10" fill="#64748B">Prep time:</text>
  <text x="900" y="580" font-size="10" fill="#F1F5F9">8 min</text>
  <text x="746" y="598" font-size="10" fill="#64748B">Cook time:</text>
  <text x="900" y="598" font-size="10" fill="#F1F5F9">6 min</text>
  <text x="746" y="616" font-size="10" fill="#64748B">Plating time:</text>
  <text x="900" y="616" font-size="10" fill="#F1F5F9">2 min</text>
  <text x="746" y="634" font-size="10" font-weight="600" fill="#F1F5F9">Total time:</text>
  <text x="900" y="634" font-size="10" font-weight="700" fill="#F1F5F9">16 min</text>
  <rect x="736" y="640" width="284" height="1" fill="#2D3148"/>
  <text x="746" y="658" font-size="10" fill="#64748B">Labor cost (est. $15/hr):</text>
  <text x="900" y="658" font-size="10" font-weight="600" fill="#F97316">$2.40</text>
  <text x="746" y="676" font-size="10" fill="#64748B">Prime cost (food+labor):</text>
  <text x="900" y="676" font-size="10" font-weight="700" fill="#F1F5F9">$5.58</text>
  <text x="746" y="692" font-size="9" fill="#475569">= 31.0% prime cost ratio</text>
  <rect x="736" y="700" width="284" height="1" fill="#2D3148"/>
  <text x="746" y="718" font-size="9" fill="#64748B">Rec. price for 30% food cost:</text>
  <text x="900" y="718" font-size="10" fill="#94A3B8">$10.60</text>
  <text x="746" y="736" font-size="10" fill="#64748B">Current price ($18.00):</text>
  <text x="900" y="736" font-size="10" font-weight="700" fill="#10B981">Good margin ✓</text>

  <!-- Action Buttons row -->
  <rect x="480" y="775" width="540" height="52" fill="#1A1D2E" stroke="#2D3148" stroke-width="1"/>
  <rect x="490" y="785" width="120" height="32" rx="6" fill="#F59E0B"/>
  <text x="510" y="805" font-size="11" font-weight="700" fill="#000">Save Recipe</text>
  <rect x="618" y="785" width="130" height="32" rx="6" fill="#1E2240" stroke="#2D3148" stroke-width="1"/>
  <text x="626" y="805" font-size="10" fill="#94A3B8">Print Recipe Card</text>
  <rect x="756" y="785" width="140" height="32" rx="6" fill="#1E2240" stroke="#2D3148" stroke-width="1"/>
  <text x="763" y="805" font-size="10" fill="#94A3B8">Copy to Similar Item</text>
  <text x="912" y="805" font-size="10" fill="#60A5FA" text-decoration="underline">History</text>

  <!-- ===== RIGHT PANEL: Analytics (x=1020, w=346) ===== -->
  <rect x="1020" y="130" width="346" height="894" fill="#1A1D2E" stroke="#2D3148" stroke-width="1"/>

  <!-- Food Cost Target Card -->
  <rect x="1028" y="138" width="330" height="118" rx="8" fill="#13162A" stroke="#2D3148" stroke-width="1"/>
  <text x="1040" y="158" font-size="11" font-weight="700" fill="#F1F5F9">Food Cost Target</text>
  <rect x="1280" y="144" width="70" height="20" rx="4" fill="#1E2240" stroke="#2D3148" stroke-width="1"/>
  <text x="1287" y="158" font-size="9" fill="#94A3B8">⚙ Configure</text>

  <!-- Target line -->
  <text x="1040" y="178" font-size="9" fill="#64748B">Target food cost:</text>
  <text x="1200" y="178" font-size="11" font-weight="700" fill="#F1F5F9">30%</text>
  <!-- Theoretical line -->
  <text x="1040" y="196" font-size="9" fill="#64748B">Current theoretical:</text>
  <text x="1200" y="196" font-size="11" font-weight="700" fill="#10B981">28.4%</text>
  <text x="1250" y="196" font-size="9" fill="#10B981">✓</text>
  <!-- Actual line -->
  <text x="1040" y="214" font-size="9" fill="#64748B">Current actual:</text>
  <text x="1200" y="214" font-size="11" font-weight="700" fill="#EF4444">31.2%</text>
  <text x="1250" y="214" font-size="9" fill="#EF4444">▲ over</text>
  <!-- Variance -->
  <text x="1040" y="232" font-size="9" fill="#64748B">Variance:</text>
  <text x="1200" y="232" font-size="11" font-weight="700" fill="#EF4444">2.8% = $847/mo</text>
  <text x="1040" y="248" font-size="9" fill="#475569">Alert threshold: 3.0% — not yet triggered</text>

  <!-- Theoretical vs Actual Chart -->
  <rect x="1028" y="264" width="330" height="180" rx="8" fill="#13162A" stroke="#2D3148" stroke-width="1"/>
  <text x="1040" y="282" font-size="10" font-weight="700" fill="#F1F5F9">Theoretical vs Actual Food Cost %</text>
  <text x="1040" y="296" font-size="9" fill="#64748B">Monthly trend — Jan through May 2026</text>

  <!-- Chart axes -->
  <line x1="1052" y1="420" x2="1348" y2="420" stroke="#2D3148" stroke-width="1"/>
  <line x1="1052" y1="310" x2="1052" y2="420" stroke="#2D3148" stroke-width="1"/>
  <!-- Y axis labels -->
  <text x="1035" y="313" font-size="8" fill="#64748B" text-anchor="end">35%</text>
  <text x="1035" y="340" font-size="8" fill="#64748B" text-anchor="end">32%</text>
  <text x="1035" y="367" font-size="8" fill="#64748B" text-anchor="end">29%</text>
  <text x="1035" y="394" font-size="8" fill="#64748B" text-anchor="end">26%</text>
  <text x="1035" y="421" font-size="8" fill="#64748B" text-anchor="end">23%</text>
  <!-- Grid lines -->
  <line x1="1052" y1="313" x2="1348" y2="313" stroke="#1E2240" stroke-width="1"/>
  <line x1="1052" y1="340" x2="1348" y2="340" stroke="#1E2240" stroke-width="1"/>
  <line x1="1052" y1="367" x2="1348" y2="367" stroke="#1E2240" stroke-width="1"/>
  <line x1="1052" y1="394" x2="1348" y2="394" stroke="#1E2240" stroke-width="1"/>
  <!-- 30% target line -->
  <line x1="1052" y1="349" x2="1348" y2="349" stroke="#F59E0B" stroke-width="1" stroke-dasharray="4,3" opacity="0.7"/>
  <text x="1350" y="352" font-size="7" fill="#F59E0B">30% target</text>

  <!-- Jan bars: theoretical=27.8%, actual=28.5% — both near target, under -->
  <!-- scale: 23%=420, 26%=394, 29%=367, 32%=340, 35%=313 => each 1% = 9px, 23% baseline=420 -->
  <!-- theoretical 27.8% => height=(27.8-23)*9=43.2 => y=420-43=377 -->
  <!-- actual 28.5% => height=(28.5-23)*9=49.5 => y=420-50=370 -->
  <rect x="1062" y="377" width="16" height="43" fill="#F59E0B" rx="2"/>
  <rect x="1080" y="370" width="16" height="50" fill="#F97316" opacity="0.8" rx="2"/>
  <text x="1068" y="432" font-size="8" fill="#64748B">Jan</text>

  <!-- Feb: theoretical=27.5%, actual=28.8% -->
  <!-- theo: y=420-(27.5-23)*9=420-40.5=380, h=40 -->
  <!-- act:  y=420-(28.8-23)*9=420-52.2=368, h=52 -->
  <rect x="1116" y="380" width="16" height="40" fill="#F59E0B" rx="2"/>
  <rect x="1134" y="368" width="16" height="52" fill="#F97316" opacity="0.8" rx="2"/>
  <text x="1122" y="432" font-size="8" fill="#64748B">Feb</text>

  <!-- Mar: theoretical=28.1%, actual=29.6% -->
  <!-- theo: y=420-(28.1-23)*9=420-45.9=374, h=46 -->
  <!-- act:  y=420-(29.6-23)*9=420-59.4=361, h=59 -->
  <rect x="1170" y="374" width="16" height="46" fill="#F59E0B" rx="2"/>
  <rect x="1188" y="361" width="16" height="59" fill="#F97316" opacity="0.8" rx="2"/>
  <text x="1176" y="432" font-size="8" fill="#64748B">Mar</text>

  <!-- Apr: theoretical=28.2%, actual=30.4% -->
  <!-- theo: y=420-(28.2-23)*9=420-46.8=373, h=47 -->
  <!-- act:  y=420-(30.4-23)*9=420-66.6=353, h=67 -->
  <rect x="1224" y="373" width="16" height="47" fill="#F59E0B" rx="2"/>
  <rect x="1242" y="353" width="16" height="67" fill="#F97316" opacity="0.8" rx="2"/>
  <text x="1230" y="432" font-size="8" fill="#64748B">Apr</text>

  <!-- May: theoretical=28.4%, actual=31.2% — BIGGEST GAP -->
  <!-- theo: y=420-(28.4-23)*9=420-48.6=371, h=49 -->
  <!-- act:  y=420-(31.2-23)*9=420-73.8=346, h=74 -->
  <rect x="1278" y="371" width="16" height="49" fill="#F59E0B" rx="2"/>
  <rect x="1296" y="346" width="16" height="74" fill="#EF4444" opacity="0.9" rx="2"/>
  <text x="1284" y="432" font-size="8" fill="#F97316">May ▲</text>

  <!-- Legend -->
  <rect x="1054" y="437" width="10" height="8" rx="2" fill="#F59E0B"/>
  <text x="1068" y="445" font-size="8" fill="#94A3B8">Theoretical</text>
  <rect x="1128" y="437" width="10" height="8" rx="2" fill="#F97316"/>
  <text x="1142" y="445" font-size="8" fill="#94A3B8">Actual</text>
  <rect x="1196" y="437" width="10" height="8" rx="2" fill="#EF4444"/>
  <text x="1210" y="445" font-size="8" fill="#EF4444">May gap</text>

  <!-- TOP COST ITEMS -->
  <rect x="1028" y="458" width="330" height="158" rx="8" fill="#13162A" stroke="#2D3148" stroke-width="1"/>
  <text x="1040" y="476" font-size="10" font-weight="700" fill="#F1F5F9">Top Cost Items (by food cost %)</text>
  <!-- Row 1 -->
  <text x="1040" y="496" font-size="10" fill="#FCA5A5">1. Ribeye Steak</text>
  <rect x="1220" y="484" width="48" height="16" rx="8" fill="#7F1D1D"/>
  <text x="1229" y="496" font-size="9" font-weight="700" fill="#EF4444">44.2%</text>
  <text x="1282" y="496" font-size="11" fill="#EF4444">🔴</text>
  <!-- Row 2 -->
  <text x="1040" y="514" font-size="10" fill="#FCA5A5">2. Lobster Bisque</text>
  <rect x="1220" y="502" width="48" height="16" rx="8" fill="#7F1D1D"/>
  <text x="1229" y="514" font-size="9" font-weight="700" fill="#EF4444">42.1%</text>
  <text x="1282" y="514" font-size="11" fill="#EF4444">🔴</text>
  <!-- Row 3 -->
  <text x="1040" y="532" font-size="10" fill="#FCD34D">3. House Wine (Glass)</text>
  <rect x="1220" y="520" width="48" height="16" rx="8" fill="#1C1500"/>
  <text x="1229" y="532" font-size="9" font-weight="700" fill="#F59E0B">38.0%</text>
  <text x="1282" y="532" font-size="11" fill="#F59E0B">🟡</text>
  <!-- Row 4 -->
  <text x="1040" y="550" font-size="10" fill="#FCD34D">4. Lamb Chops</text>
  <rect x="1220" y="538" width="48" height="16" rx="8" fill="#1C1500"/>
  <text x="1229" y="550" font-size="9" font-weight="700" fill="#F59E0B">35.4%</text>
  <text x="1282" y="550" font-size="11" fill="#F59E0B">🟡</text>
  <!-- Row 5 -->
  <text x="1040" y="568" font-size="10" fill="#FCD34D">5. Tuna Tartare</text>
  <rect x="1220" y="556" width="48" height="16" rx="8" fill="#1C1500"/>
  <text x="1229" y="568" font-size="9" font-weight="700" fill="#F59E0B">33.1%</text>
  <text x="1282" y="568" font-size="11" fill="#F59E0B">🟡</text>
  <!-- Recommendation note -->
  <text x="1040" y="590" font-size="9" fill="#64748B">Recommend menu repricing or portion review</text>
  <text x="1040" y="605" font-size="9" fill="#64748B">for items above 35% food cost.</text>

  <!-- MISSING RECIPES ALERT -->
  <rect x="1028" y="624" width="330" height="108" rx="8" fill="#1C1500" stroke="#F59E0B" stroke-width="1"/>
  <text x="1040" y="643" font-size="10" font-weight="700" fill="#F59E0B">⚠ Missing Recipes</text>
  <text x="1040" y="661" font-size="10" fill="#F1F5F9">33 items have no recipe defined.</text>
  <text x="1040" y="677" font-size="9" fill="#94A3B8">Food cost data is incomplete. Actual vs</text>
  <text x="1040" y="691" font-size="9" fill="#94A3B8">theoretical comparison will be skewed.</text>
  <!-- AI Suggest button -->
  <rect x="1040" y="700" width="160" height="26" rx="6" fill="#8B5CF6"/>
  <text x="1052" y="717" font-size="10" font-weight="700" fill="#FFF">✦ AI Recipe Suggest</text>
  <text x="1210" y="717" font-size="9" fill="#94A3B8">Qwen3-8B</text>
  <text x="1040" y="730" font-size="8" fill="#64748B">Estimates ingredients from menu description</text>

  <!-- WASTE ANALYSIS -->
  <rect x="1028" y="740" width="330" height="134" rx="8" fill="#13162A" stroke="#2D3148" stroke-width="1"/>
  <text x="1040" y="759" font-size="10" font-weight="700" fill="#F1F5F9">Waste Analysis — This Week</text>

  <!-- Waste item 1: Romaine -->
  <text x="1040" y="778" font-size="10" fill="#F1F5F9">Romaine Lettuce</text>
  <!-- progress bar bg -->
  <rect x="1040" y="782" width="240" height="8" rx="4" fill="#1E2240"/>
  <!-- waste bar 28% -->
  <rect x="1040" y="782" width="67" height="8" rx="4" fill="#EF4444"/>
  <text x="1290" y="789" font-size="9" font-weight="600" fill="#EF4444">28%</text>

  <!-- Waste item 2: Tomatoes -->
  <text x="1040" y="806" font-size="10" fill="#F1F5F9">Fresh Tomatoes</text>
  <rect x="1040" y="810" width="240" height="8" rx="4" fill="#1E2240"/>
  <!-- waste bar 22% -->
  <rect x="1040" y="810" width="53" height="8" rx="4" fill="#F97316"/>
  <text x="1290" y="817" font-size="9" font-weight="600" fill="#F97316">22%</text>

  <!-- Waste item 3: Fish -->
  <text x="1040" y="834" font-size="10" fill="#F1F5F9">Fish (portioned)</text>
  <rect x="1040" y="838" width="240" height="8" rx="4" fill="#1E2240"/>
  <!-- waste bar 18% -->
  <rect x="1040" y="838" width="43" height="8" rx="4" fill="#F59E0B"/>
  <text x="1290" y="845" font-size="9" font-weight="600" fill="#F59E0B">18%</text>

  <text x="1040" y="862" font-size="9" fill="#64748B">Adjust waste % per ingredient or investigate</text>
  <text x="1040" y="874" font-size="9" fill="#64748B">portioning procedures with kitchen staff.</text>

  <!-- ===== WORKFLOW INTEGRATION STRIP (y=830, full width below panels) ===== -->
  <rect x="180" y="832" width="840" height="192" rx="0" fill="#0D0F1A" stroke="#F59E0B" stroke-width="1"/>
  <text x="196" y="852" font-size="9" font-weight="700" fill="#F59E0B">WORKFLOW INTEGRATION — pos_recipes schema</text>
  <text x="196" y="870" font-size="9" fill="#64748B">pos_recipes: menu_item_id → ingredients [{inventory_item_id, qty, unit, waste_pct}]</text>
  <text x="196" y="886" font-size="9" fill="#64748B">Theoretical cost = Σ(qty × unit_cost × (1 + waste_pct))  |  Batch: auto-scales to order qty</text>
  <text x="196" y="902" font-size="9" fill="#64748B">Actual cost: month_end received POs − month_end count = goods used</text>
  <text x="196" y="918" font-size="9" fill="#64748B">Variance = actual − theoretical  |  Positive variance = over-spend (waste/theft/portioning)</text>
  <text x="196" y="934" font-size="9" fill="#64748B">Depletion: each pos_order_item confirmed → deduct recipe quantities from pos_inventory</text>
  <text x="196" y="950" font-size="9" fill="#64748B">Unit cost: last PO price from pos_po_items (updated on each receive — reflects market fluctuation)</text>
  <text x="196" y="966" font-size="9" fill="#8B5CF6">AI recipe suggest: Qwen3-8B on RunPod estimates typical recipe for a menu item name &amp; description</text>
  <text x="196" y="982" font-size="9" fill="#64748B">Prime cost = food cost + labor cost  |  Labor: (total_time_min / 60) × kitchen_hourly_wage</text>
  <text x="196" y="998" font-size="9" fill="#64748B">Food cost alert: fires when actual − theoretical exceeds variance_alert_threshold (configurable, default 3%)</text>
  <text x="196" y="1014" font-size="9" fill="#64748B">Recommended sell price for target FC%: portion_cost / target_food_cost_pct</text>

</svg>
