<svg role="img" aria-labelledby="title-settings_menu_builder-svg" xmlns="http://www.w3.org/2000/svg" viewBox="0 0 1366 1024" font-family="-apple-system,BlinkMacSystemFont,'SF Pro Display','Segoe UI',sans-serif">
  <title id="title-settings_menu_builder-svg">Synalux POS — menu Uuilder</title>
  <desc>Synalux POS mockup screen for menu Uuilder. All UI elements admin-configurable.</desc>
  <defs>
    <!-- ===== GRADIENTS ===== -->
    <linearGradient id="headerGrad" x1="0" y1="0" x2="1" y2="0">
      <stop offset="0%" stop-color="#1A1D2E"/>
      <stop offset="100%" stop-color="#161930"/>
    </linearGradient>
    <linearGradient id="ctaGrad" x1="0" y1="0" x2="1" y2="1">
      <stop offset="0%" stop-color="#F59E0B"/>
      <stop offset="100%" stop-color="#D97706"/>
    </linearGradient>
    <linearGradient id="dangerGrad" x1="0" y1="0" x2="1" y2="0">
      <stop offset="0%" stop-color="#7F1D1D"/>
      <stop offset="100%" stop-color="#991B1B"/>
    </linearGradient>

    <!-- ===== FILTERS ===== -->
    <filter id="cardShadow" x="-4%" y="-4%" width="108%" height="112%">
      <feDropShadow dx="0" dy="2" stdDeviation="4" flood-color="#000000" flood-opacity="0.3"/>
    </filter>
    <filter id="glowAmber" x="-10%" y="-10%" width="120%" height="120%">
      <feDropShadow dx="0" dy="0" stdDeviation="3" flood-color="#F59E0B" flood-opacity="0.25"/>
    </filter>

    <!-- ===== SYMBOLS ===== -->

    <!-- Admin-configurability gear icon (30% opacity) -->
    <symbol id="gearIcon" viewBox="0 0 16 16">
      <path d="M8 1l1.2.3.5 1.4.9.5 1.5-.2 1 .8-.3 1.4.3 1 1.1.9v1.2l-1.1.9-.3 1 .3 1.4-1 .8-1.5-.2-.9.5-.5 1.4H7l-.5-1.4-.9-.5-1.5.2-1-.8.3-1.4-.3-1L2.1 9V7.8l1.1-.9.3-1-.3-1.4 1-.8 1.5.2.9-.5L7 1h1zm0 4.5a2.5 2.5 0 100 5 2.5 2.5 0 000-5z" fill="#F59E0B" opacity="0.3"/>
    </symbol>

    <!-- Toggle ON -->
    <symbol id="toggleOn" viewBox="0 0 40 22">
      <rect width="40" height="22" rx="11" fill="#22C55E"/>
      <circle cx="29" cy="11" r="8" fill="#FFFFFF"/>
    </symbol>

    <!-- Toggle OFF -->
    <symbol id="toggleOff" viewBox="0 0 40 22">
      <rect width="40" height="22" rx="11" fill="#374151"/>
      <circle cx="11" cy="11" r="8" fill="#FFFFFF"/>
    </symbol>

    <!-- Form field: editable text input -->
    <symbol id="formField" viewBox="0 0 200 30">
      <rect width="200" height="30" rx="6" fill="#0C0E1A" stroke="#2A2E45" stroke-width="1"/>
    </symbol>

    <!-- Form field: active/focused -->
    <symbol id="formFieldActive" viewBox="0 0 200 30">
      <rect width="200" height="30" rx="6" fill="#0C0E1A" stroke="#F59E0B" stroke-width="1.5"/>
    </symbol>

    <!-- Primary button -->
    <symbol id="btnPrimary" viewBox="0 0 160 36">
      <rect width="160" height="36" rx="6" fill="url(#ctaGrad)"/>
    </symbol>

    <!-- Secondary button -->
    <symbol id="btnSecondary" viewBox="0 0 100 36">
      <rect width="100" height="36" rx="6" fill="#161930" stroke="#2A2E45" stroke-width="1"/>
    </symbol>

    <!-- Danger button -->
    <symbol id="btnDanger" viewBox="0 0 100 36">
      <rect width="100" height="36" rx="6" fill="url(#dangerGrad)"/>
    </symbol>

    <!-- Card container -->
    <symbol id="card" viewBox="0 0 400 60">
      <rect width="400" height="60" rx="8" fill="#161930" stroke="#1E2235" stroke-width="1" filter="url(#cardShadow)"/>
    </symbol>

    <!-- Category row (inactive) -->
    <symbol id="catRow" viewBox="0 0 240 44">
      <rect width="240" height="44" rx="6" fill="#1A1D2E" stroke="#1E2235" stroke-width="1"/>
    </symbol>

    <!-- Category row (active/selected) -->
    <symbol id="catRowActive" viewBox="0 0 240 44">
      <rect width="240" height="44" rx="6" fill="#1A1D2E" stroke="#F59E0B" stroke-width="1.5" filter="url(#glowAmber)"/>
    </symbol>

    <!-- Item row -->
    <symbol id="itemRow" viewBox="0 0 520 56">
      <rect width="520" height="56" rx="4" fill="#1A1D2E"/>
    </symbol>

    <!-- Item row (selected) -->
    <symbol id="itemRowActive" viewBox="0 0 520 56">
      <rect width="520" height="56" rx="4" fill="#1A1D2E" stroke="#F59E0B" stroke-width="1.5"/>
    </symbol>

    <!-- Thumbnail placeholder -->
    <symbol id="thumbnail" viewBox="0 0 38 38">
      <rect width="38" height="38" rx="6" fill="#2A2E45"/>
    </symbol>

    <!-- Dietary/allergen chip (active) -->
    <symbol id="chipActive" viewBox="0 0 40 22">
      <rect width="40" height="22" rx="4" fill="#065F46"/>
    </symbol>

    <!-- Dietary/allergen chip (inactive) -->
    <symbol id="chipInactive" viewBox="0 0 40 22">
      <rect width="40" height="22" rx="4" fill="#1A1D2E" stroke="#2A2E45" stroke-width="1"/>
    </symbol>

    <!-- Allergen chip (warning active) -->
    <symbol id="chipWarn" viewBox="0 0 52 22">
      <rect width="52" height="22" rx="4" fill="#7C2D12"/>
    </symbol>

    <!-- Nav item (inactive) -->
    <symbol id="navItem" viewBox="0 0 184 36">
      <rect width="184" height="36" rx="6" fill="transparent"/>
    </symbol>

    <!-- Nav item (active) -->
    <symbol id="navItemActive" viewBox="0 0 184 36">
      <rect width="184" height="36" rx="6" fill="#1A1D2E"/>
      <rect width="3" height="36" rx="1" fill="#F59E0B"/>
    </symbol>
  </defs>

  <!-- ===== BACKGROUND ===== -->
  <rect width="1366" height="1024" fill="#0C0E1A"/>

  <!-- ===== LEFT SIDEBAR (200px) ===== -->
  <!-- admin_path: Back Office > Settings Navigation -->
  <rect x="0" y="0" width="200" height="1024" fill="#161930"/>
  <rect x="200" y="0" width="1" height="1024" fill="#1E2235"/>
  <text x="16" y="30" font-size="14" font-weight="700" fill="#F59E0B">Synalux POS</text>
  <text x="16" y="46" font-size="10" fill="#64748B">Back Office</text>

  <!-- Nav items using <use> -->
  <!-- db: pos_settings.section -->
  <use href="#navItem" x="8" y="60" width="184" height="36"/>
  <text x="24" y="83" font-size="12" fill="#94A3B8">Restaurant Info</text>

  <use href="#navItemActive" x="8" y="100" width="184" height="36"/>
  <text x="24" y="123" font-size="12" font-weight="600" fill="#F59E0B">Menu Builder</text>
  <use href="#gearIcon" x="170" y="108" width="14" height="14"/>

  <use href="#navItem" x="8" y="140" width="184" height="36"/>
  <text x="24" y="163" font-size="12" fill="#94A3B8">Taxes</text>

  <use href="#navItem" x="8" y="176" width="184" height="36"/>
  <text x="24" y="199" font-size="12" fill="#94A3B8">Employees</text>

  <use href="#navItem" x="8" y="212" width="184" height="36"/>
  <text x="24" y="235" font-size="12" fill="#94A3B8">Discounts</text>

  <use href="#navItem" x="8" y="248" width="184" height="36"/>
  <text x="24" y="271" font-size="12" fill="#94A3B8">Inventory</text>

  <use href="#navItem" x="8" y="284" width="184" height="36"/>
  <text x="24" y="307" font-size="12" fill="#94A3B8">Equipment</text>

  <use href="#navItem" x="8" y="320" width="184" height="36"/>
  <text x="24" y="343" font-size="12" fill="#94A3B8">Floor Plans</text>

  <use href="#navItem" x="8" y="356" width="184" height="36"/>
  <text x="24" y="379" font-size="12" fill="#94A3B8">Payments</text>

  <use href="#navItem" x="8" y="392" width="184" height="36"/>
  <text x="24" y="415" font-size="12" fill="#94A3B8">Reports</text>

  <use href="#navItem" x="8" y="428" width="184" height="36"/>
  <text x="24" y="451" font-size="12" fill="#94A3B8">Integrations</text>

  <!-- ===== HEADER BAR ===== -->
  <!-- admin_path: Back Office > Menu Builder -->
  <rect x="201" y="0" width="1165" height="56" fill="url(#headerGrad)"/>
  <text x="220" y="28" font-size="18" font-weight="700" fill="#FFFFFF">Menu Builder</text>
  <use href="#gearIcon" x="360" y="16" width="16" height="16"/>
  <text x="220" y="48" font-size="11" fill="#64748B">All menu data stored in DB -- no rebuild needed for content changes. i18n via name_i18n jsonb</text>

  <!-- Header actions -->
  <use href="#btnPrimary" x="1066" y="10" width="120" height="32"/>
  <text x="1098" y="30" font-size="12" font-weight="600" fill="#000000">+ Add Item</text>
  <use href="#btnSecondary" x="1196" y="10" width="120" height="32"/>
  <text x="1216" y="30" font-size="12" fill="#CBD5E1">+ Add Category</text>

  <!-- ===== LEFT PANEL: Category Tree (260px wide) ===== -->
  <!-- db: pos_categories — sort_order, name_i18n, is_active, age_restricted -->
  <rect x="201" y="56" width="260" height="968" fill="#161930"/>
  <rect x="461" y="56" width="1" height="968" fill="#1E2235"/>
  <text x="216" y="82" font-size="13" font-weight="600" fill="#FFFFFF">Categories</text>
  <use href="#gearIcon" x="300" y="70" width="14" height="14"/>
  <text x="360" y="82" font-size="10" fill="#64748B">drag to reorder</text>

  <!-- Search categories -->
  <!-- db: pos_categories search filter -->
  <use href="#formField" x="212" y="92" width="240" height="30"/>
  <text x="228" y="112" font-size="11" fill="#64748B">Search categories...</text>

  <!-- Category: Appetizers (active/selected) -->
  <!-- db: pos_categories.id = CAT-001, sort_order = 1 -->
  <use href="#catRowActive" x="212" y="130" width="240" height="44"/>
  <text x="228" y="147" font-size="11" fill="#F59E0B">&#x2807;</text>
  <text x="244" y="147" font-size="12" font-weight="600" fill="#F59E0B">Appetizers</text>
  <text x="244" y="163" font-size="10" fill="#64748B">8 items | pos: 1</text>
  <use href="#gearIcon" x="420" y="140" width="12" height="12"/>
  <use href="#toggleOn" x="400" y="142" width="32" height="16"/>

  <!-- Category: Burgers -->
  <!-- db: pos_categories.id = CAT-002, sort_order = 2 -->
  <use href="#catRow" x="212" y="180" width="240" height="44"/>
  <text x="228" y="197" font-size="11" fill="#64748B">&#x2807;</text>
  <text x="244" y="197" font-size="12" fill="#CBD5E1">Burgers</text>
  <text x="244" y="213" font-size="10" fill="#64748B">12 items | pos: 2</text>
  <use href="#toggleOn" x="400" y="192" width="32" height="16"/>

  <!-- Category: Pizzas -->
  <!-- db: pos_categories.id = CAT-003, sort_order = 3 -->
  <use href="#catRow" x="212" y="230" width="240" height="44"/>
  <text x="228" y="247" font-size="11" fill="#64748B">&#x2807;</text>
  <text x="244" y="247" font-size="12" fill="#CBD5E1">Pizzas</text>
  <text x="244" y="263" font-size="10" fill="#64748B">9 items | pos: 3</text>
  <use href="#toggleOn" x="400" y="242" width="32" height="16"/>

  <!-- Category: Salads -->
  <!-- db: pos_categories.id = CAT-004, sort_order = 4 -->
  <use href="#catRow" x="212" y="280" width="240" height="44"/>
  <text x="228" y="297" font-size="11" fill="#64748B">&#x2807;</text>
  <text x="244" y="297" font-size="12" fill="#CBD5E1">Salads</text>
  <text x="244" y="313" font-size="10" fill="#64748B">6 items | pos: 4</text>
  <use href="#toggleOn" x="400" y="292" width="32" height="16"/>

  <!-- Category: Drinks -->
  <!-- db: pos_categories.id = CAT-005, sort_order = 5 -->
  <use href="#catRow" x="212" y="330" width="240" height="44"/>
  <text x="228" y="347" font-size="11" fill="#64748B">&#x2807;</text>
  <text x="244" y="347" font-size="12" fill="#CBD5E1">Drinks</text>
  <text x="244" y="363" font-size="10" fill="#64748B">14 items | pos: 5</text>
  <use href="#toggleOn" x="400" y="342" width="32" height="16"/>

  <!-- Category: Alcohol (age-restricted) -->
  <!-- db: pos_categories.id = CAT-006, sort_order = 6, age_restricted = true -->
  <use href="#catRow" x="212" y="380" width="240" height="44"/>
  <text x="228" y="397" font-size="11" fill="#64748B">&#x2807;</text>
  <text x="244" y="397" font-size="12" fill="#CBD5E1">Alcohol</text>
  <text x="244" y="413" font-size="10" fill="#64748B">22 items | pos: 6</text>
  <rect x="390" y="388" width="48" height="16" rx="8" fill="#991B1B"/>
  <text x="396" y="400" font-size="9" fill="#FCA5A5">21+ only</text>

  <!-- Category: Desserts -->
  <!-- db: pos_categories.id = CAT-007, sort_order = 7 -->
  <use href="#catRow" x="212" y="430" width="240" height="44"/>
  <text x="228" y="447" font-size="11" fill="#64748B">&#x2807;</text>
  <text x="244" y="447" font-size="12" fill="#CBD5E1">Desserts</text>
  <text x="244" y="463" font-size="10" fill="#64748B">5 items | pos: 7</text>
  <use href="#toggleOn" x="400" y="442" width="32" height="16"/>

  <!-- Category: Kids Menu (disabled) -->
  <!-- db: pos_categories.id = CAT-008, is_active = false -->
  <use href="#catRow" x="212" y="480" width="240" height="44"/>
  <g opacity="0.45">
    <text x="228" y="497" font-size="11" fill="#64748B">&#x2807;</text>
    <text x="244" y="497" font-size="12" fill="#64748B">Kids Menu</text>
    <text x="244" y="513" font-size="10" fill="#475569">3 items | hidden</text>
  </g>
  <use href="#toggleOff" x="400" y="492" width="32" height="16"/>

  <!-- Category schema note -->
  <!-- db: pos_categories schema reference -->
  <rect x="212" y="540" width="240" height="70" rx="6" fill="#1A1D2E" stroke="#1E2235" stroke-width="1"/>
  <text x="224" y="558" font-size="10" fill="#64748B">DB: pos_categories.sort_order</text>
  <text x="224" y="572" font-size="10" fill="#64748B">i18n: name_i18n jsonb</text>
  <text x="224" y="586" font-size="10" fill="#64748B">age_restricted: boolean</text>
  <text x="224" y="600" font-size="10" fill="#F59E0B">All from DB -- no hardcodes</text>

  <!-- ===== CENTER PANEL: Items Grid (520px) ===== -->
  <!-- db: pos_menu_items WHERE category_id = selected -->
  <rect x="462" y="56" width="520" height="968" fill="#0C0E1A"/>

  <!-- Panel header -->
  <rect x="462" y="56" width="520" height="48" fill="url(#headerGrad)"/>
  <text x="480" y="80" font-size="14" font-weight="600" fill="#FFFFFF">Appetizers</text>
  <use href="#gearIcon" x="570" y="70" width="14" height="14"/>
  <text x="480" y="96" font-size="10" fill="#64748B">8 items | drag to reorder | click to edit</text>

  <!-- Column headers -->
  <rect x="462" y="104" width="520" height="28" fill="#161930"/>
  <text x="556" y="122" font-size="10" font-weight="600" fill="#64748B">NAME / i18n</text>
  <text x="720" y="122" font-size="10" font-weight="600" fill="#64748B">PRICE</text>
  <text x="788" y="122" font-size="10" font-weight="600" fill="#64748B">COST</text>
  <text x="846" y="122" font-size="10" font-weight="600" fill="#64748B">FLAGS</text>
  <text x="928" y="122" font-size="10" font-weight="600" fill="#64748B">AVAIL.</text>

  <!-- Item row 1: Mozzarella Sticks (selected/editing) -->
  <!-- db: pos_menu_items.id = APP-001 -->
  <use href="#itemRowActive" x="462" y="134" width="520" height="56"/>
  <text x="478" y="156" font-size="10" fill="#94A3B8">&#x2807;</text>
  <use href="#thumbnail" x="494" y="144" width="38" height="38"/>
  <text x="506" y="170" font-size="16">&#x1F9C0;</text>
  <text x="540" y="156" font-size="12" font-weight="600" fill="#F59E0B">Mozzarella Sticks</text>
  <text x="540" y="172" font-size="10" fill="#64748B">i18n: en/es/fr/zh | sku: APP-001</text>
  <text x="716" y="160" font-size="13" font-weight="700" fill="#FFFFFF">$9.99</text>
  <text x="784" y="160" font-size="12" fill="#22C55E">$2.40</text>
  <use href="#chipActive" x="840" y="148" width="28" height="16"/>
  <text x="844" y="159" font-size="8" fill="#4ADE80">GF</text>
  <use href="#chipActive" x="872" y="148" width="30" height="16"/>
  <text x="876" y="159" font-size="8" fill="#93C5FD">VEG</text>
  <use href="#toggleOn" x="926" y="150" width="36" height="18"/>

  <!-- Item row 2: Nachos Supreme -->
  <!-- db: pos_menu_items.id = APP-002 -->
  <use href="#itemRow" x="462" y="192" width="520" height="56"/>
  <text x="478" y="214" font-size="10" fill="#64748B">&#x2807;</text>
  <use href="#thumbnail" x="494" y="202" width="38" height="38"/>
  <text x="506" y="228" font-size="16">&#x1F32E;</text>
  <text x="540" y="216" font-size="12" fill="#CBD5E1">Nachos Supreme</text>
  <text x="540" y="232" font-size="10" fill="#64748B">i18n: en/es/fr/zh | sku: APP-002</text>
  <text x="716" y="220" font-size="13" font-weight="700" fill="#FFFFFF">$12.99</text>
  <text x="784" y="220" font-size="12" fill="#22C55E">$3.20</text>
  <use href="#chipWarn" x="840" y="208" width="38" height="16"/>
  <text x="844" y="219" font-size="8" fill="#FCA5A5">SPICY</text>
  <use href="#toggleOn" x="926" y="210" width="36" height="18"/>

  <!-- Item row 3: Buffalo Wings (86'd) -->
  <!-- db: pos_menu_items.id = APP-003, is_86d = true -->
  <use href="#itemRow" x="462" y="250" width="520" height="56"/>
  <g opacity="0.5">
    <text x="478" y="274" font-size="10" fill="#64748B">&#x2807;</text>
    <use href="#thumbnail" x="494" y="260" width="38" height="38"/>
    <text x="506" y="286" font-size="16">&#x1F357;</text>
  </g>
  <text x="540" y="272" font-size="12" fill="#64748B" text-decoration="line-through">Buffalo Wings</text>
  <rect x="540" y="278" width="78" height="14" rx="3" fill="#7F1D1D"/>
  <text x="544" y="289" font-size="8" fill="#FCA5A5">86'd OUT OF STOCK</text>
  <text x="716" y="276" font-size="13" fill="#64748B">$13.99</text>
  <text x="784" y="276" font-size="12" fill="#64748B">$4.10</text>
  <use href="#toggleOff" x="926" y="268" width="36" height="18"/>

  <!-- Item row 4: Fried Calamari -->
  <!-- db: pos_menu_items.id = APP-004 -->
  <use href="#itemRow" x="462" y="308" width="520" height="56"/>
  <text x="478" y="332" font-size="10" fill="#64748B">&#x2807;</text>
  <use href="#thumbnail" x="494" y="318" width="38" height="38"/>
  <text x="506" y="344" font-size="16">&#x1F991;</text>
  <text x="540" y="332" font-size="12" fill="#CBD5E1">Fried Calamari</text>
  <text x="540" y="348" font-size="10" fill="#64748B">i18n: en/es/fr/zh | sku: APP-004</text>
  <text x="716" y="336" font-size="13" font-weight="700" fill="#FFFFFF">$14.99</text>
  <text x="784" y="336" font-size="12" fill="#22C55E">$3.80</text>
  <use href="#chipWarn" x="840" y="324" width="40" height="16"/>
  <text x="844" y="335" font-size="8" fill="#FCA5A5">SHELL</text>
  <use href="#toggleOn" x="926" y="328" width="36" height="18"/>

  <!-- Item row 5: Spring Rolls -->
  <!-- db: pos_menu_items.id = APP-005 -->
  <use href="#itemRow" x="462" y="366" width="520" height="56"/>
  <text x="478" y="390" font-size="10" fill="#64748B">&#x2807;</text>
  <use href="#thumbnail" x="494" y="376" width="38" height="38"/>
  <text x="506" y="402" font-size="16">&#x1F962;</text>
  <text x="540" y="390" font-size="12" fill="#CBD5E1">Spring Rolls (4pc)</text>
  <text x="540" y="406" font-size="10" fill="#64748B">i18n: en/es/fr/zh | sku: APP-005</text>
  <text x="716" y="394" font-size="13" font-weight="700" fill="#FFFFFF">$8.99</text>
  <text x="784" y="394" font-size="12" fill="#22C55E">$1.90</text>
  <use href="#chipActive" x="840" y="382" width="32" height="16"/>
  <text x="844" y="393" font-size="8" fill="#4ADE80">VGN</text>
  <use href="#toggleOn" x="926" y="386" width="36" height="18"/>

  <!-- ===== RIGHT PANEL: Item Detail Editor (384px) ===== -->
  <!-- db: pos_menu_items row editor -->
  <!-- admin_path: Back Office > Menu Builder > Edit Item -->
  <rect x="982" y="56" width="384" height="968" fill="#1A1D2E" filter="url(#cardShadow)"/>

  <!-- Editor header -->
  <rect x="982" y="56" width="384" height="48" fill="#161930"/>
  <text x="998" y="80" font-size="14" font-weight="600" fill="#FFFFFF">Edit: Mozzarella Sticks</text>
  <use href="#gearIcon" x="1186" y="68" width="14" height="14"/>
  <text x="998" y="96" font-size="10" fill="#64748B">pos_menu_items.id = APP-001</text>

  <!-- Image upload area -->
  <!-- db: pos_menu_items.image_url -->
  <rect x="998" y="112" width="110" height="80" rx="8" fill="#0C0E1A" stroke="#2A2E45" stroke-width="1" stroke-dasharray="4"/>
  <text x="1034" y="150" font-size="20">&#x1F9C0;</text>
  <text x="1018" y="170" font-size="9" fill="#64748B">Click to change</text>
  <text x="1010" y="182" font-size="8" fill="#475569">JPG/PNG | max 2MB</text>
  <use href="#gearIcon" x="1094" y="114" width="12" height="12"/>

  <!-- SKU field -->
  <!-- db: pos_menu_items.sku -->
  <text x="1124" y="126" font-size="10" fill="#64748B">SKU</text>
  <use href="#formField" x="1124" y="130" width="100" height="26"/>
  <text x="1134" y="148" font-size="11" fill="#FFFFFF">APP-001</text>
  <use href="#gearIcon" x="1210" y="126" width="10" height="10"/>

  <!-- Sort Order -->
  <!-- db: pos_menu_items.sort_order -->
  <text x="1240" y="126" font-size="10" fill="#64748B">Sort</text>
  <use href="#formField" x="1240" y="130" width="60" height="26"/>
  <text x="1258" y="148" font-size="11" fill="#FFFFFF">1</text>

  <!-- i18n Name fields -->
  <!-- db: pos_menu_items.name_i18n jsonb -->
  <text x="998" y="214" font-size="11" font-weight="600" fill="#64748B">NAME (i18n) -- name_i18n jsonb</text>
  <use href="#gearIcon" x="1200" y="202" width="12" height="12"/>

  <text x="998" y="232" font-size="10" fill="#64748B">en-US</text>
  <use href="#formFieldActive" x="998" y="236" width="348" height="26"/>
  <text x="1010" y="254" font-size="11" fill="#FFFFFF">Mozzarella Sticks</text>

  <text x="998" y="276" font-size="10" fill="#64748B">es</text>
  <use href="#formField" x="998" y="280" width="168" height="26"/>
  <text x="1010" y="298" font-size="11" fill="#CBD5E1">Palitos de Mozzarella</text>

  <text x="1178" y="276" font-size="10" fill="#64748B">fr</text>
  <use href="#formField" x="1178" y="280" width="168" height="26"/>
  <text x="1190" y="298" font-size="11" fill="#CBD5E1">Batonets de Mozza</text>

  <text x="998" y="322" font-size="10" fill="#64748B">zh</text>
  <use href="#formField" x="998" y="326" width="168" height="26"/>
  <text x="1010" y="344" font-size="11" fill="#CBD5E1">&#x82B1;&#x5F0F;&#x5976;&#x916A;&#x68D2;</text>

  <use href="#btnSecondary" x="1178" y="326" width="80" height="26"/>
  <text x="1194" y="344" font-size="11" fill="#F59E0B">+ locale</text>

  <!-- Description -->
  <!-- db: pos_menu_items.description, desc_i18n jsonb -->
  <text x="998" y="372" font-size="10" fill="#64748B">DESCRIPTION</text>
  <use href="#gearIcon" x="1072" y="360" width="12" height="12"/>
  <rect x="998" y="376" width="348" height="44" rx="6" fill="#0C0E1A" stroke="#2A2E45" stroke-width="1"/>
  <text x="1010" y="394" font-size="11" fill="#CBD5E1">Golden-fried mozzarella with marinara.</text>
  <text x="1010" y="410" font-size="9" fill="#64748B">desc_i18n jsonb -- same pattern as name_i18n</text>

  <!-- Price / Cost / Margin -->
  <!-- db: pos_menu_items.price_cents, pos_menu_items.cost_cents -->
  <text x="998" y="440" font-size="10" fill="#64748B">PRICE</text>
  <use href="#gearIcon" x="1030" y="428" width="12" height="12"/>
  <use href="#formField" x="998" y="444" width="110" height="30"/>
  <text x="1010" y="464" font-size="14" font-weight="700" fill="#FFFFFF">$ 9.99</text>

  <text x="1120" y="440" font-size="10" fill="#64748B">COST</text>
  <use href="#formField" x="1120" y="444" width="110" height="30"/>
  <text x="1132" y="464" font-size="14" fill="#22C55E">$ 2.40</text>

  <text x="1244" y="440" font-size="10" fill="#64748B">MARGIN</text>
  <text x="1244" y="464" font-size="14" font-weight="600" fill="#22C55E">76%</text>

  <!-- Tax category -->
  <!-- db: pos_menu_items.tax_category -> pos_tax_zones.applies_to -->
  <text x="998" y="496" font-size="10" fill="#64748B">TAX CATEGORY</text>
  <use href="#gearIcon" x="1086" y="484" width="12" height="12"/>
  <use href="#formField" x="998" y="500" width="180" height="26"/>
  <text x="1010" y="518" font-size="11" fill="#FFFFFF">food</text>
  <text x="1164" y="518" font-size="16" fill="#64748B">&#x25BE;</text>

  <!-- Dietary flags -->
  <!-- db: pos_menu_items.dietary_flags jsonb -->
  <text x="998" y="546" font-size="10" fill="#64748B">DIETARY FLAGS</text>
  <use href="#gearIcon" x="1084" y="534" width="12" height="12"/>
  <use href="#chipActive" x="998" y="552" width="34" height="20"/>
  <text x="1004" y="566" font-size="10" fill="#4ADE80">GF</text>
  <use href="#chipActive" x="1038" y="552" width="36" height="20"/>
  <text x="1044" y="566" font-size="10" fill="#93C5FD">VEG</text>
  <use href="#chipInactive" x="1080" y="552" width="36" height="20"/>
  <text x="1086" y="566" font-size="10" fill="#64748B">VGN</text>
  <use href="#chipInactive" x="1122" y="552" width="44" height="20"/>
  <text x="1128" y="566" font-size="10" fill="#64748B">SPICY</text>
  <use href="#chipInactive" x="1172" y="552" width="40" height="20"/>
  <text x="1178" y="566" font-size="10" fill="#64748B">KETO</text>

  <!-- Allergens -->
  <!-- db: pos_menu_items.allergens jsonb -->
  <text x="998" y="594" font-size="10" fill="#64748B">ALLERGENS</text>
  <use href="#gearIcon" x="1058" y="582" width="12" height="12"/>
  <use href="#chipWarn" x="998" y="600" width="50" height="20"/>
  <text x="1004" y="614" font-size="10" fill="#FCA5A5">DAIRY</text>
  <use href="#chipInactive" x="1054" y="600" width="50" height="20"/>
  <text x="1060" y="614" font-size="10" fill="#64748B">GLUTEN</text>
  <use href="#chipInactive" x="1110" y="600" width="40" height="20"/>
  <text x="1116" y="614" font-size="10" fill="#64748B">EGGS</text>
  <use href="#chipInactive" x="1156" y="600" width="42" height="20"/>
  <text x="1162" y="614" font-size="10" fill="#64748B">NUTS</text>
  <use href="#chipWarn" x="1204" y="600" width="50" height="20"/>
  <text x="1210" y="614" font-size="10" fill="#FCA5A5">SHELL</text>

  <!-- Modifier groups -->
  <!-- db: pos_modifier_groups WHERE menu_item_id = APP-001 -->
  <text x="998" y="644" font-size="11" font-weight="600" fill="#64748B">MODIFIER GROUPS</text>
  <use href="#gearIcon" x="1126" y="632" width="12" height="12"/>
  <rect x="998" y="650" width="348" height="56" rx="6" fill="#0C0E1A" stroke="#2A2E45" stroke-width="1"/>
  <text x="1012" y="670" font-size="12" font-weight="600" fill="#FFFFFF">Dipping Sauce</text>
  <text x="1012" y="686" font-size="10" fill="#64748B">choose 1 | required | Marinara, Ranch, Honey Mustard, BBQ</text>
  <use href="#btnSecondary" x="1300" y="658" width="38" height="22"/>
  <text x="1308" y="673" font-size="10" fill="#64748B">Edit</text>

  <use href="#btnSecondary" x="998" y="712" width="100" height="24"/>
  <text x="1010" y="728" font-size="11" fill="#F59E0B">+ Add Mod Group</text>

  <!-- Barcode / KDS station -->
  <!-- db: pos_menu_items.barcode, pos_menu_items.kds_station_id -->
  <text x="998" y="756" font-size="10" fill="#64748B">BARCODE</text>
  <use href="#gearIcon" x="1050" y="744" width="12" height="12"/>
  <use href="#formField" x="998" y="760" width="160" height="26"/>
  <text x="1010" y="778" font-size="11" fill="#CBD5E1">0012345678905</text>

  <text x="1170" y="756" font-size="10" fill="#64748B">KDS STATION</text>
  <use href="#gearIcon" x="1246" y="744" width="12" height="12"/>
  <use href="#formField" x="1170" y="760" width="176" height="26"/>
  <text x="1182" y="778" font-size="11" fill="#CBD5E1">Kitchen 1</text>
  <text x="1330" y="778" font-size="14" fill="#64748B">&#x25BE;</text>

  <!-- 86'd toggle -->
  <!-- db: pos_menu_items.is_86d boolean -->
  <rect x="998" y="800" width="348" height="40" rx="6" fill="#7F1D1D" stroke="#991B1B" stroke-width="1"/>
  <text x="1014" y="818" font-size="12" font-weight="600" fill="#FCA5A5">86 This Item (out of stock)</text>
  <text x="1014" y="832" font-size="9" fill="#FCA5A5">Grays out on register and online menu</text>
  <use href="#toggleOff" x="1304" y="810" width="36" height="18"/>

  <!-- Save / Cancel / Delete -->
  <use href="#btnPrimary" x="998" y="854" width="160" height="36"/>
  <text x="1044" y="877" font-size="13" font-weight="600" fill="#000000">Save Changes</text>

  <use href="#btnSecondary" x="1168" y="854" width="90" height="36"/>
  <text x="1194" y="877" font-size="12" fill="#CBD5E1">Cancel</text>

  <use href="#btnDanger" x="1268" y="854" width="80" height="36"/>
  <text x="1288" y="877" font-size="12" fill="#FCA5A5">Delete</text>

  <!-- Footer -->
  <text x="683" y="1010" font-size="10" text-anchor="middle" fill="#2A2E45">Synalux POS | Menu Builder | All content stored in pos_menu_items -- no hardcodes, no rebuilds</text>
</svg>