<svg xmlns="http://www.w3.org/2000/svg" viewBox="0 0 1440 900" font-family="system-ui,-apple-system,sans-serif">
  <rect width="1440" height="900" fill="#0F1117"/>
  <!-- Left Nav -->
  <rect x="0" y="0" width="200" height="900" fill="#13162A"/>
  <text x="16" y="30" font-size="13" font-weight="700" fill="#F59E0B">⚙ Back Office</text>
  <text x="16" y="67" font-size="12" fill="#8B92A5">Discounts &amp; Promos</text>
  <rect x="0" y="80" width="200" height="36" fill="#1E2240" rx="4"/>
  <rect x="0" y="80" width="3" height="36" fill="#F59E0B"/>
  <text x="16" y="103" font-size="12" font-weight="600" fill="#F59E0B">Gift Cards</text>
  <text x="16" y="139" font-size="12" fill="#8B92A5">Loyalty</text>
  <text x="16" y="175" font-size="12" fill="#8B92A5">Menu Scheduling</text>
  <text x="16" y="211" font-size="12" fill="#8B92A5">Rounding</text>
  <text x="16" y="247" font-size="12" fill="#8B92A5">Cash Management</text>
  <text x="16" y="283" font-size="12" fill="#8B92A5">Reports</text>
  <text x="16" y="319" font-size="12" fill="#8B92A5">Inventory</text>
  <text x="16" y="355" font-size="12" fill="#8B92A5">Integrations</text>

  <!-- Header -->
  <rect x="200" y="0" width="1240" height="56" fill="#1A1D2E"/>
  <text x="220" y="34" font-size="18" font-weight="700" fill="#FFFFFF">Gift Cards</text>
  <text x="220" y="50" font-size="11" fill="#8B92A5">Issue · Redeem · Balance check · Reload · Reporting — pos_gift_cards table</text>
  <rect x="1136" y="12" width="140" height="32" rx="6" fill="#F59E0B"/>
  <text x="1158" y="32" font-size="12" font-weight="600" fill="#000">Issue Gift Card</text>
  <rect x="1284" y="12" width="136" height="32" rx="6" fill="#1E2240" stroke="#374151" stroke-width="1"/>
  <text x="1300" y="32" font-size="12" fill="#D1D5DB">Check Balance</text>

  <!-- Stats row -->
  <rect x="200" y="56" width="300" height="80" fill="#1A1D2E" stroke="#374151" stroke-width="0"/>
  <rect x="202" y="58" width="296" height="76" rx="8" fill="#1A1D2E"/>
  <text x="222" y="82" font-size="12" fill="#8B92A5">Cards Issued</text>
  <text x="222" y="108" font-size="28" font-weight="700" fill="#FFFFFF">2,841</text>
  <rect x="510" y="58" width="226" height="76" rx="8" fill="#1A1D2E"/>
  <text x="530" y="82" font-size="12" fill="#8B92A5">Total Liability</text>
  <text x="530" y="108" font-size="28" font-weight="700" fill="#F59E0B">$48,320</text>
  <rect x="748" y="58" width="226" height="76" rx="8" fill="#1A1D2E"/>
  <text x="768" y="82" font-size="12" fill="#8B92A5">Redeemed (30d)</text>
  <text x="768" y="108" font-size="28" font-weight="700" fill="#10B981">$12,440</text>
  <rect x="986" y="58" width="226" height="76" rx="8" fill="#1A1D2E"/>
  <text x="1006" y="82" font-size="12" fill="#8B92A5">Expired (30d)</text>
  <text x="1006" y="108" font-size="28" font-weight="700" fill="#EF4444">$820</text>
  <rect x="1224" y="58" width="214" height="76" rx="8" fill="#1A1D2E"/>
  <text x="1244" y="82" font-size="12" fill="#8B92A5">Active Cards</text>
  <text x="1244" y="108" font-size="28" font-weight="700" fill="#FFFFFF">1,203</text>

  <!-- ===== Issue Gift Card Panel ===== -->
  <rect x="200" y="144" width="480" height="540" rx="8" fill="#1A1D2E"/>
  <text x="224" y="174" font-size="14" font-weight="700" fill="#FFFFFF">Issue New Gift Card</text>

  <!-- Card preview visual -->
  <rect x="224" y="186" width="300" height="160" rx="12" fill="linear-gradient(135deg,#1E2240,#374151)"/>
  <rect x="224" y="186" width="300" height="160" rx="12" fill="#1E3A5F"/>
  <text x="244" y="230" font-size="28" fill="#F59E0B">🎁</text>
  <text x="286" y="216" font-size="16" font-weight="700" fill="#FFFFFF">Gift Card</text>
  <text x="286" y="234" font-size="12" fill="#93C5FD">The Restaurant Name</text>
  <text x="244" y="290" font-size="13" font-weight="600" fill="#FFFFFF">•••• •••• •••• 4821</text>
  <text x="244" y="316" font-size="11" fill="#8B92A5">Balance: $50.00</text>
  <text x="400" y="316" font-size="11" fill="#8B92A5">Exp: 2028-05</text>
  <text x="244" y="332" font-size="10" fill="#6B7280">GC-4821</text>

  <!-- Physical vs Digital -->
  <text x="224" y="368" font-size="10" fill="#8B92A5">CARD TYPE</text>
  <rect x="224" y="374" width="220" height="32" rx="6" fill="#0F1117"/>
  <rect x="232" y="380" width="96" height="20" rx="4" fill="#F59E0B"/>
  <text x="260" y="394" font-size="11" font-weight="600" fill="#000">Physical Card</text>
  <rect x="336" y="380" width="96" height="20" rx="4" fill="#1E2240" stroke="#374151" stroke-width="1"/>
  <text x="360" y="394" font-size="11" fill="#6B7280">Digital / SMS</text>

  <!-- Amount -->
  <text x="224" y="428" font-size="10" fill="#8B92A5">AMOUNT</text>
  <rect x="224" y="434" width="440" height="40" rx="6" fill="#0F1117"/>
  <rect x="232" y="442" width="70" height="24" rx="4" fill="#1E2240" stroke="#374151" stroke-width="1"/>
  <text x="250" y="458" font-size="12" fill="#D1D5DB">$25</text>
  <rect x="310" y="442" width="70" height="24" rx="4" fill="#F59E0B"/>
  <text x="328" y="458" font-size="12" font-weight="600" fill="#000">$50</text>
  <rect x="388" y="442" width="70" height="24" rx="4" fill="#1E2240" stroke="#374151" stroke-width="1"/>
  <text x="406" y="458" font-size="12" fill="#D1D5DB">$100</text>
  <rect x="466" y="442" width="70" height="24" rx="4" fill="#1E2240" stroke="#374151" stroke-width="1"/>
  <text x="484" y="458" font-size="12" fill="#D1D5DB">$200</text>
  <rect x="544" y="442" width="100" height="24" rx="4" fill="#1E2240" stroke="#374151" stroke-width="1"/>
  <text x="558" y="458" font-size="12" fill="#6B7280">Custom $___</text>

  <!-- Customer details for digital -->
  <text x="224" y="494" font-size="10" fill="#8B92A5">RECIPIENT (for digital SMS/email delivery)</text>
  <rect x="224" y="500" width="212" height="28" rx="4" fill="#0F1117" stroke="#374151" stroke-width="1"/>
  <text x="236" y="519" font-size="12" fill="#D1D5DB">Name (optional)</text>
  <rect x="444" y="500" width="212" height="28" rx="4" fill="#0F1117" stroke="#374151" stroke-width="1"/>
  <text x="456" y="519" font-size="12" fill="#D1D5DB">Phone or Email</text>

  <!-- Expiry -->
  <text x="224" y="548" font-size="10" fill="#8B92A5">EXPIRY (pos_gift_cards.expires_at)</text>
  <rect x="224" y="554" width="212" height="28" rx="4" fill="#0F1117" stroke="#374151" stroke-width="1"/>
  <text x="236" y="573" font-size="12" fill="#D1D5DB">2 years from issue</text>
  <text x="236" y="573" font-size="12" fill="#FFFFFF">2028-05-27</text>
  <text x="224" y="596" font-size="10" fill="#6B7280">Note: Many states prohibit expiry under 5 years — check local law</text>

  <!-- Issue button -->
  <rect x="224" y="614" width="440" height="44" rx="8" fill="#F59E0B"/>
  <text x="394" y="642" font-size="15" font-weight="700" fill="#000" text-anchor="middle">Issue Gift Card → Print + Activate</text>

  <!-- ===== Redeem panel ===== -->
  <rect x="696" y="144" width="480" height="540" rx="8" fill="#1A1D2E"/>
  <text x="720" y="174" font-size="14" font-weight="700" fill="#FFFFFF">Redeem / Check Balance</text>

  <!-- Scan or enter -->
  <rect x="720" y="184" width="432" height="80" rx="8" fill="#0F1117" stroke="#374151" stroke-width="1"/>
  <text x="740" y="210" font-size="12" fill="#D1D5DB">Scan barcode / swipe / type card number:</text>
  <rect x="740" y="220" width="300" height="32" rx="6" fill="#1A1D2E" stroke="#F59E0B" stroke-width="1"/>
  <text x="756" y="241" font-size="13" fill="#FFFFFF">GC-4821</text>
  <rect x="1048" y="220" width="84" height="32" rx="6" fill="#F59E0B"/>
  <text x="1062" y="241" font-size="12" font-weight="600" fill="#000">Lookup</text>

  <!-- Card found result -->
  <rect x="720" y="276" width="432" height="120" rx="8" fill="#065F46" stroke="#10B981" stroke-width="1"/>
  <text x="744" y="302" font-size="13" font-weight="700" fill="#6EE7B7">Card Found ✓</text>
  <text x="744" y="322" font-size="12" fill="#D1D5DB">Card #: GC-4821</text>
  <text x="744" y="340" font-size="12" fill="#D1D5DB">Current Balance: <tspan font-weight="700" fill="#FFFFFF">$50.00</tspan></text>
  <text x="744" y="358" font-size="12" fill="#D1D5DB">Status: <tspan fill="#6EE7B7">Active</tspan> · Expires: 2028-05-27</text>
  <text x="744" y="376" font-size="11" fill="#8B92A5">Issued: 2026-05-27 · No name on file</text>

  <!-- Redeem amount -->
  <text x="720" y="418" font-size="10" fill="#8B92A5">REDEEM AMOUNT (current order total: $34.50)</text>
  <rect x="720" y="424" width="200" height="40" rx="6" fill="#0F1117" stroke="#374151" stroke-width="1"/>
  <text x="740" y="450" font-size="22" font-weight="700" fill="#FFFFFF">$34.50</text>
  <text x="932" y="450" font-size="12" fill="#6B7280">← full order amount</text>
  <text x="720" y="478" font-size="10" fill="#6B7280">Remaining after redeem: $15.50 stays on card</text>

  <!-- Reload -->
  <rect x="720" y="494" width="432" height="60" rx="8" fill="#1E2240" stroke="#374151" stroke-width="1"/>
  <text x="740" y="518" font-size="12" font-weight="600" fill="#FFFFFF">Reload Card — Add Funds</text>
  <rect x="740" y="528" width="80" height="20" rx="4" fill="#1E2240" stroke="#374151" stroke-width="1"/>
  <text x="756" y="542" font-size="11" fill="#D1D5DB">+$25</text>
  <rect x="828" y="528" width="80" height="20" rx="4" fill="#1E2240" stroke="#374151" stroke-width="1"/>
  <text x="844" y="542" font-size="11" fill="#D1D5DB">+$50</text>
  <rect x="916" y="528" width="80" height="20" rx="4" fill="#1E2240" stroke="#374151" stroke-width="1"/>
  <text x="932" y="542" font-size="11" fill="#D1D5DB">+$100</text>
  <rect x="1004" y="528" width="100" height="20" rx="4" fill="#1E2240" stroke="#374151" stroke-width="1"/>
  <text x="1018" y="542" font-size="11" fill="#6B7280">Custom...</text>

  <!-- Buttons -->
  <rect x="720" y="568" width="204" height="40" rx="6" fill="#10B981"/>
  <text x="786" y="593" font-size="13" font-weight="600" fill="#FFF">Redeem Now</text>
  <rect x="932" y="568" width="204" height="40" rx="6" fill="#1E2240" stroke="#374151" stroke-width="1"/>
  <text x="994" y="593" font-size="13" fill="#D1D5DB">Void Card</text>

  <!-- ===== Transaction history ===== -->
  <rect x="1192" y="144" width="228" height="540" rx="8" fill="#1A1D2E"/>
  <text x="1212" y="174" font-size="13" font-weight="600" fill="#FFFFFF">Recent Transactions</text>
  <!-- tx rows -->
  <rect x="1204" y="184" width="212" height="48" rx="4" fill="#0F1117"/>
  <text x="1216" y="204" font-size="10" fill="#10B981">+ $50.00 ISSUED</text>
  <text x="1216" y="218" font-size="9" fill="#6B7280">GC-4821 · 2026-05-27 2:14 PM</text>
  <text x="1216" y="230" font-size="9" fill="#6B7280">Cashier: Carlos</text>

  <rect x="1204" y="238" width="212" height="48" rx="4" fill="#0F1117"/>
  <text x="1216" y="258" font-size="10" fill="#EF4444">− $34.50 REDEEMED</text>
  <text x="1216" y="272" font-size="9" fill="#6B7280">GC-2211 · 2026-05-27 1:02 PM</text>
  <text x="1216" y="284" font-size="9" fill="#6B7280">Order #1841</text>

  <rect x="1204" y="292" width="212" height="48" rx="4" fill="#0F1117"/>
  <text x="1216" y="312" font-size="10" fill="#F59E0B">+ $25.00 RELOAD</text>
  <text x="1216" y="326" font-size="9" fill="#6B7280">GC-1120 · 2026-05-27 11:30 AM</text>
  <text x="1216" y="338" font-size="9" fill="#6B7280">Cashier: Maria</text>

  <rect x="1204" y="346" width="212" height="48" rx="4" fill="#0F1117"/>
  <text x="1216" y="366" font-size="10" fill="#EF4444">− $100.00 REDEEMED</text>
  <text x="1216" y="380" font-size="9" fill="#6B7280">GC-0930 · 2026-05-27 10:15 AM</text>
  <text x="1216" y="392" font-size="9" fill="#6B7280">Online order #1822</text>

  <rect x="1204" y="400" width="212" height="48" rx="4" fill="#0F1117"/>
  <text x="1216" y="420" font-size="10" fill="#10B981">+ $100.00 ISSUED</text>
  <text x="1216" y="434" font-size="9" fill="#6B7280">GC-0930 · 2026-05-26</text>
  <text x="1216" y="446" font-size="9" fill="#6B7280">Birthday gift package</text>

  <!-- Config section -->
  <rect x="200" y="696" width="1220" height="184" rx="8" fill="#1A1D2E"/>
  <text x="224" y="724" font-size="14" font-weight="700" fill="#FFFFFF">Gift Card Program Settings</text>

  <rect x="224" y="736" width="380" height="120" rx="6" fill="#0F1117" stroke="#374151" stroke-width="1"/>
  <text x="244" y="758" font-size="11" font-weight="600" fill="#8B92A5">CARD DESIGN &amp; BRANDING</text>
  <text x="244" y="778" font-size="11" fill="#D1D5DB">Logo: restaurant logo (from Restaurant Info)</text>
  <text x="244" y="796" font-size="11" fill="#D1D5DB">Card color: customizable</text>
  <text x="244" y="814" font-size="11" fill="#D1D5DB">Barcode type: Code128 + QR fallback</text>
  <rect x="380" y="810" width="100" height="24" rx="4" fill="#F59E0B"/>
  <text x="398" y="826" font-size="11" font-weight="600" fill="#000">Print Template</text>

  <rect x="620" y="736" width="380" height="120" rx="6" fill="#0F1117" stroke="#374151" stroke-width="1"/>
  <text x="640" y="758" font-size="11" font-weight="600" fill="#8B92A5">FINANCIAL SETTINGS</text>
  <text x="640" y="778" font-size="11" fill="#D1D5DB">No expiry (recommended) or custom date</text>
  <text x="640" y="796" font-size="11" fill="#D1D5DB">Inactivity fee: allowed in some states (off)</text>
  <text x="640" y="814" font-size="11" fill="#D1D5DB">Liability account: tracked in pos_gc_liability</text>

  <rect x="1016" y="736" width="380" height="120" rx="6" fill="#0F1117" stroke="#374151" stroke-width="1"/>
  <text x="1036" y="758" font-size="11" font-weight="600" fill="#8B92A5">WORKFLOW INTEGRATION</text>
  <text x="1036" y="778" font-size="10" fill="#D1D5DB">Register: "Gift Card" tender button → scan/type card</text>
  <text x="1036" y="794" font-size="10" fill="#D1D5DB">Online: gift card code entry at checkout</text>
  <text x="1036" y="810" font-size="10" fill="#D1D5DB">Reports: liability report + redemption report</text>
  <text x="1036" y="826" font-size="10" fill="#D1D5DB">SMS delivery via Twilio when digital card issued</text>

  <text x="720" y="886" font-size="11" text-anchor="middle" fill="#4B5563">Synalux POS · Gift Cards · pos_gift_cards — physical + digital · Twilio SMS · liability tracking</text>
</svg>
