<svg role="img" aria-labelledby="title-settings_reports_advanced-svg" xmlns="http://www.w3.org/2000/svg" xmlns:xlink="http://www.w3.org/1999/xlink"
     viewBox="0 0 1366 1024" font-family="-apple-system,system-ui,BlinkMacSystemFont,'Segoe UI',sans-serif">

  <!-- ==========================================================
       DEFS — Reusable symbols for repeated UI elements
       ========================================================== -->
  <title id="title-settings_reports_advanced-svg">Synalux POS — reports advanced</title>
  <desc>Synalux POS mockup screen for reports advanced. All UI elements admin-configurable.</desc>
  <defs>
    <!-- Shared gradient for card headers -->
    <linearGradient id="cardHeaderGrad" x1="0" y1="0" x2="1" y2="0">
      <stop offset="0%" stop-color="#1E2235"/>
      <stop offset="100%" stop-color="#1A1D2E"/>
    </linearGradient>

    <!-- Amber accent gradient for buttons -->
    <linearGradient id="amberGrad" x1="0" y1="0" x2="0" y2="1">
      <stop offset="0%" stop-color="#FBBF24"/>
      <stop offset="100%" stop-color="#F59E0B"/>
    </linearGradient>

    <!-- Card shadow filter -->
    <filter id="cardShadow" x="-2%" y="-2%" width="104%" height="108%">
      <feDropShadow dx="0" dy="2" stdDeviation="4" flood-color="#000000" flood-opacity="0.3"/>
    </filter>

    <!-- Admin gear icon (editable field indicator) — DB: pos_report_configs -->
    <symbol id="gearIcon" viewBox="0 0 16 16">
      <path d="M7.07 1.29A1 1 0 0 1 8.93 1.29l.47 1.06a1 1 0 0 0 .94.58l1.15-.08a1 1 0 0 1 .92 1.45l-.68.93a1 1 0 0 0 0 1.1l.68.93a1 1 0 0 1-.92 1.45l-1.15-.08a1 1 0 0 0-.94.58l-.47 1.06a1 1 0 0 1-1.86 0l-.47-1.06a1 1 0 0 0-.94-.58l-1.15.08a1 1 0 0 1-.92-1.45l.68-.93a1 1 0 0 0 0-1.1l-.68-.93A1 1 0 0 1 4.51 2.85l1.15.08a1 1 0 0 0 .94-.58z"
            fill="none" stroke="#F59E0B" stroke-width="1.2"/>
      <circle cx="8" cy="8" r="2.5" fill="none" stroke="#F59E0B" stroke-width="1.2"/>
    </symbol>

    <!-- Toggle switch ON -->
    <symbol id="toggleOn" viewBox="0 0 44 24">
      <rect width="44" height="24" rx="12" fill="#059669"/>
      <circle cx="32" cy="12" r="9" fill="#FFFFFF"/>
    </symbol>

    <!-- Toggle switch OFF -->
    <symbol id="toggleOff" viewBox="0 0 44 24">
      <rect width="44" height="24" rx="12" fill="#374151"/>
      <circle cx="12" cy="12" r="9" fill="#94A3B8"/>
    </symbol>

    <!-- Save button -->
    <symbol id="saveBtn" viewBox="0 0 140 36">
      <rect width="140" height="36" rx="6" fill="url(#amberGrad)"/>
      <text x="70" y="23" font-size="12" font-weight="700" fill="#0C0E1A" text-anchor="middle">Save Changes</text>
    </symbol>

    <!-- Dropdown indicator -->
    <symbol id="dropdown" viewBox="0 0 12 8">
      <path d="M1 1l5 5 5-5" fill="none" stroke="#64748B" stroke-width="1.5" stroke-linecap="round"/>
    </symbol>

    <!-- Nav item (inactive) -->
    <symbol id="navItem" viewBox="0 0 200 36">
      <rect width="200" height="36" fill="transparent"/>
    </symbol>

    <!-- Checkbox checked (purple) -->
    <symbol id="checkboxOn" viewBox="0 0 16 16">
      <rect width="16" height="16" rx="3" fill="#8B5CF6"/>
      <path d="M4 8l3 3 5-6" fill="none" stroke="#FFFFFF" stroke-width="2" stroke-linecap="round" stroke-linejoin="round"/>
    </symbol>

    <!-- Checkbox unchecked -->
    <symbol id="checkboxOff" viewBox="0 0 16 16">
      <rect width="16" height="16" rx="3" fill="none" stroke="#475569" stroke-width="1.5"/>
    </symbol>

    <!-- Input field -->
    <symbol id="inputField" viewBox="0 0 300 34">
      <rect width="300" height="34" rx="6" fill="#0C0E1A" stroke="#2A2E45" stroke-width="1"/>
    </symbol>
  </defs>

  <!-- ==========================================================
       BACKGROUND — #0C0E1A base
       ========================================================== -->
  <rect width="1366" height="1024" fill="#0C0E1A"/>

  <!-- ==========================================================
       LEFT NAV SIDEBAR — x=0, w=200
       DB: pos_admin_navigation
       ========================================================== -->
  <rect x="0" y="0" width="200" height="1024" fill="#161930"/>
  <!-- Logo -->
  <rect x="12" y="12" width="28" height="28" rx="6" fill="#F59E0B"/>
  <text x="18" y="31" font-size="14" font-weight="800" fill="#0C0E1A">S</text>
  <text x="48" y="32" font-size="14" font-weight="700" fill="#E2E8F0">Synalux POS</text>
  <line x1="12" y1="48" x2="188" y2="48" stroke="#2A2E45" stroke-width="1"/>

  <!-- Nav items -->
  <text x="16" y="72" font-size="12" fill="#94A3B8">Restaurant Info</text>
  <text x="16" y="100" font-size="12" fill="#94A3B8">Menu Builder</text>
  <text x="16" y="128" font-size="12" fill="#94A3B8">Taxes</text>
  <text x="16" y="156" font-size="12" fill="#94A3B8">Employees</text>
  <text x="16" y="184" font-size="12" fill="#94A3B8">Equipment</text>
  <text x="16" y="212" font-size="12" fill="#94A3B8">Payments</text>
  <text x="16" y="240" font-size="12" fill="#94A3B8">Inventory</text>
  <text x="16" y="268" font-size="12" fill="#94A3B8">Loyalty</text>
  <!-- Active nav item: Reports -->
  <rect x="0" y="280" width="200" height="36" fill="#1E2235" rx="4"/>
  <rect x="0" y="280" width="3" height="36" fill="#F59E0B"/>
  <text x="16" y="303" font-size="12" font-weight="600" fill="#F59E0B">Advanced Reports</text>
  <text x="16" y="332" font-size="12" fill="#94A3B8">Integrations</text>
  <text x="16" y="360" font-size="12" fill="#94A3B8">Floor Plans</text>
  <text x="16" y="388" font-size="12" fill="#94A3B8">Training Mode</text>
  <text x="16" y="416" font-size="12" fill="#94A3B8">Forms</text>
  <text x="16" y="444" font-size="12" fill="#94A3B8">Multi-Location</text>
  <text x="16" y="472" font-size="12" fill="#94A3B8">Franchise</text>

  <!-- ==========================================================
       HEADER — DB: pos_report_configs
       ========================================================== -->
  <rect x="200" y="0" width="1166" height="56" fill="#1A1D2E"/>
  <text x="220" y="24" font-size="18" font-weight="700" fill="#E2E8F0">Advanced Reports Configuration</text>
  <text x="220" y="44" font-size="11" fill="#94A3B8">Custom report builder, saved templates, scheduled delivery, data filters -- DB: pos_report_configs</text>
  <!-- Admin gear on header (editable) -->
  <use xlink:href="#gearIcon" x="580" y="14" width="16" height="16"/>
  <!-- Save button -->
  <use xlink:href="#saveBtn" x="1210" y="10" width="140" height="36"/>
  <line x1="200" y1="56" x2="1366" y2="56" stroke="#2A2E45" stroke-width="1"/>

  <!-- ==========================================================
       TABS — Report sections
       ========================================================== -->
  <rect x="200" y="56" width="1166" height="40" fill="#161930"/>
  <rect x="208" y="62" width="120" height="28" rx="6" fill="#1E2235"/>
  <text x="232" y="81" font-size="12" font-weight="600" fill="#F59E0B">Report Builder</text>
  <text x="358" y="81" font-size="12" fill="#94A3B8">Saved Reports (8)</text>
  <text x="498" y="81" font-size="12" fill="#94A3B8">Scheduled Delivery</text>
  <text x="658" y="81" font-size="12" fill="#94A3B8">Data Filters</text>
  <text x="768" y="81" font-size="12" fill="#94A3B8">Export History</text>
  <line x1="200" y1="96" x2="1366" y2="96" stroke="#2A2E45" stroke-width="1"/>

  <!-- ==========================================================
       LEFT PANEL — Custom Report Builder
       x=200, w=500
       DB: pos_report_configs.report_type, pos_report_configs.metrics
       ========================================================== -->
  <rect x="200" y="96" width="500" height="928" fill="#0C0E1A"/>
  <line x1="700" y1="96" x2="700" y2="1024" stroke="#2A2E45" stroke-width="1"/>

  <!-- Section: Report Type -->
  <rect x="212" y="108" width="476" height="44" rx="8" fill="#1A1D2E" filter="url(#cardShadow)"/>
  <text x="228" y="135" font-size="13" font-weight="700" fill="#E2E8F0">Custom Report Builder</text>
  <!-- DB: pos_report_configs.report_name -->
  <use xlink:href="#gearIcon" x="380" y="120" width="14" height="14"/>

  <!-- Report Name input -->
  <!-- DB: pos_report_configs.report_name -->
  <text x="228" y="170" font-size="11" font-weight="600" fill="#94A3B8">Report Name</text>
  <use xlink:href="#gearIcon" x="310" y="159" width="12" height="12"/>
  <rect x="228" y="176" width="444" height="34" rx="6" fill="#0C0E1A" stroke="#2A2E45" stroke-width="1"/>
  <text x="240" y="198" font-size="12" fill="#E2E8F0">Weekend Dinner Revenue Analysis</text>

  <!-- Report Type dropdown -->
  <!-- DB: pos_report_configs.report_type -->
  <text x="228" y="228" font-size="11" font-weight="600" fill="#94A3B8">Report Type</text>
  <use xlink:href="#gearIcon" x="300" y="217" width="12" height="12"/>
  <rect x="228" y="234" width="444" height="34" rx="6" fill="#0C0E1A" stroke="#2A2E45" stroke-width="1"/>
  <text x="240" y="256" font-size="12" fill="#E2E8F0">Revenue Breakdown</text>
  <use xlink:href="#dropdown" x="656" y="247" width="12" height="8"/>

  <!-- Date Range -->
  <!-- DB: pos_report_configs.date_range_type -->
  <text x="228" y="286" font-size="11" font-weight="600" fill="#94A3B8">Date Range</text>
  <use xlink:href="#gearIcon" x="296" y="275" width="12" height="12"/>
  <rect x="228" y="292" width="212" height="34" rx="6" fill="#0C0E1A" stroke="#2A2E45" stroke-width="1"/>
  <text x="240" y="314" font-size="12" fill="#E2E8F0">Last 4 Weekends</text>
  <use xlink:invoke="#dropdown" x="424" y="305" width="12" height="8"/>
  <rect x="460" y="292" width="212" height="34" rx="6" fill="#0C0E1A" stroke="#2A2E45" stroke-width="1"/>
  <text x="472" y="314" font-size="12" fill="#E2E8F0">Dinner (5PM-10PM)</text>
  <use xlink:href="#dropdown" x="656" y="305" width="12" height="8"/>

  <!-- Metrics Selection -->
  <!-- DB: pos_report_configs.selected_metrics JSONB -->
  <text x="228" y="348" font-size="11" font-weight="600" fill="#94A3B8">Metrics to Include</text>
  <use xlink:href="#gearIcon" x="338" y="337" width="12" height="12"/>
  <rect x="228" y="356" width="444" height="180" rx="8" fill="#1A1D2E" stroke="#2A2E45" stroke-width="1"/>

  <!-- Metric checkboxes — DB: pos_report_configs.selected_metrics -->
  <use xlink:href="#checkboxOn" x="244" y="370" width="14" height="14"/>
  <text x="264" y="382" font-size="11" fill="#E2E8F0">Gross Revenue</text>
  <use xlink:href="#checkboxOn" x="400" y="370" width="14" height="14"/>
  <text x="420" y="382" font-size="11" fill="#E2E8F0">Net Revenue</text>

  <use xlink:href="#checkboxOn" x="244" y="394" width="14" height="14"/>
  <text x="264" y="406" font-size="11" fill="#E2E8F0">Avg Ticket Size</text>
  <use xlink:href="#checkboxOn" x="400" y="394" width="14" height="14"/>
  <text x="420" y="406" font-size="11" fill="#E2E8F0">Order Count</text>

  <use xlink:href="#checkboxOn" x="244" y="418" width="14" height="14"/>
  <text x="264" y="430" font-size="11" fill="#E2E8F0">Food Cost %</text>
  <use xlink:href="#checkboxOff" x="400" y="418" width="14" height="14"/>
  <text x="420" y="430" font-size="11" fill="#64748B">Labor Cost %</text>

  <use xlink:href="#checkboxOn" x="244" y="442" width="14" height="14"/>
  <text x="264" y="454" font-size="11" fill="#E2E8F0">Category Breakdown</text>
  <use xlink:href="#checkboxOff" x="400" y="442" width="14" height="14"/>
  <text x="420" y="454" font-size="11" fill="#64748B">Server Performance</text>

  <use xlink:href="#checkboxOff" x="244" y="466" width="14" height="14"/>
  <text x="264" y="478" font-size="11" fill="#64748B">Discount Impact</text>
  <use xlink:href="#checkboxOn" x="400" y="466" width="14" height="14"/>
  <text x="420" y="478" font-size="11" fill="#E2E8F0">Payment Methods</text>

  <use xlink:href="#checkboxOff" x="244" y="490" width="14" height="14"/>
  <text x="264" y="502" font-size="11" fill="#64748B">Inventory Movement</text>
  <use xlink:href="#checkboxOff" x="400" y="490" width="14" height="14"/>
  <text x="420" y="502" font-size="11" fill="#64748B">Void/Comp Analysis</text>

  <use xlink:href="#checkboxOn" x="244" y="514" width="14" height="14"/>
  <text x="264" y="526" font-size="11" fill="#E2E8F0">Trend Comparison</text>

  <!-- Group By -->
  <!-- DB: pos_report_configs.group_by -->
  <text x="228" y="558" font-size="11" font-weight="600" fill="#94A3B8">Group By</text>
  <use xlink:href="#gearIcon" x="280" y="547" width="12" height="12"/>
  <rect x="228" y="564" width="212" height="34" rx="6" fill="#0C0E1A" stroke="#2A2E45" stroke-width="1"/>
  <text x="240" y="586" font-size="12" fill="#E2E8F0">Day of Week</text>
  <use xlink:href="#dropdown" x="424" y="577" width="12" height="8"/>

  <!-- Compare With -->
  <!-- DB: pos_report_configs.compare_period -->
  <text x="228" y="616" font-size="11" font-weight="600" fill="#94A3B8">Compare With</text>
  <use xlink:href="#gearIcon" x="312" y="605" width="12" height="12"/>
  <rect x="228" y="622" width="444" height="34" rx="6" fill="#0C0E1A" stroke="#2A2E45" stroke-width="1"/>
  <text x="240" y="644" font-size="12" fill="#E2E8F0">Previous 4 Weekends</text>
  <use xlink:href="#dropdown" x="656" y="635" width="12" height="8"/>

  <!-- Chart Type -->
  <!-- DB: pos_report_configs.chart_type -->
  <text x="228" y="674" font-size="11" font-weight="600" fill="#94A3B8">Chart Type</text>
  <use xlink:href="#gearIcon" x="296" y="663" width="12" height="12"/>
  <rect x="228" y="680" width="444" height="40" rx="6" fill="#1A1D2E"/>
  <rect x="234" y="684" width="60" height="32" rx="5" fill="#F59E0B"/>
  <text x="264" y="705" font-size="10" font-weight="600" fill="#0C0E1A" text-anchor="middle">Bar</text>
  <rect x="300" y="684" width="60" height="32" rx="5" fill="#0C0E1A" stroke="#2A2E45" stroke-width="1"/>
  <text x="330" y="705" font-size="10" fill="#94A3B8" text-anchor="middle">Line</text>
  <rect x="366" y="684" width="60" height="32" rx="5" fill="#0C0E1A" stroke="#2A2E45" stroke-width="1"/>
  <text x="396" y="705" font-size="10" fill="#94A3B8" text-anchor="middle">Pie</text>
  <rect x="432" y="684" width="60" height="32" rx="5" fill="#0C0E1A" stroke="#2A2E45" stroke-width="1"/>
  <text x="462" y="705" font-size="10" fill="#94A3B8" text-anchor="middle">Table</text>
  <rect x="498" y="684" width="70" height="32" rx="5" fill="#0C0E1A" stroke="#2A2E45" stroke-width="1"/>
  <text x="533" y="705" font-size="10" fill="#94A3B8" text-anchor="middle">Heatmap</text>

  <!-- Generate / Save buttons -->
  <rect x="228" y="736" width="214" height="38" rx="6" fill="url(#amberGrad)"/>
  <text x="335" y="760" font-size="13" font-weight="700" fill="#0C0E1A" text-anchor="middle">Generate Report</text>
  <rect x="458" y="736" width="214" height="38" rx="6" fill="#0C0E1A" stroke="#8B5CF6" stroke-width="1.5"/>
  <text x="565" y="760" font-size="13" font-weight="600" fill="#8B5CF6" text-anchor="middle">Save as Template</text>

  <!-- ==========================================================
       SAVED REPORTS LIST (below builder)
       DB: pos_report_configs WHERE is_template=true
       ========================================================== -->
  <rect x="212" y="790" width="476" height="34" rx="6" fill="url(#cardHeaderGrad)"/>
  <text x="228" y="812" font-size="12" font-weight="700" fill="#E2E8F0">Saved Report Templates</text>
  <text x="660" y="812" font-size="10" fill="#64748B" text-anchor="end">8 templates</text>

  <!-- Template 1 -->
  <rect x="212" y="828" width="476" height="44" rx="6" fill="#1A1D2E" stroke="#2A2E45" stroke-width="1"/>
  <rect x="212" y="828" width="4" height="44" fill="#F59E0B"/>
  <text x="228" y="849" font-size="11" font-weight="600" fill="#E2E8F0">Weekly Sales Summary</text>
  <text x="228" y="864" font-size="9" fill="#64748B">Bar chart, revenue + orders, weekly</text>
  <rect x="564" y="838" width="50" height="22" rx="4" fill="#F59E0B"/>
  <text x="589" y="853" font-size="9" font-weight="700" fill="#0C0E1A" text-anchor="middle">Run</text>
  <rect x="620" y="838" width="50" height="22" rx="4" fill="#0C0E1A" stroke="#2A2E45" stroke-width="1"/>
  <text x="645" y="853" font-size="9" fill="#94A3B8" text-anchor="middle">Edit</text>

  <!-- Template 2 -->
  <rect x="212" y="876" width="476" height="44" rx="6" fill="#1A1D2E" stroke="#2A2E45" stroke-width="1"/>
  <rect x="212" y="876" width="4" height="44" fill="#22C55E"/>
  <text x="228" y="897" font-size="11" font-weight="600" fill="#E2E8F0">Monthly P&amp;L Deep Dive</text>
  <text x="228" y="912" font-size="9" fill="#64748B">Table, all financial metrics, monthly</text>
  <rect x="564" y="886" width="50" height="22" rx="4" fill="#F59E0B"/>
  <text x="589" y="901" font-size="9" font-weight="700" fill="#0C0E1A" text-anchor="middle">Run</text>
  <rect x="620" y="886" width="50" height="22" rx="4" fill="#0C0E1A" stroke="#2A2E45" stroke-width="1"/>
  <text x="645" y="901" font-size="9" fill="#94A3B8" text-anchor="middle">Edit</text>

  <!-- Template 3 -->
  <rect x="212" y="924" width="476" height="44" rx="6" fill="#1A1D2E" stroke="#2A2E45" stroke-width="1"/>
  <rect x="212" y="924" width="4" height="44" fill="#8B5CF6"/>
  <text x="228" y="945" font-size="11" font-weight="600" fill="#E2E8F0">Server Performance Scorecard</text>
  <text x="228" y="960" font-size="9" fill="#64748B">Table, sales + tips + upsell, weekly by server</text>
  <rect x="564" y="934" width="50" height="22" rx="4" fill="#F59E0B"/>
  <text x="589" y="949" font-size="9" font-weight="700" fill="#0C0E1A" text-anchor="middle">Run</text>
  <rect x="620" y="934" width="50" height="22" rx="4" fill="#0C0E1A" stroke="#2A2E45" stroke-width="1"/>
  <text x="645" y="949" font-size="9" fill="#94A3B8" text-anchor="middle">Edit</text>

  <!-- Template 4 -->
  <rect x="212" y="972" width="476" height="44" rx="6" fill="#1A1D2E" stroke="#2A2E45" stroke-width="1"/>
  <rect x="212" y="972" width="4" height="44" fill="#EF4444"/>
  <text x="228" y="993" font-size="11" font-weight="600" fill="#E2E8F0">Waste &amp; Void Tracker</text>
  <text x="228" y="1008" font-size="9" fill="#64748B">Bar chart, voids + comps + waste, daily</text>
  <rect x="564" y="982" width="50" height="22" rx="4" fill="#F59E0B"/>
  <text x="589" y="997" font-size="9" font-weight="700" fill="#0C0E1A" text-anchor="middle">Run</text>
  <rect x="620" y="982" width="50" height="22" rx="4" fill="#0C0E1A" stroke="#2A2E45" stroke-width="1"/>
  <text x="645" y="997" font-size="9" fill="#94A3B8" text-anchor="middle">Edit</text>

  <!-- ==========================================================
       RIGHT PANEL — Scheduled Email Delivery + Data Filters
       x=700, w=666
       DB: pos_report_schedules, pos_report_filters
       ========================================================== -->

  <!-- Section: Scheduled Email Delivery -->
  <!-- DB: pos_report_schedules -->
  <rect x="712" y="108" width="642" height="44" rx="8" fill="#1A1D2E" filter="url(#cardShadow)"/>
  <text x="728" y="135" font-size="13" font-weight="700" fill="#E2E8F0">Scheduled Email Delivery</text>
  <use xlink:href="#gearIcon" x="890" y="120" width="14" height="14"/>
  <text x="1326" y="135" font-size="10" fill="#64748B" text-anchor="end">3 active schedules</text>

  <!-- Schedule 1 — DB: pos_report_schedules row -->
  <rect x="712" y="160" width="642" height="96" rx="8" fill="#1A1D2E" stroke="#22C55E" stroke-width="1"/>
  <rect x="712" y="160" width="4" height="96" fill="#22C55E"/>
  <text x="732" y="182" font-size="12" font-weight="700" fill="#E2E8F0">Weekly Sales Summary</text>
  <!-- DB: pos_report_schedules.is_active -->
  <use xlink:href="#toggleOn" x="1282" y="168" width="44" height="24"/>
  <use xlink:href="#gearIcon" x="1260" y="172" width="14" height="14"/>

  <!-- DB: pos_report_schedules.frequency -->
  <text x="732" y="200" font-size="10" fill="#94A3B8">Frequency:</text>
  <text x="800" y="200" font-size="10" font-weight="600" fill="#E2E8F0">Every Monday 7:00 AM</text>
  <use xlink:href="#gearIcon" x="932" y="190" width="12" height="12"/>

  <!-- DB: pos_report_schedules.recipients JSONB -->
  <text x="732" y="218" font-size="10" fill="#94A3B8">Recipients:</text>
  <text x="800" y="218" font-size="10" fill="#E2E8F0">dmitri@synalux.com, manager@synalux.com</text>
  <use xlink:href="#gearIcon" x="1100" y="208" width="12" height="12"/>

  <!-- DB: pos_report_schedules.format -->
  <text x="732" y="236" font-size="10" fill="#94A3B8">Format:</text>
  <text x="780" y="236" font-size="10" fill="#E2E8F0">PDF + CSV attachment</text>
  <use xlink:href="#gearIcon" x="900" y="226" width="12" height="12"/>
  <text x="732" y="250" font-size="9" fill="#64748B">Last sent: Mon May 26, 2026 7:00 AM -- delivered</text>

  <!-- Schedule 2 -->
  <rect x="712" y="264" width="642" height="80" rx="8" fill="#1A1D2E" stroke="#F59E0B" stroke-width="1"/>
  <rect x="712" y="264" width="4" height="80" fill="#F59E0B"/>
  <text x="732" y="286" font-size="12" font-weight="700" fill="#E2E8F0">Daily Flash Report</text>
  <use xlink:href="#toggleOn" x="1282" y="272" width="44" height="24"/>
  <use xlink:href="#gearIcon" x="1260" y="276" width="14" height="14"/>
  <text x="732" y="304" font-size="10" fill="#94A3B8">Frequency:</text>
  <text x="800" y="304" font-size="10" font-weight="600" fill="#E2E8F0">Daily at 11:00 PM (after close)</text>
  <use xlink:href="#gearIcon" x="980" y="294" width="12" height="12"/>
  <text x="732" y="322" font-size="10" fill="#94A3B8">Recipients:</text>
  <text x="800" y="322" font-size="10" fill="#E2E8F0">dmitri@synalux.com</text>
  <text x="732" y="336" font-size="9" fill="#64748B">Last sent: Yesterday 11:00 PM -- delivered</text>

  <!-- Schedule 3 -->
  <rect x="712" y="352" width="642" height="80" rx="8" fill="#1A1D2E" stroke="#8B5CF6" stroke-width="1"/>
  <rect x="712" y="352" width="4" height="80" fill="#8B5CF6"/>
  <text x="732" y="374" font-size="12" font-weight="700" fill="#E2E8F0">Monthly P&amp;L Report</text>
  <use xlink:href="#toggleOn" x="1282" y="360" width="44" height="24"/>
  <use xlink:href="#gearIcon" x="1260" y="364" width="14" height="14"/>
  <text x="732" y="392" font-size="10" fill="#94A3B8">Frequency:</text>
  <text x="800" y="392" font-size="10" font-weight="600" fill="#E2E8F0">1st of month at 8:00 AM</text>
  <text x="732" y="410" font-size="10" fill="#94A3B8">Recipients:</text>
  <text x="800" y="410" font-size="10" fill="#E2E8F0">dmitri@synalux.com, accountant@synalux.com</text>
  <text x="732" y="424" font-size="9" fill="#64748B">Last sent: May 1, 2026 8:00 AM -- delivered</text>

  <!-- Add Schedule button -->
  <rect x="712" y="440" width="642" height="36" rx="6" fill="#0C0E1A" stroke="#2A2E45" stroke-width="1.5" stroke-dasharray="6,4"/>
  <text x="1033" y="463" font-size="12" fill="#64748B" text-anchor="middle">+ Add New Schedule</text>

  <!-- ==========================================================
       DATA FILTERS section
       DB: pos_report_filters
       ========================================================== -->
  <rect x="712" y="492" width="642" height="44" rx="8" fill="#1A1D2E" filter="url(#cardShadow)"/>
  <text x="728" y="519" font-size="13" font-weight="700" fill="#E2E8F0">Global Data Filters</text>
  <use xlink:href="#gearIcon" x="860" y="504" width="14" height="14"/>
  <text x="1326" y="519" font-size="10" fill="#64748B" text-anchor="end">Applied to all reports</text>

  <!-- Filter: Revenue Centers -->
  <!-- DB: pos_report_filters.revenue_centers -->
  <rect x="712" y="544" width="310" height="80" rx="8" fill="#1A1D2E" stroke="#2A2E45" stroke-width="1"/>
  <text x="728" y="566" font-size="11" font-weight="600" fill="#E2E8F0">Revenue Centers</text>
  <use xlink:href="#gearIcon" x="834" y="555" width="12" height="12"/>
  <use xlink:href="#checkboxOn" x="728" y="574" width="14" height="14"/>
  <text x="748" y="586" font-size="10" fill="#E2E8F0">Dine-In</text>
  <use xlink:href="#checkboxOn" x="810" y="574" width="14" height="14"/>
  <text x="830" y="586" font-size="10" fill="#E2E8F0">Takeout</text>
  <use xlink:href="#checkboxOn" x="890" y="574" width="14" height="14"/>
  <text x="910" y="586" font-size="10" fill="#E2E8F0">Delivery</text>
  <use xlink:href="#checkboxOff" x="728" y="596" width="14" height="14"/>
  <text x="748" y="608" font-size="10" fill="#64748B">Drive-Thru</text>
  <use xlink:href="#checkboxOn" x="830" y="596" width="14" height="14"/>
  <text x="850" y="608" font-size="10" fill="#E2E8F0">Online</text>

  <!-- Filter: Daypart -->
  <!-- DB: pos_report_filters.daypart -->
  <rect x="1044" y="544" width="310" height="80" rx="8" fill="#1A1D2E" stroke="#2A2E45" stroke-width="1"/>
  <text x="1060" y="566" font-size="11" font-weight="600" fill="#E2E8F0">Daypart Filter</text>
  <use xlink:href="#gearIcon" x="1152" y="555" width="12" height="12"/>
  <use xlink:href="#checkboxOn" x="1060" y="574" width="14" height="14"/>
  <text x="1080" y="586" font-size="10" fill="#E2E8F0">Breakfast</text>
  <use xlink:href="#checkboxOn" x="1148" y="574" width="14" height="14"/>
  <text x="1168" y="586" font-size="10" fill="#E2E8F0">Lunch</text>
  <use xlink:href="#checkboxOn" x="1220" y="574" width="14" height="14"/>
  <text x="1240" y="586" font-size="10" fill="#E2E8F0">Dinner</text>
  <use xlink:href="#checkboxOn" x="1060" y="596" width="14" height="14"/>
  <text x="1080" y="608" font-size="10" fill="#E2E8F0">Late Night</text>

  <!-- Filter: Minimum Order Amount -->
  <!-- DB: pos_report_filters.min_order_cents -->
  <rect x="712" y="632" width="310" height="60" rx="8" fill="#1A1D2E" stroke="#2A2E45" stroke-width="1"/>
  <text x="728" y="654" font-size="11" font-weight="600" fill="#E2E8F0">Min Order Amount</text>
  <use xlink:href="#gearIcon" x="848" y="643" width="12" height="12"/>
  <rect x="728" y="660" width="120" height="24" rx="4" fill="#0C0E1A" stroke="#2A2E45" stroke-width="1"/>
  <text x="740" y="677" font-size="11" fill="#F59E0B">$0.00</text>
  <text x="866" y="677" font-size="10" fill="#64748B">No minimum</text>

  <!-- Filter: Exclude Comps -->
  <!-- DB: pos_report_filters.exclude_comps -->
  <rect x="1044" y="632" width="310" height="60" rx="8" fill="#1A1D2E" stroke="#2A2E45" stroke-width="1"/>
  <text x="1060" y="654" font-size="11" font-weight="600" fill="#E2E8F0">Exclude Comps/Voids</text>
  <use xlink:href="#gearIcon" x="1194" y="643" width="12" height="12"/>
  <use xlink:href="#toggleOn" x="1282" y="650" width="44" height="24"/>
  <text x="1060" y="680" font-size="9" fill="#64748B">Removes voided and comp'd items from totals</text>

  <!-- Filter: Employee -->
  <!-- DB: pos_report_filters.employee_filter -->
  <rect x="712" y="700" width="642" height="60" rx="8" fill="#1A1D2E" stroke="#2A2E45" stroke-width="1"/>
  <text x="728" y="722" font-size="11" font-weight="600" fill="#E2E8F0">Employee Filter</text>
  <use xlink:href="#gearIcon" x="828" y="711" width="12" height="12"/>
  <rect x="728" y="728" width="310" height="24" rx="4" fill="#0C0E1A" stroke="#2A2E45" stroke-width="1"/>
  <text x="740" y="745" font-size="11" fill="#94A3B8">All Employees</text>
  <use xlink:href="#dropdown" x="1022" y="738" width="12" height="8"/>
  <text x="1060" y="745" font-size="10" fill="#64748B">Filter by role, name, or employee ID</text>

  <!-- ==========================================================
       REPORT PREVIEW PANEL (bottom right)
       DB: pos_report_configs preview render
       ========================================================== -->
  <rect x="712" y="776" width="642" height="44" rx="8" fill="#1A1D2E" filter="url(#cardShadow)"/>
  <text x="728" y="803" font-size="13" font-weight="700" fill="#E2E8F0">Report Preview</text>
  <text x="1326" y="803" font-size="10" fill="#64748B" text-anchor="end">Weekend Dinner Revenue</text>

  <!-- Mini bar chart preview -->
  <rect x="712" y="828" width="642" height="140" rx="8" fill="#1A1D2E" stroke="#2A2E45" stroke-width="1"/>
  <!-- Y-axis -->
  <text x="724" y="848" font-size="8" fill="#64748B">$4K</text>
  <text x="724" y="880" font-size="8" fill="#64748B">$3K</text>
  <text x="724" y="912" font-size="8" fill="#64748B">$2K</text>
  <text x="724" y="944" font-size="8" fill="#64748B">$1K</text>

  <!-- Grid lines -->
  <line x1="746" y1="844" x2="1340" y2="844" stroke="#2A2E45" stroke-width="0.5"/>
  <line x1="746" y1="876" x2="1340" y2="876" stroke="#2A2E45" stroke-width="0.5"/>
  <line x1="746" y1="908" x2="1340" y2="908" stroke="#2A2E45" stroke-width="0.5"/>
  <line x1="746" y1="940" x2="1340" y2="940" stroke="#2A2E45" stroke-width="0.5"/>
  <line x1="746" y1="956" x2="1340" y2="956" stroke="#2A2E45" stroke-width="0.5"/>

  <!-- Bars (4 weekends x 2 bars: current vs previous) -->
  <!-- Weekend 1: Fri -->
  <rect x="790" y="860" width="50" height="96" rx="3" fill="#F59E0B" opacity="0.8"/>
  <rect x="844" y="876" width="50" height="80" rx="3" fill="#8B5CF6" opacity="0.5"/>
  <text x="835" y="968" font-size="9" fill="#64748B" text-anchor="middle">Fri</text>

  <!-- Weekend 1: Sat -->
  <rect x="920" y="848" width="50" height="108" rx="3" fill="#F59E0B" opacity="0.8"/>
  <rect x="974" y="864" width="50" height="92" rx="3" fill="#8B5CF6" opacity="0.5"/>
  <text x="965" y="968" font-size="9" fill="#64748B" text-anchor="middle">Sat</text>

  <!-- Weekend 1: Sun -->
  <rect x="1050" y="880" width="50" height="76" rx="3" fill="#F59E0B" opacity="0.8"/>
  <rect x="1104" y="888" width="50" height="68" rx="3" fill="#8B5CF6" opacity="0.5"/>
  <text x="1095" y="968" font-size="9" fill="#64748B" text-anchor="middle">Sun</text>

  <!-- Weekend 2: Avg -->
  <rect x="1180" y="868" width="50" height="88" rx="3" fill="#22C55E" opacity="0.6"/>
  <text x="1205" y="968" font-size="9" fill="#64748B" text-anchor="middle">Avg</text>

  <!-- Legend -->
  <rect x="748" y="848" width="8" height="8" rx="2" fill="#F59E0B"/>
  <text x="760" y="856" font-size="8" fill="#94A3B8">Current</text>
  <rect x="748" y="860" width="8" height="8" rx="2" fill="#8B5CF6"/>
  <text x="760" y="868" font-size="8" fill="#94A3B8">Previous</text>

  <!-- Export buttons -->
  <rect x="1080" y="842" width="70" height="24" rx="4" fill="url(#amberGrad)"/>
  <text x="1115" y="858" font-size="9" font-weight="700" fill="#0C0E1A" text-anchor="middle">Export PDF</text>
  <rect x="1158" y="842" width="70" height="24" rx="4" fill="#0C0E1A" stroke="#2A2E45" stroke-width="1"/>
  <text x="1193" y="858" font-size="9" fill="#94A3B8" text-anchor="middle">Export CSV</text>
  <rect x="1236" y="842" width="70" height="24" rx="4" fill="#0C0E1A" stroke="#2A2E45" stroke-width="1"/>
  <text x="1271" y="858" font-size="9" fill="#94A3B8" text-anchor="middle">Email</text>

  <!-- ==========================================================
       WORKFLOW INTEGRATION NOTE
       DB: pos_report_configs schema reference
       ========================================================== -->
  <rect x="712" y="976" width="642" height="40" rx="6" fill="#1A1D2E" stroke="#F59E0B" stroke-width="1"/>
  <text x="728" y="993" font-size="9" font-weight="700" fill="#F59E0B">SCHEMA:</text>
  <text x="784" y="993" font-size="9" fill="#94A3B8">pos_report_configs (templates) | pos_report_schedules (delivery) | pos_report_filters (global filters) | pos_report_runs (history)</text>
  <text x="728" y="1008" font-size="9" fill="#64748B">API: /api/pos/reports/generate | /api/pos/reports/schedule | cron: report-delivery-worker</text>

</svg>