<svg role="img" aria-labelledby="title-settings_inventory-svg" xmlns="http://www.w3.org/2000/svg" viewBox="0 0 1366 1024" font-family="-apple-system,BlinkMacSystemFont,'SF Pro Display','Segoe UI',sans-serif">
  <title id="title-settings_inventory-svg">Synalux POS — inventory</title>
  <desc>Synalux POS mockup screen for inventory. All UI elements admin-configurable.</desc>
  <defs>
    <!-- ===== GRADIENTS ===== -->
    <linearGradient id="headerGrad" x1="0" y1="0" x2="1" y2="0">
      <stop offset="0%" stop-color="#1A1D2E"/>
      <stop offset="100%" stop-color="#161930"/>
    </linearGradient>
    <linearGradient id="ctaGrad" x1="0" y1="0" x2="1" y2="1">
      <stop offset="0%" stop-color="#F59E0B"/>
      <stop offset="100%" stop-color="#D97706"/>
    </linearGradient>
    <linearGradient id="dangerGrad" x1="0" y1="0" x2="1" y2="0">
      <stop offset="0%" stop-color="#7F1D1D"/>
      <stop offset="100%" stop-color="#991B1B"/>
    </linearGradient>

    <!-- ===== FILTERS ===== -->
    <filter id="cardShadow" x="-4%" y="-4%" width="108%" height="112%">
      <feDropShadow dx="0" dy="2" stdDeviation="4" flood-color="#000000" flood-opacity="0.3"/>
    </filter>
    <filter id="glowAmber" x="-10%" y="-10%" width="120%" height="120%">
      <feDropShadow dx="0" dy="0" stdDeviation="3" flood-color="#F59E0B" flood-opacity="0.25"/>
    </filter>

    <!-- ===== SYMBOLS ===== -->

    <!-- Admin gear icon -->
    <symbol id="gearIcon" viewBox="0 0 16 16">
      <path d="M8 1l1.2.3.5 1.4.9.5 1.5-.2 1 .8-.3 1.4.3 1 1.1.9v1.2l-1.1.9-.3 1 .3 1.4-1 .8-1.5-.2-.9.5-.5 1.4H7l-.5-1.4-.9-.5-1.5.2-1-.8.3-1.4-.3-1L2.1 9V7.8l1.1-.9.3-1-.3-1.4 1-.8 1.5.2.9-.5L7 1h1zm0 4.5a2.5 2.5 0 100 5 2.5 2.5 0 000-5z" fill="#F59E0B" opacity="0.3"/>
    </symbol>

    <!-- Toggle ON -->
    <symbol id="toggleOn" viewBox="0 0 40 22">
      <rect width="40" height="22" rx="11" fill="#22C55E"/>
      <circle cx="29" cy="11" r="8" fill="#FFFFFF"/>
    </symbol>

    <!-- Toggle OFF -->
    <symbol id="toggleOff" viewBox="0 0 40 22">
      <rect width="40" height="22" rx="11" fill="#374151"/>
      <circle cx="11" cy="11" r="8" fill="#FFFFFF"/>
    </symbol>

    <!-- Toggle (86'd/critical) -->
    <symbol id="toggleDanger" viewBox="0 0 40 22">
      <rect width="40" height="22" rx="11" fill="#991B1B"/>
      <circle cx="29" cy="11" r="8" fill="#FFFFFF"/>
    </symbol>

    <!-- Form field -->
    <symbol id="formField" viewBox="0 0 200 30">
      <rect width="200" height="30" rx="6" fill="#0C0E1A" stroke="#2A2E45" stroke-width="1"/>
    </symbol>

    <!-- Primary button -->
    <symbol id="btnPrimary" viewBox="0 0 160 36">
      <rect width="160" height="36" rx="6" fill="url(#ctaGrad)"/>
    </symbol>

    <!-- Secondary button -->
    <symbol id="btnSecondary" viewBox="0 0 100 36">
      <rect width="100" height="36" rx="6" fill="#161930" stroke="#2A2E45" stroke-width="1"/>
    </symbol>

    <!-- Nav item (inactive) -->
    <symbol id="navItem" viewBox="0 0 184 36">
      <rect width="184" height="36" rx="6" fill="transparent"/>
    </symbol>

    <!-- Nav item (active) -->
    <symbol id="navItemActive" viewBox="0 0 184 36">
      <rect width="184" height="36" rx="6" fill="#1A1D2E"/>
      <rect width="3" height="36" rx="1" fill="#F59E0B"/>
    </symbol>

    <!-- Table row (normal even) -->
    <symbol id="tableRowEven" viewBox="0 0 1146 36">
      <rect width="1146" height="36" fill="#1A1D2E"/>
    </symbol>

    <!-- Table row (normal odd) -->
    <symbol id="tableRowOdd" viewBox="0 0 1146 36">
      <rect width="1146" height="36" fill="#161930"/>
    </symbol>

    <!-- Table row (critical/86'd) -->
    <symbol id="tableRowCritical" viewBox="0 0 1146 36">
      <rect width="1146" height="36" fill="#7F1D1D"/>
    </symbol>

    <!-- Table row (warning/low stock) -->
    <symbol id="tableRowWarning" viewBox="0 0 1146 36">
      <rect width="1146" height="36" fill="#7C2D12" opacity="0.4"/>
    </symbol>

    <!-- Status badge: In Stock -->
    <symbol id="badgeInStock" viewBox="0 0 58 20">
      <rect width="58" height="20" rx="10" fill="#065F46"/>
    </symbol>

    <!-- Status badge: LOW -->
    <symbol id="badgeLow" viewBox="0 0 58 20">
      <rect width="58" height="20" rx="10" fill="#B45309"/>
    </symbol>

    <!-- Status badge: 86'd -->
    <symbol id="badge86d" viewBox="0 0 58 20">
      <rect width="58" height="20" rx="10" fill="#991B1B"/>
    </symbol>

    <!-- Tab (active) -->
    <symbol id="tabActive" viewBox="0 0 100 28">
      <rect width="100" height="28" rx="6" fill="#1A1D2E"/>
    </symbol>

    <!-- Tab (inactive) -->
    <symbol id="tab" viewBox="0 0 100 28">
      <rect width="100" height="28" rx="6" fill="transparent"/>
    </symbol>

    <!-- Adjust stock button -->
    <symbol id="adjustBtn" viewBox="0 0 80 20">
      <rect width="80" height="20" rx="4" fill="#161930" stroke="#2A2E45" stroke-width="1"/>
    </symbol>

    <!-- Edit button -->
    <symbol id="editBtn" viewBox="0 0 44 20">
      <rect width="44" height="20" rx="4" fill="#161930" stroke="#2A2E45" stroke-width="1"/>
    </symbol>

    <!-- Adjustment type button (active) -->
    <symbol id="adjTypeBtnActive" viewBox="0 0 100 24">
      <rect width="100" height="24" rx="4" fill="url(#ctaGrad)"/>
    </symbol>

    <!-- Adjustment type button (inactive) -->
    <symbol id="adjTypeBtnInactive" viewBox="0 0 100 24">
      <rect width="100" height="24" rx="4" fill="#161930" stroke="#2A2E45" stroke-width="1"/>
    </symbol>
  </defs>

  <!-- ===== BACKGROUND ===== -->
  <rect width="1366" height="1024" fill="#0C0E1A"/>

  <!-- ===== LEFT SIDEBAR (200px) ===== -->
  <!-- admin_path: Back Office > Settings Navigation -->
  <rect x="0" y="0" width="200" height="1024" fill="#161930"/>
  <rect x="200" y="0" width="1" height="1024" fill="#1E2235"/>
  <text x="16" y="30" font-size="14" font-weight="700" fill="#F59E0B">Synalux POS</text>
  <text x="16" y="46" font-size="10" fill="#64748B">Back Office</text>

  <!-- Nav items -->
  <use href="#navItem" x="8" y="60" width="184" height="36"/>
  <text x="24" y="83" font-size="12" fill="#94A3B8">Restaurant Info</text>

  <use href="#navItem" x="8" y="100" width="184" height="36"/>
  <text x="24" y="123" font-size="12" fill="#94A3B8">Menu Builder</text>

  <use href="#navItem" x="8" y="140" width="184" height="36"/>
  <text x="24" y="163" font-size="12" fill="#94A3B8">Taxes</text>

  <use href="#navItem" x="8" y="176" width="184" height="36"/>
  <text x="24" y="199" font-size="12" fill="#94A3B8">Employees</text>

  <use href="#navItem" x="8" y="212" width="184" height="36"/>
  <text x="24" y="235" font-size="12" fill="#94A3B8">Discounts</text>

  <use href="#navItemActive" x="8" y="248" width="184" height="36"/>
  <text x="24" y="271" font-size="12" font-weight="600" fill="#F59E0B">Inventory</text>
  <use href="#gearIcon" x="170" y="256" width="14" height="14"/>

  <use href="#navItem" x="8" y="284" width="184" height="36"/>
  <text x="24" y="307" font-size="12" fill="#94A3B8">Equipment</text>

  <use href="#navItem" x="8" y="320" width="184" height="36"/>
  <text x="24" y="343" font-size="12" fill="#94A3B8">Floor Plans</text>

  <use href="#navItem" x="8" y="356" width="184" height="36"/>
  <text x="24" y="379" font-size="12" fill="#94A3B8">Payments</text>

  <use href="#navItem" x="8" y="392" width="184" height="36"/>
  <text x="24" y="415" font-size="12" fill="#94A3B8">Reports</text>

  <use href="#navItem" x="8" y="428" width="184" height="36"/>
  <text x="24" y="451" font-size="12" fill="#94A3B8">Integrations</text>

  <!-- ===== HEADER BAR ===== -->
  <!-- admin_path: Back Office > Inventory Management -->
  <rect x="201" y="0" width="1165" height="56" fill="url(#headerGrad)"/>
  <text x="220" y="28" font-size="18" font-weight="700" fill="#FFFFFF">Inventory Management</text>
  <use href="#gearIcon" x="416" y="16" width="16" height="16"/>
  <text x="220" y="48" font-size="11" fill="#64748B">Stock levels | Depletion tracking | Low-stock alerts | 86'd auto-trigger -- pos_inventory table</text>

  <use href="#btnPrimary" x="1040" y="10" width="160" height="32"/>
  <text x="1064" y="30" font-size="12" font-weight="600" fill="#000">+ Add Inventory Item</text>
  <use href="#btnSecondary" x="1210" y="10" width="120" height="32"/>
  <text x="1224" y="30" font-size="12" fill="#CBD5E1">Print Count Sheet</text>

  <!-- ===== ALERT STRIP ===== -->
  <!-- db: pos_inventory WHERE quantity <= threshold AND auto_86 = true -->
  <rect x="210" y="64" width="1146" height="42" rx="8" fill="#7F1D1D" stroke="#991B1B" stroke-width="1"/>
  <text x="230" y="82" font-size="12" font-weight="700" fill="#FCA5A5">3 items critically low -- auto-86'd on register and online menu</text>
  <text x="230" y="98" font-size="10" fill="#FCA5A5">Salmon (0 portions) | Buffalo Wings (1 portion) | Lobster Bisque (2 portions)</text>
  <use href="#gearIcon" x="1330" y="74" width="14" height="14"/>

  <!-- ===== TABS ===== -->
  <!-- admin_path: Back Office > Inventory > View Filter -->
  <rect x="201" y="110" width="1165" height="34" fill="#161930"/>
  <use href="#tabActive" x="210" y="113" width="80" height="28"/>
  <text x="226" y="132" font-size="11" font-weight="600" fill="#F59E0B">All Items</text>
  <use href="#tab" x="298" y="113" width="90" height="28"/>
  <text x="310" y="132" font-size="11" fill="#94A3B8">Low Stock (3)</text>
  <use href="#tab" x="396" y="113" width="90" height="28"/>
  <text x="406" y="132" font-size="11" fill="#94A3B8">86'd Items (3)</text>
  <use href="#tab" x="494" y="113" width="90" height="28"/>
  <text x="508" y="132" font-size="11" fill="#94A3B8">By Category</text>
  <use href="#tab" x="592" y="113" width="100" height="28"/>
  <text x="604" y="132" font-size="11" fill="#94A3B8">Depletion Log</text>

  <!-- ===== TABLE HEADER ===== -->
  <!-- db: pos_inventory table columns -->
  <rect x="201" y="148" width="1165" height="30" fill="#1A1D2E"/>
  <text x="220" y="167" font-size="9" font-weight="600" fill="#64748B">ITEM</text>
  <text x="400" y="167" font-size="9" font-weight="600" fill="#64748B">SKU</text>
  <text x="488" y="167" font-size="9" font-weight="600" fill="#64748B">UNIT</text>
  <text x="556" y="167" font-size="9" font-weight="600" fill="#64748B">ON HAND</text>
  <text x="636" y="167" font-size="9" font-weight="600" fill="#64748B">THRESHOLD</text>
  <text x="730" y="167" font-size="9" font-weight="600" fill="#64748B">COST</text>
  <text x="800" y="167" font-size="9" font-weight="600" fill="#64748B">STATUS</text>
  <text x="880" y="167" font-size="9" font-weight="600" fill="#64748B">SOLD TODAY</text>
  <text x="966" y="167" font-size="9" font-weight="600" fill="#64748B">DEPL/HR</text>
  <text x="1040" y="167" font-size="9" font-weight="600" fill="#64748B">REORDER PT</text>
  <text x="1126" y="167" font-size="9" font-weight="600" fill="#64748B">VENDOR</text>
  <text x="1210" y="167" font-size="9" font-weight="600" fill="#64748B">86 AUTO</text>
  <text x="1290" y="167" font-size="9" font-weight="600" fill="#64748B">ACTIONS</text>
  <use href="#gearIcon" x="1340" y="155" width="12" height="12"/>

  <!-- ===== INVENTORY ROWS ===== -->

  <!-- Row 1: Salmon - CRITICAL / 86'd -->
  <!-- db: pos_inventory.id = INV-ENT-012, quantity = 0, auto_86 = true -->
  <use href="#tableRowCritical" x="201" y="178" width="1165" height="36"/>
  <use href="#gearIcon" x="204" y="188" width="10" height="10"/>
  <text x="220" y="201" font-size="12" font-weight="600" fill="#FCA5A5">Atlantic Salmon</text>
  <text x="400" y="201" font-size="10" fill="#FCA5A5">ENT-012</text>
  <text x="488" y="201" font-size="10" fill="#FCA5A5">portions</text>
  <text x="556" y="201" font-size="14" font-weight="700" fill="#EF4444">0</text>
  <text x="636" y="201" font-size="10" fill="#FCA5A5">5</text>
  <text x="730" y="201" font-size="10" fill="#FCA5A5">$8.50</text>
  <use href="#badge86d" x="794" y="186" width="54" height="18"/>
  <text x="806" y="199" font-size="9" fill="#FCA5A5">86'd</text>
  <text x="880" y="201" font-size="10" fill="#FCA5A5">12</text>
  <text x="966" y="201" font-size="10" fill="#FCA5A5">1.5/hr</text>
  <text x="1040" y="201" font-size="10" fill="#FCA5A5">10</text>
  <text x="1126" y="201" font-size="10" fill="#FCA5A5">Star Seafood</text>
  <use href="#toggleDanger" x="1210" y="188" width="36" height="18"/>
  <use href="#adjustBtn" x="1270" y="188" width="70" height="18"/>
  <text x="1282" y="200" font-size="9" fill="#CBD5E1">+/- Stock</text>

  <!-- Row 2: Buffalo Wings - 1 portion / 86'd -->
  <!-- db: pos_inventory.id = INV-APP-010, quantity = 1, auto_86 = true -->
  <use href="#tableRowCritical" x="201" y="214" width="1165" height="36"/>
  <use href="#gearIcon" x="204" y="224" width="10" height="10"/>
  <text x="220" y="237" font-size="12" font-weight="600" fill="#FCA5A5">Buffalo Wings</text>
  <text x="400" y="237" font-size="10" fill="#FCA5A5">APP-010</text>
  <text x="488" y="237" font-size="10" fill="#FCA5A5">orders</text>
  <text x="556" y="237" font-size="14" font-weight="700" fill="#EF4444">1</text>
  <text x="636" y="237" font-size="10" fill="#FCA5A5">8</text>
  <text x="730" y="237" font-size="10" fill="#FCA5A5">$4.10</text>
  <use href="#badge86d" x="794" y="222" width="54" height="18"/>
  <text x="806" y="235" font-size="9" fill="#FCA5A5">86'd</text>
  <text x="880" y="237" font-size="10" fill="#FCA5A5">47</text>
  <text x="966" y="237" font-size="10" fill="#FCA5A5">5.9/hr</text>
  <text x="1040" y="237" font-size="10" fill="#FCA5A5">15</text>
  <text x="1126" y="237" font-size="10" fill="#FCA5A5">Star Beef</text>
  <use href="#toggleDanger" x="1210" y="224" width="36" height="18"/>
  <use href="#adjustBtn" x="1270" y="224" width="70" height="18"/>
  <text x="1282" y="236" font-size="9" fill="#CBD5E1">+/- Stock</text>

  <!-- Row 3: Burger Deluxe - LOW -->
  <!-- db: pos_inventory.id = INV-BURG-001, quantity = 4, threshold = 10 -->
  <use href="#tableRowWarning" x="201" y="250" width="1165" height="36"/>
  <use href="#gearIcon" x="204" y="260" width="10" height="10"/>
  <text x="220" y="273" font-size="12" fill="#FDE68A">Burger Deluxe</text>
  <text x="400" y="273" font-size="10" fill="#94A3B8">BURG-001</text>
  <text x="488" y="273" font-size="10" fill="#94A3B8">portions</text>
  <text x="556" y="273" font-size="14" font-weight="700" fill="#F59E0B">4</text>
  <text x="636" y="273" font-size="10" fill="#94A3B8">10</text>
  <text x="730" y="273" font-size="10" fill="#94A3B8">$3.20</text>
  <use href="#badgeLow" x="794" y="258" width="58" height="18"/>
  <text x="806" y="271" font-size="9" fill="#FDE68A">LOW</text>
  <text x="880" y="273" font-size="10" fill="#94A3B8">28</text>
  <text x="966" y="273" font-size="10" fill="#F59E0B">3.5/hr</text>
  <text x="1040" y="273" font-size="10" fill="#94A3B8">20</text>
  <text x="1126" y="273" font-size="10" fill="#94A3B8">Star Beef</text>
  <use href="#toggleOn" x="1210" y="260" width="36" height="18"/>
  <use href="#adjustBtn" x="1270" y="260" width="70" height="18"/>
  <text x="1282" y="272" font-size="9" fill="#CBD5E1">+/- Stock</text>

  <!-- Row 4: Margherita Pizza - OK -->
  <!-- db: pos_inventory.id = INV-PIZ-001, quantity = 18 -->
  <use href="#tableRowEven" x="201" y="286" width="1165" height="36"/>
  <use href="#gearIcon" x="204" y="296" width="10" height="10"/>
  <text x="220" y="309" font-size="12" fill="#CBD5E1">Margherita Pizza</text>
  <text x="400" y="309" font-size="10" fill="#94A3B8">PIZ-001</text>
  <text x="488" y="309" font-size="10" fill="#94A3B8">pies</text>
  <text x="556" y="309" font-size="14" font-weight="700" fill="#22C55E">18</text>
  <text x="636" y="309" font-size="10" fill="#94A3B8">5</text>
  <text x="730" y="309" font-size="10" fill="#94A3B8">$2.80</text>
  <use href="#badgeInStock" x="794" y="294" width="58" height="18"/>
  <text x="804" y="307" font-size="9" fill="#4ADE80">In Stock</text>
  <text x="880" y="309" font-size="10" fill="#94A3B8">22</text>
  <text x="966" y="309" font-size="10" fill="#94A3B8">2.8/hr</text>
  <text x="1040" y="309" font-size="10" fill="#94A3B8">15</text>
  <text x="1126" y="309" font-size="10" fill="#94A3B8">Napoli Co.</text>
  <use href="#toggleOn" x="1210" y="296" width="36" height="18"/>
  <use href="#adjustBtn" x="1270" y="296" width="70" height="18"/>
  <text x="1282" y="308" font-size="9" fill="#CBD5E1">+/- Stock</text>

  <!-- Row 5: Draft Beer - OK -->
  <!-- db: pos_inventory.id = INV-BAR-001, quantity = 124 -->
  <use href="#tableRowOdd" x="201" y="322" width="1165" height="36"/>
  <use href="#gearIcon" x="204" y="332" width="10" height="10"/>
  <text x="220" y="345" font-size="12" fill="#CBD5E1">Draft Beer (keg)</text>
  <text x="400" y="345" font-size="10" fill="#94A3B8">BAR-001</text>
  <text x="488" y="345" font-size="10" fill="#94A3B8">pints</text>
  <text x="556" y="345" font-size="14" font-weight="700" fill="#22C55E">124</text>
  <text x="636" y="345" font-size="10" fill="#94A3B8">20</text>
  <text x="730" y="345" font-size="10" fill="#94A3B8">$1.20</text>
  <use href="#badgeInStock" x="794" y="330" width="58" height="18"/>
  <text x="804" y="343" font-size="9" fill="#4ADE80">In Stock</text>
  <text x="880" y="345" font-size="10" fill="#94A3B8">64</text>
  <text x="966" y="345" font-size="10" fill="#94A3B8">8.0/hr</text>
  <text x="1040" y="345" font-size="10" fill="#94A3B8">40</text>
  <text x="1126" y="345" font-size="10" fill="#94A3B8">Great Lakes</text>
  <use href="#toggleOn" x="1210" y="332" width="36" height="18"/>
  <use href="#adjustBtn" x="1270" y="332" width="70" height="18"/>
  <text x="1282" y="344" font-size="9" fill="#CBD5E1">+/- Stock</text>

  <!-- Row 6: Caesar Salad - OK -->
  <!-- db: pos_inventory.id = INV-SAL-002, quantity = 31 -->
  <use href="#tableRowEven" x="201" y="358" width="1165" height="36"/>
  <use href="#gearIcon" x="204" y="368" width="10" height="10"/>
  <text x="220" y="381" font-size="12" fill="#CBD5E1">Caesar Salad</text>
  <text x="400" y="381" font-size="10" fill="#94A3B8">SAL-002</text>
  <text x="488" y="381" font-size="10" fill="#94A3B8">portions</text>
  <text x="556" y="381" font-size="14" font-weight="700" fill="#22C55E">31</text>
  <text x="636" y="381" font-size="10" fill="#94A3B8">8</text>
  <text x="730" y="381" font-size="10" fill="#94A3B8">$2.10</text>
  <use href="#badgeInStock" x="794" y="366" width="58" height="18"/>
  <text x="804" y="379" font-size="9" fill="#4ADE80">In Stock</text>
  <text x="880" y="381" font-size="10" fill="#94A3B8">18</text>
  <text x="966" y="381" font-size="10" fill="#94A3B8">2.3/hr</text>
  <text x="1040" y="381" font-size="10" fill="#94A3B8">12</text>
  <text x="1126" y="381" font-size="10" fill="#94A3B8">Fresh Farm</text>
  <use href="#toggleOn" x="1210" y="366" width="36" height="18"/>
  <use href="#adjustBtn" x="1270" y="366" width="70" height="18"/>
  <text x="1282" y="380" font-size="9" fill="#CBD5E1">+/- Stock</text>

  <!-- ===== STOCK ADJUSTMENT PANEL (right drawer) ===== -->
  <!-- admin_path: Back Office > Inventory > Adjust Stock -->
  <!-- db: pos_inventory row + pos_inventory_events audit log -->
  <rect x="880" y="412" width="480" height="440" rx="8" fill="#1A1D2E" stroke="#F59E0B" stroke-width="1" filter="url(#cardShadow)"/>
  <text x="900" y="440" font-size="13" font-weight="700" fill="#F59E0B">Adjust Stock -- Burger Deluxe</text>
  <use href="#gearIcon" x="1100" y="428" width="14" height="14"/>
  <text x="900" y="456" font-size="10" fill="#64748B">pos_inventory.id = INV-BURG-001</text>

  <!-- Current on hand -->
  <!-- db: pos_inventory.quantity -->
  <text x="900" y="484" font-size="10" fill="#64748B">CURRENT ON HAND</text>
  <text x="900" y="512" font-size="32" font-weight="700" fill="#F59E0B">4</text>
  <text x="934" y="512" font-size="14" fill="#64748B">portions</text>

  <!-- Adjustment type -->
  <!-- db: pos_inventory_events.event_type -->
  <text x="900" y="540" font-size="10" fill="#64748B">ADJUSTMENT TYPE</text>
  <use href="#gearIcon" x="1000" y="528" width="12" height="12"/>
  <rect x="900" y="546" width="440" height="30" rx="6" fill="#0C0E1A"/>
  <use href="#adjTypeBtnActive" x="906" y="549" width="90" height="24"/>
  <text x="922" y="565" font-size="10" font-weight="600" fill="#000">Restock (+)</text>
  <use href="#adjTypeBtnInactive" x="1002" y="549" width="90" height="24"/>
  <text x="1020" y="565" font-size="10" fill="#64748B">Usage (-)</text>
  <use href="#adjTypeBtnInactive" x="1098" y="549" width="90" height="24"/>
  <text x="1116" y="565" font-size="10" fill="#64748B">Set Exact</text>
  <use href="#adjTypeBtnInactive" x="1194" y="549" width="80" height="24"/>
  <text x="1214" y="565" font-size="10" fill="#64748B">Waste</text>

  <!-- Quantity input -->
  <!-- db: pos_inventory_events.quantity -->
  <text x="900" y="596" font-size="10" fill="#64748B">QUANTITY</text>
  <use href="#formField" x="900" y="600" width="160" height="40"/>
  <text x="958" y="628" font-size="24" font-weight="700" fill="#FFFFFF">20</text>
  <text x="1072" y="628" font-size="13" fill="#64748B">--> new total: 24</text>

  <!-- Reason note -->
  <!-- db: pos_inventory_events.note -->
  <text x="900" y="660" font-size="10" fill="#64748B">REASON NOTE</text>
  <use href="#formField" x="900" y="664" width="440" height="28"/>
  <text x="912" y="683" font-size="11" fill="#CBD5E1">Delivery from Star Beef -- 20 fresh patties</text>

  <!-- Low stock threshold -->
  <!-- db: pos_inventory.threshold -->
  <text x="900" y="712" font-size="10" fill="#64748B">LOW STOCK THRESHOLD</text>
  <use href="#gearIcon" x="1030" y="700" width="12" height="12"/>
  <use href="#formField" x="900" y="716" width="160" height="26"/>
  <text x="912" y="734" font-size="11" fill="#FFFFFF">10 portions</text>
  <text x="1072" y="734" font-size="10" fill="#64748B">alert sent below this</text>

  <!-- Reorder point -->
  <!-- db: pos_inventory.reorder_point -->
  <text x="900" y="762" font-size="10" fill="#64748B">REORDER POINT</text>
  <use href="#gearIcon" x="994" y="750" width="12" height="12"/>
  <use href="#formField" x="900" y="766" width="160" height="26"/>
  <text x="912" y="784" font-size="11" fill="#FFFFFF">20 portions</text>
  <text x="1072" y="784" font-size="10" fill="#64748B">auto-notify vendor</text>

  <!-- Vendor link -->
  <!-- db: pos_inventory.vendor_id -> pos_vendors -->
  <text x="900" y="810" font-size="10" fill="#64748B">VENDOR</text>
  <use href="#gearIcon" x="940" y="798" width="12" height="12"/>
  <use href="#formField" x="900" y="814" width="200" height="26"/>
  <text x="912" y="832" font-size="11" fill="#CBD5E1">Star Beef</text>
  <text x="1092" y="832" font-size="14" fill="#64748B">&#x25BE;</text>

  <!-- Save adjustment -->
  <use href="#btnPrimary" x="900" y="848" width="160" height="34"/>
  <text x="940" y="870" font-size="13" font-weight="600" fill="#000">Save Adjustment</text>

  <!-- ===== LEFT: Workflow Integration Note ===== -->
  <!-- admin_path: Back Office > Inventory > Workflow -->
  <rect x="210" y="412" width="656" height="222" rx="8" fill="#1A1D2E" filter="url(#cardShadow)"/>
  <text x="230" y="438" font-size="13" font-weight="700" fill="#FFFFFF">Inventory Workflow Integration</text>
  <use href="#gearIcon" x="440" y="426" width="14" height="14"/>
  <text x="230" y="460" font-size="11" fill="#CBD5E1">1. Auto-depletion: Each order line deducts from pos_inventory.quantity</text>
  <text x="230" y="478" font-size="11" fill="#CBD5E1">2. Low-stock alert: Push notification to manager iPad + SMS when qty &lt;= threshold</text>
  <text x="230" y="496" font-size="11" fill="#CBD5E1">3. Auto-86: quantity = 0 --> item grayed on register, hidden on online menu</text>
  <text x="230" y="514" font-size="11" fill="#CBD5E1">4. KDS note: Low-stock items show "LOW STOCK" badge on KDS ticket</text>
  <text x="230" y="532" font-size="11" fill="#CBD5E1">5. Restock: Barcode scanner scan delivery label --> pre-fills item + batch qty</text>
  <text x="230" y="550" font-size="11" fill="#CBD5E1">6. Reports: Daily depletion report, waste log, COGS estimation per category</text>
  <text x="230" y="572" font-size="10" fill="#64748B">DB: pos_inventory (current stock) + pos_inventory_events (full audit log)</text>
  <text x="230" y="588" font-size="10" fill="#64748B">Vendor: pos_vendors (id, name, contact, lead_time_days)</text>
  <text x="230" y="604" font-size="10" fill="#F59E0B">No hardcodes -- all thresholds, units, reorder points, vendor links from DB per item</text>

  <!-- ===== COST SUMMARY CARD ===== -->
  <!-- db: pos_inventory aggregate stats -->
  <rect x="210" y="648" width="656" height="80" rx="8" fill="#1A1D2E" filter="url(#cardShadow)"/>
  <text x="230" y="672" font-size="12" font-weight="600" fill="#FFFFFF">Cost Summary</text>
  <use href="#gearIcon" x="330" y="660" width="12" height="12"/>

  <text x="230" y="696" font-size="10" fill="#64748B">Total inventory value:</text>
  <text x="360" y="696" font-size="12" font-weight="700" fill="#22C55E">$4,280.50</text>
  <text x="490" y="696" font-size="10" fill="#64748B">COGS today:</text>
  <text x="570" y="696" font-size="12" font-weight="700" fill="#F59E0B">$1,842.00</text>

  <text x="230" y="718" font-size="10" fill="#64748B">Items tracked: 48 | Below threshold: 3 | 86'd: 2 | Vendors: 12</text>

  <!-- Footer -->
  <text x="683" y="1010" font-size="10" text-anchor="middle" fill="#2A2E45">Synalux POS | Inventory | pos_inventory -- auto-depletion | low-stock alerts | auto-86 | vendor links -- no hardcodes</text>
</svg>