<svg role="img" aria-labelledby="title-settings_integrations-svg" xmlns="http://www.w3.org/2000/svg" viewBox="0 0 1366 1024"
     font-family="-apple-system,BlinkMacSystemFont,'SF Pro Display','Segoe UI',sans-serif">

  <!-- ============================================================ -->
  <!--  DEFS: Reusable symbols, gradients, filters                 -->
  <!-- ============================================================ -->
  <title id="title-settings_integrations-svg">Synalux POS — integrations</title>
  <desc>Synalux POS mockup screen for integrations. All UI elements admin-configurable.</desc>
  <defs>
    <filter id="cardShadow" x="-4%" y="-4%" width="108%" height="112%">
      <feDropShadow dx="0" dy="2" stdDeviation="4" flood-color="#000" flood-opacity="0.35"/>
    </filter>

    <linearGradient id="amberBtnGrad" x1="0" y1="0" x2="0" y2="1">
      <stop offset="0%" stop-color="#FBBF24"/>
      <stop offset="100%" stop-color="#F59E0B"/>
    </linearGradient>

    <!-- ── Symbol: Gear icon (admin-configurability) ── -->
    <symbol id="gearIcon" viewBox="0 0 16 16">
      <path d="M8 5.5a2.5 2.5 0 100 5 2.5 2.5 0 000-5zM6.5 8a1.5 1.5 0 113 0 1.5 1.5 0 01-3 0z" fill="currentColor"/>
      <path d="M9.405 1.05c-.413-1.4-2.397-1.4-2.81 0l-.1.34a1.464 1.464 0 01-2.105.872l-.31-.17c-1.283-.698-2.686.705-1.987 1.987l.169.311c.446.82.023 1.841-.872 2.105l-.34.1c-1.4.413-1.4 2.397 0 2.81l.34.1a1.464 1.464 0 01.872 2.105l-.17.31c-.698 1.283.705 2.686 1.987 1.987l.311-.169a1.464 1.464 0 012.105.872l.1.34c.413 1.4 2.397 1.4 2.81 0l.1-.34a1.464 1.464 0 012.105-.872l.31.17c1.283.698 2.686-.705 1.987-1.987l-.169-.311a1.464 1.464 0 01.872-2.105l.34-.1c1.4-.413 1.4-2.397 0-2.81l-.34-.1a1.464 1.464 0 01-.872-2.105l.17-.31c.698-1.283-.705-2.686-1.987-1.987l-.311.169a1.464 1.464 0 01-2.105-.872l-.1-.34z" fill="currentColor"/>
    </symbol>

    <!-- ── Symbol: Nav item active ── -->
    <symbol id="navItemActive" viewBox="0 0 200 36">
      <rect width="200" height="36" fill="#1E2235" rx="4"/>
      <rect width="3" height="36" fill="#F59E0B"/>
    </symbol>

    <!-- ── Symbol: Toggle ON ── -->
    <symbol id="toggleOn" viewBox="0 0 36 20">
      <rect width="36" height="20" rx="10" fill="#22C55E"/>
      <circle cx="26" cy="10" r="8" fill="#FFFFFF"/>
    </symbol>

    <!-- ── Symbol: Toggle OFF ── -->
    <symbol id="toggleOff" viewBox="0 0 36 20">
      <rect width="36" height="20" rx="10" fill="#2A2E45"/>
      <circle cx="10" cy="10" r="8" fill="#64748B"/>
    </symbol>

    <!-- ── Symbol: Integration card (connected) ── -->
    <symbol id="intCardConnected" viewBox="0 0 196 140">
      <rect width="196" height="140" rx="8" fill="#161930" filter="url(#cardShadow)"/>
      <rect width="196" height="140" rx="8" fill="none" stroke="#22C55E" stroke-width="1"/>
    </symbol>

    <!-- ── Symbol: Integration card (not connected) ── -->
    <symbol id="intCardDisconnected" viewBox="0 0 196 140">
      <rect width="196" height="140" rx="8" fill="#161930" filter="url(#cardShadow)"/>
      <rect width="196" height="140" rx="8" fill="none" stroke="#1E2235" stroke-width="1"/>
    </symbol>

    <!-- ── Symbol: Status dot (connected) ── -->
    <symbol id="statusDotOn" viewBox="0 0 10 10">
      <circle cx="5" cy="5" r="5" fill="#22C55E"/>
    </symbol>

    <!-- ── Symbol: Status dot (off) ── -->
    <symbol id="statusDotOff" viewBox="0 0 10 10">
      <circle cx="5" cy="5" r="5" fill="#475569"/>
    </symbol>

    <!-- ── Symbol: Manage button ── -->
    <symbol id="manageBtn" viewBox="0 0 72 24">
      <rect width="72" height="24" rx="5" fill="#161930" stroke="#F59E0B" stroke-width="1"/>
    </symbol>

    <!-- ── Symbol: Connect button ── -->
    <symbol id="connectBtn" viewBox="0 0 72 24">
      <rect width="72" height="24" rx="5" fill="url(#amberBtnGrad)"/>
    </symbol>

    <!-- ── Symbol: Filter tab (inactive) ── -->
    <symbol id="filterTabInactive" viewBox="0 0 80 24">
      <rect width="80" height="24" rx="5" fill="none" stroke="#1E2235" stroke-width="1"/>
    </symbol>

    <!-- ── Symbol: Activity log row ── -->
    <symbol id="logRow" viewBox="0 0 290 24">
      <rect width="290" height="24" rx="4" fill="#1A1D2E"/>
    </symbol>
  </defs>

  <!-- ============================================================ -->
  <!--  BACKGROUND                                                  -->
  <!-- ============================================================ -->
  <rect width="1366" height="1024" fill="#0C0E1A"/>

  <!-- ============================================================ -->
  <!--  LEFT SETTINGS NAV SIDEBAR                                   -->
  <!-- ============================================================ -->
  <rect x="0" y="0" width="200" height="1024" fill="#161930"/>
  <rect x="200" y="0" width="1" height="1024" fill="#1E2235"/>

  <text x="16" y="30" font-size="13" font-weight="700" fill="#F59E0B">Settings</text>
  <text x="16" y="67" font-size="12" fill="#94A3B8">Restaurant Info</text>
  <text x="16" y="103" font-size="12" fill="#94A3B8">Menu Builder</text>
  <text x="16" y="139" font-size="12" fill="#94A3B8">Taxes</text>
  <text x="16" y="175" font-size="12" fill="#94A3B8">Employees</text>
  <text x="16" y="211" font-size="12" fill="#94A3B8">Equipment</text>
  <text x="16" y="247" font-size="12" fill="#94A3B8">Payments</text>
  <text x="16" y="283" font-size="12" fill="#94A3B8">Loyalty</text>
  <text x="16" y="319" font-size="12" fill="#94A3B8">Reports</text>
  <text x="16" y="355" font-size="12" fill="#94A3B8">Revenue Centers</text>

  <!-- Active: Integrations -->
  <use href="#navItemActive" x="0" y="368" width="200" height="36"/>
  <text x="16" y="391" font-size="12" font-weight="600" fill="#F59E0B">Integrations</text>

  <text x="16" y="427" font-size="12" fill="#94A3B8">Inventory</text>
  <text x="16" y="463" font-size="12" fill="#94A3B8">Floor Plans</text>

  <!-- ============================================================ -->
  <!--  TOP HEADER BAR                                              -->
  <!-- ============================================================ -->
  <rect x="201" y="0" width="1165" height="56" fill="#1A1D2E"/>
  <rect x="201" y="56" width="1165" height="1" fill="#1E2235"/>

  <text x="220" y="28" font-size="18" font-weight="700" fill="#FFFFFF">Integrations</text>
  <text x="220" y="48" font-size="11" fill="#94A3B8">Connect your tools. All data flows through Synalux -- no double-entry.</text>
  <use href="#gearIcon" x="560" y="36" width="14" height="14" color="#94A3B8"/>

  <!-- ============================================================ -->
  <!--  FILTER TABS                                                 -->
  <!--  DB: pos_integrations (status, category filtering)           -->
  <!-- ============================================================ -->
  <rect x="201" y="57" width="1165" height="40" fill="#1A1D2E" stroke="#1E2235" stroke-width="1"/>

  <!-- All tab (active) -->
  <rect x="212" y="67" width="36" height="22" rx="5" fill="url(#amberBtnGrad)"/>
  <text x="220" y="83" font-size="11" font-weight="600" fill="#000">All</text>

  <!-- Connected -->
  <rect x="256" y="67" width="96" height="22" rx="5" fill="#161930" stroke="#1E2235" stroke-width="1"/>
  <text x="266" y="83" font-size="10" fill="#94A3B8">Connected</text>
  <rect x="330" y="71" width="16" height="14" rx="7" fill="#22C55E"/>
  <text x="334" y="82" font-size="8" font-weight="700" fill="#FFF">6</text>

  <!-- Available -->
  <use href="#filterTabInactive" x="360" y="67" width="66" height="22"/>
  <text x="372" y="83" font-size="10" fill="#475569">Available</text>

  <!-- Delivery -->
  <use href="#filterTabInactive" x="434" y="67" width="60" height="22"/>
  <text x="446" y="83" font-size="10" fill="#475569">Delivery</text>

  <!-- Accounting -->
  <use href="#filterTabInactive" x="502" y="67" width="78" height="22"/>
  <text x="514" y="83" font-size="10" fill="#475569">Accounting</text>

  <!-- Communication -->
  <use href="#filterTabInactive" x="588" y="67" width="104" height="22"/>
  <text x="600" y="83" font-size="10" fill="#475569">Communication</text>

  <!-- ============================================================ -->
  <!--  INTEGRATION CARDS GRID                                      -->
  <!--  DB: pos_integrations (provider, status, api_key, config)    -->
  <!-- ============================================================ -->

  <!-- ── ROW 1: DELIVERY & ONLINE ORDERING ── -->
  <!-- pos_integrations WHERE category='delivery' -->
  <text x="212" y="118" font-size="10" font-weight="600" fill="#475569" letter-spacing="1">DELIVERY &amp; ONLINE ORDERING</text>
  <use href="#gearIcon" x="384" y="106" width="12" height="12" color="#475569"/>

  <!-- DoorDash Drive (CONNECTED) -->
  <!-- pos_integrations: provider='doordash', status='connected' -->
  <use href="#intCardConnected" x="204" y="126" width="196" height="140"/>
  <circle cx="228" cy="154" r="18" fill="#CC0000"/>
  <text x="218" y="159" font-size="11" font-weight="700" fill="#FFF">DD</text>
  <use href="#statusDotOn" x="247" y="141" width="10" height="10"/>
  <text x="262" y="149" font-size="12" font-weight="700" fill="#FFFFFF">DoorDash Drive</text>
  <text x="262" y="163" font-size="9" fill="#22C55E">Connected</text>
  <use href="#gearIcon" x="378" y="142" width="12" height="12" color="#475569"/>
  <text x="212" y="183" font-size="9" fill="#94A3B8">Menu synced -- Orders flowing</text>
  <text x="212" y="196" font-size="9" fill="#94A3B8">142 orders today</text>
  <text x="212" y="208" font-size="8" fill="#475569">source='doordash'</text>
  <!-- pos_integrations.api_key (masked) -->
  <text x="212" y="220" font-size="8" fill="#475569">Key: ****-ABCD</text>
  <use href="#manageBtn" x="212" y="230" width="72" height="24"/>
  <text x="228" y="246" font-size="10" font-weight="600" fill="#F59E0B">Manage</text>

  <!-- Uber Eats (CONNECTED) -->
  <!-- pos_integrations: provider='ubereats', status='connected' -->
  <use href="#intCardConnected" x="410" y="126" width="196" height="140"/>
  <circle cx="434" cy="154" r="18" fill="#000"/>
  <text x="423" y="159" font-size="11" font-weight="700" fill="#06C167">UE</text>
  <use href="#statusDotOn" x="453" y="141" width="10" height="10"/>
  <text x="468" y="149" font-size="12" font-weight="700" fill="#FFFFFF">Uber Eats</text>
  <text x="468" y="163" font-size="9" fill="#22C55E">Connected</text>
  <use href="#gearIcon" x="584" y="142" width="12" height="12" color="#475569"/>
  <text x="418" y="183" font-size="9" fill="#94A3B8">Menu synced -- Orders flowing</text>
  <text x="418" y="196" font-size="9" fill="#94A3B8">89 orders today</text>
  <text x="418" y="208" font-size="8" fill="#475569">source='ubereats'</text>
  <text x="418" y="220" font-size="8" fill="#475569">Key: ****-WXYZ</text>
  <use href="#manageBtn" x="418" y="230" width="72" height="24"/>
  <text x="434" y="246" font-size="10" font-weight="600" fill="#F59E0B">Manage</text>

  <!-- Grubhub (NOT CONNECTED) -->
  <!-- pos_integrations: provider='grubhub', status='available' -->
  <use href="#intCardDisconnected" x="616" y="126" width="196" height="140"/>
  <circle cx="640" cy="154" r="18" fill="#F63440"/>
  <text x="629" y="159" font-size="11" font-weight="700" fill="#FFF">GH</text>
  <use href="#statusDotOff" x="659" y="141" width="10" height="10"/>
  <text x="674" y="149" font-size="12" font-weight="700" fill="#FFFFFF">Grubhub</text>
  <text x="674" y="163" font-size="9" fill="#475569">Not Connected</text>
  <text x="624" y="183" font-size="9" fill="#475569">Order injection + menu push</text>
  <text x="624" y="196" font-size="9" fill="#475569">Real-time order sync</text>
  <use href="#connectBtn" x="624" y="230" width="72" height="24"/>
  <text x="640" y="246" font-size="10" font-weight="600" fill="#000">Connect</text>

  <!-- ── ROW 2: ACCOUNTING ── -->
  <!-- pos_integrations WHERE category='accounting' -->
  <text x="212" y="288" font-size="10" font-weight="600" fill="#475569" letter-spacing="1">ACCOUNTING</text>
  <use href="#gearIcon" x="298" y="276" width="12" height="12" color="#475569"/>

  <!-- QuickBooks Online (CONNECTED) -->
  <!-- pos_integrations: provider='quickbooks', status='connected', sync_schedule='daily' -->
  <use href="#intCardConnected" x="204" y="296" width="196" height="140"/>
  <circle cx="228" cy="324" r="18" fill="#2CA01C"/>
  <text x="217" y="329" font-size="11" font-weight="700" fill="#FFF">QB</text>
  <use href="#statusDotOn" x="247" y="311" width="10" height="10"/>
  <text x="262" y="319" font-size="11" font-weight="700" fill="#FFFFFF">QuickBooks Online</text>
  <text x="262" y="333" font-size="9" fill="#22C55E">Connected</text>
  <use href="#gearIcon" x="378" y="312" width="12" height="12" color="#475569"/>
  <text x="212" y="353" font-size="9" fill="#94A3B8">Daily sync enabled</text>
  <text x="212" y="366" font-size="9" fill="#94A3B8">Last sync: 6:00 PM</text>
  <text x="212" y="378" font-size="8" fill="#475569">Key: ****-QBOK</text>
  <use href="#manageBtn" x="212" y="396" width="72" height="24"/>
  <text x="228" y="412" font-size="10" font-weight="600" fill="#F59E0B">Manage</text>

  <!-- Xero (NOT CONNECTED) -->
  <use href="#intCardDisconnected" x="410" y="296" width="196" height="140"/>
  <circle cx="434" cy="324" r="18" fill="#1AB4D7"/>
  <text x="422" y="329" font-size="12" font-weight="700" fill="#FFF">XE</text>
  <use href="#statusDotOff" x="453" y="311" width="10" height="10"/>
  <text x="468" y="319" font-size="12" font-weight="700" fill="#FFFFFF">Xero</text>
  <text x="468" y="333" font-size="9" fill="#475569">Not Connected</text>
  <text x="418" y="353" font-size="9" fill="#475569">Cloud accounting</text>
  <text x="418" y="366" font-size="9" fill="#475569">Daily P&amp;L export</text>
  <use href="#connectBtn" x="418" y="396" width="72" height="24"/>
  <text x="434" y="412" font-size="10" font-weight="600" fill="#000">Connect</text>

  <!-- ── ROW 3: COMMUNICATION ── -->
  <!-- pos_integrations WHERE category='communication' -->
  <text x="212" y="458" font-size="10" font-weight="600" fill="#475569" letter-spacing="1">COMMUNICATION</text>
  <use href="#gearIcon" x="336" y="446" width="12" height="12" color="#475569"/>

  <!-- Stripe Terminal (CONNECTED) -->
  <!-- pos_integrations: provider='stripe', status='connected', api_key -->
  <use href="#intCardConnected" x="204" y="466" width="196" height="140"/>
  <circle cx="228" cy="494" r="18" fill="#635BFF"/>
  <text x="218" y="499" font-size="11" font-weight="700" fill="#FFF">ST</text>
  <use href="#statusDotOn" x="247" y="481" width="10" height="10"/>
  <text x="262" y="489" font-size="11" font-weight="700" fill="#FFFFFF">Stripe Terminal</text>
  <text x="262" y="503" font-size="9" fill="#22C55E">Connected</text>
  <use href="#gearIcon" x="378" y="482" width="12" height="12" color="#F59E0B"/>
  <text x="212" y="523" font-size="9" fill="#94A3B8">2 readers online</text>
  <text x="212" y="536" font-size="9" fill="#94A3B8">Processing active</text>
  <text x="212" y="548" font-size="8" fill="#475569">pk_live: ****-STRP</text>
  <!-- pos_integrations.api_key, api_secret -->
  <text x="212" y="560" font-size="8" fill="#475569">Webhook: configured</text>
  <use href="#manageBtn" x="212" y="570" width="72" height="24"/>
  <text x="228" y="586" font-size="10" font-weight="600" fill="#F59E0B">Manage</text>

  <!-- Twilio (CONNECTED) -->
  <!-- pos_integrations: provider='twilio', status='connected' -->
  <use href="#intCardConnected" x="410" y="466" width="196" height="140"/>
  <circle cx="434" cy="494" r="18" fill="#F22F46"/>
  <text x="424" y="499" font-size="11" font-weight="700" fill="#FFF">TW</text>
  <use href="#statusDotOn" x="453" y="481" width="10" height="10"/>
  <text x="468" y="489" font-size="12" font-weight="700" fill="#FFFFFF">Twilio</text>
  <text x="468" y="503" font-size="9" fill="#22C55E">Connected</text>
  <use href="#gearIcon" x="584" y="482" width="12" height="12" color="#F59E0B"/>
  <text x="418" y="523" font-size="9" fill="#94A3B8">SMS receipts -- SMS loyalty</text>
  <text x="418" y="536" font-size="9" fill="#94A3B8">Voice ordering enabled</text>
  <text x="418" y="548" font-size="8" fill="#475569">SID: ****-TWIL</text>
  <text x="418" y="560" font-size="8" fill="#475569">Phone: +1 (212) 555-0199</text>
  <use href="#manageBtn" x="418" y="570" width="72" height="24"/>
  <text x="434" y="586" font-size="10" font-weight="600" fill="#F59E0B">Manage</text>

  <!-- SendGrid (CONNECTED) -->
  <!-- pos_integrations: provider='sendgrid', status='connected' -->
  <use href="#intCardConnected" x="616" y="466" width="196" height="140"/>
  <circle cx="640" cy="494" r="18" fill="#1A82E2"/>
  <text x="628" y="499" font-size="11" font-weight="700" fill="#FFF">SG</text>
  <use href="#statusDotOn" x="659" y="481" width="10" height="10"/>
  <text x="674" y="489" font-size="12" font-weight="700" fill="#FFFFFF">SendGrid</text>
  <text x="674" y="503" font-size="9" fill="#22C55E">Connected</text>
  <use href="#gearIcon" x="790" y="482" width="12" height="12" color="#F59E0B"/>
  <text x="624" y="523" font-size="9" fill="#94A3B8">Email receipts -- Marketing</text>
  <text x="624" y="536" font-size="9" fill="#94A3B8">Transactional + campaigns</text>
  <text x="624" y="548" font-size="8" fill="#475569">Key: SG.****-SEND</text>
  <use href="#manageBtn" x="624" y="570" width="72" height="24"/>
  <text x="640" y="586" font-size="10" font-weight="600" fill="#F59E0B">Manage</text>

  <!-- ── ROW 4: PAYROLL & HR ── -->
  <text x="212" y="628" font-size="10" font-weight="600" fill="#475569" letter-spacing="1">PAYROLL &amp; HR</text>

  <!-- Gusto (CONNECTED) -->
  <use href="#intCardConnected" x="204" y="636" width="196" height="140"/>
  <circle cx="228" cy="664" r="18" fill="#F45D48"/>
  <text x="217" y="669" font-size="12" font-weight="700" fill="#FFF">GU</text>
  <use href="#statusDotOn" x="247" y="651" width="10" height="10"/>
  <text x="262" y="659" font-size="12" font-weight="700" fill="#FFFFFF">Gusto</text>
  <text x="262" y="673" font-size="9" fill="#22C55E">Connected</text>
  <use href="#gearIcon" x="378" y="652" width="12" height="12" color="#475569"/>
  <text x="212" y="693" font-size="9" fill="#94A3B8">Timeclock exports to payroll</text>
  <text x="212" y="706" font-size="9" fill="#94A3B8">Next payroll: Jun 1</text>
  <use href="#manageBtn" x="212" y="730" width="72" height="24"/>
  <text x="228" y="746" font-size="10" font-weight="600" fill="#F59E0B">Manage</text>

  <!-- ADP (NOT CONNECTED) -->
  <use href="#intCardDisconnected" x="410" y="636" width="196" height="140"/>
  <circle cx="434" cy="664" r="18" fill="#CC0000"/>
  <text x="422" y="669" font-size="12" font-weight="700" fill="#FFF">ADP</text>
  <use href="#statusDotOff" x="453" y="651" width="10" height="10"/>
  <text x="468" y="659" font-size="11" font-weight="700" fill="#FFFFFF">ADP Workforce</text>
  <text x="468" y="673" font-size="9" fill="#475569">Not Connected</text>
  <text x="418" y="693" font-size="9" fill="#475569">Enterprise HR + payroll</text>
  <text x="418" y="706" font-size="9" fill="#475569">Timeclock export</text>
  <use href="#connectBtn" x="418" y="730" width="72" height="24"/>
  <text x="434" y="746" font-size="10" font-weight="600" fill="#000">Connect</text>

  <!-- ── ROW 5: OTHER ── -->
  <text x="212" y="798" font-size="10" font-weight="600" fill="#475569" letter-spacing="1">OTHER</text>

  <!-- Apple Pay / Google Pay (CONNECTED via Stripe) -->
  <use href="#intCardConnected" x="204" y="806" width="196" height="100"/>
  <circle cx="228" cy="832" r="14" fill="#1C1C1E"/>
  <text x="219" y="837" font-size="9" font-weight="700" fill="#FFF">Pay</text>
  <use href="#statusDotOn" x="247" y="822" width="10" height="10"/>
  <text x="262" y="829" font-size="10" font-weight="700" fill="#FFFFFF">Apple / Google Pay</text>
  <text x="262" y="841" font-size="9" fill="#22C55E">Active</text>
  <text x="212" y="858" font-size="9" fill="#94A3B8">via Stripe Terminal</text>
  <use href="#manageBtn" x="212" y="872" width="72" height="24"/>
  <text x="228" y="888" font-size="10" font-weight="600" fill="#F59E0B">Manage</text>

  <!-- Google Analytics (SETUP NEEDED) -->
  <rect x="410" y="806" width="196" height="100" rx="8" fill="#161930" filter="url(#cardShadow)"/>
  <rect x="410" y="806" width="196" height="100" rx="8" fill="none" stroke="#F59E0B" stroke-width="1"/>
  <circle cx="434" cy="832" r="14" fill="#E37400"/>
  <text x="424" y="837" font-size="10" font-weight="700" fill="#FFF">GA</text>
  <rect x="453" y="822" width="10" height="10" fill="none"/>
  <circle cx="458" cy="822" r="5" fill="#F59E0B"/>
  <text x="468" y="829" font-size="10" font-weight="700" fill="#FFFFFF">Google Analytics</text>
  <text x="468" y="841" font-size="9" fill="#F59E0B">Setup Needed</text>
  <text x="418" y="858" font-size="9" fill="#475569">Online menu tracking</text>
  <rect x="418" y="870" width="84" height="22" rx="4" fill="url(#amberBtnGrad)"/>
  <text x="426" y="885" font-size="9" font-weight="600" fill="#000">Finish Setup</text>

  <!-- ============================================================ -->
  <!--  DETAIL PANEL: Selected Integration (DoorDash)               -->
  <!--  DB: pos_integrations WHERE provider='doordash'               -->
  <!-- ============================================================ -->
  <rect x="1042" y="57" width="324" height="967" rx="0" fill="#161930" stroke="#1E2235" stroke-width="1"/>

  <!-- Panel header -->
  <rect x="1042" y="57" width="324" height="50" fill="#1A1D2E" stroke="#1E2235" stroke-width="1"/>
  <text x="1060" y="82" font-size="14" font-weight="700" fill="#FFFFFF">DoorDash Drive</text>
  <use href="#gearIcon" x="1186" y="70" width="14" height="14" color="#F59E0B"/>
  <rect x="1212" y="72" width="72" height="22" rx="11" fill="#052E16" stroke="#22C55E" stroke-width="1"/>
  <circle cx="1225" cy="83" r="4" fill="#22C55E"/>
  <text x="1232" y="88" font-size="10" font-weight="600" fill="#22C55E">Connected</text>

  <!-- Connection info -->
  <!-- pos_integrations: connected_at, connected_by, external_store_id -->
  <text x="1060" y="126" font-size="10" font-weight="600" fill="#475569">CONNECTED</text>
  <text x="1060" y="142" font-size="11" fill="#94A3B8">May 1, 2026 by Dmitri</text>
  <text x="1060" y="157" font-size="10" font-weight="600" fill="#475569">STORE ID</text>
  <use href="#gearIcon" x="1120" y="145" width="12" height="12" color="#475569"/>
  <text x="1060" y="172" font-size="11" fill="#FFFFFF" font-family="monospace">DD-9284-SYNALUX</text>

  <line x1="1060" y1="184" x2="1352" y2="184" stroke="#1E2235" stroke-width="1"/>

  <!-- API Key section -->
  <!-- pos_integrations.api_key -->
  <text x="1060" y="202" font-size="10" font-weight="600" fill="#475569">API KEY</text>
  <use href="#gearIcon" x="1112" y="190" width="12" height="12" color="#F59E0B"/>
  <rect x="1060" y="208" width="292" height="26" rx="4" fill="#0C0E1A" stroke="#1E2235" stroke-width="1"/>
  <text x="1072" y="226" font-size="11" fill="#FFFFFF">****-****-****-ABCD</text>
  <text x="1340" y="226" font-size="10" fill="#60A5FA" text-anchor="end">Reveal</text>

  <line x1="1060" y1="244" x2="1352" y2="244" stroke="#1E2235" stroke-width="1"/>

  <!-- Menu sync -->
  <text x="1060" y="262" font-size="11" font-weight="700" fill="#FFFFFF">Menu Sync</text>
  <use href="#gearIcon" x="1140" y="250" width="12" height="12" color="#475569"/>
  <text x="1060" y="278" font-size="10" fill="#94A3B8">Auto-sync every 15 min</text>
  <rect x="1274" y="264" width="68" height="22" rx="5" fill="#1A1D2E" stroke="#F59E0B" stroke-width="1"/>
  <text x="1286" y="279" font-size="9" font-weight="600" fill="#F59E0B">Sync Now</text>
  <text x="1060" y="296" font-size="10" fill="#475569">Last: 6:47 PM -- 48 items synced</text>

  <line x1="1060" y1="308" x2="1352" y2="308" stroke="#1E2235" stroke-width="1"/>

  <!-- Orders stats -->
  <text x="1060" y="326" font-size="11" font-weight="700" fill="#FFFFFF">Orders</text>
  <rect x="1060" y="334" width="130" height="44" rx="6" fill="#1A1D2E"/>
  <text x="1078" y="354" font-size="18" font-weight="700" fill="#FFFFFF">142</text>
  <text x="1078" y="370" font-size="9" fill="#475569">today</text>
  <rect x="1200" y="334" width="150" height="44" rx="6" fill="#1A1D2E"/>
  <text x="1218" y="354" font-size="18" font-weight="700" fill="#FFFFFF">3,847</text>
  <text x="1218" y="370" font-size="9" fill="#475569">this month</text>

  <line x1="1060" y1="390" x2="1352" y2="390" stroke="#1E2235" stroke-width="1"/>

  <!-- Settings toggles -->
  <text x="1060" y="408" font-size="11" font-weight="700" fill="#FFFFFF">Settings</text>
  <use href="#gearIcon" x="1120" y="396" width="12" height="12" color="#F59E0B"/>

  <!-- Toggle: Auto-markup -->
  <!-- pos_integrations.config.auto_markup_pct -->
  <rect x="1060" y="416" width="292" height="40" rx="6" fill="#1A1D2E"/>
  <text x="1072" y="432" font-size="10" font-weight="600" fill="#FFFFFF">Auto-markup prices by 15%</text>
  <text x="1072" y="448" font-size="9" fill="#475569">Offsets commission</text>
  <use href="#toggleOn" x="1310" y="424" width="36" height="20"/>

  <!-- Toggle: Auto-hide 86'd -->
  <!-- pos_integrations.config.auto_hide_86 -->
  <rect x="1060" y="462" width="292" height="40" rx="6" fill="#1A1D2E"/>
  <text x="1072" y="478" font-size="10" font-weight="600" fill="#FFFFFF">86'd items auto-hidden</text>
  <text x="1072" y="494" font-size="9" fill="#475569">Unavailable items removed</text>
  <use href="#toggleOn" x="1310" y="470" width="36" height="20"/>

  <!-- Toggle: Accept mode -->
  <!-- pos_integrations.config.accept_mode -->
  <rect x="1060" y="508" width="292" height="40" rx="6" fill="#1A1D2E"/>
  <text x="1072" y="524" font-size="10" font-weight="600" fill="#FFFFFF">Accept Mode</text>
  <rect x="1210" y="516" width="56" height="18" rx="5" fill="#22C55E"/>
  <text x="1222" y="530" font-size="9" font-weight="700" fill="#FFF">Auto</text>
  <rect x="1272" y="516" width="70" height="18" rx="5" fill="#1E2235" stroke="#1E2235" stroke-width="1"/>
  <text x="1282" y="530" font-size="9" fill="#475569">Manual</text>

  <!-- Toggle: Tablet-free -->
  <rect x="1060" y="554" width="292" height="40" rx="6" fill="#1A1D2E"/>
  <text x="1072" y="570" font-size="10" font-weight="600" fill="#FFFFFF">Tablet-free: Direct to KDS</text>
  <text x="1072" y="586" font-size="9" fill="#475569">No separate tablet needed</text>
  <use href="#toggleOn" x="1310" y="562" width="36" height="20"/>

  <line x1="1060" y1="604" x2="1352" y2="604" stroke="#1E2235" stroke-width="1"/>

  <!-- Recent Activity -->
  <text x="1060" y="622" font-size="11" font-weight="700" fill="#FFFFFF">Recent Activity</text>

  <use href="#logRow" x="1060" y="630" width="290" height="24"/>
  <use href="#statusDotOn" x="1067" y="637" width="10" height="10"/>
  <text x="1082" y="646" font-size="9" fill="#94A3B8">6:47 PM</text>
  <text x="1120" y="646" font-size="9" fill="#FFFFFF">Menu sync success -- 48 items</text>

  <use href="#logRow" x="1060" y="658" width="290" height="24"/>
  <use href="#statusDotOn" x="1067" y="665" width="10" height="10"/>
  <text x="1082" y="674" font-size="9" fill="#94A3B8">5:32 PM</text>
  <text x="1120" y="674" font-size="9" fill="#FFFFFF">Order #4421 injected to KDS</text>

  <use href="#logRow" x="1060" y="686" width="290" height="24"/>
  <use href="#statusDotOn" x="1067" y="693" width="10" height="10"/>
  <text x="1082" y="702" font-size="9" fill="#94A3B8">4:15 PM</text>
  <text x="1120" y="702" font-size="9" fill="#FFFFFF">Order #4418 auto-accepted</text>

  <line x1="1060" y1="720" x2="1352" y2="720" stroke="#1E2235" stroke-width="1"/>

  <!-- Disconnect -->
  <text x="1207" y="744" font-size="11" font-weight="600" fill="#EF4444" text-anchor="middle">Disconnect Integration</text>

  <line x1="1060" y1="756" x2="1352" y2="756" stroke="#1E2235" stroke-width="1"/>

  <!-- Workflow Integration box -->
  <rect x="1060" y="766" width="292" height="140" rx="6" fill="#1A1D2E" stroke="#F59E0B" stroke-width="1.5"/>
  <text x="1072" y="784" font-size="10" font-weight="700" fill="#F59E0B">Workflow Integration</text>
  <text x="1072" y="800" font-size="9" fill="#94A3B8">Delivery orders -> pos_orders</text>
  <text x="1072" y="814" font-size="9" fill="#94A3B8">(source='doordash'|'ubereats')</text>
  <text x="1072" y="828" font-size="9" fill="#94A3B8">-> same KDS queue as dine-in</text>
  <text x="1072" y="842" font-size="9" fill="#94A3B8">-> same inventory depletion</text>
  <text x="1072" y="856" font-size="9" fill="#94A3B8">-> same reports</text>
  <text x="1072" y="872" font-size="9" fill="#475569">Menu changes push to all channels</text>
  <text x="1072" y="886" font-size="9" fill="#475569">QuickBooks sync via Edge Fn @ 2am</text>
  <text x="1072" y="900" font-size="9" fill="#475569">No separate tablet needed</text>

  <!-- Integration summary strip -->
  <rect x="1042" y="930" width="324" height="60" fill="#1A1D2E" stroke="#1E2235" stroke-width="1"/>
  <text x="1060" y="952" font-size="10" font-weight="600" fill="#475569">INTEGRATION SUMMARY</text>
  <text x="1060" y="970" font-size="10" fill="#22C55E">6 Connected</text>
  <text x="1140" y="970" font-size="10" fill="#F59E0B">1 Setup Needed</text>
  <text x="1060" y="984" font-size="9" fill="#475569">All data in Supabase -- Zero external POS tablets</text>

</svg>