<svg role="img" aria-labelledby="title-settings_multi_location-svg" xmlns="http://www.w3.org/2000/svg" xmlns:xlink="http://www.w3.org/1999/xlink"
     viewBox="0 0 1366 1024" font-family="-apple-system,system-ui,BlinkMacSystemFont,'Segoe UI',sans-serif">

  <!-- ==========================================================
       DEFS — Reusable symbols
       ========================================================== -->
  <title id="title-settings_multi_location-svg">Synalux POS — multi location</title>
  <desc>Synalux POS mockup screen for multi location. All UI elements admin-configurable.</desc>
  <defs>
    <linearGradient id="cardHeaderGrad" x1="0" y1="0" x2="1" y2="0">
      <stop offset="0%" stop-color="#1E2235"/>
      <stop offset="100%" stop-color="#1A1D2E"/>
    </linearGradient>
    <linearGradient id="amberGrad" x1="0" y1="0" x2="0" y2="1">
      <stop offset="0%" stop-color="#FBBF24"/>
      <stop offset="100%" stop-color="#F59E0B"/>
    </linearGradient>
    <filter id="cardShadow" x="-2%" y="-2%" width="104%" height="108%">
      <feDropShadow dx="0" dy="2" stdDeviation="4" flood-color="#000000" flood-opacity="0.3"/>
    </filter>

    <!-- Admin gear icon -->
    <symbol id="gearIcon" viewBox="0 0 16 16">
      <path d="M7.07 1.29A1 1 0 0 1 8.93 1.29l.47 1.06a1 1 0 0 0 .94.58l1.15-.08a1 1 0 0 1 .92 1.45l-.68.93a1 1 0 0 0 0 1.1l.68.93a1 1 0 0 1-.92 1.45l-1.15-.08a1 1 0 0 0-.94.58l-.47 1.06a1 1 0 0 1-1.86 0l-.47-1.06a1 1 0 0 0-.94-.58l-1.15.08a1 1 0 0 1-.92-1.45l.68-.93a1 1 0 0 0 0-1.1l-.68-.93A1 1 0 0 1 4.51 2.85l1.15.08a1 1 0 0 0 .94-.58z"
            fill="none" stroke="#F59E0B" stroke-width="1.2"/>
      <circle cx="8" cy="8" r="2.5" fill="none" stroke="#F59E0B" stroke-width="1.2"/>
    </symbol>

    <!-- Toggle ON -->
    <symbol id="toggleOn" viewBox="0 0 44 24">
      <rect width="44" height="24" rx="12" fill="#059669"/>
      <circle cx="32" cy="12" r="9" fill="#FFFFFF"/>
    </symbol>

    <!-- Toggle OFF -->
    <symbol id="toggleOff" viewBox="0 0 44 24">
      <rect width="44" height="24" rx="12" fill="#374151"/>
      <circle cx="12" cy="12" r="9" fill="#94A3B8"/>
    </symbol>

    <!-- Save button -->
    <symbol id="saveBtn" viewBox="0 0 140 36">
      <rect width="140" height="36" rx="6" fill="url(#amberGrad)"/>
      <text x="70" y="23" font-size="12" font-weight="700" fill="#0C0E1A" text-anchor="middle">Save Changes</text>
    </symbol>

    <!-- Dropdown arrow -->
    <symbol id="dropdown" viewBox="0 0 12 8">
      <path d="M1 1l5 5 5-5" fill="none" stroke="#64748B" stroke-width="1.5" stroke-linecap="round"/>
    </symbol>

    <!-- Online dot -->
    <symbol id="onlineDot" viewBox="0 0 12 12">
      <circle cx="6" cy="6" r="5" fill="#22C55E"/>
    </symbol>

    <!-- Location card template -->
    <symbol id="locCard" viewBox="0 0 370 76">
      <rect width="370" height="76" rx="8" fill="#1A1D2E" stroke="#2A2E45" stroke-width="1"/>
    </symbol>

    <!-- KPI card template -->
    <symbol id="kpiCard" viewBox="0 0 220 72">
      <rect width="220" height="72" rx="8" fill="#1A1D2E" stroke="#2A2E45" stroke-width="1"/>
    </symbol>
  </defs>

  <!-- ==========================================================
       BACKGROUND
       ========================================================== -->
  <rect width="1366" height="1024" fill="#0C0E1A"/>

  <!-- ==========================================================
       LEFT NAV SIDEBAR — x=0, w=200
       ========================================================== -->
  <rect x="0" y="0" width="200" height="1024" fill="#161930"/>
  <rect x="12" y="12" width="28" height="28" rx="6" fill="#F59E0B"/>
  <text x="18" y="31" font-size="14" font-weight="800" fill="#0C0E1A">S</text>
  <text x="48" y="32" font-size="14" font-weight="700" fill="#E2E8F0">Synalux POS</text>
  <line x1="12" y1="48" x2="188" y2="48" stroke="#2A2E45" stroke-width="1"/>

  <text x="16" y="72" font-size="12" fill="#94A3B8">Restaurant Info</text>
  <text x="16" y="100" font-size="12" fill="#94A3B8">Menu Builder</text>
  <text x="16" y="128" font-size="12" fill="#94A3B8">Taxes</text>
  <text x="16" y="156" font-size="12" fill="#94A3B8">Employees</text>
  <text x="16" y="184" font-size="12" fill="#94A3B8">Equipment</text>
  <text x="16" y="212" font-size="12" fill="#94A3B8">Payments</text>
  <text x="16" y="240" font-size="12" fill="#94A3B8">Inventory</text>
  <text x="16" y="268" font-size="12" fill="#94A3B8">Reports</text>
  <!-- Active: Multi-Location -->
  <rect x="0" y="280" width="200" height="36" fill="#1E2235" rx="4"/>
  <rect x="0" y="280" width="3" height="36" fill="#F59E0B"/>
  <text x="16" y="303" font-size="12" font-weight="600" fill="#F59E0B">Multi-Location</text>
  <text x="16" y="332" font-size="12" fill="#94A3B8">Franchise Mgmt</text>
  <text x="16" y="360" font-size="12" fill="#94A3B8">Integrations</text>
  <text x="16" y="388" font-size="12" fill="#94A3B8">Floor Plans</text>
  <text x="16" y="416" font-size="12" fill="#94A3B8">Training Mode</text>
  <text x="16" y="444" font-size="12" fill="#94A3B8">Forms</text>

  <!-- ==========================================================
       HEADER
       DB: pos_locations
       ========================================================== -->
  <rect x="200" y="0" width="1166" height="56" fill="#1A1D2E"/>
  <text x="220" y="24" font-size="18" font-weight="700" fill="#E2E8F0">Multi-Location Management</text>
  <text x="220" y="44" font-size="11" fill="#94A3B8">Venue switcher, per-venue KPIs, consolidated P&amp;L, config sync -- DB: pos_locations</text>
  <use xlink:href="#gearIcon" x="610" y="14" width="16" height="16"/>
  <!-- Add Location button -->
  <rect x="1050" y="10" width="140" height="36" rx="8" fill="url(#amberGrad)"/>
  <text x="1120" y="33" font-size="12" font-weight="700" fill="#0C0E1A" text-anchor="middle">+ Add Location</text>
  <use xlink:href="#saveBtn" x="1210" y="10" width="140" height="36"/>
  <line x1="200" y1="56" x2="1366" y2="56" stroke="#2A2E45" stroke-width="1"/>

  <!-- ==========================================================
       STATS BAR
       DB: pos_locations + pos_payments + pos_orders aggregates
       ========================================================== -->
  <rect x="200" y="56" width="1166" height="68" fill="#161930"/>
  <line x1="200" y1="124" x2="1366" y2="124" stroke="#2A2E45" stroke-width="1"/>

  <!-- Stat 1: Total Locations — DB: COUNT(pos_locations) -->
  <rect x="212" y="64" width="260" height="52" rx="6" fill="#1A1D2E"/>
  <use xlink:href="#onlineDot" x="224" y="74" width="10" height="10"/>
  <text x="240" y="80" font-size="10" font-weight="600" fill="#64748B">TOTAL LOCATIONS</text>
  <text x="240" y="102" font-size="16" font-weight="700" fill="#E2E8F0">4</text>
  <text x="270" y="102" font-size="11" fill="#94A3B8">(2 owned, 2 franchise)</text>

  <!-- Stat 2: Combined Revenue — DB: SUM(pos_payments.amount_cents) WHERE date=today -->
  <rect x="484" y="64" width="260" height="52" rx="6" fill="#1A1D2E"/>
  <text x="496" y="80" font-size="10" font-weight="600" fill="#64748B">COMBINED REVENUE TODAY</text>
  <text x="496" y="102" font-size="16" font-weight="700" fill="#F59E0B">$18,420</text>

  <!-- Stat 3: Combined Orders — DB: COUNT(pos_orders) WHERE date=today -->
  <rect x="756" y="64" width="240" height="52" rx="6" fill="#1A1D2E"/>
  <text x="768" y="80" font-size="10" font-weight="600" fill="#64748B">COMBINED ORDERS TODAY</text>
  <text x="768" y="102" font-size="16" font-weight="700" fill="#E2E8F0">487</text>

  <!-- Stat 4: All Online — DB: pos_locations.is_online -->
  <rect x="1008" y="64" width="346" height="52" rx="6" fill="#1A1D2E"/>
  <use xlink:href="#onlineDot" x="1020" y="72" width="8" height="8"/>
  <use xlink:href="#onlineDot" x="1032" y="72" width="8" height="8"/>
  <use xlink:href="#onlineDot" x="1044" y="72" width="8" height="8"/>
  <use xlink:href="#onlineDot" x="1056" y="72" width="8" height="8"/>
  <text x="1070" y="80" font-size="10" font-weight="600" fill="#64748B">LOCATIONS ONLINE</text>
  <text x="1020" y="102" font-size="16" font-weight="700" fill="#22C55E">4/4 -- All Online</text>

  <!-- ==========================================================
       LEFT PANEL — Location Switcher
       x=200, w=390
       DB: pos_locations
       ========================================================== -->
  <rect x="200" y="124" width="390" height="900" fill="#161930"/>
  <line x1="590" y1="124" x2="590" y2="1024" stroke="#2A2E45" stroke-width="1"/>
  <text x="216" y="148" font-size="11" font-weight="700" fill="#64748B" letter-spacing="1">LOCATIONS</text>
  <use xlink:href="#gearIcon" x="286" y="137" width="12" height="12"/>

  <!-- Location 1: Downtown (selected) — DB: pos_locations.id = loc_01 -->
  <rect x="208" y="158" width="374" height="80" rx="8" fill="#1E2443" stroke="#F59E0B" stroke-width="2"/>
  <rect x="208" y="158" width="4" height="80" rx="2" fill="#F59E0B"/>
  <use xlink:href="#onlineDot" x="224" y="170" width="10" height="10"/>
  <text x="242" y="179" font-size="13" font-weight="700" fill="#E2E8F0">Synalux Bistro -- Downtown</text>
  <!-- Admin gear: editable location settings -->
  <use xlink:href="#gearIcon" x="444" y="168" width="12" height="12"/>
  <rect x="466" y="164" width="56" height="18" rx="4" fill="#F59E0B"/>
  <text x="494" y="176" font-size="9" font-weight="700" fill="#0C0E1A" text-anchor="middle">PRIMARY</text>
  <text x="228" y="198" font-size="11" fill="#94A3B8">123 Main St</text>
  <text x="228" y="216" font-size="10" font-weight="600" fill="#22C55E">Online</text>
  <text x="360" y="216" font-size="12" font-weight="700" fill="#F59E0B">$6,840 today</text>
  <!-- DB: pos_locations.id, pos_payments aggregate -->

  <!-- Location 2: Midtown — DB: pos_locations.id = loc_02 -->
  <use xlink:href="#locCard" x="208" y="246" width="374" height="76"/>
  <use xlink:href="#onlineDot" x="224" y="258" width="10" height="10"/>
  <text x="242" y="268" font-size="13" font-weight="700" fill="#E2E8F0">Synalux Bistro -- Midtown</text>
  <use xlink:href="#gearIcon" x="444" y="257" width="12" height="12"/>
  <text x="228" y="286" font-size="11" fill="#94A3B8">456 Park Ave</text>
  <text x="228" y="304" font-size="10" font-weight="600" fill="#22C55E">Online</text>
  <text x="360" y="304" font-size="12" font-weight="700" fill="#E2E8F0">$4,290 today</text>

  <!-- Location 3: Airport (franchise) — DB: pos_locations.id = loc_03 -->
  <use xlink:href="#locCard" x="208" y="330" width="374" height="76"/>
  <use xlink:href="#onlineDot" x="224" y="342" width="10" height="10"/>
  <text x="242" y="352" font-size="13" font-weight="700" fill="#E2E8F0">Synalux Bistro -- Airport</text>
  <use xlink:href="#gearIcon" x="426" y="341" width="12" height="12"/>
  <rect x="446" y="338" width="66" height="18" rx="4" fill="#8B5CF6"/>
  <text x="479" y="350" font-size="9" font-weight="700" fill="#FFFFFF" text-anchor="middle">FRANCHISE</text>
  <text x="228" y="370" font-size="11" fill="#94A3B8">Terminal B, JFK</text>
  <text x="228" y="388" font-size="10" font-weight="600" fill="#22C55E">Online</text>
  <text x="360" y="388" font-size="12" font-weight="700" fill="#E2E8F0">$4,180 today</text>

  <!-- Location 4: West Side (franchise) — DB: pos_locations.id = loc_04 -->
  <use xlink:href="#locCard" x="208" y="414" width="374" height="76"/>
  <use xlink:href="#onlineDot" x="224" y="426" width="10" height="10"/>
  <text x="242" y="436" font-size="13" font-weight="700" fill="#E2E8F0">Synalux Bistro -- West Side</text>
  <use xlink:href="#gearIcon" x="442" y="425" width="12" height="12"/>
  <rect x="462" y="422" width="66" height="18" rx="4" fill="#8B5CF6"/>
  <text x="495" y="434" font-size="9" font-weight="700" fill="#FFFFFF" text-anchor="middle">FRANCHISE</text>
  <text x="228" y="454" font-size="11" fill="#94A3B8">789 West Blvd</text>
  <text x="228" y="472" font-size="10" font-weight="600" fill="#22C55E">Online</text>
  <text x="360" y="472" font-size="12" font-weight="700" fill="#E2E8F0">$3,110 today</text>

  <!-- Bottom actions -->
  <rect x="216" y="508" width="366" height="34" rx="8" fill="none" stroke="#2A2E45" stroke-width="1.5"/>
  <text x="399" y="530" font-size="12" fill="#94A3B8" text-anchor="middle">+ Invite Franchise Location</text>
  <text x="399" y="562" font-size="11" fill="#3B82F6" text-anchor="middle" text-decoration="underline">Import Locations (.csv)</text>

  <!-- ==========================================================
       RIGHT PANEL — Location Detail: Downtown
       x=590, w=776
       DB: pos_locations.id = loc_01 + related tables
       ========================================================== -->

  <!-- Detail header -->
  <text x="610" y="148" font-size="16" font-weight="700" fill="#E2E8F0">Synalux Bistro -- Downtown</text>
  <use xlink:href="#gearIcon" x="810" y="136" width="14" height="14"/>
  <text x="610" y="165" font-size="11" fill="#94A3B8">123 Main St, New York, NY -- Location ID: loc_01</text>
  <use xlink:href="#onlineDot" x="836" y="157" width="8" height="8"/>
  <text x="850" y="165" font-size="11" font-weight="600" fill="#22C55E">Online</text>

  <!-- Tabs — DB: various per-location tables -->
  <rect x="598" y="174" width="760" height="34" fill="#161930"/>
  <line x1="598" y1="208" x2="1358" y2="208" stroke="#2A2E45" stroke-width="1"/>
  <rect x="602" y="176" width="90" height="30" rx="6" fill="#1A1D2E"/>
  <rect x="602" y="202" width="90" height="4" fill="#F59E0B" rx="2"/>
  <text x="647" y="196" font-size="12" font-weight="700" fill="#F59E0B" text-anchor="middle">Overview</text>
  <text x="730" y="196" font-size="12" fill="#64748B" text-anchor="middle">Menu &amp; Pricing</text>
  <text x="850" y="196" font-size="12" fill="#64748B" text-anchor="middle">Tax &amp; Compliance</text>
  <text x="940" y="196" font-size="12" fill="#64748B" text-anchor="middle">Staff</text>
  <text x="1010" y="196" font-size="12" fill="#64748B" text-anchor="middle">Equipment</text>
  <text x="1090" y="196" font-size="12" fill="#64748B" text-anchor="middle">Reports</text>

  <!-- ==========================================================
       4 KPI Cards — per-venue
       DB: pos_payments, pos_orders, pos_tables, pos_employees
       ========================================================== -->

  <!-- KPI 1: Today's Sales — DB: SUM(pos_payments.amount_cents) WHERE location_id=loc_01 -->
  <use xlink:href="#kpiCard" x="602" y="218" width="178" height="68"/>
  <text x="614" y="236" font-size="10" font-weight="600" fill="#64748B">TODAY'S SALES</text>
  <use xlink:href="#gearIcon" x="700" y="226" width="10" height="10"/>
  <text x="614" y="262" font-size="20" font-weight="700" fill="#F59E0B">$6,840</text>
  <text x="614" y="278" font-size="10" fill="#22C55E">+8% vs yesterday</text>

  <!-- KPI 2: Orders — DB: COUNT(pos_orders) -->
  <use xlink:href="#kpiCard" x="790" y="218" width="178" height="68"/>
  <text x="802" y="236" font-size="10" font-weight="600" fill="#64748B">ORDERS</text>
  <text x="802" y="262" font-size="20" font-weight="700" fill="#E2E8F0">182</text>
  <text x="802" y="278" font-size="10" fill="#94A3B8">avg check $37.58</text>

  <!-- KPI 3: Active Tables — DB: pos_tables WHERE status='occupied' -->
  <use xlink:href="#kpiCard" x="978" y="218" width="178" height="68"/>
  <text x="990" y="236" font-size="10" font-weight="600" fill="#64748B">ACTIVE TABLES</text>
  <text x="990" y="262" font-size="20" font-weight="700" fill="#E2E8F0">8/24</text>
  <text x="990" y="278" font-size="10" fill="#94A3B8">33% capacity</text>

  <!-- KPI 4: Staff On-Clock — DB: pos_time_entries WHERE clock_out IS NULL -->
  <use xlink:href="#kpiCard" x="1166" y="218" width="190" height="68"/>
  <text x="1178" y="236" font-size="10" font-weight="600" fill="#64748B">STAFF ON-CLOCK</text>
  <text x="1178" y="262" font-size="20" font-weight="700" fill="#E2E8F0">6</text>
  <text x="1178" y="278" font-size="10" fill="#94A3B8">of 14 scheduled</text>

  <!-- ==========================================================
       HOURLY SALES CHART — All 4 Locations
       DB: pos_payments GROUP BY HOUR, location_id
       ========================================================== -->
  <rect x="602" y="296" width="754" height="168" rx="8" fill="#1A1D2E" stroke="#2A2E45" stroke-width="1" filter="url(#cardShadow)"/>
  <text x="618" y="316" font-size="12" font-weight="700" fill="#E2E8F0">Hourly Sales -- All 4 Locations</text>
  <use xlink:href="#gearIcon" x="770" y="306" width="12" height="12"/>
  <text x="618" y="332" font-size="10" fill="#64748B">Stacked by location -- 11am-10pm today</text>

  <!-- Legend (reuses onlineDot concept) -->
  <rect x="1080" y="308" width="10" height="10" rx="2" fill="#F59E0B"/>
  <text x="1094" y="318" font-size="9" fill="#94A3B8">Downtown</text>
  <rect x="1152" y="308" width="10" height="10" rx="2" fill="#3B82F6"/>
  <text x="1166" y="318" font-size="9" fill="#94A3B8">Midtown</text>
  <rect x="1216" y="308" width="10" height="10" rx="2" fill="#22C55E"/>
  <text x="1230" y="318" font-size="9" fill="#94A3B8">Airport</text>
  <rect x="1280" y="308" width="10" height="10" rx="2" fill="#8B5CF6"/>
  <text x="1294" y="318" font-size="9" fill="#94A3B8">West</text>

  <!-- Y-axis -->
  <text x="614" y="346" font-size="8" fill="#64748B">$2k</text>
  <text x="614" y="372" font-size="8" fill="#64748B">$1.5k</text>
  <text x="614" y="398" font-size="8" fill="#64748B">$1k</text>
  <text x="614" y="424" font-size="8" fill="#64748B">$0.5k</text>
  <text x="614" y="448" font-size="8" fill="#64748B">$0</text>

  <!-- Grid -->
  <line x1="636" y1="342" x2="1340" y2="342" stroke="#2A2E45" stroke-width="0.5" stroke-dasharray="4,4"/>
  <line x1="636" y1="368" x2="1340" y2="368" stroke="#2A2E45" stroke-width="0.5" stroke-dasharray="4,4"/>
  <line x1="636" y1="394" x2="1340" y2="394" stroke="#2A2E45" stroke-width="0.5" stroke-dasharray="4,4"/>
  <line x1="636" y1="420" x2="1340" y2="420" stroke="#2A2E45" stroke-width="0.5" stroke-dasharray="4,4"/>
  <line x1="636" y1="446" x2="1340" y2="446" stroke="#2A2E45" stroke-width="0.5"/>

  <!-- Stacked bars (5 visible hours) -->
  <!-- 11am -->
  <rect x="660" y="418" width="56" height="28" fill="#F59E0B" rx="2"/>
  <rect x="660" y="399" width="56" height="19" fill="#3B82F6" rx="2"/>
  <rect x="660" y="382" width="56" height="17" fill="#22C55E" rx="2"/>
  <rect x="660" y="371" width="56" height="11" fill="#8B5CF6" rx="2"/>
  <text x="688" y="458" font-size="8" fill="#64748B" text-anchor="middle">11am</text>

  <!-- 12pm (peak) -->
  <rect x="726" y="394" width="56" height="52" fill="#F59E0B" rx="2"/>
  <rect x="726" y="352" width="56" height="42" fill="#3B82F6" rx="2"/>
  <rect x="726" y="304" width="56" height="48" fill="#22C55E" rx="2"/>
  <rect x="726" y="276" width="56" height="28" fill="#8B5CF6" rx="2"/>
  <text x="754" y="458" font-size="8" fill="#64748B" text-anchor="middle">12pm</text>

  <!-- 3pm (slow) -->
  <rect x="792" y="424" width="56" height="22" fill="#F59E0B" rx="2"/>
  <rect x="792" y="408" width="56" height="16" fill="#3B82F6" rx="2"/>
  <rect x="792" y="388" width="56" height="20" fill="#22C55E" rx="2"/>
  <rect x="792" y="376" width="56" height="12" fill="#8B5CF6" rx="2"/>
  <text x="820" y="458" font-size="8" fill="#64748B" text-anchor="middle">3pm</text>

  <!-- 6pm (dinner peak) -->
  <rect x="858" y="386" width="56" height="60" fill="#F59E0B" rx="2"/>
  <rect x="858" y="336" width="56" height="50" fill="#3B82F6" rx="2"/>
  <rect x="858" y="281" width="56" height="55" fill="#22C55E" rx="2"/>
  <rect x="858" y="246" width="56" height="35" fill="#8B5CF6" rx="2"/>
  <text x="886" y="458" font-size="8" fill="#64748B" text-anchor="middle">6pm</text>

  <!-- 9pm -->
  <rect x="924" y="420" width="56" height="26" fill="#F59E0B" rx="2"/>
  <rect x="924" y="402" width="56" height="18" fill="#3B82F6" rx="2"/>
  <rect x="924" y="380" width="56" height="22" fill="#22C55E" rx="2"/>
  <rect x="924" y="368" width="56" height="12" fill="#8B5CF6" rx="2"/>
  <text x="952" y="458" font-size="8" fill="#64748B" text-anchor="middle">9pm</text>

  <!-- ==========================================================
       MENU & PRICING — Config sync settings
       DB: pos_menu_items, pos_location_overrides
       ========================================================== -->
  <rect x="602" y="474" width="370" height="170" rx="8" fill="#1A1D2E" stroke="#2A2E45" stroke-width="1"/>
  <text x="618" y="494" font-size="12" font-weight="700" fill="#E2E8F0">Menu &amp; Pricing</text>
  <use xlink:href="#gearIcon" x="720" y="484" width="12" height="12"/>

  <!-- DB: pos_config.shared_menu_enabled -->
  <text x="618" y="516" font-size="11" fill="#94A3B8">Shared Base Menu</text>
  <use xlink:href="#toggleOn" x="902" y="504" width="40" height="22"/>
  <use xlink:href="#gearIcon" x="882" y="508" width="12" height="12"/>
  <text x="618" y="532" font-size="9" fill="#64748B">All locations share same menu (edits apply everywhere)</text>

  <!-- DB: pos_location_overrides WHERE location_id = loc_03 -->
  <text x="618" y="552" font-size="11" font-weight="600" fill="#94A3B8">Location Overrides</text>
  <use xlink:href="#gearIcon" x="722" y="541" width="12" height="12"/>
  <text x="618" y="568" font-size="10" fill="#64748B">Airport +15% markup applied</text>

  <!-- DB: pos_config.per_location_availability -->
  <text x="618" y="588" font-size="11" fill="#94A3B8">Per-location item availability (86'd)</text>
  <use xlink:href="#toggleOn" x="902" y="576" width="40" height="22"/>
  <use xlink:href="#gearIcon" x="882" y="580" width="12" height="12"/>

  <!-- DB: pos_config.per_location_happy_hour -->
  <text x="618" y="610" font-size="11" fill="#94A3B8">Per-location happy hour times</text>
  <use xlink:href="#toggleOn" x="902" y="598" width="40" height="22"/>
  <use xlink:href="#gearIcon" x="882" y="602" width="12" height="12"/>

  <text x="618" y="632" font-size="9" fill="#64748B">Menu last synced: Today 6:00 PM</text>

  <!-- ==========================================================
       TAX ZONE ASSIGNMENTS
       DB: pos_tax_zones, pos_location_tax_configs
       ========================================================== -->
  <rect x="982" y="474" width="374" height="170" rx="8" fill="#1A1D2E" stroke="#2A2E45" stroke-width="1"/>
  <text x="998" y="494" font-size="12" font-weight="700" fill="#E2E8F0">Tax Zone Assignments</text>
  <use xlink:href="#gearIcon" x="1130" y="484" width="12" height="12"/>

  <!-- Tax table header -->
  <rect x="982" y="500" width="374" height="20" fill="#161930"/>
  <text x="998" y="514" font-size="9" font-weight="700" fill="#64748B">LOCATION</text>
  <text x="1110" y="514" font-size="9" font-weight="700" fill="#64748B">TAX ZONE</text>
  <text x="1260" y="514" font-size="9" font-weight="700" fill="#64748B">RATE</text>

  <!-- DB: pos_location_tax_configs rows -->
  <rect x="982" y="520" width="374" height="22" fill="#1E2235"/>
  <text x="998" y="535" font-size="10" fill="#E2E8F0">Downtown</text>
  <text x="1110" y="535" font-size="10" fill="#94A3B8">New York City</text>
  <text x="1260" y="535" font-size="10" font-weight="600" fill="#F59E0B">8.875%</text>
  <use xlink:href="#gearIcon" x="1330" y="526" width="10" height="10"/>

  <rect x="982" y="542" width="374" height="22" fill="#1A1D2E"/>
  <text x="998" y="557" font-size="10" fill="#E2E8F0">Midtown</text>
  <text x="1110" y="557" font-size="10" fill="#94A3B8">New York City</text>
  <text x="1260" y="557" font-size="10" font-weight="600" fill="#F59E0B">8.875%</text>
  <use xlink:href="#gearIcon" x="1330" y="548" width="10" height="10"/>

  <rect x="982" y="564" width="374" height="22" fill="#1E2235"/>
  <text x="998" y="579" font-size="10" fill="#E2E8F0">Airport</text>
  <text x="1110" y="579" font-size="10" fill="#94A3B8">JFK (Federal)</text>
  <text x="1260" y="579" font-size="10" font-weight="600" fill="#F59E0B">8.875%</text>
  <use xlink:href="#gearIcon" x="1330" y="570" width="10" height="10"/>
  <text x="1316" y="579" font-size="8" fill="#F97316">Duty-free pending</text>

  <rect x="982" y="586" width="374" height="22" fill="#1A1D2E"/>
  <text x="998" y="601" font-size="10" fill="#E2E8F0">West Side</text>
  <text x="1110" y="601" font-size="10" fill="#94A3B8">New Jersey</text>
  <text x="1260" y="601" font-size="10" font-weight="600" fill="#F59E0B">6.625%</text>
  <use xlink:href="#gearIcon" x="1330" y="592" width="10" height="10"/>

  <!-- ==========================================================
       CONSOLIDATED REPORTS + FRANCHISE ROYALTY
       DB: pos_payments, pos_royalty_configs
       ========================================================== -->
  <rect x="602" y="654" width="370" height="160" rx="8" fill="#1A1D2E" stroke="#2A2E45" stroke-width="1"/>
  <text x="618" y="674" font-size="12" font-weight="700" fill="#E2E8F0">Consolidated Reports</text>
  <use xlink:href="#gearIcon" x="754" y="664" width="12" height="12"/>

  <rect x="618" y="684" width="200" height="30" rx="6" fill="url(#amberGrad)"/>
  <text x="718" y="704" font-size="11" font-weight="700" fill="#0C0E1A" text-anchor="middle">All Locations PDF</text>

  <rect x="618" y="720" width="200" height="30" rx="6" fill="#1E2235" stroke="#2A2E45" stroke-width="1"/>
  <text x="718" y="740" font-size="11" fill="#94A3B8" text-anchor="middle">Per-Location Compare</text>

  <rect x="618" y="756" width="200" height="30" rx="6" fill="#8B5CF6"/>
  <text x="718" y="776" font-size="11" font-weight="700" fill="#FFFFFF" text-anchor="middle">Franchise Royalty Report</text>

  <!-- DB: pos_royalty_configs -->
  <text x="618" y="800" font-size="10" fill="#64748B">Royalty rate: <tspan fill="#F59E0B" font-weight="700">6%</tspan> per franchise agreement</text>

  <!-- ==========================================================
       PERMISSIONS & ACCESS CONTROL
       DB: pos_rbac_policies, pos_location_users
       ========================================================== -->
  <rect x="982" y="654" width="374" height="160" rx="8" fill="#1A1D2E" stroke="#2A2E45" stroke-width="1"/>
  <text x="998" y="674" font-size="12" font-weight="700" fill="#E2E8F0">Permissions &amp; Access</text>
  <use xlink:href="#gearIcon" x="1122" y="664" width="12" height="12"/>

  <!-- DB: pos_rbac_policies.corporate_view_all -->
  <text x="998" y="698" font-size="10" fill="#94A3B8">Corporate can view all location data</text>
  <use xlink:href="#toggleOn" x="1306" y="687" width="38" height="20"/>
  <use xlink:href="#gearIcon" x="1286" y="691" width="10" height="10"/>

  <!-- DB: pos_rbac_policies.franchise_isolation -->
  <text x="998" y="720" font-size="10" fill="#94A3B8">Franchise locations isolated (RLS)</text>
  <use xlink:href="#toggleOn" x="1306" y="709" width="38" height="20"/>
  <use xlink:href="#gearIcon" x="1286" y="713" width="10" height="10"/>
  <text x="998" y="732" font-size="8" fill="#64748B">RLS enforced at DB level</text>

  <!-- DB: pos_rbac_policies.corporate_push_menu -->
  <text x="998" y="752" font-size="10" fill="#94A3B8">Corporate can push menu updates</text>
  <use xlink:href="#toggleOn" x="1306" y="741" width="38" height="20"/>
  <use xlink:href="#gearIcon" x="1286" y="745" width="10" height="10"/>

  <!-- DB: pos_rbac_policies.franchise_adjust_price -->
  <text x="998" y="774" font-size="10" fill="#94A3B8">Franchise can adjust local pricing</text>
  <use xlink:href="#toggleOn" x="1306" y="763" width="38" height="20"/>
  <use xlink:href="#gearIcon" x="1286" y="767" width="10" height="10"/>
  <text x="998" y="786" font-size="8" fill="#64748B">Within +/-20% band of base price</text>
  <text x="998" y="802" font-size="8" fill="#64748B">Franchise invite: email -> new user -> scoped to location_id via RLS</text>

  <!-- ==========================================================
       WORKFLOW INTEGRATION
       ========================================================== -->
  <rect x="602" y="824" width="754" height="56" rx="8" fill="#1A1500" stroke="#F59E0B" stroke-width="1.5"/>
  <rect x="602" y="824" width="754" height="22" rx="8" fill="#2A1F00"/>
  <rect x="602" y="834" width="754" height="12" fill="#2A1F00"/>
  <text x="618" y="840" font-size="10" font-weight="700" fill="#F59E0B">Architecture Notes</text>
  <text x="618" y="858" font-size="9" fill="#94A3B8">Each location = separate <tspan fill="#F59E0B" font-weight="600">pos_locations</tspan> row. RLS scopes all pos_* tables by <tspan fill="#F59E0B" font-weight="600">location_id</tspan>.</text>
  <text x="618" y="872" font-size="9" fill="#94A3B8">Schema: pos_locations | pos_menu_items | pos_royalty_configs | pos_payments | pos_location_users</text>

  <!-- ==========================================================
       LEFT PANEL BOTTOM — Config sync status
       DB: pos_config_sync_log
       ========================================================== -->
  <rect x="208" y="580" width="374" height="38" rx="6" fill="url(#cardHeaderGrad)"/>
  <text x="224" y="604" font-size="12" font-weight="700" fill="#E2E8F0">Config Sync Status</text>
  <use xlink:href="#gearIcon" x="356" y="592" width="12" height="12"/>

  <!-- Sync rows — DB: pos_config_sync_log -->
  <rect x="208" y="618" width="374" height="36" rx="0" fill="#1A1D2E"/>
  <text x="224" y="640" font-size="10" fill="#E2E8F0">Menu Items</text>
  <text x="420" y="640" font-size="10" font-weight="600" fill="#22C55E" text-anchor="end">Synced</text>
  <text x="560" y="640" font-size="9" fill="#64748B" text-anchor="end">Today 6:00 PM</text>

  <rect x="208" y="654" width="374" height="36" rx="0" fill="#161930"/>
  <text x="224" y="676" font-size="10" fill="#E2E8F0">Tax Configs</text>
  <text x="420" y="676" font-size="10" font-weight="600" fill="#22C55E" text-anchor="end">Synced</text>
  <text x="560" y="676" font-size="9" fill="#64748B" text-anchor="end">Today 6:00 PM</text>

  <rect x="208" y="690" width="374" height="36" rx="0" fill="#1A1D2E"/>
  <text x="224" y="712" font-size="10" fill="#E2E8F0">Employee Roles</text>
  <text x="420" y="712" font-size="10" font-weight="600" fill="#22C55E" text-anchor="end">Synced</text>
  <text x="560" y="712" font-size="9" fill="#64748B" text-anchor="end">Today 5:30 PM</text>

  <rect x="208" y="726" width="374" height="36" rx="0" fill="#161930"/>
  <text x="224" y="748" font-size="10" fill="#E2E8F0">Pricing Overrides</text>
  <text x="420" y="748" font-size="10" font-weight="600" fill="#F59E0B" text-anchor="end">Pending</text>
  <text x="560" y="748" font-size="9" fill="#64748B" text-anchor="end">Scheduled 6 AM</text>

  <!-- Force Sync button -->
  <rect x="208" y="770" width="374" height="30" rx="6" fill="#0C0E1A" stroke="#2A2E45" stroke-width="1"/>
  <text x="395" y="790" font-size="11" fill="#94A3B8" text-anchor="middle">Force Sync All Configs Now</text>

  <!-- ==========================================================
       FOOTER
       ========================================================== -->
  <rect x="200" y="1004" width="1166" height="20" fill="#161930"/>
  <line x1="200" y1="1004" x2="1366" y2="1004" stroke="#2A2E45" stroke-width="1"/>
  <text x="220" y="1017" font-size="9" fill="#64748B">Synalux POS -- Multi-Location Dashboard -- 4 Locations</text>
  <text x="1346" y="1017" font-size="9" fill="#64748B" text-anchor="end">v3.4.1</text>

</svg>