<svg role="img" aria-labelledby="title-settings_privacy-svg" xmlns="http://www.w3.org/2000/svg" viewBox="0 0 1366 1024" font-family="-apple-system,system-ui,BlinkMacSystemFont,sans-serif">
  <title id="title-settings_privacy-svg">Synalux POS — privacy</title>
  <desc>Synalux POS mockup screen for privacy. All UI elements admin-configurable.</desc>
  <defs>
    <!-- Gradients -->
    <linearGradient id="cardGrad" x1="0" y1="0" x2="0" y2="1">
      <stop offset="0%" stop-color="#1E2235"/>
      <stop offset="100%" stop-color="#1A1D2E"/>
    </linearGradient>
    <linearGradient id="amberGrad" x1="0" y1="0" x2="1" y2="1">
      <stop offset="0%" stop-color="#F59E0B"/>
      <stop offset="100%" stop-color="#D97706"/>
    </linearGradient>
    <linearGradient id="headerGrad" x1="0" y1="0" x2="0" y2="1">
      <stop offset="0%" stop-color="#1F2337"/>
      <stop offset="100%" stop-color="#1A1D2E"/>
    </linearGradient>

    <!-- Shadows -->
    <filter id="shadow" x="-4%" y="-4%" width="108%" height="116%">
      <feDropShadow dx="0" dy="2" stdDeviation="4" flood-color="#000" flood-opacity="0.3"/>
    </filter>
    <filter id="shadowSm" x="-2%" y="-2%" width="104%" height="112%">
      <feDropShadow dx="0" dy="1" stdDeviation="2" flood-color="#000" flood-opacity="0.2"/>
    </filter>

    <!-- Admin gear icon -->
    <symbol id="gear" viewBox="0 0 16 16">
      <path d="M8 1l1.2.3.5 1.3.9-.6 1.2.7-.2 1.4 1.1.8-.6 1.2L13.4 7l.3 1.2-1.1.8.2 1.4-1.2.7-.9-.6-.5 1.3L8 12l-1.2-.3-.5-1.3-.9.6-1.2-.7.2-1.4-1.1-.8.6-1.2L2.6 7l-.3-1.2 1.1-.8-.2-1.4 1.2-.7.9.6.5-1.3z" fill="none" stroke="#F59E0B" stroke-width="1"/>
      <circle cx="8" cy="7" r="2" fill="none" stroke="#F59E0B" stroke-width="1"/>
    </symbol>

    <!-- Toggle ON -->
    <symbol id="toggleOn" viewBox="0 0 44 22">
      <rect width="44" height="22" rx="11" fill="#22C55E"/>
  <!-- Synalux POS -->
      <circle cx="33" cy="11" r="8" fill="white"/>
    </symbol>

    <!-- Toggle OFF -->
    <symbol id="toggleOff" viewBox="0 0 44 22">
      <rect width="44" height="22" rx="11" fill="#374151"/>
      <circle cx="11" cy="11" r="8" fill="white"/>
    </symbol>

    <!-- Nav item backgrounds -->
    <symbol id="navItem" viewBox="0 0 184 34">
      <rect width="184" height="34" rx="6" fill="#1E2235"/>
    </symbol>

    <!-- Compliance chip: compliant -->
    <symbol id="chipCompliant" viewBox="0 0 258 50">
      <rect width="258" height="50" rx="7" fill="#0C0E1A" stroke="#22C55E" stroke-width="1"/>
      <rect width="4" height="50" rx="2" fill="#22C55E"/>
    </symbol>

    <!-- Compliance chip: warning -->
    <symbol id="chipWarning" viewBox="0 0 258 50">
      <rect width="258" height="50" rx="7" fill="#0C0E1A" stroke="#F59E0B" stroke-width="1"/>
      <rect width="4" height="50" rx="2" fill="#F59E0B"/>
    </symbol>

    <!-- Table row backgrounds -->
    <symbol id="tableRow" viewBox="0 0 1140 36">
      <rect width="1140" height="36" fill="#1A1D2E"/>
    </symbol>

    <!-- Status badge: deletable -->
    <symbol id="badgeDeletable" viewBox="0 0 90 18">
      <rect width="90" height="18" rx="9" fill="#064E3B"/>
    </symbol>

    <!-- Status badge: not deletable -->
    <symbol id="badgeNotDeletable" viewBox="0 0 108 18">
      <rect width="108" height="18" rx="9" fill="#2D1515"/>
    </symbol>

    <!-- Button primary -->
    <symbol id="btnPrimary" viewBox="0 0 160 28">
      <rect width="160" height="28" rx="6" fill="url(#amberGrad)"/>
    </symbol>

    <!-- Action button -->
    <symbol id="btnAction" viewBox="0 0 56 18">
      <rect width="56" height="18" rx="4" fill="#1E2235" stroke="#2A2E45" stroke-width="1"/>
    </symbol>
  </defs>

  <!-- ===== CANVAS BACKGROUND ===== -->
  <rect width="1366" height="1024" fill="#0C0E1A"/>

  <!-- ===== LEFT NAV SIDEBAR ===== -->
  <rect x="0" y="0" width="210" height="1024" fill="#11142A"/>
  <rect x="210" y="0" width="1" height="1024" fill="#2A2E45"/>
  <text x="16" y="30" font-size="13" font-weight="700" fill="#F59E0B">Back Office</text>

  <!-- Nav items -->
  <text x="16" y="67" font-size="12" fill="#94A3B8">Restaurant Info</text>
  <text x="16" y="99" font-size="12" fill="#94A3B8">Menu Builder</text>
  <text x="16" y="131" font-size="12" fill="#94A3B8">Taxes</text>
  <text x="16" y="163" font-size="12" fill="#94A3B8">Employees</text>
  <text x="16" y="195" font-size="12" fill="#94A3B8">Equipment</text>
  <text x="16" y="227" font-size="12" fill="#94A3B8">Payments</text>
  <text x="16" y="259" font-size="12" fill="#94A3B8">Loyalty</text>
  <text x="16" y="291" font-size="12" fill="#94A3B8">Integrations</text>
  <text x="16" y="323" font-size="12" fill="#94A3B8">Inventory</text>

  <!-- Compliance section -->
  <text x="16" y="360" font-size="9" font-weight="700" fill="#64748B" letter-spacing="1">COMPLIANCE</text>
  <text x="16" y="388" font-size="12" fill="#94A3B8">Tax Exempt</text>

  <!-- Active: Data Privacy -->
  <rect x="0" y="398" width="210" height="34" fill="#1E2235" rx="4"/>
  <rect x="0" y="398" width="3" height="34" fill="#F59E0B"/>
  <text x="16" y="420" font-size="12" font-weight="600" fill="#F59E0B">Data Privacy</text>

  <text x="16" y="452" font-size="12" fill="#94A3B8">Audit Log</text>
  <text x="16" y="484" font-size="12" fill="#94A3B8">Reports</text>
  <text x="16" y="516" font-size="12" fill="#94A3B8">Floor Plans</text>
  <text x="16" y="548" font-size="12" fill="#94A3B8">Forms</text>

  <!-- ===== HEADER BAR ===== -->
  <rect x="211" y="0" width="1155" height="58" fill="url(#headerGrad)"/>
  <text x="228" y="30" font-size="18" font-weight="700" fill="#E2E8F0">Data Privacy &amp; Compliance</text>
  <!-- DB: pos_privacy_requests, pos_marketing_consent -->
  <text x="228" y="48" font-size="11" fill="#94A3B8">CCPA | GDPR | CASL | TCPA — deletion requests, consent records, retention schedules</text>
  <!-- Admin gear for page-level settings -->
  <use href="#gear" x="1330" y="18" width="16" height="16"/>
  <!-- Last updated badge -->
  <rect x="1180" y="14" width="140" height="26" rx="6" fill="#1E2235" stroke="#2A2E45" stroke-width="1"/>
  <text x="1192" y="31" font-size="10" fill="#64748B">Last review: May 1, 2026</text>
  <rect x="211" y="58" width="1155" height="1" fill="#2A2E45"/>

  <!-- ============================================================ -->
  <!-- PANEL 1 — Compliance Status (top strip)                      -->
  <!-- DB: pos_compliance_status (regulatory_body, status, notes)   -->
  <!-- ============================================================ -->
  <rect x="218" y="68" width="1140" height="90" rx="8" fill="url(#cardGrad)" stroke="#2A2E45" stroke-width="1" filter="url(#shadow)"/>
  <text x="234" y="88" font-size="11" font-weight="700" fill="#94A3B8" letter-spacing="0.5">REGULATORY COMPLIANCE STATUS</text>
  <use href="#gear" x="420" y="78" width="14" height="14"/>

  <!-- Chip 1: CCPA - Compliant -->
  <use href="#chipCompliant" x="234" y="96" width="258" height="50"/>
  <text x="248" y="114" font-size="11" font-weight="700" fill="#E2E8F0">CCPA (California)</text>
  <rect x="332" y="102" width="68" height="17" rx="8" fill="#064E3B"/>
  <text x="341" y="114" font-size="9" font-weight="700" fill="#22C55E">Compliant</text>
  <text x="248" y="134" font-size="9" fill="#94A3B8">Data deletion within 45 days</text>

  <!-- Chip 2: GDPR - Review needed -->
  <use href="#chipWarning" x="502" y="96" width="258" height="50"/>
  <text x="516" y="114" font-size="11" font-weight="700" fill="#E2E8F0">GDPR (EU)</text>
  <rect x="590" y="102" width="90" height="17" rx="8" fill="#451A03"/>
  <text x="599" y="114" font-size="9" font-weight="700" fill="#F59E0B">Review needed</text>
  <text x="516" y="134" font-size="9" fill="#94A3B8">DPA with SendGrid not signed</text>

  <!-- Chip 3: CASL - Compliant -->
  <use href="#chipCompliant" x="770" y="96" width="258" height="50"/>
  <text x="784" y="114" font-size="11" font-weight="700" fill="#E2E8F0">CASL (Canada)</text>
  <rect x="880" y="102" width="68" height="17" rx="8" fill="#064E3B"/>
  <text x="889" y="114" font-size="9" font-weight="700" fill="#22C55E">Compliant</text>
  <text x="784" y="134" font-size="9" fill="#94A3B8">SMS consent logged</text>

  <!-- Chip 4: CAN-SPAM - Compliant -->
  <use href="#chipCompliant" x="1038" y="96" width="258" height="50"/>
  <text x="1052" y="114" font-size="11" font-weight="700" fill="#E2E8F0">CAN-SPAM</text>
  <rect x="1128" y="102" width="68" height="17" rx="8" fill="#064E3B"/>
  <text x="1137" y="114" font-size="9" font-weight="700" fill="#22C55E">Compliant</text>
  <text x="1052" y="134" font-size="9" fill="#94A3B8">Unsubscribe honored</text>

  <!-- ============================================================ -->
  <!-- PANEL 2 — Data Deletion Requests (left)                     -->
  <!-- DB: pos_privacy_requests (id, customer_id, request_type,    -->
  <!--     requested_at, deadline, completed_at, completed_by)     -->
  <!-- ============================================================ -->
  <rect x="218" y="170" width="608" height="546" rx="8" fill="url(#cardGrad)" stroke="#2A2E45" stroke-width="1" filter="url(#shadow)"/>

  <text x="234" y="192" font-size="13" font-weight="700" fill="#E2E8F0">Customer Data Deletion Requests</text>
  <use href="#gear" x="440" y="180" width="14" height="14"/>

  <!-- Table header -->
  <rect x="218" y="200" width="608" height="26" fill="#0C0E1A"/>
  <text x="228" y="217" font-size="9" font-weight="700" fill="#64748B" letter-spacing="0.5">DATE</text>
  <text x="296" y="217" font-size="9" font-weight="700" fill="#64748B" letter-spacing="0.5">CUSTOMER</text>
  <text x="398" y="217" font-size="9" font-weight="700" fill="#64748B" letter-spacing="0.5">REQUEST TYPE</text>
  <text x="524" y="217" font-size="9" font-weight="700" fill="#64748B" letter-spacing="0.5">STATUS</text>
  <text x="640" y="217" font-size="9" font-weight="700" fill="#64748B" letter-spacing="0.5">ACTION</text>
  <rect x="218" y="226" width="608" height="1" fill="#2A2E45"/>

  <!-- Row 1: Maria G. — Processing -->
  <!-- DB: pos_privacy_requests WHERE id = 'req-001' -->
  <rect x="218" y="227" width="608" height="42" fill="#1A1D2E"/>
  <text x="228" y="244" font-size="10" fill="#94A3B8">May 24</text>
  <text x="228" y="258" font-size="9" fill="#64748B">45d deadline</text>
  <text x="296" y="244" font-size="10" font-weight="600" fill="#E2E8F0">Maria G.</text>
  <text x="296" y="258" font-size="9" fill="#64748B">maria@email.com</text>
  <text x="398" y="244" font-size="10" fill="#E2E8F0">Delete all data</text>
  <text x="398" y="258" font-size="9" fill="#64748B">Deadline: Jun 8</text>
  <rect x="524" y="231" width="84" height="18" rx="9" fill="#1E3A5F"/>
  <text x="534" y="244" font-size="9" font-weight="700" fill="#60A5FA">Processing</text>
  <use href="#btnAction" x="640" y="232" width="44" height="18"/>
  <text x="651" y="244" font-size="9" fill="#94A3B8">View</text>
  <rect x="218" y="269" width="608" height="1" fill="#2A2E45"/>

  <!-- Row 2: Chen L. — Completed -->
  <!-- DB: pos_privacy_requests WHERE id = 'req-002' -->
  <rect x="218" y="270" width="608" height="42" fill="#1A1D2E"/>
  <text x="228" y="287" font-size="10" fill="#94A3B8">May 18</text>
  <text x="296" y="287" font-size="10" font-weight="600" fill="#E2E8F0">Chen L.</text>
  <text x="296" y="301" font-size="9" fill="#64748B">phone only</text>
  <text x="398" y="287" font-size="10" fill="#E2E8F0">Delete account</text>
  <text x="398" y="301" font-size="9" fill="#64748B">Completed May 20</text>
  <rect x="524" y="274" width="80" height="18" rx="9" fill="#064E3B"/>
  <text x="533" y="287" font-size="9" font-weight="700" fill="#22C55E">Completed</text>
  <use href="#btnAction" x="640" y="274" width="56" height="18"/>
  <text x="648" y="287" font-size="9" fill="#94A3B8">Receipt</text>
  <rect x="218" y="312" width="608" height="1" fill="#2A2E45"/>

  <!-- Row 3: Anonymous — Completed -->
  <!-- DB: pos_privacy_requests WHERE id = 'req-003' -->
  <rect x="218" y="313" width="608" height="42" fill="#1A1D2E"/>
  <text x="228" y="330" font-size="10" fill="#94A3B8">May 10</text>
  <text x="296" y="330" font-size="10" font-weight="600" fill="#64748B">(anonymous)</text>
  <text x="296" y="344" font-size="9" fill="#64748B">test@test.com</text>
  <text x="398" y="330" font-size="10" fill="#E2E8F0">Opt-out marketing</text>
  <text x="398" y="344" font-size="9" fill="#64748B">Completed</text>
  <rect x="524" y="317" width="80" height="18" rx="9" fill="#064E3B"/>
  <text x="533" y="330" font-size="9" font-weight="700" fill="#22C55E">Completed</text>
  <use href="#btnAction" x="640" y="317" width="56" height="18"/>
  <text x="648" y="330" font-size="9" fill="#94A3B8">Receipt</text>
  <rect x="218" y="355" width="608" height="1" fill="#2A2E45"/>

  <!-- Row 4: James R. — Exported -->
  <!-- DB: pos_privacy_requests WHERE id = 'req-004' -->
  <rect x="218" y="356" width="608" height="42" fill="#1A1D2E"/>
  <text x="228" y="373" font-size="10" fill="#94A3B8">Apr 29</text>
  <text x="296" y="373" font-size="10" font-weight="600" fill="#E2E8F0">James R.</text>
  <text x="296" y="387" font-size="9" fill="#64748B">james@r.com</text>
  <text x="398" y="373" font-size="10" fill="#E2E8F0">Export my data</text>
  <text x="398" y="387" font-size="9" fill="#64748B">Exported May 2</text>
  <rect x="524" y="360" width="74" height="18" rx="9" fill="#1E1B4B"/>
  <text x="533" y="373" font-size="9" font-weight="700" fill="#8B5CF6">Exported</text>
  <use href="#btnAction" x="640" y="360" width="56" height="18"/>
  <text x="646" y="373" font-size="9" fill="#94A3B8">Download</text>
  <rect x="218" y="398" width="608" height="1" fill="#2A2E45"/>

  <!-- Action buttons -->
  <use href="#btnPrimary" x="228" y="408" width="160" height="28"/>
  <text x="253" y="426" font-size="10" font-weight="700" fill="#000">+ Submit Deletion Request</text>
  <rect x="398" y="408" width="214" height="28" rx="6" fill="none" stroke="#2A2E45" stroke-width="1"/>
  <text x="412" y="426" font-size="10" fill="#94A3B8">Export Customer Data (GDPR Art. 20)</text>

  <!-- What gets deleted section -->
  <!-- DB: defines which tables are affected per deletion request -->
  <rect x="218" y="446" width="608" height="1" fill="#2A2E45"/>
  <text x="234" y="463" font-size="10" font-weight="700" fill="#94A3B8" letter-spacing="0.5">WHAT GETS DELETED PER REQUEST</text>
  <use href="#gear" x="430" y="453" width="14" height="14"/>

  <!-- DB: pos_customers — anonymized -->
  <text x="234" y="482" font-size="10" fill="#22C55E">+</text>
  <text x="248" y="482" font-size="10" fill="#E2E8F0">pos_customers row</text>
  <text x="356" y="482" font-size="10" fill="#64748B">anonymized (name, email, phone = "DELETED")</text>

  <!-- DB: pos_loyalty_events — customer_id nulled -->
  <text x="234" y="500" font-size="10" fill="#22C55E">+</text>
  <text x="248" y="500" font-size="10" fill="#E2E8F0">pos_loyalty_events</text>
  <text x="356" y="500" font-size="10" fill="#64748B">retained aggregate only, customer_id nulled</text>

  <!-- DB: pos_marketing_consent — deleted -->
  <text x="234" y="518" font-size="10" fill="#22C55E">+</text>
  <text x="248" y="518" font-size="10" fill="#E2E8F0">Email/SMS consent records</text>
  <text x="356" y="518" font-size="10" fill="#64748B">deleted</text>

  <text x="234" y="536" font-size="10" fill="#22C55E">+</text>
  <text x="248" y="536" font-size="10" fill="#E2E8F0">Marketing campaign history</text>
  <text x="356" y="536" font-size="10" fill="#64748B">anonymized</text>

  <!-- DB: pos_payments — retained 7 years (legal basis) -->
  <text x="234" y="556" font-size="10" fill="#F97316">!</text>
  <text x="248" y="556" font-size="10" fill="#E2E8F0">pos_payments</text>
  <text x="356" y="556" font-size="10" fill="#64748B">retained 7 years (financial records — legal basis)</text>

  <!-- DB: pos_audit_log — retained 7 years -->
  <text x="234" y="574" font-size="10" fill="#F97316">!</text>
  <text x="248" y="574" font-size="10" fill="#E2E8F0">pos_audit_log</text>
  <text x="356" y="574" font-size="10" fill="#64748B">retained 7 years (dram shop, tax compliance)</text>

  <!-- DB schema box -->
  <rect x="228" y="586" width="580" height="116" rx="6" fill="#0C0E1A" stroke="#2A2E45" stroke-width="1"/>
  <text x="240" y="603" font-size="9" font-weight="700" fill="#64748B" letter-spacing="0.5">DB SCHEMA</text>
  <!-- DB: pos_privacy_requests -->
  <text x="240" y="620" font-size="9" fill="#8B5CF6" font-family="monospace,monospace">pos_privacy_requests</text>
  <text x="352" y="620" font-size="9" fill="#64748B" font-family="monospace,monospace">(id, customer_id, request_type, requested_at, deadline,</text>
  <text x="240" y="634" font-size="9" fill="#64748B" font-family="monospace,monospace">                     completed_at, completed_by, notes)</text>
  <!-- DB: pos_marketing_consent -->
  <text x="240" y="649" font-size="9" fill="#8B5CF6" font-family="monospace,monospace">pos_marketing_consent</text>
  <text x="362" y="649" font-size="9" fill="#64748B" font-family="monospace,monospace">(customer_id, channel, consented_at, consent_method,</text>
  <text x="240" y="663" font-size="9" fill="#64748B" font-family="monospace,monospace">                      revoked_at, ip_address, consent_text_version)</text>
  <text x="240" y="678" font-size="9" fill="#22C55E" font-family="monospace,monospace">UPDATE pos_customers SET name='DELETED', email=null, phone=null WHERE id=X</text>
  <text x="240" y="693" font-size="9" fill="#22C55E" font-family="monospace,monospace">-- Cron: DELETE pos_customers WHERE created_at &lt; NOW()-interval '2 years'</text>

  <!-- ============================================================ -->
  <!-- PANEL 3 — SMS/Email Consent (right)                          -->
  <!-- DB: pos_marketing_consent                                    -->
  <!-- ============================================================ -->
  <rect x="836" y="170" width="522" height="546" rx="8" fill="url(#cardGrad)" stroke="#2A2E45" stroke-width="1" filter="url(#shadow)"/>

  <text x="854" y="192" font-size="13" font-weight="700" fill="#E2E8F0">Marketing Consent Records</text>
  <use href="#gear" x="1020" y="180" width="14" height="14"/>

  <!-- Email marketing -->
  <!-- DB: SELECT COUNT(*) FROM pos_marketing_consent WHERE channel = 'email' GROUP BY status -->
  <rect x="836" y="200" width="522" height="1" fill="#2A2E45"/>
  <text x="854" y="220" font-size="10" font-weight="700" fill="#94A3B8" letter-spacing="0.5">EMAIL MARKETING</text>
  <use href="#gear" x="948" y="210" width="12" height="12"/>
  <rect x="854" y="228" width="490" height="56" rx="6" fill="#0C0E1A" stroke="#2A2E45" stroke-width="1"/>
  <text x="868" y="246" font-size="18" font-weight="700" fill="#22C55E">1,024</text>
  <text x="868" y="260" font-size="9" fill="#64748B">opted in</text>
  <text x="968" y="246" font-size="18" font-weight="700" fill="#EF4444">87</text>
  <text x="968" y="260" font-size="9" fill="#64748B">opted out</text>
  <text x="1040" y="246" font-size="18" font-weight="700" fill="#F59E0B">43</text>
  <text x="1040" y="260" font-size="9" fill="#64748B">pending confirm</text>
  <text x="1130" y="246" font-size="9" fill="#8B5CF6">CASL</text>
  <text x="1130" y="260" font-size="9" fill="#64748B">double opt-in</text>

  <!-- SMS marketing -->
  <!-- DB: SELECT COUNT(*) FROM pos_marketing_consent WHERE channel = 'sms' GROUP BY status -->
  <text x="854" y="303" font-size="10" font-weight="700" fill="#94A3B8" letter-spacing="0.5">SMS MARKETING (TCPA)</text>
  <use href="#gear" x="1000" y="293" width="12" height="12"/>
  <rect x="854" y="310" width="490" height="56" rx="6" fill="#0C0E1A" stroke="#2A2E45" stroke-width="1"/>
  <text x="868" y="328" font-size="18" font-weight="700" fill="#22C55E">684</text>
  <text x="868" y="342" font-size="9" fill="#64748B">written consent on file</text>
  <text x="988" y="328" font-size="18" font-weight="700" fill="#EF4444">12</text>
  <text x="988" y="342" font-size="9" fill="#64748B">opted out</text>
  <text x="1050" y="325" font-size="9" fill="#64748B" text-anchor="middle">Auto-adds to</text>
  <text x="1050" y="339" font-size="9" fill="#64748B" text-anchor="middle">suppression list</text>
  <text x="1050" y="353" font-size="9" fill="#F59E0B" text-anchor="middle">on STOP reply</text>

  <!-- Push notifications -->
  <!-- DB: SELECT COUNT(*) FROM pos_marketing_consent WHERE channel = 'push' AND status = 'opted_in' -->
  <text x="854" y="385" font-size="10" font-weight="700" fill="#94A3B8" letter-spacing="0.5">PUSH NOTIFICATIONS</text>
  <rect x="854" y="392" width="490" height="36" rx="6" fill="#0C0E1A" stroke="#2A2E45" stroke-width="1"/>
  <text x="868" y="415" font-size="18" font-weight="700" fill="#22C55E">412</text>
  <text x="916" y="415" font-size="10" fill="#64748B">enabled</text>

  <!-- TCPA warning -->
  <rect x="854" y="438" width="490" height="60" rx="6" fill="#2D1515" stroke="#EF4444" stroke-width="1"/>
  <text x="868" y="455" font-size="10" font-weight="700" fill="#EF4444">TCPA Compliance Notice</text>
  <text x="868" y="470" font-size="9" fill="#94A3B8">Each SMS marketing send requires documented written consent.</text>
  <text x="868" y="483" font-size="9" fill="#94A3B8">Violation: $500-$1,500 per text. System blocks sends to</text>
  <text x="868" y="496" font-size="9" fill="#94A3B8">suppressed numbers automatically.</text>

  <!-- CASL double opt-in -->
  <!-- DB: pos_marketing_consent.consent_method = 'double_optin' -->
  <rect x="854" y="508" width="490" height="60" rx="6" fill="#1A1D2E" stroke="#8B5CF6" stroke-width="1"/>
  <text x="868" y="525" font-size="10" font-weight="700" fill="#8B5CF6">Double Opt-In Flow (CASL — Canada)</text>
  <text x="868" y="540" font-size="9" fill="#94A3B8">Signup - confirmation email sent - must click confirm within</text>
  <text x="868" y="554" font-size="9" fill="#94A3B8">10 days. Pending 43 awaiting confirmation before any send.</text>
  <text x="868" y="568" font-size="9" fill="#64748B">Unconfirmed records auto-expire after 10 days.</text>

  <!-- Consent export buttons -->
  <rect x="854" y="580" width="182" height="28" rx="6" fill="none" stroke="#2A2E45" stroke-width="1"/>
  <text x="872" y="598" font-size="10" fill="#94A3B8">Export Consent Records</text>
  <rect x="1046" y="580" width="148" height="28" rx="6" fill="none" stroke="#2A2E45" stroke-width="1"/>
  <text x="1064" y="598" font-size="10" fill="#94A3B8">Suppression List</text>

  <!-- Consent audit trail -->
  <!-- DB: pos_marketing_consent audit columns -->
  <rect x="854" y="618" width="490" height="80" rx="6" fill="#0C0E1A" stroke="#2A2E45" stroke-width="1"/>
  <text x="868" y="636" font-size="9" font-weight="700" fill="#64748B" letter-spacing="0.5">CONSENT AUDIT TRAIL</text>
  <text x="868" y="652" font-size="9" fill="#94A3B8">consent_method stored per record (web-form / POS / import)</text>
  <text x="868" y="666" font-size="9" fill="#94A3B8">ip_address captured at consent time</text>
  <text x="868" y="680" font-size="9" fill="#94A3B8">consent_text_version links to exact disclosure copy</text>
  <text x="868" y="694" font-size="9" fill="#94A3B8">revoked_at timestamp auto-set on STOP / unsubscribe</text>

  <!-- ============================================================ -->
  <!-- PANEL 4 — Data Retention Settings (bottom full width)        -->
  <!-- DB: pos_data_retention_policy (data_type, retention_period,  -->
  <!--     legal_basis, deletable_on_request)                       -->
  <!-- ============================================================ -->
  <rect x="218" y="726" width="1140" height="240" rx="8" fill="url(#cardGrad)" stroke="#2A2E45" stroke-width="1" filter="url(#shadow)"/>
  <text x="234" y="748" font-size="13" font-weight="700" fill="#E2E8F0">Data Retention Schedules</text>
  <use href="#gear" x="400" y="736" width="14" height="14"/>
  <!-- DB: pos_config.retention_cron_schedule -->
  <text x="910" y="748" font-size="10" fill="#64748B">Cron enforces deletion nightly at 02:00 UTC</text>

  <!-- Table header -->
  <rect x="218" y="754" width="1140" height="26" fill="#0C0E1A"/>
  <text x="234" y="771" font-size="9" font-weight="700" fill="#64748B" letter-spacing="0.5">DATA TYPE</text>
  <text x="502" y="771" font-size="9" font-weight="700" fill="#64748B" letter-spacing="0.5">RETENTION PERIOD</text>
  <text x="726" y="771" font-size="9" font-weight="700" fill="#64748B" letter-spacing="0.5">LEGAL BASIS</text>
  <text x="960" y="771" font-size="9" font-weight="700" fill="#64748B" letter-spacing="0.5">DELETABLE ON REQUEST</text>
  <rect x="218" y="780" width="1140" height="1" fill="#2A2E45"/>

  <!-- Row 1 — Customer PII -->
  <!-- DB: pos_customers.name, .email, .phone — 2 years after last visit -->
  <use href="#tableRow" x="218" y="781" width="1140" height="36"/>
  <text x="234" y="799" font-size="10" font-weight="600" fill="#E2E8F0">Customer PII (name / email / phone)</text>
  <text x="234" y="812" font-size="9" fill="#64748B">pos_customers.name, .email, .phone</text>
  <text x="502" y="799" font-size="10" fill="#E2E8F0">2 years after last visit</text>
  <use href="#gear" x="625" y="790" width="12" height="12"/>
  <text x="726" y="799" font-size="10" fill="#94A3B8">Business records / loyalty</text>
  <use href="#badgeDeletable" x="960" y="786" width="90" height="18"/>
  <text x="975" y="799" font-size="9" font-weight="700" fill="#22C55E">Deletable</text>
  <rect x="218" y="817" width="1140" height="1" fill="#2A2E45"/>

  <!-- Row 2 — Payment records -->
  <!-- DB: pos_payments — 7 years IRS -->
  <use href="#tableRow" x="218" y="818" width="1140" height="36"/>
  <text x="234" y="836" font-size="10" font-weight="600" fill="#E2E8F0">Payment records</text>
  <text x="234" y="849" font-size="9" fill="#64748B">pos_payments</text>
  <text x="502" y="836" font-size="10" fill="#F97316">7 years</text>
  <use href="#gear" x="555" y="827" width="12" height="12"/>
  <text x="726" y="836" font-size="10" fill="#94A3B8">IRS Rev. Proc. 98-25 / financial law</text>
  <use href="#badgeNotDeletable" x="960" y="823" width="108" height="18"/>
  <text x="972" y="836" font-size="9" font-weight="700" fill="#EF4444">Not deletable</text>
  <rect x="218" y="854" width="1140" height="1" fill="#2A2E45"/>

  <!-- Row 3 — Audit log -->
  <!-- DB: pos_audit_log — 7 years -->
  <use href="#tableRow" x="218" y="855" width="1140" height="36"/>
  <text x="234" y="873" font-size="10" font-weight="600" fill="#E2E8F0">Audit log</text>
  <text x="234" y="886" font-size="9" fill="#64748B">pos_audit_log</text>
  <text x="502" y="873" font-size="10" fill="#F97316">7 years</text>
  <text x="726" y="873" font-size="10" fill="#94A3B8">Dram shop liability / state tax law</text>
  <use href="#badgeNotDeletable" x="960" y="860" width="108" height="18"/>
  <text x="972" y="873" font-size="9" font-weight="700" fill="#EF4444">Not deletable</text>
  <rect x="218" y="891" width="1140" height="1" fill="#2A2E45"/>

  <!-- Row 4 — Order history -->
  <!-- DB: pos_orders — 3 years, anonymizable -->
  <use href="#tableRow" x="218" y="892" width="1140" height="36"/>
  <text x="234" y="910" font-size="10" font-weight="600" fill="#E2E8F0">Order history</text>
  <text x="234" y="923" font-size="9" fill="#64748B">pos_orders</text>
  <text x="502" y="910" font-size="10" fill="#E2E8F0">3 years</text>
  <use href="#gear" x="555" y="901" width="12" height="12"/>
  <text x="726" y="910" font-size="10" fill="#94A3B8">Business / loyalty analytics</text>
  <rect x="960" y="897" width="118" height="18" rx="9" fill="#1E2235" stroke="#F59E0B" stroke-width="1"/>
  <text x="970" y="910" font-size="9" font-weight="700" fill="#F59E0B">~ Anonymizable</text>
  <rect x="218" y="928" width="1140" height="1" fill="#2A2E45"/>

  <!-- Row 5 — Loyalty events -->
  <!-- DB: pos_loyalty_events — until account deleted -->
  <use href="#tableRow" x="218" y="929" width="1140" height="36"/>
  <text x="234" y="947" font-size="10" font-weight="600" fill="#E2E8F0">Loyalty points history</text>
  <text x="234" y="960" font-size="9" fill="#64748B">pos_loyalty_events</text>
  <text x="502" y="947" font-size="10" fill="#E2E8F0">Until account deleted</text>
  <text x="726" y="947" font-size="10" fill="#94A3B8">Customer benefit</text>
  <use href="#badgeDeletable" x="960" y="934" width="90" height="18"/>
  <text x="975" y="947" font-size="9" font-weight="700" fill="#22C55E">Deletable</text>

  <!-- ===== SAVE BAR ===== -->
  <rect x="218" y="974" width="1140" height="1" fill="#2A2E45"/>
  <rect x="1186" y="984" width="160" height="32" rx="7" fill="url(#amberGrad)" filter="url(#shadow)"/>
  <text x="1266" y="1004" fill="#0C0E1A" font-size="12" font-weight="700" text-anchor="middle">Save Changes</text>

  <!-- Footer note -->
  <text x="234" y="1004" font-size="9" fill="#64748B">Retention schedules reviewed quarterly by compliance lead. Last updated: May 1, 2026. Consult legal counsel for jurisdiction-specific obligations.</text>

</svg>