<svg role="img" aria-labelledby="title-settings_payroll-svg" xmlns="http://www.w3.org/2000/svg" viewBox="0 0 1366 1024" font-family="-apple-system,system-ui,BlinkMacSystemFont,sans-serif">

  <!-- ============================================================
       SETTINGS: Payroll
       DB: pos_payroll_runs, pos_payroll_items, pos_employees,
           pos_tax_deposits, pos_payroll_integrations, pos_labor_rules
       Admin portal — all fields editable + saveable
       ============================================================ -->

  <title id="title-settings_payroll-svg">Synalux POS — payroll</title>
  <desc>Synalux POS mockup screen for payroll. All UI elements admin-configurable.</desc>
  <defs>
    <!-- Gradients -->
    <linearGradient id="headerGrad" x1="0" y1="0" x2="0" y2="1">
      <stop offset="0%" stop-color="#1E2235"/>
      <stop offset="100%" stop-color="#181B30"/>
    </linearGradient>
    <linearGradient id="amberBtnGrad" x1="0" y1="0" x2="0" y2="1">
      <stop offset="0%" stop-color="#FBBF24"/>
      <stop offset="100%" stop-color="#F59E0B"/>
    </linearGradient>
    <linearGradient id="cardGrad" x1="0" y1="0" x2="0" y2="1">
      <stop offset="0%" stop-color="#1A1D2E"/>
      <stop offset="100%" stop-color="#161925"/>
    </linearGradient>
    <linearGradient id="navGrad" x1="0" y1="0" x2="1" y2="0">
      <stop offset="0%" stop-color="#10122A"/>
      <stop offset="100%" stop-color="#161930"/>
    </linearGradient>
    <linearGradient id="greenBtnGrad" x1="0" y1="0" x2="0" y2="1">
      <stop offset="0%" stop-color="#34D399"/>
      <stop offset="100%" stop-color="#22C55E"/>
    </linearGradient>
    <linearGradient id="netPayGrad" x1="0" y1="0" x2="0" y2="1">
      <stop offset="0%" stop-color="#0C2A1C"/>
      <stop offset="100%" stop-color="#0A1F14"/>
    </linearGradient>

    <!-- Filters -->
    <filter id="shadow" x="-4%" y="-4%" width="108%" height="112%">
      <feDropShadow dx="0" dy="2" stdDeviation="4" flood-color="#000000" flood-opacity="0.35"/>
    </filter>
    <filter id="shadowSm" x="-2%" y="-2%" width="104%" height="108%">
      <feDropShadow dx="0" dy="1" stdDeviation="2" flood-color="#000000" flood-opacity="0.25"/>
    </filter>

    <!-- ===== SYMBOLS ===== -->

    <!-- Admin gear icon -->
    <symbol id="adminGear" viewBox="0 0 12 12">
      <path d="M6 0l.9 2.1L9 1.5l-.6 2.1H10.5L9 5.1l1.5 1.5-2.1-.6.6 2.1-1.5-1.5L6 8.7 4.5 6.6 3 8.1l.6-2.1-2.1.6L3 5.1.5 3.6H3L2.4 1.5l2.1.6z"
        fill="#F59E0B" opacity="0.7"/>
    </symbol>

    <!-- Active nav item -->
    <symbol id="navItemActive" viewBox="0 0 200 36">
      <rect width="200" height="36" fill="#1E2235"/>
  <!-- Synalux POS -->
      <rect width="3" height="36" fill="#F59E0B"/>
    </symbol>

    <!-- Status dot (ready) -->
    <symbol id="statusReady" viewBox="0 0 10 10">
      <circle cx="5" cy="5" r="5" fill="#22C55E"/>
    </symbol>

    <!-- Status dot (needs review) -->
    <symbol id="statusWarn" viewBox="0 0 10 10">
      <circle cx="5" cy="5" r="5" fill="#F59E0B"/>
    </symbol>

    <!-- Chevron left/right for period nav -->
    <symbol id="chevronLeft" viewBox="0 0 10 12">
      <polygon points="10,0 0,6 10,12" fill="#94A3B8"/>
    </symbol>
    <symbol id="chevronRight" viewBox="0 0 10 12">
      <polygon points="0,0 10,6 0,12" fill="#94A3B8"/>
    </symbol>

    <!-- Table row divider -->
    <symbol id="rowDiv" viewBox="0 0 610 1">
      <rect width="610" height="1" fill="#2A2E45"/>
    </symbol>
  </defs>

  <!-- ===== BACKGROUND ===== -->
  <rect width="1366" height="1024" fill="#0C0E1A"/>

  <!-- ===== LEFT NAV ===== -->
  <!-- DB: pos_admin_navigation -->
  <rect x="0" y="0" width="200" height="1024" fill="url(#navGrad)"/>
  <rect x="199" y="0" width="1" height="1024" fill="#2A2E45"/>

  <text x="16" y="30" font-size="13" font-weight="700" fill="#F59E0B">Back Office</text>
  <use href="#adminGear" x="96" y="19" width="12" height="12"/>

  <text x="16" y="67" font-size="12" fill="#94A3B8">Restaurant Info</text>
  <text x="16" y="103" font-size="12" fill="#94A3B8">Menu Builder</text>
  <text x="16" y="139" font-size="12" fill="#94A3B8">Taxes</text>
  <text x="16" y="175" font-size="12" fill="#94A3B8">Employees</text>
  <text x="16" y="211" font-size="12" fill="#94A3B8">Scheduling</text>
  <text x="16" y="247" font-size="12" fill="#94A3B8">Tip Pooling</text>
  <text x="16" y="283" font-size="12" fill="#94A3B8">Auto-Gratuity</text>
  <text x="16" y="319" font-size="12" fill="#94A3B8">Overtime</text>
  <text x="16" y="355" font-size="12" fill="#94A3B8">Break Tracking</text>

  <!-- Active: Payroll -->
  <use href="#navItemActive" x="0" y="367" width="200" height="36"/>
  <text x="16" y="390" font-size="12" font-weight="700" fill="#F59E0B">Payroll</text>

  <text x="16" y="427" font-size="12" fill="#94A3B8">Tax Filings</text>
  <text x="16" y="463" font-size="12" fill="#94A3B8">Cash Management</text>
  <text x="16" y="499" font-size="12" fill="#94A3B8">Revenue Centers</text>
  <text x="16" y="535" font-size="12" fill="#94A3B8">Discounts &amp; Promos</text>
  <text x="16" y="571" font-size="12" fill="#94A3B8">Gift Cards</text>
  <text x="16" y="607" font-size="12" fill="#94A3B8">Reports</text>
  <text x="16" y="643" font-size="12" fill="#94A3B8">Integrations</text>
  <text x="16" y="679" font-size="12" fill="#94A3B8">Inventory</text>
  <text x="16" y="715" font-size="12" fill="#94A3B8">Label Printer</text>
  <text x="16" y="751" font-size="12" fill="#94A3B8">Training Mode</text>

  <!-- ============================================================
       LEFT PANEL (x=200, w=340) — Employee List
       DB: pos_payroll_runs JOIN pos_payroll_items JOIN pos_employees
       ============================================================ -->

  <!-- Panel header -->
  <rect x="200" y="0" width="340" height="58" fill="url(#headerGrad)" filter="url(#shadowSm)"/>
  <rect x="200" y="58" width="340" height="1" fill="#2A2E45"/>
  <text x="218" y="25" font-size="18" font-weight="700" fill="#E2E8F0">Payroll</text>
  <!-- DB: pos_payroll_runs.period_start, period_end, frequency -->
  <text x="218" y="45" font-size="11" fill="#64748B">May 19-25, 2026 | Weekly</text>

  <!-- Run Payroll button -->
  <rect x="432" y="11" width="98" height="32" rx="6" fill="url(#amberBtnGrad)" filter="url(#shadowSm)"/>
  <text x="481" y="32" font-size="12" font-weight="700" fill="#0C0E1A" text-anchor="middle">Run Payroll</text>

  <!-- Pay period selector -->
  <!-- DB: pos_payroll_runs.period navigation -->
  <rect x="208" y="66" width="324" height="38" rx="6" fill="url(#cardGrad)" stroke="#2A2E45" stroke-width="1"/>
  <use href="#chevronLeft" x="216" y="79" width="10" height="12"/>
  <text x="370" y="89" font-size="12" font-weight="600" fill="#E2E8F0" text-anchor="middle">May 19-25, 2026 (Weekly)</text>
  <use href="#adminGear" x="458" y="81" width="10" height="10"/>
  <use href="#chevronRight" x="508" y="79" width="10" height="12"/>

  <!-- Employee list header -->
  <rect x="208" y="112" width="324" height="24" rx="4" fill="#0C0E1A"/>
  <text x="220" y="128" font-size="10" font-weight="700" fill="#64748B">EMPLOYEE</text>
  <text x="360" y="128" font-size="10" font-weight="700" fill="#64748B">HRS</text>
  <text x="404" y="128" font-size="10" font-weight="700" fill="#64748B">GROSS</text>
  <text x="516" y="128" font-size="10" font-weight="700" fill="#64748B" text-anchor="end">ST</text>

  <!-- Row 1: Sarah M. (ready) -->
  <!-- DB: pos_payroll_items WHERE employee_id=1001, status=ready -->
  <rect x="208" y="138" width="324" height="50" rx="4" fill="url(#cardGrad)"/>
  <rect x="208" y="188" width="324" height="1" fill="#2A2E45"/>
  <use href="#statusReady" x="214" y="158" width="10" height="10"/>
  <text x="232" y="160" font-size="13" font-weight="600" fill="#E2E8F0">Sarah M.</text>
  <text x="232" y="175" font-size="10" fill="#94A3B8">Server</text>
  <use href="#adminGear" x="280" y="151" width="10" height="10"/>
  <text x="354" y="160" font-size="12" fill="#E2E8F0" text-anchor="end">38.5h</text>
  <text x="520" y="160" font-size="13" font-weight="600" fill="#22C55E" text-anchor="end">$892.45</text>

  <!-- Row 2: John K. (ready) -->
  <!-- DB: pos_payroll_items WHERE employee_id=1002, status=ready -->
  <rect x="208" y="190" width="324" height="50" rx="4" fill="url(#cardGrad)"/>
  <rect x="208" y="240" width="324" height="1" fill="#2A2E45"/>
  <use href="#statusReady" x="214" y="210" width="10" height="10"/>
  <text x="232" y="212" font-size="13" font-weight="600" fill="#E2E8F0">John K.</text>
  <text x="232" y="227" font-size="10" fill="#94A3B8">Bartender</text>
  <use href="#adminGear" x="290" y="203" width="10" height="10"/>
  <text x="354" y="212" font-size="12" fill="#E2E8F0" text-anchor="end">42.0h</text>
  <text x="520" y="212" font-size="13" font-weight="600" fill="#22C55E" text-anchor="end">$1,104.20</text>

  <!-- Row 3: Maria G. (ready) -->
  <!-- DB: pos_payroll_items WHERE employee_id=1003, status=ready -->
  <rect x="208" y="242" width="324" height="50" rx="4" fill="url(#cardGrad)"/>
  <rect x="208" y="292" width="324" height="1" fill="#2A2E45"/>
  <use href="#statusReady" x="214" y="262" width="10" height="10"/>
  <text x="232" y="264" font-size="13" font-weight="600" fill="#E2E8F0">Maria G.</text>
  <text x="232" y="279" font-size="10" fill="#94A3B8">Host</text>
  <use href="#adminGear" x="260" y="255" width="10" height="10"/>
  <text x="354" y="264" font-size="12" fill="#E2E8F0" text-anchor="end">32.0h</text>
  <text x="520" y="264" font-size="13" font-weight="600" fill="#22C55E" text-anchor="end">$688.00</text>

  <!-- Row 4: Carlos R. (selected + needs OT review) -->
  <!-- DB: pos_payroll_items WHERE employee_id=1005, status=needs_review -->
  <rect x="208" y="294" width="324" height="50" rx="4" fill="#1E2235" stroke="#F59E0B" stroke-width="1.5"/>
  <use href="#statusWarn" x="214" y="314" width="10" height="10"/>
  <text x="232" y="316" font-size="13" font-weight="700" fill="#F59E0B">Carlos R.</text>
  <text x="232" y="331" font-size="10" fill="#94A3B8">Cook</text>
  <use href="#adminGear" x="262" y="307" width="10" height="10"/>
  <text x="354" y="316" font-size="12" fill="#E2E8F0" text-anchor="end">44.5h</text>
  <text x="520" y="316" font-size="13" font-weight="700" fill="#F59E0B" text-anchor="end">$1,022.50</text>
  <!-- OT badge -->
  <rect x="362" y="326" width="80" height="13" rx="3" fill="#451A03"/>
  <text x="402" y="336" font-size="9" font-weight="700" fill="#F97316" text-anchor="middle">NEEDS OT REVIEW</text>

  <!-- Row 5: Lisa T. (ready) -->
  <!-- DB: pos_payroll_items WHERE employee_id=1006, status=ready -->
  <rect x="208" y="350" width="324" height="50" rx="4" fill="url(#cardGrad)"/>
  <rect x="208" y="400" width="324" height="1" fill="#2A2E45"/>
  <use href="#statusReady" x="214" y="370" width="10" height="10"/>
  <text x="232" y="372" font-size="13" font-weight="600" fill="#E2E8F0">Lisa T.</text>
  <text x="232" y="387" font-size="10" fill="#94A3B8">Manager</text>
  <use href="#adminGear" x="283" y="363" width="10" height="10"/>
  <text x="354" y="372" font-size="12" fill="#E2E8F0" text-anchor="end">40.0h</text>
  <text x="520" y="372" font-size="13" font-weight="600" fill="#22C55E" text-anchor="end">$1,440.00</text>

  <!-- Row 6: Tom B. (ready) -->
  <!-- DB: pos_payroll_items WHERE employee_id=1007, status=ready -->
  <rect x="208" y="402" width="324" height="50" rx="4" fill="url(#cardGrad)"/>
  <rect x="208" y="452" width="324" height="1" fill="#2A2E45"/>
  <use href="#statusReady" x="214" y="422" width="10" height="10"/>
  <text x="232" y="424" font-size="13" font-weight="600" fill="#E2E8F0">Tom B.</text>
  <text x="232" y="439" font-size="10" fill="#94A3B8">Busser</text>
  <use href="#adminGear" x="270" y="415" width="10" height="10"/>
  <text x="354" y="424" font-size="12" fill="#E2E8F0" text-anchor="end">28.0h</text>
  <text x="520" y="424" font-size="13" font-weight="600" fill="#22C55E" text-anchor="end">$476.00</text>

  <!-- Left panel footer -->
  <!-- DB: SUM aggregates from pos_payroll_items -->
  <rect x="208" y="458" width="324" height="36" rx="4" fill="#0C0E1A" stroke="#2A2E45" stroke-width="1"/>
  <text x="370" y="470" font-size="10" fill="#64748B" text-anchor="middle">6 employees</text>
  <text x="370" y="486" font-size="12" font-weight="700" fill="#E2E8F0" text-anchor="middle">Total Gross: $5,623.15</text>

  <!-- Tabs -->
  <rect x="208" y="502" width="324" height="34" fill="#0C0E1A" stroke="#2A2E45" stroke-width="1"/>
  <rect x="208" y="502" width="108" height="34" fill="#1E2235"/>
  <rect x="208" y="534" width="108" height="2" fill="#F59E0B"/>
  <text x="262" y="523" font-size="11" font-weight="700" fill="#F59E0B" text-anchor="middle">This Period</text>
  <text x="370" y="523" font-size="11" fill="#64748B" text-anchor="middle">History</text>
  <text x="478" y="523" font-size="11" fill="#64748B" text-anchor="middle">Tax Filings</text>
  <rect x="316" y="510" width="1" height="18" fill="#2A2E45"/>
  <rect x="424" y="510" width="1" height="18" fill="#2A2E45"/>

  <!-- Vertical divider -->
  <rect x="540" y="0" width="1" height="1024" fill="#2A2E45"/>

  <!-- ============================================================
       CENTER PANEL (x=540, w=626) — Employee Payroll Detail
       DB: pos_payroll_items WHERE employee_id=1005, run_id=current
       ============================================================ -->

  <!-- Center panel header -->
  <rect x="540" y="0" width="626" height="58" fill="url(#headerGrad)" filter="url(#shadowSm)"/>
  <rect x="540" y="58" width="626" height="1" fill="#2A2E45"/>
  <text x="558" y="24" font-size="17" font-weight="700" fill="#E2E8F0">Carlos R. -- Line Cook</text>
  <!-- DB: pos_employees.id, pos_payroll_runs.period -->
  <text x="558" y="44" font-size="11" fill="#64748B">Pay Period: May 19-25, 2026 | Employee #1042</text>
  <use href="#adminGear" x="780" y="35" width="10" height="10"/>
  <!-- Edit button -->
  <rect x="1076" y="13" width="80" height="30" rx="5" fill="url(#cardGrad)" stroke="#2A2E45" stroke-width="1"/>
  <text x="1116" y="32" font-size="11" fill="#94A3B8" text-anchor="middle">Edit Hours</text>

  <!-- CA OT notice banner -->
  <!-- DB: pos_labor_rules.jurisdiction=CA, pos_labor_rules.daily_ot_threshold_hours=8 -->
  <rect x="548" y="66" width="610" height="36" rx="5" fill="#1C1108" stroke="#F97316" stroke-width="1" filter="url(#shadowSm)"/>
  <text x="562" y="81" font-size="11" font-weight="700" fill="#F97316">CA Labor Code S510</text>
  <use href="#adminGear" x="680" y="71" width="10" height="10"/>
  <text x="562" y="96" font-size="10" fill="#FED7AA">Daily OT: Day 5 exceeded 8h - 1.5x rate applied automatically. Verify daily punch log before approving.</text>

  <!-- EARNINGS section -->
  <!-- DB: pos_payroll_items.earnings jsonb -->
  <text x="558" y="126" font-size="13" font-weight="700" fill="#94A3B8">EARNINGS</text>
  <use href="#adminGear" x="628" y="116" width="10" height="10"/>
  <rect x="548" y="132" width="610" height="192" rx="6" fill="url(#cardGrad)" stroke="#2A2E45" stroke-width="1"/>

  <!-- Earnings table header -->
  <rect x="548" y="132" width="610" height="28" rx="6" fill="#0C0E1A"/>
  <text x="566" y="150" font-size="10" font-weight="700" fill="#64748B">TYPE</text>
  <text x="890" y="150" font-size="10" font-weight="700" fill="#64748B" text-anchor="end">RATE / QTY</text>
  <text x="1150" y="150" font-size="10" font-weight="700" fill="#64748B" text-anchor="end">AMOUNT</text>

  <!-- Regular Pay -->
  <!-- DB: pos_payroll_items.regular_hours, pos_employees.hourly_rate -->
  <use href="#rowDiv" x="548" y="160" width="610" height="1"/>
  <text x="566" y="178" font-size="12" fill="#E2E8F0">Regular Pay</text>
  <use href="#adminGear" x="638" y="168" width="10" height="10"/>
  <text x="890" y="178" font-size="11" fill="#94A3B8" text-anchor="end">40h x $22.50/h</text>
  <text x="1150" y="178" font-size="13" font-weight="600" fill="#E2E8F0" text-anchor="end">$900.00</text>

  <!-- Overtime -->
  <!-- DB: pos_payroll_items.ot_hours, ot_multiplier, ot_reason -->
  <use href="#rowDiv" x="548" y="186" width="610" height="1"/>
  <text x="566" y="204" font-size="12" fill="#F97316">Overtime (1.5x)</text>
  <use href="#adminGear" x="668" y="194" width="10" height="10"/>
  <text x="890" y="204" font-size="11" fill="#94A3B8" text-anchor="end">4.5h x $33.75/h</text>
  <text x="1150" y="204" font-size="13" font-weight="600" fill="#F97316" text-anchor="end">$151.88</text>
  <rect x="566" y="208" width="150" height="13" rx="3" fill="#2C1810"/>
  <text x="641" y="218" font-size="9" fill="#F97316" text-anchor="middle">CA Daily OT -- Day 5 &gt;8h</text>

  <!-- Tips Declared -->
  <!-- DB: pos_cash_tip_declarations WHERE employee_id=1005 -->
  <use href="#rowDiv" x="548" y="224" width="610" height="1"/>
  <text x="566" y="242" font-size="12" fill="#E2E8F0">Tips Declared</text>
  <text x="890" y="242" font-size="11" fill="#64748B" text-anchor="end">Self-reported</text>
  <text x="1150" y="242" font-size="13" fill="#64748B" text-anchor="end">$0.00</text>

  <!-- IRS Allocated Tips -->
  <!-- DB: pos_payroll_items.irs_allocated_tips (8% rule) -->
  <use href="#rowDiv" x="548" y="250" width="610" height="1"/>
  <text x="566" y="268" font-size="12" fill="#E2E8F0">Tip Allocated (IRS 8%)</text>
  <text x="890" y="268" font-size="11" fill="#64748B" text-anchor="end">IRS Form 8027</text>
  <text x="1150" y="268" font-size="13" fill="#64748B" text-anchor="end">$0.00</text>

  <!-- Gross total -->
  <!-- DB: pos_payroll_items.gross_pay_cents -->
  <use href="#rowDiv" x="548" y="276" width="610" height="1"/>
  <rect x="548" y="277" width="610" height="47" fill="url(#cardGrad)"/>
  <use href="#rowDiv" x="548" y="323" width="610" height="1"/>
  <text x="566" y="308" font-size="14" font-weight="700" fill="#E2E8F0">Gross Pay</text>
  <text x="1150" y="308" font-size="16" font-weight="800" fill="#22C55E" text-anchor="end">$1,051.88</text>

  <!-- DEDUCTIONS section -->
  <!-- DB: pos_payroll_items.deductions jsonb -->
  <text x="558" y="346" font-size="13" font-weight="700" fill="#94A3B8">DEDUCTIONS</text>
  <use href="#adminGear" x="646" y="336" width="10" height="10"/>
  <rect x="548" y="352" width="610" height="238" rx="6" fill="url(#cardGrad)" stroke="#2A2E45" stroke-width="1"/>

  <rect x="548" y="352" width="610" height="28" rx="6" fill="#0C0E1A"/>
  <text x="566" y="370" font-size="10" font-weight="700" fill="#64748B">DEDUCTION</text>
  <text x="890" y="370" font-size="10" font-weight="700" fill="#64748B" text-anchor="end">RATE</text>
  <text x="1150" y="370" font-size="10" font-weight="700" fill="#64748B" text-anchor="end">AMOUNT</text>

  <!-- Federal Income Tax -->
  <!-- DB: pos_payroll_items.deductions.federal_income_tax -->
  <use href="#rowDiv" x="548" y="380" width="610" height="1"/>
  <text x="566" y="398" font-size="12" fill="#E2E8F0">Federal Income Tax</text>
  <use href="#adminGear" x="690" y="388" width="10" height="10"/>
  <text x="890" y="398" font-size="11" fill="#94A3B8" text-anchor="end">22%</text>
  <text x="1150" y="398" font-size="13" fill="#EF4444" text-anchor="end">-$188.45</text>

  <!-- State Tax -->
  <!-- DB: pos_payroll_items.deductions.state_tax, pos_labor_rules.state=CA -->
  <use href="#rowDiv" x="548" y="406" width="610" height="1"/>
  <text x="566" y="424" font-size="12" fill="#E2E8F0">State Tax (CA)</text>
  <use href="#adminGear" x="654" y="414" width="10" height="10"/>
  <text x="890" y="424" font-size="11" fill="#94A3B8" text-anchor="end">9.3%</text>
  <text x="1150" y="424" font-size="13" fill="#EF4444" text-anchor="end">-$97.82</text>

  <!-- FICA -->
  <!-- DB: pos_payroll_items.deductions.fica_employee -->
  <use href="#rowDiv" x="548" y="432" width="610" height="1"/>
  <text x="566" y="450" font-size="12" fill="#E2E8F0">FICA (Employee)</text>
  <text x="890" y="450" font-size="11" fill="#94A3B8" text-anchor="end">7.65%</text>
  <text x="1150" y="450" font-size="13" fill="#EF4444" text-anchor="end">-$80.47</text>

  <!-- Health Insurance -->
  <!-- DB: pos_payroll_items.deductions.health_insurance -->
  <use href="#rowDiv" x="548" y="458" width="610" height="1"/>
  <text x="566" y="476" font-size="12" fill="#E2E8F0">Health Insurance</text>
  <use href="#adminGear" x="660" y="466" width="10" height="10"/>
  <text x="890" y="476" font-size="11" fill="#64748B" text-anchor="end">pre-tax</text>
  <text x="1150" y="476" font-size="13" fill="#EF4444" text-anchor="end">-$85.00</text>

  <!-- 401k -->
  <!-- DB: pos_payroll_items.deductions.retirement_401k -->
  <use href="#rowDiv" x="548" y="484" width="610" height="1"/>
  <text x="566" y="502" font-size="12" fill="#E2E8F0">401(k) Contribution</text>
  <use href="#adminGear" x="686" y="492" width="10" height="10"/>
  <text x="890" y="502" font-size="11" fill="#94A3B8" text-anchor="end">4%</text>
  <text x="1150" y="502" font-size="13" fill="#EF4444" text-anchor="end">-$42.08</text>

  <!-- Total Deductions -->
  <!-- DB: SUM(pos_payroll_items.deductions.*) -->
  <use href="#rowDiv" x="548" y="510" width="610" height="1"/>
  <rect x="548" y="511" width="610" height="37" fill="url(#cardGrad)"/>
  <use href="#rowDiv" x="548" y="548" width="610" height="1"/>
  <text x="566" y="536" font-size="13" font-weight="700" fill="#E2E8F0">Total Deductions</text>
  <text x="1150" y="536" font-size="15" font-weight="700" fill="#EF4444" text-anchor="end">-$493.82</text>

  <!-- NET PAY card -->
  <!-- DB: pos_payroll_items.net_pay_cents -->
  <rect x="548" y="560" width="610" height="76" rx="8" fill="url(#netPayGrad)" stroke="#22C55E" stroke-width="2" filter="url(#shadow)"/>
  <text x="566" y="588" font-size="13" font-weight="700" fill="#22C55E">NET PAY</text>
  <text x="1150" y="608" font-size="32" font-weight="800" fill="#22C55E" text-anchor="end">$558.06</text>
  <!-- DB: pos_employees.direct_deposit_account -->
  <text x="566" y="625" font-size="11" fill="#86EFAC">Direct Deposit - Chase **6721 | Est. arrival May 26</text>
  <use href="#adminGear" x="810" y="615" width="10" height="10"/>

  <!-- EMPLOYER COSTS -->
  <!-- DB: pos_payroll_items.employer_costs jsonb -->
  <rect x="548" y="648" width="610" height="48" rx="6" fill="url(#cardGrad)" stroke="#2A2E45" stroke-width="1"/>
  <text x="566" y="666" font-size="10" font-weight="700" fill="#64748B">EMPLOYER COSTS (not deducted from employee)</text>
  <use href="#adminGear" x="828" y="656" width="10" height="10"/>
  <text x="566" y="686" font-size="11" fill="#94A3B8">FICA ER Match: $80.47</text>
  <text x="750" y="686" font-size="11" fill="#94A3B8">FUTA: $7.36</text>
  <text x="870" y="686" font-size="11" fill="#94A3B8">CA SUTA: $42.08</text>
  <text x="1020" y="686" font-size="11" fill="#94A3B8">Total ER: $129.91</text>

  <!-- CA Daily OT audit trail -->
  <!-- DB: pos_payroll_items.ot_audit_trail jsonb -->
  <rect x="548" y="708" width="610" height="42" rx="5" fill="#1C1108" stroke="#2A2E45" stroke-width="1"/>
  <text x="566" y="725" font-size="10" font-weight="700" fill="#F97316">CA Labor Code S510 -- Daily OT Calculation</text>
  <text x="566" y="742" font-size="10" fill="#FED7AA">Day 5 (Thu May 23): 9.5h worked - 8h regular + 1.5h OT @ 1.5x | Weekly total regular capped at 40h</text>

  <!-- Vertical divider -->
  <rect x="1166" y="0" width="1" height="1024" fill="#2A2E45"/>

  <!-- ============================================================
       RIGHT PANEL (x=1166, w=200) — Pay Period Actions
       DB: pos_payroll_runs, pos_ach_batches, pos_tax_deposits
       ============================================================ -->

  <rect x="1166" y="0" width="200" height="58" fill="url(#headerGrad)" filter="url(#shadowSm)"/>
  <rect x="1166" y="58" width="200" height="1" fill="#2A2E45"/>
  <text x="1180" y="26" font-size="14" font-weight="700" fill="#E2E8F0">Pay Period Actions</text>
  <text x="1180" y="44" font-size="10" fill="#64748B">May 19-25, 2026</text>

  <!-- ACH Status card -->
  <!-- DB: pos_ach_batches WHERE payroll_run_id=current -->
  <rect x="1174" y="68" width="184" height="120" rx="7" fill="url(#cardGrad)" stroke="#2A2E45" stroke-width="1" filter="url(#shadowSm)"/>
  <text x="1183" y="85" font-size="11" font-weight="700" fill="#E2E8F0">ACH Batch #2847</text>
  <use href="#adminGear" x="1292" y="75" width="10" height="10"/>
  <text x="1183" y="100" font-size="10" fill="#64748B">Scheduled: May 26 | 8:00 AM</text>
  <rect x="1174" y="106" width="184" height="1" fill="#2A2E45"/>
  <text x="1183" y="120" font-size="10" fill="#94A3B8">Total Disbursement</text>
  <text x="1183" y="135" font-size="15" font-weight="700" fill="#E2E8F0">$18,432.17</text>
  <rect x="1183" y="143" width="88" height="16" rx="4" fill="#292108"/>
  <text x="1227" y="154" font-size="9" font-weight="700" fill="#F59E0B" text-anchor="middle">PENDING APPROVAL</text>
  <rect x="1183" y="163" width="170" height="22" rx="5" fill="url(#amberBtnGrad)"/>
  <text x="1268" y="178" font-size="10" font-weight="700" fill="#0C0E1A" text-anchor="middle">Approve &amp; Send</text>

  <!-- Tax Deposit card -->
  <!-- DB: pos_tax_deposits WHERE payroll_run_id=current -->
  <rect x="1174" y="198" width="184" height="128" rx="7" fill="url(#cardGrad)" stroke="#2A2E45" stroke-width="1" filter="url(#shadowSm)"/>
  <text x="1183" y="215" font-size="11" font-weight="700" fill="#E2E8F0">Tax Deposits</text>
  <use href="#adminGear" x="1268" y="205" width="10" height="10"/>
  <text x="1183" y="229" font-size="10" fill="#64748B">EFTPS Due: May 31, 2026</text>
  <rect x="1174" y="234" width="184" height="1" fill="#2A2E45"/>
  <text x="1183" y="250" font-size="10" fill="#94A3B8">941 Federal Payroll Tax</text>
  <text x="1350" y="250" font-size="11" font-weight="600" fill="#E2E8F0" text-anchor="end">$3,841.20</text>
  <text x="1183" y="268" font-size="10" fill="#94A3B8">CA EDD (State)</text>
  <text x="1350" y="268" font-size="11" font-weight="600" fill="#E2E8F0" text-anchor="end">$892.40</text>
  <rect x="1183" y="278" width="80" height="16" rx="4" fill="#2C0A0A"/>
  <text x="1223" y="289" font-size="9" font-weight="700" fill="#EF4444" text-anchor="middle">NOT FILED</text>
  <rect x="1183" y="300" width="170" height="22" rx="5" fill="#EF4444"/>
  <text x="1268" y="315" font-size="10" font-weight="700" fill="#FFFFFF" text-anchor="middle">File Now</text>

  <!-- YTD / W-2 card -->
  <!-- DB: pos_payroll_ytd WHERE year=2026 -->
  <rect x="1174" y="336" width="184" height="88" rx="7" fill="url(#cardGrad)" stroke="#2A2E45" stroke-width="1"/>
  <text x="1183" y="354" font-size="11" font-weight="700" fill="#E2E8F0">Year-to-Date</text>
  <rect x="1174" y="360" width="184" height="1" fill="#2A2E45"/>
  <text x="1183" y="377" font-size="10" fill="#94A3B8">W-2 Progress</text>
  <text x="1350" y="377" font-size="11" font-weight="600" fill="#E2E8F0" text-anchor="end">6 employees</text>
  <text x="1183" y="394" font-size="10" fill="#94A3B8">YTD Gross (All Staff)</text>
  <text x="1350" y="394" font-size="11" font-weight="600" fill="#E2E8F0" text-anchor="end">$141,428.00</text>
  <text x="1183" y="416" font-size="10" fill="#64748B">W-2s ready: Jan 31, 2027</text>

  <!-- On-Demand Pay card -->
  <!-- DB: pos_ondemand_pay_requests WHERE status=pending -->
  <rect x="1174" y="434" width="184" height="74" rx="7" fill="url(#cardGrad)" stroke="#8B5CF6" stroke-width="1"/>
  <rect x="1174" y="434" width="3" height="74" rx="2" fill="#8B5CF6"/>
  <text x="1186" y="452" font-size="11" font-weight="700" fill="#E2E8F0">On-Demand Pay</text>
  <use href="#adminGear" x="1286" y="442" width="10" height="10"/>
  <text x="1186" y="467" font-size="10" fill="#C4B5FD">2 requests pending</text>
  <text x="1186" y="481" font-size="9" fill="#64748B">via Branch integration</text>
  <rect x="1186" y="488" width="164" height="18" rx="4" fill="#4C1D95"/>
  <text x="1268" y="500" font-size="10" font-weight="700" fill="#C4B5FD" text-anchor="middle">Review Requests</text>

  <!-- Integrations -->
  <!-- DB: pos_payroll_integrations -->
  <rect x="1174" y="520" width="184" height="120" rx="7" fill="url(#cardGrad)" stroke="#2A2E45" stroke-width="1"/>
  <text x="1183" y="537" font-size="10" font-weight="700" fill="#64748B">INTEGRATIONS</text>
  <use href="#adminGear" x="1266" y="527" width="10" height="10"/>
  <rect x="1174" y="542" width="184" height="1" fill="#2A2E45"/>

  <rect x="1183" y="550" width="166" height="24" rx="5" fill="#0C0E1A" stroke="#2A2E45" stroke-width="1"/>
  <text x="1266" y="566" font-size="10" font-weight="600" fill="#94A3B8" text-anchor="middle">ADP Sync</text>
  <use href="#statusReady" x="1331" y="557" width="10" height="10"/>

  <rect x="1183" y="580" width="166" height="24" rx="5" fill="#0C0E1A" stroke="#2A2E45" stroke-width="1"/>
  <text x="1266" y="596" font-size="10" font-weight="600" fill="#94A3B8" text-anchor="middle">QuickBooks Export</text>
  <use href="#statusReady" x="1331" y="587" width="10" height="10"/>

  <rect x="1183" y="610" width="166" height="24" rx="5" fill="#0C0E1A" stroke="#2A2E45" stroke-width="1"/>
  <text x="1266" y="626" font-size="10" font-weight="600" fill="#94A3B8" text-anchor="middle">Gusto Export</text>
  <use href="#statusWarn" x="1331" y="617" width="10" height="10"/>

  <!-- Audit log -->
  <rect x="1174" y="654" width="184" height="48" rx="7" fill="#0C0E1A" stroke="#2A2E45" stroke-width="1"/>
  <text x="1266" y="673" font-size="10" fill="#64748B" text-anchor="middle">Payroll Audit Log</text>
  <text x="1266" y="689" font-size="9" fill="#64748B" text-anchor="middle">Last run: May 19 | by admin</text>
  <text x="1266" y="697" font-size="9" fill="#64748B" text-anchor="middle">View full log</text>

  <!-- ===== BOTTOM STATUS BAR ===== -->
  <!-- DB: pos_payroll_runs summary -->
  <rect x="200" y="990" width="1166" height="34" fill="#0C0E1A" stroke="#2A2E45" stroke-width="1"/>
  <text x="216" y="1011" font-size="10" fill="#64748B">Pay Period: May 19-25, 2026</text>
  <text x="370" y="1011" font-size="10" fill="#64748B">|</text>
  <text x="380" y="1011" font-size="10" fill="#64748B">6 employees</text>
  <text x="448" y="1011" font-size="10" fill="#64748B">|</text>
  <text x="458" y="1011" font-size="10" fill="#64748B">Gross: $5,623.15</text>
  <text x="556" y="1011" font-size="10" fill="#64748B">|</text>
  <text x="566" y="1011" font-size="10" fill="#64748B">Net: $18,432.17 (all staff)</text>
  <text x="1350" y="1011" font-size="10" fill="#64748B" text-anchor="end">admin | May 27, 2026 09:14 AM</text>

</svg>
