<svg role="img" aria-labelledby="title-settings_label_printer-svg" xmlns="http://www.w3.org/2000/svg" viewBox="0 0 1366 1024" font-family="-apple-system,BlinkMacSystemFont,'Segoe UI',Roboto,sans-serif">

  <!-- ═══════════════════════════════════════════════
       REUSABLE DEFINITIONS
  ═══════════════════════════════════════════════ -->
  <title id="title-settings_label_printer-svg">Synalux POS — laUel printer</title>
  <desc>Synalux POS mockup screen for laUel printer. All UI elements admin-configurable.</desc>
  <defs>
    <!-- Background gradient for cards -->
    <linearGradient id="cardGrad" x1="0" y1="0" x2="0" y2="1">
      <stop offset="0%" stop-color="#1E2235"/>
      <stop offset="100%" stop-color="#1A1D2E"/>
    </linearGradient>
    <!-- Amber button gradient -->
    <linearGradient id="amberBtnGrad" x1="0" y1="0" x2="0" y2="1">
      <stop offset="0%" stop-color="#FBBF24"/>
      <stop offset="100%" stop-color="#F59E0B"/>
    </linearGradient>
    <!-- Header bar gradient -->
    <linearGradient id="headerGrad" x1="0" y1="0" x2="1" y2="0">
      <stop offset="0%" stop-color="#1A1D2E"/>
      <stop offset="100%" stop-color="#1E2235"/>
    </linearGradient>
    <!-- Purple button gradient -->
    <linearGradient id="purpleBtnGrad" x1="0" y1="0" x2="0" y2="1">
      <stop offset="0%" stop-color="#A78BFA"/>
      <stop offset="100%" stop-color="#8B5CF6"/>
    </linearGradient>
    <!-- Card shadow -->
    <filter id="cardShadow" x="-2%" y="-2%" width="104%" height="108%">
      <feDropShadow dx="0" dy="2" stdDeviation="4" flood-color="#000" flood-opacity="0.4"/>
    </filter>
    <!-- Amber glow -->
    <filter id="amberGlow" x="-10%" y="-10%" width="120%" height="120%">
      <feDropShadow dx="0" dy="0" stdDeviation="3" flood-color="#F59E0B" flood-opacity="0.3"/>
    </filter>

    <!-- ── SYMBOL: Admin gear icon ── -->
    <symbol id="adminGear" viewBox="0 0 14 14">
      <path d="M7 4.5a2.5 2.5 0 100 5 2.5 2.5 0 000-5zm0 4a1.5 1.5 0 110-3 1.5 1.5 0 010 3z" fill="#F59E0B"/>
      <path d="M12.7 5.8l-1.1-.2a4.8 4.8 0 00-.4-1l.6-1a.5.5 0 00-.1-.6l-.7-.7a.5.5 0 00-.6-.1l-1 .6a4.8 4.8 0 00-1-.4L8.2 1.3a.5.5 0 00-.5-.3h-1a.5.5 0 00-.5.3l-.2 1.1a4.8 4.8 0 00-1 .4l-1-.6a.5.5 0 00-.6.1l-.7.7a.5.5 0 00-.1.6l.6 1a4.8 4.8 0 00-.4 1l-1.1.2a.5.5 0 00-.3.5v1a.5.5 0 00.3.5l1.1.2a4.8 4.8 0 00.4 1l-.6 1a.5.5 0 00.1.6l.7.7a.5.5 0 00.6.1l1-.6a4.8 4.8 0 001 .4l.2 1.1a.5.5 0 00.5.3h1a.5.5 0 00.5-.3l.2-1.1a4.8 4.8 0 001-.4l1 .6a.5.5 0 00.6-.1l.7-.7a.5.5 0 00.1-.6l-.6-1a4.8 4.8 0 00.4-1l1.1-.2a.5.5 0 00.3-.5v-1a.5.5 0 00-.3-.5z" fill="#F59E0B" opacity="0.7"/>
    </symbol>

    <!-- ── SYMBOL: Toggle ON ── -->
    <symbol id="toggleOn" viewBox="0 0 42 20">
      <rect width="42" height="20" rx="10" fill="#065F46"/>
      <circle cx="33" cy="10" r="8" fill="#22C55E"/>
    </symbol>

    <!-- ── SYMBOL: Toggle OFF ── -->
    <symbol id="toggleOff" viewBox="0 0 42 20">
      <rect width="42" height="20" rx="10" fill="#334155"/>
      <circle cx="12" cy="10" r="8" fill="#64748B"/>
    </symbol>

    <!-- ── SYMBOL: Online status dot ── -->
    <symbol id="onlineDot" viewBox="0 0 10 10">
      <circle cx="5" cy="5" r="5" fill="#22C55E"/>
    </symbol>

    <!-- ── SYMBOL: Offline status dot ── -->
    <symbol id="offlineDot" viewBox="0 0 10 10">
      <circle cx="5" cy="5" r="5" fill="#64748B"/>
    </symbol>

    <!-- ── SYMBOL: Checkbox checked (amber) ── -->
    <symbol id="checkOn" viewBox="0 0 10 10">
      <rect width="10" height="10" rx="2" fill="#F59E0B"/>
    </symbol>

    <!-- ── SYMBOL: Checkbox unchecked ── -->
    <symbol id="checkOff" viewBox="0 0 10 10">
      <rect width="10" height="10" rx="2" fill="none" stroke="#2A2E45" stroke-width="1.5"/>
    </symbol>

    <!-- ── SYMBOL: Print test button ── -->
    <symbol id="printTestBtn" viewBox="0 0 82 24">
      <rect width="82" height="24" rx="5" fill="#92400E" stroke="#F59E0B" stroke-width="1"/>
      <text x="10" y="16" font-size="10" font-weight="600" fill="#FCD34D">Print Test</text>
    </symbol>

    <!-- ── SYMBOL: Configure button ── -->
    <symbol id="configBtn" viewBox="0 0 72 24">
      <rect width="72" height="24" rx="5" fill="#1E2235" stroke="#2A2E45" stroke-width="1"/>
      <text x="10" y="16" font-size="10" fill="#94A3B8">Configure</text>
    </symbol>

    <!-- ── SYMBOL: Job completed indicator ── -->
    <symbol id="jobDone" viewBox="0 0 8 8">
      <circle cx="4" cy="4" r="4" fill="#22C55E"/>
    </symbol>

    <!-- ── SYMBOL: Label type row ── -->
    <symbol id="labelRow" viewBox="0 0 360 30">
      <rect width="360" height="30" rx="5" fill="#1A1D2E" stroke="#2A2E45" stroke-width="1"/>
    </symbol>

    <!-- ── SYMBOL: DB pill badge ── -->
    <symbol id="dbPill" viewBox="0 0 120 18">
      <rect width="120" height="18" rx="9" fill="#1E2235" stroke="#8B5CF6" stroke-width="1"/>
    </symbol>

    <!-- ── SYMBOL: Printer model pill ── -->
    <symbol id="printerPill" viewBox="0 0 86 18">
      <rect width="86" height="18" rx="9" fill="#1E2235" stroke="#F59E0B" stroke-width="1"/>
    </symbol>

    <!-- ── SYMBOL: Format pill ── -->
    <symbol id="formatPill" viewBox="0 0 66 18">
      <rect width="66" height="18" rx="9" fill="#1E2235" stroke="#22C55E" stroke-width="1"/>
    </symbol>

    <!-- ── SYMBOL: Barcode bar (for reuse in barcode pattern) ── -->
    <symbol id="bBar" viewBox="0 0 3 40">
      <rect width="3" height="40" fill="#111"/>
    </symbol>
    <symbol id="bBarThin" viewBox="0 0 1 40">
      <rect width="1" height="40" fill="#111"/>
    </symbol>
    <symbol id="bBarMed" viewBox="0 0 2 40">
      <rect width="2" height="40" fill="#111"/>
    </symbol>
    <!-- Tall guard bar -->
    <symbol id="bGuard" viewBox="0 0 2 48">
      <rect width="2" height="48" fill="#111"/>
    </symbol>
    <symbol id="bGuardThin" viewBox="0 0 1 48">
      <rect width="1" height="48" fill="#111"/>
    </symbol>
  </defs>

  <!-- ═══════════════════════════════════════════════
       BACKGROUND
  ═══════════════════════════════════════════════ -->
  <rect width="1366" height="1024" fill="#0C0E1A"/>

  <!-- ═══════════════════════════════════════════════
       LEFT NAV SIDEBAR (200px)
       DB: pos_admin_nav
  ═══════════════════════════════════════════════ -->
  <rect x="0" y="0" width="200" height="1024" fill="#161930"/>
  <text x="16" y="30" font-size="13" font-weight="700" fill="#F59E0B">&#x2699; Back Office</text>
  <text x="16" y="67" font-size="12" fill="#94A3B8">Restaurant Info</text>
  <text x="16" y="103" font-size="12" fill="#94A3B8">Menu Builder</text>
  <text x="16" y="139" font-size="12" fill="#94A3B8">Taxes</text>
  <text x="16" y="175" font-size="12" fill="#94A3B8">Employees</text>
  <text x="16" y="211" font-size="12" fill="#94A3B8">Equipment</text>
  <text x="16" y="247" font-size="12" fill="#94A3B8">Printer Routing</text>

  <!-- Active item: Label Printers -->
  <rect x="0" y="260" width="200" height="36" fill="#1E2235"/>
  <rect x="0" y="260" width="3" height="36" fill="#F59E0B"/>
  <text x="16" y="283" font-size="12" font-weight="600" fill="#F59E0B">Label Printers</text>

  <text x="16" y="319" font-size="12" fill="#94A3B8">Payments</text>
  <text x="16" y="355" font-size="12" fill="#94A3B8">Revenue Centers</text>
  <text x="16" y="391" font-size="12" fill="#94A3B8">Reports</text>
  <text x="16" y="427" font-size="12" fill="#94A3B8">Integrations</text>
  <text x="16" y="463" font-size="12" fill="#94A3B8">Loyalty</text>
  <text x="16" y="499" font-size="12" fill="#94A3B8">Gift Cards</text>
  <text x="16" y="535" font-size="12" fill="#94A3B8">Discounts</text>
  <text x="16" y="571" font-size="12" fill="#94A3B8">Inventory</text>
  <text x="16" y="607" font-size="12" fill="#94A3B8">Forms</text>

  <!-- ═══════════════════════════════════════════════
       TOP BAR
  ═══════════════════════════════════════════════ -->
  <rect x="200" y="0" width="1166" height="60" fill="url(#headerGrad)"/>
  <text x="220" y="26" font-size="18" font-weight="700" fill="#E2E8F0">Label &amp; Barcode Printer</text>
  <text x="220" y="46" font-size="11" fill="#94A3B8">Print price labels, shelf tags, inventory barcodes, and item stickers</text>
  <!-- Save button -->
  <rect x="1240" y="14" width="100" height="32" rx="6" fill="url(#amberBtnGrad)" filter="url(#amberGlow)"/>
  <text x="1268" y="34" font-size="12" font-weight="600" fill="#000">Save</text>

  <!-- ═══════════════════════════════════════════════
       THREE-COLUMN LAYOUT DIVIDERS
  ═══════════════════════════════════════════════ -->
  <rect x="200" y="60" width="380" height="964" fill="#0C0E1A"/>
  <rect x="580" y="60" width="620" height="964" fill="#0C0E1A"/>
  <rect x="1200" y="60" width="166" height="964" fill="#0C0E1A"/>
  <line x1="580" y1="60" x2="580" y2="1024" stroke="#2A2E45" stroke-width="1"/>
  <line x1="1200" y1="60" x2="1200" y2="1024" stroke="#2A2E45" stroke-width="1"/>

  <!-- ═══════════════════════════════════════════════
       LEFT PANEL: PRINTER CONFIGURATION
       DB: pos_label_printers (venue_id, model, connection_type, status)
  ═══════════════════════════════════════════════ -->
  <text x="212" y="90" font-size="11" font-weight="700" fill="#94A3B8" letter-spacing="1">CONNECTED PRINTERS</text>
  <use href="#adminGear" x="352" y="80" width="14" height="14"/>

  <!-- Zebra ZD420 Card -->
  <!-- DB: pos_label_printers WHERE model='Zebra ZD420', status='online' -->
  <rect x="208" y="100" width="360" height="92" rx="8" fill="url(#cardGrad)" stroke="#2A2E45" stroke-width="1" filter="url(#cardShadow)"/>
  <use href="#onlineDot" x="219" y="113" width="10" height="10"/>
  <text x="234" y="122" font-size="13" font-weight="700" fill="#E2E8F0">Zebra ZD420</text>
  <use href="#adminGear" x="344" y="112" width="14" height="14"/>
  <!-- Primary badge -->
  <rect x="310" y="109" width="52" height="18" rx="9" fill="#7C3AED"/>
  <text x="316" y="121" font-size="9" font-weight="700" fill="#DDD6FE">Primary</text>
  <text x="224" y="136" font-size="10" fill="#22C55E">&#x25CF; Online</text>
  <text x="270" y="136" font-size="10" fill="#64748B">USB + Bluetooth</text>
  <text x="224" y="151" font-size="10" fill="#64748B">203 DPI / 4" width</text>
  <use href="#printTestBtn" x="215" y="160" width="82" height="24"/>
  <use href="#configBtn" x="305" y="160" width="72" height="24"/>

  <!-- Brother QL-820NWB Card -->
  <!-- DB: pos_label_printers WHERE model='Brother QL-820NWB', status='online' -->
  <rect x="208" y="200" width="360" height="92" rx="8" fill="url(#cardGrad)" stroke="#2A2E45" stroke-width="1" filter="url(#cardShadow)"/>
  <use href="#onlineDot" x="219" y="213" width="10" height="10"/>
  <text x="234" y="222" font-size="13" font-weight="700" fill="#E2E8F0">Brother QL-820NWB</text>
  <use href="#adminGear" x="396" y="212" width="14" height="14"/>
  <text x="224" y="236" font-size="10" fill="#22C55E">&#x25CF; Online</text>
  <text x="270" y="236" font-size="10" fill="#64748B">WiFi</text>
  <text x="224" y="251" font-size="10" fill="#64748B">300 DPI / 2.4" or 4" width</text>
  <use href="#printTestBtn" x="215" y="260" width="82" height="24"/>
  <use href="#configBtn" x="305" y="260" width="72" height="24"/>

  <!-- Zebra ZD620 Offline Card -->
  <!-- DB: pos_label_printers WHERE model='Zebra ZD620', status='offline' -->
  <rect x="208" y="300" width="360" height="80" rx="8" fill="url(#cardGrad)" stroke="#2A2E45" stroke-width="1" opacity="0.7"/>
  <use href="#offlineDot" x="219" y="313" width="10" height="10"/>
  <text x="234" y="322" font-size="13" font-weight="700" fill="#64748B">Zebra ZD620</text>
  <text x="224" y="338" font-size="10" fill="#64748B">&#x25CF; Offline</text>
  <text x="340" y="322" font-size="16" fill="#F97316">&#x26A0;</text>
  <text x="224" y="353" font-size="10" fill="#64748B">Last seen: 2 days ago</text>
  <text x="224" y="368" font-size="9" fill="#EF4444">Connection lost &#x2014; check USB/network</text>

  <!-- + Add Printer button -->
  <rect x="208" y="390" width="360" height="34" rx="7" fill="none" stroke="#F59E0B" stroke-width="1.5" stroke-dasharray="4,3"/>
  <text x="348" y="411" font-size="12" font-weight="600" fill="#F59E0B" text-anchor="middle">+ Add Printer</text>

  <!-- ═══════════════════════════════════════════════
       LABEL TYPES / TEMPLATES
       DB: pos_label_templates
  ═══════════════════════════════════════════════ -->
  <text x="212" y="450" font-size="11" font-weight="700" fill="#94A3B8" letter-spacing="1">LABEL TYPES / TEMPLATES</text>
  <use href="#adminGear" x="400" y="440" width="14" height="14"/>

  <!-- Label type rows (reusing symbol) -->
  <!-- DB: pos_label_templates WHERE type='price_label' -->
  <use href="#labelRow" x="208" y="458" width="360" height="30"/>
  <text x="218" y="477" font-size="11" fill="#E2E8F0">Price Label (shelf tag)</text>
  <text x="370" y="477" font-size="9" fill="#64748B">2.25" &#xD7; 1.25"</text>
  <rect x="500" y="463" width="58" height="16" rx="8" fill="#064E3B"/>
  <text x="511" y="475" font-size="9" fill="#22C55E">Default</text>

  <!-- DB: pos_label_templates WHERE type='barcode_label' -->
  <use href="#labelRow" x="208" y="492" width="360" height="28"/>
  <text x="218" y="510" font-size="11" fill="#E2E8F0">Barcode / SKU Label</text>
  <text x="370" y="510" font-size="9" fill="#64748B">2" &#xD7; 1"</text>

  <!-- DB: pos_label_templates WHERE type='allergen_label' -->
  <use href="#labelRow" x="208" y="524" width="360" height="28"/>
  <text x="218" y="542" font-size="11" fill="#E2E8F0">Allergen Label</text>
  <text x="370" y="542" font-size="9" fill="#64748B">2" &#xD7; 1"</text>

  <!-- DB: pos_label_templates WHERE type='prep_label' -->
  <use href="#labelRow" x="208" y="556" width="360" height="28"/>
  <text x="218" y="574" font-size="11" fill="#E2E8F0">Prep Label (kitchen)</text>
  <text x="340" y="574" font-size="9" fill="#64748B">4" &#xD7; 2"</text>
  <text x="218" y="585" font-size="8" fill="#64748B">item, date, expiry, initials</text>

  <!-- DB: pos_label_templates WHERE type='ingredient_label' -->
  <use href="#labelRow" x="208" y="592" width="360" height="28"/>
  <text x="218" y="610" font-size="11" fill="#E2E8F0">Ingredient Label</text>
  <text x="340" y="610" font-size="9" fill="#64748B">4" &#xD7; 2"</text>
  <text x="430" y="610" font-size="8" fill="#F97316">FDA req.</text>

  <!-- DB: pos_label_templates WHERE type='catering_label' -->
  <use href="#labelRow" x="208" y="624" width="360" height="28"/>
  <text x="218" y="642" font-size="11" fill="#E2E8F0">Catering Label</text>
  <text x="340" y="642" font-size="9" fill="#64748B">4" &#xD7; 3"</text>

  <text x="218" y="668" font-size="11" fill="#F59E0B" text-decoration="underline">+ Create Custom Template</text>

  <!-- ═══════════════════════════════════════════════
       PRINT TRIGGERS
       DB: pos_label_config (auto_print_new_item, print_on_po, reprint_on_price_change, prep_from_kds)
  ═══════════════════════════════════════════════ -->
  <text x="212" y="698" font-size="11" font-weight="700" fill="#94A3B8" letter-spacing="1">PRINT TRIGGERS</text>
  <use href="#adminGear" x="322" y="688" width="14" height="14"/>

  <!-- Toggle: Auto-print new item — OFF -->
  <!-- DB: pos_label_config.auto_print_new_item = false -->
  <rect x="208" y="706" width="360" height="42" rx="6" fill="#1A1D2E" stroke="#2A2E45" stroke-width="1"/>
  <text x="218" y="722" font-size="10" fill="#E2E8F0">Auto-print label when new item added</text>
  <use href="#toggleOff" x="512" y="714" width="42" height="20"/>
  <text x="504" y="740" font-size="8" fill="#64748B">OFF</text>

  <!-- Toggle: Print on PO receipt — ON -->
  <!-- DB: pos_label_config.print_on_po = true -->
  <rect x="208" y="752" width="360" height="36" rx="6" fill="#1A1D2E" stroke="#2A2E45" stroke-width="1"/>
  <text x="218" y="774" font-size="10" fill="#E2E8F0">Print receiving label on PO receipt scan</text>
  <use href="#toggleOn" x="512" y="758" width="42" height="20"/>
  <text x="516" y="788" font-size="8" fill="#22C55E">ON</text>

  <!-- Toggle: Reprint on price change — ON -->
  <!-- DB: pos_label_config.reprint_on_price_change = true -->
  <rect x="208" y="792" width="360" height="50" rx="6" fill="#1A1D2E" stroke="#2A2E45" stroke-width="1"/>
  <text x="218" y="810" font-size="10" fill="#E2E8F0">Reprint label when price changes</text>
  <use href="#toggleOn" x="512" y="798" width="42" height="20"/>
  <text x="218" y="830" font-size="9" fill="#F59E0B">&#x26A0; Price changes require new shelf tag</text>

  <!-- Toggle: Prep/expiry labels from KDS — ON -->
  <!-- DB: pos_label_config.prep_from_kds = true -->
  <rect x="208" y="846" width="360" height="36" rx="6" fill="#1A1D2E" stroke="#2A2E45" stroke-width="1"/>
  <text x="218" y="868" font-size="10" fill="#E2E8F0">Print prep/expiry labels from KDS</text>
  <use href="#toggleOn" x="512" y="852" width="42" height="20"/>
  <text x="516" y="880" font-size="8" fill="#22C55E">ON</text>

  <!-- ═══════════════════════════════════════════════
       CENTER PANEL: LABEL PREVIEW &amp; DESIGNER
       DB: pos_label_templates (selected template config)
  ═══════════════════════════════════════════════ -->

  <!-- TABS -->
  <rect x="590" y="68" width="600" height="36" fill="#161930"/>
  <rect x="590" y="68" width="140" height="36" fill="#1A1D2E" rx="4"/>
  <rect x="590" y="96" width="140" height="4" fill="#F59E0B"/>
  <text x="625" y="90" font-size="11" font-weight="700" fill="#F59E0B">Price Label</text>
  <text x="748" y="90" font-size="11" fill="#64748B">Barcode Label</text>
  <text x="870" y="90" font-size="11" fill="#64748B">Prep Label</text>
  <text x="980" y="90" font-size="11" fill="#64748B">Allergen Label</text>

  <!-- Label size picker -->
  <!-- DB: pos_label_templates.width_inches, height_inches -->
  <text x="596" y="124" font-size="10" fill="#94A3B8">Label Size:</text>
  <use href="#adminGear" x="652" y="114" width="14" height="14"/>
  <rect x="670" y="112" width="96" height="22" rx="4" fill="#1E2235" stroke="#F59E0B" stroke-width="1.5"/>
  <text x="678" y="127" font-size="10" font-weight="600" fill="#F59E0B">2.25" &#xD7; 1.25"</text>
  <rect x="774" y="112" width="76" height="22" rx="4" fill="#1A1D2E" stroke="#2A2E45" stroke-width="1"/>
  <text x="782" y="127" font-size="10" fill="#64748B">4" &#xD7; 2"</text>
  <rect x="858" y="112" width="76" height="22" rx="4" fill="#1A1D2E" stroke="#2A2E45" stroke-width="1"/>
  <text x="866" y="127" font-size="10" fill="#64748B">4" &#xD7; 3"</text>
  <rect x="942" y="112" width="60" height="22" rx="4" fill="#1A1D2E" stroke="#2A2E45" stroke-width="1"/>
  <text x="950" y="127" font-size="10" fill="#64748B">Custom</text>

  <!-- LIVE LABEL PREVIEW -->
  <text x="596" y="154" font-size="11" font-weight="700" fill="#94A3B8">LIVE PREVIEW</text>

  <!-- Label preview card -->
  <rect x="630" y="162" width="340" height="175" rx="6" fill="#1A1D2E" stroke="#2A2E45" stroke-width="1" filter="url(#cardShadow)"/>
  <!-- White label surface -->
  <rect x="650" y="174" width="300" height="150" rx="4" fill="#FFFFFF"/>
  <!-- Business name -->
  <text x="800" y="194" font-size="9" font-weight="700" fill="#333" text-anchor="middle" letter-spacing="2">SYNALUX BISTRO</text>
  <line x1="665" y1="198" x2="935" y2="198" stroke="#DDD" stroke-width="0.5"/>
  <!-- Item name -->
  <text x="800" y="218" font-size="16" font-weight="700" fill="#111" text-anchor="middle">Classic Burger</text>

  <!-- BARCODE (using reusable bar symbols) -->
  <g transform="translate(670,225)">
    <!-- Start guard -->
    <use href="#bGuard" x="0" y="0" width="2" height="48"/>
    <use href="#bGuardThin" x="3" y="0" width="1" height="48"/>
    <use href="#bGuardThin" x="5" y="0" width="1" height="48"/>
    <!-- Data bars -->
    <use href="#bBar" x="8" y="0" width="3" height="40"/>
    <use href="#bBarThin" x="13" y="0" width="1" height="40"/>
    <use href="#bBarMed" x="16" y="0" width="2" height="40"/>
    <use href="#bBarThin" x="20" y="0" width="1" height="40"/>
    <use href="#bBar" x="23" y="0" width="3" height="40"/>
    <use href="#bBarMed" x="28" y="0" width="2" height="40"/>
    <use href="#bBarThin" x="32" y="0" width="1" height="40"/>
    <use href="#bBar" x="35" y="0" width="3" height="40"/>
    <use href="#bBarThin" x="40" y="0" width="1" height="40"/>
    <use href="#bBarMed" x="43" y="0" width="2" height="40"/>
    <use href="#bBarThin" x="47" y="0" width="1" height="40"/>
    <use href="#bBar" x="50" y="0" width="3" height="40"/>
    <use href="#bBarMed" x="55" y="0" width="2" height="40"/>
    <use href="#bBarThin" x="59" y="0" width="1" height="40"/>
    <use href="#bBar" x="62" y="0" width="3" height="40"/>
    <use href="#bBarThin" x="67" y="0" width="1" height="40"/>
    <use href="#bBarMed" x="70" y="0" width="2" height="40"/>
    <use href="#bBar" x="74" y="0" width="3" height="40"/>
    <use href="#bBarThin" x="79" y="0" width="1" height="40"/>
    <use href="#bBarMed" x="82" y="0" width="2" height="40"/>
    <use href="#bBar" x="86" y="0" width="3" height="40"/>
    <use href="#bBarThin" x="91" y="0" width="1" height="40"/>
    <use href="#bBarMed" x="94" y="0" width="2" height="40"/>
    <use href="#bBarThin" x="98" y="0" width="1" height="40"/>
    <use href="#bBar" x="101" y="0" width="3" height="40"/>
    <use href="#bBarMed" x="106" y="0" width="2" height="40"/>
    <use href="#bBarThin" x="110" y="0" width="1" height="40"/>
    <use href="#bBar" x="113" y="0" width="3" height="40"/>
    <use href="#bBarThin" x="118" y="0" width="1" height="40"/>
    <use href="#bBarMed" x="121" y="0" width="2" height="40"/>
    <use href="#bBarThin" x="125" y="0" width="1" height="40"/>
    <use href="#bBar" x="128" y="0" width="3" height="40"/>
    <use href="#bBarMed" x="133" y="0" width="2" height="40"/>
    <use href="#bBarThin" x="137" y="0" width="1" height="40"/>
    <use href="#bBar" x="140" y="0" width="3" height="40"/>
    <use href="#bBarMed" x="145" y="0" width="2" height="40"/>
    <use href="#bBarThin" x="149" y="0" width="1" height="40"/>
    <use href="#bBarMed" x="152" y="0" width="2" height="40"/>
    <use href="#bBar" x="156" y="0" width="3" height="40"/>
    <!-- End guard -->
    <use href="#bGuard" x="161" y="0" width="2" height="48"/>
    <use href="#bGuardThin" x="164" y="0" width="1" height="48"/>
    <use href="#bGuard" x="166" y="0" width="2" height="48"/>
    <text x="84" y="58" font-size="8" fill="#555" text-anchor="middle">SKU-1042</text>
  </g>

  <!-- Price -->
  <text x="800" y="296" font-size="22" font-weight="700" fill="#111" text-anchor="middle">$18.00</text>

  <!-- Allergen icons -->
  <circle cx="742" cy="314" r="8" fill="#F59E0B"/>
  <text x="742" y="318" font-size="7" font-weight="700" fill="#000" text-anchor="middle">W</text>
  <circle cx="757" cy="314" r="8" fill="#60A5FA"/>
  <text x="757" y="318" font-size="7" font-weight="700" fill="#000" text-anchor="middle">D</text>
  <circle cx="772" cy="314" r="8" fill="#FBBF24"/>
  <text x="772" y="318" font-size="7" font-weight="700" fill="#000" text-anchor="middle">E</text>
  <text x="790" y="318" font-size="8" fill="#777">Contains allergens</text>

  <!-- ═══════════════════════════════════════════════
       DESIGNER CONTROLS
       DB: pos_label_templates (fields, font_size, barcode_type)
  ═══════════════════════════════════════════════ -->
  <text x="596" y="360" font-size="11" font-weight="700" fill="#94A3B8">DESIGNER CONTROLS</text>
  <use href="#adminGear" x="726" y="350" width="14" height="14"/>

  <!-- Fields to include checkboxes -->
  <text x="596" y="378" font-size="10" fill="#64748B">Fields to include:</text>
  <!-- Row 1 -->
  <use href="#checkOn" x="596" y="383" width="10" height="10"/>
  <text x="610" y="392" font-size="10" fill="#E2E8F0">Business name</text>
  <use href="#checkOn" x="720" y="383" width="10" height="10"/>
  <text x="734" y="392" font-size="10" fill="#E2E8F0">Item name</text>
  <!-- Row 2 -->
  <use href="#checkOn" x="596" y="400" width="10" height="10"/>
  <text x="610" y="409" font-size="10" fill="#E2E8F0">Barcode</text>
  <use href="#checkOn" x="720" y="400" width="10" height="10"/>
  <text x="734" y="409" font-size="10" fill="#E2E8F0">SKU</text>
  <!-- Row 3 -->
  <use href="#checkOn" x="596" y="417" width="10" height="10"/>
  <text x="610" y="426" font-size="10" fill="#E2E8F0">Price</text>
  <use href="#checkOn" x="720" y="417" width="10" height="10"/>
  <text x="734" y="426" font-size="10" fill="#E2E8F0">Allergens</text>
  <!-- Row 4 — unchecked -->
  <use href="#checkOff" x="596" y="434" width="10" height="10"/>
  <text x="610" y="443" font-size="10" fill="#64748B">Description</text>
  <use href="#checkOff" x="720" y="434" width="10" height="10"/>
  <text x="734" y="443" font-size="10" fill="#64748B">Calories</text>
  <!-- Row 5 -->
  <use href="#checkOn" x="596" y="451" width="10" height="10"/>
  <text x="610" y="460" font-size="10" fill="#E2E8F0">Date (prep labels)</text>

  <!-- Font size slider -->
  <!-- DB: pos_label_templates.font_size_pt -->
  <text x="596" y="482" font-size="10" fill="#64748B">Font size (item name):</text>
  <rect x="730" y="474" width="180" height="8" rx="4" fill="#1E2235"/>
  <rect x="730" y="474" width="90" height="8" rx="4" fill="#F59E0B"/>
  <circle cx="820" cy="478" r="7" fill="#F59E0B" stroke="#FFF" stroke-width="2"/>
  <text x="920" y="483" font-size="10" fill="#E2E8F0">14pt</text>

  <!-- Barcode type dropdown -->
  <!-- DB: pos_label_templates.barcode_type -->
  <text x="596" y="504" font-size="10" fill="#64748B">Barcode type:</text>
  <use href="#adminGear" x="672" y="494" width="14" height="14"/>
  <rect x="700" y="493" width="200" height="24" rx="5" fill="#1A1D2E" stroke="#2A2E45" stroke-width="1"/>
  <text x="712" y="509" font-size="10" fill="#E2E8F0">Code 128 (default)</text>
  <text x="886" y="509" font-size="10" fill="#64748B">&#x25BC;</text>

  <!-- Action buttons -->
  <rect x="596" y="528" width="120" height="30" rx="6" fill="url(#amberBtnGrad)" filter="url(#amberGlow)"/>
  <text x="623" y="547" font-size="11" font-weight="700" fill="#000">Save Template</text>
  <rect x="724" y="528" width="140" height="30" rx="6" fill="#1E2235" stroke="#F59E0B" stroke-width="1"/>
  <text x="741" y="547" font-size="11" font-weight="600" fill="#F59E0B">Print Test Label</text>
  <rect x="872" y="528" width="110" height="30" rx="6" fill="#1E2235" stroke="#8B5CF6" stroke-width="1"/>
  <text x="893" y="547" font-size="11" font-weight="600" fill="#8B5CF6">Batch Print</text>

  <!-- ═══════════════════════════════════════════════
       BATCH PRINT SECTION
       DB: pos_label_print_queue
  ═══════════════════════════════════════════════ -->
  <text x="596" y="582" font-size="11" font-weight="700" fill="#94A3B8" letter-spacing="1">BATCH PRINT</text>
  <rect x="588" y="590" width="600" height="130" rx="8" fill="url(#cardGrad)" stroke="#2A2E45" stroke-width="1" filter="url(#cardShadow)"/>
  <text x="600" y="612" font-size="12" font-weight="600" fill="#E2E8F0">Batch Print All Inventory Labels</text>
  <!-- DB: COUNT(*) FROM pos_menu_items WHERE label_printable = true -->
  <text x="600" y="630" font-size="11" fill="#94A3B8">248 items ready for printing</text>
  <text x="600" y="652" font-size="10" fill="#64748B">Filter by:</text>
  <!-- Category dropdown -->
  <rect x="655" y="642" width="130" height="22" rx="4" fill="#0C0E1A" stroke="#2A2E45" stroke-width="1"/>
  <text x="663" y="656" font-size="10" fill="#94A3B8">Category: All &#x25BC;</text>
  <!-- Low Stock checkbox -->
  <use href="#checkOff" x="795" y="645" width="10" height="10"/>
  <text x="808" y="654" font-size="10" fill="#64748B">Low Stock Only</text>
  <!-- New Items checkbox -->
  <use href="#checkOff" x="910" y="645" width="10" height="10"/>
  <text x="923" y="654" font-size="10" fill="#64748B">New Items Only</text>
  <text x="600" y="676" font-size="10" fill="#64748B">Estimate: 248 labels &#x2192; approx. 4 min print time</text>
  <!-- Print All button -->
  <rect x="600" y="685" width="200" height="28" rx="6" fill="url(#amberBtnGrad)"/>
  <text x="635" y="703" font-size="11" font-weight="700" fill="#000">Print All (Zebra ZD420)</text>

  <!-- ═══════════════════════════════════════════════
       RIGHT PANEL: RECENT PRINT JOBS
       DB: pos_label_print_queue ORDER BY created_at DESC
  ═══════════════════════════════════════════════ -->
  <text x="1210" y="90" font-size="11" font-weight="700" fill="#94A3B8" letter-spacing="1">PRINT JOBS</text>

  <!-- Job 1 — Completed -->
  <!-- DB: pos_label_print_queue WHERE status='done' -->
  <rect x="1205" y="98" width="150" height="72" rx="6" fill="url(#cardGrad)" stroke="#2A2E45" stroke-width="1"/>
  <text x="1213" y="114" font-size="10" font-weight="700" fill="#E2E8F0">12 labels</text>
  <text x="1213" y="128" font-size="9" fill="#94A3B8">Batch inventory</text>
  <text x="1213" y="142" font-size="9" fill="#64748B">6:30 PM &#x2014; Zebra ZD420</text>
  <use href="#jobDone" x="1209" y="153" width="8" height="8"/>
  <text x="1220" y="160" font-size="9" fill="#22C55E">Completed &#x2713;</text>

  <!-- Job 2 — Completed -->
  <rect x="1205" y="176" width="150" height="72" rx="6" fill="url(#cardGrad)" stroke="#2A2E45" stroke-width="1"/>
  <text x="1213" y="192" font-size="10" font-weight="700" fill="#E2E8F0">1 label</text>
  <text x="1213" y="206" font-size="9" fill="#94A3B8">Classic Burger price change</text>
  <text x="1213" y="220" font-size="9" fill="#64748B">5:15 PM &#x2014; QL-820NWB</text>
  <use href="#jobDone" x="1209" y="231" width="8" height="8"/>
  <text x="1220" y="238" font-size="9" fill="#22C55E">Completed &#x2713;</text>

  <!-- Job 3 — Completed -->
  <rect x="1205" y="254" width="150" height="72" rx="6" fill="url(#cardGrad)" stroke="#2A2E45" stroke-width="1"/>
  <text x="1213" y="270" font-size="10" font-weight="700" fill="#E2E8F0">4 labels</text>
  <text x="1213" y="284" font-size="9" fill="#94A3B8">New items (PO received)</text>
  <text x="1213" y="298" font-size="9" fill="#64748B">4:02 PM &#x2014; Zebra ZD420</text>
  <use href="#jobDone" x="1209" y="309" width="8" height="8"/>
  <text x="1220" y="316" font-size="9" fill="#22C55E">Completed &#x2713;</text>

  <!-- Job 4 — Completed -->
  <rect x="1205" y="332" width="150" height="72" rx="6" fill="url(#cardGrad)" stroke="#2A2E45" stroke-width="1"/>
  <text x="1213" y="348" font-size="10" font-weight="700" fill="#E2E8F0">1 label</text>
  <text x="1213" y="362" font-size="9" fill="#94A3B8">Prep label &#x2014; KDS</text>
  <text x="1213" y="376" font-size="9" fill="#64748B">3:45 PM &#x2014; Zebra ZD420</text>
  <use href="#jobDone" x="1209" y="387" width="8" height="8"/>
  <text x="1220" y="394" font-size="9" fill="#22C55E">Completed &#x2713;</text>

  <!-- Job 5 — ERROR -->
  <!-- DB: pos_label_print_queue WHERE status='error' -->
  <rect x="1205" y="410" width="150" height="80" rx="6" fill="#451A03" stroke="#F59E0B" stroke-width="1"/>
  <text x="1213" y="426" font-size="10" font-weight="700" fill="#F97316">ERROR</text>
  <text x="1213" y="440" font-size="9" fill="#F59E0B">Zebra ZD620 offline</text>
  <text x="1213" y="454" font-size="9" fill="#64748B">2:30 PM</text>
  <text x="1213" y="468" font-size="9" fill="#94A3B8">Rerouted to ZD420</text>
  <text x="1213" y="480" font-size="9" fill="#22C55E">&#x2713; Recovered</text>

  <!-- Queue empty -->
  <text x="1280" y="510" font-size="10" fill="#64748B" text-anchor="middle">&#x2014; Queue empty &#x2014;</text>

  <!-- ═══════════════════════════════════════════════
       INTEGRATION BOX (right panel)
       DB: pos_label_print_queue, pos_menu_items, pos_inventory
  ═══════════════════════════════════════════════ -->
  <rect x="1205" y="530" width="150" height="460" rx="8" fill="url(#cardGrad)" stroke="#F59E0B" stroke-width="1.5"/>
  <text x="1280" y="550" font-size="9" font-weight="700" fill="#F59E0B" text-anchor="middle">INTEGRATION</text>
  <text x="1213" y="568" font-size="8" fill="#94A3B8">BarcodeBridge.swift</text>
  <text x="1213" y="582" font-size="8" fill="#94A3B8">handles label print</text>
  <text x="1213" y="596" font-size="8" fill="#94A3B8">jobs via WKWebView</text>
  <text x="1213" y="610" font-size="8" fill="#94A3B8">bridge.</text>
  <line x1="1213" y1="618" x2="1346" y2="618" stroke="#2A2E45" stroke-width="0.5"/>
  <!-- DB: Label data sources -->
  <text x="1213" y="632" font-size="8" fill="#64748B">Label data from:</text>
  <text x="1213" y="646" font-size="8" fill="#8B5CF6">pos_menu_items</text>
  <text x="1213" y="660" font-size="8" fill="#8B5CF6">pos_inventory</text>
  <line x1="1213" y1="668" x2="1346" y2="668" stroke="#2A2E45" stroke-width="0.5"/>
  <!-- DB: pos_label_print_queue -->
  <text x="1213" y="682" font-size="8" fill="#64748B">Print queue table:</text>
  <text x="1213" y="696" font-size="8" fill="#8B5CF6">pos_label_print</text>
  <text x="1213" y="710" font-size="8" fill="#8B5CF6">_queue</text>
  <text x="1213" y="724" font-size="8" fill="#64748B">Status: pending/</text>
  <text x="1213" y="738" font-size="8" fill="#64748B">sent/done/error</text>
  <line x1="1213" y1="746" x2="1346" y2="746" stroke="#2A2E45" stroke-width="0.5"/>
  <text x="1213" y="760" font-size="8" fill="#64748B">Prep labels fire</text>
  <text x="1213" y="774" font-size="8" fill="#64748B">from KDS auto.</text>
  <line x1="1213" y1="782" x2="1346" y2="782" stroke="#2A2E45" stroke-width="0.5"/>
  <text x="1213" y="796" font-size="8" fill="#64748B">PDF417 on prep</text>
  <text x="1213" y="810" font-size="8" fill="#64748B">encodes: item_id,</text>
  <text x="1213" y="824" font-size="8" fill="#64748B">batch_date,</text>
  <text x="1213" y="838" font-size="8" fill="#64748B">expiry_date for</text>
  <text x="1213" y="852" font-size="8" fill="#64748B">scan-to-verify.</text>
  <line x1="1213" y1="860" x2="1346" y2="860" stroke="#2A2E45" stroke-width="0.5"/>
  <text x="1213" y="874" font-size="8" fill="#64748B">Price change &#x2192;</text>
  <text x="1213" y="888" font-size="8" fill="#64748B">auto-reprint via</text>
  <text x="1213" y="902" font-size="8" fill="#64748B">updated_at hook</text>

  <!-- ═══════════════════════════════════════════════
       CENTER BOTTOM: WORKFLOW INTEGRATION CARD
       DB: pos_label_print_queue, pos_menu_items, pos_inventory
  ═══════════════════════════════════════════════ -->
  <rect x="588" y="742" width="600" height="266" rx="8" fill="url(#cardGrad)" stroke="#F59E0B" stroke-width="1.5" filter="url(#cardShadow)"/>
  <text x="600" y="762" font-size="10" font-weight="700" fill="#F59E0B">WORKFLOW INTEGRATION</text>
  <text x="600" y="780" font-size="9" fill="#94A3B8">BarcodeBridge.swift handles label print jobs via WKWebView bridge. Label data from pos_menu_items + pos_inventory.</text>
  <!-- DB: pos_label_print_queue status flow -->
  <text x="600" y="798" font-size="9" fill="#94A3B8">Print job queue: pos_label_print_queue (status: pending / sent / done / error).</text>
  <text x="600" y="816" font-size="9" fill="#94A3B8">Prep labels auto-generated from KDS when item fires. PDF417 on prep labels encodes: item_id, batch_date,</text>
  <text x="600" y="834" font-size="9" fill="#94A3B8">expiry_date for scan-to-verify workflows.</text>
  <!-- DB: pos_menu_items.updated_at → reprint trigger -->
  <text x="600" y="852" font-size="9" fill="#94A3B8">Price change &#x2192; auto-reprint trigger via pos_menu_items updated_at webhook.</text>
  <line x1="600" y1="864" x2="1178" y2="864" stroke="#2A2E45" stroke-width="0.5"/>

  <!-- DB table pills -->
  <text x="600" y="882" font-size="9" fill="#64748B">DB Tables:</text>
  <use href="#dbPill" x="660" y="872" width="120" height="18"/>
  <text x="668" y="884" font-size="8" fill="#C4B5FD">pos_label_print_queue</text>
  <rect x="790" y="872" width="96" height="18" rx="9" fill="#1E2235" stroke="#8B5CF6" stroke-width="1"/>
  <text x="798" y="884" font-size="8" fill="#C4B5FD">pos_menu_items</text>
  <rect x="896" y="872" width="80" height="18" rx="9" fill="#1E2235" stroke="#8B5CF6" stroke-width="1"/>
  <text x="904" y="884" font-size="8" fill="#C4B5FD">pos_inventory</text>
  <line x1="600" y1="898" x2="1178" y2="898" stroke="#2A2E45" stroke-width="0.5"/>

  <!-- Printer model pills -->
  <text x="600" y="916" font-size="9" fill="#64748B">Supported Printers:</text>
  <use href="#printerPill" x="710" y="906" width="86" height="18"/>
  <text x="718" y="918" font-size="8" fill="#FCD34D">Zebra ZD420 (USB)</text>
  <rect x="806" y="906" width="110" height="18" rx="9" fill="#1E2235" stroke="#F59E0B" stroke-width="1"/>
  <text x="814" y="918" font-size="8" fill="#FCD34D">Zebra ZD620 (Eth/BT)</text>
  <rect x="926" y="906" width="120" height="18" rx="9" fill="#1E2235" stroke="#F59E0B" stroke-width="1"/>
  <text x="934" y="918" font-size="8" fill="#FCD34D">Brother QL-820NWB (WiFi)</text>

  <!-- Label format pills -->
  <text x="600" y="940" font-size="9" fill="#64748B">Label Formats:</text>
  <use href="#formatPill" x="668" y="930" width="66" height="18"/>
  <text x="676" y="942" font-size="8" fill="#6EE7B7">Code 128</text>
  <rect x="742" y="930" width="52" height="18" rx="9" fill="#1E2235" stroke="#22C55E" stroke-width="1"/>
  <text x="750" y="942" font-size="8" fill="#6EE7B7">EAN-13</text>
  <rect x="802" y="930" width="52" height="18" rx="9" fill="#1E2235" stroke="#22C55E" stroke-width="1"/>
  <text x="810" y="942" font-size="8" fill="#6EE7B7">QR Code</text>
  <rect x="862" y="930" width="44" height="18" rx="9" fill="#1E2235" stroke="#22C55E" stroke-width="1"/>
  <text x="870" y="942" font-size="8" fill="#6EE7B7">PDF417</text>

  <text x="600" y="970" font-size="9" fill="#64748B">Print commands via ESC/POS or ZPL depending on printer driver.</text>
  <text x="600" y="988" font-size="9" fill="#64748B">BarcodeBridge calls window.labelPrint(jobJSON) &#x2192; native handler queues to connected printer.</text>

</svg>