<svg role="img" aria-labelledby="title-settings_house_accounts-svg" xmlns="http://www.w3.org/2000/svg" viewBox="0 0 1366 1024" font-family="-apple-system,system-ui,BlinkMacSystemFont,'Segoe UI',sans-serif">

  <title id="title-settings_house_accounts-svg">Synalux POS — house accounts</title>
  <desc>Synalux POS mockup screen for house accounts. All UI elements admin-configurable.</desc>
  <defs>
    <!-- ==================== REUSABLE DEFINITIONS ==================== -->

    <linearGradient id="headerGrad" x1="0" y1="0" x2="0" y2="1">
      <stop offset="0%" stop-color="#1E2235"/>
      <stop offset="100%" stop-color="#181B30"/>
    </linearGradient>

    <linearGradient id="amberBtnGrad" x1="0" y1="0" x2="0" y2="1">
      <stop offset="0%" stop-color="#FBBF24"/>
      <stop offset="100%" stop-color="#F59E0B"/>
    </linearGradient>

    <linearGradient id="greenBtnGrad" x1="0" y1="0" x2="0" y2="1">
      <stop offset="0%" stop-color="#34D399"/>
      <stop offset="100%" stop-color="#22C55E"/>
    </linearGradient>

    <linearGradient id="cardGrad" x1="0" y1="0" x2="0" y2="1">
      <stop offset="0%" stop-color="#1A1D2E"/>
      <stop offset="100%" stop-color="#161929"/>
    </linearGradient>

    <filter id="cardShadow" x="-2%" y="-2%" width="104%" height="108%">
      <feDropShadow dx="0" dy="2" stdDeviation="4" flood-color="#000000" flood-opacity="0.35"/>
    </filter>
    <filter id="btnShadow" x="-4%" y="-8%" width="108%" height="120%">
      <feDropShadow dx="0" dy="1" stdDeviation="2" flood-color="#F59E0B" flood-opacity="0.3"/>
    </filter>

    <!-- SYMBOL: Admin gear icon (16x16) -->
    <symbol id="adminGear" viewBox="0 0 16 16">
      <path d="M8 5.5a2.5 2.5 0 100 5 2.5 2.5 0 000-5zM6.5 8a1.5 1.5 0 113 0 1.5 1.5 0 01-3 0z" fill="#F59E0B"/>
      <path d="M7.3 1h1.4l.3 1.5c.3.1.6.3.9.5l1.4-.6.7.7.7.7-.6 1.4c.2.3.4.6.5.9l1.5.3v1.4l-1.5.3c-.1.3-.3.6-.5.9l.6 1.4-.7.7-.7.7-1.4-.6c-.3.2-.6.4-.9.5L8.7 15H7.3l-.3-1.5c-.3-.1-.6-.3-.9-.5l-1.4.6-.7-.7-.7-.7.6-1.4c-.2-.3-.4-.6-.5-.9L2 9.6V8.2l1.5-.3c.1-.3.3-.6.5-.9l-.6-1.4.7-.7.7-.7 1.4.6c.3-.2.6-.4.9-.5L7.3 1z" fill="none" stroke="#F59E0B" stroke-width="0.8"/>
    </symbol>

    <!-- SYMBOL: Left nav active indicator -->
    <symbol id="navActive" viewBox="0 0 180 32">
      <rect width="180" height="32" fill="#1E2235"/>
  <!-- Synalux POS -->
      <rect width="3" height="32" fill="#F59E0B"/>
    </symbol>

    <!-- SYMBOL: Status badge - Active -->
    <symbol id="badgeActive" viewBox="0 0 50 16">
      <rect width="50" height="16" rx="4" fill="#22C55E" fill-opacity="0.2"/>
      <text x="25" y="12" font-size="9" font-weight="600" fill="#22C55E" text-anchor="middle" font-family="-apple-system,system-ui,sans-serif">Active</text>
    </symbol>

    <!-- SYMBOL: Status badge - Overdue -->
    <symbol id="badgeOverdue" viewBox="0 0 60 16">
      <rect width="60" height="16" rx="4" fill="#EF4444" fill-opacity="0.2"/>
      <text x="30" y="12" font-size="9" font-weight="700" fill="#EF4444" text-anchor="middle" font-family="-apple-system,system-ui,sans-serif">OVERDUE</text>
    </symbol>

    <!-- SYMBOL: Stat card background -->
    <symbol id="statCard" viewBox="0 0 210 60">
      <rect width="210" height="60" rx="8" fill="#1A1D2E"/>
    </symbol>

    <!-- SYMBOL: Authorized checkmark row element -->
    <symbol id="authCheck" viewBox="0 0 12 12">
      <text x="0" y="11" font-size="11" fill="#22C55E" font-family="-apple-system,system-ui,sans-serif">&#10003;</text>
    </symbol>

  </defs>

  <!-- ==================== BACKGROUND ==================== -->
  <rect width="1366" height="1024" fill="#0C0E1A"/>

  <!-- ==================== LEFT NAV SIDEBAR (180px) ==================== -->
  <rect x="0" y="0" width="180" height="1024" fill="#111425"/>
  <rect x="180" y="0" width="1" height="1024" fill="#2A2E45"/>

  <text x="14" y="28" font-size="13" font-weight="700" fill="#F59E0B">&#9881; Back Office</text>
  <text x="14" y="60" font-size="11" fill="#94A3B8">Gift Cards</text>
  <text x="14" y="84" font-size="11" fill="#94A3B8">Loyalty</text>
  <text x="14" y="108" font-size="11" fill="#94A3B8">Auto Gratuity</text>

  <!-- Active: House Accounts -->
  <use href="#navActive" x="0" y="118" width="180" height="32"/>
  <text x="14" y="139" font-size="12" font-weight="600" fill="#F59E0B">House Accounts</text>

  <text x="14" y="168" font-size="11" fill="#94A3B8">Tax Exempt</text>
  <text x="14" y="192" font-size="11" fill="#94A3B8">Discounts</text>
  <text x="14" y="216" font-size="11" fill="#94A3B8">Cash Management</text>
  <text x="14" y="240" font-size="11" fill="#94A3B8">Chargebacks</text>
  <text x="14" y="264" font-size="11" fill="#94A3B8">RBS Compliance</text>
  <text x="14" y="288" font-size="11" fill="#94A3B8">Employees</text>
  <text x="14" y="312" font-size="11" fill="#94A3B8">Inventory</text>
  <text x="14" y="336" font-size="11" fill="#94A3B8">Reports</text>
  <text x="14" y="360" font-size="11" fill="#94A3B8">Integrations</text>
  <text x="14" y="384" font-size="11" fill="#94A3B8">Equipment</text>
  <text x="14" y="408" font-size="11" fill="#94A3B8">Receipts</text>
  <text x="14" y="432" font-size="11" fill="#94A3B8">Taxes</text>

  <!-- ==================== TOP HEADER ==================== -->
  <rect x="181" y="0" width="1185" height="64" fill="url(#headerGrad)"/>
  <rect x="181" y="64" width="1185" height="1" fill="#2A2E45"/>
  <!-- DB: pos_house_accounts -->
  <text x="200" y="28" font-size="20" font-weight="700" fill="#E2E8F0">House Accounts</text>
  <text x="200" y="48" font-size="10.5" fill="#94A3B8">Corporate charge accounts &#8212; customers dine, charges post to their account, invoiced monthly.</text>

  <!-- Header buttons -->
  <rect x="1074" y="14" width="140" height="34" rx="6" fill="url(#amberBtnGrad)" filter="url(#btnShadow)"/>
  <text x="1094" y="36" font-size="12" font-weight="700" fill="#000">+ New House Account</text>
  <rect x="1224" y="14" width="122" height="34" rx="6" fill="#1A1D2E" stroke="#2A2E45" stroke-width="1"/>
  <text x="1248" y="36" font-size="12" fill="#E2E8F0">Export CSV</text>

  <!-- ==================== STATS BAR ==================== -->
  <!-- DB: pos_house_accounts aggregate queries -->
  <rect x="181" y="65" width="1185" height="72" fill="#111425"/>

  <use href="#statCard" x="188" y="70" width="210" height="60"/>
  <text x="208" y="90" font-size="10" fill="#94A3B8">Active House Accounts</text>
  <text x="208" y="118" font-size="26" font-weight="700" fill="#E2E8F0">12</text>

  <use href="#statCard" x="406" y="70" width="210" height="60"/>
  <text x="426" y="90" font-size="10" fill="#94A3B8">Total Outstanding Balance</text>
  <text x="426" y="118" font-size="22" font-weight="700" fill="#F59E0B">$8,420.50</text>

  <rect x="624" y="70" width="200" height="60" rx="8" fill="#1A1D2E"/>
  <text x="644" y="90" font-size="10" fill="#94A3B8">Charges This Month</text>
  <text x="644" y="118" font-size="22" font-weight="700" fill="#E2E8F0">$4,240.00</text>

  <rect x="832" y="70" width="180" height="60" rx="8" fill="#1A1D2E"/>
  <text x="852" y="90" font-size="10" fill="#94A3B8">Invoices Overdue</text>
  <text x="852" y="115" font-size="26" font-weight="700" fill="#F97316">2</text>
  <rect x="890" y="101" width="60" height="18" rx="4" fill="#F97316" fill-opacity="0.2"/>
  <text x="895" y="114" font-size="9" font-weight="600" fill="#F97316">&#9888; OVERDUE</text>

  <use href="#statCard" x="1020" y="70" width="210" height="60"/>
  <text x="1040" y="90" font-size="10" fill="#94A3B8">Payments Received</text>
  <text x="1040" y="113" font-size="20" font-weight="700" fill="#22C55E">$6,180.00</text>
  <text x="1040" y="128" font-size="9" fill="#64748B">this month</text>

  <!-- ==================== LEFT PANEL: ACCOUNT LIST ==================== -->
  <rect x="181" y="137" width="340" height="887" fill="url(#cardGrad)" stroke="#2A2E45" stroke-width="1"/>

  <!-- Search bar -->
  <rect x="197" y="151" width="306" height="34" rx="6" fill="#0C0E1A" stroke="#2A2E45" stroke-width="1"/>
  <text x="213" y="173" font-size="11" fill="#64748B">&#128269; Search accounts...</text>

  <!-- Filter tabs -->
  <rect x="197" y="195" width="305" height="28" rx="6" fill="#0C0E1A"/>
  <rect x="199" y="197" width="62" height="24" rx="5" fill="#F59E0B"/>
  <text x="211" y="213" font-size="10" font-weight="700" fill="#000">All (12)</text>
  <text x="271" y="213" font-size="10" fill="#94A3B8">Active</text>
  <text x="319" y="213" font-size="10" fill="#EF4444">Overdue (2)</text>
  <text x="381" y="213" font-size="10" fill="#94A3B8">Pending</text>

  <!-- Account Card 1 - Marriott (selected) -->
  <!-- DB: pos_house_accounts WHERE id = 'HOUSE-0042' -->
  <rect x="189" y="233" width="322" height="74" rx="6" fill="#1E2235" stroke="#F59E0B" stroke-width="1.5"/>
  <rect x="189" y="233" width="4" height="74" rx="2" fill="#F59E0B"/>
  <text x="205" y="253" font-size="12" font-weight="700" fill="#E2E8F0">Marriott Hotels &#8212; Corporate</text>
  <text x="205" y="269" font-size="10" fill="#94A3B8">Balance: </text>
  <text x="248" y="269" font-size="10" font-weight="600" fill="#F59E0B">$2,840.00</text>
  <use href="#badgeActive" x="381" y="258" width="50" height="16"/>
  <text x="205" y="285" font-size="9" fill="#64748B">Invoice due Jun 1</text>
  <text x="205" y="299" font-size="9" fill="#64748B">HOUSE-0042</text>

  <!-- Account Card 2 - City Law Firm -->
  <rect x="189" y="315" width="322" height="70" rx="6" fill="#111425" stroke="#2A2E45" stroke-width="1"/>
  <text x="205" y="335" font-size="12" font-weight="600" fill="#E2E8F0">City Law Firm LLP</text>
  <text x="205" y="351" font-size="10" fill="#94A3B8">Balance: </text>
  <text x="248" y="351" font-size="10" font-weight="600" fill="#E2E8F0">$1,620.00</text>
  <use href="#badgeActive" x="381" y="340" width="50" height="16"/>
  <text x="205" y="367" font-size="9" fill="#64748B">Invoice due Jun 1</text>
  <text x="205" y="379" font-size="9" fill="#64748B">HOUSE-0018</text>

  <!-- Account Card 3 - Acme Corp (OVERDUE) -->
  <rect x="189" y="393" width="322" height="70" rx="6" fill="#111425" stroke="#EF4444" stroke-width="1"/>
  <rect x="189" y="393" width="4" height="70" rx="2" fill="#EF4444"/>
  <text x="205" y="413" font-size="12" font-weight="600" fill="#E2E8F0">Acme Corp Catering</text>
  <text x="205" y="429" font-size="10" fill="#94A3B8">Balance: </text>
  <text x="248" y="429" font-size="10" font-weight="600" fill="#EF4444">$980.00</text>
  <use href="#badgeOverdue" x="371" y="418" width="60" height="16"/>
  <text x="205" y="445" font-size="9" fill="#EF4444">Invoice 30 days past due</text>
  <text x="205" y="457" font-size="9" fill="#64748B">HOUSE-0031</text>

  <!-- Account Card 4 - Downtown Hotel -->
  <rect x="189" y="471" width="322" height="62" rx="6" fill="#111425" stroke="#2A2E45" stroke-width="1"/>
  <text x="205" y="491" font-size="12" font-weight="600" fill="#E2E8F0">Downtown Hotel Guests</text>
  <text x="205" y="507" font-size="10" fill="#94A3B8">Balance: </text>
  <text x="248" y="507" font-size="10" font-weight="600" fill="#E2E8F0">$640.00</text>
  <use href="#badgeActive" x="381" y="496" width="50" height="16"/>
  <text x="205" y="525" font-size="9" fill="#64748B">HOUSE-0007</text>

  <!-- Account Card 5 - Sunrise Academy (OVERDUE) -->
  <rect x="189" y="541" width="322" height="62" rx="6" fill="#111425" stroke="#EF4444" stroke-width="1"/>
  <rect x="189" y="541" width="4" height="62" rx="2" fill="#EF4444"/>
  <text x="205" y="561" font-size="12" font-weight="600" fill="#E2E8F0">Sunrise Academy</text>
  <text x="205" y="577" font-size="10" fill="#94A3B8">Balance: </text>
  <text x="248" y="577" font-size="10" font-weight="600" fill="#EF4444">$580.00</text>
  <use href="#badgeOverdue" x="371" y="566" width="60" height="16"/>
  <text x="205" y="593" font-size="9" fill="#EF4444">15 days past due</text>

  <!-- Account Card 6 - Metro Hospital -->
  <rect x="189" y="611" width="322" height="56" rx="6" fill="#111425" stroke="#2A2E45" stroke-width="1"/>
  <text x="205" y="631" font-size="12" font-weight="600" fill="#E2E8F0">Metro Hospital Cafeteria</text>
  <text x="205" y="647" font-size="10" fill="#94A3B8">Balance: </text>
  <text x="248" y="647" font-size="10" font-weight="600" fill="#E2E8F0">$420.00</text>
  <use href="#badgeActive" x="381" y="636" width="50" height="16"/>
  <text x="205" y="659" font-size="9" fill="#64748B">HOUSE-0055</text>

  <!-- Account Card 7 - Senator's Club -->
  <rect x="189" y="675" width="322" height="56" rx="6" fill="#111425" stroke="#2A2E45" stroke-width="1"/>
  <text x="205" y="695" font-size="12" font-weight="600" fill="#E2E8F0">Senator's Club</text>
  <text x="205" y="711" font-size="10" fill="#94A3B8">Balance: </text>
  <text x="248" y="711" font-size="10" font-weight="600" fill="#E2E8F0">$890.00</text>
  <use href="#badgeActive" x="381" y="700" width="50" height="16"/>
  <text x="205" y="723" font-size="9" fill="#64748B">HOUSE-0062</text>

  <!-- Account Card 8 - TechCorp HQ -->
  <rect x="189" y="739" width="322" height="56" rx="6" fill="#111425" stroke="#2A2E45" stroke-width="1"/>
  <text x="205" y="759" font-size="12" font-weight="600" fill="#E2E8F0">TechCorp HQ Cafe</text>
  <text x="205" y="775" font-size="10" fill="#94A3B8">Balance: </text>
  <text x="248" y="775" font-size="10" font-weight="600" fill="#E2E8F0">$450.00</text>
  <use href="#badgeActive" x="381" y="764" width="50" height="16"/>
  <text x="205" y="787" font-size="9" fill="#64748B">HOUSE-0071</text>

  <!-- View All link -->
  <text x="271" y="817" font-size="11" fill="#8B5CF6" text-decoration="underline">View All 12 accounts &#8594;</text>

  <!-- New House Account button -->
  <rect x="197" y="831" width="306" height="36" rx="6" fill="url(#amberBtnGrad)" filter="url(#btnShadow)"/>
  <text x="281" y="854" font-size="13" font-weight="700" fill="#000">+ New House Account</text>

  <!-- ==================== CENTER PANEL: ACCOUNT DETAIL ==================== -->
  <rect x="521" y="137" width="480" height="887" fill="#0C0E1A" stroke="#2A2E45" stroke-width="1"/>

  <!-- Center panel header -->
  <rect x="521" y="137" width="480" height="54" fill="url(#headerGrad)" stroke="#2A2E45" stroke-width="1"/>
  <text x="537" y="159" font-size="15" font-weight="700" fill="#E2E8F0">Marriott Hotels &#8212; Corporate</text>
  <use href="#badgeActive" x="537" y="163" width="48" height="16"/>
  <rect x="831" y="145" width="52" height="28" rx="5" fill="#1A1D2E" stroke="#2A2E45" stroke-width="1"/>
  <text x="844" y="163" font-size="11" fill="#E2E8F0">Edit</text>
  <use href="#adminGear" x="869" y="152" width="14" height="14"/>
  <rect x="891" y="145" width="100" height="28" rx="5" fill="url(#amberBtnGrad)"/>
  <text x="898" y="163" font-size="11" font-weight="700" fill="#000">Gen Invoice</text>

  <!-- ==================== Account Info Section ==================== -->
  <!-- DB: pos_house_accounts row -->
  <rect x="529" y="201" width="462" height="230" rx="6" fill="url(#cardGrad)" filter="url(#cardShadow)"/>
  <text x="545" y="223" font-size="12" font-weight="700" fill="#E2E8F0">Account Information</text>
  <use href="#adminGear" x="670" y="211" width="14" height="14"/>

  <!-- Info rows (editable fields) -->
  <!-- DB: pos_house_accounts.id -->
  <text x="545" y="245" font-size="10" fill="#64748B">ACCOUNT #</text>
  <text x="681" y="245" font-size="10" fill="#E2E8F0">HOUSE-0042</text>

  <!-- DB: pos_house_accounts.billing_email -->
  <text x="545" y="263" font-size="10" fill="#64748B">BILLING CONTACT</text>
  <use href="#adminGear" x="635" y="251" width="14" height="14"/>
  <text x="681" y="263" font-size="10" fill="#E2E8F0">Jane Smith, Finance Dept &#8212; jsmith@marriott.com</text>

  <!-- DB: pos_house_accounts.billing_cycle -->
  <text x="545" y="281" font-size="10" fill="#64748B">BILLING CYCLE</text>
  <use href="#adminGear" x="625" y="269" width="14" height="14"/>
  <text x="681" y="281" font-size="10" fill="#E2E8F0">Monthly &#8212; invoiced on the 1st</text>

  <!-- DB: pos_house_accounts.payment_terms_days -->
  <text x="545" y="299" font-size="10" fill="#64748B">PAYMENT TERMS</text>
  <use href="#adminGear" x="633" y="287" width="14" height="14"/>
  <text x="681" y="299" font-size="10" fill="#E2E8F0">Net 30</text>

  <!-- DB: pos_house_accounts.price_level_id (FK) -->
  <text x="545" y="317" font-size="10" fill="#64748B">PRICE LEVEL</text>
  <use href="#adminGear" x="610" y="305" width="14" height="14"/>
  <text x="681" y="317" font-size="10" fill="#8B5CF6">Wholesale &#8593;</text>

  <!-- DB: pos_house_accounts.tax_exempt_account_id (FK) -->
  <text x="545" y="335" font-size="10" fill="#64748B">TAX STATUS</text>
  <text x="681" y="335" font-size="10" fill="#22C55E">Tax-exempt &#8212; Cert #NY-CORP-2024-847</text>

  <!-- DB: pos_house_accounts.credit_limit_cents -->
  <text x="545" y="355" font-size="10" fill="#64748B">CREDIT LIMIT</text>
  <use href="#adminGear" x="614" y="343" width="14" height="14"/>
  <text x="681" y="355" font-size="10" fill="#E2E8F0">$10,000.00 | Used: $2,840 (28%)</text>

  <!-- Credit bar -->
  <rect x="545" y="361" width="430" height="8" rx="4" fill="#0C0E1A"/>
  <rect x="545" y="361" width="120" height="8" rx="4" fill="#22C55E"/>
  <text x="545" y="385" font-size="9" fill="#22C55E">$7,160.00 available</text>
  <text x="681" y="385" font-size="9" fill="#64748B">Alert at 80% ($8,000)</text>

  <text x="545" y="401" font-size="10" fill="#64748B">CREDIT AVAIL</text>
  <text x="681" y="401" font-size="10" font-weight="600" fill="#22C55E">$7,160.00</text>

  <text x="545" y="417" font-size="10" fill="#64748B">ALERT THRESHOLD</text>
  <use href="#adminGear" x="637" y="405" width="14" height="14"/>
  <text x="681" y="417" font-size="10" fill="#F59E0B">80% of limit ($8,000.00)</text>

  <!-- ==================== Authorized Purchasers ==================== -->
  <!-- DB: pos_house_account_purchasers -->
  <rect x="529" y="441" width="462" height="100" rx="6" fill="url(#cardGrad)" filter="url(#cardShadow)"/>
  <text x="545" y="461" font-size="12" font-weight="700" fill="#E2E8F0">Authorized Purchasers</text>
  <use href="#adminGear" x="680" y="449" width="14" height="14"/>

  <use href="#authCheck" x="545" y="469" width="12" height="12"/>
  <text x="561" y="481" font-size="11" fill="#E2E8F0">John Davis</text>
  <text x="641" y="481" font-size="10" fill="#64748B">ext. 201</text>
  <use href="#badgeActive" x="689" y="470" width="50" height="16"/>

  <use href="#authCheck" x="545" y="489" width="12" height="12"/>
  <text x="561" y="501" font-size="11" fill="#E2E8F0">Mary Chen</text>
  <text x="641" y="501" font-size="10" fill="#64748B">ext. 415</text>
  <use href="#badgeActive" x="689" y="490" width="50" height="16"/>

  <text x="545" y="521" font-size="11" fill="#F59E0B">&#9888;</text>
  <text x="561" y="521" font-size="11" fill="#E2E8F0">Sam Wilson</text>
  <text x="641" y="521" font-size="10" fill="#64748B">ext. 302</text>
  <rect x="689" y="510" width="92" height="16" rx="4" fill="#F59E0B" fill-opacity="0.15"/>
  <text x="693" y="521" font-size="9" font-weight="600" fill="#F59E0B">Mgr Auth &gt;$500</text>
  <text x="545" y="533" font-size="9" fill="#64748B">Orders over $500 require manager approval</text>

  <!-- ==================== Charges Log ==================== -->
  <!-- DB: pos_house_account_charges -->
  <rect x="529" y="549" width="462" height="218" rx="6" fill="url(#cardGrad)" filter="url(#cardShadow)"/>
  <text x="545" y="569" font-size="12" font-weight="700" fill="#E2E8F0">Charges This Month</text>

  <!-- Table header -->
  <rect x="529" y="575" width="462" height="24" fill="#111425"/>
  <text x="545" y="591" font-size="9" font-weight="700" fill="#64748B">DATE</text>
  <text x="597" y="591" font-size="9" font-weight="700" fill="#64748B">CHECK #</text>
  <text x="661" y="591" font-size="9" font-weight="700" fill="#64748B">ITEMS</text>
  <text x="811" y="591" font-size="9" font-weight="700" fill="#64748B">SERVER</text>
  <text x="877" y="591" font-size="9" font-weight="700" fill="#64748B">AMOUNT</text>
  <text x="941" y="591" font-size="9" font-weight="700" fill="#64748B">STATUS</text>

  <!-- Charge rows -->
  <rect x="529" y="599" width="462" height="24" fill="#1A1D2E"/>
  <text x="545" y="615" font-size="10" fill="#94A3B8">May 27</text>
  <text x="597" y="615" font-size="10" fill="#94A3B8">#2406-142</text>
  <text x="661" y="615" font-size="10" fill="#E2E8F0">Business Lunch (4 guests)</text>
  <text x="811" y="615" font-size="10" fill="#94A3B8">Marcus</text>
  <text x="877" y="615" font-size="10" font-weight="600" fill="#E2E8F0">$187.40</text>
  <text x="941" y="615" font-size="10" fill="#22C55E">Charged &#10003;</text>

  <rect x="529" y="623" width="462" height="24" fill="#111425"/>
  <text x="545" y="639" font-size="10" fill="#94A3B8">May 25</text>
  <text x="597" y="639" font-size="10" fill="#94A3B8">#2406-098</text>
  <text x="661" y="639" font-size="10" fill="#E2E8F0">Dinner Meeting (8 guests)</text>
  <text x="811" y="639" font-size="10" fill="#94A3B8">Sarah</text>
  <text x="877" y="639" font-size="10" font-weight="600" fill="#E2E8F0">$640.20</text>
  <text x="941" y="639" font-size="10" fill="#22C55E">Charged &#10003;</text>

  <rect x="529" y="647" width="462" height="24" fill="#1A1D2E"/>
  <text x="545" y="663" font-size="10" fill="#94A3B8">May 22</text>
  <text x="597" y="663" font-size="10" fill="#94A3B8">#2406-071</text>
  <text x="661" y="663" font-size="10" fill="#E2E8F0">Breakfast (12 guests)</text>
  <text x="811" y="663" font-size="10" fill="#94A3B8">Tyler</text>
  <text x="877" y="663" font-size="10" font-weight="600" fill="#E2E8F0">$384.60</text>
  <text x="941" y="663" font-size="10" fill="#22C55E">Charged &#10003;</text>

  <rect x="529" y="671" width="462" height="24" fill="#111425"/>
  <text x="545" y="687" font-size="10" fill="#94A3B8">May 20</text>
  <text x="597" y="687" font-size="10" fill="#94A3B8">#2406-055</text>
  <text x="661" y="687" font-size="10" fill="#E2E8F0">Cocktail Reception</text>
  <text x="811" y="687" font-size="10" fill="#94A3B8">Marcus</text>
  <text x="877" y="687" font-size="10" font-weight="600" fill="#E2E8F0">$1,187.80</text>
  <text x="941" y="687" font-size="10" fill="#22C55E">Charged &#10003;</text>

  <rect x="529" y="695" width="462" height="24" fill="#1A1D2E"/>
  <text x="545" y="711" font-size="10" fill="#94A3B8">May 15</text>
  <text x="597" y="711" font-size="10" fill="#94A3B8">#2406-031</text>
  <text x="661" y="711" font-size="10" fill="#E2E8F0">Corporate Lunch (6)</text>
  <text x="811" y="711" font-size="10" fill="#94A3B8">Sarah</text>
  <text x="877" y="711" font-size="10" font-weight="600" fill="#E2E8F0">$440.00</text>
  <text x="941" y="711" font-size="10" fill="#22C55E">Charged &#10003;</text>

  <!-- Total row -->
  <rect x="529" y="719" width="462" height="30" fill="#1E2235"/>
  <text x="811" y="738" font-size="11" font-weight="700" fill="#E2E8F0">TOTAL</text>
  <text x="877" y="738" font-size="12" font-weight="700" fill="#F59E0B">$2,840.00</text>
  <text x="941" y="738" font-size="10" fill="#64748B">5 charges</text>

  <!-- ==================== Invoice Preview ==================== -->
  <!-- DB: pos_invoices -->
  <rect x="529" y="757" width="462" height="156" rx="6" fill="url(#cardGrad)" stroke="#2A2E45" stroke-width="1" filter="url(#cardShadow)"/>
  <rect x="529" y="757" width="462" height="24" rx="6" fill="#111425"/>
  <text x="545" y="773" font-size="10" font-weight="700" fill="#64748B">INVOICE PREVIEW &#8212; INV-2026-05-042</text>

  <text x="545" y="797" font-size="10" fill="#64748B">Period:</text>
  <text x="591" y="797" font-size="10" fill="#E2E8F0">May 1&#8211;31, 2026</text>
  <text x="545" y="813" font-size="10" fill="#64748B">Account:</text>
  <text x="591" y="813" font-size="10" fill="#E2E8F0">Marriott Hotels &#8212; Corporate</text>
  <text x="545" y="829" font-size="10" fill="#64748B">Total Charges:</text>
  <text x="631" y="829" font-size="10" font-weight="600" fill="#E2E8F0">$2,840.00</text>
  <text x="545" y="845" font-size="10" fill="#64748B">Previous Balance:</text>
  <text x="651" y="845" font-size="10" fill="#22C55E">$0.00 (paid on time)</text>
  <text x="545" y="861" font-size="11" font-weight="700" fill="#64748B">TOTAL DUE:</text>
  <text x="631" y="861" font-size="13" font-weight="700" fill="#F59E0B">$2,840.00</text>
  <text x="771" y="861" font-size="10" fill="#64748B">Due: June 30, 2026 (Net 30)</text>

  <!-- Invoice buttons -->
  <rect x="545" y="873" width="100" height="28" rx="5" fill="url(#amberBtnGrad)" filter="url(#btnShadow)"/>
  <text x="565" y="891" font-size="11" font-weight="700" fill="#000">Send Invoice</text>
  <rect x="653" y="873" width="58" height="28" rx="5" fill="#1A1D2E" stroke="#2A2E45" stroke-width="1"/>
  <text x="666" y="891" font-size="11" fill="#E2E8F0">Print</text>
  <rect x="719" y="873" width="92" height="28" rx="5" fill="#1A1D2E" stroke="#2A2E45" stroke-width="1"/>
  <text x="729" y="891" font-size="11" fill="#E2E8F0">Preview PDF</text>

  <!-- ==================== RIGHT PANEL ==================== -->
  <rect x="1001" y="137" width="365" height="887" fill="#0C0E1A" stroke="#2A2E45" stroke-width="1"/>

  <!-- How It Works on Register -->
  <rect x="1011" y="145" width="345" height="220" rx="6" fill="url(#cardGrad)" stroke="#F59E0B" stroke-width="1" filter="url(#cardShadow)"/>
  <text x="1027" y="165" font-size="12" font-weight="700" fill="#F59E0B">How It Works on Register</text>
  <rect x="1027" y="171" width="314" height="2" fill="#F59E0B" fill-opacity="0.3"/>
  <text x="1027" y="189" font-size="10" fill="#94A3B8">1. Server selects "House Account" as payment method</text>
  <text x="1027" y="207" font-size="10" fill="#94A3B8">2. Search account by name or account number</text>
  <text x="1027" y="225" font-size="10" fill="#94A3B8">3. Select authorized purchaser from list</text>
  <text x="1027" y="243" font-size="10" fill="#F97316">4. If order &gt; $500 &#8594; manager approval popup required</text>
  <text x="1027" y="261" font-size="10" fill="#94A3B8">5. Charge posts to account immediately on approval</text>
  <text x="1027" y="279" font-size="10" fill="#94A3B8">6. Receipt: "Charged to: Marriott Hotels (#HOUSE-0042)"</text>
  <text x="1027" y="297" font-size="10" fill="#94A3B8">7. Customer emailed receipt (optional per account setting)</text>
  <!-- DB: pos_payments.method = 'house_account' -->
  <text x="1027" y="319" font-size="9" fill="#F59E0B">Credit check: balance + order &lt;= credit_limit &#8594; else BLOCK</text>
  <text x="1027" y="335" font-size="9" fill="#64748B">pos_payments.method = 'house_account' + house_account_id FK</text>

  <!-- ==================== Record Payment ==================== -->
  <!-- DB: pos_invoice_payments -->
  <rect x="1011" y="375" width="345" height="230" rx="6" fill="url(#cardGrad)" filter="url(#cardShadow)"/>
  <text x="1027" y="395" font-size="12" font-weight="700" fill="#E2E8F0">Record Payment</text>
  <use href="#adminGear" x="1128" y="383" width="14" height="14"/>
  <line x1="1027" y1="401" x2="1348" y2="401" stroke="#2A2E45" stroke-width="1"/>

  <text x="1027" y="421" font-size="10" fill="#64748B">ACCOUNT</text>
  <rect x="1027" y="427" width="314" height="28" rx="5" fill="#0C0E1A" stroke="#2A2E45" stroke-width="1"/>
  <text x="1039" y="445" font-size="10" fill="#E2E8F0">Marriott Hotels &#8212; Corporate</text>

  <text x="1027" y="471" font-size="10" fill="#64748B">INVOICE</text>
  <rect x="1027" y="477" width="314" height="28" rx="5" fill="#0C0E1A" stroke="#2A2E45" stroke-width="1"/>
  <text x="1039" y="495" font-size="10" fill="#E2E8F0">INV-2026-05-042 &#8212; $2,840.00</text>

  <!-- DB: pos_invoice_payments.method -->
  <text x="1027" y="521" font-size="10" fill="#64748B">PAYMENT METHOD</text>
  <use href="#adminGear" x="1130" y="509" width="14" height="14"/>
  <text x="1031" y="539" font-size="10" fill="#64748B">&#9675; Check</text>
  <text x="1083" y="539" font-size="10" fill="#64748B">&#9675; ACH</text>
  <text x="1121" y="539" font-size="10" fill="#F59E0B">&#9673; Wire</text>
  <text x="1163" y="539" font-size="10" fill="#64748B">&#9675; Card</text>

  <text x="1027" y="559" font-size="10" fill="#64748B">REFERENCE #</text>
  <rect x="1027" y="565" width="314" height="28" rx="5" fill="#0C0E1A" stroke="#2A2E45" stroke-width="1"/>
  <text x="1039" y="583" font-size="10" fill="#E2E8F0">ACH-20260601-9284</text>

  <!-- Record Payment button -->
  <rect x="1027" y="601" width="142" height="32" rx="6" fill="url(#greenBtnGrad)"/>
  <text x="1045" y="621" font-size="12" font-weight="700" fill="#fff">Record Payment</text>
  <text x="1179" y="621" font-size="10" fill="#64748B">Amount: $2,840.00</text>

  <!-- ==================== Overdue Accounts Actions ==================== -->
  <!-- DB: pos_house_accounts WHERE status = 'overdue' -->
  <rect x="1011" y="645" width="345" height="200" rx="6" fill="url(#cardGrad)" stroke="#EF4444" stroke-width="1" filter="url(#cardShadow)"/>
  <rect x="1011" y="645" width="345" height="28" rx="6" fill="#EF4444" fill-opacity="0.12"/>
  <text x="1027" y="664" font-size="12" font-weight="700" fill="#EF4444">Overdue Accounts &#8212; Action Required</text>

  <!-- Acme Corp card -->
  <rect x="1019" y="679" width="330" height="72" rx="5" fill="#111425" stroke="#EF4444" stroke-width="1"/>
  <text x="1031" y="697" font-size="11" font-weight="700" fill="#E2E8F0">Acme Corp Catering</text>
  <text x="1031" y="713" font-size="10" fill="#EF4444">30 days overdue &#8212; $980.00</text>
  <rect x="1031" y="721" width="120" height="24" rx="4" fill="url(#amberBtnGrad)"/>
  <text x="1039" y="737" font-size="9" font-weight="700" fill="#000">Send Reminder Email</text>
  <rect x="1159" y="721" width="120" height="24" rx="4" fill="#EF4444"/>
  <text x="1165" y="737" font-size="9" font-weight="700" fill="#fff">Put Account on Hold</text>

  <!-- Sunrise Academy row -->
  <rect x="1019" y="759" width="330" height="28" rx="5" fill="#111425" stroke="#EF4444" stroke-width="1"/>
  <text x="1031" y="777" font-size="10" fill="#E2E8F0">Sunrise Academy &#8212; 15 days &#8212; $580.00</text>
  <rect x="1257" y="761" width="84" height="22" rx="4" fill="url(#amberBtnGrad)"/>
  <text x="1262" y="776" font-size="9" font-weight="700" fill="#000">Send Reminder</text>

  <!-- Collections note -->
  <text x="1019" y="803" font-size="10" fill="#64748B">Collections Note:</text>
  <rect x="1019" y="809" width="330" height="28" rx="5" fill="#0C0E1A" stroke="#2A2E45" stroke-width="1"/>
  <text x="1031" y="827" font-size="10" fill="#64748B">Enter collections note...</text>

  <!-- ==================== WORKFLOW INTEGRATION FOOTER ==================== -->
  <!-- DB schema reference -->
  <rect x="181" y="876" width="1185" height="148" fill="url(#cardGrad)" stroke="#F59E0B" stroke-width="1"/>
  <text x="201" y="898" font-size="11" font-weight="700" fill="#F59E0B">Database Schema &amp; Workflow Integration</text>
  <line x1="201" y1="904" x2="1350" y2="904" stroke="#F59E0B" stroke-width="0.5" stroke-opacity="0.4"/>
  <!-- DB: pos_house_accounts -->
  <text x="201" y="920" font-size="9.5" fill="#94A3B8">pos_house_accounts: id, venue_id, company_name, billing_email, credit_limit_cents, balance_cents, price_level_id, tax_exempt_account_id, billing_cycle, payment_terms_days</text>
  <!-- DB: pos_house_account_charges -->
  <text x="201" y="936" font-size="9.5" fill="#94A3B8">pos_house_account_charges: charge_id, account_id, order_id, amount_cents, purchaser_name, ts</text>
  <!-- DB: pos_invoices -->
  <text x="201" y="952" font-size="9.5" fill="#94A3B8">pos_invoices: invoice_id, account_id, period_start, period_end, total_cents, status (draft | sent | paid | overdue)</text>
  <!-- DB: pos_invoice_payments -->
  <text x="201" y="968" font-size="9.5" fill="#94A3B8">pos_invoice_payments: payment_id, invoice_id, method, reference, amount_cents, recorded_at</text>
  <text x="201" y="984" font-size="9.5" fill="#94A3B8">Register: pos_payments.method = 'house_account', house_account_id FK. Credit check: balance + order_amount &lt;= credit_limit else BLOCK.</text>
  <text x="201" y="1000" font-size="9.5" fill="#94A3B8">Monthly cron: generate invoices on billing_day, email via SendGrid, update status. Overdue: auto-flag at payment_terms_days + 1.</text>
  <text x="201" y="1016" font-size="9" fill="#64748B">Linked: pos_price_levels (price_level_id) &#183; pos_tax_exempt_accounts (tax_exempt_account_id) &#183; pos_orders (order_id)</text>

</svg>