<svg role="img" aria-labelledby="title-settings_revenue_centers-svg" xmlns="http://www.w3.org/2000/svg" viewBox="0 0 1366 1024" font-family="-apple-system,system-ui,BlinkMacSystemFont,sans-serif">
  <title id="title-settings_revenue_centers-svg">Synalux POS — revenue centers</title>
  <desc>Synalux POS mockup screen for revenue centers. All UI elements admin-configurable.</desc>
  <defs>
    <!-- Gradients -->
    <linearGradient id="cardGrad" x1="0" y1="0" x2="0" y2="1">
      <stop offset="0%" stop-color="#1E2235"/>
      <stop offset="100%" stop-color="#1A1D2E"/>
    </linearGradient>
    <linearGradient id="amberGrad" x1="0" y1="0" x2="1" y2="1">
      <stop offset="0%" stop-color="#F59E0B"/>
      <stop offset="100%" stop-color="#D97706"/>
    </linearGradient>
    <linearGradient id="headerGrad" x1="0" y1="0" x2="0" y2="1">
      <stop offset="0%" stop-color="#1F2337"/>
      <stop offset="100%" stop-color="#1A1D2E"/>
    </linearGradient>

    <!-- Shadows -->
    <filter id="shadow" x="-4%" y="-4%" width="108%" height="116%">
      <feDropShadow dx="0" dy="2" stdDeviation="4" flood-color="#000" flood-opacity="0.3"/>
    </filter>
    <filter id="shadowSm" x="-2%" y="-2%" width="104%" height="112%">
      <feDropShadow dx="0" dy="1" stdDeviation="2" flood-color="#000" flood-opacity="0.2"/>
    </filter>

    <!-- Admin gear icon -->
    <symbol id="gear" viewBox="0 0 16 16">
      <path d="M8 1l1.2.3.5 1.3.9-.6 1.2.7-.2 1.4 1.1.8-.6 1.2L13.4 7l.3 1.2-1.1.8.2 1.4-1.2.7-.9-.6-.5 1.3L8 12l-1.2-.3-.5-1.3-.9.6-1.2-.7.2-1.4-1.1-.8.6-1.2L2.6 7l-.3-1.2 1.1-.8-.2-1.4 1.2-.7.9.6.5-1.3z" fill="none" stroke="#F59E0B" stroke-width="1"/>
      <circle cx="8" cy="7" r="2" fill="none" stroke="#F59E0B" stroke-width="1"/>
    </symbol>

    <!-- Toggle ON -->
    <symbol id="toggleOn" viewBox="0 0 38 20">
      <rect width="38" height="20" rx="10" fill="#22C55E"/>
  <!-- Synalux POS -->
      <circle cx="28" cy="10" r="8" fill="#FFFFFF"/>
    </symbol>

    <!-- Toggle OFF -->
    <symbol id="toggleOff" viewBox="0 0 38 20">
      <rect width="38" height="20" rx="10" fill="#374151"/>
      <circle cx="10" cy="10" r="8" fill="#FFFFFF"/>
    </symbol>

    <!-- RC list card (unselected) -->
    <symbol id="rcCard" viewBox="0 0 416 80">
      <rect width="416" height="80" rx="6" fill="#1A1D2E"/>
    </symbol>

    <!-- RC list card (selected) -->
    <symbol id="rcCardSelected" viewBox="0 0 416 80">
      <rect width="416" height="80" rx="6" fill="#1E2235" stroke="#F59E0B" stroke-width="1"/>
    </symbol>

    <!-- Status badge: Active -->
    <symbol id="badgeActive" viewBox="0 0 70 20">
      <rect width="70" height="20" rx="10" fill="#065F46"/>
    </symbol>

    <!-- Status badge: Inactive -->
    <symbol id="badgeInactive" viewBox="0 0 70 20">
      <rect width="70" height="20" rx="10" fill="#374151"/>
    </symbol>

    <!-- Table header row -->
    <symbol id="tableHeader" viewBox="0 0 736 28">
      <rect width="736" height="28" fill="#11142A"/>
    </symbol>

    <!-- Tax zone row -->
    <symbol id="taxZoneRow" viewBox="0 0 736 32">
      <rect width="736" height="32" fill="#1A1D2E"/>
    </symbol>
    <symbol id="taxZoneRowAlt" viewBox="0 0 736 32">
      <rect width="736" height="32" fill="#11142A"/>
    </symbol>

    <!-- Stat card -->
    <symbol id="statCard" viewBox="0 0 184 60">
      <rect width="184" height="60" rx="6" fill="#1A1D2E"/>
    </symbol>

    <!-- Order type pill (selected) -->
    <symbol id="pillSelected" viewBox="0 0 74 24">
      <rect width="74" height="24" rx="4" fill="#065F46"/>
    </symbol>

    <!-- Order type pill (unselected) -->
    <symbol id="pillUnselected" viewBox="0 0 74 24">
      <rect width="74" height="24" rx="4" fill="#1E2235" stroke="#374151" stroke-width="1"/>
    </symbol>
  </defs>

  <!-- ===== CANVAS ===== -->
  <rect width="1366" height="1024" fill="#0C0E1A"/>

  <!-- ===== LEFT NAV SIDEBAR ===== -->
  <rect x="0" y="0" width="200" height="1024" fill="#11142A"/>
  <rect x="200" y="0" width="1" height="1024" fill="#2A2E45"/>
  <text x="16" y="30" font-size="13" font-weight="700" fill="#F59E0B">Back Office</text>
  <text x="16" y="67" font-size="12" fill="#94A3B8">Restaurant Info</text>
  <text x="16" y="103" font-size="12" fill="#94A3B8">Menu Builder</text>
  <text x="16" y="139" font-size="12" fill="#94A3B8">Taxes</text>
  <text x="16" y="175" font-size="12" fill="#94A3B8">Employees</text>
  <text x="16" y="211" font-size="12" fill="#94A3B8">Equipment</text>
  <text x="16" y="247" font-size="12" fill="#94A3B8">Floor Plans</text>
  <text x="16" y="283" font-size="12" fill="#94A3B8">Payments</text>
  <text x="16" y="319" font-size="12" fill="#94A3B8">Reports</text>
  <text x="16" y="355" font-size="12" fill="#94A3B8">Advantage Prog.</text>
  <!-- Active nav -->
  <rect x="0" y="368" width="200" height="36" fill="#1E2235" rx="4"/>
  <rect x="0" y="368" width="3" height="36" fill="#F59E0B"/>
  <text x="16" y="391" font-size="12" font-weight="600" fill="#F59E0B">Revenue Centers</text>
  <text x="16" y="427" font-size="12" fill="#94A3B8">Integrations</text>

  <!-- ===== HEADER ===== -->
  <rect x="201" y="0" width="1165" height="56" fill="url(#headerGrad)"/>
  <rect x="201" y="56" width="1165" height="1" fill="#2A2E45"/>
  <text x="220" y="34" font-size="18" font-weight="700" fill="#FFFFFF">Revenue Centers &amp; Rooms</text>
  <!-- DB: pos_revenue_centers -->
  <text x="220" y="50" font-size="11" fill="#94A3B8">Segment sales by area | assign tax zones | link to floor plan rooms | pos_revenue_centers table</text>
  <use href="#gear" x="1130" y="14" width="16" height="16"/>
  <!-- Add button -->
  <rect x="1166" y="12" width="180" height="32" rx="6" fill="url(#amberGrad)" filter="url(#shadowSm)"/>
  <text x="1196" y="32" font-size="12" font-weight="600" fill="#000000">+ Add Revenue Center</text>

  <!-- ===== LEFT: Revenue Center List ===== -->
  <!-- DB: SELECT * FROM pos_revenue_centers ORDER BY sort_order -->
  <rect x="201" y="57" width="400" height="967" fill="#11142A"/>
  <rect x="601" y="57" width="1" height="967" fill="#2A2E45"/>
  <text x="220" y="84" font-size="13" font-weight="600" fill="#FFFFFF">Revenue Centers</text>
  <text x="380" y="84" font-size="10" fill="#94A3B8">click to configure</text>

  <!-- RC 1 — Main Dining (selected) -->
  <!-- DB: pos_revenue_centers WHERE id = 'RC-001' -->
  <use href="#rcCardSelected" x="212" y="92" width="378" height="80"/>
  <rect x="212" y="92" width="6" height="80" rx="3" fill="#F59E0B"/>
  <text x="234" y="116" font-size="14" font-weight="700" fill="#F59E0B">Main Dining</text>
  <text x="234" y="134" font-size="11" fill="#94A3B8">rc_id: RC-001 | 12 tables | 72 covers</text>
  <text x="234" y="150" font-size="10" fill="#94A3B8">Tax zone: CA State + LA County | Menu: Full</text>
  <use href="#badgeActive" x="510" y="104" width="70" height="20"/>
  <text x="522" y="118" font-size="9" fill="#6EE7B7">Active</text>
  <!-- DB: SUM(pos_orders.total_cents) WHERE revenue_center_id = 'RC-001' AND DATE(created_at) = TODAY -->
  <text x="510" y="138" font-size="10" fill="#64748B">$1,842 today</text>

  <!-- RC 2 — Bar -->
  <!-- DB: pos_revenue_centers WHERE id = 'RC-002' -->
  <use href="#rcCard" x="212" y="180" width="378" height="80"/>
  <rect x="212" y="180" width="6" height="80" rx="3" fill="#3B82F6"/>
  <text x="234" y="204" font-size="14" font-weight="700" fill="#FFFFFF">Bar</text>
  <text x="234" y="222" font-size="11" fill="#94A3B8">rc_id: RC-002 | 8 stools + 2 tables | 20 covers</text>
  <text x="234" y="238" font-size="10" fill="#94A3B8">Tax zone: CA Alcohol Excise + State | Menu: Bar Menu</text>
  <use href="#badgeActive" x="510" y="192" width="70" height="20"/>
  <text x="522" y="206" font-size="9" fill="#6EE7B7">Active</text>
  <text x="510" y="226" font-size="10" fill="#64748B">$623 today</text>

  <!-- RC 3 — Patio -->
  <!-- DB: pos_revenue_centers WHERE id = 'RC-003' -->
  <use href="#rcCard" x="212" y="268" width="378" height="80"/>
  <rect x="212" y="268" width="6" height="80" rx="3" fill="#22C55E"/>
  <text x="234" y="292" font-size="14" font-weight="700" fill="#FFFFFF">Patio</text>
  <text x="234" y="310" font-size="11" fill="#94A3B8">rc_id: RC-003 | 6 tables | 36 covers</text>
  <text x="234" y="326" font-size="10" fill="#94A3B8">Tax zone: CA State + LA County | Menu: Full</text>
  <use href="#badgeActive" x="510" y="280" width="70" height="20"/>
  <text x="522" y="294" font-size="9" fill="#6EE7B7">Active</text>
  <text x="510" y="314" font-size="10" fill="#64748B">$412 today</text>

  <!-- RC 4 — Private Room -->
  <!-- DB: pos_revenue_centers WHERE id = 'RC-004' -->
  <use href="#rcCard" x="212" y="356" width="378" height="80"/>
  <rect x="212" y="356" width="6" height="80" rx="3" fill="#7C3AED"/>
  <text x="234" y="380" font-size="14" font-weight="700" fill="#FFFFFF">Private Room</text>
  <text x="234" y="398" font-size="11" fill="#94A3B8">rc_id: RC-004 | 2 tables | 24 covers</text>
  <text x="234" y="414" font-size="10" fill="#94A3B8">Tax zone: CA State | Menu: Full + Event</text>
  <use href="#badgeInactive" x="510" y="368" width="70" height="20"/>
  <text x="518" y="382" font-size="9" fill="#94A3B8">No bookings</text>

  <!-- RC 5 — Online/Takeout -->
  <!-- DB: pos_revenue_centers WHERE id = 'RC-005' -->
  <use href="#rcCard" x="212" y="444" width="378" height="80"/>
  <rect x="212" y="444" width="6" height="80" rx="3" fill="#F59E0B"/>
  <text x="234" y="468" font-size="14" font-weight="700" fill="#FFFFFF">Online / Takeout</text>
  <text x="234" y="486" font-size="11" fill="#94A3B8">rc_id: RC-005 | virtual | no tables</text>
  <text x="234" y="502" font-size="10" fill="#94A3B8">Tax zone: CA State | Menu: Takeout Menu</text>
  <use href="#badgeActive" x="510" y="456" width="70" height="20"/>
  <text x="522" y="470" font-size="9" fill="#6EE7B7">Active</text>
  <text x="510" y="490" font-size="10" fill="#64748B">$287 today</text>

  <!-- RC 6 — Delivery -->
  <!-- DB: pos_revenue_centers WHERE id = 'RC-006' -->
  <use href="#rcCard" x="212" y="532" width="378" height="80"/>
  <rect x="212" y="532" width="6" height="80" rx="3" fill="#8B5CF6"/>
  <text x="234" y="556" font-size="14" font-weight="700" fill="#FFFFFF">Delivery</text>
  <text x="234" y="574" font-size="11" fill="#94A3B8">rc_id: RC-006 | virtual | DoorDash, UberEats, Direct</text>
  <text x="234" y="590" font-size="10" fill="#94A3B8">Tax zone: CA State | Menu: Delivery Menu</text>
  <use href="#badgeActive" x="510" y="544" width="70" height="20"/>
  <text x="522" y="558" font-size="9" fill="#6EE7B7">Active</text>
  <text x="510" y="578" font-size="10" fill="#64748B">$198 today</text>

  <!-- Schema note -->
  <!-- DB: pos_revenue_centers schema -->
  <rect x="212" y="630" width="378" height="100" rx="6" fill="#0C0E1A" stroke="#374151" stroke-width="1"/>
  <text x="228" y="652" font-size="11" font-weight="600" fill="#94A3B8">pos_revenue_centers schema</text>
  <text x="228" y="670" font-size="10" fill="#64748B">id, name, name_i18n jsonb</text>
  <text x="228" y="686" font-size="10" fill="#64748B">tax_zone_ids uuid[]</text>
  <text x="228" y="702" font-size="10" fill="#64748B">menu_id uuid (FK pos_menus)</text>
  <text x="228" y="718" font-size="10" fill="#64748B">room_color varchar, order_types text[]</text>

  <!-- ===== RIGHT: Detail Config Panel ===== -->
  <!-- DB: pos_revenue_centers WHERE id = 'RC-001' — full config -->
  <rect x="602" y="57" width="764" height="967" fill="#0C0E1A"/>

  <!-- Panel header -->
  <rect x="618" y="68" width="732" height="56" rx="8" fill="url(#cardGrad)" filter="url(#shadow)"/>
  <rect x="618" y="68" width="8" height="56" rx="4" fill="#F59E0B"/>
  <text x="642" y="92" font-size="16" font-weight="700" fill="#F59E0B">Main Dining — Configuration</text>
  <use href="#gear" x="840" y="82" width="14" height="14"/>
  <!-- DB: pos_revenue_centers.id = 'RC-001' -->
  <text x="642" y="112" font-size="11" fill="#94A3B8">rc_id: RC-001 | All changes auto-save to pos_revenue_centers</text>

  <!-- Name with i18n (editable) -->
  <!-- DB: pos_revenue_centers.name, pos_revenue_centers.name_i18n jsonb -->
  <text x="618" y="148" font-size="11" font-weight="600" fill="#94A3B8">NAME (name_i18n jsonb)</text>
  <use href="#gear" x="760" y="138" width="12" height="12"/>
  <rect x="618" y="154" width="340" height="32" rx="6" fill="#1A1D2E" stroke="#F59E0B" stroke-width="1"/>
  <text x="634" y="175" font-size="13" fill="#FFFFFF">Main Dining</text>
  <rect x="970" y="154" width="130" height="32" rx="6" fill="#1A1D2E" stroke="#374151" stroke-width="1"/>
  <text x="986" y="175" font-size="12" fill="#CBD5E1">Salle Principale (fr)</text>
  <rect x="1112" y="154" width="130" height="32" rx="6" fill="#1A1D2E" stroke="#374151" stroke-width="1"/>
  <text x="1128" y="175" font-size="12" fill="#CBD5E1">Comedor (es)</text>

  <!-- Tax Zone Assignment (editable) -->
  <!-- DB: pos_revenue_centers.tax_zone_ids uuid[] -> pos_tax_zones -->
  <text x="618" y="212" font-size="12" font-weight="700" fill="#FFFFFF">Tax Zone Assignment</text>
  <use href="#gear" x="760" y="200" width="14" height="14"/>
  <text x="618" y="228" font-size="11" fill="#94A3B8">Zones active in this revenue center | applied at checkout for orders originating here</text>

  <rect x="618" y="236" width="732" height="180" rx="8" fill="#1A1D2E"/>
  <!-- Tax zone table header -->
  <use href="#tableHeader" x="634" y="252" width="700" height="28"/>
  <text x="650" y="271" font-size="10" fill="#64748B">TAX ZONE</text>
  <text x="840" y="271" font-size="10" fill="#64748B">RATE</text>
  <text x="900" y="271" font-size="10" fill="#64748B">APPLIES TO</text>
  <text x="1060" y="271" font-size="10" fill="#64748B">INCLUSIVE</text>
  <text x="1160" y="271" font-size="10" fill="#64748B">ACTIVE</text>
  <text x="1260" y="271" font-size="10" fill="#64748B">REVENUE CENTER</text>

  <!-- CA State row (editable toggle) -->
  <!-- DB: pos_tax_zones WHERE id = 'tz-ca-state' -->
  <use href="#taxZoneRow" x="634" y="280" width="700" height="32"/>
  <text x="650" y="301" font-size="12" fill="#CBD5E1">CA State Sales Tax</text>
  <text x="840" y="301" font-size="12" fill="#FFFFFF">6.25%</text>
  <text x="900" y="301" font-size="11" fill="#94A3B8">food, alcohol, all</text>
  <text x="1080" y="301" font-size="12" fill="#64748B">No</text>
  <use href="#toggleOn" x="1156" y="286" width="38" height="20"/>
  <text x="1266" y="301" font-size="11" fill="#F59E0B">Main Dining</text>

  <!-- LA County row (editable toggle) -->
  <!-- DB: pos_tax_zones WHERE id = 'tz-la-county' -->
  <use href="#taxZoneRowAlt" x="634" y="312" width="700" height="32"/>
  <text x="650" y="333" font-size="12" fill="#CBD5E1">LA County Tax</text>
  <text x="840" y="333" font-size="12" fill="#FFFFFF">1.00%</text>
  <text x="900" y="333" font-size="11" fill="#94A3B8">all</text>
  <text x="1080" y="333" font-size="12" fill="#64748B">No</text>
  <use href="#toggleOn" x="1156" y="318" width="38" height="20"/>
  <text x="1266" y="333" font-size="11" fill="#F59E0B">Main Dining</text>

  <!-- Alcohol Excise — off for main dining (editable toggle) -->
  <!-- DB: pos_tax_zones WHERE id = 'tz-ca-alcohol' -->
  <use href="#taxZoneRow" x="634" y="344" width="700" height="32"/>
  <text x="650" y="365" font-size="12" fill="#CBD5E1">CA Alcohol Excise</text>
  <text x="840" y="365" font-size="12" fill="#FFFFFF">3.30%</text>
  <text x="900" y="365" font-size="11" fill="#EF4444">alcohol only</text>
  <text x="1080" y="365" font-size="12" fill="#64748B">No</text>
  <use href="#toggleOff" x="1156" y="350" width="38" height="20"/>
  <text x="1266" y="365" font-size="11" fill="#64748B">Not assigned</text>

  <!-- Add zone button -->
  <rect x="634" y="386" width="120" height="24" rx="4" fill="#1E2235" stroke="#374151" stroke-width="1"/>
  <text x="644" y="402" font-size="11" fill="#F59E0B">+ Assign Tax Zone</text>

  <!-- Menu Assignment (editable) -->
  <!-- DB: pos_revenue_centers.menu_id -> pos_menus -->
  <text x="618" y="444" font-size="12" font-weight="700" fill="#FFFFFF">Menu Assignment</text>
  <use href="#gear" x="740" y="432" width="14" height="14"/>
  <text x="618" y="460" font-size="11" fill="#94A3B8">Which menu(s) are available in this revenue center</text>
  <rect x="618" y="468" width="732" height="44" rx="6" fill="#1A1D2E"/>
  <rect x="634" y="480" width="80" height="20" rx="4" fill="url(#amberGrad)"/>
  <text x="652" y="495" font-size="11" font-weight="600" fill="#000">Full Menu</text>
  <rect x="722" y="480" width="72" height="20" rx="4" fill="#1E2235" stroke="#374151" stroke-width="1"/>
  <text x="736" y="495" font-size="11" fill="#64748B">Bar Menu</text>
  <rect x="802" y="480" width="92" height="20" rx="4" fill="#1E2235" stroke="#374151" stroke-width="1"/>
  <text x="816" y="495" font-size="11" fill="#64748B">Takeout Menu</text>
  <rect x="902" y="480" width="90" height="20" rx="4" fill="#1E2235" stroke="#374151" stroke-width="1"/>
  <text x="916" y="495" font-size="11" fill="#64748B">Event Package</text>

  <!-- Allowed Order Types (editable) -->
  <!-- DB: pos_revenue_centers.order_types text[] -->
  <text x="618" y="534" font-size="12" font-weight="700" fill="#FFFFFF">Allowed Order Types</text>
  <use href="#gear" x="770" y="522" width="14" height="14"/>
  <rect x="618" y="542" width="732" height="44" rx="6" fill="#1A1D2E"/>
  <use href="#pillSelected" x="634" y="552" width="74" height="24"/>
  <text x="642" y="569" font-size="11" fill="#6EE7B7">Dine-In</text>
  <use href="#pillUnselected" x="716" y="552" width="74" height="24"/>
  <text x="726" y="569" font-size="11" fill="#64748B">Takeout</text>
  <use href="#pillUnselected" x="798" y="552" width="74" height="24"/>
  <text x="808" y="569" font-size="11" fill="#64748B">Delivery</text>
  <use href="#pillSelected" x="880" y="552" width="60" height="24"/>
  <text x="888" y="569" font-size="11" fill="#6EE7B7">Phone</text>
  <use href="#pillUnselected" x="948" y="552" width="60" height="24"/>
  <text x="960" y="569" font-size="11" fill="#64748B">Kiosk</text>

  <!-- Tip/Gratuity Config (editable) -->
  <!-- DB: pos_revenue_centers.tip_config jsonb -->
  <text x="618" y="610" font-size="12" font-weight="700" fill="#FFFFFF">Tip / Gratuity Configuration</text>
  <use href="#gear" x="810" y="598" width="14" height="14"/>
  <rect x="618" y="618" width="732" height="60" rx="6" fill="#1A1D2E"/>
  <text x="634" y="638" font-size="11" fill="#94A3B8">Suggested tip %:</text>
  <!-- DB: pos_revenue_centers.tip_config.suggested_pcts -->
  <rect x="750" y="624" width="48" height="24" rx="4" fill="#0C0E1A" stroke="#374151" stroke-width="1"/>
  <text x="774" y="641" font-size="12" fill="#FFFFFF" text-anchor="middle">15%</text>
  <rect x="804" y="624" width="48" height="24" rx="4" fill="#0C0E1A" stroke="#F59E0B" stroke-width="1"/>
  <text x="828" y="641" font-size="12" fill="#F59E0B" text-anchor="middle">20%</text>
  <rect x="858" y="624" width="48" height="24" rx="4" fill="#0C0E1A" stroke="#374151" stroke-width="1"/>
  <text x="882" y="641" font-size="12" fill="#FFFFFF" text-anchor="middle">25%</text>
  <text x="634" y="668" font-size="11" fill="#94A3B8">Auto-grat for parties of:</text>
  <!-- DB: pos_revenue_centers.tip_config.auto_grat_party_size -->
  <rect x="800" y="654" width="48" height="24" rx="4" fill="#0C0E1A" stroke="#F59E0B" stroke-width="1"/>
  <text x="824" y="671" font-size="12" fill="#F59E0B" text-anchor="middle">6+</text>
  <text x="856" y="668" font-size="10" fill="#64748B">at 20%</text>

  <!-- Receipt Config (editable) -->
  <!-- DB: pos_revenue_centers.receipt_config jsonb -->
  <text x="618" y="704" font-size="12" font-weight="700" fill="#FFFFFF">Receipt Configuration</text>
  <use href="#gear" x="780" y="692" width="14" height="14"/>
  <rect x="618" y="712" width="732" height="40" rx="6" fill="#1A1D2E"/>
  <text x="634" y="736" font-size="11" fill="#94A3B8">Header:</text>
  <rect x="690" y="720" width="200" height="24" rx="4" fill="#0C0E1A" stroke="#374151" stroke-width="1"/>
  <text x="704" y="737" font-size="11" fill="#FFFFFF">Main Dining - Dine-In</text>
  <text x="910" y="736" font-size="11" fill="#94A3B8">Footer:</text>
  <rect x="960" y="720" width="220" height="24" rx="4" fill="#0C0E1A" stroke="#374151" stroke-width="1"/>
  <text x="974" y="737" font-size="11" fill="#FFFFFF">Thank you for dining with us!</text>

  <!-- KDS routing -->
  <!-- DB: pos_revenue_centers.kds_routing jsonb -->
  <text x="618" y="776" font-size="12" font-weight="700" fill="#FFFFFF">KDS Station Routing</text>
  <use href="#gear" x="770" y="764" width="14" height="14"/>
  <text x="618" y="792" font-size="11" fill="#94A3B8">Items from this RC route to these KDS stations based on item station_tag</text>
  <rect x="618" y="800" width="732" height="68" rx="8" fill="#1A1D2E"/>
  <use href="#tableHeader" x="634" y="808" width="700" height="24"/>
  <text x="650" y="824" font-size="10" fill="#64748B">STATION TAG</text>
  <text x="810" y="824" font-size="10" fill="#64748B">KDS DEVICE</text>
  <text x="1020" y="824" font-size="10" fill="#64748B">PRIORITY</text>
  <text x="650" y="848" font-size="11" fill="#CBD5E1">GRILL</text>
  <text x="810" y="848" font-size="11" fill="#FFFFFF">Grill Station (KDS-01)</text>
  <text x="1020" y="848" font-size="11" fill="#94A3B8">Primary</text>
  <text x="650" y="864" font-size="11" fill="#CBD5E1">FRYER, SALAD</text>
  <text x="810" y="864" font-size="11" fill="#FFFFFF">Fryer Station (KDS-02)</text>
  <text x="1020" y="864" font-size="11" fill="#94A3B8">Primary</text>

  <!-- Floor plan link -->
  <!-- DB: pos_revenue_centers.floor_plan_room_id -> pos_floor_plan_rooms -->
  <text x="618" y="898" font-size="12" font-weight="700" fill="#FFFFFF">Floor Plan Room</text>
  <use href="#gear" x="740" y="886" width="14" height="14"/>
  <rect x="618" y="906" width="732" height="40" rx="6" fill="#1A1D2E"/>
  <text x="634" y="926" font-size="12" fill="#CBD5E1">Linked to floor plan room: "Main Dining"</text>
  <text x="634" y="940" font-size="10" fill="#94A3B8">Tables dragged into this room inherit RC-001 tax and menu settings automatically</text>
  <rect x="1240" y="912" width="100" height="24" rx="4" fill="#1E2235" stroke="#374151" stroke-width="1"/>
  <text x="1258" y="929" font-size="11" fill="#F59E0B">Edit Floor Plan</text>

  <!-- Today stats -->
  <!-- DB: aggregate from pos_orders WHERE revenue_center_id = 'RC-001' AND DATE(created_at) = TODAY -->
  <text x="618" y="968" font-size="12" font-weight="700" fill="#FFFFFF">Today's Performance</text>
  <use href="#statCard" x="618" y="976" width="170" height="40"/>
  <text x="634" y="994" font-size="12" fill="#94A3B8">Revenue</text>
  <text x="634" y="1012" font-size="16" font-weight="700" fill="#F59E0B">$1,842</text>
  <use href="#statCard" x="798" y="976" width="170" height="40"/>
  <text x="814" y="994" font-size="12" fill="#94A3B8">Covers</text>
  <text x="814" y="1012" font-size="16" font-weight="700" fill="#FFFFFF">64</text>
  <use href="#statCard" x="978" y="976" width="170" height="40"/>
  <text x="994" y="994" font-size="12" fill="#94A3B8">Avg Check</text>
  <text x="994" y="1012" font-size="16" font-weight="700" fill="#FFFFFF">$28.78</text>
  <use href="#statCard" x="1158" y="976" width="184" height="40"/>
  <text x="1174" y="994" font-size="12" fill="#94A3B8">Tables Turned</text>
  <text x="1174" y="1012" font-size="16" font-weight="700" fill="#FFFFFF">11x</text>

</svg>