<svg role="img" aria-labelledby="title-settings_receipts-svg" xmlns="http://www.w3.org/2000/svg" viewBox="0 0 1366 1024"
     font-family="-apple-system,BlinkMacSystemFont,'SF Pro Display','Segoe UI',sans-serif">

  <!-- ============================================================ -->
  <!--  DEFS: Reusable symbols, gradients, filters                 -->
  <!-- ============================================================ -->
  <title id="title-settings_receipts-svg">Synalux POS — receipts</title>
  <desc>Synalux POS mockup screen for receipts. All UI elements admin-configurable.</desc>
  <defs>
    <filter id="cardShadow" x="-4%" y="-4%" width="108%" height="112%">
      <feDropShadow dx="0" dy="2" stdDeviation="4" flood-color="#000" flood-opacity="0.35"/>
    </filter>

    <filter id="paperShadow" x="-2%" y="-1%" width="104%" height="103%">
      <feDropShadow dx="3" dy="3" stdDeviation="6" flood-color="#000" flood-opacity="0.5"/>
    </filter>

    <linearGradient id="amberBtnGrad" x1="0" y1="0" x2="0" y2="1">
      <stop offset="0%" stop-color="#FBBF24"/>
      <stop offset="100%" stop-color="#F59E0B"/>
    </linearGradient>

    <!-- ── Symbol: Gear icon ── -->
    <symbol id="gearIcon" viewBox="0 0 16 16">
      <path d="M8 5.5a2.5 2.5 0 100 5 2.5 2.5 0 000-5zM6.5 8a1.5 1.5 0 113 0 1.5 1.5 0 01-3 0z" fill="currentColor"/>
      <path d="M9.405 1.05c-.413-1.4-2.397-1.4-2.81 0l-.1.34a1.464 1.464 0 01-2.105.872l-.31-.17c-1.283-.698-2.686.705-1.987 1.987l.169.311c.446.82.023 1.841-.872 2.105l-.34.1c-1.4.413-1.4 2.397 0 2.81l.34.1a1.464 1.464 0 01.872 2.105l-.17.31c-.698 1.283.705 2.686 1.987 1.987l.311-.169a1.464 1.464 0 012.105.872l.1.34c.413 1.4 2.397 1.4 2.81 0l.1-.34a1.464 1.464 0 012.105-.872l.31.17c1.283.698 2.686-.705 1.987-1.987l-.169-.311a1.464 1.464 0 01.872-2.105l.34-.1c1.4-.413 1.4-2.397 0-2.81l-.34-.1a1.464 1.464 0 01-.872-2.105l.17-.31c.698-1.283-.705-2.686-1.987-1.987l-.311.169a1.464 1.464 0 01-2.105-.872l-.1-.34z" fill="currentColor"/>
    </symbol>

    <!-- ── Symbol: Nav item active ── -->
    <symbol id="navItemActive" viewBox="0 0 200 36">
      <rect width="200" height="36" fill="#1E2235" rx="4"/>
      <rect width="3" height="36" fill="#F59E0B"/>
    </symbol>

    <!-- ── Symbol: Toggle ON ── -->
    <symbol id="toggleOn" viewBox="0 0 44 22">
      <rect width="44" height="22" rx="11" fill="#22C55E"/>
      <circle cx="33" cy="11" r="9" fill="#FFFFFF"/>
    </symbol>

    <!-- ── Symbol: Toggle OFF ── -->
    <symbol id="toggleOff" viewBox="0 0 44 22">
      <rect width="44" height="22" rx="11" fill="#2A2E45"/>
      <circle cx="11" cy="11" r="9" fill="#64748B"/>
    </symbol>

    <!-- ── Symbol: Input field (wide) ── -->
    <symbol id="inputFieldWide" viewBox="0 0 380 28">
      <rect width="380" height="28" rx="5" fill="#0C0E1A" stroke="#1E2235" stroke-width="1"/>
    </symbol>

    <!-- ── Symbol: Input field (half) ── -->
    <symbol id="inputFieldHalf" viewBox="0 0 185 28">
      <rect width="185" height="28" rx="5" fill="#0C0E1A" stroke="#1E2235" stroke-width="1"/>
    </symbol>

    <!-- ── Symbol: Textarea field ── -->
    <symbol id="textareaField" viewBox="0 0 380 42">
      <rect width="380" height="42" rx="5" fill="#0C0E1A" stroke="#1E2235" stroke-width="1"/>
    </symbol>

    <!-- ── Symbol: Social toggle chip ── -->
    <symbol id="socialChip" viewBox="0 0 90 32">
      <rect width="90" height="32" rx="6" fill="#0C0E1A" stroke="#1E2235" stroke-width="1"/>
    </symbol>

    <!-- ── Symbol: Receipt separator (dashes) ── -->
    <symbol id="receiptSep" viewBox="0 0 260 10">
      <text x="130" y="8" fill="#999" font-size="9" text-anchor="middle" font-family="monospace">- - - - - - - - - - - - - - - - -</text>
    </symbol>

    <!-- ── Symbol: QR corner block ── -->
    <symbol id="qrCorner" viewBox="0 0 20 20">
      <rect width="20" height="20" rx="1" fill="#333"/>
      <rect x="2" y="2" width="16" height="16" rx="1" fill="#F0F0F0"/>
      <rect x="5" y="5" width="10" height="10" rx="1" fill="#333"/>
    </symbol>
  </defs>

  <!-- ============================================================ -->
  <!--  BACKGROUND                                                  -->
  <!-- ============================================================ -->
  <rect width="1366" height="1024" fill="#0C0E1A"/>

  <!-- ============================================================ -->
  <!--  LEFT SETTINGS NAV SIDEBAR                                   -->
  <!-- ============================================================ -->
  <rect x="0" y="0" width="200" height="1024" fill="#161930"/>
  <rect x="200" y="0" width="1" height="1024" fill="#1E2235"/>

  <text x="16" y="30" font-size="13" font-weight="700" fill="#F59E0B">Settings</text>
  <text x="16" y="67" font-size="12" fill="#94A3B8">Discounts &amp; Promos</text>
  <text x="16" y="103" font-size="12" fill="#94A3B8">Gift Cards</text>
  <text x="16" y="139" font-size="12" fill="#94A3B8">Loyalty</text>

  <!-- Active: Receipts -->
  <use href="#navItemActive" x="0" y="152" width="200" height="36"/>
  <text x="16" y="175" font-size="12" font-weight="600" fill="#F59E0B">Receipts</text>

  <text x="16" y="211" font-size="12" fill="#94A3B8">Printer Routing</text>
  <text x="16" y="247" font-size="12" fill="#94A3B8">Integrations</text>
  <text x="16" y="283" font-size="12" fill="#94A3B8">Menu Scheduling</text>
  <text x="16" y="319" font-size="12" fill="#94A3B8">Inventory</text>
  <text x="16" y="355" font-size="12" fill="#94A3B8">Reports</text>

  <!-- ============================================================ -->
  <!--  TOP HEADER BAR                                              -->
  <!-- ============================================================ -->
  <rect x="201" y="0" width="1165" height="52" fill="#1A1D2E"/>
  <rect x="201" y="52" width="1165" height="1" fill="#1E2235"/>

  <text x="220" y="26" font-size="16" font-weight="700" fill="#FFFFFF">Receipt Settings</text>
  <text x="220" y="44" font-size="10" fill="#94A3B8">Header/Footer text -- Logo toggle -- Tip line -- Social links -- QR code</text>
  <use href="#gearIcon" x="530" y="32" width="14" height="14" color="#94A3B8"/>
  <text x="1346" y="32" fill="#94A3B8" font-size="11" text-anchor="end">Admin</text>

  <!-- ============================================================ -->
  <!--  LEFT PANEL: Receipt Customization (x=201, w=420)            -->
  <!--  DB: pos_config.receipt_*                                    -->
  <!-- ============================================================ -->
  <rect x="201" y="53" width="420" height="971" fill="#161930"/>
  <rect x="621" y="53" width="1" height="971" fill="#1E2235"/>

  <!-- Section header -->
  <text x="220" y="80" font-size="14" font-weight="700" fill="#FFFFFF">Receipt Template</text>
  <use href="#gearIcon" x="356" y="66" width="14" height="14" color="#F59E0B"/>
  <text x="220" y="96" font-size="10" fill="#475569">pos_config.receipt_*</text>

  <!-- ── Logo Section ── -->
  <!-- pos_config.receipt_logo_url, receipt_logo_enabled -->
  <text x="220" y="120" font-size="11" font-weight="700" fill="#94A3B8" letter-spacing="0.8">LOGO</text>
  <use href="#gearIcon" x="254" y="108" width="12" height="12" color="#475569"/>

  <!-- Upload box -->
  <rect x="220" y="130" width="380" height="80" rx="8" fill="#0C0E1A" stroke="#1E2235" stroke-width="1.5" stroke-dasharray="6,4"/>
  <rect x="270" y="142" width="100" height="56" rx="6" fill="#1A1D2E"/>
  <text x="320" y="165" fill="#F59E0B" font-size="16" font-weight="700" text-anchor="middle">SB</text>
  <text x="320" y="180" fill="#94A3B8" font-size="9" text-anchor="middle">Synalux Bistro</text>
  <text x="320" y="192" fill="#94A3B8" font-size="8" text-anchor="middle">LOGO</text>

  <!-- Logo toggle -->
  <text x="395" y="155" fill="#CBD5E1" font-size="11">Show logo</text>
  <use href="#toggleOn" x="395" y="160" width="44" height="22"/>
  <text x="220" y="224" fill="#475569" font-size="10">Upload PNG/SVG, max 500KB</text>
  <text x="595" y="224" fill="#EF4444" font-size="10" text-anchor="end">Remove</text>

  <!-- ── Business Info Fields ── -->
  <!-- pos_config.business_name, address_line1, address_line2, phone, website -->
  <text x="220" y="248" font-size="11" font-weight="700" fill="#94A3B8" letter-spacing="0.8">BUSINESS INFO</text>
  <use href="#gearIcon" x="316" y="236" width="12" height="12" color="#475569"/>
  <text x="595" y="248" fill="#475569" font-size="9" text-anchor="end">DB: pos_config</text>

  <!-- Business Name -->
  <text x="220" y="268" fill="#475569" font-size="11">Business Name</text>
  <use href="#inputFieldWide" x="220" y="274" width="380" height="28"/>
  <text x="232" y="293" fill="#FFFFFF" font-size="12">Synalux Bistro</text>

  <!-- Address line 1 -->
  <text x="220" y="316" fill="#475569" font-size="11">Address Line 1</text>
  <use href="#inputFieldWide" x="220" y="322" width="380" height="28"/>
  <text x="232" y="341" fill="#FFFFFF" font-size="12">123 Main Street</text>

  <!-- Address line 2 -->
  <text x="220" y="364" fill="#475569" font-size="11">Address Line 2</text>
  <use href="#inputFieldWide" x="220" y="370" width="380" height="28"/>
  <text x="232" y="389" fill="#94A3B8" font-size="12">Suite / Floor (optional)</text>

  <!-- Phone + Website row -->
  <text x="220" y="414" fill="#475569" font-size="11">Phone</text>
  <text x="418" y="414" fill="#475569" font-size="11">Website URL</text>
  <use href="#inputFieldHalf" x="220" y="420" width="185" height="28"/>
  <text x="232" y="439" fill="#FFFFFF" font-size="12">(212) 555-0142</text>
  <use href="#inputFieldHalf" x="415" y="420" width="185" height="28"/>
  <text x="427" y="439" fill="#FFFFFF" font-size="12">synaluxbistro.com</text>

  <rect x="220" y="460" width="380" height="1" fill="#1E2235"/>

  <!-- ── Header & Footer Text ── -->
  <!-- pos_config.receipt_header_text, receipt_footer_text -->
  <text x="220" y="482" font-size="11" font-weight="700" fill="#94A3B8" letter-spacing="0.8">RECEIPT TEXT</text>
  <use href="#gearIcon" x="310" y="470" width="12" height="12" color="#475569"/>

  <text x="220" y="502" fill="#475569" font-size="11">Header text (2 lines max)</text>
  <use href="#textareaField" x="220" y="508" width="380" height="42"/>
  <text x="232" y="529" fill="#FFFFFF" font-size="12">Thank you for dining with us!</text>
  <text x="595" y="548" fill="#475569" font-size="10" text-anchor="end">1/2</text>

  <text x="220" y="566" fill="#475569" font-size="11">Footer text (4 lines max)</text>
  <rect x="220" y="572" width="380" height="56" rx="5" fill="#0C0E1A" stroke="#1E2235" stroke-width="1"/>
  <text x="232" y="591" fill="#FFFFFF" font-size="11">Follow us @SynaluxBistro</text>
  <text x="232" y="607" fill="#FFFFFF" font-size="11">WiFi: Guest2024 | Yelp: bit.ly/synalux</text>
  <text x="595" y="626" fill="#475569" font-size="10" text-anchor="end">2/4</text>

  <!-- ── Social Links ── -->
  <!-- pos_config.receipt_social_instagram, receipt_social_facebook, etc. -->
  <text x="220" y="650" fill="#475569" font-size="11">Social links on receipt</text>
  <use href="#gearIcon" x="350" y="638" width="12" height="12" color="#475569"/>

  <!-- Instagram -->
  <use href="#socialChip" x="220" y="660" width="90" height="32"/>
  <circle cx="238" cy="676" r="7" fill="none" stroke="#E1306C" stroke-width="1.5"/>
  <circle cx="238" cy="676" r="3" fill="#E1306C"/>
  <text x="252" y="680" fill="#94A3B8" font-size="10">Insta</text>
  <use href="#toggleOn" x="278" y="668" width="26" height="14"/>

  <!-- Facebook -->
  <use href="#socialChip" x="318" y="660" width="90" height="32"/>
  <rect x="334" y="668" width="11" height="14" rx="3" fill="#1877F2"/>
  <text x="336" y="679" fill="white" font-size="9" font-weight="700">f</text>
  <text x="350" y="680" fill="#94A3B8" font-size="9">Facebook</text>
  <use href="#toggleOn" x="374" y="668" width="26" height="14"/>

  <!-- TikTok -->
  <use href="#socialChip" x="416" y="660" width="90" height="32"/>
  <text x="432" y="680" fill="#FFFFFF" font-size="11" font-weight="700">tt</text>
  <text x="448" y="680" fill="#94A3B8" font-size="9">TikTok</text>
  <use href="#toggleOff" x="472" y="668" width="26" height="14"/>

  <!-- Google Reviews -->
  <use href="#socialChip" x="514" y="660" width="90" height="32"/>
  <circle cx="532" cy="676" r="7" fill="none" stroke="#4285F4" stroke-width="1.5"/>
  <text x="528" y="680" fill="#4285F4" font-size="9">G</text>
  <text x="544" y="680" fill="#94A3B8" font-size="9">Reviews</text>
  <use href="#toggleOn" x="578" y="668" width="26" height="14"/>

  <rect x="220" y="702" width="380" height="1" fill="#1E2235"/>

  <!-- ── Receipt Options ── -->
  <!-- pos_config.receipt_number_format, show_tax_breakdown, show_item_cost, include_tip_line, no_paper_mode -->
  <text x="220" y="722" font-size="11" font-weight="700" fill="#94A3B8" letter-spacing="0.8">RECEIPT OPTIONS</text>
  <use href="#gearIcon" x="332" y="710" width="12" height="12" color="#475569"/>

  <!-- Receipt Number Format -->
  <text x="220" y="742" fill="#475569" font-size="11">Receipt Number Format</text>
  <use href="#inputFieldWide" x="220" y="748" width="380" height="28"/>
  <text x="232" y="767" fill="#FFFFFF" font-size="12">YYYY-MMDD-####</text>
  <text x="590" y="767" fill="#94A3B8" font-size="11" text-anchor="end">&#9662;</text>

  <!-- Show Tax Breakdown -->
  <text x="220" y="794" fill="#FFFFFF" font-size="12">Show Tax Breakdown</text>
  <use href="#gearIcon" x="350" y="782" width="12" height="12" color="#475569"/>
  <use href="#toggleOn" x="556" y="782" width="44" height="22"/>
  <text x="220" y="810" fill="#475569" font-size="10">Shows individual tax lines on receipt</text>

  <!-- Show Item Cost (manager only) -->
  <text x="220" y="832" fill="#94A3B8" font-size="12">Show Item Cost</text>
  <use href="#toggleOff" x="556" y="820" width="44" height="22"/>
  <text x="232" y="848" fill="#60A5FA" font-size="10">Manager-only permission required</text>

  <!-- Include Tip Line -->
  <!-- pos_config.receipt_include_tip_line -->
  <text x="220" y="868" fill="#FFFFFF" font-size="12">Include Tip Line</text>
  <use href="#gearIcon" x="330" y="856" width="12" height="12" color="#475569"/>
  <use href="#toggleOn" x="556" y="856" width="44" height="22"/>
  <text x="220" y="884" fill="#475569" font-size="10">Prints blank tip line for cash payments</text>

  <!-- QR Code on Receipt -->
  <!-- pos_config.receipt_qr_enabled, receipt_qr_url -->
  <text x="220" y="906" fill="#FFFFFF" font-size="12">QR Code on Receipt</text>
  <use href="#gearIcon" x="360" y="894" width="12" height="12" color="#475569"/>
  <use href="#toggleOn" x="556" y="894" width="44" height="22"/>
  <text x="220" y="922" fill="#475569" font-size="10">Links to digital receipt / review page</text>

  <!-- No-Paper Mode -->
  <text x="220" y="944" fill="#FFFFFF" font-size="12">No-Paper Mode</text>
  <use href="#toggleOff" x="556" y="932" width="44" height="22"/>
  <rect x="220" y="952" width="380" height="20" rx="4" fill="#1C1507"/>
  <rect x="220" y="952" width="3" height="20" rx="2" fill="#F59E0B"/>
  <text x="230" y="966" fill="#F59E0B" font-size="10">Requires customer email/phone on file</text>

  <!-- ============================================================ -->
  <!--  CENTER PANEL: Live Receipt Preview (x=622, w=420)           -->
  <!-- ============================================================ -->
  <rect x="622" y="53" width="420" height="971" fill="#0C0E1A"/>
  <rect x="1042" y="53" width="1" height="971" fill="#1E2235"/>

  <text x="642" y="80" font-size="14" font-weight="700" fill="#FFFFFF">Preview</text>
  <text x="642" y="96" fill="#475569" font-size="11">Live receipt mockup</text>

  <!-- Print Test button -->
  <rect x="952" y="66" width="80" height="28" rx="6" fill="none" stroke="#F59E0B" stroke-width="1.5"/>
  <text x="992" y="84" fill="#F59E0B" font-size="11" font-weight="600" text-anchor="middle">Print Test</text>

  <!-- Receipt paper mockup -->
  <rect x="700" y="115" width="280" height="800" rx="4" fill="white" filter="url(#paperShadow)"/>

  <!-- Logo area -->
  <rect x="730" y="130" width="220" height="44" rx="4" fill="#F0F0F0"/>
  <text x="840" y="150" fill="#1A1D2E" font-size="12" font-weight="800" text-anchor="middle">SB</text>
  <text x="840" y="163" fill="#94A3B8" font-size="8" text-anchor="middle">SYNALUX BISTRO</text>

  <!-- Business name block -->
  <text x="840" y="188" fill="#1A1D2E" font-size="13" font-weight="800" text-anchor="middle">SYNALUX BISTRO</text>
  <text x="840" y="200" fill="#555" font-size="9" text-anchor="middle">123 Main Street, New York, NY 10001</text>
  <text x="840" y="211" fill="#555" font-size="9" text-anchor="middle">(212) 555-0142 | synaluxbistro.com</text>

  <use href="#receiptSep" x="710" y="218" width="260" height="10"/>

  <!-- Table / order info -->
  <text x="716" y="240" fill="#333" font-size="10">Table 4 -- Server: Marcus</text>
  <text x="716" y="253" fill="#333" font-size="10">Order #2406-0047</text>
  <text x="964" y="253" fill="#666" font-size="9" text-anchor="end">05/29/26  7:42 PM</text>

  <use href="#receiptSep" x="710" y="260" width="260" height="10"/>

  <!-- Items -->
  <text x="716" y="282" fill="#1A1D2E" font-size="11" font-weight="600">Burger</text>
  <text x="716" y="294" fill="#888" font-size="9">  + No Onions</text>
  <text x="964" y="282" fill="#1A1D2E" font-size="11" text-anchor="end">$18.00</text>

  <text x="716" y="308" fill="#1A1D2E" font-size="11" font-weight="600">Craft Beer</text>
  <text x="964" y="308" fill="#1A1D2E" font-size="11" text-anchor="end">$9.00</text>

  <text x="716" y="322" fill="#1A1D2E" font-size="11" font-weight="600">Caesar Salad</text>
  <text x="964" y="322" fill="#1A1D2E" font-size="11" text-anchor="end">$14.00</text>

  <use href="#receiptSep" x="710" y="330" width="260" height="10"/>

  <!-- Totals -->
  <text x="716" y="352" fill="#444" font-size="11">Subtotal</text>
  <text x="964" y="352" fill="#444" font-size="11" text-anchor="end">$41.00</text>
  <text x="716" y="366" fill="#444" font-size="11">Tax (8.875%)</text>
  <text x="964" y="366" fill="#444" font-size="11" text-anchor="end">$3.64</text>
  <text x="716" y="380" fill="#444" font-size="11">Tip</text>
  <text x="964" y="380" fill="#444" font-size="11" text-anchor="end">$8.00</text>

  <rect x="710" y="386" width="260" height="1" fill="#CCC"/>
  <text x="716" y="402" fill="#1A1D2E" font-size="13" font-weight="800">TOTAL</text>
  <text x="964" y="402" fill="#1A1D2E" font-size="13" font-weight="800" text-anchor="end">$52.64</text>

  <use href="#receiptSep" x="710" y="410" width="260" height="10"/>

  <!-- Payment info -->
  <text x="716" y="432" fill="#444" font-size="10">Visa **** 4242</text>
  <text x="964" y="432" fill="#666" font-size="9" text-anchor="end">Auth: 847291</text>
  <text x="716" y="444" fill="#888" font-size="9">Chip &amp; PIN -- Approved</text>

  <use href="#receiptSep" x="710" y="452" width="260" height="10"/>

  <!-- Tip line -->
  <text x="716" y="474" fill="#444" font-size="10">Tip: _____________________</text>
  <text x="716" y="488" fill="#444" font-size="10">Total: ___________________</text>
  <text x="716" y="502" fill="#444" font-size="10">Signature: _______________</text>

  <use href="#receiptSep" x="710" y="510" width="260" height="10"/>

  <!-- Footer text -->
  <text x="840" y="530" fill="#666" font-size="10" text-anchor="middle" font-style="italic">Thank you for dining with us!</text>
  <text x="840" y="542" fill="#888" font-size="8" text-anchor="middle">Follow us @SynaluxBistro</text>
  <text x="840" y="553" fill="#888" font-size="8" text-anchor="middle">WiFi: Guest2024 | Yelp: bit.ly/synalux</text>

  <!-- Social icons on receipt -->
  <circle cx="802" cy="570" r="7" fill="none" stroke="#E1306C" stroke-width="1.5"/>
  <circle cx="802" cy="570" r="3" fill="#E1306C"/>
  <circle cx="824" cy="570" r="7" fill="#1877F2"/>
  <text x="821" y="574" fill="white" font-size="8" font-weight="700">f</text>
  <circle cx="846" cy="570" r="7" fill="none" stroke="#4285F4" stroke-width="1.5"/>
  <text x="843" y="574" fill="#4285F4" font-size="8">G</text>
  <text x="860" y="574" fill="#888" font-size="7">Reviews</text>

  <use href="#receiptSep" x="710" y="584" width="260" height="10"/>

  <!-- QR code area -->
  <rect x="790" y="600" width="100" height="70" rx="4" fill="#F0F0F0" stroke="#CCC" stroke-width="1"/>
  <!-- QR corners using symbol -->
  <use href="#qrCorner" x="798" y="608" width="20" height="20"/>
  <use href="#qrCorner" x="862" y="608" width="20" height="20"/>
  <use href="#qrCorner" x="798" y="642" width="20" height="20"/>
  <!-- QR dots -->
  <rect x="824" y="610" width="4" height="4" fill="#333"/>
  <rect x="832" y="614" width="4" height="4" fill="#333"/>
  <rect x="840" y="610" width="4" height="4" fill="#333"/>
  <rect x="848" y="618" width="4" height="4" fill="#333"/>
  <rect x="824" y="624" width="4" height="4" fill="#333"/>
  <rect x="836" y="628" width="4" height="4" fill="#333"/>
  <rect x="848" y="632" width="4" height="4" fill="#333"/>
  <rect x="830" y="642" width="4" height="4" fill="#333"/>
  <rect x="842" y="648" width="4" height="4" fill="#333"/>
  <rect x="856" y="644" width="4" height="4" fill="#333"/>
  <rect x="862" y="652" width="4" height="4" fill="#333"/>
  <text x="840" y="685" fill="#666" font-size="9" text-anchor="middle">Scan for digital receipt</text>

  <!-- Receipt tear edge -->
  <rect x="698" y="900" width="286" height="16" fill="#0C0E1A"/>
  <path d="M700,900 L706,910 L712,900 L718,910 L724,900 L730,910 L736,900 L742,910 L748,900 L754,910 L760,900 L766,910 L772,900 L778,910 L784,900 L790,910 L796,900 L802,910 L808,900 L814,910 L820,900 L826,910 L832,900 L838,910 L844,900 L850,910 L856,900 L862,910 L868,900 L874,910 L880,900 L886,910 L892,900 L898,910 L904,900 L910,910 L916,900 L922,910 L928,900 L934,910 L940,900 L946,910 L952,900 L958,910 L964,900 L970,910 L976,900 L982,910" fill="white" stroke="#CBD5E1" stroke-width="1"/>

  <!-- ============================================================ -->
  <!--  RIGHT PANEL: Digital Delivery Settings (x=1043, w=323)      -->
  <!--  DB: pos_config.receipt_email_*, receipt_sms_*                -->
  <!-- ============================================================ -->
  <rect x="1043" y="53" width="323" height="971" fill="#0C0E1A"/>

  <text x="1063" y="80" font-size="14" font-weight="700" fill="#FFFFFF">Digital Delivery</text>
  <use href="#gearIcon" x="1196" y="66" width="14" height="14" color="#F59E0B"/>
  <text x="1063" y="96" fill="#475569" font-size="11">Auto-send settings &amp; integrations</text>

  <!-- ── Auto-Send Triggers ── -->
  <!-- pos_config.receipt_auto_send_email_card, receipt_auto_send_sms_card, etc. -->
  <text x="1063" y="122" font-size="11" font-weight="700" fill="#94A3B8" letter-spacing="0.8">AUTO-SEND TRIGGERS</text>
  <use href="#gearIcon" x="1204" y="110" width="12" height="12" color="#475569"/>

  <!-- Row 1: Email after card -->
  <rect x="1063" y="130" width="288" height="36" rx="6" fill="#1A1D2E"/>
  <text x="1079" y="146" fill="#FFFFFF" font-size="11">Email receipt after card payment</text>
  <text x="1079" y="160" fill="#475569" font-size="9">pos_payments WHERE method=card</text>
  <use href="#toggleOn" x="1303" y="138" width="38" height="20"/>

  <!-- Row 2: SMS after card -->
  <rect x="1063" y="172" width="288" height="36" rx="6" fill="#161930"/>
  <text x="1079" y="188" fill="#FFFFFF" font-size="11">SMS receipt after card payment</text>
  <text x="1079" y="202" fill="#475569" font-size="9">Requires Twilio integration</text>
  <use href="#toggleOn" x="1303" y="180" width="38" height="20"/>

  <!-- Row 3: Email for cash (OFF) -->
  <rect x="1063" y="214" width="288" height="36" rx="6" fill="#1A1D2E"/>
  <text x="1079" y="230" fill="#FFFFFF" font-size="11">Email for cash payments</text>
  <text x="1079" y="244" fill="#475569" font-size="9">Only if customer email in pos_customers</text>
  <use href="#toggleOff" x="1303" y="222" width="38" height="20"/>

  <!-- Row 4: Attach PDF -->
  <rect x="1063" y="256" width="288" height="36" rx="6" fill="#161930"/>
  <text x="1079" y="272" fill="#FFFFFF" font-size="11">Attach PDF receipt</text>
  <text x="1079" y="286" fill="#475569" font-size="9">/api/pos/receipt/[payment_id].pdf</text>
  <use href="#toggleOn" x="1303" y="264" width="38" height="20"/>

  <rect x="1063" y="304" width="288" height="1" fill="#1E2235"/>

  <!-- ── Email Settings ── -->
  <!-- pos_config.receipt_email_from_name, receipt_email_reply_to, receipt_email_subject -->
  <text x="1063" y="324" font-size="11" font-weight="700" fill="#94A3B8" letter-spacing="0.8">EMAIL SETTINGS</text>
  <use href="#gearIcon" x="1176" y="312" width="12" height="12" color="#475569"/>

  <text x="1063" y="344" fill="#475569" font-size="11">From name</text>
  <rect x="1063" y="350" width="288" height="26" rx="5" fill="#0C0E1A" stroke="#1E2235" stroke-width="1"/>
  <text x="1075" y="368" fill="#FFFFFF" font-size="11">Synalux Bistro</text>

  <text x="1063" y="390" fill="#475569" font-size="11">Reply-to</text>
  <rect x="1063" y="396" width="288" height="26" rx="5" fill="#0C0E1A" stroke="#1E2235" stroke-width="1"/>
  <text x="1075" y="414" fill="#FFFFFF" font-size="11">info@synaluxbistro.com</text>

  <text x="1063" y="436" fill="#475569" font-size="11">Subject line</text>
  <rect x="1063" y="442" width="288" height="26" rx="5" fill="#0C0E1A" stroke="#1E2235" stroke-width="1"/>
  <text x="1075" y="460" fill="#FFFFFF" font-size="11">Your receipt from {business_name}</text>

  <text x="1063" y="482" fill="#475569" font-size="11">Email template</text>
  <rect x="1063" y="488" width="200" height="26" rx="5" fill="#0C0E1A" stroke="#1E2235" stroke-width="1"/>
  <text x="1075" y="506" fill="#FFFFFF" font-size="11">Branded HTML</text>
  <rect x="1273" y="488" width="78" height="26" rx="5" fill="none" stroke="#60A5FA" stroke-width="1"/>
  <text x="1312" y="506" fill="#60A5FA" font-size="10" font-weight="600" text-anchor="middle">Preview</text>

  <rect x="1063" y="524" width="288" height="1" fill="#1E2235"/>

  <!-- ── SMS Settings ── -->
  <!-- pos_config.receipt_sms_provider, receipt_sms_template -->
  <text x="1063" y="544" font-size="11" font-weight="700" fill="#94A3B8" letter-spacing="0.8">SMS SETTINGS</text>
  <use href="#gearIcon" x="1158" y="532" width="12" height="12" color="#475569"/>

  <!-- Twilio status -->
  <rect x="1063" y="552" width="288" height="28" rx="6" fill="#1A1D2E"/>
  <circle cx="1079" cy="566" r="5" fill="#22C55E"/>
  <text x="1090" y="570" fill="#FFFFFF" font-size="11">Twilio</text>
  <text x="1126" y="570" fill="#22C55E" font-size="11" font-weight="600">Connected</text>
  <text x="1196" y="570" fill="#475569" font-size="10">+1 (212) 555-0199</text>

  <text x="1063" y="598" fill="#475569" font-size="11">SMS template</text>
  <rect x="1063" y="604" width="288" height="40" rx="5" fill="#0C0E1A" stroke="#1E2235" stroke-width="1"/>
  <text x="1075" y="622" fill="#FFFFFF" font-size="10">Receipt for ${total} at {business}.</text>
  <text x="1075" y="636" fill="#FFFFFF" font-size="10">View: {link}</text>
  <text x="1345" y="644" fill="#475569" font-size="9" text-anchor="end">67/160</text>

  <rect x="1063" y="656" width="288" height="1" fill="#1E2235"/>

  <!-- ── Workflow Integration Box ── -->
  <rect x="1063" y="668" width="288" height="160" rx="8" fill="#1C1507" stroke="#F59E0B" stroke-width="1.5"/>
  <rect x="1063" y="668" width="120" height="20" rx="4" fill="#F59E0B"/>
  <text x="1070" y="682" fill="#0C0E1A" font-size="10" font-weight="700">Workflow Integration</text>

  <text x="1075" y="706" fill="#F59E0B" font-size="10" font-weight="600">Auto-triggered:</text>
  <text x="1075" y="720" fill="#94A3B8" font-size="9">after pos_payments INSERT</text>
  <text x="1075" y="736" fill="#475569" font-size="9">Email via SendGrid</text>
  <text x="1075" y="750" fill="#475569" font-size="9">SMS via Twilio Programmable SMS</text>
  <text x="1075" y="764" fill="#475569" font-size="9">PDF: /api/pos/receipt/[payment_id].pdf</text>
  <text x="1075" y="778" fill="#475569" font-size="9">QR -> same URL (no app needed)</text>
  <text x="1075" y="792" fill="#475569" font-size="9">Stored: pos_receipts</text>
  <text x="1075" y="806" fill="#94A3B8" font-size="9">Schema: pos_receipts(id, payment_id,</text>
  <text x="1075" y="818" fill="#94A3B8" font-size="9">  method, sent_at, pdf_url)</text>

  <!-- ── Save button ── -->
  <rect x="1063" y="844" width="288" height="40" rx="8" fill="url(#amberBtnGrad)"/>
  <text x="1207" y="870" font-size="14" font-weight="700" fill="#000" text-anchor="middle">Save Receipt Settings</text>

  <!-- ── Footer note ── -->
  <text x="1345" y="1014" fill="#1E2235" font-size="9" text-anchor="end" font-style="italic">All fields sourced from pos_config -- no hardcodes</text>

</svg>