<svg role="img" aria-labelledby="title-settings_auto_gratuity-svg" xmlns="http://www.w3.org/2000/svg" viewBox="0 0 1366 1024" font-family="-apple-system,system-ui,BlinkMacSystemFont,'Segoe UI',sans-serif">

  <title id="title-settings_auto_gratuity-svg">Synalux POS — auto gratuity</title>
  <desc>Synalux POS mockup screen for auto gratuity. All UI elements admin-configurable.</desc>
  <defs>
    <!-- ==================== REUSABLE DEFINITIONS ==================== -->

    <!-- Gradient: Header bar -->
    <linearGradient id="headerGrad" x1="0" y1="0" x2="0" y2="1">
      <stop offset="0%" stop-color="#1E2235"/>
      <stop offset="100%" stop-color="#181B30"/>
    </linearGradient>

    <!-- Gradient: Save button -->
    <linearGradient id="amberBtnGrad" x1="0" y1="0" x2="0" y2="1">
      <stop offset="0%" stop-color="#FBBF24"/>
      <stop offset="100%" stop-color="#F59E0B"/>
    </linearGradient>

    <!-- Gradient: Card surface -->
    <linearGradient id="cardGrad" x1="0" y1="0" x2="0" y2="1">
      <stop offset="0%" stop-color="#1A1D2E"/>
      <stop offset="100%" stop-color="#161929"/>
    </linearGradient>

    <!-- Drop shadow filter -->
    <filter id="cardShadow" x="-2%" y="-2%" width="104%" height="108%">
      <feDropShadow dx="0" dy="2" stdDeviation="4" flood-color="#000000" flood-opacity="0.35"/>
    </filter>
    <filter id="btnShadow" x="-4%" y="-8%" width="108%" height="120%">
      <feDropShadow dx="0" dy="1" stdDeviation="2" flood-color="#F59E0B" flood-opacity="0.3"/>
    </filter>

    <!-- SYMBOL: Admin gear icon (16x16) — shown on editable fields -->
    <symbol id="adminGear" viewBox="0 0 16 16">
      <path d="M8 5.5a2.5 2.5 0 100 5 2.5 2.5 0 000-5zM6.5 8a1.5 1.5 0 113 0 1.5 1.5 0 01-3 0z" fill="#F59E0B"/>
      <path d="M7.3 1h1.4l.3 1.5c.3.1.6.3.9.5l1.4-.6.7.7.7.7-.6 1.4c.2.3.4.6.5.9l1.5.3v1.4l-1.5.3c-.1.3-.3.6-.5.9l.6 1.4-.7.7-.7.7-1.4-.6c-.3.2-.6.4-.9.5L8.7 15H7.3l-.3-1.5c-.3-.1-.6-.3-.9-.5l-1.4.6-.7-.7-.7-.7.6-1.4c-.2-.3-.4-.6-.5-.9L2 9.6V8.2l1.5-.3c.1-.3.3-.6.5-.9l-.6-1.4.7-.7.7-.7 1.4.6c.3-.2.6-.4.9-.5L7.3 1z" fill="none" stroke="#F59E0B" stroke-width="0.8"/>
    </symbol>

    <!-- SYMBOL: Toggle switch ON (50x22) -->
    <symbol id="toggleOn" viewBox="0 0 50 22">
      <rect width="50" height="22" rx="11" fill="#22C55E"/>
      <circle cx="39" cy="11" r="9" fill="#FFFFFF"/>
    </symbol>

    <!-- SYMBOL: Toggle switch OFF (50x22) -->
    <symbol id="toggleOff" viewBox="0 0 50 22">
      <rect width="50" height="22" rx="11" fill="#374151"/>
      <circle cx="11" cy="11" r="9" fill="#FFFFFF"/>
    </symbol>

    <!-- SYMBOL: Checkbox checked (14x14) -->
    <symbol id="checkboxOn" viewBox="0 0 14 14">
      <rect width="14" height="14" rx="3" fill="#F59E0B"/>
      <polyline points="3,7 6,10 11,4" fill="none" stroke="#0C0E1A" stroke-width="2" stroke-linecap="round" stroke-linejoin="round"/>
    </symbol>

    <!-- SYMBOL: Checkbox unchecked (14x14) -->
    <symbol id="checkboxOff" viewBox="0 0 14 14">
      <rect width="14" height="14" rx="3" fill="none" stroke="#2A2E45" stroke-width="1.5"/>
    </symbol>

    <!-- SYMBOL: Radio selected (12x12) -->
    <symbol id="radioOn" viewBox="0 0 12 12">
      <circle cx="6" cy="6" r="6" fill="#F59E0B"/>
      <circle cx="6" cy="6" r="3" fill="#0C0E1A"/>
    </symbol>

    <!-- SYMBOL: Radio unselected (12x12) -->
    <symbol id="radioOff" viewBox="0 0 12 12">
      <circle cx="6" cy="6" r="6" fill="none" stroke="#2A2E45" stroke-width="1.5"/>
    </symbol>

    <!-- SYMBOL: Left nav active indicator (3x36) -->
    <symbol id="navActive" viewBox="0 0 200 36">
      <rect width="200" height="36" fill="#1E2235"/>
      <rect width="3" height="36" fill="#F59E0B"/>
    </symbol>

  </defs>

  <!-- ==================== BACKGROUND ==================== -->
  <rect width="1366" height="1024" fill="#0C0E1A"/>

  <!-- ==================== LEFT NAV SIDEBAR ==================== -->
  <rect x="0" y="0" width="200" height="1024" fill="#111425"/>
  <rect x="200" y="0" width="1" height="1024" fill="#2A2E45"/>

  <text x="16" y="32" font-size="13" font-weight="700" fill="#F59E0B">&#9881; Back Office</text>

  <!-- Nav items -->
  <text x="16" y="67" font-size="12" fill="#94A3B8">Restaurant Info</text>
  <text x="16" y="99" font-size="12" fill="#94A3B8">Menu Builder</text>
  <text x="16" y="131" font-size="12" fill="#94A3B8">Taxes</text>
  <text x="16" y="163" font-size="12" fill="#94A3B8">Employees</text>
  <text x="16" y="195" font-size="12" fill="#94A3B8">Equipment</text>
  <text x="16" y="227" font-size="12" fill="#94A3B8">Floor Plans</text>
  <text x="16" y="259" font-size="12" fill="#94A3B8">Payments</text>
  <text x="16" y="291" font-size="12" fill="#94A3B8">Discounts &amp; Promos</text>
  <text x="16" y="323" font-size="12" fill="#94A3B8">Gift Cards</text>
  <text x="16" y="355" font-size="12" fill="#94A3B8">Loyalty</text>

  <!-- Active nav item: Auto-Gratuity -->
  <use href="#navActive" x="0" y="366"/>
  <text x="16" y="389" font-size="12" font-weight="700" fill="#F59E0B">Auto-Gratuity</text>

  <text x="16" y="421" font-size="12" fill="#94A3B8">Cash Management</text>
  <text x="16" y="453" font-size="12" fill="#94A3B8">House Accounts</text>
  <text x="16" y="485" font-size="12" fill="#94A3B8">Chargebacks</text>
  <text x="16" y="517" font-size="12" fill="#94A3B8">RBS Compliance</text>
  <text x="16" y="549" font-size="12" fill="#94A3B8">Revenue Centers</text>
  <text x="16" y="581" font-size="12" fill="#94A3B8">Menu Scheduling</text>
  <text x="16" y="613" font-size="12" fill="#94A3B8">Reports</text>
  <text x="16" y="645" font-size="12" fill="#94A3B8">Integrations</text>
  <text x="16" y="677" font-size="12" fill="#94A3B8">Training Mode</text>

  <!-- ==================== HEADER BAR ==================== -->
  <rect x="201" y="0" width="1165" height="60" fill="url(#headerGrad)"/>
  <rect x="201" y="60" width="1165" height="1" fill="#2A2E45"/>
  <text x="220" y="34" font-size="20" font-weight="700" fill="#E2E8F0">Auto-Gratuity</text>
  <text x="220" y="52" font-size="11" fill="#64748B">Automatic service charge for large parties. Legally distinct from voluntary tip — configurable per revenue center.</text>

  <!-- Save Settings button -->
  <rect x="1220" y="12" width="130" height="36" rx="7" fill="url(#amberBtnGrad)" filter="url(#btnShadow)"/>
  <text x="1285" y="35" font-size="13" font-weight="700" fill="#0C0E1A" text-anchor="middle">Save Settings</text>

  <!-- ==================== LEGAL NOTE BANNER ==================== -->
  <rect x="210" y="70" width="1146" height="72" rx="7" fill="#1A1208" stroke="#F59E0B" stroke-width="1.5" filter="url(#cardShadow)"/>
  <text x="226" y="93" font-size="12" font-weight="700" fill="#F59E0B">&#9878; Legal Distinction:</text>
  <text x="336" y="93" font-size="12" fill="#FDE68A">Auto-gratuity is a SERVICE CHARGE (mandatory), not a voluntary TIP.</text>
  <text x="226" y="111" font-size="11" fill="#FCD34D">Under IRS Rev. Rul. 2012-18, mandatory service charges are restaurant revenue — servers receive them as WAGES (subject to withholding).</text>
  <text x="226" y="129" font-size="11" fill="#94A3B8">Voluntary tips are employee income reported by employee. Configure carefully.</text>

  <!-- ==================== TWO-PANEL LAYOUT ==================== -->
  <!-- Divider -->
  <rect x="672" y="152" width="1" height="862" fill="#2A2E45"/>

  <!-- ============================================================ -->
  <!-- LEFT PANEL: CONFIGURATION                                    -->
  <!-- ============================================================ -->

  <!-- == Section: Auto-Gratuity Rules == -->
  <!-- DB: pos_config table -->
  <text x="218" y="178" font-size="13" font-weight="700" fill="#94A3B8" letter-spacing="1">AUTO-GRATUITY RULES</text>
  <rect x="210" y="184" width="454" height="1" fill="#2A2E45"/>

  <!-- Enable toggle -->
  <!-- DB: pos_config.auto_grat_enabled (boolean) -->
  <rect x="210" y="192" width="454" height="44" rx="7" fill="url(#cardGrad)" filter="url(#cardShadow)"/>
  <text x="224" y="218" font-size="13" font-weight="600" fill="#E2E8F0">Enable Auto-Gratuity</text>
  <use href="#adminGear" x="370" y="207" width="16" height="16"/>
  <use href="#toggleOn" x="600" y="203" width="50" height="22"/>
  <text x="656" y="218" font-size="11" fill="#22C55E">ON</text>

  <!-- Apply to revenue centers label -->
  <!-- DB: pos_config.auto_grat_revenue_centers (jsonb array) -->
  <text x="218" y="254" font-size="12" font-weight="600" fill="#94A3B8">Apply to Revenue Centers:</text>
  <use href="#adminGear" x="376" y="241" width="14" height="14"/>

  <!-- Revenue center checkboxes -->
  <use href="#checkboxOn" x="218" y="262" width="14" height="14"/>
  <text x="238" y="274" font-size="12" fill="#E2E8F0">Main Dining Room</text>

  <use href="#checkboxOn" x="218" y="282" width="14" height="14"/>
  <text x="238" y="294" font-size="12" fill="#E2E8F0">Patio</text>

  <use href="#checkboxOn" x="218" y="302" width="14" height="14"/>
  <text x="238" y="314" font-size="12" fill="#E2E8F0">Private Room / Events</text>

  <use href="#checkboxOff" x="218" y="322" width="14" height="14"/>
  <text x="238" y="334" font-size="12" fill="#64748B">Bar</text>
  <text x="312" y="334" font-size="10" fill="#475569">(bar tabs typically excluded)</text>

  <use href="#checkboxOff" x="218" y="342" width="14" height="14"/>
  <text x="238" y="354" font-size="12" fill="#64748B">Takeout</text>

  <use href="#checkboxOff" x="218" y="362" width="14" height="14"/>
  <text x="238" y="374" font-size="12" fill="#64748B">Online Orders</text>

  <!-- Party Size Threshold -->
  <!-- DB: pos_config.auto_grat_threshold (int, guests) -->
  <rect x="210" y="386" width="454" height="60" rx="7" fill="url(#cardGrad)" filter="url(#cardShadow)"/>
  <text x="224" y="407" font-size="13" font-weight="600" fill="#E2E8F0">Party Size Threshold</text>
  <use href="#adminGear" x="366" y="394" width="16" height="16"/>
  <text x="224" y="423" font-size="11" fill="#64748B">Below threshold: voluntary tip shown. At or above: auto-grat applied.</text>
  <!-- Stepper control -->
  <rect x="568" y="396" width="28" height="28" rx="5" fill="#2A2E45"/>
  <text x="582" y="415" font-size="16" fill="#E2E8F0" text-anchor="middle">&#8722;</text>
  <rect x="600" y="396" width="36" height="28" rx="5" fill="#0C0E1A" stroke="#F59E0B" stroke-width="1"/>
  <text x="618" y="415" font-size="14" font-weight="700" fill="#F59E0B" text-anchor="middle">6</text>
  <rect x="640" y="396" width="28" height="28" rx="5" fill="#2A2E45"/>
  <text x="654" y="415" font-size="16" fill="#E2E8F0" text-anchor="middle">+</text>
  <text x="638" y="438" font-size="10" fill="#64748B" text-anchor="middle">guests (2&#8211;20)</text>

  <!-- Auto-Grat Rate slider -->
  <!-- DB: pos_config.auto_grat_rate_bps (int, basis points — 1800 = 18%) -->
  <rect x="210" y="454" width="454" height="68" rx="7" fill="url(#cardGrad)" filter="url(#cardShadow)"/>
  <text x="224" y="475" font-size="13" font-weight="600" fill="#E2E8F0">Auto-Grat Rate</text>
  <use href="#adminGear" x="326" y="462" width="16" height="16"/>
  <text x="650" y="475" font-size="16" font-weight="700" fill="#F59E0B" text-anchor="end">18%</text>
  <!-- Slider track -->
  <rect x="224" y="487" width="418" height="6" rx="3" fill="#2A2E45"/>
  <rect x="224" y="487" width="251" height="6" rx="3" fill="#F59E0B"/>
  <circle cx="475" cy="490" r="9" fill="#F59E0B" stroke="#0C0E1A" stroke-width="2"/>
  <text x="224" y="510" font-size="10" fill="#64748B">10%</text>
  <text x="433" y="510" font-size="10" fill="#64748B" text-anchor="middle">Standard: 18% / 20% (upscale)</text>
  <text x="650" y="510" font-size="10" fill="#64748B" text-anchor="end">25%</text>

  <!-- Override toggle: Manager waive -->
  <!-- DB: pos_config.auto_grat_allow_waiver (boolean) -->
  <rect x="210" y="530" width="454" height="58" rx="7" fill="url(#cardGrad)" filter="url(#cardShadow)"/>
  <text x="224" y="552" font-size="13" font-weight="600" fill="#E2E8F0">Allow Manager to Waive Auto-Grat</text>
  <use href="#adminGear" x="448" y="539" width="16" height="16"/>
  <use href="#toggleOn" x="600" y="541" width="50" height="22"/>
  <text x="656" y="556" font-size="11" fill="#22C55E">ON</text>
  <text x="224" y="572" font-size="11" fill="#64748B">Manager PIN required + reason required for waiver</text>

  <!-- == Section: How It Appears == -->
  <text x="218" y="608" font-size="13" font-weight="700" fill="#94A3B8" letter-spacing="1">HOW IT APPEARS</text>
  <rect x="210" y="614" width="454" height="1" fill="#2A2E45"/>

  <!-- Label on check (editable) -->
  <!-- DB: pos_config.auto_grat_check_label (text) -->
  <rect x="210" y="622" width="454" height="44" rx="7" fill="url(#cardGrad)"/>
  <text x="224" y="643" font-size="12" fill="#94A3B8">Label on check:</text>
  <use href="#adminGear" x="320" y="634" width="14" height="14"/>
  <rect x="340" y="630" width="316" height="26" rx="5" fill="#0C0E1A" stroke="#2A2E45" stroke-width="1"/>
  <text x="350" y="648" font-size="12" fill="#E2E8F0">Auto Gratuity (18%)</text>

  <!-- Label on receipt -->
  <!-- DB: pos_config.auto_grat_receipt_label (text) -->
  <rect x="210" y="672" width="454" height="36" rx="7" fill="url(#cardGrad)"/>
  <text x="224" y="693" font-size="12" fill="#94A3B8">Label on receipt:</text>
  <use href="#adminGear" x="322" y="682" width="14" height="14"/>
  <text x="340" y="693" font-size="12" fill="#E2E8F0">Automatic Service Charge &#8212; 18%</text>

  <!-- Customer display label -->
  <!-- DB: pos_config.auto_grat_display_label (text) -->
  <rect x="210" y="714" width="454" height="36" rx="7" fill="url(#cardGrad)"/>
  <text x="224" y="735" font-size="12" fill="#94A3B8">Customer display:</text>
  <use href="#adminGear" x="330" y="724" width="14" height="14"/>
  <text x="348" y="735" font-size="11" fill="#E2E8F0">Auto Gratuity &#8212; Included for parties of 6+</text>

  <!-- Position on check -->
  <!-- DB: pos_config.auto_grat_position (enum: below_subtotal | below_tax | above_tax) -->
  <text x="218" y="766" font-size="12" fill="#94A3B8">Position on check:</text>
  <use href="#adminGear" x="328" y="754" width="14" height="14"/>
  <use href="#radioOn" x="350" y="755" width="12" height="12"/>
  <text x="367" y="766" font-size="12" fill="#E2E8F0">Below subtotal</text>
  <use href="#radioOff" x="466" y="755" width="12" height="12"/>
  <text x="483" y="766" font-size="12" fill="#64748B">Below tax</text>
  <use href="#radioOff" x="546" y="755" width="12" height="12"/>
  <text x="563" y="766" font-size="12" fill="#64748B">Above tax</text>

  <!-- Taxable -->
  <!-- DB: pos_config.auto_grat_taxable (boolean) -->
  <text x="218" y="790" font-size="12" fill="#94A3B8">Taxable:</text>
  <use href="#adminGear" x="270" y="778" width="14" height="14"/>
  <use href="#radioOn" x="292" y="779" width="12" height="12"/>
  <text x="309" y="790" font-size="12" fill="#22C55E" font-weight="600">Yes (taxed same as food)</text>
  <use href="#radioOff" x="472" y="779" width="12" height="12"/>
  <text x="489" y="790" font-size="12" fill="#64748B">No (jurisdiction-dependent)</text>
  <text x="218" y="805" font-size="10" fill="#64748B">&#9888; Some jurisdictions tax mandatory service charges. Verify with accountant.</text>

  <!-- == Section: Accounting & Payroll == -->
  <text x="218" y="830" font-size="13" font-weight="700" fill="#94A3B8" letter-spacing="1">ACCOUNTING &amp; PAYROLL</text>
  <rect x="210" y="836" width="454" height="1" fill="#2A2E45"/>

  <!-- Track auto-grat as -->
  <!-- DB: pos_config.auto_grat_accounting_type (enum: revenue | passthrough) -->
  <text x="218" y="856" font-size="12" fill="#94A3B8">Track auto-grat as:</text>
  <use href="#adminGear" x="330" y="844" width="14" height="14"/>
  <use href="#radioOn" x="218" y="863" width="12" height="12"/>
  <text x="236" y="874" font-size="12" fill="#E2E8F0" font-weight="600">Restaurant Revenue</text>
  <text x="362" y="874" font-size="11" fill="#64748B">(paid as wages &#8212; withholding applies)</text>
  <use href="#radioOff" x="218" y="883" width="12" height="12"/>
  <text x="236" y="894" font-size="12" fill="#64748B">Pass-through to staff</text>

  <!-- Distribute to tip pool -->
  <!-- DB: pos_config.auto_grat_tip_pool_enabled (boolean), pos_tip_pool_splits -->
  <rect x="210" y="904" width="454" height="44" rx="7" fill="url(#cardGrad)"/>
  <text x="224" y="925" font-size="12" font-weight="600" fill="#E2E8F0">Distribute to Tip Pool</text>
  <use href="#adminGear" x="370" y="914" width="14" height="14"/>
  <use href="#toggleOn" x="600" y="914" width="50" height="22"/>
  <text x="656" y="929" font-size="11" fill="#22C55E">ON</text>
  <text x="224" y="942" font-size="11" fill="#64748B">Server 70% &#183; Busser 15% &#183; Host 15%</text>
  <text x="500" y="942" font-size="10" fill="#8B5CF6">Gusto sync</text>

  <!-- Print disclosure toggle -->
  <!-- DB: pos_config.auto_grat_print_disclosure (boolean) -->
  <rect x="210" y="954" width="454" height="36" rx="7" fill="url(#cardGrad)"/>
  <text x="224" y="975" font-size="12" font-weight="600" fill="#E2E8F0">Print Disclosure on Menu</text>
  <use href="#adminGear" x="380" y="964" width="14" height="14"/>
  <use href="#toggleOn" x="600" y="963" width="50" height="22"/>
  <text x="656" y="978" font-size="11" fill="#22C55E">ON</text>

  <!-- ============================================================ -->
  <!-- RIGHT PANEL: LIVE PREVIEW + REGISTER BEHAVIOR               -->
  <!-- ============================================================ -->

  <text x="685" y="174" font-size="13" font-weight="700" fill="#94A3B8" letter-spacing="1">LIVE PREVIEW + REGISTER BEHAVIOR</text>

  <!-- == Register View Mockup == -->
  <rect x="681" y="182" width="669" height="340" rx="8" fill="url(#cardGrad)" stroke="#2A2E45" stroke-width="1" filter="url(#cardShadow)"/>
  <rect x="681" y="182" width="669" height="36" rx="8" fill="#111425"/>
  <rect x="681" y="206" width="669" height="12" fill="#111425"/>
  <text x="697" y="205" font-size="12" font-weight="700" fill="#94A3B8">How it looks on the register</text>
  <text x="900" y="205" font-size="12" fill="#F59E0B" font-weight="700">&#8212; Party of 7</text>

  <!-- Order items -->
  <text x="697" y="232" font-size="11" fill="#64748B">7x items (Salmon $28, Ribeye $42, Pasta $18 x2, Salads $14 x2, Apps $13)</text>
  <line x1="697" y1="240" x2="1335" y2="240" stroke="#2A2E45" stroke-width="1"/>

  <!-- Subtotal -->
  <text x="697" y="256" font-size="12" fill="#94A3B8">Subtotal</text>
  <text x="1327" y="256" font-size="12" fill="#E2E8F0" text-anchor="end">$147.00</text>

  <!-- Auto-grat line (highlighted) -->
  <rect x="686" y="261" width="641" height="26" rx="4" fill="#1C1608"/>
  <text x="697" y="278" font-size="13" font-weight="700" fill="#F59E0B">Auto Gratuity (18%)</text>
  <rect x="855" y="263" width="44" height="18" rx="9" fill="#92400E"/>
  <text x="877" y="276" font-size="10" font-weight="700" fill="#FCD34D" text-anchor="middle">AUTO</text>
  <text x="1327" y="278" font-size="13" font-weight="700" fill="#F59E0B" text-anchor="end">$26.46</text>

  <!-- Tax -->
  <text x="697" y="300" font-size="12" fill="#94A3B8">Tax (8.875%) on $173.46</text>
  <text x="1327" y="300" font-size="12" fill="#E2E8F0" text-anchor="end">$15.39</text>

  <line x1="697" y1="308" x2="1327" y2="308" stroke="#2A2E45" stroke-width="1"/>

  <!-- Total -->
  <text x="697" y="326" font-size="15" font-weight="700" fill="#E2E8F0">TOTAL</text>
  <text x="1327" y="326" font-size="15" font-weight="700" fill="#E2E8F0" text-anchor="end">$188.85</text>

  <!-- Notes -->
  <text x="697" y="346" font-size="11" fill="#64748B" font-style="italic">Voluntary tip field is HIDDEN for this check (party of 7)</text>
  <text x="697" y="362" font-size="11" fill="#64748B">Manager can waive auto-grat</text>
  <text x="830" y="362" font-size="11" fill="#3B82F6" text-decoration="underline">&#8594; Waive</text>

  <!-- CHARGE button -->
  <rect x="1160" y="372" width="180" height="40" rx="7" fill="url(#amberBtnGrad)" filter="url(#btnShadow)"/>
  <text x="1250" y="397" font-size="14" font-weight="700" fill="#0C0E1A" text-anchor="middle">CHARGE $188.85</text>

  <!-- == Customer Display Mockup == -->
  <rect x="681" y="534" width="328" height="188" rx="8" fill="url(#cardGrad)" stroke="#2A2E45" stroke-width="1" filter="url(#cardShadow)"/>
  <rect x="681" y="534" width="328" height="30" rx="8" fill="#111425"/>
  <rect x="681" y="552" width="328" height="12" fill="#111425"/>
  <text x="697" y="551" font-size="11" font-weight="700" fill="#94A3B8">Customer Display &#8212; Table 6 (Party of 7)</text>

  <text x="697" y="575" font-size="11" fill="#64748B">Subtotal</text>
  <text x="999" y="575" font-size="11" fill="#E2E8F0" text-anchor="end">$147.00</text>

  <text x="697" y="593" font-size="11" fill="#F59E0B">Auto Gratuity (18%) &#8212; for parties of 6+</text>
  <text x="697" y="607" font-size="10" fill="#64748B" font-style="italic">&#9432; An automatic gratuity of 18% is included for parties of 6 or more.</text>
  <text x="999" y="593" font-size="11" font-weight="700" fill="#F59E0B" text-anchor="end">$26.46</text>

  <text x="697" y="626" font-size="11" fill="#64748B">Tax</text>
  <text x="999" y="626" font-size="11" fill="#E2E8F0" text-anchor="end">$15.39</text>

  <line x1="697" y1="632" x2="1000" y2="632" stroke="#2A2E45" stroke-width="1"/>
  <text x="697" y="648" font-size="13" font-weight="700" fill="#E2E8F0">Total</text>
  <text x="999" y="648" font-size="13" font-weight="700" fill="#E2E8F0" text-anchor="end">$188.85</text>

  <rect x="697" y="657" width="298" height="54" rx="7" fill="#0D4F38"/>
  <text x="846" y="676" font-size="12" font-weight="700" fill="#22C55E" text-anchor="middle">Pay with Card</text>
  <text x="846" y="695" font-size="10" fill="#6EE7B7" text-anchor="middle">Tap &#183; Chip &#183; Swipe &#183; Apple Pay</text>

  <!-- == Receipt Preview Mockup == -->
  <rect x="1021" y="534" width="329" height="270" rx="8" fill="#FAFAF9" stroke="#2A2E45" stroke-width="1"/>
  <rect x="1021" y="534" width="329" height="30" rx="8" fill="#E7E5E4"/>
  <rect x="1021" y="552" width="329" height="12" fill="#E7E5E4"/>
  <text x="1037" y="551" font-size="11" font-weight="700" fill="#475569">Receipt Preview &#8212; Paper receipt output</text>

  <text x="1037" y="575" font-size="10" fill="#475569" font-family="'Menlo',monospace">SYNALUX RESTAURANT</text>
  <text x="1037" y="589" font-size="10" fill="#78716C" font-family="'Menlo',monospace">Table 6 &#183; Server: Alex &#183; Party of 7</text>
  <line x1="1037" y1="596" x2="1340" y2="596" stroke="#D6D3D1" stroke-width="0.5" stroke-dasharray="2,2"/>
  <text x="1037" y="610" font-size="10" fill="#475569" font-family="'Menlo',monospace">Salmon, Ribeye, 2x Pasta, 2x Salad, Apps</text>
  <line x1="1037" y1="617" x2="1340" y2="617" stroke="#D6D3D1" stroke-width="0.5" stroke-dasharray="2,2"/>
  <text x="1037" y="631" font-size="10" fill="#475569" font-family="'Menlo',monospace">Subtotal ................. $147.00</text>

  <rect x="1028" y="636" width="313" height="16" fill="#FEF3C7"/>
  <text x="1037" y="649" font-size="10" fill="#92400E" font-family="'Menlo',monospace" font-weight="700">Auto Gratuity (18%) ...... $26.46</text>

  <text x="1037" y="667" font-size="10" fill="#475569" font-family="'Menlo',monospace">Tax (8.875%) ............. $15.39</text>
  <line x1="1037" y1="673" x2="1340" y2="673" stroke="#475569" stroke-width="1"/>
  <text x="1037" y="687" font-size="11" fill="#475569" font-family="'Menlo',monospace" font-weight="700">TOTAL ................... $188.85</text>
  <line x1="1037" y1="692" x2="1340" y2="692" stroke="#D6D3D1" stroke-width="0.5" stroke-dasharray="2,2"/>

  <text x="1037" y="706" font-size="9" fill="#78716C" font-family="'Menlo',monospace">Automatic Service Charge Disclosure:</text>
  <text x="1037" y="718" font-size="9" fill="#78716C" font-family="'Menlo',monospace">A mandatory gratuity of 18% has been</text>
  <text x="1037" y="730" font-size="9" fill="#78716C" font-family="'Menlo',monospace">applied to your check for parties of 6+.</text>
  <line x1="1037" y1="737" x2="1340" y2="737" stroke="#D6D3D1" stroke-width="0.5" stroke-dasharray="2,2"/>
  <text x="1175" y="752" font-size="9" fill="#78716C" font-family="'Menlo',monospace" text-anchor="middle">Thank you for dining with us!</text>
  <text x="1175" y="768" font-size="9" fill="#78716C" font-family="'Menlo',monospace" text-anchor="middle">synalux.com/review</text>

  <!-- == Waiver Flow Card == -->
  <!-- DB: pos_auto_grat_waivers, pos_audit_log -->
  <rect x="681" y="732" width="328" height="182" rx="8" fill="url(#cardGrad)" stroke="#2A2E45" stroke-width="1" filter="url(#cardShadow)"/>
  <rect x="681" y="732" width="328" height="30" rx="8" fill="#111425"/>
  <rect x="681" y="750" width="328" height="12" fill="#111425"/>
  <text x="697" y="751" font-size="11" font-weight="700" fill="#94A3B8">Waive Auto-Gratuity Flow</text>

  <text x="697" y="775" font-size="11" fill="#64748B">1.</text>
  <text x="710" y="775" font-size="11" fill="#E2E8F0">Manager selects "Waive Auto-Grat" from order</text>
  <text x="697" y="791" font-size="11" fill="#64748B">2.</text>
  <text x="710" y="791" font-size="11" fill="#E2E8F0">Manager PIN required</text>
  <text x="697" y="807" font-size="11" fill="#64748B">3.</text>
  <text x="710" y="807" font-size="11" fill="#E2E8F0">Reason required:</text>

  <!-- Reason dropdown (editable) -->
  <!-- DB: pos_auto_grat_waivers.waiver_reason (enum) -->
  <rect x="710" y="812" width="290" height="24" rx="5" fill="#0C0E1A" stroke="#2A2E45" stroke-width="1"/>
  <text x="720" y="828" font-size="11" fill="#94A3B8">Guest Request / Dissatisfied / VIP / Error / Other</text>
  <text x="992" y="828" font-size="11" fill="#64748B" text-anchor="end">&#9660;</text>

  <text x="697" y="851" font-size="11" fill="#64748B">4.</text>
  <text x="710" y="851" font-size="11" fill="#E2E8F0">Logged: pos_auto_grat_waiver + manager_id</text>
  <text x="697" y="867" font-size="11" fill="#64748B">5.</text>
  <text x="710" y="867" font-size="11" fill="#E2E8F0">Voluntary tip prompt shown after waiver</text>

  <!-- DB table badges -->
  <rect x="697" y="875" width="80" height="18" rx="9" fill="#312E81"/>
  <text x="737" y="888" font-size="9" fill="#A5B4FC" text-anchor="middle">pos_audit_log</text>
  <rect x="783" y="875" width="120" height="18" rx="9" fill="#312E81"/>
  <text x="843" y="888" font-size="9" fill="#A5B4FC" text-anchor="middle">pos_auto_grat_waivers</text>
  <rect x="909" y="875" width="94" height="18" rx="9" fill="#312E81"/>
  <text x="956" y="888" font-size="9" fill="#A5B4FC" text-anchor="middle">waiver_reason</text>

  <!-- ============================================================ -->
  <!-- WORKFLOW INTEGRATION BANNER (full width bottom)             -->
  <!-- ============================================================ -->
  <!-- DB: pos_orders, pos_payments, pos_config, pos_auto_grat_distributions -->
  <rect x="210" y="960" width="1146" height="54" rx="7" fill="#1A1208" stroke="#F59E0B" stroke-width="1.5"/>
  <text x="226" y="976" font-size="11" font-weight="700" fill="#F59E0B">Workflow Integration:</text>
  <text x="354" y="976" font-size="11" fill="#FDE68A">pos_orders.party_size >= pos_config.auto_grat_threshold &#8594; auto_grat_cents = subtotal x rate.</text>
  <text x="226" y="991" font-size="10" fill="#94A3B8">Stored: pos_payments.auto_grat_cents (separate from tip_cents). Tax: if taxable=true, auto_grat added to taxable base before tax calc.</text>
  <text x="226" y="1006" font-size="10" fill="#94A3B8">Payroll: pos_auto_grat_distributions &#8594; Gusto export. Report: auto-grat vs voluntary tip separately. IRS: auto-grat as wages on W-2.</text>

</svg>