<svg role="img" aria-labelledby="title-settings_break_tracking-svg" xmlns="http://www.w3.org/2000/svg" viewBox="0 0 1366 1024" font-family="-apple-system,BlinkMacSystemFont,'Segoe UI',Roboto,sans-serif">

  <title id="title-settings_break_tracking-svg">Synalux POS — Ureak tracking</title>
  <desc>Synalux POS mockup screen for Ureak tracking. All UI elements admin-configurable.</desc>
  <defs>
    <!-- ============================================================ -->
    <!-- REUSABLE DEFINITIONS                                          -->
    <!-- ============================================================ -->

    <!-- Gradient: Header bar -->
    <linearGradient id="headerGrad" x1="0" y1="0" x2="0" y2="1">
      <stop offset="0%" stop-color="#1E2235"/>
      <stop offset="100%" stop-color="#181B30"/>
    </linearGradient>

    <!-- Gradient: Amber button -->
    <linearGradient id="amberBtnGrad" x1="0" y1="0" x2="0" y2="1">
      <stop offset="0%" stop-color="#FBBF24"/>
      <stop offset="100%" stop-color="#F59E0B"/>
    </linearGradient>

    <!-- Gradient: Card surface -->
    <linearGradient id="cardGrad" x1="0" y1="0" x2="0" y2="1">
      <stop offset="0%" stop-color="#1A1D2E"/>
      <stop offset="100%" stop-color="#161929"/>
    </linearGradient>

    <!-- Drop shadow for cards -->
    <filter id="cardShadow" x="-2%" y="-2%" width="104%" height="108%">
      <feDropShadow dx="0" dy="2" stdDeviation="4" flood-color="#000000" flood-opacity="0.4"/>
    </filter>

    <!-- Drop shadow for buttons -->
    <filter id="btnShadow" x="-4%" y="-8%" width="108%" height="120%">
      <feDropShadow dx="0" dy="1" stdDeviation="2" flood-color="#000000" flood-opacity="0.3"/>
    </filter>

    <!-- SYMBOL: Admin gear icon (editable field indicator) -->
    <!-- DB source: pos_config / admin-editable field indicator -->
    <symbol id="adminGear" viewBox="0 0 14 14">
      <path d="M7 4.5a2.5 2.5 0 100 5 2.5 2.5 0 000-5zM5.5 7a1.5 1.5 0 113 0 1.5 1.5 0 01-3 0z" fill="#F59E0B"/>
      <path d="M7 0l1.09 2.08 2.28-.47.47 2.28L13 5l-1.09 2 1.09 2-2.12 1.11-.47 2.28-2.28-.47L7 14l-1.09-2.08-2.28.47-.47-2.28L1 9l1.09-2L1 5l2.12-1.11.47-2.28 2.28.47z" fill="none" stroke="#F59E0B" stroke-width="0.7"/>
    </symbol>

    <!-- SYMBOL: Toggle switch ON -->
    <symbol id="toggleOn" viewBox="0 0 40 22">
      <rect width="40" height="22" rx="11" fill="#22C55E"/>
  <!-- Synalux POS -->
      <circle cx="29" cy="11" r="9" fill="#FFFFFF"/>
    </symbol>

    <!-- SYMBOL: Toggle switch OFF -->
    <symbol id="toggleOff" viewBox="0 0 40 22">
      <rect width="40" height="22" rx="11" fill="#374151"/>
      <circle cx="11" cy="11" r="9" fill="#94A3B8"/>
    </symbol>

    <!-- SYMBOL: Radio button selected -->
    <symbol id="radioOn" viewBox="0 0 10 10">
      <circle cx="5" cy="5" r="5" fill="#F59E0B"/>
    </symbol>

    <!-- SYMBOL: Radio button unselected -->
    <symbol id="radioOff" viewBox="0 0 10 10">
      <circle cx="5" cy="5" r="5" fill="#2A2E45" stroke="#64748B" stroke-width="1.5"/>
    </symbol>

    <!-- SYMBOL: Employee avatar circle -->
    <symbol id="empAvatar" viewBox="0 0 24 24">
      <circle cx="12" cy="12" r="12"/>
    </symbol>

    <!-- SYMBOL: Status badge: OVERDUE -->
    <symbol id="badgeOverdue" viewBox="0 0 72 20">
      <rect width="72" height="20" rx="4" fill="#7C1D1D"/>
      <text x="5" y="14" font-size="9" font-weight="700" fill="#FCA5A5" font-family="-apple-system,sans-serif">&#9888; OVERDUE</text>
    </symbol>

    <!-- SYMBOL: Status badge: ON BREAK -->
    <symbol id="badgeOnBreak" viewBox="0 0 84 20">
      <rect width="84" height="20" rx="4" fill="#065F46"/>
      <text x="4" y="14" font-size="9" font-weight="700" fill="#6EE7B7" font-family="-apple-system,sans-serif">&#9679; ON BREAK</text>
    </symbol>

    <!-- SYMBOL: Status badge: Completed -->
    <symbol id="badgeCompleted" viewBox="0 0 90 18">
      <text x="0" y="14" font-size="10" fill="#22C55E" font-family="-apple-system,sans-serif">Completed &#10003;</text>
    </symbol>

    <!-- SYMBOL: Status badge: MISSED -->
    <symbol id="badgeMissed" viewBox="0 0 52 16">
      <rect width="52" height="16" rx="3" fill="#7C1D1D"/>
      <text x="4" y="12" font-size="9" font-weight="700" fill="#FCA5A5" font-family="-apple-system,sans-serif">MISSED</text>
    </symbol>

    <!-- SYMBOL: Edit pencil icon -->
    <symbol id="editPencil" viewBox="0 0 12 12">
      <text x="0" y="11" font-size="11" fill="#F59E0B" font-family="-apple-system,sans-serif">&#9998;</text>
    </symbol>

    <!-- SYMBOL: Break type indicator bar (left edge of row) -->
    <symbol id="breakIndicator" viewBox="0 0 3 34">
      <rect width="3" height="34"/>
    </symbol>
  </defs>

  <!-- ============================================================ -->
  <!-- BACKGROUND — #0C0E1A per design spec                         -->
  <!-- ============================================================ -->
  <rect width="1366" height="1024" fill="#0C0E1A"/>

  <!-- ============================================================ -->
  <!-- LEFT SIDEBAR — Navigation                                     -->
  <!-- DB source: pos_admin_nav (static menu structure)              -->
  <!-- ============================================================ -->
  <rect x="0" y="0" width="210" height="1024" fill="#11132A"/>
  <rect x="210" y="0" width="1" height="1024" fill="#2A2E45"/>

  <text x="16" y="30" font-size="13" font-weight="700" fill="#F59E0B">&#9881; Back Office</text>
  <rect x="0" y="40" width="210" height="1" fill="#2A2E45"/>

  <text x="16" y="67" font-size="12" fill="#94A3B8">Restaurant Info</text>
  <text x="16" y="103" font-size="12" fill="#94A3B8">Menu Builder</text>
  <text x="16" y="139" font-size="12" fill="#94A3B8">Taxes</text>
  <text x="16" y="175" font-size="12" fill="#94A3B8">Employees</text>
  <text x="16" y="211" font-size="12" fill="#94A3B8">Equipment</text>
  <text x="16" y="247" font-size="12" fill="#94A3B8">Payments</text>
  <text x="16" y="283" font-size="12" fill="#94A3B8">Reports</text>
  <text x="16" y="319" font-size="12" fill="#94A3B8">Schedules</text>

  <!-- Active: Break Tracking -->
  <rect x="0" y="330" width="210" height="36" fill="#1E2235" rx="4"/>
  <rect x="0" y="330" width="3" height="36" fill="#F59E0B"/>
  <text x="16" y="353" font-size="12" font-weight="600" fill="#F59E0B">Break Tracking</text>

  <text x="16" y="391" font-size="12" fill="#94A3B8">Integrations</text>
  <text x="16" y="427" font-size="12" fill="#94A3B8">Revenue Centers</text>
  <text x="16" y="463" font-size="12" fill="#94A3B8">Loyalty</text>
  <text x="16" y="499" font-size="12" fill="#94A3B8">Gift Cards</text>

  <!-- ============================================================ -->
  <!-- HEADER BAR                                                     -->
  <!-- DB source: pos_shift_breaks, pos_break_rules                  -->
  <!-- ============================================================ -->
  <rect x="211" y="0" width="1155" height="60" fill="url(#headerGrad)"/>
  <text x="228" y="26" font-size="18" font-weight="700" fill="#FFFFFF">Break Tracking &amp; Labor Compliance</text>
  <text x="228" y="48" font-size="11" fill="#94A3B8">Discrete paid/unpaid break clock events per shift. CA/NY labor law compliance. Missed break alerts.</text>
  <!-- DB source annotation -->
  <text x="780" y="48" font-size="10" fill="#475569" font-style="italic">&#8594; pos_shift_breaks / pos_break_rules</text>

  <!-- Save Settings button (admin action) -->
  <rect x="1230" y="14" width="120" height="30" rx="6" fill="url(#amberBtnGrad)" filter="url(#btnShadow)"/>
  <text x="1258" y="34" font-size="12" font-weight="600" fill="#000000">Save Settings</text>

  <!-- ============================================================ -->
  <!-- LEGAL ALERT BANNER                                            -->
  <!-- DB source: pos_config.tax_zone (state-based labor law rules)  -->
  <!-- ============================================================ -->
  <rect x="211" y="60" width="1155" height="64" fill="#1C1810" stroke="#F59E0B" stroke-width="1.5"/>
  <text x="228" y="81" font-size="13" font-weight="700" fill="#F59E0B">&#9878; Labor Law Alert</text>
  <text x="228" y="98" font-size="11" fill="#FCD34D">California: 30-min unpaid meal break for shifts &gt; 5 hrs; 10-min paid rest per 4 hrs worked. Missed break = premium pay</text>
  <text x="228" y="115" font-size="11" fill="#FCD34D">penalty ($1/hr extra). New York: similar requirements. Configure break rules below to avoid labor law violations.</text>

  <!-- ============================================================ -->
  <!-- LEFT PANEL: Break Rules Configuration (x=211, w=468)          -->
  <!-- DB source: pos_break_rules                                    -->
  <!-- ============================================================ -->
  <rect x="211" y="124" width="468" height="900" fill="#161930"/>

  <!-- Section: Break Rules by State -->
  <text x="220" y="150" font-size="13" font-weight="700" fill="#E2E8F0">Break Rules by State</text>
  <line x1="220" y1="155" x2="668" y2="155" stroke="#2A2E45" stroke-width="1"/>

  <!-- State Selector — DB source: pos_config.tax_zone (editable) -->
  <rect x="220" y="162" width="448" height="34" rx="6" fill="#0C0E1A" stroke="#F59E0B" stroke-width="1.5"/>
  <text x="236" y="184" font-size="12" fill="#E2E8F0">New York</text>
  <use href="#adminGear" x="308" y="174" width="12" height="12"/>
  <text x="620" y="184" font-size="12" fill="#F59E0B">&#9662;</text>
  <text x="368" y="184" font-size="10" fill="#94A3B8">(matches pos_config.tax_zone)</text>

  <!-- NY Rules card — DB source: pos_break_rules WHERE state='NY' -->
  <rect x="220" y="202" width="448" height="88" rx="6" fill="url(#cardGrad)" stroke="#2A2E45" stroke-width="1" filter="url(#cardShadow)"/>
  <text x="232" y="222" font-size="11" font-weight="600" fill="#94A3B8">NY-SPECIFIC RULES</text>
  <!-- pos_break_rules.meal_break_duration, trigger_hours -->
  <text x="232" y="242" font-size="11" fill="#E2E8F0">Meal Break (unpaid):</text>
  <text x="348" y="242" font-size="11" fill="#94A3B8">30 min for shifts &gt; 6 hours</text>
  <use href="#adminGear" x="545" y="233" width="10" height="10"/>
  <!-- pos_break_rules.rest_break -->
  <text x="232" y="260" font-size="11" fill="#E2E8F0">Rest Break:</text>
  <text x="348" y="260" font-size="11" fill="#64748B">Not required by NY law (recommended)</text>
  <!-- pos_break_rules.missed_penalty_rate -->
  <text x="232" y="278" font-size="11" fill="#E2E8F0">Missed meal penalty:</text>
  <text x="348" y="278" font-size="11" fill="#EF4444">$1.00 extra per hour worked</text>
  <use href="#adminGear" x="505" y="269" width="10" height="10"/>

  <!-- Quick-set chips — DB source: pos_break_rules presets -->
  <text x="220" y="308" font-size="10" fill="#64748B">QUICK-SET:</text>
  <rect x="283" y="294" width="76" height="22" rx="11" fill="#1A1D2E" stroke="#2A2E45" stroke-width="1"/>
  <text x="301" y="309" font-size="10" fill="#94A3B8">California</text>
  <rect x="365" y="294" width="76" height="22" rx="11" fill="#1E2235" stroke="#F59E0B" stroke-width="1.5"/>
  <text x="384" y="309" font-size="10" font-weight="600" fill="#F59E0B">New York</text>
  <rect x="447" y="294" width="60" height="22" rx="11" fill="#1A1D2E" stroke="#2A2E45" stroke-width="1"/>
  <text x="462" y="309" font-size="10" fill="#94A3B8">Federal</text>
  <rect x="513" y="294" width="56" height="22" rx="11" fill="#1A1D2E" stroke="#2A2E45" stroke-width="1"/>
  <text x="528" y="309" font-size="10" fill="#94A3B8">Custom</text>

  <!-- ============================================================ -->
  <!-- Section: Break Configuration Table                            -->
  <!-- DB source: pos_break_rules (editable per break type)          -->
  <!-- ============================================================ -->
  <text x="220" y="338" font-size="13" font-weight="700" fill="#E2E8F0">Break Configuration</text>
  <line x1="220" y1="343" x2="668" y2="343" stroke="#2A2E45" stroke-width="1"/>

  <!-- Table Header -->
  <rect x="220" y="348" width="448" height="22" fill="#0C0E1A"/>
  <text x="224" y="363" font-size="9" font-weight="600" fill="#64748B">BREAK TYPE</text>
  <text x="303" y="363" font-size="9" font-weight="600" fill="#64748B">DURATION</text>
  <text x="356" y="363" font-size="9" font-weight="600" fill="#64748B">PAID?</text>
  <text x="400" y="363" font-size="9" font-weight="600" fill="#64748B">TRIGGERS</text>
  <text x="470" y="363" font-size="9" font-weight="600" fill="#64748B">PROMPT?</text>
  <text x="529" y="363" font-size="9" font-weight="600" fill="#64748B">REQD?</text>
  <text x="574" y="363" font-size="9" font-weight="600" fill="#64748B">EDIT</text>

  <!-- Row 1: Meal Break — DB source: pos_break_rules WHERE type='meal' (editable) -->
  <rect x="220" y="370" width="448" height="34" fill="url(#cardGrad)"/>
  <use href="#breakIndicator" x="220" y="370" width="3" height="34" fill="#EF4444"/>
  <text x="228" y="385" font-size="10" font-weight="600" fill="#E2E8F0">Meal Break</text>
  <text x="228" y="398" font-size="9" fill="#64748B">Unpaid</text>
  <text x="303" y="391" font-size="10" fill="#E2E8F0">30 min</text>
  <use href="#adminGear" x="338" y="383" width="10" height="10"/>
  <rect x="356" y="376" width="28" height="16" rx="3" fill="#1E3A5F"/>
  <text x="360" y="388" font-size="9" fill="#93C5FD">No</text>
  <text x="393" y="388" font-size="9" fill="#94A3B8">5 hrs on</text>
  <use href="#adminGear" x="440" y="380" width="10" height="10"/>
  <text x="470" y="388" font-size="9" fill="#22C55E">Yes (alert)</text>
  <rect x="529" y="376" width="34" height="16" rx="8" fill="#065F46"/>
  <text x="535" y="388" font-size="9" fill="#6EE7B7">Yes</text>
  <use href="#editPencil" x="578" y="380" width="12" height="12"/>

  <!-- Row 2: Rest Break — DB source: pos_break_rules WHERE type='rest' (editable) -->
  <rect x="220" y="404" width="448" height="34" fill="url(#cardGrad)" stroke="#2A2E45" stroke-width="0.5"/>
  <use href="#breakIndicator" x="220" y="404" width="3" height="34" fill="#22C55E"/>
  <text x="228" y="419" font-size="10" font-weight="600" fill="#E2E8F0">Rest Break</text>
  <text x="228" y="432" font-size="9" fill="#64748B">Paid</text>
  <text x="303" y="425" font-size="10" fill="#E2E8F0">10 min</text>
  <use href="#adminGear" x="338" y="417" width="10" height="10"/>
  <rect x="356" y="410" width="28" height="16" rx="3" fill="#065F46"/>
  <text x="359" y="422" font-size="9" fill="#6EE7B7">Yes</text>
  <text x="393" y="422" font-size="9" fill="#94A3B8">4 hrs on</text>
  <use href="#adminGear" x="440" y="414" width="10" height="10"/>
  <text x="470" y="419" font-size="9" fill="#22C55E">Yes</text>
  <text x="470" y="430" font-size="8" fill="#64748B">(prompt)</text>
  <rect x="529" y="410" width="52" height="16" rx="8" fill="#1E3A5F"/>
  <text x="533" y="422" font-size="9" fill="#93C5FD">Recom.</text>
  <use href="#editPencil" x="578" y="414" width="12" height="12"/>

  <!-- Row 3: Short Break — DB source: pos_break_rules WHERE type='short' (editable) -->
  <rect x="220" y="438" width="448" height="34" fill="url(#cardGrad)"/>
  <use href="#breakIndicator" x="220" y="438" width="3" height="34" fill="#8B5CF6"/>
  <text x="228" y="453" font-size="10" font-weight="600" fill="#E2E8F0">Short Break</text>
  <text x="228" y="466" font-size="9" fill="#64748B">Paid</text>
  <text x="303" y="459" font-size="10" fill="#E2E8F0">5 min</text>
  <use href="#adminGear" x="332" y="451" width="10" height="10"/>
  <rect x="356" y="444" width="28" height="16" rx="3" fill="#065F46"/>
  <text x="359" y="456" font-size="9" fill="#6EE7B7">Yes</text>
  <text x="393" y="453" font-size="9" fill="#94A3B8">Mgr disc.</text>
  <text x="470" y="456" font-size="9" fill="#64748B">No</text>
  <text x="529" y="456" font-size="9" fill="#64748B">No</text>
  <use href="#editPencil" x="578" y="448" width="12" height="12"/>

  <rect x="220" y="472" width="448" height="1" fill="#2A2E45"/>
  <text x="220" y="489" font-size="11" fill="#F59E0B" text-decoration="underline">+ Add Break Rule</text>
  <use href="#adminGear" x="328" y="480" width="10" height="10"/>

  <!-- ============================================================ -->
  <!-- Section: Break Enforcement                                    -->
  <!-- DB source: pos_break_config (venue-level toggles, editable)   -->
  <!-- ============================================================ -->
  <text x="220" y="514" font-size="13" font-weight="700" fill="#E2E8F0">Break Enforcement</text>
  <line x1="220" y1="519" x2="668" y2="519" stroke="#2A2E45" stroke-width="1"/>

  <!-- Toggle: Alert manager (ON) -->
  <rect x="220" y="526" width="448" height="44" rx="4" fill="url(#cardGrad)"/>
  <text x="232" y="543" font-size="11" font-weight="600" fill="#E2E8F0">Alert manager if employee hasn't taken meal break</text>
  <use href="#toggleOn" x="622" y="530" width="40" height="22"/>
  <use href="#adminGear" x="602" y="534" width="10" height="10"/>
  <text x="232" y="560" font-size="10" fill="#94A3B8">After 5 hrs 15 min on shift without break &#183; Push notification + register badge</text>

  <!-- Toggle: Auto-clock (OFF) -->
  <rect x="220" y="574" width="448" height="28" rx="4" fill="url(#cardGrad)"/>
  <text x="232" y="592" font-size="11" fill="#94A3B8">Auto-clock break start (staff must manually start)</text>
  <use href="#toggleOff" x="622" y="578" width="40" height="22"/>
  <use href="#adminGear" x="602" y="582" width="10" height="10"/>

  <!-- Toggle: Require manager approval (OFF) -->
  <rect x="220" y="606" width="448" height="28" rx="4" fill="url(#cardGrad)"/>
  <text x="232" y="624" font-size="11" fill="#94A3B8">Require manager approval to skip break</text>
  <use href="#toggleOff" x="622" y="610" width="40" height="22"/>
  <use href="#adminGear" x="602" y="614" width="10" height="10"/>

  <!-- Toggle: Premium pay (ON) — DB source: pos_break_config.premium_pay_enabled -->
  <rect x="220" y="638" width="448" height="44" rx="4" fill="url(#cardGrad)"/>
  <text x="232" y="655" font-size="11" font-weight="600" fill="#E2E8F0">Premium pay &#8212; log premium pay if break missed</text>
  <use href="#toggleOn" x="622" y="642" width="40" height="22"/>
  <use href="#adminGear" x="602" y="646" width="10" height="10"/>
  <!-- pos_break_config.premium_rate -->
  <text x="232" y="672" font-size="10" fill="#94A3B8">Premium rate: $1.00/hr  (New York standard)</text>
  <use href="#adminGear" x="440" y="663" width="10" height="10"/>

  <!-- Grace period — DB source: pos_break_config.grace_period_min (editable) -->
  <rect x="220" y="686" width="448" height="28" rx="4" fill="url(#cardGrad)"/>
  <text x="232" y="704" font-size="11" fill="#94A3B8">Grace period:</text>
  <rect x="328" y="690" width="90" height="20" rx="4" fill="#0C0E1A" stroke="#2A2E45" stroke-width="1"/>
  <text x="336" y="704" font-size="10" fill="#E2E8F0">5 minutes</text>
  <use href="#adminGear" x="426" y="694" width="10" height="10"/>
  <text x="446" y="704" font-size="10" fill="#64748B">before penalty applies</text>

  <!-- ============================================================ -->
  <!-- Section: Break Prompt                                         -->
  <!-- DB source: pos_break_config.prompt_* (editable)               -->
  <!-- ============================================================ -->
  <text x="220" y="732" font-size="13" font-weight="700" fill="#E2E8F0">Break Prompt (on register)</text>
  <line x1="220" y1="737" x2="668" y2="737" stroke="#2A2E45" stroke-width="1"/>

  <!-- Reminder target (radio) -->
  <text x="220" y="754" font-size="10" fill="#64748B">REMINDER APPEARS ON:</text>
  <use href="#radioOn" x="226" y="764" width="10" height="10"/>
  <text x="241" y="773" font-size="11" fill="#E2E8F0">Staff's register screen</text>
  <use href="#adminGear" x="380" y="764" width="10" height="10"/>
  <use href="#radioOff" x="398" y="764" width="10" height="10"/>
  <text x="413" y="773" font-size="11" fill="#64748B">Manager's display</text>
  <use href="#radioOff" x="518" y="764" width="10" height="10"/>
  <text x="533" y="773" font-size="11" fill="#64748B">Both</text>

  <!-- Reminder style (radio) -->
  <text x="220" y="793" font-size="10" fill="#64748B">REMINDER STYLE:</text>
  <use href="#radioOn" x="226" y="798" width="10" height="10"/>
  <text x="241" y="812" font-size="11" fill="#E2E8F0">Soft reminder (dismissible)</text>
  <use href="#adminGear" x="406" y="803" width="10" height="10"/>
  <use href="#radioOff" x="424" y="808" width="10" height="10"/>
  <text x="439" y="812" font-size="11" fill="#64748B">Hard block (requires manager)</text>

  <!-- Reminder text (editable) — DB source: pos_break_config.reminder_text -->
  <text x="220" y="832" font-size="10" fill="#64748B">REMINDER TEXT:</text>
  <rect x="220" y="838" width="448" height="36" rx="4" fill="#0C0E1A" stroke="#2A2E45" stroke-width="1"/>
  <text x="228" y="852" font-size="10" fill="#94A3B8">You've been on shift for 5+ hours. Please take your 30-min meal break.</text>
  <use href="#adminGear" x="654" y="842" width="10" height="10"/>

  <!-- Toggle: Return-to-work notification (ON) -->
  <rect x="220" y="880" width="448" height="28" rx="4" fill="url(#cardGrad)"/>
  <text x="232" y="898" font-size="11" fill="#94A3B8">Show return-to-work notification after break</text>
  <use href="#toggleOn" x="622" y="884" width="40" height="22"/>
  <use href="#adminGear" x="602" y="888" width="10" height="10"/>

  <!-- Save button -->
  <rect x="220" y="920" width="200" height="36" rx="6" fill="url(#amberBtnGrad)" filter="url(#btnShadow)"/>
  <text x="274" y="943" font-size="13" font-weight="700" fill="#000000">Save Settings</text>

  <!-- ============================================================ -->
  <!-- RIGHT PANEL: Live Status & Break Log (x=680, w=686)           -->
  <!-- DB source: pos_shift_breaks, pos_shifts                       -->
  <!-- ============================================================ -->
  <rect x="680" y="124" width="686" height="900" fill="#0C0E1A"/>

  <!-- Current Shift Status Cards -->
  <!-- DB source: pos_shifts WHERE clock_out IS NULL (active shifts) -->
  <text x="692" y="148" font-size="13" font-weight="700" fill="#E2E8F0">Current Shift Status</text>

  <!-- Card: Marcus – OVERDUE -->
  <rect x="692" y="156" width="158" height="72" rx="6" fill="#1C1410" stroke="#F59E0B" stroke-width="1.5" filter="url(#cardShadow)"/>
  <text x="702" y="174" font-size="11" font-weight="700" fill="#F59E0B">Marcus</text>
  <text x="702" y="190" font-size="10" fill="#94A3B8">On shift: 5h 42min</text>
  <rect x="702" y="196" width="126" height="20" rx="4" fill="#7C1D1D"/>
  <text x="706" y="210" font-size="9" font-weight="600" fill="#FCA5A5">&#9888; Meal break OVERDUE!</text>

  <!-- Card: Sarah – ON BREAK -->
  <rect x="858" y="156" width="158" height="72" rx="6" fill="#0A1E15" stroke="#22C55E" stroke-width="1.5" filter="url(#cardShadow)"/>
  <text x="868" y="174" font-size="11" font-weight="700" fill="#22C55E">Sarah</text>
  <text x="868" y="190" font-size="10" fill="#94A3B8">On break since 6:50 PM</text>
  <rect x="868" y="196" width="136" height="20" rx="4" fill="#065F46"/>
  <text x="872" y="210" font-size="9" font-weight="600" fill="#6EE7B7">Paid rest break &#8212; 15 min</text>

  <!-- Card: Tyler – Clocked Out -->
  <rect x="1024" y="156" width="158" height="72" rx="6" fill="url(#cardGrad)" stroke="#2A2E45" stroke-width="1"/>
  <text x="1034" y="174" font-size="11" font-weight="700" fill="#94A3B8">Tyler</text>
  <text x="1034" y="190" font-size="10" fill="#64748B">Clocked out</text>
  <text x="1034" y="208" font-size="10" fill="#64748B">6:00 PM</text>

  <!-- Card: Jennifer – Due Soon -->
  <rect x="1190" y="156" width="164" height="72" rx="6" fill="url(#cardGrad)" stroke="#2A2E45" stroke-width="1"/>
  <text x="1200" y="174" font-size="11" font-weight="700" fill="#E2E8F0">Jennifer</text>
  <text x="1200" y="190" font-size="10" fill="#94A3B8">On shift: 3h 20min</text>
  <rect x="1200" y="196" width="142" height="20" rx="4" fill="#1F2937"/>
  <text x="1204" y="210" font-size="9" fill="#94A3B8">Rest break due in 40 min</text>

  <!-- ============================================================ -->
  <!-- BREAK LOG TABLE – Today                                      -->
  <!-- DB source: pos_shift_breaks WHERE DATE(started_at)=today      -->
  <!-- ============================================================ -->
  <text x="692" y="252" font-size="13" font-weight="700" fill="#E2E8F0">Break Log &#8212; Today</text>

  <!-- Table Header -->
  <rect x="692" y="258" width="662" height="24" fill="#0C0E1A" stroke="#2A2E45" stroke-width="1"/>
  <text x="698" y="274" font-size="9" font-weight="600" fill="#64748B">EMPLOYEE</text>
  <text x="770" y="274" font-size="9" font-weight="600" fill="#64748B">SHIFT START</text>
  <text x="840" y="274" font-size="9" font-weight="600" fill="#64748B">BREAK TYPE</text>
  <text x="930" y="274" font-size="9" font-weight="600" fill="#64748B">BRK START</text>
  <text x="996" y="274" font-size="9" font-weight="600" fill="#64748B">BRK END</text>
  <text x="1055" y="274" font-size="9" font-weight="600" fill="#64748B">DURATION</text>
  <text x="1115" y="274" font-size="9" font-weight="600" fill="#64748B">PAID</text>
  <text x="1155" y="274" font-size="9" font-weight="600" fill="#64748B">STATUS</text>

  <!-- Row 1: Marcus – OVERDUE -->
  <rect x="692" y="282" width="662" height="36" fill="#2D1010" stroke="#EF4444" stroke-width="0.5"/>
  <use href="#empAvatar" x="698" y="288" width="24" height="24" fill="#7C1D1D"/>
  <text x="705" y="304" font-size="9" font-weight="700" fill="#FCA5A5">MR</text>
  <text x="726" y="298" font-size="11" font-weight="600" fill="#FCA5A5">Marcus</text>
  <text x="726" y="311" font-size="9" fill="#94A3B8">Johnson</text>
  <text x="772" y="304" font-size="10" fill="#E2E8F0">2:00 PM</text>
  <text x="840" y="300" font-size="10" fill="#E2E8F0">Meal Break</text>
  <text x="840" y="312" font-size="8" fill="#64748B">Unpaid</text>
  <text x="934" y="304" font-size="10" fill="#64748B">&#8212;</text>
  <text x="1000" y="304" font-size="10" fill="#64748B">&#8212;</text>
  <text x="1059" y="304" font-size="10" fill="#64748B">&#8212;</text>
  <text x="1117" y="304" font-size="10" fill="#64748B">No</text>
  <use href="#badgeOverdue" x="1152" y="288" width="72" height="20"/>

  <!-- Row 2: Sarah – ON BREAK (active) -->
  <rect x="692" y="318" width="662" height="36" fill="#071F12" stroke="#22C55E" stroke-width="0.5"/>
  <use href="#empAvatar" x="698" y="324" width="24" height="24" fill="#065F46"/>
  <text x="707" y="340" font-size="9" font-weight="700" fill="#6EE7B7">SC</text>
  <text x="726" y="334" font-size="11" font-weight="600" fill="#6EE7B7">Sarah</text>
  <text x="726" y="347" font-size="9" fill="#94A3B8">Chen</text>
  <text x="772" y="340" font-size="10" fill="#E2E8F0">3:30 PM</text>
  <text x="840" y="336" font-size="10" fill="#E2E8F0">Rest Break</text>
  <text x="840" y="348" font-size="8" fill="#22C55E">Paid</text>
  <text x="930" y="340" font-size="10" fill="#E2E8F0">6:50 PM</text>
  <text x="1000" y="340" font-size="10" fill="#22C55E">Active...</text>
  <text x="1059" y="340" font-size="10" fill="#22C55E">15 min</text>
  <text x="1117" y="340" font-size="10" fill="#22C55E">Yes</text>
  <use href="#badgeOnBreak" x="1148" y="324" width="84" height="20"/>

  <!-- Row 3: Sarah – Earlier Rest Break completed -->
  <rect x="692" y="354" width="662" height="34" fill="url(#cardGrad)"/>
  <use href="#empAvatar" x="698" y="359" width="24" height="24" fill="#065F46"/>
  <text x="707" y="375" font-size="9" font-weight="700" fill="#6EE7B7">SC</text>
  <text x="726" y="369" font-size="10" fill="#94A3B8">Sarah</text>
  <text x="726" y="381" font-size="9" fill="#64748B">Chen</text>
  <text x="772" y="375" font-size="10" fill="#94A3B8">3:30 PM</text>
  <text x="840" y="371" font-size="10" fill="#94A3B8">Rest Break</text>
  <text x="840" y="383" font-size="8" fill="#22C55E">Paid</text>
  <text x="930" y="375" font-size="10" fill="#94A3B8">5:15 PM</text>
  <text x="1000" y="375" font-size="10" fill="#94A3B8">5:25 PM</text>
  <text x="1059" y="375" font-size="10" fill="#94A3B8">10 min</text>
  <text x="1117" y="375" font-size="10" fill="#22C55E">Yes</text>
  <use href="#badgeCompleted" x="1152" y="362" width="90" height="18"/>

  <!-- Row 4: Tyler – Meal Break completed -->
  <rect x="692" y="388" width="662" height="34" fill="url(#cardGrad)"/>
  <use href="#empAvatar" x="698" y="393" width="24" height="24" fill="#1E3A5F"/>
  <text x="707" y="409" font-size="9" font-weight="700" fill="#93C5FD">TW</text>
  <text x="726" y="403" font-size="10" fill="#94A3B8">Tyler</text>
  <text x="726" y="415" font-size="9" fill="#64748B">Wong</text>
  <text x="772" y="409" font-size="10" fill="#94A3B8">10:00 AM</text>
  <text x="840" y="405" font-size="10" fill="#94A3B8">Meal Break</text>
  <text x="840" y="417" font-size="8" fill="#64748B">Unpaid</text>
  <text x="930" y="409" font-size="10" fill="#94A3B8">1:00 PM</text>
  <text x="1000" y="409" font-size="10" fill="#94A3B8">1:30 PM</text>
  <text x="1059" y="409" font-size="10" fill="#94A3B8">30 min</text>
  <text x="1117" y="409" font-size="10" fill="#64748B">No</text>
  <use href="#badgeCompleted" x="1152" y="396" width="90" height="18"/>

  <!-- Row 5: Tyler – Rest Break completed -->
  <rect x="692" y="422" width="662" height="34" fill="url(#cardGrad)"/>
  <use href="#empAvatar" x="698" y="427" width="24" height="24" fill="#1E3A5F"/>
  <text x="707" y="443" font-size="9" font-weight="700" fill="#93C5FD">TW</text>
  <text x="726" y="437" font-size="10" fill="#94A3B8">Tyler</text>
  <text x="726" y="449" font-size="9" fill="#64748B">Wong</text>
  <text x="772" y="443" font-size="10" fill="#94A3B8">10:00 AM</text>
  <text x="840" y="439" font-size="10" fill="#94A3B8">Rest Break</text>
  <text x="840" y="451" font-size="8" fill="#22C55E">Paid</text>
  <text x="930" y="443" font-size="10" fill="#94A3B8">12:15 PM</text>
  <text x="1000" y="443" font-size="10" fill="#94A3B8">12:25 PM</text>
  <text x="1059" y="443" font-size="10" fill="#94A3B8">10 min</text>
  <text x="1117" y="443" font-size="10" fill="#22C55E">Yes</text>
  <use href="#badgeCompleted" x="1152" y="430" width="90" height="18"/>

  <!-- Row 6: Jennifer – Due -->
  <rect x="692" y="456" width="662" height="34" fill="url(#cardGrad)"/>
  <use href="#empAvatar" x="698" y="461" width="24" height="24" fill="#312E81"/>
  <text x="708" y="477" font-size="9" font-weight="700" fill="#C4B5FD">JL</text>
  <text x="726" y="471" font-size="10" fill="#94A3B8">Jennifer</text>
  <text x="726" y="483" font-size="9" fill="#64748B">Lopez</text>
  <text x="772" y="477" font-size="10" fill="#94A3B8">4:00 PM</text>
  <text x="840" y="473" font-size="10" fill="#64748B">Rest Break</text>
  <text x="840" y="485" font-size="8" fill="#22C55E">Paid</text>
  <text x="930" y="477" font-size="10" fill="#64748B">&#8212;</text>
  <text x="1000" y="477" font-size="10" fill="#64748B">&#8212;</text>
  <text x="1059" y="477" font-size="10" fill="#64748B">&#8212;</text>
  <text x="1117" y="477" font-size="10" fill="#22C55E">Yes</text>
  <text x="1152" y="477" font-size="10" fill="#64748B">Due at 8:00 PM</text>

  <!-- ============================================================ -->
  <!-- Break Actions                                                 -->
  <!-- DB source: pos_shift_breaks (manager actions, editable)       -->
  <!-- ============================================================ -->
  <rect x="692" y="498" width="662" height="1" fill="#2A2E45"/>
  <text x="692" y="518" font-size="11" font-weight="600" fill="#94A3B8">BREAK ACTIONS</text>
  <rect x="692" y="526" width="188" height="34" rx="6" fill="#7C1D1D" stroke="#EF4444" stroke-width="1" filter="url(#btnShadow)"/>
  <text x="704" y="540" font-size="11" font-weight="700" fill="#FCA5A5">&#9889; Force Break &#8212; Marcus</text>
  <text x="704" y="554" font-size="9" fill="#EF4444">Manager manually starts break</text>
  <rect x="890" y="526" width="168" height="34" rx="6" fill="#1C1810" stroke="#F59E0B" stroke-width="1" filter="url(#btnShadow)"/>
  <text x="910" y="543" font-size="11" font-weight="600" fill="#F59E0B">Log Missed Break</text>
  <text x="902" y="556" font-size="9" fill="#94A3B8">Triggers premium pay calc</text>
  <text x="1068" y="543" font-size="11" fill="#F59E0B" text-decoration="underline">Override</text>
  <text x="1068" y="556" font-size="9" fill="#64748B">mgr: mark completed</text>

  <!-- ============================================================ -->
  <!-- Missed Breaks / Premium Pay Log                               -->
  <!-- DB source: pos_premium_pay_log                                -->
  <!-- ============================================================ -->
  <rect x="692" y="574" width="662" height="120" rx="6" fill="#1A1010" stroke="#EF4444" stroke-width="1.5" filter="url(#cardShadow)"/>
  <text x="706" y="594" font-size="12" font-weight="700" fill="#EF4444">Missed Breaks / Premium Pay Log</text>
  <!-- Header row -->
  <rect x="706" y="600" width="634" height="18" fill="#2D1010"/>
  <text x="710" y="613" font-size="9" font-weight="600" fill="#64748B">DATE</text>
  <text x="760" y="613" font-size="9" font-weight="600" fill="#64748B">EMPLOYEE</text>
  <text x="840" y="613" font-size="9" font-weight="600" fill="#64748B">BREAK TYPE</text>
  <text x="940" y="613" font-size="9" font-weight="600" fill="#64748B">STATUS</text>
  <text x="1010" y="613" font-size="9" font-weight="600" fill="#64748B">PREMIUM PAY OWED</text>
  <!-- Row 1 -->
  <rect x="706" y="618" width="634" height="26" fill="#1C1010"/>
  <text x="710" y="635" font-size="10" fill="#94A3B8">Today</text>
  <text x="760" y="635" font-size="10" fill="#E2E8F0">Marcus</text>
  <text x="840" y="635" font-size="10" fill="#E2E8F0">Meal Break</text>
  <use href="#badgeMissed" x="940" y="622" width="52" height="16"/>
  <text x="1010" y="635" font-size="10" fill="#EF4444">$0.75 owed (42 min x $1/hr)</text>
  <!-- Row 2 -->
  <rect x="706" y="644" width="634" height="26" fill="#1A1010"/>
  <text x="710" y="661" font-size="10" fill="#94A3B8">Yesterday</text>
  <text x="760" y="661" font-size="10" fill="#E2E8F0">Jamie (New Hire)</text>
  <text x="840" y="661" font-size="10" fill="#E2E8F0">Rest Break</text>
  <use href="#badgeMissed" x="940" y="648" width="52" height="16"/>
  <text x="1010" y="661" font-size="10" fill="#EF4444">$1.00 owed</text>
  <!-- Export button -->
  <rect x="706" y="676" width="180" height="22" rx="4" fill="#312E81"/>
  <text x="718" y="691" font-size="10" font-weight="600" fill="#C4B5FD">Export Premium Pay Report &#8594;</text>
  <text x="900" y="691" font-size="9" fill="#64748B">Feeds Gusto payroll &#183; earnings code BRKPREM</text>

  <!-- ============================================================ -->
  <!-- Timeclock Integration – Shift Timeline                       -->
  <!-- DB source: pos_shifts + pos_shift_breaks (Marcus timeline)    -->
  <!-- ============================================================ -->
  <rect x="692" y="706" width="662" height="134" rx="6" fill="#100B1E" stroke="#8B5CF6" stroke-width="1.5" filter="url(#cardShadow)"/>
  <text x="706" y="726" font-size="12" font-weight="700" fill="#8B5CF6">Timeclock Integration &#8212; Shift Timeline: Marcus</text>
  <text x="706" y="742" font-size="10" fill="#64748B">Visual representation of break events embedded in full shift record</text>

  <!-- Timeline bar -->
  <rect x="706" y="752" width="634" height="30" rx="4" fill="url(#cardGrad)"/>
  <rect x="706" y="752" width="265" height="30" rx="4" fill="#065F46"/>
  <rect x="971" y="752" width="155" height="30" fill="#78350F"/>
  <rect x="1126" y="752" width="214" height="30" rx="4" fill="#7C1D1D"/>

  <text x="706" y="748" font-size="9" fill="#64748B">2:00 PM</text>
  <text x="810" y="748" font-size="8" fill="#22C55E">WORKED</text>
  <text x="960" y="748" font-size="9" fill="#64748B">5:30 PM</text>
  <text x="970" y="772" font-size="8" font-weight="700" fill="#F59E0B">BREAK DUE</text>
  <text x="1125" y="748" font-size="9" fill="#64748B">7:00 PM</text>
  <text x="1200" y="772" font-size="8" font-weight="700" fill="#EF4444">OVERDUE</text>
  <text x="1310" y="748" font-size="9" fill="#EF4444">7:42 NOW</text>

  <text x="706" y="798" font-size="10" fill="#94A3B8">CLOCK IN: 2:00 PM</text>
  <text x="820" y="798" font-size="10" fill="#F59E0B">MEAL BREAK DUE: 5:30 PM (not taken)</text>
  <text x="1100" y="798" font-size="10" fill="#EF4444">NOW: 7:42 PM</text>

  <!-- Summary stats -->
  <rect x="706" y="808" width="634" height="26" fill="url(#cardGrad)" rx="4"/>
  <text x="716" y="825" font-size="10" fill="#94A3B8">Total paid time:</text>
  <text x="806" y="825" font-size="10" font-weight="700" fill="#E2E8F0">5h 42min</text>
  <text x="880" y="825" font-size="10" fill="#94A3B8">Breaks taken:</text>
  <text x="956" y="825" font-size="10" font-weight="700" fill="#EF4444">0</text>
  <text x="990" y="825" font-size="10" fill="#94A3B8">Premium pay owed:</text>
  <text x="1102" y="825" font-size="10" font-weight="700" fill="#EF4444">TBD (break still active)</text>

  <!-- ============================================================ -->
  <!-- WORKFLOW & SCHEMA INTEGRATION (full width bottom)             -->
  <!-- DB source: pos_shift_breaks, pos_premium_pay_log schemas      -->
  <!-- ============================================================ -->
  <rect x="211" y="854" width="1155" height="140" rx="0" fill="#1C1A0A" stroke="#F59E0B" stroke-width="1.5"/>
  <text x="224" y="874" font-size="11" font-weight="700" fill="#F59E0B">Workflow &amp; Schema Integration</text>
  <text x="224" y="892" font-size="10" fill="#94A3B8">pos_shifts: clock_in, clock_out, break_mins (legacy total).</text>
  <text x="224" y="908" font-size="10" fill="#E2E8F0">NEW: pos_shift_breaks { shift_id, break_type varchar, started_at timestamptz, ended_at timestamptz, paid boolean, missed boolean, premium_pay_cents integer }</text>
  <text x="224" y="924" font-size="10" fill="#94A3B8">Alert cron (every 15 min): check active shifts &#8594; if shift_duration &#8722; total_break_min &gt; threshold &#8594; push alert to manager device + register badge.</text>
  <text x="224" y="940" font-size="10" fill="#94A3B8">Premium pay calc: hours_worked_after_required_break_due x premium_rate &#8594; INSERT pos_premium_pay_log. Gusto export: earnings code "BRKPREM".</text>
  <text x="224" y="956" font-size="10" fill="#94A3B8">iPad break flow: staff taps "Start Break" &#8594; INSERT pos_shift_breaks (started_at=NOW) &#8594; register locked &#8594; "End Break" &#8594; UPDATE row.</text>
  <text x="224" y="972" font-size="10" fill="#8B5CF6">pos_premium_pay_log linked to Gusto via payroll_integration_id. CA requires 1-hour premium (not $1); NY: $1/hr extra. Rule engine reads state from pos_config.tax_zone.</text>

</svg>